<?xml version="1.0" encoding="utf-8"?>
<!-- Generator: Adobe Illustrator 24.1.2, SVG Export Plug-In . SVG Version: 6.00 Build 0)  -->
<svg version="1.1" id="Layer_1" xmlns="http://www.w3.org/2000/svg" xmlns:xlink="http://www.w3.org/1999/xlink" x="0px" y="0px"
	 viewBox="0 0 784.7 434.7" style="enable-background:new 0 0 784.7 434.7;" xml:space="preserve">
<style type="text/css">
	.st0{fill:none;stroke:#000000;stroke-width:2.0088;stroke-linecap:round;stroke-miterlimit:11.3386;}
</style>
<g id="svgGroup">
	<path vector-effect="non-scaling-stroke" class="st0" d="M391,414.1l-81.8,20.4c-0.4,0.1-0.8,0.2-1.2,0.2c-1,0-2-0.2-2.9-0.7
		c-0.1,0-0.1-0.1-0.2-0.1l-16.1-9.7c-1.3-0.8-2.2-2-2.6-3.5L273.2,369l0,0c-0.2-0.9-0.7-1.7-1.3-2.3l0,0l-33.2-36.9l0,0
		c-0.6-0.7-1.4-1.2-2.2-1.5l0,0l-50.1-18.2c-1.4-0.5-2.5-1.5-3.2-2.9c0,0,0,0,0-0.1l-7.9-17c-0.6-1.3-0.7-2.7-0.3-4.1
		c0-0.1,0.1-0.2,0.1-0.3l11.9-32.8l0-0.1c0.1-0.3,0.2-0.7,0.3-1.1c0.7-2.9-0.5-4.9-3.4-6c-0.1,0-0.2-0.1-0.3-0.1l-11-4l-53.3-19.4
		l-0.1,0c-0.4-0.1-0.8-0.3-1.3-0.3c-1-0.1-2,0-3,0.5c-0.2,0.1-0.3,0.1-0.4,0.2l0,0l-29.1,16.8c-1.3,0.8-2.7,1-4.1,0.6
		c-0.1,0-0.1,0-0.2,0l-67.4-18.1c-1.5-0.4-2.7-1.3-3.4-2.6l-9.4-16.3c-0.8-1.3-1-2.7-0.6-4.1c0-0.1,0-0.1,0-0.2l13.3-49.8l5.3-19.9
		l8.6-32.1l5.3-19.9l13.3-49.8c0.4-1.4,1.3-2.7,2.6-3.4c0,0,0,0,0.1,0l16.3-9.4c1.3-0.7,2.7-1,4.1-0.6c0.1,0,0.1,0,0.2,0l44,11.8
		l0,0c0.3,0.1,0.6,0.2,1,0.2c2.7,0.4,4.6-0.8,5.7-3.6c0-0.1,0-0.1,0.1-0.2l3.7-10.3c0.5-1.4,1.5-2.5,2.9-3.2c0,0,0,0,0.1,0l17-7.9
		c1.3-0.6,2.7-0.7,4.1-0.3c0.1,0,0.2,0.1,0.3,0.1l32.9,12l0.1,0c0.5,0.2,0.9,0.3,1.4,0.3c0.9,0.1,1.7-0.1,2.6-0.4
		c0.1,0,0.2-0.1,0.3-0.1h0l13.9-6.5c1.3-0.6,2.7-0.7,4.1-0.3c0.1,0,0.2,0.1,0.3,0.1l65.6,23.9c1.5,0.5,2.5,1.5,3.2,2.9l8.2,17.5
		l0.1,0.2c0.6,1.3,1.7,2.3,3.1,2.7c0,0,0,0,0.1,0l13,4.7l19.4,7.1l8.5,3.1l38.4,14l0.2,0.1c0.6,0.2,1.2,0.6,1.8,1
		c1.2,1,1.8,2.4,1.8,4.3v26.2l-7.4-2.7l-15.5,42.6l-8.7,24l-1.5,4h17.7v92.2c0,3.1,2.5,5.7,5.7,5.7h70.5c3.1,0,5.7-2.5,5.7-5.7V181
		H451l-1.5-4l-8.7-24l-15.5-42.6l-7.4,2.7V86.9c0-1.8,0.6-3.3,1.8-4.3c0.5-0.4,1.1-0.8,1.8-1l0.2-0.1l38.4-14l8.5-3.1l19.4-7.1
		l13-4.7c0,0,0,0,0.1,0c1.3-0.5,2.4-1.5,3.1-2.7l0.1-0.2l8.2-17.5c0.7-1.4,1.7-2.4,3.2-2.9l65.6-23.9c0.1,0,0.2-0.1,0.3-0.1
		c1.4-0.4,2.7-0.3,4.1,0.3l13.9,6.5h0c0.1,0,0.2,0.1,0.3,0.1c0.9,0.3,1.7,0.5,2.6,0.4c0.5,0,1-0.2,1.4-0.3l0.1,0l32.9-12
		c0.1,0,0.2-0.1,0.3-0.1c1.4-0.4,2.7-0.3,4.1,0.3l17,7.9c0,0,0,0,0.1,0c1.3,0.6,2.4,1.8,2.9,3.2l3.7,10.3c0,0.1,0,0.1,0.1,0.2
		c1.1,2.8,3,4,5.7,3.6c0.3,0,0.6-0.1,1-0.2l0,0l44-11.8c0.1,0,0.1,0,0.2,0c1.4-0.3,2.8-0.1,4.1,0.6l16.3,9.4c0,0,0,0,0.1,0
		c1.3,0.7,2.2,2,2.6,3.4l13.3,49.8l5.3,19.9l8.6,32.1l5.3,19.9l13.3,49.8c0,0.1,0,0.1,0.1,0.2c0.3,1.4,0.1,2.8-0.6,4.1l-9.4,16.3
		c-0.8,1.4-1.9,2.2-3.4,2.6l-67.4,18.1c-0.1,0-0.1,0-0.2,0c-1.4,0.3-2.8,0.1-4.1-0.6l-29.1-16.8l0,0c-0.1-0.1-0.3-0.2-0.4-0.2
		c-1-0.5-2-0.6-3-0.5c-0.4,0.1-0.9,0.2-1.3,0.3l-0.1,0l-53.3,19.4l-11,4c-0.1,0-0.2,0.1-0.3,0.1c-3,1.2-4.1,3.2-3.4,6
		c0.1,0.4,0.2,0.7,0.3,1.1l0,0.1l11.9,32.8c0,0.1,0.1,0.2,0.1,0.3c0.4,1.4,0.3,2.7-0.3,4.1l-7.9,17c0,0,0,0,0,0.1
		c-0.6,1.3-1.8,2.4-3.2,2.9l-50.1,18.2l0,0c-0.8,0.3-1.6,0.8-2.2,1.5l0,0l-33.2,36.9l0,0c-0.6,0.7-1,1.5-1.3,2.3l0,0l-12.9,51.8
		c-0.4,1.5-1.2,2.7-2.6,3.5l-16.1,9.7c-0.1,0-0.1,0.1-0.2,0.1c-0.9,0.5-1.9,0.7-2.9,0.7c-0.4,0-0.8-0.1-1.2-0.2l-81.8-20.4l0,0
		c-0.4-0.1-0.9-0.2-1.3-0.2C391.9,414,391.4,414,391,414.1L391,414.1z M267.3,310.6l29.5-26.6l26.6,29.5l-29.5,26.6L267.3,310.6z
		 M517.3,310.6L487.8,284l-26.6,29.5l29.5,26.6L517.3,310.6z M719.8,88.8l-10.3-38.3l-38.3,10.3l10.3,38.3L719.8,88.8z M64.8,88.8
		l10.3-38.3l38.3,10.3l-10.3,38.3L64.8,88.8z M37,192.8l10.3-38.3l38.3,10.3l-10.3,38.3L37,192.8z M747.7,192.8l-10.3-38.3
		l-38.3,10.3l10.3,38.3L747.7,192.8z M684.4,176l-13.6-37.3l-37.3,13.6l13.6,37.3L684.4,176z M592.1,79.9l-13.6-37.3l-37.3,13.6
		l13.6,37.3L592.1,79.9z M535.5,239.2l-13.6-37.3l-37.3,13.6l13.6,37.3L535.5,239.2z M100.2,176l13.6-37.3l37.3,13.6l-13.6,37.3
		L100.2,176z M118.7,125.4l13.6-37.3l37.3,13.6L156,139L118.7,125.4z M155.7,181.1l13.6-37.3l37.3,13.6L193,194.7L155.7,181.1z
		 M267.6,188.6l13.6-37.3l37.3,13.6l-13.6,37.3L267.6,188.6z M137.1,74.8l13.6-37.3L188,51l-13.6,37.3L137.1,74.8z M249.2,239.2
		l13.6-37.3l37.3,13.6l-13.6,37.3L249.2,239.2z M286,138l13.6-37.3l37.3,13.6l-13.6,37.3L286,138z M212.1,283.1l13.6-37.3l37.3,13.6
		l-13.6,37.3L212.1,283.1z M629,181.1l-13.6-37.3l-37.3,13.6l13.6,37.3L629,181.1z M517.1,188.6l-13.6-37.3l-37.3,13.6l13.6,37.3
		L517.1,188.6z M498.7,138l-13.6-37.3l-37.3,13.6l13.6,37.3L498.7,138z M192.5,79.9l13.6-37.3l37.3,13.6l-13.6,37.3L192.5,79.9z
		 M572.6,283.1L559,245.8l-37.3,13.6l13.6,37.3L572.6,283.1z M237.3,114.3L250.9,77l37.3,13.6l-13.6,37.3L237.3,114.3z M666,125.4
		l-13.6-37.3l-37.3,13.6l13.6,37.3L666,125.4z M647.6,74.8L634,37.5L596.7,51l13.6,37.3L647.6,74.8z M547.3,114.3L533.8,77
		l-37.3,13.6l13.6,37.3L547.3,114.3z M478.8,359.4l-38.5-9.6l-9.6,38.5l38.5,9.6L478.8,359.4z M305.9,359.4l38.5-9.6l9.6,38.5
		l-38.5,9.6L305.9,359.4z M200.5,215.5l13.6-37.3l37.3,13.6l-13.6,37.3L200.5,215.5z M218.9,164.9l13.6-37.3l37.3,13.6l-13.6,37.3
		L218.9,164.9z M584.2,215.5l-13.6-37.3l-37.3,13.6l13.6,37.3L584.2,215.5z M565.7,164.9l-13.6-37.3l-37.3,13.6l13.6,37.3
		L565.7,164.9z M174.1,130.5l13.6-37.3l37.3,13.6l-13.6,37.3L174.1,130.5z M610.5,130.5L597,93.2l-37.3,13.6l13.6,37.3L610.5,130.5z
		 M50.9,140.8l10.3-38.3l38.3,10.3l-10.3,38.3L50.9,140.8z M733.8,140.8l-10.3-38.3l-38.3,10.3l10.3,38.3L733.8,140.8z M30.3,215.5
		c0-2,1.6-3.6,3.6-3.6s3.6,1.6,3.6,3.6l0,0c0,2-1.6,3.6-3.6,3.6S30.3,217.4,30.3,215.5z M118.5,39.6c0-2,1.6-3.6,3.6-3.6
		c2,0,3.6,1.6,3.6,3.6c0,2-1.6,3.6-3.6,3.6C120.1,43.1,118.5,41.5,118.5,39.6z M229,28.1c0-2,1.6-3.6,3.6-3.6c2,0,3.6,1.6,3.6,3.6
		s-1.6,3.6-3.6,3.6C230.6,31.6,229,30,229,28.1z M323.4,83.5c0-2,1.6-3.6,3.6-3.6c2,0,3.6,1.6,3.6,3.6c0,2-1.6,3.6-3.6,3.6
		C325,87.1,323.4,85.5,323.4,83.5z M189.2,270c0-2,1.6-3.6,3.6-3.6c2,0,3.6,1.6,3.6,3.6c0,2-1.6,3.6-3.6,3.6
		C190.8,273.5,189.2,271.9,189.2,270z M322.9,418.5c0-2,1.6-3.6,3.6-3.6c2,0,3.6,1.6,3.6,3.6c0,2-1.6,3.6-3.6,3.6
		C324.5,422.1,322.9,420.5,322.9,418.5z M747.3,215.5c0-2,1.6-3.6,3.6-3.6s3.6,1.6,3.6,3.6s-1.6,3.6-3.6,3.6
		S747.3,217.4,747.3,215.5z M659.1,39.6c0-2,1.6-3.6,3.6-3.6c2,0,3.5,1.6,3.6,3.6c0,2-1.6,3.6-3.6,3.6
		C660.6,43.1,659.1,41.5,659.1,39.6z M548.6,28.1c0-2,1.6-3.6,3.6-3.6c2,0,3.5,1.6,3.6,3.6c0,2-1.6,3.6-3.6,3.6
		C550.2,31.6,548.6,30,548.6,28.1z M454.2,83.5c0-2,1.6-3.6,3.6-3.6c2,0,3.5,1.6,3.6,3.6c0,2-1.6,3.6-3.6,3.6
		C455.7,87.1,454.2,85.5,454.2,83.5z M588.4,270c0-2,1.6-3.6,3.6-3.6c2,0,3.5,1.6,3.6,3.6c0,2-1.6,3.6-3.6,3.6
		C590,273.5,588.4,271.9,588.4,270z M454.6,418.5c0-2,1.6-3.6,3.6-3.6c2,0,3.5,1.6,3.6,3.6c0,2-1.6,3.6-3.6,3.6
		C456.2,422.1,454.6,420.5,454.6,418.5z M315.1,260.4c0-2,1.6-3.6,3.6-3.6s3.6,1.6,3.6,3.6l0,0c0,2-1.6,3.6-3.6,3.6
		S315.1,262.4,315.1,260.4z M462.5,260.4c0-2,1.6-3.6,3.6-3.6c2,0,3.5,1.6,3.6,3.6c0,2-1.6,3.6-3.6,3.6
		C464.1,263.9,462.5,262.4,462.5,260.4z"/>
</g>
</svg>
