<svg width="251.9mm" height="126.052mm" viewBox="0 0 251.9 126.052" xmlns="http://www.w3.org/2000/svg"><g id="svgGroup" stroke-linecap="round" fill-rule="evenodd" font-size="9pt" stroke="#000" stroke-width="0.25mm" fill="none" style="stroke:#000;stroke-width:0.25mm;fill:none"><path d="M 94.444 96.829 L 100.53 83.779 L 113.581 89.864 L 107.495 102.915 L 77.224 88.8 L 91.34 58.529 L 104.391 64.615 L 98.305 77.665 L 68.034 63.55 L 74.12 50.499 L 87.171 56.585 L 81.085 69.636 M 170.815 69.636 L 164.729 56.585 L 177.78 50.499 L 183.866 63.55 L 153.595 77.665 L 147.51 64.615 L 160.56 58.529 L 174.676 88.8 L 144.405 102.915 L 138.319 89.864 L 151.37 83.779 L 157.456 96.829 M 165.89 14.115 L 131.45 30.175 L 131.45 52.308 L 120.45 52.308 L 120.45 30.175 L 86.01 14.115 M 144.768 102.746 L 152.797 119.966 L 139.747 126.052 L 131.717 108.832 L 125.95 111.521 L 120.183 108.832 L 112.153 126.052 L 99.103 119.966 L 107.132 102.746 M 72.96 8.03 L 55.74 0 L 41.624 30.271 L 54.675 36.356 L 60.761 23.306 L 47.71 17.22 M 204.19 17.22 L 191.139 23.306 L 197.225 36.356 L 210.276 30.271 L 196.16 0 L 178.941 8.03 M 209.627 17.995 L 215.713 31.046 L 228.764 24.96 L 222.678 11.909 L 205.458 19.939 M 46.442 19.939 L 29.222 11.909 L 23.137 24.96 L 36.187 31.046 L 42.273 17.995 M 33.594 47.491 L 39.68 34.44 L 52.731 40.525 L 46.645 53.576 L 29.425 45.546 M 222.475 45.546 L 205.255 53.576 L 199.169 40.525 L 212.22 34.44 L 218.306 47.491 M 82.883 20.822 L 88.969 7.771 L 75.918 1.686 L 69.832 14.736 L 82.883 20.822 Z M 175.982 1.686 L 182.068 14.736 L 169.017 20.822 L 162.931 7.771 L 175.982 1.686 Z M 61.802 31.956 L 74.853 38.042 L 80.939 24.991 L 67.888 18.905 L 61.802 31.956 Z M 15.107 42.18 L 28.158 48.265 L 34.243 35.215 L 21.192 29.129 L 15.107 42.18 Z M 76.064 46.33 L 89.115 52.416 L 95.2 39.365 L 82.15 33.279 L 76.064 46.33 Z M 162.785 52.416 L 175.836 46.33 L 169.75 33.279 L 156.7 39.365 L 162.785 52.416 Z M 223.742 48.265 L 236.793 42.18 L 230.708 29.129 L 217.657 35.215 L 223.742 48.265 Z M 93.284 54.36 L 106.335 60.446 L 112.42 47.395 L 99.369 41.309 L 93.284 54.36 Z M 177.047 38.042 L 190.098 31.956 L 184.012 18.905 L 170.961 24.991 L 177.047 38.042 Z M 145.565 60.446 L 158.616 54.36 L 152.531 41.309 L 139.48 47.395 L 145.565 60.446 Z M 17.22 37.648 L 0 29.618 L 6.086 16.568 L 23.306 24.597 M 228.595 24.597 L 245.814 16.568 L 251.9 29.618 L 234.68 37.648 M 53.773 49.176 L 59.858 36.125 L 72.909 42.211 L 66.823 55.262 M 185.077 55.262 L 178.991 42.211 L 192.042 36.125 L 198.127 49.176 M 107.399 24.089 L 101.313 37.14 L 114.364 43.226 L 120.45 30.175 M 144.501 24.089 L 150.587 37.14 L 137.536 43.226 L 131.45 30.175 M 103.23 22.145 L 97.144 35.196 L 84.094 29.11 L 90.179 16.059 M 161.721 16.059 L 167.806 29.11 L 154.756 35.196 L 148.67 22.145 M 68.79 6.086 L 62.705 19.137 L 49.654 13.051 M 83.31 75.749 L 96.361 81.834 L 90.275 94.885 M 202.246 13.051 L 189.195 19.137 L 183.11 6.086 M 161.625 94.885 L 155.539 81.834 L 168.59 75.749 M 49.604 47.232 70.992 57.206 M 180.908 57.206 202.296 47.232 M 13.051 35.704 19.137 22.653 M 118.239 113.001 105.188 106.915 M 232.764 22.653 238.849 35.704 M 146.712 106.915 133.661 113.001" vector-effect="non-scaling-stroke"/></g></svg>