<?xml version="1.0" standalone="no"?>
<!DOCTYPE svg PUBLIC "-//W3C//DTD SVG 1.1//EN" "http://www.w3.org/Graphics/SVG/1.1/DTD/svg11.dtd">
<svg width="153mm" height="105mm" viewBox="-81 -43 153 105" xmlns="http://www.w3.org/2000/svg" version="1.1">
<title>OpenSCAD Model</title>
<path d="
M 68.0451,61.7553 L 69,61.3301 L 69.8457,60.7157 L 70.5451,59.9389 L 71.0677,59.0337 L 71.3907,58.0396
 L 71.5,57 L 71.5,-38 L 71.3907,-39.0396 L 71.0677,-40.0337 L 70.5451,-40.9389 L 69.8457,-41.7157
 L 69,-42.3301 L 68.0451,-42.7553 L 67.0226,-42.9726 L -76.5226,-42.9726 L -77.5451,-42.7553 L -78.5,-42.3301
 L -79.3456,-41.7157 L -80.0451,-40.9389 L -80.5677,-40.0337 L -80.8907,-39.0396 L -81,-38 L -81,57
 L -80.8907,58.0396 L -80.5677,59.0337 L -80.0451,59.9389 L -79.3456,60.7157 L -78.5,61.3301 L -77.5451,61.7553
 L -76.5226,61.9726 L 67.0226,61.9726 z
M -75.8485,-36.1515 L -76.2,-37 L -75.8485,-37.8485 L -75,-38.2 L -74.1515,-37.8485 L -73.8,-37
 L -74.1515,-36.1515 L -75,-35.8 z
M 64.6515,-36.1515 L 64.3,-37 L 64.6515,-37.8485 L 65.5,-38.2 L 66.3485,-37.8485 L 66.7,-37
 L 66.3485,-36.1515 L 65.5,-35.8 z
M -35.5,-21.5 L -35.5,-35.5 L -21.5,-35.5 L -21.5,-21.5 z
M -16.5,-21.5 L -16.5,-35.5 L -2.5,-35.5 L -2.5,-21.5 z
M -54.5,-21.5 L -54.5,-35.5 L -40.5,-35.5 L -40.5,-21.5 z
M 2.5,-21.5 L 2.5,-35.5 L 16.5,-35.5 L 16.5,-21.5 z
M 21.5,-21.5 L 21.5,-35.5 L 35.5,-35.5 L 35.5,-21.5 z
M 40.5,-21.5 L 40.5,-35.5 L 54.5,-35.5 L 54.5,-21.5 z
M -78.5,35.5 L -78.5,-31 L -59.5,-31 L -59.5,35.5 z
M -35.5,-2.5 L -35.5,-16.5 L -21.5,-16.5 L -21.5,-2.5 z
M -54.5,-2.5 L -54.5,-16.5 L -40.5,-16.5 L -40.5,-2.5 z
M 21.5,-2.5 L 21.5,-16.5 L 35.5,-16.5 L 35.5,-2.5 z
M 45.25,-2.5 L 45.25,-16.5 L 59.25,-16.5 L 59.25,-2.5 z
M -16.5,-2.5 L -16.5,-16.5 L -2.5,-16.5 L -2.5,-2.5 z
M 2.5,-2.5 L 2.5,-16.5 L 16.5,-16.5 L 16.5,-2.5 z
M 21.5,16.5 L 21.5,2.5 L 35.5,2.5 L 35.5,16.5 z
M -16.5,16.5 L -16.5,2.5 L -2.5,2.5 L -2.5,16.5 z
M -35.5,16.5 L -35.5,2.5 L -21.5,2.5 L -21.5,16.5 z
M -54.5,16.5 L -54.5,2.5 L -40.5,2.5 L -40.5,16.5 z
M 2.5,16.5 L 2.5,2.5 L 16.5,2.5 L 16.5,16.5 z
M 47.625,16.5 L 47.625,2.5 L 61.625,2.5 L 61.625,16.5 z
M -35.5,35.5 L -35.5,21.5 L -21.5,21.5 L -21.5,35.5 z
M 21.5,35.5 L 21.5,21.5 L 35.5,21.5 L 35.5,35.5 z
M 45.25,35.5 L 45.25,21.5 L 59.25,21.5 L 59.25,35.5 z
M 2.5,35.5 L 2.5,21.5 L 16.5,21.5 L 16.5,35.5 z
M -54.5,35.5 L -54.5,21.5 L -40.5,21.5 L -40.5,35.5 z
M -16.5,35.5 L -16.5,21.5 L -2.5,21.5 L -2.5,35.5 z
M 2.5,54.5 L 2.5,40.5 L 16.5,40.5 L 16.5,54.5 z
M 21.5,54.5 L 21.5,40.5 L 35.5,40.5 L 35.5,54.5 z
M 42.875,54.5 L 42.875,40.5 L 56.875,40.5 L 56.875,54.5 z
M -37.875,54.5 L -37.875,40.5 L -23.875,40.5 L -23.875,54.5 z
M -64,54.5 L -64,40.5 L -50,40.5 L -50,54.5 z
M -16.5,54.5 L -16.5,40.5 L -2.5,40.5 L -2.5,54.5 z
M -75.8485,56.8485 L -76.2,56 L -75.8485,55.1515 L -75,54.8 L -74.1515,55.1515 L -73.8,56
 L -74.1515,56.8485 L -75,57.2 z
M 64.6515,56.8485 L 64.3,56 L 64.6515,55.1515 L 65.5,54.8 L 66.3485,55.1515 L 66.7,56
 L 66.3485,56.8485 L 65.5,57.2 z
" stroke="black" fill="lightgray" stroke-width="0.5"/>
</svg>
