<?xml version="1.0" encoding="utf-8"?>
<!-- Generator: Adobe Illustrator 24.3.0, SVG Export Plug-In . SVG Version: 6.00 Build 0)  -->
<svg version="1.1" id="Layer_1" xmlns="http://www.w3.org/2000/svg" xmlns:xlink="http://www.w3.org/1999/xlink" x="0px" y="0px"
	 viewBox="0 0 1920 1080" style="enable-background:new 0 0 1920 1080;" xml:space="preserve">
<style type="text/css">
	.st0{fill:none;stroke:#000000;stroke-width:0.1239;stroke-linecap:round;stroke-linejoin:round;stroke-miterlimit:10;}
	.st1{fill:none;stroke:#000000;stroke-width:0.8504;stroke-linecap:round;stroke-linejoin:round;stroke-miterlimit:10;}
</style>
<g>
	<path class="st0" d="M1036.37,645.87l27-22.3 M1036.37,645.87l22.79,27.5 M1059.16,673.37l27-22.3 M1063.37,623.58l22.79,27.5
		 M1109.22,638.95c0.46-1.19,0.69-2.45,0.69-3.73c0-2.21-0.7-4.35-2.01-6.13 M1020.76,637.7l-30.47-17.34 M1007.88,589.88
		l-17.59,30.47 M1020.76,637.7l17.84-30.72 M1007.88,589.88l30.72,17.09 M1030.18,581.95l15.36-26.26 M1057.18,597.56l-27-15.61
		 M1072.54,571.3l-15.36,26.26 M1045.54,555.69l27,15.61 M937.02,611.68l34.19,5.95 M942.72,577.25l-5.7,34.44 M977.16,583.44
		l-34.44-6.19 M971.21,617.63l5.95-34.19 M1004.16,508h34.68 M1038.85,508v34.68 M1004.16,542.69V508 M1038.85,542.69h-34.68
		 M1004.16,460.68h34.68 M1038.85,460.68v34.68 M1004.16,495.37v-34.68 M1038.85,495.37h-34.68 M1003.91,413.61h34.68
		 M1038.6,413.61v34.68 M1003.91,448.3v-34.68 M1038.6,448.3h-34.68 M956.84,500.32h34.68 M991.53,500.32v34.68 M956.84,535.01
		v-34.68 M991.53,535.01h-34.68 M956.84,453.25h34.68 M991.53,453.25v34.68 M956.84,487.94v-34.68 M991.53,487.94h-34.68
		 M956.84,406.18h34.68 M991.53,406.18v34.68 M956.84,440.86v-34.68 M991.53,440.86h-34.68 M909.77,483.23h34.68 M944.46,483.23
		v34.68 M909.77,517.91v-34.68 M944.46,517.91h-34.68 M909.52,435.91h34.68 M944.21,435.91v34.68 M909.52,470.59v-34.68
		 M944.21,470.59h-34.68 M909.52,388.84h34.68 M944.21,388.84v34.68 M909.52,423.52v-34.68 M944.21,423.52h-34.68 M862.33,497.85
		h34.68 M897.01,497.85v34.68 M862.33,532.53v-34.68 M897.01,532.53h-34.68 M862.33,450.77h34.68 M897.01,450.77v34.68
		 M862.33,485.46v-34.68 M897.01,485.46h-34.68 M862.33,403.7h34.68 M897.01,403.7v34.68 M862.33,438.39V403.7 M897.01,438.39
		h-34.68 M849.94,562.26h-34.68 M849.94,527.58v34.68 M815.26,527.58h34.68 M815.26,562.26v-34.68 M850.56,515.19h-0.62
		 M850.56,479.88v35.3 M849.94,479.88h0.62 M815.26,515.19v-35.3 M849.94,515.19h-34.68 M815.26,479.88h34.68 M815.26,468.12v-35.3
		 M850.56,468.12h-35.3 M850.56,432.81v35.3 M815.26,432.81h35.3 M1083.44,578.98c0.52-0.98,0.8-2.08,0.8-3.19
		c0-1.24-0.34-2.45-0.98-3.51 M1045.66,550.49l37.6,21.79 M1045.13,405.79l0.53,144.7 M1070.75,602.57l12.69-23.59 M1070.75,602.57
		c-0.91,1.36-1.4,2.96-1.4,4.6c0,3.46,2.17,6.55,5.42,7.74 M1107.91,629.09l-33.14-14.18 M918.07,623.56
		c-27.15-32.12-66.84-50.95-108.89-51.67 M1057.75,682.42c-29.5-37.74-74.73-59.8-122.63-59.8c-5.69,0-11.38,0.31-17.04,0.94
		 M1057.75,682.42c21.26-8.78,39.26-23.98,51.48-43.48 M809.06,424.5l0.11,147.39 M1045.13,405.79
		c-31.83-15.61-66.81-23.73-102.26-23.73c-47.92,0-94.66,14.82-133.81,42.44"/>
	<path class="st1" d="M817.12,695.69v-8.5h2.03l1.21,0.41l0.81,0.81l0.4,0.81l0.41,1.62v1.21l-0.41,1.62l-0.4,0.81l-0.81,0.81
		l-1.21,0.4H817.12 M825.62,695.69v-5.67 M825.62,691.64l0.41-0.81l0.4-0.4l0.81-0.41h0.81 M830.89,695.69v-5.67 M830.89,687.18
		l-0.4,0.41l0.4,0.4l0.41-0.4L830.89,687.18v0.81 M836.15,695.69l-0.81-0.4l-0.41-0.81v-7.29 M840.61,695.69l-0.81-0.4l-0.41-0.81
		v-7.29 M850.33,695.69v-8.5l2.83,6.07l2.83-6.07v8.5 M863.69,695.69v-4.45l-0.41-0.81l-0.81-0.41h-1.62l-0.81,0.41 M863.69,695.28
		l-0.81,0.4h-2.02l-0.81-0.4l-0.4-0.81v-0.81l0.4-0.81l0.81-0.4h2.02l0.81-0.41 M867.74,690.02v8.5 M867.74,690.42l0.81-0.41h1.62
		l0.81,0.41l0.4,0.4l0.4,0.81v2.43l-0.4,0.81l-0.4,0.41l-0.81,0.4h-1.62l-0.81-0.4 M875.43,694.88l0.41,0.41l-0.41,0.4l-0.4-0.4
		L875.43,694.88v0.81 M875.43,690.42l0.41,0.4l-0.41,0.4l-0.4-0.4L875.43,690.42v0.81"/>
</g>
</svg>
