<?xml version="1.0" encoding="utf-8"?>
<!-- Generator: Adobe Illustrator 24.0.3, SVG Export Plug-In . SVG Version: 6.00 Build 0)  -->
<svg version="1.1" id="Layer_1" xmlns="http://www.w3.org/2000/svg" xmlns:xlink="http://www.w3.org/1999/xlink" x="0px" y="0px"
	 viewBox="0 0 518.8 381.2" style="enable-background:new 0 0 518.8 381.2;" xml:space="preserve">
<style type="text/css">
	.st0{fill:none;stroke:#000000;stroke-miterlimit:10;}
</style>
<g id="row1">
	<rect x="341.2" y="21.9" class="st0" width="35.7" height="37.5"/>
	<rect x="284" y="21.9" class="st0" width="35.7" height="37.5"/>
	<rect x="226.9" y="21.9" class="st0" width="35.7" height="37.5"/>
	<rect x="169.7" y="21.9" class="st0" width="35.7" height="37.5"/>
	<rect x="112.6" y="21.9" class="st0" width="35.7" height="37.5"/>
	<rect x="55.4" y="21.9" class="st0" width="35.7" height="37.5"/>
	<rect x="398.2" y="21.9" class="st0" width="93.5" height="37.5"/>
</g>
<g id="row2">
	<rect x="312.3" y="78.8" class="st0" width="35.7" height="37.5"/>
	<rect x="255.1" y="78.8" class="st0" width="35.7" height="37.5"/>
	<rect x="198" y="78.8" class="st0" width="35.7" height="37.5"/>
	<rect x="140.8" y="78.8" class="st0" width="35.7" height="37.5"/>
	<rect x="83.7" y="78.8" class="st0" width="35.7" height="37.5"/>
	<rect x="26.5" y="78.8" class="st0" width="35.7" height="37.5"/>
	<rect x="370.3" y="78.8" class="st0" width="35.7" height="37.5"/>
	<rect x="427.5" y="78.8" class="st0" width="64.6" height="37.5"/>
</g>
<g id="row3">
	<rect x="326.4" y="136.1" class="st0" width="35.7" height="37.5"/>
	<rect x="269.2" y="136.1" class="st0" width="35.7" height="37.5"/>
	<rect x="212.1" y="136.1" class="st0" width="35.7" height="37.5"/>
	<rect x="154.9" y="136.1" class="st0" width="35.7" height="37.5"/>
	<rect x="97.8" y="136.1" class="st0" width="35.7" height="37.5"/>
	<rect x="40.6" y="136.1" class="st0" width="35.7" height="37.5"/>
	<rect x="383.4" y="136.1" class="st0" width="107.8" height="37.5"/>
</g>
<g id="row4">
	<rect x="298.1" y="193.4" class="st0" width="35.7" height="37.5"/>
	<rect x="240.9" y="193.4" class="st0" width="35.7" height="37.5"/>
	<rect x="183.8" y="193.4" class="st0" width="35.7" height="37.5"/>
	<rect x="126.6" y="193.4" class="st0" width="35.7" height="37.5"/>
	<rect x="69.5" y="193.4" class="st0" width="35.7" height="37.5"/>
	<rect x="355.1" y="193.4" class="st0" width="136.6" height="37.5"/>
</g>
<g id="row5">
	<rect x="228" y="250.3" class="st0" width="49.8" height="37.5"/>
	<rect x="54.5" y="250.3" class="st0" width="49.8" height="37.5"/>
	<rect x="125.5" y="250.3" class="st0" width="78.6" height="37.5"/>
	<rect x="298" y="250.3" class="st0" width="49.8" height="37.5"/>
	<rect x="369.4" y="250.3" class="st0" width="49.8" height="37.5"/>
	<rect x="441.3" y="250.3" class="st0" width="49.8" height="37.5"/>
</g>
<g id="row6">
	<polygon class="st0" points="113.1,305.4 195.4,305.4 164.3,351.4 113.1,351.4 	"/>
	<rect x="54.2" y="305.4" class="st0" width="43.1" height="46"/>
</g>
</svg>
