<?xml version="1.0" encoding="UTF-8" ?>
 <svg viewBox="0 -210  297 210" xmlns="http://www.w3.org/2000/svg" version="1.0" overflow="visible">
  <defs>
   <g id="ID__#42_MODEL_SPACE"/>
   <g id="ID__#42_PAPER_SPACE"/>
  </defs>
  <g id="draft" transform="matrix(1 0 0 -1 0 0)" stroke-width="0.063375">
   <g id="ID_0" color="rgb(0,0,0)" stroke="currentColor" fill="none" stroke-width="0.063375">
    <path d="M 124.29999999999954 121.4797040482594 A 0.9999999999999609 0.9999999999999609 0 0  1  124.73891645293313 120.6519448724049" color="rgb(255,0,0)" stroke="currentColor" id="ID_104"/>
    <path d="M 145.3066085363764 106.71045806588937 A 0.9999999999999956 0.9999999999999956 0 0  1  146.83344444977783 107.79768278265112" color="rgb(255,0,0)" stroke="currentColor" id="ID_110"/>
    <path d="M 153.1999999999995 136.9494574913662 A 0.9999999999999964 0.9999999999999964 0 0  1  154.1999999999995 135.9494574913662" color="rgb(255,0,0)" stroke="currentColor" id="ID_159"/>
    <path d="M 172.19999999999953 189.4192109344731 A 0.9999999999999432 0.9999999999999432 0 0  1  171.76108354706597 190.2469701103276" color="rgb(255,0,0)" stroke="currentColor" id="ID_160"/>
    <path d="M 171.1999999999995 135.94945749136622 A 0.9999999999999787 0.9999999999999787 0 0  1  172.19999999999948 136.9494574913662" color="rgb(255,0,0)" stroke="currentColor" id="ID_162"/>
    <path d="M 151.19339146362262 204.18845691684322 A 0.9999999999999809 0.9999999999999809 0 0  1  149.66655555022118 203.10123220008148" color="rgb(255,0,0)" stroke="currentColor" id="ID_173"/>
    <path d="M 125.2999999999995 174.9494574913663 A 1.000000000000014 1.000000000000014 0 0  1  124.29999999999949 173.9494574913663" color="rgb(255,0,0)" stroke="currentColor" id="ID_181"/>
    <path d="M 143.2999999999996 173.9494574913663 A 0.9999999999999964 0.9999999999999964 0 0  1  142.2999999999996 174.9494574913663" color="rgb(255,0,0)" stroke="currentColor" id="ID_194"/>
    <path d="M 68.3999999999998 6.098914982731349 L 68.39999999999931 14.62391498273287 L 50.34999999999938 14.62391498273283 A 1.0000000000000178 1.0000000000000178 0 0  0 49.34999999999937 15.62391498273285 L 49.34999999999937 19.38641498273262 L 31.30000000000045 19.38641498273266 A 0.999999999999977 0.999999999999977 0 0  0 30.30000000000046 20.38641498273257 L 30.29999999999957 37.14945749136628 L 12.29999999999956 37.14945749136626 A 1 1 0 0  0 11.29999999999956 38.14945749136626 L 11.29999999999953 91.1494574913663 L 5.349591782930931 113.2973727644226 A 5.000000000000098 5.000000000000098 0 0  0 6.642819708673215 118.1302343748921 L 17.36327765094458 128.8506923171633 A 1.0000000000000229 1.0000000000000229 0 0  0 18.77749121331767 128.8506923171633 L 31.54076861368221 116.0874149167989 L 46.35493130982192 104.878793670741 L 63.56531830062961 97.8862843751267 L 81.17743679826214 95.68892528135167 A 5.000000000000464 5.000000000000464 0 0  0 82.7437967454427 95.22451439233322 L 106.4999999999953 83.68016498273434 L 124.5499999999985 83.6801649827354 A 0.9999999999999503 0.9999999999999503 0 0  0 125.5499999999985 82.6801649827355 L 125.5499999999991 74.15516498273254 L 143.5999999999991 74.15516498273251 A 0.9999999999999326 0.9999999999999326 0 0  0 144.599999999999 73.1551649827325 L 144.5999999999975 37.05516498273119 A 1.0000000000000249 1.0000000000000249 0 0  0 143.5999999999975 36.05516498273125 L 125.5499999999982 36.05516498273025 L 125.5500000000013 27.53016498273467 A 1.0000000000000284 1.0000000000000284 0 0  0 124.5500000000013 26.53016498273433 L 106.4999999999974 26.53016498273327 L 106.4999999999984 10.86141498273313 A 0.9999999999999902 0.9999999999999902 0 0  0 105.4999999999984 9.861414982733079 L 87.44999999999875 9.861414982733079 L 87.44999999999897 6.098914982732344 A 0.9999999999999787 0.9999999999999787 0 0  0 86.44999999999902 5.09891498273233 L 69.39999999999985 5.098914982731371 A 0.999999999999975 0.999999999999975 0 0  0 68.3999999999998 6.098914982731349  z" color="rgb(255,0,0)" stroke="currentColor" id="ID_100"/>
    <path d="M 23.52500000000003 157.51875 L 9.525000000000006 157.51875 L 9.52500000000045 171.51875 L 23.52500000000003 171.51875  z" color="rgb(255,0,0)" stroke="currentColor" id="ID_101"/>
    <path d="M 118.775 150.0875 L 118.775 136.0875 L 104.775 136.0875 L 104.775 150.0875  z" color="rgb(255,0,0)" stroke="currentColor" id="ID_102"/>
    <path d="M 7.000000000000028 136.94375 L 7.000000000000028 173.04375 A 0.9999999999999895 0.9999999999999895 0 0  0 8.000000000000007 174.04375 L 26.05 174.04375 L 26.05000000000004 182.56875 A 0.9999999999999895 0.9999999999999895 0 0  0 27.05000000000002 183.56875 L 45.10000000000002 183.56875 L 45.10000000000002 199.2375000000001 A 0.9999999999999254 0.9999999999999254 0 0  0 46.10000000000003 200.2375 L 64.15000000000003 200.2374999999995 L 64.15000000000006 204 A 0.9999999999999858 0.9999999999999858 0 0  0 65.15000000000003 205.0 L 82.20000000000002 205 A 1.0000000000000142 1.0000000000000142 0 0  0 83.20000000000005 204.0 L 83.20000000000005 195.475 L 101.25 195.475 A 1.0000000000000497 1.0000000000000497 0 0  0 102.2500000000001 194.475 L 102.2500000000001 190.7125 L 120.3 190.7125 A 0.9999999999999114 0.9999999999999114 0 0  0 121.3 189.7125 L 121.2999999999996 172.9494574913663 L 121.2999999999996 118.9494574913663 L 142.9900769451235 104.2471797474198 A 4.999999999999889 4.999999999999889 0 0  0 145.0134210414666 101.4057115726833 L 146.2504082170664 96.80154221830747 A 5.00000000000004 5.00000000000004 0 0  0 144.9571802913239 91.96868060783856 L 134.2367223490552 81.24822266556984 A 1.0000000000000207 1.0000000000000207 0 0  0 132.8225087866821 81.24822266556984 L 120.0592313862648 94.01150006598695 L 105.2450686901767 105.2201213119922 L 88.03468169937008 112.2126306076059 L 70.42256320173635 114.4099897013812 A 4.999999999997625 4.999999999997625 0 0  0 68.8562032545558 114.8744005903996 L 45.10000000000002 126.41875 L 27.05000000000005 126.41875 A 0.9999999999999879 0.9999999999999879 0 0  0 26.05000000000004 127.41875 L 26.05 135.94375 L 8.000000000000025 135.94375 A 0.999999999999998 0.999999999999998 0 0  0 7.000000000000028 136.94375  z" color="rgb(255,0,0)" stroke="currentColor" id="ID_106"/>
    <path d="M 120.8186384877134 99.14433545654629 L 108.6942828347312 106.1443354565463 L 115.6942828347313 118.2686911095284 L 127.8186384877143 111.26869110953  z" color="rgb(255,0,0)" stroke="currentColor" id="ID_108"/>
    <path d="M 104.6501240676807 110.3746085986668 L 91.12716249963367 113.9980752301021 L 94.75062913106899 127.5210367981491 L 108.2735906991159 123.8975701667138  z" color="rgb(255,0,0)" stroke="currentColor" id="ID_109"/>
    <path d="M 80.67499999999998 164.3749999999998 L 80.67499999999998 150.3749999999998 L 66.67500000000001 150.3749999999998 L 66.67500000000001 164.3749999999998  z" color="rgb(255,0,0)" stroke="currentColor" id="ID_111"/>
    <path d="M 99.725 140.85 L 85.72500000000002 140.85 L 85.72500000000002 154.85 L 99.725 154.85  z" color="rgb(255,0,0)" stroke="currentColor" id="ID_112"/>
    <path d="M 99.725 192.95 L 99.725 178.95 L 85.72500000000002 178.95 L 85.72500000000002 192.95  z" color="rgb(255,0,0)" stroke="currentColor" id="ID_113"/>
    <path d="M 28.57500000000002 167.04375 L 28.5749999999766 181.04375 L 42.57500000000004 181.04375 L 42.57500000000004 167.04375  z" color="rgb(255,0,0)" stroke="currentColor" id="ID_114"/>
    <path d="M 99.725 159.9 L 85.72500000000002 159.9 L 85.72500000000002 173.9 L 99.725 173.9  z" color="rgb(255,0,0)" stroke="currentColor" id="ID_115"/>
    <path d="M 133.5296155678685 103.9109950025986 L 143.4291105044802 94.01150006598692 L 133.5296155678685 84.11200512937526 L 123.6301206312569 94.01150006598692  z" color="rgb(255,0,0)" stroke="currentColor" id="ID_116"/>
    <path d="M 72.12592984575917 131.0375000000002 L 86.12592984575915 131.0375000000002 L 86.12592984575915 117.0375000000002 L 72.12592984575917 117.0375000000002  z" color="rgb(255,0,0)" stroke="currentColor" id="ID_117"/>
    <path d="M 80.67499999999998 183.4249999999998 L 80.67499999999998 169.4249999999998 L 66.67500000000001 169.4249999999998 L 66.67500000000001 183.4249999999998  z" color="rgb(255,0,0)" stroke="currentColor" id="ID_123"/>
    <path d="M 104.775 174.1875 L 104.775 188.1875 L 118.775 188.1875 L 118.775 174.1875  z" color="rgb(255,0,0)" stroke="currentColor" id="ID_124"/>
    <path d="M 118.775 155.1375 L 104.775 155.1375 L 104.775 169.1375 L 118.775 169.1375  z" color="rgb(255,0,0)" stroke="currentColor" id="ID_127"/>
    <path d="M 80.67499999999998 202.475 L 80.67499999999998 188.475 L 66.67500000000001 188.475 L 66.67500000000001 202.475  z" color="rgb(255,0,0)" stroke="currentColor" id="ID_129"/>
    <path d="M 47.62500000000003 159.6125 L 61.62500000000005 159.6125 L 61.62500000000005 145.6125 L 47.62500000000003 145.6125  z" color="rgb(255,0,0)" stroke="currentColor" id="ID_133"/>
    <path d="M 42.57500000000004 161.99375 L 42.57500000000004 147.99375 L 28.5749999999766 147.99375 L 28.5749999999766 161.99375  z" color="rgb(255,0,0)" stroke="currentColor" id="ID_135"/>
    <path d="M 42.57500000000004 142.94375 L 42.57500000000004 128.94375 L 28.5749999999766 128.94375 L 28.5749999999766 142.94375  z" color="rgb(255,0,0)" stroke="currentColor" id="ID_136"/>
    <path d="M 9.52500000000045 138.46875 L 9.52500000000045 152.46875 L 23.52500000000003 152.46875 L 23.52500000000003 138.46875  z" color="rgb(255,0,0)" stroke="currentColor" id="ID_137"/>
    <path d="M 47.62500000000003 164.6625 L 47.62500000000003 178.6625 L 61.62500000000005 178.6625 L 61.62500000000005 164.6625  z" color="rgb(255,0,0)" stroke="currentColor" id="ID_139"/>
    <path d="M 61.62500000000005 197.7125 L 61.62500000000005 183.7125 L 47.62500000000003 183.7125 L 47.62500000000003 197.7125  z" color="rgb(255,0,0)" stroke="currentColor" id="ID_140"/>
    <path d="M 169.1405926480229 111.26869110953 L 176.1405926480239 99.14433545654629 L 188.264948301006 106.1443354565463 L 181.264948301006 118.2686911095284  z" color="rgb(255,0,0)" stroke="currentColor" id="ID_142"/>
    <path d="M 151.9458100942707 101.4057115726833 L 150.7088229186709 96.80154221830747 A 5.0000000000000195 5.0000000000000195 0 0  1 152.0020508444133 91.96868060783856 L 162.722508786682 81.24822266556981 A 1.000000000000081 1.000000000000081 0 0  1 164.1367223490552 81.24822266556984 L 176.8999997494724 94.01150006598695 L 191.7141624455606 105.2201213119922 L 208.9245494363672 112.2126306076059 L 226.5366679340009 114.4099897013812 A 4.999999999997553 4.999999999997553 0 0  1 228.1030278811814 114.8744005903996 L 251.8592311357372 126.41875 L 269.9092311357372 126.41875 A 1 1 0 0  1 270.9092311357372 127.41875 L 270.9092311357372 135.94375 L 288.9592311357372 135.94375 A 1 1 0 0  1 289.9592311357372 136.94375 L 289.9592311357372 173.04375 A 1 1 0 0  1 288.9592311357372 174.04375 L 270.9092311357372 174.04375 L 270.9092311357372 182.56875 A 1 1 0 0  1 269.9092311357372 183.56875 L 251.8592311357372 183.56875 L 251.8592311357372 199.2375000000001 A 0.9999999999998862 0.9999999999998862 0 0  1 250.8592311357372 200.2375 L 232.8092311357372 200.2374999999995 L 232.8092311357372 204 A 1 1 0 0  1 231.8092311357372 205.0 L 214.7592311357372 205 A 1 1 0 0  1 213.7592311357372 204.0 L 213.7592311357372 195.475 L 195.7092311357372 195.475 A 1 1 0 0  1 194.7092311357372 194.475 L 194.7092311357372 190.7125 L 176.6592311357372 190.7124999999999 A 0.9999999999998721 0.9999999999998721 0 0  1 175.6592311357372 189.7125 L 175.6592311357377 172.9494574913663 L 175.6592311357377 118.9494574913663 L 153.9691541906138 104.2471797474198 A 4.999999999999889 4.999999999999889 0 0  1 151.9458100942707 101.4057115726833  z" color="rgb(255,0,0)" stroke="currentColor" id="ID_143"/>
    <path d="M 210.8333012899781 131.0375000000002 L 210.8333012899781 117.0375000000002 L 224.8333012899781 117.0375000000002 L 224.8333012899781 131.0375000000002  z" color="rgb(255,0,0)" stroke="currentColor" id="ID_146"/>
    <path d="M 188.6856404366213 123.8975701667138 L 192.3091070680566 110.3746085986668 L 205.8320686361036 113.9980752301021 L 202.2086020046683 127.5210367981491  z" color="rgb(255,0,0)" stroke="currentColor" id="ID_147"/>
    <path d="M 163.4296155678687 103.9109950025986 L 153.530120631257 94.01150006598692 L 163.4296155678687 84.11200512937526 L 173.3291105044803 94.01150006598692  z" color="rgb(255,0,0)" stroke="currentColor" id="ID_148"/>
    <path d="M 152.4999999999991 73.1551649827325 L 152.5000000000007 37.05516498273119 A 1.0000000000000249 1.0000000000000249 0 0  1 153.5000000000007 36.05516498273125 L 171.55 36.05516498273025 L 171.5499999999969 27.53016498273467 A 0.9999999999999718 0.9999999999999718 0 0  1 172.5499999999968 26.53016498273433 L 190.6000000000008 26.53016498273327 L 190.5999999999998 10.86141498273313 A 0.9999999999999902 0.9999999999999902 0 0  1 191.5999999999998 9.861414982733079 L 209.6499999999994 9.861414982733079 L 209.6499999999992 6.098914982732344 A 1.000000000000007 1.000000000000007 0 0  1 210.6499999999992 5.09891498273233 L 227.6999999999983 5.098914982731371 A 0.9999999999999963 0.9999999999999963 0 0  1 228.6999999999984 6.098914982731349 L 228.6999999999989 14.62391498273287 L 246.7499999999988 14.62391498273283 A 1.0000000000000104 1.0000000000000104 0 0  1 247.7499999999988 15.62391498273285 L 247.7499999999988 19.38641498273262 L 265.7999999999977 19.38641498273266 A 0.9999999999999913 0.9999999999999913 0 0  1 266.7999999999977 20.38641498273257 L 266.7999999999986 37.14945749136628 L 284.7999999999986 37.14945749136628 A 0.9999999999999927 0.9999999999999927 0 0  1 285.7999999999986 38.14945749136626 L 285.7999999999986 91.1494574913663 L 291.7504082170673 113.2973727644226 A 5.000000000000101 5.000000000000101 0 0  1 290.457180291325 118.1302343748921 L 279.7367223490536 128.8506923171633 A 1.000000000000033 1.000000000000033 0 0  1 278.3225087866805 128.8506923171633 L 265.559231386316 116.0874149167989 L 250.7450686901763 104.878793670741 L 233.5346816993686 97.8862843751267 L 215.922563201736 95.68892528135167 A 5.000000000000297 5.000000000000297 0 0  1 214.3562032545555 95.22451439233322 L 190.6000000000029 83.68016498273434 L 172.5499999999997 83.6801649827354 A 0.9999999999999503 0.9999999999999503 0 0  1 171.5499999999997 82.6801649827355 L 171.5499999999991 74.15516498273254 L 153.4999999999991 74.15516498273251 A 0.9999999999999893 0.9999999999999893 0 0  1 152.4999999999991 73.1551649827325  z" color="rgb(255,0,0)" stroke="currentColor" id="ID_149"/>
    <path d="M 254.3842311357372 128.94375 L 268.3842311357606 128.94375 L 268.3842311357606 142.94375 L 254.3842311357372 142.94375  z" color="rgb(255,0,0)" stroke="currentColor" id="ID_153"/>
    <path d="M 178.1842311357372 150.0875 L 178.1842311357372 136.0875 L 192.1842311357372 136.0875 L 192.1842311357372 150.0875  z" color="rgb(255,0,0)" stroke="currentColor" id="ID_157"/>
    <path d="M 178.1842311357372 188.1875 L 178.1842311357372 174.1875 L 192.1842311357372 174.1875 L 192.1842311357372 188.1875  z" color="rgb(255,0,0)" stroke="currentColor" id="ID_158"/>
    <path d="M 211.2342311357372 154.85 L 197.2342311357372 154.85 L 197.2342311357372 140.85 L 211.2342311357372 140.85  z" color="rgb(255,0,0)" stroke="currentColor" id="ID_166"/>
    <path d="M 211.2342311357372 178.95 L 211.2342311357372 192.95 L 197.2342311357372 192.95 L 197.2342311357372 178.95  z" color="rgb(255,0,0)" stroke="currentColor" id="ID_167"/>
    <path d="M 211.2342311357372 173.9 L 197.2342311357372 173.9 L 197.2342311357372 159.9 L 211.2342311357372 159.9  z" color="rgb(255,0,0)" stroke="currentColor" id="ID_169"/>
    <path d="M 216.2842311357372 202.475 L 216.2842311357372 188.475 L 230.2842311357372 188.475 L 230.2842311357372 202.475  z" color="rgb(255,0,0)" stroke="currentColor" id="ID_170"/>
    <path d="M 216.2842311357372 183.4249999999998 L 216.2842311357372 169.4249999999998 L 230.2842311357372 169.4249999999998 L 230.2842311357372 183.4249999999998  z" color="rgb(255,0,0)" stroke="currentColor" id="ID_171"/>
    <path d="M 192.1842311357372 169.1375 L 178.1842311357372 169.1375 L 178.1842311357372 155.1375 L 192.1842311357372 155.1375  z" color="rgb(255,0,0)" stroke="currentColor" id="ID_172"/>
    <path d="M 0 210 L 297 210 L 297 0 L 0 0  z" color="rgb(255,0,0)" stroke="currentColor" id="ID_174"/>
    <path d="M 230.2842311357372 164.3749999999998 L 216.2842311357372 164.3749999999998 L 216.2842311357372 150.3749999999998 L 230.2842311357372 150.3749999999998  z" color="rgb(255,0,0)" stroke="currentColor" id="ID_175"/>
    <path d="M 249.3342311357372 159.6124999999999 L 235.3342311357372 159.6124999999999 L 235.3342311357372 145.6125 L 249.3342311357372 145.6125  z" color="rgb(255,0,0)" stroke="currentColor" id="ID_176"/>
    <path d="M 249.3342311357372 164.6625 L 249.3342311357372 178.6624999999999 L 235.3342311357372 178.6624999999999 L 235.3342311357372 164.6625  z" color="rgb(255,0,0)" stroke="currentColor" id="ID_177"/>
    <path d="M 254.3842311357372 181.04375 L 254.3842311357372 167.04375 L 268.3842311357373 167.04375 L 268.3842311357606 181.04375  z" color="rgb(255,0,0)" stroke="currentColor" id="ID_178"/>
    <path d="M 254.3842311357372 161.99375 L 254.3842311357372 147.99375 L 268.3842311357606 147.99375 L 268.3842311357606 161.99375  z" color="rgb(255,0,0)" stroke="currentColor" id="ID_195"/>
    <path d="M 235.3342311357372 183.7125 L 249.3342311357372 183.7125 L 249.3342311357372 197.7125 L 235.3342311357372 197.7125  z" color="rgb(255,0,0)" stroke="currentColor" id="ID_196"/>
    <path d="M 287.4342311357373 157.51875 L 287.4342311357368 171.51875 L 273.4342311357372 171.51875 L 273.4342311357372 157.51875  z" color="rgb(255,0,0)" stroke="currentColor" id="ID_197"/>
    <path d="M 287.4342311357368 138.46875 L 287.4342311357368 152.46875 L 273.4342311357372 152.46875 L 273.4342311357372 138.46875  z" color="rgb(255,0,0)" stroke="currentColor" id="ID_200"/>
    <circle cx="127.2999999999995" cy="123.9494574913663" r="0.999999999999998" color="rgb(255,0,0)" stroke="currentColor" id="ID_103"/>
    <circle cx="106.6136135693452" cy="107.9466003334875" r="0.9999999999999964" color="rgb(255,0,0)" stroke="currentColor" id="ID_105"/>
    <circle cx="87.44999999999911" cy="13.43638778273252" r="0.9999999999999991" color="rgb(255,0,0)" stroke="currentColor" id="ID_107"/>
    <circle cx="106.4999999999991" cy="80.68016498273255" r="0.9999999999999991" color="rgb(255,0,0)" stroke="currentColor" id="ID_118"/>
    <circle cx="140.2999999999995" cy="117.9494574913664" r="0.9999999999999964" color="rgb(255,0,0)" stroke="currentColor" id="ID_119"/>
    <circle cx="142.2170915277705" cy="100.2516540664398" r="0.9999999999999964" color="rgb(255,0,0)" stroke="currentColor" id="ID_120"/>
    <circle cx="44.98638643065385" cy="102.152314649245" r="0.9999999999999991" color="rgb(255,0,0)" stroke="currentColor" id="ID_121"/>
    <circle cx="102.252048" cy="187.137578" r="0.9999999999999964" color="rgb(255,0,0)" stroke="currentColor" id="ID_122"/>
    <circle cx="87.4482059999991" cy="49.15534098273255" r="0.9999999999999991" color="rgb(255,0,0)" stroke="currentColor" id="ID_125"/>
    <circle cx="49.34795199999913" cy="22.96133698273251" r="0.9999999999999991" color="rgb(255,0,0)" stroke="currentColor" id="ID_126"/>
    <circle cx="102.2500000000001" cy="155.325" r="1.000000000000002" color="rgb(255,0,0)" stroke="currentColor" id="ID_128"/>
    <circle cx="9.382908472228628" cy="109.8472609162928" r="0.9999999999999991" color="rgb(255,0,0)" stroke="currentColor" id="ID_130"/>
    <circle cx="125.5499999999991" cy="53.91784098273255" r="0.9999999999999991" color="rgb(255,0,0)" stroke="currentColor" id="ID_131"/>
    <circle cx="45.10000000000002" cy="129.41875" r="0.9999999999999964" color="rgb(255,0,0)" stroke="currentColor" id="ID_132"/>
    <circle cx="64.15179400000002" cy="160.943574" r="0.9999999999999964" color="rgb(255,0,0)" stroke="currentColor" id="ID_134"/>
    <circle cx="26.05000000000004" cy="156.181074" r="0.9999999999999964" color="rgb(255,0,0)" stroke="currentColor" id="ID_138"/>
    <circle cx="64.15000000000003" cy="196.6625272" r="0.9999999999999964" color="rgb(255,0,0)" stroke="currentColor" id="ID_141"/>
    <circle cx="154.7421396079668" cy="100.2516540664398" r="0.9999999999999964" color="rgb(255,0,0)" stroke="currentColor" id="ID_144"/>
    <circle cx="190.345617566392" cy="107.9466003334875" r="0.9999999999999964" color="rgb(255,0,0)" stroke="currentColor" id="ID_145"/>
    <circle cx="247.7499999999991" cy="54.77391498273256" r="0.9999999999999991" color="rgb(255,0,0)" stroke="currentColor" id="ID_150"/>
    <circle cx="247.752047999999" cy="22.96133698273251" r="0.9999999999999991" color="rgb(255,0,0)" stroke="currentColor" id="ID_151"/>
    <circle cx="287.7170915277695" cy="109.8472609162928" r="0.9999999999999991" color="rgb(255,0,0)" stroke="currentColor" id="ID_152"/>
    <circle cx="251.8592311357372" cy="129.41875" r="0.9999999999999964" color="rgb(255,0,0)" stroke="currentColor" id="ID_154"/>
    <circle cx="252.1136135693443" cy="102.152314649245" r="0.9999999999999991" color="rgb(255,0,0)" stroke="currentColor" id="ID_155"/>
    <circle cx="169.1999999999995" cy="186.9494574913662" r="0.999999999999998" color="rgb(255,0,0)" stroke="currentColor" id="ID_161"/>
    <circle cx="156.1999999999996" cy="192.9494574913662" r="0.9999999999999964" color="rgb(255,0,0)" stroke="currentColor" id="ID_165"/>
    <circle cx="194.7071831357373" cy="187.137578" r="0.9999999999999964" color="rgb(255,0,0)" stroke="currentColor" id="ID_168"/>
    <circle cx="232.8074371357372" cy="160.943574" r="0.9999999999999964" color="rgb(255,0,0)" stroke="currentColor" id="ID_179"/>
    <circle cx="49.34999999999908" cy="54.77391498273256" r="0.9999999999999991" color="rgb(255,0,0)" stroke="currentColor" id="ID_182"/>
    <circle cx="190.5999999999991" cy="80.68016498273255" r="0.9999999999999991" color="rgb(255,0,0)" stroke="currentColor" id="ID_183"/>
    <circle cx="194.7092311357372" cy="155.325" r="1.000000000000002" color="rgb(255,0,0)" stroke="currentColor" id="ID_184"/>
    <circle cx="209.6517939999991" cy="49.15534098273255" r="0.9999999999999991" color="rgb(255,0,0)" stroke="currentColor" id="ID_187"/>
    <circle cx="171.5499999999991" cy="53.91784098273255" r="0.9999999999999991" color="rgb(255,0,0)" stroke="currentColor" id="ID_192"/>
    <circle cx="209.6499999999991" cy="13.43638778273252" r="0.9999999999999991" color="rgb(255,0,0)" stroke="currentColor" id="ID_193"/>
    <circle cx="232.8092311357372" cy="196.6625272" r="0.9999999999999964" color="rgb(255,0,0)" stroke="currentColor" id="ID_198"/>
    <circle cx="270.9092311357372" cy="156.181074" r="0.9999999999999964" color="rgb(255,0,0)" stroke="currentColor" id="ID_199"/>
    <line x1="172.1999999999996" y1="136.9494574913662" x2="172.1999999999996" y2="189.4192109344731" color="rgb(255,0,0)" stroke="currentColor" id="ID_156"/>
    <line x1="153.1999999999995" y1="136.9494574913662" x2="153.1999999999995" y2="189.9494574913661" color="rgb(255,0,0)" stroke="currentColor" id="ID_163"/>
    <line x1="171.761083547066" y1="190.2469701103276" x2="151.1933914636227" y2="204.1884569168432" color="rgb(255,0,0)" stroke="currentColor" id="ID_164"/>
    <line x1="125.2999999999995" y1="174.9494574913663" x2="142.2999999999996" y2="174.9494574913663" color="rgb(255,0,0)" stroke="currentColor" id="ID_180"/>
    <line x1="149.6665555502212" y1="203.1012322000814" x2="153.1999999999996" y2="189.9494574913661" color="rgb(255,0,0)" stroke="currentColor" id="ID_185"/>
    <line x1="171.1999999999995" y1="135.9494574913662" x2="154.1999999999995" y2="135.9494574913662" color="rgb(255,0,0)" stroke="currentColor" id="ID_186"/>
    <line x1="124.2999999999995" y1="173.9494574913663" x2="124.2999999999995" y2="121.4797040482594" color="rgb(255,0,0)" stroke="currentColor" id="ID_188"/>
    <line x1="143.2999999999995" y1="173.9494574913663" x2="143.2999999999995" y2="120.9494574913664" color="rgb(255,0,0)" stroke="currentColor" id="ID_189"/>
    <line x1="124.7389164529331" y1="120.6519448724049" x2="145.3066085363764" y2="106.7104580658893" color="rgb(255,0,0)" stroke="currentColor" id="ID_190"/>
    <line x1="146.8334444497779" y1="107.7976827826511" x2="143.2999999999995" y2="120.9494574913664" color="rgb(255,0,0)" stroke="currentColor" id="ID_191"/>
   </g>
  </g>
 </svg>