<?xml version="1.0"?>
<!-- Generated by SVGo -->
<svg width="138.589mm" height="110.014mm"
     viewBox="0.000 0.000 138.589 110.014"
     xmlns="http://www.w3.org/2000/svg" 
     xmlns:xlink="http://www.w3.org/1999/xlink">
<polygon points="133.588,105.014 5.000,105.014 5.000,5.001 133.588,5.001" style="fill:none;stroke-width:0.050000mm;stroke:black"/>
<polygon points="98.012,88.488 98.012,89.488 97.212,89.488 97.212,92.588 98.012,92.588 98.012,98.388 97.212,98.388 97.212,101.488 98.012,101.488 98.012,102.488 112.012,102.488 112.012,101.488 112.812,101.488 112.812,98.388 112.012,98.388 112.012,92.588 112.812,92.588 112.812,89.488 112.012,89.488 112.012,88.488" style="fill:none;stroke-width:0.050000mm;stroke:black"/>
<polygon points="78.962,88.488 78.962,89.488 78.162,89.488 78.162,92.588 78.962,92.588 78.962,98.388 78.162,98.388 78.162,101.488 78.962,101.488 78.962,102.488 92.962,102.488 92.962,101.488 93.762,101.488 93.762,98.388 92.962,98.388 92.962,92.588 93.762,92.588 93.762,89.488 92.962,89.488 92.962,88.488" style="fill:none;stroke-width:0.050000mm;stroke:black"/>
<polygon points="59.912,88.488 59.912,89.488 59.112,89.488 59.112,92.588 59.912,92.588 59.912,98.388 59.112,98.388 59.112,101.488 59.912,101.488 59.912,102.488 73.912,102.488 73.912,101.488 74.712,101.488 74.712,98.388 73.912,98.388 73.912,92.588 74.712,92.588 74.712,89.488 73.912,89.488 73.912,88.488" style="fill:none;stroke-width:0.050000mm;stroke:black"/>
<polygon points="40.862,88.488 40.862,89.488 40.062,89.488 40.062,92.588 40.862,92.588 40.862,98.388 40.062,98.388 40.062,101.488 40.862,101.488 40.862,102.488 54.862,102.488 54.862,101.488 55.662,101.488 55.662,98.388 54.862,98.388 54.862,92.588 55.662,92.588 55.662,89.488 54.862,89.488 54.862,88.488" style="fill:none;stroke-width:0.050000mm;stroke:black"/>
<polygon points="21.812,88.488 21.812,89.488 21.012,89.488 21.012,92.588 21.812,92.588 21.812,98.388 21.012,98.388 21.012,101.488 21.812,101.488 21.812,102.488 35.812,102.488 35.812,101.488 36.612,101.488 36.612,98.388 35.812,98.388 35.812,92.588 36.612,92.588 36.612,89.488 35.812,89.488 35.812,88.488" style="fill:none;stroke-width:0.050000mm;stroke:black"/>
<polygon points="117.062,76.582 117.062,77.582 116.262,77.582 116.262,80.682 117.062,80.682 117.062,86.482 116.262,86.482 116.262,89.582 117.062,89.582 117.062,90.582 131.062,90.582 131.062,89.582 131.862,89.582 131.862,86.482 131.062,86.482 131.062,80.682 131.862,80.682 131.862,77.582 131.062,77.582 131.062,76.582" style="fill:none;stroke-width:0.050000mm;stroke:black"/>
<polygon points="40.862,69.438 40.862,70.438 40.062,70.438 40.062,73.538 40.862,73.538 40.862,79.338 40.062,79.338 40.062,82.438 40.862,82.438 40.862,83.438 54.862,83.438 54.862,82.438 55.662,82.438 55.662,79.338 54.862,79.338 54.862,73.538 55.662,73.538 55.662,70.438 54.862,70.438 54.862,69.438" style="fill:none;stroke-width:0.050000mm;stroke:black"/>
<polygon points="21.812,69.438 21.812,70.438 21.012,70.438 21.012,73.538 21.812,73.538 21.812,79.338 21.012,79.338 21.012,82.438 21.812,82.438 21.812,83.438 35.812,83.438 35.812,82.438 36.612,82.438 36.612,79.338 35.812,79.338 35.812,73.538 36.612,73.538 36.612,70.438 35.812,70.438 35.812,69.438" style="fill:none;stroke-width:0.050000mm;stroke:black"/>
<polygon points="98.012,67.057 98.012,68.057 97.212,68.057 97.212,71.157 98.012,71.157 98.012,76.957 97.212,76.957 97.212,80.057 98.012,80.057 98.012,81.057 112.012,81.057 112.012,80.057 112.812,80.057 112.812,76.957 112.012,76.957 112.012,71.157 112.812,71.157 112.812,68.057 112.012,68.057 112.012,67.057" style="fill:none;stroke-width:0.050000mm;stroke:black"/>
<polygon points="59.912,67.057 59.912,68.057 59.112,68.057 59.112,71.157 59.912,71.157 59.912,76.957 59.112,76.957 59.112,80.057 59.912,80.057 59.912,81.057 73.912,81.057 73.912,80.057 74.712,80.057 74.712,76.957 73.912,76.957 73.912,71.157 74.712,71.157 74.712,68.057 73.912,68.057 73.912,67.057" style="fill:none;stroke-width:0.050000mm;stroke:black"/>
<polygon points="78.962,64.676 78.962,65.676 78.162,65.676 78.162,68.775 78.962,68.775 78.962,74.576 78.162,74.576 78.162,77.676 78.962,77.676 78.962,78.676 92.962,78.676 92.962,77.676 93.762,77.676 93.762,74.576 92.962,74.576 92.962,68.775 93.762,68.775 93.762,65.676 92.962,65.676 92.962,64.676" style="fill:none;stroke-width:0.050000mm;stroke:black"/>
<polygon points="117.062,57.532 117.062,58.532 116.262,58.532 116.262,61.632 117.062,61.632 117.062,67.432 116.262,67.432 116.262,70.532 117.062,70.532 117.062,71.532 131.062,71.532 131.062,70.532 131.862,70.532 131.862,67.432 131.062,67.432 131.062,61.632 131.862,61.632 131.862,58.532 131.062,58.532 131.062,57.532" style="fill:none;stroke-width:0.050000mm;stroke:black"/>
<polygon points="40.862,50.388 40.862,51.388 40.062,51.388 40.062,54.488 40.862,54.488 40.862,60.288 40.062,60.288 40.062,63.388 40.862,63.388 40.862,64.388 54.862,64.388 54.862,63.388 55.662,63.388 55.662,60.288 54.862,60.288 54.862,54.488 55.662,54.488 55.662,51.388 54.862,51.388 54.862,50.388" style="fill:none;stroke-width:0.050000mm;stroke:black"/>
<polygon points="98.012,48.007 98.012,49.007 97.212,49.007 97.212,52.107 98.012,52.107 98.012,57.907 97.212,57.907 97.212,61.007 98.012,61.007 98.012,62.007 112.012,62.007 112.012,61.007 112.812,61.007 112.812,57.907 112.012,57.907 112.012,52.107 112.812,52.107 112.812,49.007 112.012,49.007 112.012,48.007" style="fill:none;stroke-width:0.050000mm;stroke:black"/>
<polygon points="59.912,48.007 59.912,49.007 59.112,49.007 59.112,52.107 59.912,52.107 59.912,57.907 59.112,57.907 59.112,61.007 59.912,61.007 59.912,62.007 73.912,62.007 73.912,61.007 74.712,61.007 74.712,57.907 73.912,57.907 73.912,52.107 74.712,52.107 74.712,49.007 73.912,49.007 73.912,48.007" style="fill:none;stroke-width:0.050000mm;stroke:black"/>
<polygon points="78.962,45.626 78.962,46.626 78.162,46.626 78.162,49.726 78.962,49.726 78.962,55.526 78.162,55.526 78.162,58.626 78.962,58.626 78.962,59.626 92.962,59.626 92.962,58.626 93.762,58.626 93.762,55.526 92.962,55.526 92.962,49.726 93.762,49.726 93.762,46.626 92.962,46.626 92.962,45.626" style="fill:none;stroke-width:0.050000mm;stroke:black"/>
<polygon points="117.062,38.482 117.062,39.482 116.262,39.482 116.262,42.582 117.062,42.582 117.062,48.382 116.262,48.382 116.262,51.482 117.062,51.482 117.062,52.482 131.062,52.482 131.062,51.482 131.862,51.482 131.862,48.382 131.062,48.382 131.062,42.582 131.862,42.582 131.862,39.482 131.062,39.482 131.062,38.482" style="fill:none;stroke-width:0.050000mm;stroke:black"/>
<polygon points="40.862,31.338 40.862,32.338 40.062,32.338 40.062,35.438 40.862,35.438 40.862,41.238 40.062,41.238 40.062,44.338 40.862,44.338 40.862,45.338 54.862,45.338 54.862,44.338 55.662,44.338 55.662,41.238 54.862,41.238 54.862,35.438 55.662,35.438 55.662,32.338 54.862,32.338 54.862,31.338" style="fill:none;stroke-width:0.050000mm;stroke:black"/>
<polygon points="98.012,28.957 98.012,29.957 97.212,29.957 97.212,33.057 98.012,33.057 98.012,38.857 97.212,38.857 97.212,41.957 98.012,41.957 98.012,42.957 112.012,42.957 112.012,41.957 112.812,41.957 112.812,38.857 112.012,38.857 112.012,33.057 112.812,33.057 112.812,29.957 112.012,29.957 112.012,28.957" style="fill:none;stroke-width:0.050000mm;stroke:black"/>
<polygon points="59.912,28.957 59.912,29.957 59.112,29.957 59.112,33.057 59.912,33.057 59.912,38.857 59.112,38.857 59.112,41.957 59.912,41.957 59.912,42.957 73.912,42.957 73.912,41.957 74.712,41.957 74.712,38.857 73.912,38.857 73.912,33.057 74.712,33.057 74.712,29.957 73.912,29.957 73.912,28.957" style="fill:none;stroke-width:0.050000mm;stroke:black"/>
<polygon points="78.962,26.576 78.962,27.576 78.162,27.576 78.162,30.676 78.962,30.676 78.962,36.476 78.162,36.476 78.162,39.576 78.962,39.576 78.962,40.576 92.962,40.576 92.962,39.576 93.762,39.576 93.762,36.476 92.962,36.476 92.962,30.676 93.762,30.676 93.762,27.576 92.962,27.576 92.962,26.576" style="fill:none;stroke-width:0.050000mm;stroke:black"/>
<polygon points="117.062,19.432 117.062,20.432 116.262,20.432 116.262,23.532 117.062,23.532 117.062,29.332 116.262,29.332 116.262,32.431 117.062,32.431 117.062,33.432 131.062,33.432 131.062,32.431 131.862,32.431 131.862,29.332 131.062,29.332 131.062,23.532 131.862,23.532 131.862,20.432 131.062,20.432 131.062,19.432" style="fill:none;stroke-width:0.050000mm;stroke:black"/>
<polygon points="40.862,12.288 40.862,13.288 40.062,13.288 40.062,16.388 40.862,16.388 40.862,22.188 40.062,22.188 40.062,25.288 40.862,25.288 40.862,26.288 54.862,26.288 54.862,25.288 55.662,25.288 55.662,22.188 54.862,22.188 54.862,16.388 55.662,16.388 55.662,13.288 54.862,13.288 54.862,12.288" style="fill:none;stroke-width:0.050000mm;stroke:black"/>
<polygon points="98.012,9.907 98.012,10.907 97.212,10.907 97.212,14.007 98.012,14.007 98.012,19.807 97.212,19.807 97.212,22.907 98.012,22.907 98.012,23.907 112.012,23.907 112.012,22.907 112.812,22.907 112.812,19.807 112.012,19.807 112.012,14.007 112.812,14.007 112.812,10.907 112.012,10.907 112.012,9.907" style="fill:none;stroke-width:0.050000mm;stroke:black"/>
<polygon points="59.912,9.907 59.912,10.907 59.112,10.907 59.112,14.007 59.912,14.007 59.912,19.807 59.112,19.807 59.112,22.907 59.912,22.907 59.912,23.907 73.912,23.907 73.912,22.907 74.712,22.907 74.712,19.807 73.912,19.807 73.912,14.007 74.712,14.007 74.712,10.907 73.912,10.907 73.912,9.907" style="fill:none;stroke-width:0.050000mm;stroke:black"/>
<polygon points="78.962,7.526 78.962,8.526 78.162,8.526 78.162,11.626 78.962,11.626 78.962,17.426 78.162,17.426 78.162,20.526 78.962,20.526 78.962,21.526 92.962,21.526 92.962,20.526 93.762,20.526 93.762,17.426 92.962,17.426 92.962,11.626 93.762,11.626 93.762,8.526 92.962,8.526 92.962,7.526" style="fill:none;stroke-width:0.050000mm;stroke:black"/>
</svg>
