<?xml version="1.0" standalone="no"?>
 <!DOCTYPE svg PUBLIC "-//W3C//DTD SVG 1.1//EN" 
 "http://www.w3.org/Graphics/SVG/1.1/DTD/svg11.dtd"> 
<svg xmlns="http://www.w3.org/2000/svg" version="1.1" 
    width="20.8737cm" height="20.1625cm" viewBox="0 0 82180 79380 ">
<title>SVG Picture created as mitosis-brd.svg date 2020/06/20 23:19:09 </title>
  <desc>Picture generated by PCBNEW </desc>
<g style="fill:#000000; fill-opacity:1;stroke:#000000; stroke-opacity:1;
stroke-linecap:round; stroke-linejoin:round; "
 transform="translate(0 0) scale(1 1)">
</g>
<g style="fill:#000000; fill-opacity:0.0; 
stroke:#000000; stroke-width:-0.000393701; stroke-opacity:1; 
stroke-linecap:round; stroke-linejoin:round;">
</g>
<g style="fill:#000000; fill-opacity:0.0; 
stroke:#000000; stroke-width:39.3701; stroke-opacity:1; 
stroke-linecap:round; stroke-linejoin:round;">
<path d="M41575.7 25352.3 A819.404 819.404 0.0 0 0 42367.2 24440.1 " />
<path d="M54358.6 1852.77 A590.551 590.551 0.0 0 0 54889.4 1267.3 " />
<path d="M55422.2 636.697 A590.55 590.55 0.0 0 0 54891.5 1211.86 " />
<path d="M61553 607.54 A590.551 590.551 0.0 0 0 60905.8 79.693 " />
<path d="M61620.7 1273.41 A590.551 590.551 0.0 0 0 62267.9 1801.26 " />
<path d="M69103.7 1700.49 A590.55 590.55 0.0 0 0 68456.5 1172.64 " />
<path d="M69358.3 4207.27 A590.55 590.55 0.0 0 0 70005.6 4735.12 " />
<path d="M76841.4 4634.35 A590.55 590.55 0.0 0 0 76194.2 4106.5 " />
<path d="M78308 39446.7 A590.551 590.551 0.0 0 0 78898.6 38856.2 " />
<path d="M40806.3 3229.37 A590.55 590.55 0.0 0 0 40278.4 3876.57 " />
<path d="M40125.1 25352.3 A593.559 593.559 0.0 0 0 39528.5 25942.8 " />
<path d="M39528.5 38856.2 A590.551 590.551 0.0 0 0 40119.1 39446.7 " />
<path d="M46226.8 5167.9 A157.48 157.48 0.0 0 0 46540.1 5136.07 " />
<path d="M46715.2 6859.48 A157.48 157.48 0.0 0 0 46401.8 6891.31 " />
<path d="M41056.5 5693.07 A157.48 157.48 0.0 0 0 41369.9 5661.24 " />
<path d="M41544.9 7384.65 A157.48 157.48 0.0 0 0 41231.6 7416.48 " />
<path d="M46365.1 3412.65 A157.479 157.479 0.0 0 0 46192.5 3271.89 " />
<path d="M41022.2 3797.06 A157.479 157.479 0.0 0 0 40881.5 3969.65 " />
<path d="M41406.6 9139.9 A157.479 157.479 0.0 0 0 41579.2 9280.66 " />
<path d="M46749.5 8755.48 A157.479 157.479 0.0 0 0 46890.2 8582.9 " />
<path d="M53666.4 5168.04 A157.48 157.48 0.0 0 0 53979.8 5136.21 " />
<path d="M54154.9 6859.62 A157.48 157.48 0.0 0 0 53841.5 6891.46 " />
<path d="M48496.2 5693.21 A157.48 157.48 0.0 0 0 48809.5 5661.38 " />
<path d="M48984.6 7384.8 A157.48 157.48 0.0 0 0 48671.3 7416.63 " />
<path d="M53804.7 3412.8 A157.479 157.479 0.0 0 0 53632.1 3272.04 " />
<path d="M48461.9 3797.21 A157.479 157.479 0.0 0 0 48321.1 3969.8 " />
<path d="M48846.3 9140.04 A157.479 157.479 0.0 0 0 49018.9 9280.8 " />
<path d="M54189.1 8755.63 A157.479 157.479 0.0 0 0 54329.9 8583.04 " />
<path d="M60843.1 2579.14 A157.48 157.48 0.0 0 0 61156.5 2547.31 " />
<path d="M61331.5 4270.72 A157.48 157.48 0.0 0 0 61018.2 4302.56 " />
<path d="M55672.9 3104.32 A157.48 157.48 0.0 0 0 55986.2 3072.48 " />
<path d="M56161.3 4795.9 A157.48 157.48 0.0 0 0 55847.9 4827.73 " />
<path d="M60981.4 823.898 A157.479 157.479 0.0 0 0 60808.8 683.138 " />
<path d="M55638.6 1208.31 A157.479 157.479 0.0 0 0 55497.8 1380.9 " />
<path d="M56023 6551.14 A157.479 157.479 0.0 0 0 56195.6 6691.9 " />
<path d="M61365.8 6166.73 A157.479 157.479 0.0 0 0 61506.6 5994.14 " />
<path d="M68393.8 3672.09 A157.48 157.48 0.0 0 0 68707.2 3640.25 " />
<path d="M68882.2 5363.67 A157.48 157.48 0.0 0 0 68568.9 5395.5 " />
<path d="M63223.6 4197.26 A157.48 157.48 0.0 0 0 63536.9 4165.43 " />
<path d="M63712 5888.84 A157.48 157.48 0.0 0 0 63398.6 5920.68 " />
<path d="M68532.1 1916.84 A157.479 157.479 0.0 0 0 68359.5 1776.08 " />
<path d="M63189.3 2301.26 A157.479 157.479 0.0 0 0 63048.5 2473.84 " />
<path d="M63573.7 7644.09 A157.479 157.479 0.0 0 0 63746.3 7784.85 " />
<path d="M68916.5 7259.67 A157.479 157.479 0.0 0 0 69057.3 7087.09 " />
<path d="M76131.5 6605.95 A157.48 157.48 0.0 0 0 76444.8 6574.12 " />
<path d="M76619.9 8297.54 A157.48 157.48 0.0 0 0 76306.5 8329.37 " />
<path d="M70961.2 7131.13 A157.48 157.48 0.0 0 0 71274.6 7099.29 " />
<path d="M71449.6 8822.71 A157.48 157.48 0.0 0 0 71136.3 8854.54 " />
<path d="M76269.8 4850.71 A157.479 157.479 0.0 0 0 76097.2 4709.95 " />
<path d="M70926.9 5235.12 A157.479 157.479 0.0 0 0 70786.2 5407.71 " />
<path d="M71311.4 10578 A157.479 157.479 0.0 0 0 71483.9 10718.7 " />
<path d="M76654.2 10193.5 A157.479 157.479 0.0 0 0 76794.9 10021 " />
<path d="M46974.7 12531.6 A157.48 157.48 0.0 0 0 47288.1 12499.7 " />
<path d="M47463.1 14223.2 A157.48 157.48 0.0 0 0 47149.8 14255 " />
<path d="M41804.5 13056.8 A157.48 157.48 0.0 0 0 42117.8 13024.9 " />
<path d="M42292.9 14748.3 A157.48 157.48 0.0 0 0 41979.6 14780.2 " />
<path d="M47113 10776.3 A157.479 157.479 0.0 0 0 46940.4 10635.6 " />
<path d="M41770.2 11160.7 A157.479 157.479 0.0 0 0 41629.4 11333.3 " />
<path d="M42154.6 16503.6 A157.479 157.479 0.0 0 0 42327.2 16644.3 " />
<path d="M47497.4 16119.2 A157.479 157.479 0.0 0 0 47638.2 15946.6 " />
<path d="M54414.4 12531.7 A157.48 157.48 0.0 0 0 54727.8 12499.9 " />
<path d="M54902.8 14223.3 A157.48 157.48 0.0 0 0 54589.5 14255.1 " />
<path d="M49244.2 13056.9 A157.48 157.48 0.0 0 0 49557.5 13025.1 " />
<path d="M49732.6 14748.5 A157.48 157.48 0.0 0 0 49419.2 14780.3 " />
<path d="M54552.7 10776.5 A157.479 157.479 0.0 0 0 54380.1 10635.7 " />
<path d="M49209.9 11160.9 A157.479 157.479 0.0 0 0 49069.1 11333.5 " />
<path d="M49594.3 16503.7 A157.479 157.479 0.0 0 0 49766.9 16644.5 " />
<path d="M54937.1 16119.3 A157.479 157.479 0.0 0 0 55077.9 15946.7 " />
<path d="M61591.1 9942.83 A157.48 157.48 0.0 0 0 61904.5 9910.99 " />
<path d="M62079.5 11634.4 A157.48 157.48 0.0 0 0 61766.2 11666.2 " />
<path d="M56420.9 10468 A157.48 157.48 0.0 0 0 56734.2 10436.2 " />
<path d="M56909.3 12159.6 A157.48 157.48 0.0 0 0 56595.9 12191.4 " />
<path d="M61729.4 8187.58 A157.479 157.479 0.0 0 0 61556.8 8046.82 " />
<path d="M56386.6 8572 A157.479 157.479 0.0 0 0 56245.8 8744.58 " />
<path d="M56771 13914.8 A157.479 157.479 0.0 0 0 56943.6 14055.6 " />
<path d="M62113.8 13530.4 A157.479 157.479 0.0 0 0 62254.6 13357.8 " />
<path d="M69141.8 11035.8 A157.48 157.48 0.0 0 0 69455.1 11003.9 " />
<path d="M69630.2 12727.4 A157.48 157.48 0.0 0 0 69316.8 12759.2 " />
<path d="M63971.5 11560.9 A157.48 157.48 0.0 0 0 64284.9 11529.1 " />
<path d="M64459.9 13252.5 A157.48 157.48 0.0 0 0 64146.6 13284.4 " />
<path d="M69280.1 9280.53 A157.479 157.479 0.0 0 0 69107.5 9139.77 " />
<path d="M63937.2 9664.94 A157.479 157.479 0.0 0 0 63796.5 9837.53 " />
<path d="M64321.7 15007.8 A157.479 157.479 0.0 0 0 64494.2 15148.5 " />
<path d="M69664.5 14623.4 A157.479 157.479 0.0 0 0 69805.3 14450.8 " />
<path d="M76879.5 13969.6 A157.48 157.48 0.0 0 0 77192.8 13937.8 " />
<path d="M77367.9 15661.2 A157.48 157.48 0.0 0 0 77054.5 15693.1 " />
<path d="M71709.2 14494.8 A157.48 157.48 0.0 0 0 72022.6 14463 " />
<path d="M72197.6 16186.4 A157.48 157.48 0.0 0 0 71884.3 16218.2 " />
<path d="M77017.7 12214.4 A157.479 157.479 0.0 0 0 76845.2 12073.6 " />
<path d="M71674.9 12598.8 A157.479 157.479 0.0 0 0 71534.2 12771.4 " />
<path d="M72059.3 17941.6 A157.479 157.479 0.0 0 0 72231.9 18082.4 " />
<path d="M77402.2 17557.2 A157.479 157.479 0.0 0 0 77542.9 17384.6 " />
<path d="M47722.7 19895.3 A157.48 157.48 0.0 0 0 48036.1 19863.4 " />
<path d="M48211.1 21586.8 A157.48 157.48 0.0 0 0 47897.8 21618.7 " />
<path d="M42552.5 20420.4 A157.48 157.48 0.0 0 0 42865.8 20388.6 " />
<path d="M43040.9 22112 A157.48 157.48 0.0 0 0 42727.5 22143.9 " />
<path d="M47861 18140 A157.479 157.479 0.0 0 0 47688.4 17999.3 " />
<path d="M42518.2 18524.4 A157.479 157.479 0.0 0 0 42377.4 18697 " />
<path d="M42902.6 23867.3 A157.479 157.479 0.0 0 0 43075.2 24008 " />
<path d="M48245.4 23482.9 A157.479 157.479 0.0 0 0 48386.2 23310.3 " />
<path d="M55162.4 19895.4 A157.48 157.48 0.0 0 0 55475.7 19863.6 " />
<path d="M55650.8 21587 A157.48 157.48 0.0 0 0 55337.5 21618.8 " />
<path d="M49992.1 20420.6 A157.48 157.48 0.0 0 0 50305.5 20388.7 " />
<path d="M50480.6 22112.2 A157.48 157.48 0.0 0 0 50167.2 22144 " />
<path d="M55300.7 18140.2 A157.479 157.479 0.0 0 0 55128.1 17999.4 " />
<path d="M49957.9 18524.6 A157.479 157.479 0.0 0 0 49817.1 18697.2 " />
<path d="M50342.3 23867.4 A157.479 157.479 0.0 0 0 50514.9 24008.2 " />
<path d="M55685.1 23483 A157.479 157.479 0.0 0 0 55825.9 23310.4 " />
<path d="M62339.1 17306.5 A157.48 157.48 0.0 0 0 62652.4 17274.7 " />
<path d="M62827.5 18998.1 A157.48 157.48 0.0 0 0 62514.1 19029.9 " />
<path d="M57168.8 17831.7 A157.48 157.48 0.0 0 0 57482.2 17799.9 " />
<path d="M57657.2 19523.3 A157.48 157.48 0.0 0 0 57343.9 19555.1 " />
<path d="M62477.4 15551.3 A157.479 157.479 0.0 0 0 62304.8 15410.5 " />
<path d="M57134.5 15935.7 A157.479 157.479 0.0 0 0 56993.8 16108.3 " />
<path d="M57519 21278.5 A157.479 157.479 0.0 0 0 57691.5 21419.3 " />
<path d="M62861.8 20894.1 A157.479 157.479 0.0 0 0 63002.6 20721.5 " />
<path d="M69889.8 18399.5 A157.48 157.48 0.0 0 0 70203.1 18367.6 " />
<path d="M70378.2 20091 A157.48 157.48 0.0 0 0 70064.8 20122.9 " />
<path d="M64719.5 18924.6 A157.48 157.48 0.0 0 0 65032.9 18892.8 " />
<path d="M65207.9 20616.2 A157.48 157.48 0.0 0 0 64894.6 20648 " />
<path d="M70028.1 16644.2 A157.479 157.479 0.0 0 0 69855.5 16503.4 " />
<path d="M64685.2 17028.6 A157.479 157.479 0.0 0 0 64544.5 17201.2 " />
<path d="M65069.6 22371.5 A157.479 157.479 0.0 0 0 65242.2 22512.2 " />
<path d="M70412.5 21987 A157.479 157.479 0.0 0 0 70553.2 21814.5 " />
<path d="M77627.4 21333.3 A157.48 157.48 0.0 0 0 77940.8 21301.5 " />
<path d="M78115.8 23024.9 A157.48 157.48 0.0 0 0 77802.5 23056.7 " />
<path d="M72457.2 21858.5 A157.48 157.48 0.0 0 0 72770.5 21826.7 " />
<path d="M72945.6 23550.1 A157.48 157.48 0.0 0 0 72632.2 23581.9 " />
<path d="M77765.7 19578.1 A157.479 157.479 0.0 0 0 77593.1 19437.3 " />
<path d="M72422.9 19962.5 A157.479 157.479 0.0 0 0 72282.1 20135.1 " />
<path d="M72807.3 25305.3 A157.479 157.479 0.0 0 0 72979.9 25446.1 " />
<path d="M78150.1 24920.9 A157.479 157.479 0.0 0 0 78290.9 24748.3 " />
<path d="M45315.9 27832.6 A157.48 157.48 0.0 0 0 45630.9 27832.6 " />
<path d="M45630.9 29564.9 A157.48 157.48 0.0 0 0 45315.9 29564.9 " />
<path d="M40119.1 27832.6 A157.48 157.48 0.0 0 0 40434 27832.6 " />
<path d="M40434 29564.9 A157.48 157.48 0.0 0 0 40119.1 29564.9 " />
<path d="M45630.9 26100.3 A157.48 157.48 0.0 0 0 45473.4 25942.8 " />
<path d="M40276.5 25942.8 A157.48 157.48 0.0 0 0 40119.1 26100.3 " />
<path d="M40119.1 31297.1 A157.48 157.48 0.0 0 0 40276.5 31454.6 " />
<path d="M45473.4 31454.6 A157.48 157.48 0.0 0 0 45630.9 31297.1 " />
<path d="M52717.5 27832.6 A157.48 157.48 0.0 0 0 53032.4 27832.6 " />
<path d="M53032.4 29564.9 A157.48 157.48 0.0 0 0 52717.5 29564.9 " />
<path d="M47520.6 27832.6 A157.48 157.48 0.0 0 0 47835.6 27832.6 " />
<path d="M47835.6 29564.9 A157.48 157.48 0.0 0 0 47520.6 29564.9 " />
<path d="M53032.4 26100.3 A157.48 157.48 0.0 0 0 52875 25942.8 " />
<path d="M47678.1 25942.8 A157.48 157.48 0.0 0 0 47520.6 26100.3 " />
<path d="M47520.6 31297.1 A157.48 157.48 0.0 0 0 47678.1 31454.6 " />
<path d="M52875 31454.6 A157.48 157.48 0.0 0 0 53032.4 31297.1 " />
<path d="M60119.1 27832.6 A157.48 157.48 0.0 0 0 60434 27832.6 " />
<path d="M60434 29564.9 A157.48 157.48 0.0 0 0 60119.1 29564.9 " />
<path d="M54922.2 27832.6 A157.48 157.48 0.0 0 0 55237.2 27832.6 " />
<path d="M55237.2 29564.9 A157.48 157.48 0.0 0 0 54922.2 29564.9 " />
<path d="M60434 26100.3 A157.48 157.48 0.0 0 0 60276.5 25942.8 " />
<path d="M55079.7 25942.8 A157.48 157.48 0.0 0 0 54922.2 26100.3 " />
<path d="M54922.2 31297.1 A157.48 157.48 0.0 0 0 55079.7 31454.6 " />
<path d="M60276.5 31454.6 A157.48 157.48 0.0 0 0 60434 31297.1 " />
<path d="M67520.6 27832.6 A157.48 157.48 0.0 0 0 67835.6 27832.6 " />
<path d="M67835.6 29564.9 A157.48 157.48 0.0 0 0 67520.6 29564.9 " />
<path d="M62323.8 27832.6 A157.48 157.48 0.0 0 0 62638.7 27832.6 " />
<path d="M62638.7 29564.9 A157.48 157.48 0.0 0 0 62323.8 29564.9 " />
<path d="M67835.6 26100.3 A157.48 157.48 0.0 0 0 67678.1 25942.8 " />
<path d="M62481.3 25942.8 A157.48 157.48 0.0 0 0 62323.8 26100.3 " />
<path d="M62323.8 31297.1 A157.48 157.48 0.0 0 0 62481.3 31454.6 " />
<path d="M67678.1 31454.6 A157.48 157.48 0.0 0 0 67835.6 31297.1 " />
<path d="M45315.9 35234.2 A157.48 157.48 0.0 0 0 45630.9 35234.2 " />
<path d="M45630.9 36966.4 A157.48 157.48 0.0 0 0 45315.9 36966.4 " />
<path d="M40119.1 35234.2 A157.48 157.48 0.0 0 0 40434 35234.2 " />
<path d="M40434 36966.4 A157.48 157.48 0.0 0 0 40119.1 36966.4 " />
<path d="M45630.9 33501.9 A157.48 157.48 0.0 0 0 45473.4 33344.4 " />
<path d="M40276.5 33344.4 A157.48 157.48 0.0 0 0 40119.1 33501.9 " />
<path d="M40119.1 38698.7 A157.48 157.48 0.0 0 0 40276.5 38856.2 " />
<path d="M45473.4 38856.2 A157.48 157.48 0.0 0 0 45630.9 38698.7 " />
<path d="M52717.5 35234.2 A157.48 157.48 0.0 0 0 53032.4 35234.2 " />
<path d="M53032.4 36966.4 A157.48 157.48 0.0 0 0 52717.5 36966.4 " />
<path d="M47520.6 35234.2 A157.48 157.48 0.0 0 0 47835.6 35234.2 " />
<path d="M47835.6 36966.4 A157.48 157.48 0.0 0 0 47520.6 36966.4 " />
<path d="M53032.4 33501.9 A157.48 157.48 0.0 0 0 52875 33344.4 " />
<path d="M47678.1 33344.4 A157.48 157.48 0.0 0 0 47520.6 33501.9 " />
<path d="M47520.6 38698.7 A157.48 157.48 0.0 0 0 47678.1 38856.2 " />
<path d="M52875 38856.2 A157.48 157.48 0.0 0 0 53032.4 38698.7 " />
<path d="M60119.1 35234.2 A157.48 157.48 0.0 0 0 60434 35234.2 " />
<path d="M60434 36966.4 A157.48 157.48 0.0 0 0 60119.1 36966.4 " />
<path d="M54922.2 35234.2 A157.48 157.48 0.0 0 0 55237.2 35234.2 " />
<path d="M55237.2 36966.4 A157.48 157.48 0.0 0 0 54922.2 36966.4 " />
<path d="M60434 33501.9 A157.48 157.48 0.0 0 0 60276.5 33344.4 " />
<path d="M55079.7 33344.4 A157.48 157.48 0.0 0 0 54922.2 33501.9 " />
<path d="M54922.2 38698.7 A157.48 157.48 0.0 0 0 55079.7 38856.2 " />
<path d="M60276.5 38856.2 A157.48 157.48 0.0 0 0 60434 38698.7 " />
<path d="M67520.6 35234.2 A157.48 157.48 0.0 0 0 67835.6 35234.2 " />
<path d="M67835.6 36966.4 A157.48 157.48 0.0 0 0 67520.6 36966.4 " />
<path d="M62323.8 35234.2 A157.48 157.48 0.0 0 0 62638.7 35234.2 " />
<path d="M62638.7 36966.4 A157.48 157.48 0.0 0 0 62323.8 36966.4 " />
<path d="M67835.6 33501.9 A157.48 157.48 0.0 0 0 67678.1 33344.4 " />
<path d="M62481.3 33344.4 A157.48 157.48 0.0 0 0 62323.8 33501.9 " />
<path d="M62323.8 38698.7 A157.48 157.48 0.0 0 0 62481.3 38856.2 " />
<path d="M67678.1 38856.2 A157.48 157.48 0.0 0 0 67835.6 38698.7 " />
<path d="M54889 1267
L54891 1211
" />
<path d="M76841 4634
L78898 24884
" />
<path d="M70005 4735
L76194 4106
" />
<path d="M69103 1700
L69358 4207
" />
<path d="M62267 1801
L68456 1172
" />
<path d="M61553 607
L61620 1273
" />
<path d="M55422 636
L60905 79
" />
<path d="M40806 3229
L54358 1852
" />
<path d="M40278 3876
L42367 24440
" />
<path d="M40125 25352
L41575 25352
" />
<path d="M39528 38856
L39528 25942
" />
<path d="M40119 39446
L78308 39446
" />
<path d="M78898 38856
L78898 24884
" />
<path d="M40881 3969
L41056 5693
" />
<path d="M41210 4094
L41369 5661
" />
<path d="M46365 3412
L46540 5136
" />
<path d="M46067 3601
L46226 5167
" />
<path d="M46715 6859
L46890 8582
" />
<path d="M46401 6891
L46560 8458
" />
<path d="M41231 7416
L41406 9139
" />
<path d="M41544 7384
L41704 8951
" />
<path d="M41022 3797
L46192 3271
" />
<path d="M41210 4094
L46067 3601
" />
<path d="M41704 8951
L46560 8458
" />
<path d="M41579 9280
L46749 8755
" />
<path d="M48321 3969
L48496 5693
" />
<path d="M48650 4094
L48809 5661
" />
<path d="M53804 3412
L53979 5136
" />
<path d="M53507 3601
L53666 5168
" />
<path d="M54154 6859
L54329 8583
" />
<path d="M53841 6891
L54000 8458
" />
<path d="M48671 7416
L48846 9140
" />
<path d="M48984 7384
L49143 8951
" />
<path d="M48461 3797
L53632 3272
" />
<path d="M48650 4094
L53507 3601
" />
<path d="M49143 8951
L54000 8458
" />
<path d="M49018 9280
L54189 8755
" />
<path d="M55497 1380
L55672 3104
" />
<path d="M55827 1505
L55986 3072
" />
<path d="M60981 823
L61156 2547
" />
<path d="M60683 1012
L60843 2579
" />
<path d="M61331 4270
L61506 5994
" />
<path d="M61018 4302
L61177 5869
" />
<path d="M55847 4827
L56023 6551
" />
<path d="M56161 4795
L56320 6362
" />
<path d="M55638 1208
L60808 683
" />
<path d="M55827 1505
L60683 1012
" />
<path d="M56320 6362
L61177 5869
" />
<path d="M56195 6691
L61365 6166
" />
<path d="M63048 2473
L63223 4197
" />
<path d="M63377 2598
L63536 4165
" />
<path d="M68532 1916
L68707 3640
" />
<path d="M68234 2105
L68393 3672
" />
<path d="M68882 5363
L69057 7087
" />
<path d="M68568 5395
L68728 6962
" />
<path d="M63398 5920
L63573 7644
" />
<path d="M63711 5888
L63871 7455
" />
<path d="M63189 2301
L68359 1776
" />
<path d="M63377 2598
L68234 2105
" />
<path d="M63871 7455
L68728 6962
" />
<path d="M63746 7784
L68916 7259
" />
<path d="M70786 5407
L70961 7131
" />
<path d="M71115 5532
L71274 7099
" />
<path d="M76269 4850
L76444 6574
" />
<path d="M75972 5039
L76131 6605
" />
<path d="M76619 8297
L76794 10020
" />
<path d="M76306 8329
L76465 9896
" />
<path d="M71136 8854
L71311 10577
" />
<path d="M71449 8822
L71608 10389
" />
<path d="M70926 5235
L76097 4709
" />
<path d="M71115 5532
L75972 5039
" />
<path d="M71608 10389
L76465 9896
" />
<path d="M71483 10718
L76654 10193
" />
<path d="M41629 11333
L41804 13056
" />
<path d="M41958 11458
L42117 13024
" />
<path d="M47113 10776
L47288 12499
" />
<path d="M46815 10964
L46974 12531
" />
<path d="M47463 14223
L47638 15946
" />
<path d="M47149 14254
L47308 15821
" />
<path d="M41979 14780
L42154 16503
" />
<path d="M42292 14748
L42452 16315
" />
<path d="M41770 11160
L46940 10635
" />
<path d="M41958 11458
L46815 10964
" />
<path d="M42452 16315
L47308 15821
" />
<path d="M42327 16644
L47497 16119
" />
<path d="M49069 11333
L49244 13056
" />
<path d="M49398 11458
L49557 13025
" />
<path d="M54552 10776
L54727 12499
" />
<path d="M54255 10964
L54414 12531
" />
<path d="M54902 14223
L55077 15946
" />
<path d="M54589 14255
L54748 15821
" />
<path d="M49419 14780
L49594 16503
" />
<path d="M49732 14748
L49891 16315
" />
<path d="M49209 11160
L54380 10635
" />
<path d="M49398 11458
L54255 10964
" />
<path d="M49891 16315
L54748 15821
" />
<path d="M49766 16644
L54937 16119
" />
<path d="M56245 8744
L56420 10468
" />
<path d="M56575 8869
L56734 10436
" />
<path d="M61729 8187
L61904 9910
" />
<path d="M61431 8376
L61591 9942
" />
<path d="M62079 11634
L62254 13357
" />
<path d="M61766 11666
L61925 13232
" />
<path d="M56595 12191
L56770 13914
" />
<path d="M56909 12159
L57068 13726
" />
<path d="M56386 8571
L61556 8046
" />
<path d="M56575 8869
L61431 8376
" />
<path d="M57068 13726
L61925 13232
" />
<path d="M56943 14055
L62113 13530
" />
<path d="M63796 9837
L63971 11560
" />
<path d="M64125 9962
L64284 11529
" />
<path d="M69280 9280
L69455 11003
" />
<path d="M68982 9469
L69141 11035
" />
<path d="M69630 12727
L69805 14450
" />
<path d="M69316 12759
L69475 14325
" />
<path d="M64146 13284
L64321 15007
" />
<path d="M64459 13252
L64619 14819
" />
<path d="M63937 9664
L69107 9139
" />
<path d="M64125 9962
L68982 9469
" />
<path d="M64619 14819
L69475 14325
" />
<path d="M64494 15148
L69664 14623
" />
<path d="M71534 12771
L71709 14494
" />
<path d="M71863 12896
L72022 14462
" />
<path d="M77017 12214
L77192 13937
" />
<path d="M76720 12402
L76879 13969
" />
<path d="M77367 15661
L77542 17384
" />
<path d="M77054 15693
L77213 17259
" />
<path d="M71884 16218
L72059 17941
" />
<path d="M72197 16186
L72356 17753
" />
<path d="M71674 12598
L76845 12073
" />
<path d="M71863 12896
L76720 12402
" />
<path d="M72356 17753
L77213 17259
" />
<path d="M72231 18082
L77402 17557
" />
<path d="M42377 18697
L42552 20420
" />
<path d="M42706 18821
L42865 20388
" />
<path d="M47861 18140
L48036 19863
" />
<path d="M47563 18328
L47722 19895
" />
<path d="M48211 21586
L48386 23310
" />
<path d="M47897 21618
L48056 23185
" />
<path d="M42727 22143
L42902 23867
" />
<path d="M43040 22112
L43200 23678
" />
<path d="M42518 18524
L47688 17999
" />
<path d="M42706 18821
L47563 18328
" />
<path d="M43200 23678
L48056 23185
" />
<path d="M43075 24008
L48245 23482
" />
<path d="M49817 18697
L49992 20420
" />
<path d="M50146 18822
L50305 20388
" />
<path d="M55300 18140
L55475 19863
" />
<path d="M55003 18328
L55162 19895
" />
<path d="M55650 21586
L55825 23310
" />
<path d="M55337 21618
L55496 23185
" />
<path d="M50167 22143
L50342 23867
" />
<path d="M50480 22112
L50639 23678
" />
<path d="M49957 18524
L55128 17999
" />
<path d="M50146 18822
L55003 18328
" />
<path d="M50639 23678
L55496 23185
" />
<path d="M50514 24008
L55685 23482
" />
<path d="M56993 16108
L57168 17831
" />
<path d="M57323 16233
L57482 17799
" />
<path d="M62477 15551
L62652 17274
" />
<path d="M62179 15739
L62339 17306
" />
<path d="M62827 18998
L63002 20721
" />
<path d="M62514 19029
L62673 20596
" />
<path d="M57343 19555
L57518 21278
" />
<path d="M57657 19523
L57816 21090
" />
<path d="M57134 15935
L62304 15410
" />
<path d="M57323 16233
L62179 15739
" />
<path d="M57816 21090
L62673 20596
" />
<path d="M57691 21419
L62861 20894
" />
<path d="M64544 17201
L64719 18924
" />
<path d="M64873 17326
L65032 18892
" />
<path d="M70028 16644
L70203 18367
" />
<path d="M69730 16832
L69889 18399
" />
<path d="M70378 20091
L70553 21814
" />
<path d="M70064 20122
L70223 21689
" />
<path d="M64894 20648
L65069 22371
" />
<path d="M65207 20616
L65367 22182
" />
<path d="M64685 17028
L69855 16503
" />
<path d="M64873 17326
L69730 16832
" />
<path d="M65367 22182
L70223 21689
" />
<path d="M65242 22512
L70412 21987
" />
<path d="M72282 20135
L72457 21858
" />
<path d="M72611 20259
L72770 21826
" />
<path d="M77765 19578
L77940 21301
" />
<path d="M77468 19766
L77627 21333
" />
<path d="M78115 23024
L78290 24748
" />
<path d="M77802 23056
L77961 24623
" />
<path d="M72632 23581
L72807 25305
" />
<path d="M72945 23550
L73104 25116
" />
<path d="M72422 19962
L77593 19437
" />
<path d="M72611 20259
L77468 19766
" />
<path d="M73104 25116
L77961 24623
" />
<path d="M72979 25446
L78150 24920
" />
<path d="M40119 27832
L40119 26100
" />
<path d="M40434 26257
L40434 27832
" />
<path d="M45630 27832
L45630 26100
" />
<path d="M45315 27832
L45315 26257
" />
<path d="M45630 31297
L45630 29564
" />
<path d="M45315 29564
L45315 31139
" />
<path d="M40119 31297
L40119 29564
" />
<path d="M40434 31139
L40434 29564
" />
<path d="M40276 25942
L45473 25942
" />
<path d="M40434 26257
L45315 26257
" />
<path d="M40434 31139
L45315 31139
" />
<path d="M40276 31454
L45473 31454
" />
<path d="M47520 27832
L47520 26100
" />
<path d="M47835 26257
L47835 27832
" />
<path d="M53032 27832
L53032 26100
" />
<path d="M52717 27832
L52717 26257
" />
<path d="M53032 31297
L53032 29564
" />
<path d="M52717 29564
L52717 31139
" />
<path d="M47520 31297
L47520 29564
" />
<path d="M47835 31139
L47835 29564
" />
<path d="M47678 25942
L52874 25942
" />
<path d="M47835 26257
L52717 26257
" />
<path d="M47835 31139
L52717 31139
" />
<path d="M47678 31454
L52874 31454
" />
<path d="M54922 27832
L54922 26100
" />
<path d="M55237 26257
L55237 27832
" />
<path d="M60434 27832
L60434 26100
" />
<path d="M60119 27832
L60119 26257
" />
<path d="M60434 31297
L60434 29564
" />
<path d="M60119 29564
L60119 31139
" />
<path d="M54922 31297
L54922 29564
" />
<path d="M55237 31139
L55237 29564
" />
<path d="M55079 25942
L60276 25942
" />
<path d="M55237 26257
L60119 26257
" />
<path d="M55237 31139
L60119 31139
" />
<path d="M55079 31454
L60276 31454
" />
<path d="M62323 27832
L62323 26100
" />
<path d="M62638 26257
L62638 27832
" />
<path d="M67835 27832
L67835 26100
" />
<path d="M67520 27832
L67520 26257
" />
<path d="M67835 31297
L67835 29564
" />
<path d="M67520 29564
L67520 31139
" />
<path d="M62323 31297
L62323 29564
" />
<path d="M62638 31139
L62638 29564
" />
<path d="M62481 25942
L67678 25942
" />
<path d="M62638 26257
L67520 26257
" />
<path d="M62638 31139
L67520 31139
" />
<path d="M62481 31454
L67678 31454
" />
<path d="M40119 35234
L40119 33501
" />
<path d="M40434 33659
L40434 35234
" />
<path d="M45630 35234
L45630 33501
" />
<path d="M45315 35234
L45315 33659
" />
<path d="M45630 38698
L45630 36966
" />
<path d="M45315 36966
L45315 38541
" />
<path d="M40119 38698
L40119 36966
" />
<path d="M40434 38541
L40434 36966
" />
<path d="M40276 33344
L45473 33344
" />
<path d="M40434 33659
L45315 33659
" />
<path d="M40434 38541
L45315 38541
" />
<path d="M40276 38856
L45473 38856
" />
<path d="M47520 35234
L47520 33501
" />
<path d="M47835 33659
L47835 35234
" />
<path d="M53032 35234
L53032 33501
" />
<path d="M52717 35234
L52717 33659
" />
<path d="M53032 38698
L53032 36966
" />
<path d="M52717 36966
L52717 38541
" />
<path d="M47520 38698
L47520 36966
" />
<path d="M47835 38541
L47835 36966
" />
<path d="M47678 33344
L52874 33344
" />
<path d="M47835 33659
L52717 33659
" />
<path d="M47835 38541
L52717 38541
" />
<path d="M47678 38856
L52874 38856
" />
<path d="M54922 35234
L54922 33501
" />
<path d="M55237 33659
L55237 35234
" />
<path d="M60434 35234
L60434 33501
" />
<path d="M60119 35234
L60119 33659
" />
<path d="M60434 38698
L60434 36966
" />
<path d="M60119 36966
L60119 38541
" />
<path d="M54922 38698
L54922 36966
" />
<path d="M55237 38541
L55237 36966
" />
<path d="M55079 33344
L60276 33344
" />
<path d="M55237 33659
L60119 33659
" />
<path d="M55237 38541
L60119 38541
" />
<path d="M55079 38856
L60276 38856
" />
<path d="M62323 35234
L62323 33501
" />
<path d="M62638 33659
L62638 35234
" />
<path d="M67835 35234
L67835 33501
" />
<path d="M67520 35234
L67520 33659
" />
<path d="M67835 38698
L67835 36966
" />
<path d="M67520 36966
L67520 38541
" />
<path d="M62323 38698
L62323 36966
" />
<path d="M62638 38541
L62638 36966
" />
<path d="M62481 33344
L67678 33344
" />
<path d="M62638 33659
L67520 33659
" />
<path d="M62638 38541
L67520 38541
" />
<path d="M62481 38856
L67678 38856
" />
</g> 
</svg>
