999
dxfrw 0.6.3
  0
SECTION
  2
HEADER
  9
$ACADVER
  1
AC1021
  9
$DWGCODEPAGE
  3
ANSI_1252
  9
$INSBASE
 10
0
 20
0
 30
0
  9
$EXTMIN
 10
12.22705092677847
 20
9.777102068403288
 30
0
  9
$EXTMAX
 10
2148.078450883747
 20
1866.138
 30
0
  9
$LIMMIN
 10
0
 20
0
  9
$LIMMAX
 10
420
 20
297
  9
$ORTHOMODE
 70
    0
  9
$REGENMODE
 70
    1
  9
$FILLMODE
 70
    1
  9
$QTEXTMODE
 70
    0
  9
$MIRRTEXT
 70
    0
  9
$LTSCALE
 40
1
  9
$ATTMODE
 70
    0
  9
$TEXTSIZE
 40
2.5
  9
$TRACEWID
 40
15.68
  9
$TEXTSTYLE
  7
STANDARD
  9
$CLAYER
  8
0
  9
$CELTYPE
  6
BYLAYER
  9
$CECOLOR
 62
  256
  9
$CELTSCALE
 40
1
  9
$DISPSILH
 70
    0
  9
$DIMSCALE
 40
2.5
  9
$DIMASZ
 40
2.5
  9
$DIMEXO
 40
0.625
  9
$DIMDLI
 40
3.75
  9
$DIMRND
 40
0
  9
$DIMDLE
 40
0
  9
$DIMEXE
 40
1.25
  9
$DIMTP
 40
0
  9
$DIMTM
 40
0
  9
$DIMTXT
 40
2.5
  9
$DIMCEN
 40
2.5
  9
$DIMTSZ
 40
0
  9
$DIMTOL
 70
    0
  9
$DIMLIM
 70
    0
  9
$DIMTIH
 70
    0
  9
$DIMTOH
 70
    0
  9
$DIMSE1
 70
    0
  9
$DIMSE2
 70
    0
  9
$DIMTAD
 70
    1
  9
$DIMZIN
 70
    8
  9
$DIMBLK
  1

  9
$DIMASO
 70
    1
  9
$DIMSHO
 70
    1
  9
$DIMPOST
  1

  9
$DIMAPOST
  1

  9
$DIMALT
 70
    0
  9
$DIMALTD
 70
    3
  9
$DIMALTF
 40
0.03937
  9
$DIMLFAC
 40
1
  9
$DIMTOFL
 70
    1
  9
$DIMTVP
 40
0
  9
$DIMTIX
 70
    0
  9
$DIMSOXD
 70
    0
  9
$DIMSAH
 70
    0
  9
$DIMBLK1
  1

  9
$DIMBLK2
  1

  9
$DIMSTYLE
  2
Standard
  9
$DIMCLRD
 70
    0
  9
$DIMCLRE
 70
    0
  9
$DIMCLRT
 70
    0
  9
$DIMTFAC
 40
1
  9
$DIMGAP
 40
0.625
  9
$DIMJUST
 70
    0
  9
$DIMSD1
 70
    0
  9
$DIMSD2
 70
    0
  9
$DIMTOLJ
 70
    0
  9
$DIMTZIN
 70
    8
  9
$DIMALTZ
 70
    0
  9
$DIMALTTZ
 70
    0
  9
$DIMUPT
 70
    0
  9
$DIMDEC
 70
    2
  9
$DIMTDEC
 70
    2
  9
$DIMALTU
 70
    2
  9
$DIMALTTD
 70
    3
  9
$DIMTXSTY
  7
STANDARD
  9
$DIMAUNIT
 70
    0
  9
$DIMADEC
 70
    0
  9
$DIMALTRND
 40
0
  9
$DIMAZIN
 70
    0
  9
$DIMDSEP
 70
   44
  9
$DIMATFIT
 70
    3
  9
$DIMFRAC
 70
    0
  9
$DIMLDRBLK
  1
STANDARD
  9
$DIMLUNIT
 70
    2
  9
$DIMLWD
 70
   -2
  9
$DIMLWE
 70
   -2
  9
$DIMTMOVE
 70
    0
  9
$DIMFXL
 40
1
  9
$DIMFXLON
 70
    0
  9
$DIMJOGANG
 40
0.7854
  9
$DIMTFILL
 70
    0
  9
$DIMTFILLCLR
 70
    0
  9
$DIMARCSYM
 70
    0
  9
$DIMLTYPE
  6

  9
$DIMLTEX1
  6

  9
$DIMLTEX2
  6

  9
$LUNITS
 70
    2
  9
$LUPREC
 70
    4
  9
$SKETCHINC
 40
1
  9
$FILLETRAD
 40
0
  9
$AUNITS
 70
    0
  9
$AUPREC
 70
    2
  9
$MENU
  1
.
  9
$ELEVATION
 40
0
  9
$PELEVATION
 40
0
  9
$THICKNESS
 40
0
  9
$LIMCHECK
 70
    0
  9
$CHAMFERA
 40
0
  9
$CHAMFERB
 40
0
  9
$CHAMFERC
 40
0
  9
$CHAMFERD
 40
0
  9
$SKPOLY
 70
    0
  9
$USRTIMER
 70
    1
  9
$ANGBASE
 50
0
  9
$ANGDIR
 70
    0
  9
$PDMODE
 70
   34
  9
$PDSIZE
 40
0
  9
$PLINEWID
 40
0
  9
$SPLFRAME
 70
    0
  9
$SPLINETYPE
 70
    2
  9
$SPLINESEGS
 70
    8
  9
$HANDSEED
  5
20000
  9
$SURFTAB1
 70
    6
  9
$SURFTAB2
 70
    6
  9
$SURFTYPE
 70
    6
  9
$SURFU
 70
    6
  9
$SURFV
 70
    6
  9
$UCSBASE
  2

  9
$UCSNAME
  2

  9
$UCSORG
 10
0
 20
0
 30
0
  9
$UCSXDIR
 10
1
 20
0
 30
0
  9
$UCSYDIR
 10
0
 20
1
 30
0
  9
$UCSORTHOREF
  2

  9
$UCSORTHOVIEW
 70
    0
  9
$UCSORGTOP
 10
0
 20
0
 30
0
  9
$UCSORGBOTTOM
 10
0
 20
0
 30
0
  9
$UCSORGLEFT
 10
0
 20
0
 30
0
  9
$UCSORGRIGHT
 10
0
 20
0
 30
0
  9
$UCSORGFRONT
 10
0
 20
0
 30
0
  9
$UCSORGBACK
 10
0
 20
0
 30
0
  9
$PUCSBASE
  2

  9
$PUCSNAME
  2

  9
$PUCSORG
 10
0
 20
0
 30
0
  9
$PUCSXDIR
 10
1
 20
0
 30
0
  9
$PUCSYDIR
 10
0
 20
1
 30
0
  9
$PUCSORTHOREF
  2

  9
$PUCSORTHOVIEW
 70
    0
  9
$PUCSORGTOP
 10
0
 20
0
 30
0
  9
$PUCSORGBOTTOM
 10
0
 20
0
 30
0
  9
$PUCSORGLEFT
 10
0
 20
0
 30
0
  9
$PUCSORGRIGHT
 10
0
 20
0
 30
0
  9
$PUCSORGFRONT
 10
0
 20
0
 30
0
  9
$PUCSORGBACK
 10
0
 20
0
 30
0
  9
$USERI1
 70
    0
  9
$USERI2
 70
    0
  9
$USERI3
 70
    0
  9
$USERI4
 70
    0
  9
$USERI5
 70
    0
  9
$USERR1
 40
0
  9
$USERR2
 40
0
  9
$USERR3
 40
0
  9
$USERR4
 40
0
  9
$USERR5
 40
0
  9
$WORLDVIEW
 70
    1
  9
$SHADEDGE
 70
    3
  9
$SHADEDIF
 70
   70
  9
$TILEMODE
 70
    1
  9
$MAXACTVP
 70
   64
  9
$PINSBASE
 10
0
 20
0
 30
0
  9
$PLIMCHECK
 70
    0
  9
$PEXTMIN
 10
0
 20
0
 30
0
  9
$PEXTMAX
 10
0
 20
0
 30
0
  9
$SNAPSTYLE
 70
    0
  9
$PLIMMIN
 10
0
 20
0
  9
$PLIMMAX
 10
297
 20
210
  9
$UNITMODE
 70
    0
  9
$VISRETAIN
 70
    1
  9
$PLINEGEN
 70
    0
  9
$PSLTSCALE
 70
    1
  9
$TREEDEPTH
 70
 3020
  9
$CMLSTYLE
  2
Standard
  9
$CMLJUST
 70
    0
  9
$CMLSCALE
 40
20
  9
$PROXYGRAPHICS
 70
    1
  9
$MEASUREMENT
 70
    1
  9
$CELWEIGHT
370
   -1
  9
$ENDCAPS
280
    0
  9
$JOINSTYLE
280
    0
  9
$LWDISPLAY
290
    0
  9
$INSUNITS
 70
    4
  9
$HYPERLINKBASE
  1

  9
$STYLESHEET
  1

  9
$XEDIT
290
    1
  9
$CEPSNTYPE
380
    0
  9
$PSTYLEMODE
290
    1
  9
$EXTNAMES
290
    1
  9
$PSVPSCALE
 40
1
  9
$OLESTARTUP
290
    0
  9
$SORTENTS
280
  127
  9
$INDEXCTL
280
    0
  9
$HIDETEXT
280
    1
  9
$XCLIPFRAME
290
    0
  9
$HALOGAP
280
    0
  9
$OBSCOLOR
 70
  257
  9
$OBSLTYPE
280
    0
  9
$INTERSECTIONDISPLAY
280
    0
  9
$INTERSECTIONCOLOR
 70
  257
  9
$DIMASSOC
280
    1
  9
$PROJECTNAME
  1

  9
$CAMERADISPLAY
290
    0
  9
$LENSLENGTH
 40
50
  9
$CAMERAHEIGHT
 40
0
  9
$STEPSPERSEC
 40
2
  9
$STEPSIZE
 40
50
  9
$3DDWFPREC
 40
2
  9
$PSOLWIDTH
 40
5
  9
$PSOLHEIGHT
 40
80
  9
$LOFTANG1
 40
1.570796326794897
  9
$LOFTANG2
 40
1.570796326794897
  9
$LOFTMAG1
 40
0
  9
$LOFTMAG2
 40
0
  9
$LOFTPARAM
 70
    7
  9
$LOFTNORMALS
280
    1
  9
$LATITUDE
 40
1
  9
$LONGITUDE
 40
1
  9
$NORTHDIRECTION
 40
0
  9
$TIMEZONE
 70
-8000
  9
$LIGHTGLYPHDISPLAY
280
    1
  9
$TILEMODELIGHTSYNCH
280
    1
  9
$SOLIDHIST
280
    1
  9
$SHOWHIST
280
    1
  9
$DWFFRAME
280
    2
  9
$DGNFRAME
280
    0
  9
$REALWORLDSCALE
290
    1
  9
$INTERFERECOLOR
 62
    1
  9
$CSHADOW
280
    0
  9
$SHADOWPLANELOCATION
 40
0
  0
ENDSEC
  0
SECTION
  2
CLASSES
  0
ENDSEC
  0
SECTION
  2
TABLES
  0
TABLE
  2
VPORT
  5
8
330
0
100
AcDbSymbolTable
 70
    1
  0
VPORT
  5
31
330
2
100
AcDbSymbolTableRecord
100
AcDbViewportTableRecord
  2
*ACTIVE
 70
    0
 10
0
 20
0
 11
1
 21
1
 12
70.37042614987514
 22
118.5089422106252
 13
0
 23
0
 14
10
 24
10
 15
10
 25
10
 16
0
 26
0
 36
1
 17
0
 27
0
 37
0
 40
309.4093933065006
 41
0.5961995249406176
 42
50
 43
0
 44
0
 50
0
 51
0
 71
    0
 72
  100
 73
    1
 74
    3
 75
    0
 76
    1
 77
    0
 78
    0
281
    0
 65
    1
110
0
120
0
130
0
111
1
121
0
131
0
112
0
122
1
132
0
 79
    0
146
0
348
10020
 60
    7
 61
    5
292
1
282
    1
141
0
142
0
 63
  250
421
3358443
  0
ENDTAB
  0
TABLE
  2
LTYPE
  5
5
330
0
100
AcDbSymbolTable
 70
    4
  0
LTYPE
  5
14
330
5
100
AcDbSymbolTableRecord
100
AcDbLinetypeTableRecord
  2
ByBlock
 70
    0
  3

 72
   65
 73
    0
 40
0
  0
LTYPE
  5
15
330
5
100
AcDbSymbolTableRecord
100
AcDbLinetypeTableRecord
  2
ByLayer
 70
    0
  3

 72
   65
 73
    0
 40
0
  0
LTYPE
  5
16
330
5
100
AcDbSymbolTableRecord
100
AcDbLinetypeTableRecord
  2
Continuous
 70
    0
  3
Solid line
 72
   65
 73
    0
 40
0
  0
LTYPE
  5
32
330
5
100
AcDbSymbolTableRecord
100
AcDbLinetypeTableRecord
  2
DOT
 70
    0
  3
Dot . . . . . . . . . . . . . . . . . . . . . .
 72
   65
 73
    2
 40
6.35
 49
0
 74
    0
 49
-6.35
 74
    0
  0
LTYPE
  5
33
330
5
100
AcDbSymbolTableRecord
100
AcDbLinetypeTableRecord
  2
DOTTINY
 70
    0
  3
Dot (.15x) .....................................
 72
   65
 73
    2
 40
0.9525
 49
0
 74
    0
 49
-0.9525
 74
    0
  0
LTYPE
  5
34
330
5
100
AcDbSymbolTableRecord
100
AcDbLinetypeTableRecord
  2
DOT2
 70
    0
  3
Dot (.5x) .....................................
 72
   65
 73
    2
 40
3.175
 49
0
 74
    0
 49
-3.175
 74
    0
  0
LTYPE
  5
35
330
5
100
AcDbSymbolTableRecord
100
AcDbLinetypeTableRecord
  2
DOTX2
 70
    0
  3
Dot (2x) .  .  .  .  .  .  .  .  .  .  .  .  .
 72
   65
 73
    2
 40
12.7
 49
0
 74
    0
 49
-12.7
 74
    0
  0
LTYPE
  5
36
330
5
100
AcDbSymbolTableRecord
100
AcDbLinetypeTableRecord
  2
DASHED
 70
    0
  3
Dashed _ _ _ _ _ _ _ _ _ _ _ _ _ _ _ _ _
 72
   65
 73
    2
 40
19.05
 49
12.7
 74
    0
 49
-6.35
 74
    0
  0
LTYPE
  5
37
330
5
100
AcDbSymbolTableRecord
100
AcDbLinetypeTableRecord
  2
DASHEDTINY
 70
    0
  3
Dashed (.15x) _ _ _ _ _ _ _ _ _ _ _ _ _ _ _ _ _
 72
   65
 73
    2
 40
2.8575
 49
1.905
 74
    0
 49
-0.9525
 74
    0
  0
LTYPE
  5
38
330
5
100
AcDbSymbolTableRecord
100
AcDbLinetypeTableRecord
  2
DASHED2
 70
    0
  3
Dashed (.5x) _ _ _ _ _ _ _ _ _ _ _ _ _ _ _ _ _
 72
   65
 73
    2
 40
9.524999999999999
 49
6.35
 74
    0
 49
-3.175
 74
    0
  0
LTYPE
  5
39
330
5
100
AcDbSymbolTableRecord
100
AcDbLinetypeTableRecord
  2
DASHEDX2
 70
    0
  3
Dashed (2x) ____  ____  ____  ____  ____  ___
 72
   65
 73
    2
 40
38.09999999999999
 49
25.4
 74
    0
 49
-12.7
 74
    0
  0
LTYPE
  5
3A
330
5
100
AcDbSymbolTableRecord
100
AcDbLinetypeTableRecord
  2
DASHDOT
 70
    0
  3
Dash dot __ . __ . __ . __ . __ . __ . __ . __
 72
   65
 73
    4
 40
25.4
 49
12.7
 74
    0
 49
-6.35
 74
    0
 49
0
 74
    0
 49
-6.35
 74
    0
  0
LTYPE
  5
3B
330
5
100
AcDbSymbolTableRecord
100
AcDbLinetypeTableRecord
  2
DASHDOTTINY
 70
    0
  3
Dash dot (.15x) _._._._._._._._._._._._._._._.
 72
   65
 73
    4
 40
3.81
 49
1.905
 74
    0
 49
-0.9525
 74
    0
 49
0
 74
    0
 49
-0.9525
 74
    0
  0
LTYPE
  5
3C
330
5
100
AcDbSymbolTableRecord
100
AcDbLinetypeTableRecord
  2
DASHDOT2
 70
    0
  3
Dash dot (.5x) _._._._._._._._._._._._._._._.
 72
   65
 73
    4
 40
12.7
 49
6.35
 74
    0
 49
-3.175
 74
    0
 49
0
 74
    0
 49
-3.175
 74
    0
  0
LTYPE
  5
3D
330
5
100
AcDbSymbolTableRecord
100
AcDbLinetypeTableRecord
  2
DASHDOTX2
 70
    0
  3
Dash dot (2x) ____  .  ____  .  ____  .  ___
 72
   65
 73
    4
 40
50.8
 49
25.4
 74
    0
 49
-12.7
 74
    0
 49
0
 74
    0
 49
-12.7
 74
    0
  0
LTYPE
  5
3E
330
5
100
AcDbSymbolTableRecord
100
AcDbLinetypeTableRecord
  2
DIVIDE
 70
    0
  3
Divide ____ . . ____ . . ____ . . ____ . . ____
 72
   65
 73
    6
 40
31.75
 49
12.7
 74
    0
 49
-6.35
 74
    0
 49
0
 74
    0
 49
-6.35
 74
    0
 49
0
 74
    0
 49
-6.35
 74
    0
  0
LTYPE
  5
3F
330
5
100
AcDbSymbolTableRecord
100
AcDbLinetypeTableRecord
  2
DIVIDETINY
 70
    0
  3
Divide (.15x) __..__..__..__..__..__..__..__.._
 72
   65
 73
    6
 40
4.7625
 49
1.905
 74
    0
 49
-0.9525
 74
    0
 49
0
 74
    0
 49
-0.9525
 74
    0
 49
0
 74
    0
 49
-0.9525
 74
    0
  0
LTYPE
  5
40
330
5
100
AcDbSymbolTableRecord
100
AcDbLinetypeTableRecord
  2
DIVIDE2
 70
    0
  3
Divide (.5x) __..__..__..__..__..__..__..__.._
 72
   65
 73
    6
 40
15.875
 49
6.35
 74
    0
 49
-3.175
 74
    0
 49
0
 74
    0
 49
-3.175
 74
    0
 49
0
 74
    0
 49
-3.175
 74
    0
  0
LTYPE
  5
41
330
5
100
AcDbSymbolTableRecord
100
AcDbLinetypeTableRecord
  2
DIVIDEX2
 70
    0
  3
Divide (2x) ________  .  .  ________  .  .  _
 72
   65
 73
    6
 40
63.5
 49
25.4
 74
    0
 49
-12.7
 74
    0
 49
0
 74
    0
 49
-12.7
 74
    0
 49
0
 74
    0
 49
-12.7
 74
    0
  0
LTYPE
  5
42
330
5
100
AcDbSymbolTableRecord
100
AcDbLinetypeTableRecord
  2
BORDER
 70
    0
  3
Border __ __ . __ __ . __ __ . __ __ . __ __ .
 72
   65
 73
    6
 40
44.45
 49
12.7
 74
    0
 49
-6.35
 74
    0
 49
12.7
 74
    0
 49
-6.35
 74
    0
 49
0
 74
    0
 49
-6.35
 74
    0
  0
LTYPE
  5
43
330
5
100
AcDbSymbolTableRecord
100
AcDbLinetypeTableRecord
  2
BORDERTINY
 70
    0
  3
Border (.15x) __.__.__.__.__.__.__.__.__.__.__.
 72
   65
 73
    6
 40
6.6675
 49
1.905
 74
    0
 49
-0.9525
 74
    0
 49
1.905
 74
    0
 49
-0.9525
 74
    0
 49
0
 74
    0
 49
-0.9525
 74
    0
  0
LTYPE
  5
44
330
5
100
AcDbSymbolTableRecord
100
AcDbLinetypeTableRecord
  2
BORDER2
 70
    0
  3
Border (.5x) __.__.__.__.__.__.__.__.__.__.__.
 72
   65
 73
    6
 40
22.225
 49
6.35
 74
    0
 49
-3.175
 74
    0
 49
6.35
 74
    0
 49
-3.175
 74
    0
 49
0
 74
    0
 49
-3.175
 74
    0
  0
LTYPE
  5
45
330
5
100
AcDbSymbolTableRecord
100
AcDbLinetypeTableRecord
  2
BORDERX2
 70
    0
  3
Border (2x) ____  ____  .  ____  ____  .  ___
 72
   65
 73
    6
 40
88.89999999999999
 49
25.4
 74
    0
 49
-12.7
 74
    0
 49
25.4
 74
    0
 49
-12.7
 74
    0
 49
0
 74
    0
 49
-12.7
 74
    0
  0
LTYPE
  5
46
330
5
100
AcDbSymbolTableRecord
100
AcDbLinetypeTableRecord
  2
CENTER
 70
    0
  3
Center ____ _ ____ _ ____ _ ____ _ ____ _ ____
 72
   65
 73
    4
 40
50.8
 49
31.75
 74
    0
 49
-6.35
 74
    0
 49
6.35
 74
    0
 49
-6.35
 74
    0
  0
LTYPE
  5
47
330
5
100
AcDbSymbolTableRecord
100
AcDbLinetypeTableRecord
  2
CENTERTINY
 70
    0
  3
Center (.15x) ___ _ ___ _ ___ _ ___ _ ___ _ ___
 72
   65
 73
    4
 40
7.619999999999999
 49
4.7625
 74
    0
 49
-0.9525
 74
    0
 49
0.9525
 74
    0
 49
-0.9525
 74
    0
  0
LTYPE
  5
48
330
5
100
AcDbSymbolTableRecord
100
AcDbLinetypeTableRecord
  2
CENTER2
 70
    0
  3
Center (.5x) ___ _ ___ _ ___ _ ___ _ ___ _ ___
 72
   65
 73
    4
 40
28.575
 49
19.05
 74
    0
 49
-3.175
 74
    0
 49
3.175
 74
    0
 49
-3.175
 74
    0
  0
LTYPE
  5
49
330
5
100
AcDbSymbolTableRecord
100
AcDbLinetypeTableRecord
  2
CENTERX2
 70
    0
  3
Center (2x) ________  __  ________  __  _____
 72
   65
 73
    4
 40
101.6
 49
63.5
 74
    0
 49
-12.7
 74
    0
 49
12.7
 74
    0
 49
-12.7
 74
    0
  0
ENDTAB
  0
TABLE
  2
LAYER
  5
2
330
0
100
AcDbSymbolTable
 70
    1
  0
LAYER
  5
10
330
2
100
AcDbSymbolTableRecord
100
AcDbLayerTableRecord
  2
0
 70
    0
 62
    7
  6
CONTINUOUS
370
   -3
390
F
  0
ENDTAB
  0
TABLE
  2
STYLE
  5
3
330
0
100
AcDbSymbolTable
 70
    3
  0
STYLE
  5
4A
330
2
100
AcDbSymbolTableRecord
100
AcDbTextStyleTableRecord
  2
Standard
 70
    0
 40
0
 41
1
 50
0
 71
    0
 42
1
  3
txt
  4

  0
ENDTAB
  0
TABLE
  2
VIEW
  5
6
330
0
100
AcDbSymbolTable
 70
    0
  0
ENDTAB
  0
TABLE
  2
UCS
  5
7
330
0
100
AcDbSymbolTable
 70
    0
  0
ENDTAB
  0
TABLE
  2
APPID
  5
9
330
0
100
AcDbSymbolTable
 70
    1
  0
APPID
  5
12
330
9
100
AcDbSymbolTableRecord
100
AcDbRegAppTableRecord
  2
ACAD
 70
    0
  0
APPID
  5
4B
330
9
100
AcDbSymbolTableRecord
100
AcDbRegAppTableRecord
  2
LibreCad
 70
    0
  0
ENDTAB
  0
TABLE
  2
DIMSTYLE
  5
A
330
0
100
AcDbSymbolTable
 70
    1
100
AcDbDimStyleTable
 71
    1
  0
DIMSTYLE
105
4C
330
A
100
AcDbSymbolTableRecord
100
AcDbDimStyleTableRecord
  2
Standard
 70
    0
 40
1
 41
2.5
 42
0.625
 43
0.38
 44
1.25
 45
0
 46
0
 47
0
 48
0
 49
1
140
2.5
141
0.09
142
2.5
143
25.4
144
1
145
0
146
1
147
0.625
148
0
 71
    0
 72
    0
 73
    0
 74
    1
 75
    0
 76
    0
 77
    0
 78
    1
 79
    0
170
    0
171
    2
172
    0
173
    0
174
    0
175
    0
176
    0
177
    0
178
    0
179
    0
271
    2
272
    4
273
    2
274
    2
275
    0
276
    0
277
    2
278
    0
279
    0
280
    0
281
    0
282
    0
283
    1
284
    0
285
    0
286
    0
288
    0
289
    3
340
standard
341

371
   -2
372
   -2
  0
ENDTAB
  0
TABLE
  2
BLOCK_RECORD
  5
1
330
0
100
AcDbSymbolTable
 70
    2
  0
BLOCK_RECORD
  5
1F
330
1
100
AcDbSymbolTableRecord
100
AcDbBlockTableRecord
  2
*Model_Space
 70
    0
280
    1
281
    0
  0
BLOCK_RECORD
  5
1E
330
1
100
AcDbSymbolTableRecord
100
AcDbBlockTableRecord
  2
*Paper_Space
 70
    0
280
    1
281
    0
  0
ENDTAB
  0
ENDSEC
  0
SECTION
  2
BLOCKS
  0
BLOCK
  5
20
330
1F
100
AcDbEntity
  8
0
100
AcDbBlockBegin
  2
*Model_Space
 70
    0
 10
0
 20
0
 30
0
  3
*Model_Space
  1

  0
ENDBLK
  5
21
330
1F
100
AcDbEntity
  8
0
100
AcDbBlockEnd
  0
BLOCK
  5
1C
330
1B
100
AcDbEntity
  8
0
100
AcDbBlockBegin
  2
*Paper_Space
 70
    0
 10
0
 20
0
 30
0
  3
*Paper_Space
  1

  0
ENDBLK
  5
1D
330
1F
100
AcDbEntity
  8
0
100
AcDbBlockEnd
  0
ENDSEC
  0
SECTION
  2
ENTITIES
  0
LWPOLYLINE
  5
4D
100
AcDbEntity
  8
0
  6
ByLayer
 62
  256
370
   -1
100
AcDbPolyline
 90
   50
 70
    1
 43
0
 10
83.5
 20
181.50078
 10
83.5
 20
180
 10
80
 20
180
 10
80
 20
176.4571864221736
 10
77.00365799999999
 20
176.4571864221736
 10
77.0044480413807
 20
168.4980735130286
 10
80
 20
168.5
 10
80
 20
166.5
 10
92.77080000000001
 20
166.5
 10
92.77080000000001
 20
169.5428135778264
 10
95.7663519586193
 20
169.5408870908551
 10
95.76714200000002
 20
177.5
 10
92.77080000000001
 20
177.5
 10
92.77080000000001
 20
180
 10
89.5
 20
180
 10
89.5
 20
181.50078
 10
90.05710000000001
 20
181.50078
 10
103.9368
 20
186.6138
 10
123.0122
 20
186.6138
 10
132.29196
 20
181.50078
 10
133.79196
 20
181.50078
 10
133.79196
 20
177.5
 10
131
 20
177.5
 10
131
 20
172.847
 10
119
 20
172.847
 10
119
 20
159.9999999999996
 10
159.2191199999999
 20
159.9999999999996
 10
159.2191199999999
 20
157.9999999999996
 10
192
 20
157.9999999999996
 10
192
 20
177.5
 10
141.49324
 20
177.5
 10
141.49324
 20
181.50078
 10
142.99324
 20
181.50078
 10
152.2984
 20
186.6138
 10
207.8078450883747
 20
186.6137033068416
 42
-0.414213562373095
 10
214.8078450883747
 20
179.6137033068416
 10
214.8078450883747
 20
55.18370330684318
 42
-0.4142135623731179
 10
207.8078450883742
 20
48.18370330684318
 10
130.6750530827643
 20
48.18370330684909
 42
0.1052384702497936
 10
127.71723462432
 20
47.5280953160875
 10
48.14925609364933
 20
10.43271020023537
 42
-0.4141910192641013
 10
38.8472731394562
 20
13.81879500350322
 10
12.88288673361934
 20
69.50007720969019
 42
-0.4142221777007633
 10
16.2689304734424
 20
78.80263548206574
 10
49.67916554171089
 20
94.38075439226246
 42
0.2914822858543802
 10
53.72104508837467
 20
100.725005599738
 10
53.72104508837468
 20
179.6137033068418
 42
-0.4142135623731055
 10
60.72104508837494
 20
186.6137033068418
 10
68.834
 20
186.6138
 10
82.71370000000002
 20
181.50078
  0
LWPOLYLINE
  5
4E
100
AcDbEntity
  8
0
  6
ByLayer
 62
  256
370
   -1
100
AcDbPolyline
 90
   20
 70
    1
 43
0
 10
79.375
 20
150.88616
 10
79.375
 20
151.8666
 10
65.405
 20
151.8666
 10
65.405
 20
150.88616
 10
64.59220000000001
 20
150.88616
 10
64.59220000000001
 20
147.38604
 10
65.405
 20
147.38604
 10
65.405
 20
142.37716
 10
64.59220000000001
 20
142.37716
 10
64.59220000000001
 20
138.87704
 10
65.405
 20
138.87704
 10
65.405
 20
137.8966
 10
79.375
 20
137.8966
 10
79.375
 20
138.87704
 10
80.18780000000004
 20
138.87704
 10
80.18780000000004
 20
142.37716
 10
79.375
 20
142.37716
 10
79.375
 20
147.38604
 10
80.18780000000004
 20
147.38604
 10
80.18780000000004
 20
150.88616
  0
CIRCLE
  5
4F
100
AcDbEntity
  8
0
  6
ByLayer
 62
  256
370
   -1
100
AcDbCircle
 10
59.99127135422177
 20
180.3498270409947
 40
1.5
  0
CIRCLE
  5
50
100
AcDbEntity
  8
0
  6
ByLayer
 62
  256
370
   -1
100
AcDbCircle
 10
113.4745450883747
 20
182.1687033068418
 40
1.5
  0
CIRCLE
  5
51
100
AcDbEntity
  8
0
  6
ByLayer
 62
  256
370
   -1
100
AcDbCircle
 10
208.5439688225276
 20
180.3498270409946
 40
1.5
  0
CIRCLE
  5
52
100
AcDbEntity
  8
0
  6
ByLayer
 62
  256
370
   -1
100
AcDbCircle
 10
208.5439690883747
 20
56.03507957268933
 40
1.5
  0
CIRCLE
  5
53
100
AcDbEntity
  8
0
  6
ByLayer
 62
  256
370
   -1
100
AcDbCircle
 10
128.1379650883747
 20
52.62870330684057
 40
1.5
  0
CIRCLE
  5
54
100
AcDbEntity
  8
0
  6
ByLayer
 62
  256
370
   -1
100
AcDbCircle
 10
44.8357483734687
 20
15.79810850411128
 40
1.5
  0
CIRCLE
  5
55
100
AcDbEntity
  8
0
  6
ByLayer
 62
  256
370
   -1
100
AcDbCircle
 10
18.24931035950985
 20
72.81418842928463
 40
1.5
  0
LWPOLYLINE
  5
56
100
AcDbEntity
  8
0
  6
ByLayer
 62
  256
370
   -1
100
AcDbPolyline
 90
    5
 70
    1
 43
0
 10
105.9011254852081
 20
161.6037235395529
 10
111.6488367787598
 20
167.3514348312415
 10
101.7493418421481
 20
177.2509297678531
 10
97
 20
172.5015879257051
 10
97
 20
170.504849024761
  0
CIRCLE
  5
57
100
AcDbEntity
  8
0
  6
ByLayer
 62
  256
370
   -1
100
AcDbCircle
 10
139.0396
 20
118.3894
 40
1.524
  0
CIRCLE
  5
58
100
AcDbEntity
  8
0
  6
ByLayer
 62
  256
370
   -1
100
AcDbCircle
 10
53.89880000000001
 20
44.1452
 40
1.524
  0
LWPOLYLINE
  5
59
100
AcDbEntity
  8
0
  6
ByLayer
 62
  256
370
   -1
100
AcDbPolyline
 90
    4
 70
    1
 43
0
 10
54.05120000000001
 20
55.55741999999999
 10
66.7131
 20
61.46292
 10
65.31610000000001
 20
64.45504000000001
 10
52.65674000000001
 20
58.54954000000001
  0
LWPOLYLINE
  5
5A
100
AcDbEntity
  8
0
  6
ByLayer
 62
  256
370
   -1
100
AcDbPolyline
 90
    4
 70
    1
 43
0
 10
64.14262000000001
 20
33.91916000000001
 10
76.80198000000001
 20
39.82212000000001
 10
75.40751999999999
 20
42.81424000000001
 10
62.74562
 20
36.91128
  0
LWPOLYLINE
  5
5B
100
AcDbEntity
  8
0
  6
ByLayer
 62
  256
370
   -1
100
AcDbPolyline
 90
    4
 70
    1
 43
0
 10
91.29014000000001
 20
50.22342
 10
78.62824000000001
 20
44.31792000000001
 10
80.02524000000004
 20
41.32580000000001
 10
92.6846
 20
47.2313
  0
LWPOLYLINE
  5
5C
100
AcDbEntity
  8
0
  6
ByLayer
 62
  256
370
   -1
100
AcDbPolyline
 90
    4
 70
    1
 43
0
 10
81.19872000000004
 20
71.86168000000001
 10
68.53936
 20
65.95872
 10
69.93382000000001
 20
62.96660000000001
 10
82.59572000000001
 20
68.86955999999999
  0
LWPOLYLINE
  5
5D
100
AcDbEntity
  8
0
  6
ByLayer
 62
  256
370
   -1
100
AcDbPolyline
 90
   20
 70
    1
 43
0
 10
184.4675
 20
92.81414000000001
 10
184.4675
 20
91.83370000000001
 10
183.6547
 20
91.83370000000001
 10
183.6547
 20
88.33358000000001
 10
184.4675
 20
88.33358000000001
 10
184.4675
 20
83.32470000000001
 10
183.6547
 20
83.32470000000001
 10
183.6547
 20
79.82458000000003
 10
184.4675
 20
79.82458000000003
 10
184.4675
 20
78.84414000000004
 10
198.4375
 20
78.84414000000004
 10
198.4375
 20
79.82458000000003
 10
199.2503
 20
79.82458000000003
 10
199.2503
 20
83.32470000000001
 10
198.4375
 20
83.32470000000001
 10
198.4375
 20
88.33358000000001
 10
199.2503
 20
88.33358000000001
 10
199.2503
 20
91.83370000000001
 10
198.4375
 20
91.83370000000001
 10
198.4375
 20
92.81414000000001
  0
LWPOLYLINE
  5
5E
100
AcDbEntity
  8
0
  6
ByLayer
 62
  256
370
   -1
100
AcDbPolyline
 90
   20
 70
    1
 43
0
 10
184.4675
 20
111.86414
 10
184.4675
 20
110.8837
 10
183.6547
 20
110.8837
 10
183.6547
 20
107.38358
 10
184.4675
 20
107.38358
 10
184.4675
 20
102.3747
 10
183.6547
 20
102.3747
 10
183.6547
 20
98.87457999999999
 10
184.4675
 20
98.87457999999999
 10
184.4675
 20
97.89413999999999
 10
198.4375
 20
97.89413999999999
 10
198.4375
 20
98.87457999999999
 10
199.2503
 20
98.87457999999999
 10
199.2503
 20
102.3747
 10
198.4375
 20
102.3747
 10
198.4375
 20
107.38358
 10
199.2503
 20
107.38358
 10
199.2503
 20
110.8837
 10
198.4375
 20
110.8837
 10
198.4375
 20
111.86414
  0
LWPOLYLINE
  5
5F
100
AcDbEntity
  8
0
  6
ByLayer
 62
  256
370
   -1
100
AcDbPolyline
 90
   20
 70
    1
 43
0
 10
184.4675
 20
130.91414
 10
184.4675
 20
129.9337
 10
183.6547
 20
129.9337
 10
183.6547
 20
126.43358
 10
184.4675
 20
126.43358
 10
184.4675
 20
121.4247
 10
183.6547
 20
121.4247
 10
183.6547
 20
117.92458
 10
184.4675
 20
117.92458
 10
184.4675
 20
116.94414
 10
198.4375
 20
116.94414
 10
198.4375
 20
117.92458
 10
199.2503
 20
117.92458
 10
199.2503
 20
121.4247
 10
198.4375
 20
121.4247
 10
198.4375
 20
126.43358
 10
199.2503
 20
126.43358
 10
199.2503
 20
129.9337
 10
198.4375
 20
129.9337
 10
198.4375
 20
130.91414
  0
LWPOLYLINE
  5
60
100
AcDbEntity
  8
0
  6
ByLayer
 62
  256
370
   -1
100
AcDbPolyline
 90
   20
 70
    1
 43
0
 10
184.4675
 20
149.9616
 10
184.4675
 20
148.98116
 10
183.6547
 20
148.98116
 10
183.6547
 20
145.48104
 10
184.4675
 20
145.48104
 10
184.4675
 20
140.47216
 10
183.6547
 20
140.47216
 10
183.6547
 20
136.97204
 10
184.4675
 20
136.97204
 10
184.4675
 20
135.9916
 10
198.4375
 20
135.9916
 10
198.4375
 20
136.97204
 10
199.2503
 20
136.97204
 10
199.2503
 20
140.47216
 10
198.4375
 20
140.47216
 10
198.4375
 20
145.48104
 10
199.2503
 20
145.48104
 10
199.2503
 20
148.98116
 10
198.4375
 20
148.98116
 10
198.4375
 20
149.9616
  0
LWPOLYLINE
  5
61
100
AcDbEntity
  8
0
  6
ByLayer
 62
  256
370
   -1
100
AcDbPolyline
 90
   20
 70
    1
 43
0
 10
84.455
 20
151.8666
 10
84.455
 20
150.88616
 10
83.6422
 20
150.88616
 10
83.6422
 20
147.38604
 10
84.455
 20
147.38604
 10
84.455
 20
142.37716
 10
83.6422
 20
142.37716
 10
83.6422
 20
138.87704
 10
84.455
 20
138.87704
 10
84.455
 20
137.8966
 10
98.42500000000001
 20
137.8966
 10
98.42500000000001
 20
138.87704
 10
99.23779999999999
 20
138.87704
 10
99.23779999999999
 20
142.37716
 10
98.42500000000001
 20
142.37716
 10
98.42500000000001
 20
147.38604
 10
99.23779999999999
 20
147.38604
 10
99.23779999999999
 20
150.88616
 10
98.42500000000001
 20
150.88616
 10
98.42500000000001
 20
151.8666
  0
LWPOLYLINE
  5
62
100
AcDbEntity
  8
0
  6
ByLayer
 62
  256
370
   -1
100
AcDbPolyline
 90
   20
 70
    1
 43
0
 10
141.605
 20
134.08914
 10
141.605
 20
133.1087
 10
140.7922
 20
133.1087
 10
140.7922
 20
129.60858
 10
141.605
 20
129.60858
 10
141.605
 20
124.5997
 10
140.7922
 20
124.5997
 10
140.7922
 20
121.09958
 10
141.605
 20
121.09958
 10
141.605
 20
120.11914
 10
155.575
 20
120.11914
 10
155.575
 20
121.09958
 10
156.3878
 20
121.09958
 10
156.3878
 20
124.5997
 10
155.575
 20
124.5997
 10
155.575
 20
129.60858
 10
156.3878
 20
129.60858
 10
156.3878
 20
133.1087
 10
155.575
 20
133.1087
 10
155.575
 20
134.08914
  0
LWPOLYLINE
  5
63
100
AcDbEntity
  8
0
  6
ByLayer
 62
  256
370
   -1
100
AcDbPolyline
 90
   20
 70
    1
 43
0
 10
60.66028000000001
 20
39.58082000000001
 10
61.54928
 20
39.99738
 10
61.89218000000001
 20
39.26078
 10
65.06464
 20
40.73905999999999
 10
64.72174
 20
41.47566
 10
69.26071999999999
 20
43.59148
 10
69.60361999999999
 20
42.85488000000001
 10
72.77608000000002
 20
44.3357
 10
72.43318000000002
 20
45.07230000000001
 10
73.32218
 20
45.48632000000001
 10
67.41668
 20
58.14821999999999
 10
66.52768000000002
 20
57.73166000000001
 10
66.18478
 20
58.46826
 10
63.01232
 20
56.98998
 10
63.35522
 20
56.25338000000001
 10
58.81624000000001
 20
54.13756
 10
58.47334
 20
54.87416
 10
55.30088000000001
 20
53.39334
 10
55.64378000000001
 20
52.65674000000001
 10
54.75478000000001
 20
52.24272000000001
  0
LWPOLYLINE
  5
64
100
AcDbEntity
  8
0
  6
ByLayer
 62
  256
370
   -1
100
AcDbPolyline
 90
   20
 70
    1
 43
0
 10
77.92466000000002
 20
47.63262
 10
78.81366000000001
 20
48.04918000000001
 10
79.15656000000001
 20
47.31258
 10
82.32902000000001
 20
48.79086
 10
81.98612000000001
 20
49.52746
 10
86.52510000000002
 20
51.64328
 10
86.86800000000004
 20
50.90668
 10
90.04046000000004
 20
52.3875
 10
89.69756000000002
 20
53.12410000000001
 10
90.58655999999999
 20
53.53812000000001
 10
84.68106
 20
66.20002000000001
 10
83.79205999999999
 20
65.78345999999999
 10
83.44916000000001
 20
66.52006
 10
80.27670000000001
 20
65.04178
 10
80.61960000000001
 20
64.30518000000001
 10
76.08062000000002
 20
62.18936
 10
75.73772000000002
 20
62.92596
 10
72.56526000000002
 20
61.44514000000001
 10
72.90816000000002
 20
60.70854000000001
 10
72.01916
 20
60.29452000000001
  0
LWPOLYLINE
  5
65
100
AcDbEntity
  8
0
  6
ByLayer
 62
  256
370
   -1
100
AcDbPolyline
 90
   20
 70
    1
 43
0
 10
103.505
 20
76.93914000000002
 10
103.505
 20
75.95870000000002
 10
102.6922
 20
75.95870000000002
 10
102.6922
 20
72.45858
 10
103.505
 20
72.45858
 10
103.505
 20
67.44970000000001
 10
102.6922
 20
67.44970000000001
 10
102.6922
 20
63.94958
 10
103.505
 20
63.94958
 10
103.505
 20
62.96914000000001
 10
117.475
 20
62.96914000000001
 10
117.475
 20
63.94958
 10
118.2878
 20
63.94958
 10
118.2878
 20
67.44970000000001
 10
117.475
 20
67.44970000000001
 10
117.475
 20
72.45858
 10
118.2878
 20
72.45858
 10
118.2878
 20
75.95870000000002
 10
117.475
 20
75.95870000000002
 10
117.475
 20
76.93914000000002
  0
LWPOLYLINE
  5
66
100
AcDbEntity
  8
0
  6
ByLayer
 62
  256
370
   -1
100
AcDbPolyline
 90
   20
 70
    1
 43
0
 10
122.555
 20
78.5368
 10
122.555
 20
77.55636
 10
121.7422
 20
77.55636
 10
121.7422
 20
74.05624
 10
122.555
 20
74.05624
 10
122.555
 20
69.04736000000001
 10
121.7422
 20
69.04736000000001
 10
121.7422
 20
65.54724
 10
122.555
 20
65.54724
 10
122.555
 20
64.5668
 10
136.525
 20
64.5668
 10
136.525
 20
65.54724
 10
137.3378
 20
65.54724
 10
137.3378
 20
69.04736000000001
 10
136.525
 20
69.04736000000001
 10
136.525
 20
74.05624
 10
137.3378
 20
74.05624
 10
137.3378
 20
77.55636
 10
136.525
 20
77.55636
 10
136.525
 20
78.5368
  0
LWPOLYLINE
  5
67
100
AcDbEntity
  8
0
  6
ByLayer
 62
  256
370
   -1
100
AcDbPolyline
 90
   20
 70
    1
 43
0
 10
160.655
 20
73.76414
 10
160.655
 20
72.78370000000002
 10
159.8422
 20
72.78370000000002
 10
159.8422
 20
69.28358000000001
 10
160.655
 20
69.28358000000001
 10
160.655
 20
64.27470000000001
 10
159.8422
 20
64.27470000000001
 10
159.8422
 20
60.77458000000001
 10
160.655
 20
60.77458000000001
 10
160.655
 20
59.79414000000002
 10
174.625
 20
59.79414000000002
 10
174.625
 20
60.77458000000001
 10
175.4378
 20
60.77458000000001
 10
175.4378
 20
64.27470000000001
 10
174.625
 20
64.27470000000001
 10
174.625
 20
69.28358000000001
 10
175.4378
 20
69.28358000000001
 10
175.4378
 20
72.78370000000002
 10
174.625
 20
72.78370000000002
 10
174.625
 20
73.76414
  0
LWPOLYLINE
  5
68
100
AcDbEntity
  8
0
  6
ByLayer
 62
  256
370
   -1
100
AcDbPolyline
 90
   20
 70
    1
 43
0
 10
84.455
 20
94.71914
 10
84.455
 20
93.73869999999999
 10
83.6422
 20
93.73869999999999
 10
83.6422
 20
90.23858000000001
 10
84.455
 20
90.23858000000001
 10
84.455
 20
85.22970000000004
 10
83.6422
 20
85.22970000000004
 10
83.6422
 20
81.72958
 10
84.455
 20
81.72958
 10
84.455
 20
80.74914000000003
 10
98.42500000000001
 20
80.74914000000003
 10
98.42500000000001
 20
81.72958
 10
99.23779999999999
 20
81.72958
 10
99.23779999999999
 20
85.22970000000004
 10
98.42500000000001
 20
85.22970000000004
 10
98.42500000000001
 20
90.23858000000001
 10
99.23779999999999
 20
90.23858000000001
 10
99.23779999999999
 20
93.73869999999999
 10
98.42500000000001
 20
93.73869999999999
 10
98.42500000000001
 20
94.71914
  0
LWPOLYLINE
  5
69
100
AcDbEntity
  8
0
  6
ByLayer
 62
  256
370
   -1
100
AcDbPolyline
 90
   20
 70
    1
 43
0
 10
103.505
 20
95.98914000000002
 10
103.505
 20
95.0087
 10
102.6922
 20
95.0087
 10
102.6922
 20
91.50857999999999
 10
103.505
 20
91.50857999999999
 10
103.505
 20
86.49970000000002
 10
102.6922
 20
86.49970000000002
 10
102.6922
 20
82.99958000000004
 10
103.505
 20
82.99958000000004
 10
103.505
 20
82.01914000000002
 10
117.475
 20
82.01914000000002
 10
117.475
 20
82.99958000000004
 10
118.2878
 20
82.99958000000004
 10
118.2878
 20
86.49970000000002
 10
117.475
 20
86.49970000000002
 10
117.475
 20
91.50857999999999
 10
118.2878
 20
91.50857999999999
 10
118.2878
 20
95.0087
 10
117.475
 20
95.0087
 10
117.475
 20
95.98914000000002
  0
LWPOLYLINE
  5
6A
100
AcDbEntity
  8
0
  6
ByLayer
 62
  256
370
   -1
100
AcDbPolyline
 90
   20
 70
    1
 43
0
 10
122.555
 20
97.5868
 10
122.555
 20
96.60636
 10
121.7422
 20
96.60636
 10
121.7422
 20
93.10624000000001
 10
122.555
 20
93.10624000000001
 10
122.555
 20
88.09736000000004
 10
121.7422
 20
88.09736000000004
 10
121.7422
 20
84.59724
 10
122.555
 20
84.59724
 10
122.555
 20
83.61680000000001
 10
136.525
 20
83.61680000000001
 10
136.525
 20
84.59724
 10
137.3378
 20
84.59724
 10
137.3378
 20
88.09736000000004
 10
136.525
 20
88.09736000000004
 10
136.525
 20
93.10624000000001
 10
137.3378
 20
93.10624000000001
 10
137.3378
 20
96.60636
 10
136.525
 20
96.60636
 10
136.525
 20
97.5868
  0
LWPOLYLINE
  5
6B
100
AcDbEntity
  8
0
  6
ByLayer
 62
  256
370
   -1
100
AcDbPolyline
 90
   20
 70
    1
 43
0
 10
141.605
 20
95.98914000000002
 10
141.605
 20
95.0087
 10
140.7922
 20
95.0087
 10
140.7922
 20
91.50857999999999
 10
141.605
 20
91.50857999999999
 10
141.605
 20
86.49970000000002
 10
140.7922
 20
86.49970000000002
 10
140.7922
 20
82.99958000000004
 10
141.605
 20
82.99958000000004
 10
141.605
 20
82.01914000000002
 10
155.575
 20
82.01914000000002
 10
155.575
 20
82.99958000000004
 10
156.3878
 20
82.99958000000004
 10
156.3878
 20
86.49970000000002
 10
155.575
 20
86.49970000000002
 10
155.575
 20
91.50857999999999
 10
156.3878
 20
91.50857999999999
 10
156.3878
 20
95.0087
 10
155.575
 20
95.0087
 10
155.575
 20
95.98914000000002
  0
LWPOLYLINE
  5
6C
100
AcDbEntity
  8
0
  6
ByLayer
 62
  256
370
   -1
100
AcDbPolyline
 90
   20
 70
    1
 43
0
 10
160.655
 20
92.81414000000001
 10
160.655
 20
91.83370000000001
 10
159.8422
 20
91.83370000000001
 10
159.8422
 20
88.33358000000001
 10
160.655
 20
88.33358000000001
 10
160.655
 20
83.32470000000001
 10
159.8422
 20
83.32470000000001
 10
159.8422
 20
79.82458000000003
 10
160.655
 20
79.82458000000003
 10
160.655
 20
78.84414000000004
 10
174.625
 20
78.84414000000004
 10
174.625
 20
79.82458000000003
 10
175.4378
 20
79.82458000000003
 10
175.4378
 20
83.32470000000001
 10
174.625
 20
83.32470000000001
 10
174.625
 20
88.33358000000001
 10
175.4378
 20
88.33358000000001
 10
175.4378
 20
91.83370000000001
 10
174.625
 20
91.83370000000001
 10
174.625
 20
92.81414000000001
  0
LWPOLYLINE
  5
6D
100
AcDbEntity
  8
0
  6
ByLayer
 62
  256
370
   -1
100
AcDbPolyline
 90
   20
 70
    1
 43
0
 10
84.455
 20
113.76914
 10
84.455
 20
112.7887
 10
83.6422
 20
112.7887
 10
83.6422
 20
109.28858
 10
84.455
 20
109.28858
 10
84.455
 20
104.2797
 10
83.6422
 20
104.2797
 10
83.6422
 20
100.77958
 10
84.455
 20
100.77958
 10
84.455
 20
99.79913999999999
 10
98.42500000000001
 20
99.79913999999999
 10
98.42500000000001
 20
100.77958
 10
99.23779999999999
 20
100.77958
 10
99.23779999999999
 20
104.2797
 10
98.42500000000001
 20
104.2797
 10
98.42500000000001
 20
109.28858
 10
99.23779999999999
 20
109.28858
 10
99.23779999999999
 20
112.7887
 10
98.42500000000001
 20
112.7887
 10
98.42500000000001
 20
113.76914
  0
LWPOLYLINE
  5
6E
100
AcDbEntity
  8
0
  6
ByLayer
 62
  256
370
   -1
100
AcDbPolyline
 90
   20
 70
    1
 43
0
 10
103.505
 20
115.03914
 10
103.505
 20
114.0587
 10
102.6922
 20
114.0587
 10
102.6922
 20
110.55858
 10
103.505
 20
110.55858
 10
103.505
 20
105.5497
 10
102.6922
 20
105.5497
 10
102.6922
 20
102.04958
 10
103.505
 20
102.04958
 10
103.505
 20
101.06914
 10
117.475
 20
101.06914
 10
117.475
 20
102.04958
 10
118.2878
 20
102.04958
 10
118.2878
 20
105.5497
 10
117.475
 20
105.5497
 10
117.475
 20
110.55858
 10
118.2878
 20
110.55858
 10
118.2878
 20
114.0587
 10
117.475
 20
114.0587
 10
117.475
 20
115.03914
  0
LWPOLYLINE
  5
6F
100
AcDbEntity
  8
0
  6
ByLayer
 62
  256
370
   -1
100
AcDbPolyline
 90
   20
 70
    1
 43
0
 10
122.555
 20
116.6368
 10
122.555
 20
115.65636
 10
121.7422
 20
115.65636
 10
121.7422
 20
112.15624
 10
122.555
 20
112.15624
 10
122.555
 20
107.14736
 10
121.7422
 20
107.14736
 10
121.7422
 20
103.64724
 10
122.555
 20
103.64724
 10
122.555
 20
102.6668
 10
136.525
 20
102.6668
 10
136.525
 20
103.64724
 10
137.3378
 20
103.64724
 10
137.3378
 20
107.14736
 10
136.525
 20
107.14736
 10
136.525
 20
112.15624
 10
137.3378
 20
112.15624
 10
137.3378
 20
115.65636
 10
136.525
 20
115.65636
 10
136.525
 20
116.6368
  0
LWPOLYLINE
  5
70
100
AcDbEntity
  8
0
  6
ByLayer
 62
  256
370
   -1
100
AcDbPolyline
 90
   20
 70
    1
 43
0
 10
141.605
 20
115.03914
 10
141.605
 20
114.0587
 10
140.7922
 20
114.0587
 10
140.7922
 20
110.55858
 10
141.605
 20
110.55858
 10
141.605
 20
105.5497
 10
140.7922
 20
105.5497
 10
140.7922
 20
102.04958
 10
141.605
 20
102.04958
 10
141.605
 20
101.06914
 10
155.575
 20
101.06914
 10
155.575
 20
102.04958
 10
156.3878
 20
102.04958
 10
156.3878
 20
105.5497
 10
155.575
 20
105.5497
 10
155.575
 20
110.55858
 10
156.3878
 20
110.55858
 10
156.3878
 20
114.0587
 10
155.575
 20
114.0587
 10
155.575
 20
115.03914
  0
LWPOLYLINE
  5
71
100
AcDbEntity
  8
0
  6
ByLayer
 62
  256
370
   -1
100
AcDbPolyline
 90
   20
 70
    1
 43
0
 10
160.655
 20
111.86414
 10
160.655
 20
110.8837
 10
159.8422
 20
110.8837
 10
159.8422
 20
107.38358
 10
160.655
 20
107.38358
 10
160.655
 20
102.3747
 10
159.8422
 20
102.3747
 10
159.8422
 20
98.87457999999999
 10
160.655
 20
98.87457999999999
 10
160.655
 20
97.89413999999999
 10
174.625
 20
97.89413999999999
 10
174.625
 20
98.87457999999999
 10
175.4378
 20
98.87457999999999
 10
175.4378
 20
102.3747
 10
174.625
 20
102.3747
 10
174.625
 20
107.38358
 10
175.4378
 20
107.38358
 10
175.4378
 20
110.8837
 10
174.625
 20
110.8837
 10
174.625
 20
111.86414
  0
LWPOLYLINE
  5
72
100
AcDbEntity
  8
0
  6
ByLayer
 62
  256
370
   -1
100
AcDbPolyline
 90
   20
 70
    1
 43
0
 10
103.505
 20
134.08914
 10
103.505
 20
133.1087
 10
102.6922
 20
133.1087
 10
102.6922
 20
129.60858
 10
103.505
 20
129.60858
 10
103.505
 20
124.5997
 10
102.6922
 20
124.5997
 10
102.6922
 20
121.09958
 10
103.505
 20
121.09958
 10
103.505
 20
120.11914
 10
117.475
 20
120.11914
 10
117.475
 20
121.09958
 10
118.2878
 20
121.09958
 10
118.2878
 20
124.5997
 10
117.475
 20
124.5997
 10
117.475
 20
129.60858
 10
118.2878
 20
129.60858
 10
118.2878
 20
133.1087
 10
117.475
 20
133.1087
 10
117.475
 20
134.08914
  0
LWPOLYLINE
  5
73
100
AcDbEntity
  8
0
  6
ByLayer
 62
  256
370
   -1
100
AcDbPolyline
 90
   20
 70
    1
 43
0
 10
122.555
 20
135.6868
 10
122.555
 20
134.70636
 10
121.7422
 20
134.70636
 10
121.7422
 20
131.20624
 10
122.555
 20
131.20624
 10
122.555
 20
126.19736
 10
121.7422
 20
126.19736
 10
121.7422
 20
122.69724
 10
122.555
 20
122.69724
 10
122.555
 20
121.7168
 10
136.525
 20
121.7168
 10
136.525
 20
122.69724
 10
137.3378
 20
122.69724
 10
137.3378
 20
126.19736
 10
136.525
 20
126.19736
 10
136.525
 20
131.20624
 10
137.3378
 20
131.20624
 10
137.3378
 20
134.70636
 10
136.525
 20
134.70636
 10
136.525
 20
135.6868
  0
LWPOLYLINE
  5
74
100
AcDbEntity
  8
0
  6
ByLayer
 62
  256
370
   -1
100
AcDbPolyline
 90
   20
 70
    1
 43
0
 10
160.655
 20
130.91414
 10
160.655
 20
129.9337
 10
159.8422
 20
129.9337
 10
159.8422
 20
126.43358
 10
160.655
 20
126.43358
 10
160.655
 20
121.4247
 10
159.8422
 20
121.4247
 10
159.8422
 20
117.92458
 10
160.655
 20
117.92458
 10
160.655
 20
116.94414
 10
174.625
 20
116.94414
 10
174.625
 20
117.92458
 10
175.4378
 20
117.92458
 10
175.4378
 20
121.4247
 10
174.625
 20
121.4247
 10
174.625
 20
126.43358
 10
175.4378
 20
126.43358
 10
175.4378
 20
129.9337
 10
174.625
 20
129.9337
 10
174.625
 20
130.91414
  0
LWPOLYLINE
  5
75
100
AcDbEntity
  8
0
  6
ByLayer
 62
  256
370
   -1
100
AcDbPolyline
 90
   20
 70
    1
 43
0
 10
141.605
 20
76.93914000000002
 10
141.605
 20
75.95870000000002
 10
140.7922
 20
75.95870000000002
 10
140.7922
 20
72.45858
 10
141.605
 20
72.45858
 10
141.605
 20
67.44970000000001
 10
140.7922
 20
67.44970000000001
 10
140.7922
 20
63.94958
 10
141.605
 20
63.94958
 10
141.605
 20
62.96914000000001
 10
155.575
 20
62.96914000000001
 10
155.575
 20
63.94958
 10
156.3878
 20
63.94958
 10
156.3878
 20
67.44970000000001
 10
155.575
 20
67.44970000000001
 10
155.575
 20
72.45858
 10
156.3878
 20
72.45858
 10
156.3878
 20
75.95870000000002
 10
155.575
 20
75.95870000000002
 10
155.575
 20
76.93914000000002
  0
LWPOLYLINE
  5
76
100
AcDbEntity
  8
0
  6
ByLayer
 62
  256
370
   -1
100
AcDbPolyline
 90
   20
 70
    1
 43
0
 10
103.505
 20
153.13914
 10
103.505
 20
152.1587
 10
102.6922
 20
152.1587
 10
102.6922
 20
148.65858
 10
103.505
 20
148.65858
 10
103.505
 20
143.6497
 10
102.6922
 20
143.6497
 10
102.6922
 20
140.14958
 10
103.505
 20
140.14958
 10
103.505
 20
139.16914
 10
117.475
 20
139.16914
 10
117.475
 20
140.14958
 10
118.2878
 20
140.14958
 10
118.2878
 20
143.6497
 10
117.475
 20
143.6497
 10
117.475
 20
148.65858
 10
118.2878
 20
148.65858
 10
118.2878
 20
152.1587
 10
117.475
 20
152.1587
 10
117.475
 20
153.13914
  0
LWPOLYLINE
  5
77
100
AcDbEntity
  8
0
  6
ByLayer
 62
  256
370
   -1
100
AcDbPolyline
 90
   20
 70
    1
 43
0
 10
122.555
 20
154.7368
 10
122.555
 20
153.75636
 10
121.7422
 20
153.75636
 10
121.7422
 20
150.25624
 10
122.555
 20
150.25624
 10
122.555
 20
145.24736
 10
121.7422
 20
145.24736
 10
121.7422
 20
141.74724
 10
122.555
 20
141.74724
 10
122.555
 20
140.7668
 10
136.525
 20
140.7668
 10
136.525
 20
141.74724
 10
137.3378
 20
141.74724
 10
137.3378
 20
145.24736
 10
136.525
 20
145.24736
 10
136.525
 20
150.25624
 10
137.3378
 20
150.25624
 10
137.3378
 20
153.75636
 10
136.525
 20
153.75636
 10
136.525
 20
154.7368
  0
LWPOLYLINE
  5
78
100
AcDbEntity
  8
0
  6
ByLayer
 62
  256
370
   -1
100
AcDbPolyline
 90
   20
 70
    1
 43
0
 10
141.605
 20
153.13914
 10
141.605
 20
152.1587
 10
140.7922
 20
152.1587
 10
140.7922
 20
148.65858
 10
141.605
 20
148.65858
 10
141.605
 20
143.6497
 10
140.7922
 20
143.6497
 10
140.7922
 20
140.14958
 10
141.605
 20
140.14958
 10
141.605
 20
139.16914
 10
155.575
 20
139.16914
 10
155.575
 20
140.14958
 10
156.3878
 20
140.14958
 10
156.3878
 20
143.6497
 10
155.575
 20
143.6497
 10
155.575
 20
148.65858
 10
156.3878
 20
148.65858
 10
156.3878
 20
152.1587
 10
155.575
 20
152.1587
 10
155.575
 20
153.13914
  0
LWPOLYLINE
  5
79
100
AcDbEntity
  8
0
  6
ByLayer
 62
  256
370
   -1
100
AcDbPolyline
 90
   20
 70
    1
 43
0
 10
160.655
 20
149.9616
 10
160.655
 20
148.98116
 10
159.8422
 20
148.98116
 10
159.8422
 20
145.48104
 10
160.655
 20
145.48104
 10
160.655
 20
140.47216
 10
159.8422
 20
140.47216
 10
159.8422
 20
136.97204
 10
160.655
 20
136.97204
 10
160.655
 20
135.9916
 10
174.625
 20
135.9916
 10
174.625
 20
136.97204
 10
175.4378
 20
136.97204
 10
175.4378
 20
140.47216
 10
174.625
 20
140.47216
 10
174.625
 20
145.48104
 10
175.4378
 20
145.48104
 10
175.4378
 20
148.98116
 10
174.625
 20
148.98116
 10
174.625
 20
149.9616
  0
LWPOLYLINE
  5
7A
100
AcDbEntity
  8
0
  6
ByLayer
 62
  256
370
   -1
100
AcDbPolyline
 90
   20
 70
    1
 43
0
 10
42.67962
 20
78.14056000000004
 10
43.09618
 20
77.25156
 10
42.35958
 20
76.90866000000004
 10
43.83786000000001
 20
73.73620000000004
 10
44.57445999999999
 20
74.07910000000003
 10
46.69028
 20
69.54012
 10
45.95368000000002
 20
69.19722
 10
47.43450000000001
 20
66.02476
 10
48.1711
 20
66.36766
 10
48.58512000000001
 20
65.47865999999999
 10
61.24702000000001
 20
71.38416000000002
 10
60.83046
 20
72.27316
 10
61.56706000000002
 20
72.61606
 10
60.08878000000001
 20
75.78851999999999
 10
59.35218
 20
75.44561999999999
 10
57.23636
 20
79.9846
 10
57.97296
 20
80.3275
 10
56.49214000000001
 20
83.49996
 10
55.75554000000001
 20
83.15706
 10
55.34152
 20
84.04606000000003
  0
LWPOLYLINE
  5
7B
100
AcDbEntity
  8
0
  6
ByLayer
 62
  256
370
   -1
100
AcDbPolyline
 90
   20
 70
    1
 43
0
 10
25.41524
 20
70.0913
 10
25.8318
 20
69.20230000000002
 10
25.0952
 20
68.85940000000001
 10
26.57348
 20
65.68694000000001
 10
27.31008
 20
66.02984000000002
 10
29.4259
 20
61.49086
 10
28.6893
 20
61.14796
 10
30.17012
 20
57.9755
 10
30.90672
 20
58.3184
 10
31.32074
 20
57.4294
 10
43.98264
 20
63.3349
 10
43.56608
 20
64.2239
 10
44.30268000000001
 20
64.5668
 10
42.8244
 20
67.73926
 10
42.08780000000001
 20
67.39636
 10
39.97198
 20
71.93534000000002
 10
40.70858
 20
72.27824000000003
 10
39.22776
 20
75.4507
 10
38.49116000000001
 20
75.10780000000003
 10
38.07714
 20
75.99680000000002
  0
LWPOLYLINE
  5
7C
100
AcDbEntity
  8
0
  6
ByLayer
 62
  256
370
   -1
100
AcDbPolyline
 90
   20
 70
    1
 43
0
 10
41.5163
 20
35.56
 10
41.93286000000001
 20
34.671
 10
41.19626
 20
34.3281
 10
42.67454000000001
 20
31.15564
 10
43.41114
 20
31.49854000000001
 10
45.52696
 20
26.95956
 10
44.79036
 20
26.61666
 10
46.27118000000001
 20
23.4442
 10
47.00778
 20
23.7871
 10
47.4218
 20
22.8981
 10
60.0837
 20
28.8036
 10
59.66714000000001
 20
29.6926
 10
60.40374000000001
 20
30.0355
 10
58.92546
 20
33.20796000000001
 10
58.18886000000001
 20
32.86506
 10
56.07304000000001
 20
37.40404
 10
56.80964
 20
37.74694
 10
55.32882
 20
40.9194
 10
54.59222
 20
40.57650000000001
 10
54.1782
 20
41.46550000000002
  0
LWPOLYLINE
  5
7D
100
AcDbEntity
  8
0
  6
ByLayer
 62
  256
370
   -1
100
AcDbPolyline
 90
   20
 70
    1
 43
0
 10
33.4645
 20
52.82692
 10
33.88106000000001
 20
51.93792000000001
 10
33.14446
 20
51.59502000000001
 10
34.62274
 20
48.42256
 10
35.35934
 20
48.76546
 10
37.47516
 20
44.22648000000001
 10
36.73856
 20
43.88358
 10
38.21938
 20
40.71112
 10
38.95598
 20
41.05402000000001
 10
39.37
 20
40.16502000000002
 10
52.0319
 20
46.07052
 10
51.61534
 20
46.95952
 10
52.35194000000001
 20
47.30242000000001
 10
50.87366
 20
50.47488000000001
 10
50.13706000000002
 20
50.13198000000001
 10
48.02124000000001
 20
54.67096000000001
 10
48.75784
 20
55.01386
 10
47.27702
 20
58.18632
 10
46.54042000000001
 20
57.84341999999999
 10
46.1264
 20
58.73242
  0
LWPOLYLINE
  5
7E
100
AcDbEntity
  8
0
  6
ByLayer
 62
  256
370
   -1
100
AcDbPolyline
 90
   20
 70
    1
 43
0
 10
84.455
 20
132.81914
 10
84.455
 20
131.8387
 10
83.6422
 20
131.8387
 10
83.6422
 20
128.33858
 10
84.455
 20
128.33858
 10
84.455
 20
123.3297
 10
83.6422
 20
123.3297
 10
83.6422
 20
119.82958
 10
84.455
 20
119.82958
 10
84.455
 20
118.84914
 10
98.42500000000001
 20
118.84914
 10
98.42500000000001
 20
119.82958
 10
99.23779999999999
 20
119.82958
 10
99.23779999999999
 20
123.3297
 10
98.42500000000001
 20
123.3297
 10
98.42500000000001
 20
128.33858
 10
99.23779999999999
 20
128.33858
 10
99.23779999999999
 20
131.8387
 10
98.42500000000001
 20
131.8387
 10
98.42500000000001
 20
132.81914
  0
LWPOLYLINE
  5
7F
100
AcDbEntity
  8
0
  6
ByLayer
 62
  256
370
   -1
100
AcDbPolyline
 90
   20
 70
    1
 43
0
 10
179.705
 20
73.76414
 10
179.705
 20
72.78370000000002
 10
178.8922
 20
72.78370000000002
 10
178.8922
 20
69.28358000000001
 10
179.705
 20
69.28358000000001
 10
179.705
 20
64.27470000000001
 10
178.8922
 20
64.27470000000001
 10
178.8922
 20
60.77458000000001
 10
179.705
 20
60.77458000000001
 10
179.705
 20
59.79414000000002
 10
193.675
 20
59.79414000000002
 10
193.675
 20
60.77458000000001
 10
194.4878
 20
60.77458000000001
 10
194.4878
 20
64.27470000000001
 10
193.675
 20
64.27470000000001
 10
193.675
 20
69.28358000000001
 10
194.4878
 20
69.28358000000001
 10
194.4878
 20
72.78370000000002
 10
193.675
 20
72.78370000000002
 10
193.675
 20
73.76414
  0
LWPOLYLINE
  5
80
100
AcDbEntity
  8
0
  6
ByLayer
 62
  256
370
   -1
100
AcDbPolyline
 90
   20
 70
    1
 43
0
 10
65.405
 20
85.51164
 10
66.38544
 20
85.51164
 10
66.38544
 20
84.69884000000002
 10
69.88556
 20
84.69884000000002
 10
69.88556
 20
85.51164
 10
74.89444000000002
 20
85.51164
 10
74.89444000000002
 20
84.69884000000002
 10
78.39456000000001
 20
84.69884000000002
 10
78.39456000000001
 20
85.51164
 10
79.375
 20
85.51164
 10
79.375
 20
99.48164
 10
78.39456000000001
 20
99.48164
 10
78.39456000000001
 20
100.29444
 10
74.89444000000002
 20
100.29444
 10
74.89444000000002
 20
99.48164
 10
69.88556
 20
99.48164
 10
69.88556
 20
100.29444
 10
66.38544
 20
100.29444
 10
66.38544
 20
99.48164
 10
65.405
 20
99.48164
  0
LWPOLYLINE
  5
81
100
AcDbEntity
  8
0
  6
ByLayer
 62
  256
370
   -1
100
AcDbPolyline
 90
   20
 70
    1
 43
0
 10
65.405
 20
114.08664
 10
66.38544
 20
114.08664
 10
66.38544
 20
113.27384
 10
69.88556
 20
113.27384
 10
69.88556
 20
114.08664
 10
74.89444000000002
 20
114.08664
 10
74.89444000000002
 20
113.27384
 10
78.39456000000001
 20
113.27384
 10
78.39456000000001
 20
114.08664
 10
79.375
 20
114.08664
 10
79.375
 20
128.05664
 10
78.39456000000001
 20
128.05664
 10
78.39456000000001
 20
128.86944
 10
74.89444000000002
 20
128.86944
 10
74.89444000000002
 20
128.05664
 10
69.88556
 20
128.05664
 10
69.88556
 20
128.86944
 10
66.38544
 20
128.86944
 10
66.38544
 20
128.05664
 10
65.405
 20
128.05664
  0
ENDSEC
  0
SECTION
  2
OBJECTS
  0
DICTIONARY
  5
C
330
0
100
AcDbDictionary
281
    1
  3
ACAD_GROUP
350
D
  0
DICTIONARY
  5
D
330
C
100
AcDbDictionary
281
    1
  0
ENDSEC
  0
EOF
