0
SECTION
2
HEADER
9
$INSUNITS
70
4
9
$ACADVER
1
AC1014
9
$HANDSEED
5
FFFF
0
ENDSEC
0
SECTION
2
TABLES
0
TABLE
2
VPORT
5
8
100
AcDbSymbolTable
0
ENDTAB
0
TABLE
2
LTYPE
5
5
100
AcDbSymbolTable
0
LTYPE
5
14
100
AcDbSymbolTableRecord
100
AcDbLinetypeTableRecord
2
BYBLOCK
70
0
0
LTYPE
5
15
100
AcDbSymbolTableRecord
100
AcDbLinetypeTableRecord
2
BYLAYER
70
0
0
ENDTAB
0
TABLE
2
LAYER
5
2
100
AcDbSymbolTable
70
2
0
LAYER
5
50
100
AcDbSymbolTableRecord
100
AcDbLayerTableRecord
2
0
70
0
6
CONTINUOUS
0
ENDTAB
0
TABLE
2
STYLE
5
3
100
AcDbSymbolTable
70
1
0
STYLE
5
11
100
AcDbSymbolTableRecord
100
AcDbTextStyleTableRecord
2
STANDARD
70
0
0
ENDTAB
0
TABLE
2
VIEW
5
6
100
AcDbSymbolTable
70
0
0
ENDTAB
0
TABLE
2
UCS
5
7
100
AcDbSymbolTable
70
0
0
ENDTAB
0
TABLE
2
APPID
5
9
100
AcDbSymbolTable
70
2
0
APPID
5
12
100
AcDbSymbolTableRecord
100
AcDbRegAppTableRecord
2
ACAD
70
0
0
ENDTAB
0
TABLE
2
DIMSTYLE
5
A
100
AcDbSymbolTable
70
1
0
ENDTAB
0
TABLE
2
BLOCK_RECORD
5
1
100
AcDbSymbolTable
70
1
0
BLOCK_RECORD
5
1F
100
AcDbSymbolTableRecord
100
AcDbBlockTableRecord
2
*MODEL_SPACE
0
BLOCK_RECORD
5
1B
100
AcDbSymbolTableRecord
100
AcDbBlockTableRecord
2
*PAPER_SPACE
0
ENDTAB
0
ENDSEC
0
SECTION
2
BLOCKS
0
BLOCK
5
20
100
AcDbEntity
100
AcDbBlockBegin
2
*MODEL_SPACE
0
ENDBLK
5
21
100
AcDbEntity
100
AcDbBlockEnd
0
BLOCK
5
1C
100
AcDbEntity
100
AcDbBlockBegin
2
*PAPER_SPACE
0
ENDBLK
5
1D
100
AcDbEntity
100
AcDbBlockEnd
0
ENDSEC
0
SECTION
2
ENTITIES
0
LWPOLYLINE
5
100
100
AcDbEntity
8
0
100
AcDbPolyline
90
51
70
1
43
0.0
10
49.499277990806704
20
-34.308826896062655
10
65.131036529115832
20
-43.333826896062618
42
-0.41421356237307627
10
65.314049231008056
20
-44.016839597954842
10
51.776549231008111
20
-67.464477405418549
42
-0.41421356237307183
10
51.093536529115873
20
-67.647490107310773
10
35.632799601880237
20
-58.721229480501329
42
0.06554346281521839
10
35.150437692085333
20
-58.521428635492086
10
26.140744017954638
20
-56.10728849145697
10
17.131050343823958
20
-53.693148347421854
42
0.065543462815214087
10
16.613412253618915
20
-53.625
10
7.2858910000000021
20
-53.625
10
-1.4079699312157448
20
-53.625
42
-0.30111467390644114
10
-1.8683289334755193
20
-53.320114297370502
10
-9.8957800665244804
20
-34.379885702629494
42
0.30111467390643737
10
-10.356139068784254
20
-34.074999999999996
10
-19.050000000000001
20
-34.074999999999996
10
-28.574999999999999
20
-34.074999999999996
42
0.41421356237309509
10
-29.074999999999996
20
-34.574999999999996
10
-29.074999999999992
20
-45.57500000000001
42
-0.4142135623730977
10
-29.574999999999996
20
-46.07500000000001
10
-38.100000000000001
20
-46.07500000000001
10
-46.625000000000007
20
-46.07500000000001
42
-0.41421356237309509
10
-47.125
20
-45.57500000000001
10
-47.125
20
9.5749999999999957
42
-0.4142135623731002
10
-46.625000000000007
20
10.075000000000001
10
-38.100000000000001
20
10.075000000000001
10
-28.574999999999999
20
10.075000000000001
42
0.41421356237309637
10
-28.075000000000003
20
10.575000000000001
10
-28.075000000000003
20
21.575000000000006
42
-0.41421356237309509
10
-27.575000000000003
20
22.075000000000003
10
-19.050000000000001
20
22.075000000000003
10
-9.5249999999999986
20
22.075000000000003
42
0.41421356237309637
10
-9.0250000000000004
20
22.575000000000003
10
-9.0250000000000004
20
27.575000000000003
42
-0.41421356237309637
10
-8.5250000000000004
20
28.075000000000003
10
0
20
28.075000000000003
10
8.5250000000000021
20
28.075000000000003
42
-0.4142135623730957
10
9.0250000000000004
20
27.575000000000003
10
9.0250000000000004
20
22.075000000000003
42
0.41421356237309698
10
9.5250000000000021
20
21.575000000000006
10
19.050000000000004
20
21.575000000000006
10
27.575000000000003
20
21.575000000000006
42
-0.41421356237309509
10
28.075000000000003
20
21.07500000000001
10
28.075000000000003
20
19.57500000000001
42
0.41421356237309637
10
28.574999999999999
20
19.07500000000001
10
38.100000000000009
20
19.07500000000001
10
46.625000000000007
20
19.075000000000006
42
-0.41421356237309509
10
47.125
20
18.57500000000001
10
47.125
20
18.075000002500005
10
47.125
20
-32.360686589749783
42
0.26794919243112308
10
47.625
20
-33.226711993534224
0
CIRCLE
5
101
100
AcDbEntity
8
0
100
AcDbCircle
10
28.066999999999993
20
3.4289999999999998
30
0
40
1.0000000000000009
210
0
220
0
230
1
0
CIRCLE
5
102
100
AcDbEntity
8
0
100
AcDbCircle
10
-26.670000000000002
20
3.556
30
0
40
1
210
0
220
0
230
1
0
CIRCLE
5
103
100
AcDbEntity
8
0
100
AcDbCircle
10
-2.9209999999999958
20
-36.703000000000003
30
0
40
0.99999999999999967
210
0
220
0
230
1
0
CIRCLE
5
104
100
AcDbEntity
8
0
100
AcDbCircle
10
40.259
20
-46.735999999999997
30
0
40
1.0000000000000009
210
0
220
0
230
1
0
CIRCLE
5
105
100
AcDbEntity
8
0
100
AcDbCircle
10
-26.670000000000002
20
-15.494000000000002
30
0
40
0.99999999999999978
210
0
220
0
230
1
0
LWPOLYLINE
5
106
100
AcDbEntity
8
0
100
AcDbPolyline
90
8
70
1
43
0.0
10
-6.0000000000000009
20
-7.0000000000000018
42
-0.41421356237309637
10
-7.0000000000000009
20
-6.0000000000000018
10
-7.0000000000000009
20
5.9999999999999982
42
-0.41421356237309537
10
-6.0000000000000009
20
7.0000000000000018
10
6.0000000000000009
20
7.0000000000000018
42
-0.4142135623730947
10
7
20
6.0000000000000018
10
7.0000000000000009
20
-6.0000000000000044
42
-0.4142135623730937
10
6.0000000000000009
20
-7.0000000000000018
0
LWPOLYLINE
5
107
100
AcDbEntity
8
0
100
AcDbPolyline
90
8
70
1
43
0.0
10
-6.0000000000000009
20
12.050000000000001
42
-0.41421356237309698
10
-7.0000000000000009
20
13.050000000000001
10
-7.0000000000000009
20
25.049999999999997
42
-0.41421356237309598
10
-6.0000000000000009
20
26.050000000000004
10
6.0000000000000009
20
26.050000000000004
42
-0.4142135623730947
10
7
20
25.050000000000004
10
7.0000000000000009
20
13.049999999999997
42
-0.41421356237309337
10
6.0000000000000009
20
12.050000000000001
0
LWPOLYLINE
5
108
100
AcDbEntity
8
0
100
AcDbPolyline
90
8
70
1
43
0.0
10
-6.0000000000000009
20
-26.050000000000004
42
-0.41421356237309698
10
-7.0000000000000009
20
-25.050000000000004
10
-7.0000000000000009
20
-13.050000000000006
42
-0.41421356237309537
10
-6.0000000000000009
20
-12.050000000000001
10
6.0000000000000009
20
-12.050000000000001
42
-0.4142135623730947
10
7
20
-13.050000000000001
10
7.0000000000000009
20
-25.050000000000008
42
-0.41421356237309337
10
6.0000000000000009
20
-26.050000000000004
0
LWPOLYLINE
5
109
100
AcDbEntity
8
0
100
AcDbPolyline
90
8
70
1
43
0.0
10
1.2859999999999994
20
-51.600000000000001
42
-0.4142135623730957
10
0.28599999999999959
20
-50.600000000000009
10
0.28599999999999959
20
-38.600000000000001
42
-0.41421356237309598
10
1.2860000000000005
20
-37.599999999999994
10
13.286000000000001
20
-37.599999999999994
42
-0.41421356237309437
10
14.285999999999998
20
-38.600000000000001
10
14.285999999999996
20
-50.600000000000009
42
-0.41421356237309437
10
13.286000000000001
20
-51.600000000000001
0
LWPOLYLINE
5
110
100
AcDbEntity
8
0
100
AcDbPolyline
90
8
70
1
43
0.0
10
13.050000000000001
20
5.549999999999998
42
-0.41421356237309637
10
12.050000000000001
20
6.549999999999998
10
12.050000000000001
20
18.550000000000001
42
-0.4142135623730957
10
13.050000000000001
20
19.550000000000004
10
25.050000000000004
20
19.550000000000004
42
-0.41421356237309509
10
26.050000000000004
20
18.550000000000004
10
26.050000000000004
20
6.5499999999999972
42
-0.41421356237309409
10
25.050000000000004
20
5.5499999999999989
0
LWPOLYLINE
5
111
100
AcDbEntity
8
0
100
AcDbPolyline
90
8
70
1
43
0.0
10
13.050000000000001
20
-13.5
42
-0.41421356237309637
10
12.050000000000001
20
-12.5
10
12.050000000000001
20
-0.49999999999999939
42
-0.4142135623730957
10
13.050000000000001
20
0.50000000000000377
10
25.050000000000004
20
0.50000000000000488
42
-0.41421356237309509
10
26.050000000000004
20
-0.499999999999996
10
26.050000000000004
20
-12.500000000000002
42
-0.41421356237309437
10
25.050000000000004
20
-13.5
0
LWPOLYLINE
5
112
100
AcDbEntity
8
0
100
AcDbPolyline
90
8
70
1
43
0.0
10
13.050000000000001
20
-32.550000000000011
42
-0.41421356237309698
10
12.050000000000001
20
-31.550000000000004
10
12.050000000000001
20
-19.550000000000004
42
-0.4142135623730957
10
13.050000000000001
20
-18.550000000000001
10
25.050000000000004
20
-18.550000000000001
42
-0.41421356237309509
10
26.050000000000004
20
-19.550000000000001
10
26.050000000000004
20
-31.550000000000008
42
-0.4142135623730937
10
25.050000000000004
20
-32.550000000000004
0
LWPOLYLINE
5
113
100
AcDbEntity
8
0
100
AcDbPolyline
90
8
70
1
43
0.0
10
32.100000000000009
20
3.0500000000000007
42
-0.41421356237309698
10
31.100000000000001
20
4.049999999999998
10
31.100000000000001
20
16.050000000000001
42
-0.4142135623730957
10
32.100000000000001
20
17.050000000000004
10
44.100000000000001
20
17.050000000000011
42
-0.41421356237309509
10
45.100000000000009
20
16.050000000000004
10
45.099999999999994
20
4.0499999999999972
42
-0.41421356237309409
10
44.100000000000001
20
3.0499999999999994
0
LWPOLYLINE
5
114
100
AcDbEntity
8
0
100
AcDbPolyline
90
8
70
1
43
0.0
10
32.100000000000001
20
-16
42
-0.4142135623730977
10
31.100000000000001
20
-15
10
31.100000000000001
20
-3.0000000000000004
42
-0.4142135623730957
10
32.100000000000001
20
-1.9999999999999973
10
44.100000000000001
20
-1.9999999999999918
42
-0.41421356237309509
10
45.100000000000009
20
-2.9999999999999982
10
45.099999999999994
20
-15.000000000000004
42
-0.4142135623730937
10
44.100000000000001
20
-16
0
LWPOLYLINE
5
115
100
AcDbEntity
8
0
100
AcDbPolyline
90
8
70
1
43
0.0
10
32.100000000000001
20
-35.050000000000004
42
-0.4142135623730977
10
31.100000000000001
20
-34.050000000000004
10
31.100000000000001
20
-22.050000000000001
42
-0.41421356237309509
10
32.100000000000001
20
-21.050000000000001
10
44.100000000000001
20
-21.049999999999997
42
-0.41421356237309509
10
45.100000000000009
20
-22.050000000000001
10
45.099999999999994
20
-34.050000000000004
42
-0.4142135623730937
10
44.100000000000001
20
-35.050000000000004
0
LWPOLYLINE
5
116
100
AcDbEntity
8
0
100
AcDbPolyline
90
8
70
1
43
0.0
10
-25.049999999999997
20
6.0500000000000007
42
-0.41421356237309698
10
-26.050000000000004
20
7.0500000000000007
10
-26.050000000000004
20
19.050000000000001
42
-0.4142135623730957
10
-25.050000000000004
20
20.050000000000004
10
-13.050000000000001
20
20.049999999999997
42
-0.41421356237309509
10
-12.050000000000002
20
19.050000000000004
10
-12.050000000000001
20
7.0499999999999972
42
-0.41421356237309409
10
-13.050000000000001
20
6.0499999999999998
0
LWPOLYLINE
5
117
100
AcDbEntity
8
0
100
AcDbPolyline
90
8
70
1
43
0.0
10
-25.050000000000004
20
-13.000000000000004
42
-0.4142135623730977
10
-26.050000000000004
20
-12.000000000000002
10
-26.050000000000004
20
-2.281678389207683e-15
42
-0.4142135623730957
10
-25.050000000000004
20
1.0000000000000009
10
-13.050000000000001
20
0.99999999999999978
42
-0.41421356237309509
10
-12.050000000000002
20
0
10
-12.050000000000001
20
-12.000000000000007
42
-0.4142135623730937
10
-13.050000000000001
20
-13.000000000000004
0
LWPOLYLINE
5
118
100
AcDbEntity
8
0
100
AcDbPolyline
90
8
70
1
43
0.0
10
-25.050000000000004
20
-32.060000000000002
42
-0.4142135623730977
10
-26.050000000000004
20
-31.060000000000002
10
-26.050000000000004
20
-19.060000000000002
42
-0.4142135623730957
10
-25.050000000000004
20
-18.060000000000002
10
-13.050000000000001
20
-18.060000000000002
42
-0.41421356237309509
10
-12.050000000000002
20
-19.060000000000002
10
-12.050000000000001
20
-31.060000000000009
42
-0.4142135623730937
10
-13.050000000000001
20
-32.060000000000002
0
LWPOLYLINE
5
119
100
AcDbEntity
8
0
100
AcDbPolyline
90
8
70
1
43
0.0
10
-44.100000000000001
20
-24.999999999999996
42
-0.41421356237309509
10
-45.099999999999994
20
-24
10
-45.099999999999994
20
-11.999999999999996
42
-0.4142135623730957
10
-44.100000000000001
20
-10.999999999999995
10
-32.100000000000001
20
-10.999999999999996
42
-0.41421356237309509
10
-31.100000000000001
20
-11.999999999999993
10
-31.099999999999994
20
-24
42
-0.4142135623730937
10
-32.100000000000001
20
-25
0
LWPOLYLINE
5
120
100
AcDbEntity
8
0
100
AcDbPolyline
90
8
70
1
43
0.0
10
-44.100000000000001
20
-44.050000000000004
42
-0.41421356237309509
10
-45.099999999999994
20
-43.050000000000004
10
-45.099999999999994
20
-31.050000000000004
42
-0.41421356237309637
10
-44.100000000000001
20
-30.049999999999997
10
-32.100000000000001
20
-30.050000000000004
42
-0.41421356237309509
10
-31.100000000000001
20
-31.050000000000001
10
-31.099999999999994
20
-43.050000000000004
42
-0.41421356237309243
10
-32.100000000000001
20
-44.050000000000004
0
LWPOLYLINE
5
121
100
AcDbEntity
8
0
100
AcDbPolyline
90
8
70
1
43
0.0
10
20.872711726547941
20
-52.598566513408343
10
32.463821642016761
20
-55.704395054638603
42
0.41421356237309914
10
33.688566513408354
20
-54.99728827345205
10
36.794395054638599
20
-43.406178357983222
42
0.41421356237309509
10
36.08728827345206
20
-42.181433486591629
10
24.496178357983244
20
-39.075604945361377
42
0.41421356237309248
10
23.271433486591654
20
-39.782711726547923
10
20.165604945361398
20
-51.37382164201675
42
0.41421356237309215
0
LWPOLYLINE
5
122
100
AcDbEntity
8
0
100
AcDbPolyline
90
8
70
1
43
0.0
10
53.662177826491082
20
-60.146152422706649
10
59.662177826491089
20
-49.753847577293378
42
0.41421356237309509
10
59.296152422706633
20
-48.38782217350893
10
48.903847577293391
20
-42.387822173508951
42
0.41421356237309859
10
47.53782217350895
20
-42.753847577293378
10
41.537822173508943
20
-53.146152422706649
42
0.41421356237310086
10
41.903847577293391
20
-54.512177826491083
10
52.296152422706648
20
-60.512177826491097
42
0.41421356237310086
0
LWPOLYLINE
5
123
100
AcDbEntity
8
0
100
AcDbPolyline
90
8
70
1
43
0.0
10
-44.100000000000001
20
-5.9500000000000046
10
-32.100000000000001
20
-5.950000000000002
42
0.41421356237309298
10
-31.099999999999998
20
-4.9500000000000002
10
-31.100000000000001
20
7.0500000000000016
42
0.41421356237309309
10
-32.100000000000001
20
8.0500000000000007
10
-44.100000000000001
20
8.0500000000000025
42
0.41421356237309731
10
-45.099999999999994
20
7.0499999999999998
10
-45.099999999999994
20
-4.950000000000002
42
0.41421356237309653
0
ENDSEC
0
SECTION
2
OBJECTS
0
DICTIONARY
5
C
100
AcDbDictionary
3
ACAD_GROUP
350
D
3
ACAD_MLINESTYLE
350
17
0
DICTIONARY
5
D
100
AcDbDictionary
0
DICTIONARY
5
1A
330
C
100
AcDbDictionary
0
DICTIONARY
5
17
100
AcDbDictionary
0
ENDSEC
0
EOF
