<svg xmlns="http://www.w3.org/2000/svg" viewBox="0 0 751.68 566.2"><defs><style>.cls-1,.cls-2,.cls-4{fill:none;stroke:#000;}.cls-1,.cls-2{stroke-linecap:round;}.cls-1{stroke-miterlimit:11.34;}.cls-2{stroke-linejoin:round;}.cls-3{font-size:10px;font-family:FiraSansCondensed-Medium, Fira Sans Condensed;font-weight:500;}.cls-4{stroke-miterlimit:10;stroke-width:0.5px;}</style></defs><g id="Layer_2" data-name="Layer 2"><g id="main"><g id="absolem"><g id="absolem-2" data-name="absolem"><g id="absolem-3" data-name="absolem"><g id="svgGroup"><path class="cls-1" d="M146,316.39a5.7,5.7,0,0,0,7.3-3.42l31.41-86.79L200.92,232l0-4.27V202.23l-.08-45.33-7.88,0,8.92-24.63a5.33,5.33,0,0,1,3.15-3.43,5.21,5.21,0,0,1,2-.33l.22,0,40.87-.1,9,0,20.66-.07h13.82l.09,0a6.31,6.31,0,0,0,3.84-1.49l.16-.15L309.39,113a5.37,5.37,0,0,1,4-1.64l69.82-.15c.09,0,.22,0,.32,0a5.83,5.83,0,0,1,3.75,1.68l10.86,10.84h0c.09,0,.15.16.25.2a5.8,5.8,0,0,0,2.3,1.26,5.67,5.67,0,0,0,1.42.19l.1,0,35-.09c.09,0,.22,0,.31,0a5.84,5.84,0,0,1,3.76,1.67l13.29,13.22.1,0a5.69,5.69,0,0,1,1.63,4l0,10.94c0,.1,0,.1,0,.22.09,3,1.46,4.79,4.14,5.33a4.41,4.41,0,0,0,1,.15h0l45.39,3.88.19.07a5.91,5.91,0,0,1,3.65,2l12.13,14.38.09,0a5.59,5.59,0,0,1,1.29,4.08l-4.44,51.35L518,257.23l-2.84,33.11-1.79,20.51-4.44,51.36c0,.09,0,.09,0,.22a5.9,5.9,0,0,1-2,3.65l-14.39,12.13a5.25,5.25,0,0,1-4.08,1.29L419,373.58l-.19-.07a5.85,5.85,0,0,1-3.65-2l-21.65-25.7h0a.74.74,0,0,0-.31-.32,5.32,5.32,0,0,0-2.65-1.49l-1.32-.16-.1,0-56.72.11-11.7,0c-.1,0-.23,0-.32,0-3.23.11-4.94,1.61-5.24,4.48,0,.41-.05.73-.09,1.14l0,.09,0,34.9c0,.09,0,.22,0,.31a5.86,5.86,0,0,1-1.68,3.76l-13.22,13.29,0,.1a5.69,5.69,0,0,1-4,1.63l-53.3.07h0a5.47,5.47,0,0,0-2.58.66h0l-43.77,23.4h0a7.66,7.66,0,0,0-2,1.72h0l-29.76,44.32a5.39,5.39,0,0,1-3.63,2.41l-18.44,3.64c-.1,0-.13.06-.22,0a6,6,0,0,1-3-.33,5.33,5.33,0,0,1-1.06-.6l-70-47h0a6.24,6.24,0,0,0-1.16-.63,17.81,17.81,0,0,0-2-.52h0m154-54.35-18.69-35L165.42,360.1l18.69,35ZM485.05,236.81l3.35-39.52-39.52-3.35-3.35,39.52ZM475.9,344.1l3.35-39.52-39.52-3.35-3.35,39.52Zm-53.81-37.34-.09-39.7-39.71.09.1,39.7ZM368,185l-.09-39.7-39.7.1.09,39.7ZM260.57,315.52l-.09-39.71-39.71.1.1,39.7ZM368.26,292.7l-.09-39.7-39.7.09.09,39.71Zm-107.77-31-.1-39.7-39.7.1.1,39.7Zm-.08-53.84-.1-39.7-39.7.1.09,39.7Zm20.11,161.59-.1-39.7-39.7.09.1,39.71ZM422,252.92l-.1-39.71-39.7.1.1,39.7Zm-.08-53.85-.1-39.7H382.16l.1,39.71Zm-107.76,3V162.42l-39.7.09.09,39.7ZM166.35,409.25l-32.93-22.13-22.13,32.93,32.93,22.13ZM314.43,309.8l-.1-39.7-39.7.1.1,39.7Zm-.18-53.87-.09-39.7-39.7.09.09,39.7Zm53.84-17.1V199.16l-39.7.09.1,39.7Zm112.43,51.64L483.87,251l-39.52-3.35L441,287.12ZM467.8,365.3a3.6,3.6,0,1,1,2.16,4.61A3.65,3.65,0,0,1,467.8,365.3ZM444.72,169.89a3.59,3.59,0,0,1,4.61-2.16,3.65,3.65,0,0,1,2.16,4.61,3.59,3.59,0,0,1-4.61,2.16A3.64,3.64,0,0,1,444.72,169.89Zm-100-48.42a3.59,3.59,0,0,1,4.61-2.16,3.66,3.66,0,0,1,2.16,4.61,3.59,3.59,0,0,1-4.61,2.16A3.71,3.71,0,0,1,344.73,121.47Zm-107.62,20a3.59,3.59,0,0,1,4.61-2.16,3.66,3.66,0,0,1,2.16,4.61,3.59,3.59,0,0,1-4.61,2.16A3.52,3.52,0,0,1,237.11,141.44Zm62.72,221a3.59,3.59,0,0,1,4.61-2.16,3.64,3.64,0,0,1,2.16,4.61,3.59,3.59,0,0,1-4.61,2.16A3.73,3.73,0,0,1,299.83,362.48ZM123.49,456.59a3.57,3.57,0,0,1,4.61-2.16,3.65,3.65,0,0,1,2.16,4.61,3.6,3.6,0,1,1-6.77-2.45Zm61.22-146a3.59,3.59,0,0,1,4.61-2.16,3.64,3.64,0,0,1,2.16,4.61,3.58,3.58,0,0,1-4.61,2.16A3.66,3.66,0,0,1,184.71,310.61Z"/></g><line class="cls-2" x1="287.26" y1="236.12" x2="301.43" y2="236.12"/><line class="cls-2" x1="294.35" y1="243.21" x2="294.35" y2="229.04"/></g><text class="cls-3" transform="translate(4.01 465.99)">Absolem</text><line class="cls-4" x1="89.36" y1="446.06" x2="45.15" y2="461.83"/></g><rect id="border" class="cls-4" x="0.25" y="0.25" width="751.18" height="565.7"/></g></g></g></svg>