<svg xmlns="http://www.w3.org/2000/svg" viewBox="0 0 751.68 566.2"><defs><style>.cls-1,.cls-3{fill:none;stroke:#000;}.cls-1{stroke-linecap:round;stroke-linejoin:round;}.cls-2{font-size:10px;font-family:FiraSansCondensed-Medium, Fira Sans Condensed;font-weight:500;}.cls-3{stroke-miterlimit:10;stroke-width:0.5px;}</style></defs><g id="Layer_2" data-name="Layer 2"><g id="main"><g id="arch36"><g id="arch36-2" data-name="arch36"><g id="ARC"><path class="cls-1" d="M214.31,148.94a1.43,1.43,0,0,0-1,1.37"/></g><g id="ARC-2" data-name="ARC"><path class="cls-1" d="M479.78,156.55a443.77,443.77,0,0,0-265.47-7.61"/></g><g id="ARC-3" data-name="ARC"><path class="cls-1" d="M483.6,161.91a5.66,5.66,0,0,0-3.82-5.36"/></g><g id="POLYLINE"><line class="cls-1" x1="483.6" y1="161.91" x2="483.6" y2="365.11"/></g><g id="ARC-4" data-name="ARC"><path class="cls-1" d="M477.93,370.78a5.67,5.67,0,0,0,5.67-5.67"/></g><g id="POLYLINE-2" data-name="POLYLINE"><line class="cls-1" x1="477.93" y1="370.78" x2="334.92" y2="370.78"/></g><g id="ARC-5" data-name="ARC"><path class="cls-1" d="M334.92,370.78a205.19,205.19,0,0,0-145.09,60.1"/></g><g id="POLYLINE-3" data-name="POLYLINE"><line class="cls-1" x1="189.83" y1="430.88" x2="174.72" y2="445.98"/></g><g id="ARC-6" data-name="ARC"><path class="cls-1" d="M166.7,446a5.66,5.66,0,0,0,8,0"/></g><g id="POLYLINE-4" data-name="POLYLINE"><line class="cls-1" x1="166.7" y1="445.98" x2="131.48" y2="410.76"/></g><g id="ARC-7" data-name="ARC"><path class="cls-1" d="M131.48,408.76a1.4,1.4,0,0,0,0,2"/></g><g id="SPLINE"><path class="cls-1" d="M131.48,408.76l18.11-18.11"/></g><g id="SPLINE-2" data-name="SPLINE"><path class="cls-1" d="M149.59,390.65a260.57,260.57,0,0,1,62.18-46"/></g><g id="ARC-8" data-name="ARC"><path class="cls-1" d="M211.77,344.61a2.83,2.83,0,0,0,1.5-2.5"/></g><g id="SPLINE-3" data-name="SPLINE"><path class="cls-1" d="M213.27,342.11V150.31"/></g><g id="POLYLINE-5" data-name="POLYLINE"><rect class="cls-1" x="274.51" y="161.68" width="39.73" height="39.73"/></g><g id="POLYLINE-6" data-name="POLYLINE"><rect class="cls-1" x="220.44" y="168.44" width="39.73" height="39.73"/></g><g id="POLYLINE-7" data-name="POLYLINE"><rect class="cls-1" x="274.51" y="215.75" width="39.73" height="39.73"/></g><g id="POLYLINE-8" data-name="POLYLINE"><rect class="cls-1" x="220.44" y="222.51" width="39.73" height="39.73"/></g><g id="POLYLINE-9" data-name="POLYLINE"><rect class="cls-1" x="274.51" y="269.82" width="39.73" height="39.73"/></g><g id="POLYLINE-10" data-name="POLYLINE"><rect class="cls-1" x="220.44" y="276.57" width="39.73" height="39.73"/></g><g id="POLYLINE-11" data-name="POLYLINE"><rect class="cls-1" x="253.28" y="332.32" width="39.73" height="39.73" transform="translate(-81.84 82.7) rotate(-15)"/></g><g id="POLYLINE-12" data-name="POLYLINE"><rect class="cls-1" x="197.98" y="355.21" width="39.73" height="39.73" transform="translate(-158.35 159.18) rotate(-30)"/></g><g id="POLYLINE-13" data-name="POLYLINE"><rect class="cls-1" x="150.49" y="391.64" width="39.73" height="39.73" transform="translate(-241.08 240.98) rotate(-45)"/></g><g id="POLYLINE-14" data-name="POLYLINE"><rect class="cls-1" x="328.57" y="249.54" width="39.73" height="39.73"/></g><g id="POLYLINE-15" data-name="POLYLINE"><rect class="cls-1" x="328.57" y="195.47" width="39.73" height="39.73"/></g><g id="POLYLINE-16" data-name="POLYLINE"><rect class="cls-1" x="328.57" y="141.41" width="39.73" height="39.73"/></g><g id="POLYLINE-17" data-name="POLYLINE"><rect class="cls-1" x="382.64" y="263.06" width="39.73" height="39.73"/></g><g id="POLYLINE-18" data-name="POLYLINE"><rect class="cls-1" x="382.64" y="208.99" width="39.73" height="39.73"/></g><g id="POLYLINE-19" data-name="POLYLINE"><rect class="cls-1" x="382.64" y="154.92" width="39.73" height="39.73"/></g><g id="POLYLINE-20" data-name="POLYLINE"><rect class="cls-1" x="436.7" y="195.07" width="39.73" height="39.73"/></g><g id="POLYLINE-21" data-name="POLYLINE"><rect class="cls-1" x="436.7" y="249.13" width="39.73" height="39.73"/></g><g id="POLYLINE-22" data-name="POLYLINE"><rect class="cls-1" x="436.7" y="303.2" width="39.73" height="39.73"/></g><g id="CIRCLE"><path class="cls-1" d="M227.48,329.93a2.91,2.91,0,1,1,2.91,2.91,2.91,2.91,0,0,1-2.91-2.91Z"/></g><g id="CIRCLE-2" data-name="CIRCLE"><path class="cls-1" d="M432.94,296.28a2.91,2.91,0,1,1,2.91,2.9,2.91,2.91,0,0,1-2.91-2.9Z"/></g><g id="CIRCLE-3" data-name="CIRCLE"><path class="cls-1" d="M432.94,188.14a2.91,2.91,0,1,1,2.91,2.91,2.91,2.91,0,0,1-2.91-2.91Z"/></g><g id="CIRCLE-4" data-name="CIRCLE"><path class="cls-1" d="M226,215.54a2.91,2.91,0,1,1,2.91,2.91,2.91,2.91,0,0,1-2.91-2.91Z"/></g><text class="cls-2" transform="translate(467.07 510.54)">Arch 36</text><line class="cls-3" x1="469.38" y1="370.78" x2="471.2" y2="502.49"/><line class="cls-1" x1="287.26" y1="235.51" x2="301.43" y2="235.51"/><line class="cls-1" x1="294.35" y1="242.6" x2="294.35" y2="228.43"/></g><rect id="border" class="cls-3" x="0.25" y="0.25" width="751.18" height="565.7"/></g></g></g></svg>