<svg xmlns="http://www.w3.org/2000/svg" viewBox="0 0 751.68 566.2"><defs><style>.cls-1,.cls-2,.cls-4{fill:none;stroke:#000;}.cls-1,.cls-2{stroke-linecap:round;}.cls-2{stroke-linejoin:round;}.cls-3{font-size:10px;font-family:FiraSansCondensed-Medium, Fira Sans Condensed;font-weight:500;}.cls-4{stroke-miterlimit:10;stroke-width:0.5px;}</style></defs><g id="Layer_2" data-name="Layer 2"><g id="main"><g id="atreus"><g id="atreus-2" data-name="atreus"><path class="cls-1" d="M497.32,147.11a4.25,4.25,0,1,0-4.92,3.46,4.43,4.43,0,0,0,4.92-3.46Zm-.68,246.13a4.25,4.25,0,1,0-4.92,3.46,4.43,4.43,0,0,0,4.92-3.46ZM229.9,400a4.25,4.25,0,1,0-4.92,3.46A4.43,4.43,0,0,0,229.9,400ZM240.63,97.42a4.25,4.25,0,1,0-4.92,3.46,4.43,4.43,0,0,0,4.92-3.46ZM140.71,399l78.9,13.73a57.84,57.84,0,0,0,9.84.84l255.1-.6a28.36,28.36,0,0,0,28.28-28.41l-.54-230.46A28.32,28.32,0,0,0,488.8,126.2L197,75.44"/><path class="cls-1" d="M262.34,178.35l-44.22.1m44.22-.1.08,36.28m-44.3-36.18.08,36.28m0,0,44.22-.1m0,17.72-44.22.1m44.22-.1.09,36.28m-44.31-36.18.09,36.28m0,0,44.22-.1m0,17.72-44.22.1m44.22-.1.08,36.28m-44.3-36.18.08,36.28m0,0,44.22-.1m-94.26-9.82.1,44.22m-.1-44.22,36.28-.08M168.51,357l36.28-.08m0,0-.1-44.22m58,27.62-44.23.1m44.23-.1.08,36.28m-44.31-36.18.09,36.28m0,0,44.22-.1m53.88-50.58-44.22.1m44.22-.1.09,36.28m-44.31-36.18.09,36.28m0,0,44.22-.1m-.21-90.28-44.22.1m44.22-.1.08,36.28m-44.3-36.18.08,36.28m0,0,44.22-.1m-.21-90.28-44.22.1m44.22-.1.09,36.28m-44.31-36.18.08,36.28m0,0,44.23-.1m-.22-90.28-44.21.1m44.21-.1.09,36.28m-44.3-36.18.08,36.28m0,0,44.22-.1m53.87-53.42-44.21.11m44.21-.11.09,36.29M326.05,147l.08,36.28m0,0,44.22-.1m0,17.71-44.22.11m44.22-.11.09,36.29M326.17,201l.08,36.28m0,0,44.23-.1m0,17.71-44.22.1m44.22-.1.08,36.29M326.3,255l.08,36.29m0,0,44.22-.1m0,17.71-44.22.1m44.22-.1.09,36.29M326.42,309l.09,36.29m0,0,44.22-.1M424.68,323l-44.23.1m44.23-.1.08,36.29m-44.31-36.19.09,36.28m0,0,44.22-.09M424.55,269l-44.22.1m44.22-.1.08,36.28m-44.3-36.18.09,36.29m0,0,44.21-.11m-.2-90.28-44.23.1m44.23-.1.08,36.28M380.2,215.06l.09,36.28m0,0,44.22-.1M424.3,161l-44.22.1m44.22-.1.08,36.29m-44.3-36.19.08,36.28m0,0,44.22-.09m53.94-27.91-44.22.1m44.22-.1.08,36.28m-44.3-36.18.08,36.28m0,0,44.22-.1m0,17.72-44.22.1m44.22-.1.09,36.28m-44.31-36.18.09,36.28m0,0,44.22-.1m0,17.72-44.22.1m44.22-.1.08,36.28m-44.3-36.18.08,36.29m0,0,44.22-.11m.05,17.72-44.23.1m44.23-.1.08,36.28m-44.31-36.18.09,36.29m0,0,44.22-.11"/><line class="cls-2" x1="287.32" y1="236.19" x2="301.49" y2="236.19"/><line class="cls-2" x1="294.41" y1="243.27" x2="294.41" y2="229.1"/></g><text class="cls-3" transform="translate(421.08 547.78)">Atreus</text><line class="cls-4" x1="430.09" y1="538.83" x2="429.16" y2="412.91"/><rect id="border" class="cls-4" x="0.25" y="0.25" width="751.18" height="565.7"/></g></g></g></svg>