<svg xmlns="http://www.w3.org/2000/svg" viewBox="0 0 751.68 566.2"><defs><style>.cls-1,.cls-3,.cls-4{fill:none;stroke:#000;}.cls-1,.cls-4{stroke-linecap:round;}.cls-1{stroke-miterlimit:11.34;}.cls-2{font-size:10px;font-family:FiraSansCondensed-Medium, Fira Sans Condensed;font-weight:500;}.cls-3{stroke-miterlimit:10;stroke-width:0.5px;}.cls-4{stroke-linejoin:round;}</style></defs><g id="Layer_2" data-name="Layer 2"><g id="main"><g id="balbuzard"><g id="balbuzard-2" data-name="balbuzard"><g id="svgGroup"><path class="cls-1" d="M273.6,310.46l.08-40.82,40.82.08-.08,40.82-94.68-.18.08-40.82,40.82.08-.18,94.68-94.68-.18.08-40.82,40.82.08-.08,40.81M327.74,162,220,161.83,193.4,218.64l-28.24-13.23,26.63-56.81M166.92,364.12l-.1,53.86L126,417.9l.1-53.85-18,0L96.49,350.17M422.31,216.06,381.49,216l-.07,40.81,40.82.08.17-94.68-53.85-.09m66.78,62.48-.08,40.82,40.82.08.08-40.82-53.86-.1m12.88,86.19-53.86-.1.07-40.82,40.82.08-.07,40.82M368.59,142.26l-.07,40.82L327.7,183l.07-40.82ZM273.7,256.6l40.82.08.08-40.82-40.82-.07Zm161.46,62.67,40.82.08.08-40.82-40.82-.08ZM327.6,236.86l40.82.08.07-40.82L327.67,196ZM219.84,256.5l40.82.08.08-40.82-40.82-.07Zm256.24,7.85,53.86.1-.08,40.82-53.86-.1M327.5,290.72l.07-40.82,40.82.08-.08,40.82M260.84,161.9l-.08,40.82-40.82-.07.08-40.82m94.68.17-.08,40.82-40.82-.07.08-40.82M422.34,203,381.52,203l.08-40.82m-162,202.09.08-40.82,40.82.08m53.92-32.78,66.89.12m107.77-26.44L489,305.2m-322.15,72-40.82-.08"/></g><text class="cls-2" transform="translate(3.98 425.18)">Balbuzard</text><line class="cls-3" x1="126.06" y1="384.08" x2="48.05" y2="420.04"/></g><line class="cls-4" x1="287.06" y1="236.23" x2="301.24" y2="236.23"/><line class="cls-4" x1="294.15" y1="243.32" x2="294.15" y2="229.15"/><rect id="border" class="cls-3" x="0.25" y="0.25" width="751.18" height="565.7"/></g></g></g></svg>