<svg xmlns="http://www.w3.org/2000/svg" viewBox="0 0 751.68 566.2"><defs><style>.cls-1,.cls-3,.cls-4{fill:none;stroke:#000;}.cls-1,.cls-3{stroke-linecap:round;stroke-linejoin:round;}.cls-2{font-size:10px;font-family:FiraSansCondensed-Medium, Fira Sans Condensed;font-weight:500;}.cls-3,.cls-4{stroke-width:0.5px;}.cls-4{stroke-miterlimit:10;}</style></defs><g id="Layer_2" data-name="Layer 2"><g id="main"><g id="claw44"><g id="claw44-2" data-name="claw44"><g id="claw44-3" data-name="claw44"><circle class="cls-1" cx="117.87" cy="439.51" r="3.1"/><circle class="cls-1" cx="182.07" cy="423.41" r="3.1"/><circle class="cls-1" cx="345.27" cy="373.41" r="3.1"/><circle class="cls-1" cx="523.37" cy="392.21" r="3.1"/><circle class="cls-1" cx="523.37" cy="182.41" r="3.1"/><circle class="cls-1" cx="381.77" cy="166.51" r="3.1"/><circle class="cls-1" cx="227.67" cy="150.71" r="3.1"/><g id="frame"><path class="cls-1" d="M165.87,473.21a12.7,12.7,0,0,1-17.8,3.1h0L110.57,450a12.7,12.7,0,0,1-3.1-17.8h0l38.4-54.8a12.69,12.69,0,0,1,5-4.2h.1l55.4-25.9a9.82,9.82,0,0,0,5.7-9h0V147.91a12.82,12.82,0,0,1,12.8-12.8,5.7,5.7,0,0,1,1.3.1h0l301.3,31.7a12.79,12.79,0,0,1,11.5,12.7v215.5a12.82,12.82,0,0,1-12.8,12.8,5.7,5.7,0,0,1-1.3-.1v-.1L332,387.41v.1a168.61,168.61,0,0,0-155.7,70.9h0l-10.4,14.8"/></g><g id="key"><path class="cls-1" d="M200.37,359.81l16.6,35.6L181.37,412l-16.6-35.6Z"/><path class="cls-1" d="M124.17,448.91l32.2,22.5,22.5-32.2h.1l-32.2-22.5-22.5,32.2"/><path class="cls-1" d="M267,331.21l6.1,38.8-38.8,6.1-6.1-38.8Z"/><path class="cls-1" d="M336.37,339.21l-7.5,38.5-38.5-7.5,7.5-38.5Z"/><path class="cls-1" d="M490.87,370.51v-39.3h39.3v39.2h-39.3"/><path class="cls-1" d="M490.87,316.51v-39.3h39.3v39.2h-39.3"/><path class="cls-1" d="M490.87,262.51v-39.3h39.3v39.2h-39.3"/><path class="cls-1" d="M436.87,362v-39.3h39.3v39.2h-39.3"/><path class="cls-1" d="M436.87,308v-39.3h39.3v39.2h-39.3"/><path class="cls-1" d="M436.87,254v-39.3h39.3v39.2h-39.3"/><path class="cls-1" d="M382.87,325.11v-39.3h39.3v39.3Z"/><path class="cls-1" d="M382.87,271.11v-39.3h39.3v39.3Z"/><path class="cls-1" d="M382.87,217.11v-39.3h39.3v39.3Z"/><path class="cls-1" d="M328.87,307v-39.3h39.3V307Z"/><path class="cls-1" d="M328.87,253v-39.3h39.3V253Z"/><path class="cls-1" d="M328.87,199v-39.3h39.3V199Z"/><path class="cls-1" d="M274.87,309.81v-39.3h39.3v39.3Z"/><path class="cls-1" d="M274.87,255.81v-39.3h39.3v39.3Z"/><path class="cls-1" d="M274.87,201.81v-39.3h39.3v39.3Z"/><path class="cls-1" d="M220.87,312.71v-39.3h39.3v39.2h-39.3"/><path class="cls-1" d="M220.87,258.71v-39.3h39.3v39.2h-39.3"/><path class="cls-1" d="M220.87,204.71v-39.3h39.3v39.2h-39.3"/></g></g><line class="cls-1" x1="287.26" y1="236.13" x2="301.43" y2="236.13"/><line class="cls-1" x1="294.35" y1="243.22" x2="294.35" y2="229.04"/></g><text class="cls-2" transform="translate(3.98 479.59)">Claw44</text><line class="cls-3" x1="36.62" y1="475.87" x2="110.57" y2="450.01"/><rect id="border" class="cls-4" x="0.25" y="0.25" width="751.18" height="565.7"/></g></g></g></svg>