<svg xmlns="http://www.w3.org/2000/svg" viewBox="0 0 751.68 566.2"><defs><style>.cls-1,.cls-3{fill:none;stroke:#000;}.cls-1{stroke-linecap:round;stroke-linejoin:round;}.cls-2{font-size:10px;font-family:FiraSansCondensed-Medium, Fira Sans Condensed;font-weight:500;}.cls-3{stroke-miterlimit:10;stroke-width:0.5px;}</style></defs><g id="Layer_2" data-name="Layer 2"><g id="main"><g id="cornish_zen"><path class="cls-1" d="M534.47,170.25c3.23.4,5.11,3.18,5.11,6.45q-.14,74.81-.06,149.6a12.94,12.94,0,0,1-.33,3c-.59,2.59-2.12,4-4.72,4-1.74,0-3.48,0-5.23,0q-64.35,0-128.7,0c-4.12,0-8.24.12-12.37.11a2.9,2.9,0,0,0-2.44,1.59q-10.17,13.94-20.37,27.87l-9.06,12.36a4.8,4.8,0,0,1-3.48,1.9c-12.45,1.49-24.86,3.21-37.28,4.84q-13.67,1.78-27.34,3.53c-10.5,1.37-21,2.68-31.52,4-3.6.45-7.19,1.08-10.8,1.34-3.3.24-5.86,2-8.5,3.58-10.15,5.88-20.26,11.84-30.5,17.55-2.48,1.38-4.88,2.91-7.33,4.34a7.8,7.8,0,0,1-10.08-2.62c-3.93-6.76-7.91-13.5-11.72-20.35-3.91-7-8.09-13.95-12.15-20.91s-8.14-13.93-12.19-20.91c-1.88-3.23-3.63-6.55-5.61-9.73a14.35,14.35,0,0,1-2.06-7.85c0-32.28.08-64.56-.05-96.84,0-9.29-.2-18.58-.08-27.86.19-15.45.06-30.89.13-46.33,0-4.78,2.21-7,7-7,17.18,0,34.37.13,51.55,0,11.09-.11,22.18-.22,33.26-.1,25,.29,49.93,0,74.89.13a13,13,0,0,0,1.75-.11,2.78,2.78,0,0,0,2.48-2.12c1.17-3.21,2.08-4.35,6.4-4.36q24.9-.06,49.81,0c3.24,0,5,1.29,6.09,4.35.65,1.89,1.4,2.43,3.49,2.43,14.68,0,29.37.06,44.06,0,3.44,0,6.58,2.46,6.29,6.31a46,46,0,0,0,0,4.7c.05,2.15.79,2.86,3,3h.87c12.83,0,25.66-.14,38.49,0,19.74.27,39.48,0,59.22.14"/><g id="CIRCLE"><path class="cls-1" d="M204.4,164.45a1.49,1.49,0,1,1-1.49-1.49,1.49,1.49,0,0,1,1.49,1.49Z"/></g><g id="CIRCLE-2" data-name="CIRCLE"><path class="cls-1" d="M275.3,315.46a1.49,1.49,0,1,1-1.49-1.49,1.49,1.49,0,0,1,1.49,1.49Z"/></g><g id="LWPOLYLINE"><rect class="cls-1" x="175.52" y="343.54" width="41.71" height="41.71" rx="2.98" transform="translate(-155.89 147) rotate(-30)"/></g><g id="ELLIPSE"><path class="cls-1" d="M205.22,244.11a1,1,0,0,0,1.05-1.06"/></g><g id="LINE"><line class="cls-1" x1="205.22" y1="244.11" x2="159.66" y2="244.11"/></g><g id="ELLIPSE-2" data-name="ELLIPSE"><path class="cls-1" d="M158.6,243.05a1,1,0,0,0,1.06,1.06"/></g><g id="LINE-2" data-name="LINE"><line class="cls-1" x1="158.6" y1="243.05" x2="158.6" y2="175.27"/></g><g id="ELLIPSE-3" data-name="ELLIPSE"><path class="cls-1" d="M159.66,174.22a1,1,0,0,0-1.06,1.05"/></g><g id="LINE-3" data-name="LINE"><line class="cls-1" x1="159.66" y1="174.22" x2="205.22" y2="174.22"/></g><g id="ELLIPSE-4" data-name="ELLIPSE"><path class="cls-1" d="M206.27,175.27a1,1,0,0,0-1.05-1.05"/></g><g id="LINE-4" data-name="LINE"><line class="cls-1" x1="206.27" y1="175.27" x2="206.27" y2="243.05"/></g><g id="LWPOLYLINE-2" data-name="LWPOLYLINE"><rect class="cls-1" x="487.71" y="279.79" width="41.71" height="41.71" rx="2.98"/></g><g id="LWPOLYLINE-3" data-name="LWPOLYLINE"><rect class="cls-1" x="487.71" y="229.5" width="41.71" height="41.71" rx="2.98"/></g><g id="LWPOLYLINE-4" data-name="LWPOLYLINE"><rect class="cls-1" x="487.71" y="178.89" width="41.71" height="41.71" rx="2.98"/></g><g id="LWPOLYLINE-5" data-name="LWPOLYLINE"><rect class="cls-1" x="434.08" y="178.92" width="41.71" height="41.71" rx="2.98"/></g><g id="LWPOLYLINE-6" data-name="LWPOLYLINE"><rect class="cls-1" x="434.08" y="229.53" width="41.71" height="41.71" rx="2.98"/></g><g id="LWPOLYLINE-7" data-name="LWPOLYLINE"><rect class="cls-1" x="434.08" y="279.82" width="41.71" height="41.71" rx="2.98"/></g><g id="LWPOLYLINE-8" data-name="LWPOLYLINE"><rect class="cls-1" x="380.49" y="265.62" width="41.71" height="41.71" rx="2.98"/></g><g id="LWPOLYLINE-9" data-name="LWPOLYLINE"><rect class="cls-1" x="380.49" y="215.34" width="41.71" height="41.71" rx="2.98"/></g><g id="LWPOLYLINE-10" data-name="LWPOLYLINE"><rect class="cls-1" x="380.49" y="164.72" width="41.71" height="41.71" rx="2.98"/></g><g id="LWPOLYLINE-11" data-name="LWPOLYLINE"><rect class="cls-1" x="326.84" y="157.62" width="41.71" height="41.71" rx="2.98"/></g><g id="LWPOLYLINE-12" data-name="LWPOLYLINE"><rect class="cls-1" x="326.84" y="208.23" width="41.71" height="41.71" rx="2.98"/></g><g id="LWPOLYLINE-13" data-name="LWPOLYLINE"><rect class="cls-1" x="326.84" y="258.52" width="41.71" height="41.71" rx="2.98"/></g><g id="LWPOLYLINE-14" data-name="LWPOLYLINE"><rect class="cls-1" x="273.16" y="265.61" width="41.71" height="41.71" rx="2.98"/></g><g id="LWPOLYLINE-15" data-name="LWPOLYLINE"><rect class="cls-1" x="273.16" y="215.32" width="41.71" height="41.71" rx="2.98"/></g><g id="LWPOLYLINE-16" data-name="LWPOLYLINE"><rect class="cls-1" x="273.16" y="164.71" width="41.71" height="41.71" rx="2.98"/></g><g id="LWPOLYLINE-17" data-name="LWPOLYLINE"><rect class="cls-1" x="219.59" y="272.7" width="41.71" height="41.71" rx="2.98"/></g><g id="LWPOLYLINE-18" data-name="LWPOLYLINE"><rect class="cls-1" x="241.86" y="332.32" width="41.71" height="41.71" rx="2.98" transform="translate(-82.45 80.03) rotate(-15)"/></g><g id="LWPOLYLINE-19" data-name="LWPOLYLINE"><rect class="cls-1" x="304.49" y="324.09" width="41.71" height="41.71" rx="2.98"/></g><g id="LWPOLYLINE-20" data-name="LWPOLYLINE"><rect class="cls-1" x="219.59" y="171.8" width="41.71" height="41.71" rx="2.98"/></g><g id="LWPOLYLINE-21" data-name="LWPOLYLINE"><rect class="cls-1" x="219.59" y="222.41" width="41.71" height="41.71" rx="2.98"/></g><g id="LWPOLYLINE-22" data-name="LWPOLYLINE"><path class="cls-1" d="M150.26,159.11l169.8,0v-5.2a1.49,1.49,0,0,1,1.49-1.49l52.42,0a1.49,1.49,0,0,1,1.49,1.49v5.21l52.23,0a1.49,1.49,0,0,1,1.49,1.49v12.62l105.66,0a1.49,1.49,0,0,1,1.49,1.49V327.89a1.49,1.49,0,0,1-1.49,1.49H385l-31.54,43.26a1.49,1.49,0,0,1-1,.6L241.18,387.72,197.48,413a4.18,4.18,0,0,1-5.7-1.52l-42.33-73.2a5.14,5.14,0,0,1-.68-2.54V160.6A1.49,1.49,0,0,1,150.26,159.11Z"/></g><g id="LWPOLYLINE-23" data-name="LWPOLYLINE"><path class="cls-1" d="M191.78,411.45l-42.33-73.2a5.14,5.14,0,0,1-.68-2.54V160.6a1.49,1.49,0,0,1,1.49-1.49l169.8,0v-5.2a1.49,1.49,0,0,1,1.49-1.49l52.42,0a1.49,1.49,0,0,1,1.49,1.49v5.21l52.23,0a1.49,1.49,0,0,1,1.49,1.49v12.62l105.66,0a1.49,1.49,0,0,1,1.49,1.49V327.89a1.49,1.49,0,0,1-1.49,1.49H385l-31.54,43.26a1.49,1.49,0,0,1-1,.6L241.18,387.72,197.48,413A4.18,4.18,0,0,1,191.78,411.45Z"/></g><g id="ELLIPSE-5" data-name="ELLIPSE"><path class="cls-1" d="M158.6,243.05a1,1,0,0,0,1.06,1.06"/></g><g id="LINE-5" data-name="LINE"><line class="cls-1" x1="161.8" y1="240.96" x2="161.8" y2="177.37"/></g><g id="ELLIPSE-6" data-name="ELLIPSE"><path class="cls-1" d="M159.66,174.22a1,1,0,0,0-1.06,1.05"/></g><g id="LINE-6" data-name="LINE"><line class="cls-1" x1="161.71" y1="177.37" x2="203.16" y2="177.37"/></g><g id="ELLIPSE-7" data-name="ELLIPSE"><path class="cls-1" d="M206.27,175.27a1,1,0,0,0-1.05-1.05"/></g><g id="LINE-7" data-name="LINE"><line class="cls-1" x1="203.07" y1="177.37" x2="203.07" y2="240.96"/></g><g id="ELLIPSE-8" data-name="ELLIPSE"><path class="cls-1" d="M205.22,244.11a1,1,0,0,0,1.05-1.06"/></g><g id="LINE-8" data-name="LINE"><line class="cls-1" x1="203.16" y1="240.96" x2="161.71" y2="240.96"/></g><g id="LWPOLYLINE-24" data-name="LWPOLYLINE"><rect class="cls-1" x="219.59" y="171.8" width="41.71" height="41.71" rx="2.98"/></g><g id="LWPOLYLINE-25" data-name="LWPOLYLINE"><rect class="cls-1" x="219.59" y="222.41" width="41.71" height="41.71" rx="2.98"/></g><g id="LWPOLYLINE-26" data-name="LWPOLYLINE"><rect class="cls-1" x="219.59" y="272.7" width="41.71" height="41.71" rx="2.98"/></g><g id="LWPOLYLINE-27" data-name="LWPOLYLINE"><rect class="cls-1" x="175.52" y="343.54" width="41.71" height="41.71" rx="2.98" transform="translate(-155.89 147) rotate(-30)"/></g><g id="LWPOLYLINE-28" data-name="LWPOLYLINE"><rect class="cls-1" x="241.86" y="332.32" width="41.71" height="41.71" rx="2.98" transform="translate(-82.46 80.03) rotate(-15)"/></g><g id="LWPOLYLINE-29" data-name="LWPOLYLINE"><rect class="cls-1" x="304.49" y="324.09" width="41.71" height="41.71" rx="2.98"/></g><g id="LWPOLYLINE-30" data-name="LWPOLYLINE"><rect class="cls-1" x="273.16" y="164.71" width="41.71" height="41.71" rx="2.98"/></g><g id="LWPOLYLINE-31" data-name="LWPOLYLINE"><rect class="cls-1" x="273.16" y="215.32" width="41.71" height="41.71" rx="2.98"/></g><g id="LWPOLYLINE-32" data-name="LWPOLYLINE"><rect class="cls-1" x="273.16" y="265.61" width="41.71" height="41.71" rx="2.98"/></g><g id="LWPOLYLINE-33" data-name="LWPOLYLINE"><rect class="cls-1" x="326.84" y="258.52" width="41.71" height="41.71" rx="2.98"/></g><g id="LWPOLYLINE-34" data-name="LWPOLYLINE"><rect class="cls-1" x="326.84" y="208.23" width="41.71" height="41.71" rx="2.98"/></g><g id="LWPOLYLINE-35" data-name="LWPOLYLINE"><rect class="cls-1" x="326.84" y="157.62" width="41.71" height="41.71" rx="2.98"/></g><g id="LWPOLYLINE-36" data-name="LWPOLYLINE"><rect class="cls-1" x="380.49" y="164.72" width="41.71" height="41.71" rx="2.98"/></g><g id="LWPOLYLINE-37" data-name="LWPOLYLINE"><rect class="cls-1" x="380.49" y="215.34" width="41.71" height="41.71" rx="2.98"/></g><g id="LWPOLYLINE-38" data-name="LWPOLYLINE"><rect class="cls-1" x="380.49" y="265.62" width="41.71" height="41.71" rx="2.98"/></g><g id="LWPOLYLINE-39" data-name="LWPOLYLINE"><rect class="cls-1" x="434.08" y="279.82" width="41.71" height="41.71" rx="2.98"/></g><g id="LWPOLYLINE-40" data-name="LWPOLYLINE"><rect class="cls-1" x="487.71" y="279.79" width="41.71" height="41.71" rx="2.98"/></g><g id="LWPOLYLINE-41" data-name="LWPOLYLINE"><rect class="cls-1" x="487.71" y="229.5" width="41.71" height="41.71" rx="2.98"/></g><g id="LWPOLYLINE-42" data-name="LWPOLYLINE"><rect class="cls-1" x="434.08" y="229.53" width="41.71" height="41.71" rx="2.98"/></g><g id="LWPOLYLINE-43" data-name="LWPOLYLINE"><rect class="cls-1" x="434.08" y="178.92" width="41.71" height="41.71" rx="2.98"/></g><g id="LWPOLYLINE-44" data-name="LWPOLYLINE"><rect class="cls-1" x="487.71" y="178.89" width="41.71" height="41.71" rx="2.98"/></g><text class="cls-2" transform="translate(3.29 257.69)">Corne-ish Zen</text><line class="cls-3" x1="145.7" y1="278.32" x2="64.16" y2="256.31"/><line class="cls-1" x1="286.92" y1="236.19" x2="301.1" y2="236.19"/><line class="cls-1" x1="294.01" y1="243.27" x2="294.01" y2="229.1"/><rect id="border" class="cls-3" x="0.25" y="0.25" width="751.18" height="565.7"/></g></g></g></svg>