<svg xmlns="http://www.w3.org/2000/svg" viewBox="0 0 751.68 566.2"><defs><style>.cls-1,.cls-2,.cls-4{fill:none;stroke:#000;}.cls-1,.cls-4{stroke-miterlimit:10;}.cls-2{stroke-linecap:round;stroke-linejoin:round;}.cls-3{font-size:10px;font-family:FiraSansCondensed-Medium, Fira Sans Condensed;font-weight:500;}.cls-4{stroke-width:0.5px;}</style></defs><g id="Layer_2" data-name="Layer 2"><g id="main"><g id="corne"><g id="corne-2" data-name="corne"><g id="corne-3" data-name="corne"><g id="LWPOLYLINE"><path class="cls-1" d="M377.28,330.21a1.4,1.4,0,0,1,1-.42H534.83a1.43,1.43,0,0,0,1.43-1.42V171.11a1.43,1.43,0,0,0-1.43-1.43H429.52a1.41,1.41,0,0,1-1.42-1.42V157.59a1.43,1.43,0,0,0-1.43-1.43H375.44a1.42,1.42,0,0,1-1.43-1.42v-3.56a1.42,1.42,0,0,0-1.42-1.42H324.2a1.43,1.43,0,0,0-1.42,1.42v3.56a1.42,1.42,0,0,1-1.42,1.42H270.12a1.43,1.43,0,0,0-1.42,1.43v4.27a1.43,1.43,0,0,1-1.42,1.42H216a1.43,1.43,0,0,0-1.42,1.42V306.41a5.17,5.17,0,0,1-1.65,2.81l-54.29,31.42a3.83,3.83,0,0,0-1.09,4.84l37.67,65.57.05.06a2.48,2.48,0,0,0,3.46.6l42-24.17a5.51,5.51,0,0,1,.8-.2l104.72-15.57a1.76,1.76,0,0,0,1-.42Z"/></g><g id="CIRCLE"><path class="cls-2" d="M270.35,212.38a3.13,3.13,0,1,0-3.13,3.13,3.13,3.13,0,0,0,3.13-3.13Z"/></g><g id="CIRCLE-2" data-name="CIRCLE"><path class="cls-2" d="M486.72,222.69a3.13,3.13,0,1,0-3.13,3.13,3.13,3.13,0,0,0,3.13-3.13Z"/></g><g id="CIRCLE-3" data-name="CIRCLE"><path class="cls-2" d="M486.75,276.81a3.14,3.14,0,1,0-3.13,3.13,3.13,3.13,0,0,0,3.13-3.13Z"/></g><g id="CIRCLE-4" data-name="CIRCLE"><path class="cls-2" d="M231.24,347.57a3.13,3.13,0,1,0-3.13,3.14,3.13,3.13,0,0,0,3.13-3.14Z"/></g><g id="CIRCLE-5" data-name="CIRCLE"><path class="cls-2" d="M363.64,325.5a3.13,3.13,0,1,0-3.13,3.13,3.13,3.13,0,0,0,3.13-3.13Z"/></g><g id="LWPOLYLINE-2" data-name="LWPOLYLINE"><rect class="cls-2" x="490.94" y="175.92" width="39.42" height="39.42"/></g><g id="LWPOLYLINE-3" data-name="LWPOLYLINE"><rect class="cls-2" x="490.94" y="230" width="39.42" height="39.42"/></g><g id="LWPOLYLINE-4" data-name="LWPOLYLINE"><rect class="cls-2" x="490.94" y="284.08" width="39.42" height="39.42"/></g><g id="LWPOLYLINE-5" data-name="LWPOLYLINE"><rect class="cls-2" x="436.86" y="175.92" width="39.42" height="39.42"/></g><g id="LWPOLYLINE-6" data-name="LWPOLYLINE"><rect class="cls-2" x="436.86" y="230" width="39.42" height="39.42"/></g><g id="LWPOLYLINE-7" data-name="LWPOLYLINE"><rect class="cls-2" x="436.86" y="284.08" width="39.42" height="39.42"/></g><g id="LWPOLYLINE-8" data-name="LWPOLYLINE"><rect class="cls-2" x="382.78" y="162.4" width="39.42" height="39.42"/></g><g id="LWPOLYLINE-9" data-name="LWPOLYLINE"><rect class="cls-2" x="382.78" y="216.48" width="39.42" height="39.42"/></g><g id="LWPOLYLINE-10" data-name="LWPOLYLINE"><rect class="cls-2" x="382.78" y="270.56" width="39.42" height="39.42"/></g><g id="LWPOLYLINE-11" data-name="LWPOLYLINE"><rect class="cls-2" x="328.7" y="155.64" width="39.42" height="39.42"/></g><g id="LWPOLYLINE-12" data-name="LWPOLYLINE"><rect class="cls-2" x="328.7" y="209.72" width="39.42" height="39.42"/></g><g id="LWPOLYLINE-13" data-name="LWPOLYLINE"><rect class="cls-2" x="328.7" y="263.8" width="39.42" height="39.42"/></g><g id="LWPOLYLINE-14" data-name="LWPOLYLINE"><rect class="cls-2" x="274.62" y="162.4" width="39.42" height="39.42"/></g><g id="LWPOLYLINE-15" data-name="LWPOLYLINE"><rect class="cls-2" x="274.62" y="216.48" width="39.42" height="39.42"/></g><g id="LWPOLYLINE-16" data-name="LWPOLYLINE"><rect class="cls-2" x="274.62" y="270.56" width="39.42" height="39.42"/></g><g id="LWPOLYLINE-17" data-name="LWPOLYLINE"><rect class="cls-2" x="220.54" y="169.16" width="39.42" height="39.42"/></g><g id="LWPOLYLINE-18" data-name="LWPOLYLINE"><rect class="cls-2" x="220.54" y="223.24" width="39.42" height="39.42"/></g><g id="LWPOLYLINE-19" data-name="LWPOLYLINE"><rect class="cls-2" x="220.54" y="277.32" width="39.42" height="39.42"/></g><g id="LWPOLYLINE-20" data-name="LWPOLYLINE"><rect class="cls-2" x="301.66" y="326.42" width="39.42" height="39.42"/></g><g id="LWPOLYLINE-21" data-name="LWPOLYLINE"><rect class="cls-2" x="241.87" y="334.25" width="39.42" height="39.42" transform="translate(-82.42 79.41) rotate(-14.94)"/></g><g id="LWPOLYLINE-22" data-name="LWPOLYLINE"><rect class="cls-2" x="178.54" y="344.9" width="39.42" height="39.42" transform="translate(-155.6 147.73) rotate(-29.96)"/></g></g><line class="cls-2" x1="287.24" y1="236.19" x2="301.42" y2="236.19"/><line class="cls-2" x1="294.33" y1="243.27" x2="294.33" y2="229.1"/></g><text class="cls-3" transform="translate(3.29 184.27)">Corne</text><line class="cls-4" x1="214.62" y1="185.01" x2="31.53" y2="180.71"/><rect id="border" class="cls-4" x="0.25" y="0.25" width="751.18" height="565.7"/></g></g></g></svg>