<svg xmlns="http://www.w3.org/2000/svg" viewBox="0 0 751.68 566.2"><defs><style>.cls-1,.cls-3,.cls-4{fill:none;stroke:#000;}.cls-1{stroke-miterlimit:11.34;}.cls-2{font-size:10px;font-family:FiraSansCondensed-Medium, Fira Sans Condensed;font-weight:500;}.cls-3{stroke-miterlimit:10;stroke-width:0.5px;}.cls-4{stroke-linecap:round;stroke-linejoin:round;}</style></defs><g id="Layer_2" data-name="Layer 2"><g id="main"><g id="darknight"><g id="darknight-2" data-name="darknight"><path class="cls-1" d="M568.18,384.31a14.82,14.82,0,0,0,9.48-10.53c1.54-3.11-.45-269,.31-272.24a16.3,16.3,0,0,0-2.7-8.33,16.39,16.39,0,0,0-7.09-5.15c-2.54-1.78-406.9,0-409.8-.61A14.61,14.61,0,0,0,146,98.6c-1.53,3.1.45,269-.31,272.24l.31,2.94a14.16,14.16,0,0,0,12.38,11.15C161.28,384.33,565.64,386.09,568.18,384.31ZM160.29,106.78l-1-2.4,1-2.41,2.41-1,2.4,1,1,2.41-1,2.4-2.4,1Zm398.27,0-1-2.4,1-2.41,2.41-1,2.4,1,1,2.41-1,2.4-2.4,1ZM274.67,148.31V108.63h39.68v39.68Zm53.85,0V108.63h39.69v39.68Zm-107.71,0V108.63h39.68v39.68Zm161.57,0V108.63h39.69v39.68Zm53.86,0V108.63h39.69v39.68Zm53.86,0V108.63h39.68v39.68ZM152.78,309.89V121.38h53.85V309.89ZM274.67,202.17V162.49h39.68v39.68Zm-53.86,0V162.49h39.68v39.68Zm215.43,0V162.49h39.69v39.68Zm67.32,0V162.49h39.69v39.68Zm-175,0V162.49h39.69v39.68Zm53.86,0V162.49h39.69v39.68ZM436.24,256V216.35h39.69V256Zm-107.72,0V216.35h39.69V256Zm-53.85,0V216.35h39.68V256Zm-53.86,0V216.35h39.68V256Zm161.57,0V216.35h39.69V256Zm127.92,0V216.35H550V256ZM274.67,309.89V270.2h39.68v39.69Zm161.57,0V270.2h39.69v39.69Zm67.32,0V270.2h39.69v39.69Zm-121.18,0V270.2h39.69v39.69Zm-161.57,0V270.2h39.68v39.69Zm107.71,0V270.2h39.69v39.69Zm53.86,53.86V324.06h39.69v39.69Zm53.86,0V324.06h39.69v39.69Zm60.59,0V324.06h39.69v39.69Zm-228.9,0V324.06h39.69v39.69Zm-74.05,0V324.06h39.68v39.69Zm134.64,0V324.06h39.69v39.69ZM160.29,370.4l-1-2.4,1-2.41,2.41-1,2.4,1,1,2.41-1,2.4-2.4,1Zm398.27,0-1-2.4,1-2.41,2.41-1,2.4,1,1,2.41-1,2.4-2.4,1Z"/><text class="cls-2" transform="translate(510.72 484.28)">Darknight</text><line class="cls-3" x1="513.89" y1="385.08" x2="513.89" y2="475.33"/></g><line class="cls-4" x1="287.42" y1="236.19" x2="301.6" y2="236.19"/><line class="cls-4" x1="294.51" y1="243.27" x2="294.51" y2="229.1"/><rect id="border" class="cls-3" x="0.25" y="0.25" width="751.18" height="565.7"/></g></g></g></svg>