<svg xmlns="http://www.w3.org/2000/svg" viewBox="0 0 751.68 566.2"><defs><style>.cls-1,.cls-3{fill:none;stroke:#000;}.cls-1{stroke-linecap:round;stroke-linejoin:round;}.cls-2{font-size:10px;font-family:FiraSansCondensed-Medium, Fira Sans Condensed;font-weight:500;}.cls-3{stroke-miterlimit:10;stroke-width:0.5px;}.cls-4{font-size:16px;font-family:Exo2-Regular, "Exo 2";}</style></defs><g id="Layer_2" data-name="Layer 2"><g id="main"><g id="dracuLad"><g id="dracuLad-2" data-name="dracuLad"><path class="cls-1" d="M192.23,411.51l30.93,25.55m-26.11,31.5,26.11-31.5m-57,5.95,30.93,25.55M166.12,443l26.11-31.51m-51,6.31a11.91,11.91,0,0,0-1.51,11.3M276,407.83,241.05,427.7M276,407.82,255.8,372.91M220.61,392.5l20.44,35.2m-20.44-35.21,35.19-19.58m-43.14-39.18,17.59,30.09m0,0-30.93,17.89m0,0-17.6-30.09m0,0,30.94-17.89m85.16,71L337,397.88m0,0-6.53-39.46m0,0L291,365.53m0,0,6.82,39.17M220.33,279.09h39.74m-39.75,39.74V279.09m39.75,0v39.75m0,0H220.32m0-94h39.74m-39.75,39.73V224.88m39.75,0v39.73m0,0H220.32m.3-93.67h39.73m-39.74,39.73V171m39.74,0v39.73m0,0H220.61m53.94,59.61h39.73M274.54,310V270.3m39.74,0V310m0,0H274.54m0-93.67h39.73M274.54,256.1V216.37m39.74,0v39.73m0,0H274.54m0-93.67h39.73m-39.74,39.73V162.44m39.74,0v39.73m0,0H274.54m53.94,48.54h39.73m-39.74,39.74V250.71m39.74,0v39.74m0,0H328.47m.29-93.95H368.5m-39.75,39.73V196.5m39.75,0v39.73m0,0H328.75m0-93.66H368.5M328.75,182.3V142.57m39.75,0V182.3m0,0H328.75m54.08,85.17h39.74M382.83,307.2V267.47m39.74,0V307.2m0,0H382.83m0-93.68h39.74m-39.74,39.74V213.52m39.74,0v39.73m0,0H382.83m0-93.68h39.74m-39.74,39.74V159.59m39.74,0v39.75m0,0H382.83m93.66,141.92H436.76m0,0V301.53m0,0h39.73m0,0v39.73m-39.73-53.93h-.71m0,0V246.88m0,0h.71m39.73,0v40.44m0,0H436.76m0-40.45h39.73m0-53.92V233.4m0,0H436.05m0,0V193m0,0h40.44m-307,159.79a7.79,7.79,0,0,0-.21,7.68m.21-7.68,43.08-25m0,0L213.13,162m-43.9,198.43,14.54,27m-4.6,14.13a9.43,9.43,0,0,0,4.6-14.13m-4.6,14.13-38,16.25M483.46,352.3A167,167,0,0,0,358.7,411.5m0,0a174.39,174.39,0,0,0-19.52-1.08,178.33,178.33,0,0,0-140.5,68.51m-59-49.81a126.73,126.73,0,0,0,59,49.81M483.47,352.3l.13-168.87m0,0A266,266,0,0,0,213.13,162"/><line class="cls-1" x1="287.26" y1="236.13" x2="301.43" y2="236.13"/><line class="cls-1" x1="294.34" y1="243.22" x2="294.34" y2="229.04"/><text class="cls-2" transform="translate(65.18 547.93)">DracuLad</text><line class="cls-3" x1="162.05" y1="455.79" x2="93.76" y2="537.25"/></g><text class="cls-4" transform="matrix(0.99, -0.16, 0.16, 0.99, 310.62, 387.27)">R</text><text class="cls-4" transform="translate(203.33 364.31) rotate(-28.45)">R</text><rect id="border" class="cls-3" x="0.25" y="0.25" width="751.18" height="565.7"/></g></g></g></svg>