<svg xmlns="http://www.w3.org/2000/svg" viewBox="0 0 751.68 566.2"><defs><style>.cls-1,.cls-3,.cls-4{fill:none;stroke:#000;}.cls-1,.cls-3{stroke-linecap:round;stroke-linejoin:round;}.cls-2{font-size:10px;font-family:FiraSansCondensed-Medium, Fira Sans Condensed;font-weight:500;}.cls-3,.cls-4{stroke-width:0.5px;}.cls-4{stroke-miterlimit:10;}</style></defs><g id="Layer_2" data-name="Layer 2"><g id="main"><g id="dygma_raise"><g id="dygma"><g id="dygma-2" data-name="dygma"><g id="metal"><polyline class="cls-1" points="199.31 160.12 199.41 159.21 199.62 158.4 200.02 157.59 200.63 156.88 201.24 156.37 202.04 155.97 202.85 155.66 203.77 155.56"/><polyline class="cls-1" points="226.04 321.51 226.04 320.7 226.35 319.79 226.75 318.98 227.26 318.37 227.97 317.76 228.67 317.36 229.59 317.06 230.4 316.95"/><polyline class="cls-1" points="225.94 150.09 225.94 149.99 226.04 149.99 226.04 149.89 226.04 149.79"/><polyline class="cls-1" points="220.98 154.95 221.99 154.75 222.9 154.55 223.71 154.04 224.42 153.43 225.03 152.72 225.54 151.91 225.84 151 225.94 150.09"/><polyline class="cls-1" points="239.61 311.89 239.61 311.89 239.61 311.79 239.61 311.69 239.61 311.59"/><polyline class="cls-1" points="234.65 316.75 235.56 316.65 236.47 316.35 237.38 315.94 238.09 315.33 238.7 314.63 239.21 313.82 239.51 312.9 239.61 311.89"/><line class="cls-1" x1="225.74" y1="431.17" x2="226.04" y2="431.17"/><line class="cls-1" x1="226.04" y1="431.17" x2="226.04" y2="321.51"/><polyline class="cls-1" points="226.04 321.51 226.04 320.7 226.35 319.79 226.75 318.98 227.26 318.37 227.97 317.76 228.67 317.36 229.59 317.06 230.4 316.95"/><line class="cls-1" x1="230.4" y1="316.96" x2="234.65" y2="316.75"/><polyline class="cls-1" points="234.65 316.75 235.66 316.65 236.57 316.35 237.38 315.84 238.19 315.23 238.8 314.42 239.21 313.61 239.51 312.6 239.61 311.59"/><line class="cls-1" x1="239.61" y1="311.59" x2="239.61" y2="268.56"/><polyline class="cls-1" points="239.61 268.56 239.51 267.65 239.21 266.63 238.8 265.82 238.19 265.01 237.38 264.41 236.57 263.9 235.66 263.6 234.65 263.39"/><line class="cls-1" x1="234.65" y1="263.39" x2="217.33" y2="262.79"/><polyline class="cls-1" points="217.33 262.79 216.52 262.68 215.61 262.48 214.9 261.98 214.19 261.47 213.69 260.76 213.28 259.95 212.98 259.14 212.98 258.23"/><line class="cls-1" x1="212.98" y1="258.23" x2="212.98" y2="214.18"/><polyline class="cls-1" points="212.98 214.19 212.88 213.17 212.57 212.26 212.07 211.35 211.46 210.64 210.75 209.93 209.84 209.43 208.93 209.12 207.92 209.02"/><line class="cls-1" x1="207.92" y1="209.02" x2="203.77" y2="208.92"/><polyline class="cls-1" points="203.77 208.92 202.85 208.72 202.04 208.51 201.24 208.01 200.63 207.5 200.02 206.79 199.62 205.98 199.41 205.17 199.31 204.26"/><line class="cls-1" x1="199.31" y1="204.26" x2="199.31" y2="160.12"/><polyline class="cls-1" points="199.31 160.12 199.41 159.21 199.62 158.4 200.02 157.59 200.63 156.88 201.24 156.37 202.04 155.97 202.85 155.66 203.77 155.56"/><line class="cls-1" x1="203.77" y1="155.56" x2="220.98" y2="154.95"/><polyline class="cls-1" points="220.98 154.95 221.99 154.75 222.9 154.45 223.81 153.94 224.52 153.33 225.13 152.52 225.64 151.71 225.94 150.7 226.04 149.79"/><line class="cls-1" x1="226.04" y1="149.79" x2="226.04" y2="100.48"/><polyline class="cls-1" points="233.94 108.07 233.84 108.07 233.74 108.07 233.64 108.17 233.53 108.28 233.43 108.38 233.43 108.48 233.33 108.58 233.33 108.68"/><line class="cls-1" x1="233.94" y1="108.07" x2="233.94" y2="108.07"/><polyline class="cls-1" points="273.73 108.68 273.73 108.58 273.63 108.48 273.63 108.38 273.53 108.28 273.43 108.17 273.33 108.07 273.23 108.07 273.12 108.07"/><line class="cls-1" x1="273.12" y1="108.07" x2="273.12" y2="108.07"/><polyline class="cls-1" points="287.91 108.07 287.81 108.07 287.7 108.07 287.6 108.17 287.5 108.28 287.4 108.38 287.4 108.48 287.3 108.58 287.3 108.68"/><line class="cls-1" x1="287.91" y1="108.07" x2="287.91" y2="108.07"/><polyline class="cls-1" points="327.7 108.68 327.6 108.58 327.6 108.48 327.6 108.38 327.5 108.28 327.39 108.17 327.29 108.07 327.19 108.07 327.09 108.07"/><line class="cls-1" x1="327.09" y1="108.07" x2="327.09" y2="108.07"/><polyline class="cls-1" points="341.87 108.07 341.77 108.07 341.67 108.07 341.57 108.17 341.47 108.28 341.37 108.38 341.37 108.48 341.27 108.58 341.27 108.68"/><line class="cls-1" x1="341.87" y1="108.07" x2="341.87" y2="108.07"/><polyline class="cls-1" points="381.56 108.68 381.56 108.58 381.56 108.48 381.56 108.38 381.46 108.28 381.36 108.17 381.26 108.07 381.16 108.07 381.06 108.07"/><line class="cls-1" x1="381.06" y1="108.07" x2="381.06" y2="108.07"/><polyline class="cls-1" points="395.84 108.07 395.74 108.07 395.64 108.07 395.54 108.17 395.44 108.28 395.33 108.38 395.33 108.48 395.23 108.58 395.23 108.68"/><line class="cls-1" x1="395.84" y1="108.07" x2="395.84" y2="108.07"/><polyline class="cls-1" points="435.53 108.68 435.53 108.58 435.53 108.48 435.43 108.38 435.43 108.28 435.33 108.17 435.23 108.07 435.13 108.07 435.02 108.07"/><line class="cls-1" x1="435.03" y1="108.07" x2="435.03" y2="108.07"/><polyline class="cls-1" points="449.81 108.07 449.71 108.07 449.61 108.07 449.5 108.17 449.4 108.28 449.3 108.38 449.2 108.48 449.2 108.58 449.2 108.68"/><line class="cls-1" x1="449.81" y1="108.07" x2="449.81" y2="108.07"/><polyline class="cls-1" points="489.5 108.68 489.5 108.58 489.5 108.48 489.4 108.38 489.4 108.28 489.3 108.17 489.19 108.07 489.09 108.07 488.99 108.07"/><line class="cls-1" x1="488.99" y1="108.07" x2="488.99" y2="108.07"/><polyline class="cls-1" points="503.77 108.07 503.67 108.07 503.47 108.07 503.37 108.17 503.37 108.28 503.27 108.38 503.17 108.48 503.17 108.58 503.17 108.68"/><line class="cls-1" x1="503.78" y1="108.07" x2="503.78" y2="108.07"/><polyline class="cls-1" points="543.47 108.68 543.47 108.58 543.47 108.48 543.37 108.38 543.37 108.28 543.26 108.17 543.16 108.07 543.06 108.07 542.96 108.07"/><line class="cls-1" x1="542.96" y1="108.07" x2="542.96" y2="108.07"/><polyline class="cls-1" points="207.21 162.04 207.11 162.04 207.01 162.04 206.91 162.14 206.8 162.24 206.7 162.34 206.7 162.44 206.7 162.65"/><polyline class="cls-1" points="247 162.65 247 162.44 247 162.34 246.9 162.24 246.8 162.24 246.8 162.14 246.7 162.04 246.5 162.04 246.39 162.04"/><polyline class="cls-1" points="261.18 162.04 261.07 162.04 260.97 162.04 260.87 162.14 260.77 162.24 260.67 162.34 260.67 162.44 260.67 162.65"/><polyline class="cls-1" points="300.97 162.65 300.97 162.44 300.97 162.34 300.87 162.24 300.77 162.24 300.66 162.14 300.56 162.04 300.46 162.04 300.36 162.04"/><polyline class="cls-1" points="315.14 162.04 315.04 162.04 314.94 162.04 314.84 162.14 314.74 162.24 314.64 162.34 314.64 162.44 314.64 162.65"/><polyline class="cls-1" points="354.94 162.65 354.94 162.44 354.83 162.34 354.83 162.24 354.73 162.24 354.63 162.14 354.53 162.04 354.43 162.04 354.33 162.04"/><polyline class="cls-1" points="369.11 162.04 369.01 162.04 368.91 162.04 368.81 162.14 368.71 162.24 368.6 162.24 368.6 162.34 368.6 162.44 368.6 162.65"/><polyline class="cls-1" points="408.9 162.65 408.9 162.44 408.8 162.34 408.8 162.24 408.7 162.24 408.6 162.14 408.5 162.04 408.4 162.04 408.3 162.04"/><polyline class="cls-1" points="423.08 162.04 422.98 162.04 422.88 162.04 422.77 162.14 422.67 162.24 422.57 162.24 422.57 162.34 422.57 162.44 422.47 162.65"/><polyline class="cls-1" points="462.87 162.65 462.87 162.44 462.77 162.34 462.77 162.24 462.67 162.24 462.57 162.14 462.46 162.04 462.36 162.04 462.26 162.04"/><polyline class="cls-1" points="477.05 162.04 476.94 162.04 476.84 162.04 476.74 162.14 476.64 162.24 476.54 162.24 476.54 162.34 476.44 162.44 476.44 162.65"/><polyline class="cls-1" points="516.84 162.65 516.74 162.44 516.74 162.34 516.74 162.24 516.63 162.24 516.53 162.14 516.43 162.04 516.33 162.04 516.23 162.04"/><polyline class="cls-1" points="531.01 162.04 530.91 162.04 530.81 162.04 530.71 162.14 530.61 162.24 530.51 162.24 530.51 162.34 530.4 162.44 530.4 162.65"/><polyline class="cls-1" points="570.8 162.65 570.7 162.44 570.7 162.34 570.7 162.24 570.6 162.24 570.5 162.14 570.4 162.04 570.3 162.04 570.2 162.04"/><polyline class="cls-1" points="598.55 162.04 598.45 162.04 598.35 162.04 598.24 162.14 598.14 162.24 598.04 162.34 598.04 162.44 598.04 162.65"/><polyline class="cls-1" points="638.34 162.65 638.34 162.44 638.34 162.34 638.24 162.24 638.14 162.24 638.14 162.14 638.03 162.04 637.93 162.04 637.73 162.04"/><polyline class="cls-1" points="220.88 216.01 220.78 216.01 220.68 216.01 220.57 216.11 220.47 216.21 220.37 216.21 220.37 216.31 220.37 216.41 220.27 216.62"/><polyline class="cls-1" points="260.67 216.62 260.67 216.41 260.57 216.31 260.57 216.21 260.47 216.21 260.37 216.11 260.26 216.01 260.16 216.01 260.06 216.01"/><polyline class="cls-1" points="274.85 216.01 274.74 216.01 274.64 216.01 274.54 216.11 274.44 216.21 274.34 216.21 274.34 216.31 274.24 216.41 274.24 216.62"/><polyline class="cls-1" points="314.64 216.62 314.54 216.41 314.54 216.31 314.54 216.21 314.44 216.21 314.33 216.11 314.23 216.01 314.13 216.01 314.03 216.01"/><polyline class="cls-1" points="328.81 216.01 328.71 216.01 328.61 216.01 328.51 216.11 328.41 216.21 328.31 216.21 328.31 216.31 328.2 216.41 328.2 216.62"/><polyline class="cls-1" points="368.6 216.62 368.5 216.41 368.5 216.31 368.5 216.21 368.4 216.21 368.3 216.11 368.2 216.01 368.1 216.01 368 216.01"/><polyline class="cls-1" points="382.78 216.01 382.68 216.01 382.58 216.01 382.48 216.11 382.38 216.21 382.27 216.21 382.27 216.31 382.17 216.41 382.17 216.62"/><polyline class="cls-1" points="422.47 216.62 422.47 216.41 422.47 216.31 422.37 216.21 422.27 216.11 422.17 216.01 422.06 216.01 421.96 216.01"/><polyline class="cls-1" points="436.75 216.01 436.64 216.01 436.54 216.01 436.44 216.11 436.34 216.21 436.24 216.21 436.14 216.31 436.14 216.41 436.14 216.62"/><polyline class="cls-1" points="476.44 216.62 476.44 216.41 476.44 216.31 476.34 216.21 476.24 216.11 476.13 216.01 476.03 216.01 475.93 216.01"/><polyline class="cls-1" points="490.71 216.01 490.61 216.01 490.41 216.01 490.31 216.11 490.31 216.21 490.21 216.21 490.11 216.31 490.11 216.41 490.11 216.62"/><polyline class="cls-1" points="530.4 216.62 530.4 216.41 530.4 216.31 530.3 216.21 530.2 216.11 530.1 216.01 530 216.01 529.9 216.01"/><polyline class="cls-1" points="247.61 269.98 247.51 269.98 247.41 269.98 247.31 270.08 247.2 270.08 247.1 270.18 247 270.28 247 270.38 247 270.48"/><polyline class="cls-1" points="287.3 270.48 287.3 270.38 287.3 270.28 287.2 270.18 287.2 270.08 287.1 270.08 287 269.98 286.89 269.98 286.79 269.98"/><polyline class="cls-1" points="301.58 269.98 301.47 269.98 301.27 269.98 301.17 270.08 301.07 270.18 300.97 270.28 300.97 270.38 300.97 270.48"/><polyline class="cls-1" points="341.27 270.48 341.27 270.38 341.27 270.28 341.17 270.18 341.17 270.08 341.06 270.08 340.96 269.98 340.86 269.98 340.76 269.98"/><polyline class="cls-1" points="355.54 269.98 355.34 269.98 355.24 269.98 355.14 270.08 355.04 270.18 354.94 270.28 354.94 270.38 354.94 270.48"/><polyline class="cls-1" points="395.23 270.48 395.23 270.38 395.23 270.28 395.13 270.18 395.03 270.08 394.93 269.98 394.83 269.98 394.63 269.98"/><polyline class="cls-1" points="409.41 269.98 409.31 269.98 409.21 269.98 409.11 270.08 409 270.08 409 270.18 408.9 270.28 408.9 270.38 408.9 270.48"/><polyline class="cls-1" points="449.2 270.48 449.2 270.38 449.2 270.28 449.1 270.18 449 270.08 448.9 269.98 448.69 269.98 448.59 269.98"/><polyline class="cls-1" points="463.38 269.98 463.27 269.98 463.17 269.98 463.07 270.08 462.97 270.08 462.97 270.18 462.87 270.28 462.87 270.38 462.87 270.48"/><polyline class="cls-1" points="503.17 270.48 503.17 270.38 503.17 270.28 503.07 270.18 502.96 270.08 502.86 270.08 502.76 269.98 502.66 269.98 502.56 269.98"/><polyline class="cls-1" points="241.84 323.94 241.74 323.94 241.63 323.94 241.53 324.04 241.43 324.04 241.33 324.14 241.23 324.25 241.23 324.35 241.23 324.45"/><polyline class="cls-1" points="281.53 324.45 281.53 324.35 281.53 324.25 281.43 324.14 281.43 324.04 281.32 324.04 281.22 323.94 281.12 323.94 281.02 323.94"/><polyline class="cls-1" points="322.54 323.94 322.43 323.94 322.33 323.94 322.23 324.04 322.13 324.04 322.03 324.14 322.03 324.25 322.03 324.35 321.93 324.45"/><polyline class="cls-1" points="362.33 324.45 362.33 324.35 362.23 324.25 362.23 324.14 362.12 324.04 362.02 324.04 361.92 323.94 361.82 323.94 361.72 323.94"/><polyline class="cls-1" points="403.23 323.94 403.13 323.94 403.03 323.94 402.93 324.04 402.83 324.04 402.83 324.14 402.73 324.25 402.73 324.35 402.73 324.45"/><polyline class="cls-1" points="443.02 324.45 443.02 324.35 443.02 324.25 442.92 324.14 442.82 324.04 442.72 323.94 442.62 323.94 442.42 323.94"/><polyline class="cls-1" points="470.77 323.94 470.67 323.94 470.46 323.94 470.36 324.04 470.26 324.14 470.16 324.25 470.16 324.35 470.16 324.45"/><polyline class="cls-1" points="510.46 324.45 510.46 324.35 510.46 324.25 510.36 324.14 510.36 324.04 510.26 324.04 510.15 323.94 510.05 323.94 509.95 323.94"/><polyline class="cls-1" points="538.2 323.94 538.1 323.94 538 323.94 537.9 324.04 537.8 324.04 537.7 324.14 537.7 324.25 537.59 324.35 537.59 324.45"/><polyline class="cls-1" points="577.89 324.45 577.89 324.35 577.89 324.25 577.79 324.14 577.79 324.04 577.69 324.04 577.59 323.94 577.49 323.94 577.38 323.94"/><polyline class="cls-1" points="605.63 323.94 605.53 323.94 605.43 323.94 605.33 324.04 605.23 324.04 605.13 324.14 605.13 324.25 605.03 324.35 605.03 324.45"/><polyline class="cls-1" points="645.43 324.45 645.33 324.35 645.33 324.25 645.33 324.14 645.22 324.04 645.12 324.04 645.02 323.94 644.92 323.94 644.82 323.94"/><polyline class="cls-1" points="624.67 109.49 624.57 108.98 624.26 108.48 623.86 108.17 623.25 108.07"/><line class="cls-1" x1="623.25" y1="108.07" x2="623.25" y2="108.07"/><polyline class="cls-1" points="585.79 108.07 585.28 108.17 584.78 108.48 584.47 108.98 584.37 109.49"/><line class="cls-1" x1="585.79" y1="108.07" x2="585.79" y2="108.07"/><polyline class="cls-1" points="618.19 217.43 618.09 216.92 617.78 216.41 617.28 216.11 616.77 216.01"/><polyline class="cls-1" points="579.31 216.01 578.7 216.11 578.3 216.41 577.99 216.92 577.89 217.43"/><polyline class="cls-1" points="604.83 271.39 604.72 270.89 604.42 270.38 603.91 270.08 603.41 269.98"/><polyline class="cls-1" points="565.94 269.98 565.34 270.08 564.93 270.38 564.63 270.89 564.53 271.39"/><polyline class="cls-1" points="199.31 203.76 199.31 203.76 199.31 203.86 199.31 203.96"/><polyline class="cls-1" points="199.31 203.96 199.41 204.87 199.72 205.78 200.22 206.49 200.73 207.2 201.44 207.81 202.25 208.21 203.16 208.51 203.97 208.62"/><polyline class="cls-1" points="212.98 257.72 212.98 257.72 212.98 257.82 212.98 257.93"/><line class="cls-1" x1="212.98" y1="257.93" x2="212.98" y2="257.93"/><polyline class="cls-1" points="212.98 257.93 213.08 258.84 213.38 259.75 213.79 260.46 214.4 261.17 215.11 261.77 215.92 262.18 216.73 262.48 217.64 262.58"/><polyline class="cls-1" points="208.22 208.72 209.13 208.82 210.04 209.12 210.85 209.63 211.56 210.24 212.17 210.94 212.57 211.75 212.88 212.67 212.98 213.68"/><line class="cls-1" x1="208.22" y1="208.72" x2="208.22" y2="208.72"/><polyline class="cls-1" points="234.95 263.19 235.86 263.29 236.78 263.6 237.59 264 238.29 264.61 238.8 265.42 239.31 266.23 239.51 267.14 239.61 268.05"/><line class="cls-1" x1="226.24" y1="431.17" x2="226.24" y2="431.17"/><line class="cls-1" x1="298.13" y1="378.62" x2="298.13" y2="417.6"/><line class="cls-1" x1="338.33" y1="417.6" x2="338.33" y2="378.62"/><line class="cls-1" x1="236.17" y1="378.62" x2="236.17" y2="417.6"/><line class="cls-1" x1="276.36" y1="417.6" x2="276.36" y2="378.62"/><line class="cls-1" x1="276.67" y1="378.01" x2="235.86" y2="378.01"/><line class="cls-1" x1="235.86" y1="418.21" x2="276.67" y2="418.21"/><line class="cls-1" x1="338.63" y1="378.01" x2="297.83" y2="378.01"/><line class="cls-1" x1="297.83" y1="418.21" x2="338.63" y2="418.21"/><line class="cls-1" x1="382.17" y1="216.61" x2="382.17" y2="255.7"/><polyline class="cls-1" points="382.17 216.62 382.17 216.41 382.27 216.31 382.27 216.21 382.38 216.21 382.48 216.11 382.58 216.01 382.68 216.01 382.78 216.01"/><line class="cls-1" x1="421.96" y1="216.01" x2="382.78" y2="216.01"/><polyline class="cls-1" points="421.96 216.01 422.06 216.01 422.17 216.01 422.27 216.11 422.37 216.21 422.47 216.31 422.47 216.41 422.47 216.62"/><line class="cls-1" x1="422.47" y1="255.7" x2="422.47" y2="216.61"/><polyline class="cls-1" points="422.47 255.7 422.47 255.9 422.47 256 422.37 256.1 422.27 256.2 422.17 256.31 422.06 256.31 421.96 256.31"/><line class="cls-1" x1="382.78" y1="256.31" x2="421.96" y2="256.31"/><polyline class="cls-1" points="382.78 256.31 382.68 256.31 382.58 256.31 382.48 256.2 382.38 256.1 382.27 256.1 382.27 256 382.17 255.9 382.17 255.7"/><line class="cls-1" x1="274.24" y1="216.61" x2="274.24" y2="255.7"/><polyline class="cls-1" points="274.24 216.62 274.24 216.41 274.34 216.31 274.34 216.21 274.44 216.21 274.54 216.11 274.64 216.01 274.74 216.01 274.85 216.01"/><line class="cls-1" x1="314.03" y1="216.01" x2="274.85" y2="216.01"/><polyline class="cls-1" points="314.03 216.01 314.13 216.01 314.23 216.01 314.33 216.11 314.44 216.21 314.54 216.21 314.54 216.31 314.54 216.41 314.64 216.62"/><line class="cls-1" x1="314.64" y1="255.7" x2="314.64" y2="216.61"/><polyline class="cls-1" points="314.64 255.7 314.54 255.9 314.54 256 314.54 256.1 314.44 256.1 314.33 256.2 314.23 256.31 314.13 256.31 314.03 256.31"/><line class="cls-1" x1="274.85" y1="256.31" x2="314.03" y2="256.31"/><polyline class="cls-1" points="274.85 256.31 274.74 256.31 274.64 256.31 274.54 256.2 274.44 256.1 274.34 256.1 274.34 256 274.24 255.9 274.24 255.7"/><line class="cls-1" x1="220.27" y1="216.61" x2="220.27" y2="255.7"/><polyline class="cls-1" points="220.27 216.62 220.37 216.41 220.37 216.31 220.37 216.21 220.47 216.21 220.57 216.11 220.68 216.01 220.78 216.01 220.88 216.01"/><line class="cls-1" x1="260.06" y1="216.01" x2="220.88" y2="216.01"/><polyline class="cls-1" points="260.06 216.01 260.16 216.01 260.26 216.01 260.37 216.11 260.47 216.21 260.57 216.21 260.57 216.31 260.67 216.41 260.67 216.62"/><line class="cls-1" x1="260.67" y1="255.7" x2="260.67" y2="216.61"/><polyline class="cls-1" points="260.67 255.7 260.67 255.9 260.57 256 260.57 256.1 260.47 256.1 260.37 256.2 260.26 256.31 260.16 256.31 260.06 256.31"/><line class="cls-1" x1="220.88" y1="256.31" x2="260.06" y2="256.31"/><polyline class="cls-1" points="220.88 256.31 220.78 256.31 220.68 256.31 220.57 256.2 220.47 256.1 220.37 256.1 220.37 256 220.37 255.9 220.27 255.7"/><line class="cls-1" x1="206.7" y1="162.65" x2="206.7" y2="201.83"/><polyline class="cls-1" points="206.7 162.65 206.7 162.44 206.7 162.34 206.8 162.24 206.91 162.14 207.01 162.04 207.11 162.04 207.21 162.04"/><line class="cls-1" x1="246.39" y1="162.04" x2="207.21" y2="162.04"/><polyline class="cls-1" points="246.39 162.04 246.5 162.04 246.7 162.04 246.8 162.14 246.8 162.24 246.9 162.24 247 162.34 247 162.44 247 162.65"/><line class="cls-1" x1="247" y1="201.83" x2="247" y2="162.65"/><polyline class="cls-1" points="247 201.83 247 201.93 247 202.03 246.9 202.14 246.8 202.24 246.7 202.34 246.5 202.34 246.39 202.34"/><line class="cls-1" x1="207.21" y1="202.34" x2="246.39" y2="202.34"/><polyline class="cls-1" points="207.21 202.34 207.11 202.34 207.01 202.34 206.91 202.24 206.8 202.24 206.8 202.14 206.7 202.03 206.7 201.93 206.7 201.83"/><line class="cls-1" x1="260.67" y1="162.65" x2="260.67" y2="201.83"/><polyline class="cls-1" points="260.67 162.65 260.67 162.44 260.67 162.34 260.77 162.24 260.87 162.14 260.97 162.04 261.07 162.04 261.18 162.04"/><line class="cls-1" x1="300.36" y1="162.04" x2="261.18" y2="162.04"/><polyline class="cls-1" points="300.36 162.04 300.46 162.04 300.56 162.04 300.66 162.14 300.77 162.24 300.87 162.24 300.97 162.34 300.97 162.44 300.97 162.65"/><line class="cls-1" x1="300.97" y1="201.83" x2="300.97" y2="162.65"/><polyline class="cls-1" points="300.97 201.83 300.97 201.93 300.97 202.03 300.87 202.14 300.77 202.24 300.66 202.24 300.56 202.34 300.46 202.34 300.36 202.34"/><line class="cls-1" x1="261.18" y1="202.34" x2="300.36" y2="202.34"/><polyline class="cls-1" points="261.18 202.34 261.07 202.34 260.97 202.34 260.87 202.24 260.77 202.24 260.77 202.14 260.67 202.03 260.67 201.93 260.67 201.83"/><line class="cls-1" x1="314.64" y1="162.65" x2="314.64" y2="201.83"/><polyline class="cls-1" points="314.64 162.65 314.64 162.44 314.64 162.34 314.74 162.24 314.84 162.14 314.94 162.04 315.04 162.04 315.14 162.04"/><line class="cls-1" x1="354.33" y1="162.04" x2="315.14" y2="162.04"/><polyline class="cls-1" points="354.33 162.04 354.43 162.04 354.53 162.04 354.63 162.14 354.73 162.24 354.83 162.24 354.83 162.34 354.94 162.44 354.94 162.65"/><line class="cls-1" x1="354.94" y1="201.83" x2="354.94" y2="162.65"/><polyline class="cls-1" points="354.94 201.83 354.94 201.93 354.83 202.03 354.83 202.14 354.73 202.24 354.63 202.24 354.53 202.34 354.43 202.34 354.33 202.34"/><line class="cls-1" x1="315.14" y1="202.34" x2="354.33" y2="202.34"/><polyline class="cls-1" points="315.14 202.34 315.04 202.34 314.94 202.34 314.84 202.24 314.74 202.24 314.74 202.14 314.64 202.03 314.64 201.93 314.64 201.83"/><line class="cls-1" x1="368.6" y1="162.65" x2="368.6" y2="201.83"/><polyline class="cls-1" points="368.6 162.65 368.6 162.44 368.6 162.34 368.6 162.24 368.71 162.24 368.81 162.14 368.91 162.04 369.01 162.04 369.11 162.04"/><line class="cls-1" x1="408.29" y1="162.04" x2="369.11" y2="162.04"/><polyline class="cls-1" points="408.3 162.04 408.4 162.04 408.5 162.04 408.6 162.14 408.7 162.24 408.8 162.24 408.8 162.34 408.9 162.44 408.9 162.65"/><line class="cls-1" x1="408.9" y1="201.83" x2="408.9" y2="162.65"/><polyline class="cls-1" points="408.9 201.83 408.9 201.93 408.8 202.03 408.8 202.14 408.7 202.24 408.6 202.24 408.5 202.34 408.4 202.34 408.3 202.34"/><line class="cls-1" x1="369.11" y1="202.34" x2="408.29" y2="202.34"/><polyline class="cls-1" points="369.11 202.34 369.01 202.34 368.91 202.34 368.81 202.24 368.71 202.24 368.6 202.14 368.6 202.03 368.6 201.93 368.6 201.83"/><line class="cls-1" x1="422.47" y1="162.65" x2="422.47" y2="201.83"/><polyline class="cls-1" points="422.47 162.65 422.57 162.44 422.57 162.34 422.57 162.24 422.67 162.24 422.77 162.14 422.88 162.04 422.98 162.04 423.08 162.04"/><line class="cls-1" x1="462.26" y1="162.04" x2="423.08" y2="162.04"/><polyline class="cls-1" points="462.26 162.04 462.36 162.04 462.46 162.04 462.57 162.14 462.67 162.24 462.77 162.24 462.77 162.34 462.87 162.44 462.87 162.65"/><line class="cls-1" x1="462.87" y1="201.83" x2="462.87" y2="162.65"/><polyline class="cls-1" points="462.87 201.83 462.87 201.93 462.77 202.03 462.77 202.14 462.67 202.24 462.57 202.24 462.46 202.34 462.36 202.34 462.26 202.34"/><line class="cls-1" x1="423.08" y1="202.34" x2="462.26" y2="202.34"/><polyline class="cls-1" points="423.08 202.34 422.98 202.34 422.88 202.34 422.77 202.24 422.67 202.24 422.57 202.14 422.57 202.03 422.57 201.93 422.47 201.83"/><line class="cls-1" x1="476.44" y1="162.65" x2="476.44" y2="201.83"/><polyline class="cls-1" points="476.44 162.65 476.44 162.44 476.54 162.34 476.54 162.24 476.64 162.24 476.74 162.14 476.84 162.04 476.94 162.04 477.05 162.04"/><line class="cls-1" x1="516.23" y1="162.04" x2="477.04" y2="162.04"/><polyline class="cls-1" points="516.23 162.04 516.33 162.04 516.43 162.04 516.53 162.14 516.63 162.24 516.74 162.24 516.74 162.34 516.74 162.44 516.84 162.65"/><line class="cls-1" x1="516.84" y1="201.83" x2="516.84" y2="162.65"/><polyline class="cls-1" points="516.84 201.83 516.74 201.93 516.74 202.03 516.74 202.14 516.63 202.24 516.53 202.24 516.43 202.34 516.33 202.34 516.23 202.34"/><line class="cls-1" x1="477.04" y1="202.34" x2="516.23" y2="202.34"/><polyline class="cls-1" points="477.05 202.34 476.94 202.34 476.84 202.34 476.74 202.24 476.64 202.24 476.54 202.14 476.54 202.03 476.44 201.93 476.44 201.83"/><line class="cls-1" x1="530.4" y1="162.65" x2="530.4" y2="201.83"/><polyline class="cls-1" points="530.4 162.65 530.4 162.44 530.51 162.34 530.51 162.24 530.61 162.24 530.71 162.14 530.81 162.04 530.91 162.04 531.01 162.04"/><line class="cls-1" x1="570.2" y1="162.04" x2="531.01" y2="162.04"/><polyline class="cls-1" points="570.2 162.04 570.3 162.04 570.4 162.04 570.5 162.14 570.6 162.24 570.7 162.24 570.7 162.34 570.7 162.44 570.8 162.65"/><line class="cls-1" x1="570.8" y1="201.83" x2="570.8" y2="162.65"/><polyline class="cls-1" points="570.8 201.83 570.7 201.93 570.7 202.03 570.7 202.14 570.6 202.24 570.5 202.24 570.4 202.34 570.3 202.34 570.2 202.34"/><line class="cls-1" x1="531.01" y1="202.34" x2="570.2" y2="202.34"/><polyline class="cls-1" points="531.01 202.34 530.91 202.34 530.81 202.34 530.71 202.24 530.61 202.24 530.51 202.14 530.51 202.03 530.4 201.93 530.4 201.83"/><line class="cls-1" x1="598.04" y1="162.65" x2="598.04" y2="201.83"/><polyline class="cls-1" points="598.04 162.65 598.04 162.44 598.04 162.34 598.14 162.24 598.24 162.14 598.35 162.04 598.45 162.04 598.55 162.04"/><line class="cls-1" x1="637.73" y1="162.04" x2="598.55" y2="162.04"/><polyline class="cls-1" points="637.73 162.04 637.93 162.04 638.03 162.04 638.14 162.14 638.14 162.24 638.24 162.24 638.34 162.34 638.34 162.44 638.34 162.65"/><line class="cls-1" x1="638.34" y1="201.83" x2="638.34" y2="162.65"/><polyline class="cls-1" points="638.34 201.83 638.34 201.93 638.34 202.03 638.24 202.14 638.14 202.24 638.03 202.34 637.93 202.34 637.73 202.34"/><line class="cls-1" x1="598.55" y1="202.34" x2="637.73" y2="202.34"/><polyline class="cls-1" points="598.55 202.34 598.45 202.34 598.35 202.34 598.24 202.24 598.14 202.24 598.14 202.14 598.04 202.03 598.04 201.93 598.04 201.83"/><line class="cls-1" x1="503.17" y1="108.68" x2="503.17" y2="147.86"/><polyline class="cls-1" points="503.17 108.68 503.17 108.58 503.17 108.48 503.27 108.38 503.37 108.28 503.37 108.17 503.47 108.07 503.67 108.07 503.77 108.07"/><line class="cls-1" x1="542.96" y1="108.07" x2="503.78" y2="108.07"/><polyline class="cls-1" points="542.96 108.07 543.06 108.07 543.16 108.07 543.26 108.17 543.37 108.28 543.37 108.38 543.47 108.48 543.47 108.58 543.47 108.68"/><line class="cls-1" x1="543.47" y1="147.86" x2="543.47" y2="108.68"/><polyline class="cls-1" points="543.47 147.87 543.47 147.97 543.47 148.07 543.37 148.17 543.37 148.27 543.26 148.27 543.16 148.37 543.06 148.37 542.96 148.37"/><line class="cls-1" x1="503.78" y1="148.37" x2="542.96" y2="148.37"/><polyline class="cls-1" points="503.77 148.37 503.67 148.37 503.47 148.37 503.37 148.27 503.27 148.17 503.17 148.07 503.17 147.97 503.17 147.87"/><line class="cls-1" x1="449.2" y1="108.68" x2="449.2" y2="147.86"/><polyline class="cls-1" points="449.2 108.68 449.2 108.58 449.2 108.48 449.3 108.38 449.4 108.28 449.5 108.17 449.61 108.07 449.71 108.07 449.81 108.07"/><line class="cls-1" x1="488.99" y1="108.07" x2="449.81" y2="108.07"/><polyline class="cls-1" points="488.99 108.07 489.09 108.07 489.19 108.07 489.3 108.17 489.4 108.28 489.4 108.38 489.5 108.48 489.5 108.58 489.5 108.68"/><line class="cls-1" x1="489.5" y1="147.86" x2="489.5" y2="108.68"/><polyline class="cls-1" points="489.5 147.87 489.5 147.97 489.5 148.07 489.4 148.17 489.4 148.27 489.3 148.27 489.19 148.37 489.09 148.37 488.99 148.37"/><line class="cls-1" x1="449.81" y1="148.37" x2="488.99" y2="148.37"/><polyline class="cls-1" points="449.81 148.37 449.71 148.37 449.61 148.37 449.5 148.27 449.4 148.27 449.3 148.17 449.2 148.07 449.2 147.97 449.2 147.87"/><line class="cls-1" x1="395.23" y1="108.68" x2="395.23" y2="147.86"/><polyline class="cls-1" points="395.23 108.68 395.23 108.58 395.33 108.48 395.33 108.38 395.44 108.28 395.54 108.17 395.64 108.07 395.74 108.07 395.84 108.07"/><line class="cls-1" x1="435.03" y1="108.07" x2="395.84" y2="108.07"/><polyline class="cls-1" points="435.02 108.07 435.13 108.07 435.23 108.07 435.33 108.17 435.43 108.28 435.43 108.38 435.53 108.48 435.53 108.58 435.53 108.68"/><line class="cls-1" x1="435.53" y1="147.86" x2="435.53" y2="108.68"/><polyline class="cls-1" points="435.53 147.87 435.53 147.97 435.53 148.07 435.43 148.17 435.43 148.27 435.33 148.27 435.23 148.37 435.13 148.37 435.02 148.37"/><line class="cls-1" x1="395.84" y1="148.37" x2="435.03" y2="148.37"/><polyline class="cls-1" points="395.84 148.37 395.74 148.37 395.64 148.37 395.54 148.27 395.44 148.27 395.33 148.17 395.33 148.07 395.23 147.97 395.23 147.87"/><line class="cls-1" x1="341.27" y1="108.68" x2="341.27" y2="147.86"/><polyline class="cls-1" points="341.27 108.68 341.27 108.58 341.37 108.48 341.37 108.38 341.47 108.28 341.57 108.17 341.67 108.07 341.77 108.07 341.87 108.07"/><line class="cls-1" x1="381.06" y1="108.07" x2="341.87" y2="108.07"/><polyline class="cls-1" points="381.06 108.07 381.16 108.07 381.26 108.07 381.36 108.17 381.46 108.28 381.56 108.38 381.56 108.48 381.56 108.58 381.56 108.68"/><line class="cls-1" x1="381.56" y1="147.86" x2="381.56" y2="108.68"/><polyline class="cls-1" points="381.56 147.87 381.56 147.97 381.56 148.07 381.56 148.17 381.46 148.27 381.36 148.27 381.26 148.37 381.16 148.37 381.06 148.37"/><line class="cls-1" x1="341.87" y1="148.37" x2="381.06" y2="148.37"/><polyline class="cls-1" points="341.87 148.37 341.77 148.37 341.67 148.37 341.57 148.27 341.47 148.27 341.37 148.17 341.37 148.07 341.27 147.97 341.27 147.87"/><line class="cls-1" x1="287.3" y1="108.68" x2="287.3" y2="147.86"/><polyline class="cls-1" points="287.3 108.68 287.3 108.58 287.4 108.48 287.4 108.38 287.5 108.28 287.6 108.17 287.7 108.07 287.81 108.07 287.91 108.07"/><line class="cls-1" x1="327.09" y1="108.07" x2="287.91" y2="108.07"/><polyline class="cls-1" points="327.09 108.07 327.19 108.07 327.29 108.07 327.39 108.17 327.5 108.28 327.6 108.38 327.6 108.48 327.6 108.58 327.7 108.68"/><line class="cls-1" x1="327.7" y1="147.86" x2="327.7" y2="108.68"/><polyline class="cls-1" points="327.7 147.87 327.6 147.97 327.6 148.07 327.6 148.17 327.5 148.27 327.39 148.27 327.29 148.37 327.19 148.37 327.09 148.37"/><line class="cls-1" x1="287.91" y1="148.37" x2="327.09" y2="148.37"/><polyline class="cls-1" points="287.91 148.37 287.81 148.37 287.7 148.37 287.6 148.27 287.5 148.27 287.4 148.17 287.4 148.07 287.3 147.97 287.3 147.87"/><line class="cls-1" x1="233.33" y1="108.68" x2="233.33" y2="147.86"/><polyline class="cls-1" points="233.33 108.68 233.33 108.58 233.43 108.48 233.43 108.38 233.53 108.28 233.64 108.17 233.74 108.07 233.84 108.07 233.94 108.07"/><line class="cls-1" x1="273.12" y1="108.07" x2="233.94" y2="108.07"/><polyline class="cls-1" points="273.12 108.07 273.23 108.07 273.33 108.07 273.43 108.17 273.53 108.28 273.63 108.38 273.63 108.48 273.73 108.58 273.73 108.68"/><line class="cls-1" x1="273.73" y1="147.86" x2="273.73" y2="108.68"/><polyline class="cls-1" points="273.73 147.87 273.73 147.97 273.63 148.07 273.63 148.17 273.53 148.27 273.43 148.27 273.33 148.37 273.23 148.37 273.12 148.37"/><line class="cls-1" x1="233.94" y1="148.37" x2="273.12" y2="148.37"/><polyline class="cls-1" points="233.94 148.37 233.84 148.37 233.74 148.37 233.64 148.27 233.53 148.27 233.43 148.17 233.43 148.07 233.33 147.97 233.33 147.87"/><line class="cls-1" x1="537.59" y1="324.45" x2="537.59" y2="363.63"/><polyline class="cls-1" points="537.59 324.45 537.59 324.35 537.7 324.25 537.7 324.14 537.8 324.04 537.9 324.04 538 323.94 538.1 323.94 538.2 323.94"/><line class="cls-1" x1="577.39" y1="323.94" x2="538.2" y2="323.94"/><polyline class="cls-1" points="577.38 323.94 577.49 323.94 577.59 323.94 577.69 324.04 577.79 324.04 577.79 324.14 577.89 324.25 577.89 324.35 577.89 324.45"/><line class="cls-1" x1="577.89" y1="363.63" x2="577.89" y2="324.45"/><polyline class="cls-1" points="577.89 363.63 577.89 363.73 577.89 363.83 577.79 363.94 577.79 364.04 577.69 364.14 577.59 364.24 577.49 364.24 577.38 364.24"/><line class="cls-1" x1="538.2" y1="364.24" x2="577.39" y2="364.24"/><polyline class="cls-1" points="538.2 364.24 538.1 364.24 538 364.24 537.9 364.14 537.8 364.04 537.7 363.94 537.7 363.83 537.59 363.73 537.59 363.63"/><line class="cls-1" x1="470.16" y1="324.45" x2="470.16" y2="363.63"/><polyline class="cls-1" points="470.16 324.45 470.16 324.35 470.16 324.25 470.26 324.14 470.36 324.04 470.46 323.94 470.67 323.94 470.77 323.94"/><line class="cls-1" x1="509.95" y1="323.94" x2="470.77" y2="323.94"/><polyline class="cls-1" points="509.95 323.94 510.05 323.94 510.15 323.94 510.26 324.04 510.36 324.04 510.36 324.14 510.46 324.25 510.46 324.35 510.46 324.45"/><line class="cls-1" x1="510.46" y1="363.63" x2="510.46" y2="324.45"/><polyline class="cls-1" points="510.46 363.63 510.46 363.73 510.46 363.83 510.36 363.94 510.36 364.04 510.26 364.14 510.15 364.24 510.05 364.24 509.95 364.24"/><line class="cls-1" x1="470.77" y1="364.24" x2="509.95" y2="364.24"/><polyline class="cls-1" points="470.77 364.24 470.67 364.24 470.46 364.24 470.36 364.14 470.36 364.04 470.26 363.94 470.16 363.83 470.16 363.73 470.16 363.63"/><line class="cls-1" x1="605.03" y1="324.45" x2="605.03" y2="363.63"/><polyline class="cls-1" points="605.03 324.45 605.03 324.35 605.13 324.25 605.13 324.14 605.23 324.04 605.33 324.04 605.43 323.94 605.53 323.94 605.63 323.94"/><line class="cls-1" x1="644.82" y1="323.94" x2="605.63" y2="323.94"/><polyline class="cls-1" points="644.82 323.94 644.92 323.94 645.02 323.94 645.12 324.04 645.22 324.04 645.33 324.14 645.33 324.25 645.33 324.35 645.43 324.45"/><line class="cls-1" x1="645.43" y1="363.63" x2="645.43" y2="324.45"/><polyline class="cls-1" points="645.43 363.63 645.33 363.73 645.33 363.83 645.33 363.94 645.22 364.04 645.12 364.14 645.02 364.24 644.92 364.24 644.82 364.24"/><line class="cls-1" x1="605.63" y1="364.24" x2="644.82" y2="364.24"/><polyline class="cls-1" points="605.63 364.24 605.53 364.24 605.43 364.24 605.33 364.14 605.23 364.04 605.13 363.94 605.13 363.83 605.03 363.73 605.03 363.63"/><line class="cls-1" x1="402.73" y1="324.45" x2="402.73" y2="363.63"/><polyline class="cls-1" points="402.73 324.45 402.73 324.35 402.73 324.25 402.83 324.14 402.83 324.04 402.93 324.04 403.03 323.94 403.13 323.94 403.23 323.94"/><line class="cls-1" x1="442.42" y1="323.94" x2="403.23" y2="323.94"/><polyline class="cls-1" points="442.42 323.94 442.62 323.94 442.72 323.94 442.82 324.04 442.92 324.14 443.02 324.25 443.02 324.35 443.02 324.45"/><line class="cls-1" x1="443.02" y1="363.63" x2="443.02" y2="324.45"/><polyline class="cls-1" points="443.02 363.63 443.02 363.73 443.02 363.83 442.92 363.94 442.82 364.04 442.82 364.14 442.72 364.24 442.62 364.24 442.42 364.24"/><line class="cls-1" x1="403.23" y1="364.24" x2="442.42" y2="364.24"/><polyline class="cls-1" points="403.23 364.24 403.13 364.24 403.03 364.24 402.93 364.14 402.83 364.04 402.83 363.94 402.73 363.83 402.73 363.73 402.73 363.63"/><line class="cls-1" x1="436.14" y1="216.61" x2="436.14" y2="255.7"/><polyline class="cls-1" points="436.14 216.62 436.14 216.41 436.14 216.31 436.24 216.21 436.34 216.21 436.44 216.11 436.54 216.01 436.64 216.01 436.75 216.01"/><line class="cls-1" x1="475.93" y1="216.01" x2="436.75" y2="216.01"/><polyline class="cls-1" points="475.93 216.01 476.03 216.01 476.13 216.01 476.24 216.11 476.34 216.21 476.44 216.31 476.44 216.41 476.44 216.62"/><line class="cls-1" x1="476.44" y1="255.7" x2="476.44" y2="216.61"/><polyline class="cls-1" points="476.44 255.7 476.44 255.9 476.44 256 476.34 256.1 476.24 256.2 476.13 256.31 476.03 256.31 475.93 256.31"/><line class="cls-1" x1="436.75" y1="256.31" x2="475.93" y2="256.31"/><polyline class="cls-1" points="436.75 256.31 436.64 256.31 436.54 256.31 436.44 256.2 436.34 256.1 436.24 256.1 436.14 256 436.14 255.9 436.14 255.7"/><line class="cls-1" x1="490.11" y1="216.61" x2="490.11" y2="255.7"/><polyline class="cls-1" points="490.11 216.62 490.11 216.41 490.11 216.31 490.21 216.21 490.31 216.21 490.31 216.11 490.41 216.01 490.61 216.01 490.71 216.01"/><line class="cls-1" x1="529.9" y1="216.01" x2="490.71" y2="216.01"/><polyline class="cls-1" points="529.9 216.01 530 216.01 530.1 216.01 530.2 216.11 530.3 216.21 530.4 216.31 530.4 216.41 530.4 216.62"/><line class="cls-1" x1="530.4" y1="255.7" x2="530.4" y2="216.61"/><polyline class="cls-1" points="530.4 255.7 530.4 255.9 530.4 256 530.3 256.1 530.2 256.2 530.1 256.31 530 256.31 529.9 256.31"/><line class="cls-1" x1="490.71" y1="256.31" x2="529.9" y2="256.31"/><polyline class="cls-1" points="490.71 256.31 490.61 256.31 490.41 256.31 490.31 256.2 490.31 256.1 490.21 256.1 490.11 256 490.11 255.9 490.11 255.7"/><line class="cls-1" x1="408.9" y1="270.48" x2="408.9" y2="309.67"/><polyline class="cls-1" points="408.9 270.48 408.9 270.38 408.9 270.28 409 270.18 409 270.08 409.11 270.08 409.21 269.98 409.31 269.98 409.41 269.98"/><line class="cls-1" x1="448.59" y1="269.97" x2="409.41" y2="269.97"/><polyline class="cls-1" points="448.59 269.98 448.69 269.98 448.9 269.98 449 270.08 449.1 270.18 449.2 270.28 449.2 270.38 449.2 270.48"/><line class="cls-1" x1="449.2" y1="309.67" x2="449.2" y2="270.48"/><polyline class="cls-1" points="449.2 309.67 449.2 309.77 449.2 309.97 449.1 310.07 449 310.07 449 310.17 448.9 310.27 448.69 310.27 448.59 310.27"/><line class="cls-1" x1="409.41" y1="310.27" x2="448.59" y2="310.27"/><polyline class="cls-1" points="409.41 310.27 409.31 310.27 409.21 310.27 409.11 310.17 409 310.07 408.9 309.97 408.9 309.77 408.9 309.67"/><line class="cls-1" x1="354.94" y1="270.48" x2="354.94" y2="309.67"/><polyline class="cls-1" points="354.94 270.48 354.94 270.38 354.94 270.28 355.04 270.18 355.14 270.08 355.24 269.98 355.34 269.98 355.54 269.98"/><line class="cls-1" x1="394.63" y1="269.97" x2="355.54" y2="269.97"/><polyline class="cls-1" points="394.63 269.98 394.83 269.98 394.93 269.98 395.03 270.08 395.13 270.18 395.23 270.28 395.23 270.38 395.23 270.48"/><line class="cls-1" x1="395.23" y1="309.67" x2="395.23" y2="270.48"/><polyline class="cls-1" points="395.23 309.67 395.23 309.77 395.23 309.97 395.13 310.07 395.03 310.07 395.03 310.17 394.93 310.27 394.83 310.27 394.63 310.27"/><line class="cls-1" x1="355.54" y1="310.27" x2="394.63" y2="310.27"/><polyline class="cls-1" points="355.54 310.27 355.34 310.27 355.24 310.27 355.14 310.17 355.14 310.07 355.04 310.07 354.94 309.97 354.94 309.77 354.94 309.67"/><line class="cls-1" x1="462.87" y1="270.48" x2="462.87" y2="309.67"/><polyline class="cls-1" points="462.87 270.48 462.87 270.38 462.87 270.28 462.97 270.18 462.97 270.08 463.07 270.08 463.17 269.98 463.27 269.98 463.38 269.98"/><line class="cls-1" x1="502.56" y1="269.97" x2="463.38" y2="269.97"/><polyline class="cls-1" points="502.56 269.98 502.66 269.98 502.76 269.98 502.86 270.08 502.96 270.08 503.07 270.18 503.17 270.28 503.17 270.38 503.17 270.48"/><line class="cls-1" x1="503.17" y1="309.67" x2="503.17" y2="270.48"/><polyline class="cls-1" points="503.17 309.67 503.17 309.77 503.17 309.97 503.07 310.07 502.96 310.07 502.86 310.17 502.76 310.27 502.66 310.27 502.56 310.27"/><line class="cls-1" x1="463.38" y1="310.27" x2="502.56" y2="310.27"/><polyline class="cls-1" points="463.38 310.27 463.27 310.27 463.17 310.27 463.07 310.17 462.97 310.07 462.87 309.97 462.87 309.77 462.87 309.67"/><line class="cls-1" x1="300.97" y1="270.48" x2="300.97" y2="309.67"/><polyline class="cls-1" points="300.97 270.48 300.97 270.38 300.97 270.28 301.07 270.18 301.17 270.08 301.27 269.98 301.47 269.98 301.58 269.98"/><line class="cls-1" x1="340.76" y1="269.97" x2="301.58" y2="269.97"/><polyline class="cls-1" points="340.76 269.98 340.86 269.98 340.96 269.98 341.06 270.08 341.17 270.08 341.17 270.18 341.27 270.28 341.27 270.38 341.27 270.48"/><line class="cls-1" x1="341.27" y1="309.67" x2="341.27" y2="270.48"/><polyline class="cls-1" points="341.27 309.67 341.27 309.77 341.27 309.97 341.17 310.07 341.06 310.17 340.96 310.27 340.86 310.27 340.76 310.27"/><line class="cls-1" x1="301.58" y1="310.27" x2="340.76" y2="310.27"/><polyline class="cls-1" points="301.58 310.27 301.47 310.27 301.27 310.27 301.17 310.17 301.17 310.07 301.07 310.07 300.97 309.97 300.97 309.77 300.97 309.67"/><line class="cls-1" x1="247" y1="270.48" x2="247" y2="309.67"/><polyline class="cls-1" points="247 270.48 247 270.38 247 270.28 247.1 270.18 247.2 270.08 247.31 270.08 247.41 269.98 247.51 269.98 247.61 269.98"/><line class="cls-1" x1="286.79" y1="269.97" x2="247.61" y2="269.97"/><polyline class="cls-1" points="286.79 269.98 286.89 269.98 287 269.98 287.1 270.08 287.2 270.08 287.2 270.18 287.3 270.28 287.3 270.38 287.3 270.48"/><line class="cls-1" x1="287.3" y1="309.67" x2="287.3" y2="270.48"/><polyline class="cls-1" points="287.3 309.67 287.3 309.77 287.3 309.97 287.2 310.07 287.1 310.17 287 310.27 286.89 310.27 286.79 310.27"/><line class="cls-1" x1="247.61" y1="310.27" x2="286.79" y2="310.27"/><polyline class="cls-1" points="247.61 310.27 247.51 310.27 247.41 310.27 247.31 310.17 247.2 310.07 247.1 310.07 247 309.97 247 309.77 247 309.67"/><line class="cls-1" x1="241.23" y1="324.45" x2="241.23" y2="363.63"/><polyline class="cls-1" points="241.23 324.45 241.23 324.35 241.23 324.25 241.33 324.14 241.43 324.04 241.53 324.04 241.63 323.94 241.74 323.94 241.84 323.94"/><line class="cls-1" x1="281.02" y1="323.94" x2="241.84" y2="323.94"/><polyline class="cls-1" points="281.02 323.94 281.12 323.94 281.22 323.94 281.32 324.04 281.43 324.04 281.43 324.14 281.53 324.25 281.53 324.35 281.53 324.45"/><line class="cls-1" x1="281.53" y1="363.63" x2="281.53" y2="324.45"/><polyline class="cls-1" points="281.53 363.63 281.53 363.73 281.53 363.83 281.43 363.94 281.43 364.04 281.32 364.14 281.22 364.24 281.12 364.24 281.02 364.24"/><line class="cls-1" x1="241.84" y1="364.24" x2="281.02" y2="364.24"/><polyline class="cls-1" points="241.84 364.24 241.74 364.24 241.63 364.24 241.53 364.14 241.43 364.04 241.33 363.94 241.23 363.83 241.23 363.73 241.23 363.63"/><line class="cls-1" x1="321.93" y1="324.45" x2="321.93" y2="363.63"/><polyline class="cls-1" points="321.93 324.45 322.03 324.35 322.03 324.25 322.03 324.14 322.13 324.04 322.23 324.04 322.33 323.94 322.43 323.94 322.54 323.94"/><line class="cls-1" x1="361.72" y1="323.94" x2="322.53" y2="323.94"/><polyline class="cls-1" points="361.72 323.94 361.82 323.94 361.92 323.94 362.02 324.04 362.12 324.04 362.23 324.14 362.23 324.25 362.33 324.35 362.33 324.45"/><line class="cls-1" x1="362.33" y1="363.63" x2="362.33" y2="324.45"/><polyline class="cls-1" points="362.33 363.63 362.33 363.73 362.23 363.83 362.23 363.94 362.12 364.04 362.02 364.14 361.92 364.24 361.82 364.24 361.72 364.24"/><line class="cls-1" x1="322.53" y1="364.24" x2="361.72" y2="364.24"/><polyline class="cls-1" points="322.54 364.24 322.43 364.24 322.33 364.24 322.23 364.14 322.13 364.04 322.03 363.94 322.03 363.83 322.03 363.73 321.93 363.63"/><line class="cls-1" x1="328.2" y1="216.61" x2="328.2" y2="255.7"/><polyline class="cls-1" points="328.2 216.62 328.2 216.41 328.31 216.31 328.31 216.21 328.41 216.21 328.51 216.11 328.61 216.01 328.71 216.01 328.81 216.01"/><line class="cls-1" x1="368" y1="216.01" x2="328.81" y2="216.01"/><polyline class="cls-1" points="368 216.01 368.1 216.01 368.2 216.01 368.3 216.11 368.4 216.21 368.5 216.21 368.5 216.31 368.5 216.41 368.6 216.62"/><line class="cls-1" x1="368.6" y1="256.31" x2="368.6" y2="216.61"/><line class="cls-1" x1="328.81" y1="256.31" x2="368.6" y2="256.31"/><polyline class="cls-1" points="328.81 256.31 328.71 256.31 328.61 256.31 328.51 256.2 328.41 256.1 328.31 256.1 328.31 256 328.2 255.9 328.2 255.7"/><line class="cls-1" x1="604.82" y1="283.04" x2="604.82" y2="271.39"/><line class="cls-1" x1="609.58" y1="283.04" x2="604.82" y2="283.04"/><line class="cls-1" x1="609.58" y1="274.43" x2="609.58" y2="283.04"/><line class="cls-1" x1="628.62" y1="274.43" x2="609.58" y2="274.43"/><line class="cls-1" x1="628.62" y1="283.14" x2="628.62" y2="274.43"/><line class="cls-1" x1="631.05" y1="283.14" x2="628.62" y2="283.14"/><line class="cls-1" x1="631.05" y1="291.54" x2="631.05" y2="283.14"/><line class="cls-1" x1="628.62" y1="291.54" x2="631.05" y2="291.54"/><line class="cls-1" x1="628.62" y1="309.26" x2="628.62" y2="291.54"/><line class="cls-1" x1="624.87" y1="309.26" x2="628.62" y2="309.26"/><line class="cls-1" x1="624.87" y1="313.11" x2="624.87" y2="309.26"/><polyline class="cls-1" points="624.87 313.11 624.77 313.41 624.67 313.61 624.37 313.71 624.16 313.82"/><line class="cls-1" x1="614.04" y1="313.82" x2="624.16" y2="313.82"/><polyline class="cls-1" points="614.04 313.82 613.84 313.71 613.53 313.61 613.43 313.41 613.33 313.11"/><line class="cls-1" x1="613.33" y1="309.26" x2="613.33" y2="313.11"/><line class="cls-1" x1="609.58" y1="309.26" x2="613.33" y2="309.26"/><line class="cls-1" x1="609.58" y1="300.65" x2="609.58" y2="309.26"/><line class="cls-1" x1="604.82" y1="300.65" x2="609.58" y2="300.65"/><line class="cls-1" x1="604.82" y1="308.86" x2="604.82" y2="300.65"/><polyline class="cls-1" points="604.83 308.86 604.72 309.36 604.42 309.87 603.91 310.17 603.41 310.27"/><line class="cls-1" x1="565.94" y1="310.27" x2="603.41" y2="310.27"/><polyline class="cls-1" points="565.94 310.27 565.34 310.17 564.93 309.87 564.63 309.36 564.53 308.86"/><line class="cls-1" x1="564.53" y1="300.65" x2="564.53" y2="308.86"/><line class="cls-1" x1="559.77" y1="300.65" x2="564.53" y2="300.65"/><line class="cls-1" x1="559.77" y1="309.26" x2="559.77" y2="300.65"/><line class="cls-1" x1="555.92" y1="309.26" x2="559.77" y2="309.26"/><line class="cls-1" x1="555.92" y1="313.11" x2="555.92" y2="309.26"/><polyline class="cls-1" points="555.92 313.11 555.92 313.41 555.72 313.61 555.51 313.71 555.21 313.82"/><line class="cls-1" x1="545.19" y1="313.82" x2="555.21" y2="313.82"/><polyline class="cls-1" points="545.19 313.82 544.88 313.71 544.68 313.61 544.58 313.41 544.48 313.11"/><line class="cls-1" x1="544.48" y1="309.26" x2="544.48" y2="313.11"/><line class="cls-1" x1="540.63" y1="309.26" x2="544.48" y2="309.26"/><line class="cls-1" x1="540.63" y1="291.54" x2="540.63" y2="309.26"/><line class="cls-1" x1="538.2" y1="291.54" x2="540.63" y2="291.54"/><line class="cls-1" x1="538.2" y1="283.14" x2="538.2" y2="291.54"/><line class="cls-1" x1="540.63" y1="283.14" x2="538.2" y2="283.14"/><line class="cls-1" x1="540.63" y1="274.43" x2="540.63" y2="283.14"/><line class="cls-1" x1="559.77" y1="274.43" x2="540.63" y2="274.43"/><line class="cls-1" x1="559.77" y1="283.04" x2="559.77" y2="274.43"/><line class="cls-1" x1="564.53" y1="283.04" x2="559.77" y2="283.04"/><line class="cls-1" x1="564.53" y1="271.39" x2="564.53" y2="283.04"/><polyline class="cls-1" points="564.53 271.39 564.63 270.89 564.93 270.38 565.34 270.08 565.94 269.98"/><line class="cls-1" x1="603.41" y1="269.97" x2="565.94" y2="269.97"/><polyline class="cls-1" points="603.41 269.98 603.91 270.08 604.42 270.38 604.72 270.89 604.83 271.39"/><line class="cls-1" x1="618.19" y1="229.07" x2="618.19" y2="217.42"/><line class="cls-1" x1="622.95" y1="229.07" x2="618.19" y2="229.07"/><line class="cls-1" x1="622.95" y1="220.46" x2="622.95" y2="229.07"/><line class="cls-1" x1="641.98" y1="220.46" x2="622.95" y2="220.46"/><line class="cls-1" x1="641.98" y1="229.17" x2="641.98" y2="220.46"/><line class="cls-1" x1="644.41" y1="229.17" x2="641.98" y2="229.17"/><line class="cls-1" x1="644.41" y1="237.57" x2="644.41" y2="229.17"/><line class="cls-1" x1="641.98" y1="237.57" x2="644.41" y2="237.57"/><line class="cls-1" x1="641.98" y1="255.29" x2="641.98" y2="237.57"/><line class="cls-1" x1="638.24" y1="255.29" x2="641.98" y2="255.29"/><line class="cls-1" x1="638.24" y1="259.14" x2="638.24" y2="255.29"/><polyline class="cls-1" points="638.24 259.14 638.14 259.44 638.03 259.65 637.73 259.85 637.53 259.85"/><line class="cls-1" x1="627.4" y1="259.85" x2="637.53" y2="259.85"/><polyline class="cls-1" points="627.4 259.85 627.2 259.85 626.9 259.65 626.8 259.44 626.7 259.14"/><line class="cls-1" x1="626.69" y1="255.29" x2="626.69" y2="259.14"/><line class="cls-1" x1="622.95" y1="255.29" x2="626.69" y2="255.29"/><line class="cls-1" x1="622.95" y1="246.69" x2="622.95" y2="255.29"/><line class="cls-1" x1="618.19" y1="246.69" x2="622.95" y2="246.69"/><line class="cls-1" x1="618.19" y1="254.89" x2="618.19" y2="246.69"/><polyline class="cls-1" points="618.19 254.89 618.09 255.39 617.78 255.9 617.28 256.2 616.77 256.31"/><line class="cls-1" x1="579.31" y1="256.31" x2="616.77" y2="256.31"/><polyline class="cls-1" points="579.31 256.31 578.7 256.2 578.3 255.9 577.99 255.39 577.89 254.89"/><line class="cls-1" x1="577.89" y1="246.69" x2="577.89" y2="254.89"/><line class="cls-1" x1="573.13" y1="246.69" x2="577.89" y2="246.69"/><line class="cls-1" x1="573.13" y1="255.29" x2="573.13" y2="246.69"/><line class="cls-1" x1="569.29" y1="255.29" x2="573.13" y2="255.29"/><line class="cls-1" x1="569.29" y1="259.14" x2="569.29" y2="255.29"/><polyline class="cls-1" points="569.28 259.14 569.28 259.44 569.08 259.65 568.88 259.85 568.58 259.85"/><line class="cls-1" x1="558.55" y1="259.85" x2="568.58" y2="259.85"/><polyline class="cls-1" points="558.55 259.85 558.25 259.85 558.05 259.65 557.84 259.44 557.84 259.14"/><line class="cls-1" x1="557.84" y1="255.29" x2="557.84" y2="259.14"/><line class="cls-1" x1="554" y1="255.29" x2="557.84" y2="255.29"/><line class="cls-1" x1="554" y1="237.57" x2="554" y2="255.29"/><line class="cls-1" x1="551.57" y1="237.57" x2="554" y2="237.57"/><line class="cls-1" x1="551.57" y1="229.17" x2="551.57" y2="237.57"/><line class="cls-1" x1="554" y1="229.17" x2="551.57" y2="229.17"/><line class="cls-1" x1="554" y1="220.46" x2="554" y2="229.17"/><line class="cls-1" x1="573.13" y1="220.46" x2="554" y2="220.46"/><line class="cls-1" x1="573.13" y1="229.07" x2="573.13" y2="220.46"/><line class="cls-1" x1="577.89" y1="229.07" x2="573.13" y2="229.07"/><line class="cls-1" x1="577.89" y1="217.42" x2="577.89" y2="229.07"/><polyline class="cls-1" points="577.89 217.43 577.99 216.92 578.3 216.41 578.7 216.11 579.31 216.01"/><line class="cls-1" x1="616.77" y1="216.01" x2="579.31" y2="216.01"/><polyline class="cls-1" points="616.77 216.01 617.28 216.11 617.78 216.41 618.09 216.92 618.19 217.43"/><line class="cls-1" x1="624.67" y1="121.13" x2="624.67" y2="109.49"/><line class="cls-1" x1="629.43" y1="121.13" x2="624.67" y2="121.13"/><line class="cls-1" x1="629.43" y1="112.53" x2="629.43" y2="121.13"/><line class="cls-1" x1="648.57" y1="112.53" x2="629.43" y2="112.53"/><line class="cls-1" x1="648.57" y1="121.34" x2="648.57" y2="112.53"/><line class="cls-1" x1="651" y1="121.34" x2="648.57" y2="121.34"/><line class="cls-1" x1="651" y1="129.64" x2="651" y2="121.34"/><line class="cls-1" x1="648.57" y1="129.64" x2="651" y2="129.64"/><line class="cls-1" x1="648.57" y1="147.46" x2="648.57" y2="129.64"/><line class="cls-1" x1="644.72" y1="147.46" x2="648.57" y2="147.46"/><line class="cls-1" x1="644.72" y1="151.21" x2="644.72" y2="147.46"/><polyline class="cls-1" points="644.72 151.21 644.72 151.51 644.51 151.71 644.31 151.91 644.01 151.91"/><line class="cls-1" x1="633.99" y1="151.92" x2="644.01" y2="151.92"/><polyline class="cls-1" points="633.99 151.91 633.68 151.91 633.48 151.71 633.28 151.51 633.28 151.21"/><line class="cls-1" x1="633.28" y1="147.46" x2="633.28" y2="151.21"/><line class="cls-1" x1="629.43" y1="147.46" x2="633.28" y2="147.46"/><line class="cls-1" x1="629.43" y1="138.85" x2="629.43" y2="147.46"/><line class="cls-1" x1="624.67" y1="138.85" x2="629.43" y2="138.85"/><line class="cls-1" x1="624.67" y1="146.95" x2="624.67" y2="138.85"/><polyline class="cls-1" points="624.67 146.95 624.57 147.56 624.26 147.97 623.86 148.27 623.25 148.37"/><line class="cls-1" x1="585.79" y1="148.37" x2="623.25" y2="148.37"/><polyline class="cls-1" points="585.79 148.37 585.28 148.27 584.78 147.97 584.47 147.56 584.37 146.95"/><line class="cls-1" x1="584.37" y1="138.85" x2="584.37" y2="146.95"/><line class="cls-1" x1="579.61" y1="138.85" x2="584.37" y2="138.85"/><line class="cls-1" x1="579.61" y1="147.46" x2="579.61" y2="138.85"/><line class="cls-1" x1="575.87" y1="147.46" x2="579.61" y2="147.46"/><line class="cls-1" x1="575.87" y1="151.21" x2="575.87" y2="147.46"/><polyline class="cls-1" points="575.87 151.21 575.76 151.51 575.66 151.71 575.36 151.91 575.16 151.91"/><line class="cls-1" x1="565.13" y1="151.92" x2="575.16" y2="151.92"/><polyline class="cls-1" points="565.13 151.91 564.83 151.91 564.63 151.71 564.42 151.51 564.32 151.21"/><line class="cls-1" x1="564.32" y1="147.46" x2="564.32" y2="151.21"/><line class="cls-1" x1="560.58" y1="147.46" x2="564.32" y2="147.46"/><line class="cls-1" x1="560.58" y1="129.64" x2="560.58" y2="147.46"/><line class="cls-1" x1="558.15" y1="129.64" x2="560.58" y2="129.64"/><line class="cls-1" x1="558.15" y1="121.34" x2="558.15" y2="129.64"/><line class="cls-1" x1="560.58" y1="121.34" x2="558.15" y2="121.34"/><line class="cls-1" x1="560.58" y1="112.53" x2="560.58" y2="121.34"/><line class="cls-1" x1="579.61" y1="112.53" x2="560.58" y2="112.53"/><line class="cls-1" x1="579.61" y1="121.13" x2="579.61" y2="112.53"/><line class="cls-1" x1="584.37" y1="121.13" x2="579.61" y2="121.13"/><line class="cls-1" x1="584.37" y1="109.49" x2="584.37" y2="121.13"/><polyline class="cls-1" points="584.37 109.49 584.47 108.98 584.78 108.48 585.28 108.17 585.79 108.07"/><line class="cls-1" x1="623.25" y1="108.07" x2="585.79" y2="108.07"/><polyline class="cls-1" points="623.25 108.07 623.86 108.17 624.26 108.48 624.57 108.98 624.67 109.49"/><line class="cls-1" x1="231" y1="317.16" x2="234.95" y2="317.06"/><polyline class="cls-1" points="226.04 322.12 226.14 321.11 226.45 320.19 226.95 319.38 227.56 318.68 228.27 318.07 229.08 317.66 229.99 317.36 231 317.16"/><line class="cls-1" x1="226.04" y1="322.12" x2="226.04" y2="431.17"/><line class="cls-1" x1="226.04" y1="431.17" x2="226.24" y2="431.17"/><line class="cls-1" x1="273.83" y1="431.17" x2="226.24" y2="431.17"/><polyline class="cls-1" points="303.2 455.06 301.68 450.2 299.45 445.65 296.41 441.5 292.77 437.95 288.51 435.01 283.86 432.89 278.89 431.57 273.83 431.17"/><polyline class="cls-1" points="663.35 288.61 665.37 296.4 669.02 303.39"/><polyline class="cls-1" points="658.49 224.41 660.01 256 663.35 288.61"/><line class="cls-1" x1="657.07" y1="113.44" x2="658.49" y2="224.41"/><polyline class="cls-1" points="644.01 100.48 648.97 101.49 653.22 104.33 656.06 108.48 657.07 113.44"/><line class="cls-1" x1="226.24" y1="100.48" x2="644.01" y2="100.48"/><line class="cls-1" x1="226.24" y1="100.48" x2="226.04" y2="100.48"/><line class="cls-1" x1="226.04" y1="100.48" x2="226.04" y2="150.3"/><polyline class="cls-1" points="221.28 155.16 222.19 155.05 223.11 154.75 223.92 154.34 224.62 153.74 225.23 152.93 225.64 152.12 225.94 151.21 226.04 150.29"/><line class="cls-1" x1="203.97" y1="155.76" x2="221.28" y2="155.16"/><polyline class="cls-1" points="199.31 160.62 199.41 159.71 199.62 158.8 200.12 157.99 200.63 157.28 201.34 156.67 202.15 156.17 203.06 155.97 203.97 155.76"/><line class="cls-1" x1="199.31" y1="160.62" x2="199.31" y2="203.76"/><polyline class="cls-1" points="203.97 208.62 203.06 208.51 202.15 208.21 201.34 207.71 200.63 207.1 200.12 206.39 199.62 205.58 199.41 204.67 199.31 203.76"/><line class="cls-1" x1="208.22" y1="208.72" x2="203.97" y2="208.62"/><polyline class="cls-1" points="212.98 213.68 212.88 212.67 212.57 211.75 212.17 210.94 211.56 210.24 210.85 209.63 210.04 209.12 209.13 208.82 208.22 208.72"/><line class="cls-1" x1="212.98" y1="213.68" x2="212.98" y2="257.72"/><polyline class="cls-1" points="217.64 262.58 216.73 262.48 215.81 262.18 215 261.67 214.3 261.06 213.69 260.36 213.28 259.55 212.98 258.63 212.98 257.72"/><line class="cls-1" x1="234.95" y1="263.19" x2="217.64" y2="262.58"/><polyline class="cls-1" points="239.61 268.05 239.51 267.14 239.31 266.23 238.8 265.42 238.29 264.61 237.59 264 236.78 263.6 235.86 263.29 234.95 263.19"/><line class="cls-1" x1="239.61" y1="268.05" x2="239.61" y2="312.2"/><polyline class="cls-1" points="234.95 317.06 235.86 316.95 236.78 316.65 237.59 316.14 238.29 315.54 238.8 314.83 239.31 314.02 239.51 313.11 239.61 312.2"/><path class="cls-1" d="M203.77,155.56h0M230.4,317h0m-4.46-166.87h0M221,155h0m18.63,156.94h0m-5,4.86h0M207.21,162h0m39.18,0h0m14.79,0h0m39.18,0h0m14.78,0h0m39.19,0h0m14.78,0h0m39.18,0h0m14.79,0h0m39.18,0h0M477,162h0m39.19,0h0M531,162h0m39.19,0h0m28.35,0h0m39.18,0h0M220.88,216h0m39.18,0h0m14.79,0h0M314,216h0m14.78,0h0M368,216h0m14.78,0h0M422,216h0m14.79,0h0m39.18,0h0m14.78,0h0m39.19,0h0M247.61,270h0m39.18,0h0m14.79,0h0m39.18,0h0m14.78,0h0m39.09,0h0m14.78,0h0m39.18,0h0m14.79,0h0m39.18,0h0m-260.72,54h0m39.18,0h0m41.51,0h0m39.19,0h0m41.51,0h0m39.19,0h0m28.35,0h0m39.18,0h0m28.25,0h0m39.19,0h0m28.24,0h0m39.19,0h0M616.77,216h0m-37.46,0h0m24.1,54h0m-37.47,0h0M199.31,204h0m4.66,4.66h0m13.67,54h0m17.31.61h0"/></g></g><line class="cls-1" x1="287.26" y1="236.13" x2="301.43" y2="236.13"/><line class="cls-1" x1="294.35" y1="243.22" x2="294.35" y2="229.04"/></g><text class="cls-2" transform="translate(294.63 547.93)">Dygma Raise</text><line class="cls-3" x1="304.81" y1="539.01" x2="303.2" y2="455.06"/><rect id="border" class="cls-4" x="0.25" y="0.25" width="751.18" height="565.7"/></g></g></g></svg>