<svg xmlns="http://www.w3.org/2000/svg" viewBox="0 0 751.68 566.2"><defs><style>.cls-1,.cls-2,.cls-4{fill:none;stroke:#000;}.cls-2{stroke-linecap:round;stroke-linejoin:round;}.cls-3{font-size:10px;font-family:FiraSansCondensed-Medium, Fira Sans Condensed;font-weight:500;}.cls-4{stroke-miterlimit:10;stroke-width:0.5px;}</style></defs><g id="Layer_2" data-name="Layer 2"><g id="main"><g id="elephant42"><g id="elephant42-2" data-name="elephant42"><path id="ID_142" data-name="ID 142" class="cls-1" d="M194.92,393.76l19.82,34.34,34.34-19.83-19.82-34.34Z"/><path id="ID_143" data-name="ID 143" class="cls-1" d="M146.22,421.69l-3.51,13a14.18,14.18,0,0,0,3.67,13.69l30.36,30.37a2.85,2.85,0,0,0,4,0h0l36.14-36.15,42-31.75,48.75-19.8,49.88-6.23a14,14,0,0,0,4.43-1.31l67.29-32.7h51.12a2.83,2.83,0,0,0,2.83-2.83V323.87h51.13a2.83,2.83,0,0,0,2.83-2.83V218.8a2.84,2.84,0,0,0-2.83-2.84H483.15V191.82a2.82,2.82,0,0,0-2.83-2.83H429.2V144.61a2.83,2.83,0,0,0-2.83-2.83H375.24V131.12a2.83,2.83,0,0,0-2.83-2.83H324.12a2.83,2.83,0,0,0-2.83,2.83v24.15H270.17a2.83,2.83,0,0,0-2.84,2.83v10.65H216.21a2.84,2.84,0,0,0-2.83,2.84V372L152,413.65A14.09,14.09,0,0,0,146.22,421.69Z"/><path id="ID_146" data-name="ID 146" class="cls-1" d="M313,337.77v39.65h39.65V337.77Z"/><path id="ID_147" data-name="ID 147" class="cls-1" d="M250.27,358l10.27,38.3L298.84,386l-10.26-38.3Z"/><path id="ID_148" data-name="ID 148" class="cls-1" d="M178.74,414.6l-28,28,28,28,28-28Z"/><path id="ID_153" data-name="ID 153" class="cls-1" d="M436.35,343.7H476V304.05H436.35Z"/><path id="ID_157" data-name="ID 157" class="cls-1" d="M220.53,283.81v39.66h39.65V283.81Z"/><path id="ID_158" data-name="ID 158" class="cls-1" d="M220.53,175.91v39.65h39.65V175.91Z"/><path id="ID_166" data-name="ID 166" class="cls-1" d="M314.14,270.33H274.49V310h39.65Z"/><path id="ID_167" data-name="ID 167" class="cls-1" d="M314.14,202.07V162.42H274.49v39.65Z"/><path id="ID_169" data-name="ID 169" class="cls-1" d="M314.14,216.37H274.49V256h39.65Z"/><path id="ID_170" data-name="ID 170" class="cls-1" d="M328.44,135.44v39.65h39.65V135.44Z"/><path id="ID_171" data-name="ID 171" class="cls-1" d="M328.44,189.39v39.66h39.65V189.39Z"/><path id="ID_172" data-name="ID 172" class="cls-1" d="M260.18,229.86H220.53v39.65h39.65Z"/><path id="ID_175" data-name="ID 175" class="cls-1" d="M368.09,243.35H328.44V283h39.65Z"/><path id="ID_176" data-name="ID 176" class="cls-1" d="M422.05,256.84H382.4v39.65h39.65Z"/><path id="ID_177" data-name="ID 177" class="cls-1" d="M422.05,242.53V202.88H382.4v39.65Z"/><path id="ID_178" data-name="ID 178" class="cls-1" d="M436.35,196.14v39.65H476V196.14Z"/><path id="ID_195" data-name="ID 195" class="cls-1" d="M436.35,250.09v39.65H476V250.09Z"/><path id="ID_196" data-name="ID 196" class="cls-1" d="M382.4,188.58h39.65V148.93H382.4Z"/><path id="ID_197" data-name="ID 197" class="cls-1" d="M530,262.77V223.12H490.31v39.65Z"/><path id="ID_200" data-name="ID 200" class="cls-1" d="M530,316.72V277.07H490.31v39.65Z"/><circle id="ID_144" data-name="ID 144" class="cls-1" cx="154.14" cy="424.96" r="2.83"/><circle id="ID_145" data-name="ID 145" class="cls-1" cx="254.98" cy="403.17" r="2.83"/><circle id="ID_154" data-name="ID 154" class="cls-1" cx="429.2" cy="342.35" r="2.83"/><circle id="ID_168" data-name="ID 168" class="cls-1" cx="267.33" cy="178.88" r="2.83"/><circle id="ID_179" data-name="ID 179" class="cls-1" cx="375.24" cy="253.07" r="2.83"/><circle id="ID_184" data-name="ID 184" class="cls-1" cx="267.33" cy="268.98" r="2.83"/><circle id="ID_198" data-name="ID 198" class="cls-1" cx="375.24" cy="151.9" r="2.83"/><circle id="ID_199" data-name="ID 199" class="cls-1" cx="483.15" cy="266.56" r="2.83"/><line class="cls-2" x1="286.97" y1="235.61" x2="301.14" y2="235.61"/><line class="cls-2" x1="294.05" y1="242.7" x2="294.05" y2="228.52"/></g><text class="cls-3" transform="translate(114.48 562.27)">Elephant42</text><line class="cls-4" x1="171.94" y1="473.98" x2="138.86" y2="551.05"/><rect id="border" class="cls-4" x="0.25" y="0.25" width="751.18" height="565.7"/></g></g></g></svg>