<svg xmlns="http://www.w3.org/2000/svg" viewBox="0 0 751.68 566.2"><defs><style>.cls-1,.cls-2,.cls-4{fill:none;stroke:#000;}.cls-1{stroke-miterlimit:11.34;}.cls-2{stroke-linecap:round;stroke-linejoin:round;}.cls-3{font-size:10px;font-family:FiraSansCondensed-Medium, Fira Sans Condensed;font-weight:500;}.cls-4{stroke-miterlimit:10;stroke-width:0.5px;}</style></defs><g id="Layer_2" data-name="Layer 2"><g id="main"><g id="ergoslab"><polygon class="cls-1" points="382.61 385.15 382.61 387.99 380.34 387.99 380.34 396.78 382.61 396.78 382.61 413.22 380.34 413.22 380.34 422 382.61 422 382.61 424.84 422.29 424.84 422.29 422 424.56 422 424.56 413.22 422.29 413.22 422.29 396.78 424.56 396.78 424.56 387.99 422.29 387.99 422.29 385.15 382.61 385.15"/><polygon class="cls-1" points="328.61 385.15 328.61 387.99 326.34 387.99 326.34 396.78 328.61 396.78 328.61 413.22 326.34 413.22 326.34 422 328.61 422 328.61 424.84 368.29 424.84 368.29 422 370.56 422 370.56 413.22 368.29 413.22 368.29 396.78 370.56 396.78 370.56 387.99 368.29 387.99 368.29 385.15 328.61 385.15"/><polygon class="cls-1" points="274.61 385.15 274.61 387.99 272.34 387.99 272.34 396.78 274.61 396.78 274.61 413.22 272.34 413.22 272.34 422 274.61 422 274.61 424.84 314.29 424.84 314.29 422 316.56 422 316.56 413.22 314.29 413.22 314.29 396.78 316.56 396.78 316.56 387.99 314.29 387.99 314.29 385.15 274.61 385.15"/><polygon class="cls-1" points="220.61 385.15 220.61 387.99 218.34 387.99 218.34 396.78 220.61 396.78 220.61 413.22 218.34 413.22 218.34 422 220.61 422 220.61 424.84 260.29 424.84 260.29 422 262.56 422 262.56 413.22 260.29 413.22 260.29 396.78 262.56 396.78 262.56 387.99 260.29 387.99 260.29 385.15 220.61 385.15"/><polygon class="cls-1" points="166.61 385.15 166.61 387.99 164.34 387.99 164.34 396.78 166.61 396.78 166.61 413.22 164.34 413.22 164.34 422 166.61 422 166.61 424.84 206.29 424.84 206.29 422 208.56 422 208.56 413.22 206.29 413.22 206.29 396.78 208.56 396.78 208.56 387.99 206.29 387.99 206.29 385.15 166.61 385.15"/><polygon class="cls-1" points="436.61 351.4 436.61 354.24 434.34 354.24 434.34 363.03 436.61 363.03 436.61 379.47 434.34 379.47 434.34 388.25 436.61 388.25 436.61 391.09 476.29 391.09 476.29 388.25 478.56 388.25 478.56 379.47 476.29 379.47 476.29 363.03 478.56 363.03 478.56 354.24 476.29 354.24 476.29 351.4 436.61 351.4"/><polygon class="cls-1" points="220.61 331.15 220.61 333.99 218.34 333.99 218.34 342.78 220.61 342.78 220.61 359.22 218.34 359.22 218.34 368 220.61 368 220.61 370.84 260.29 370.84 260.29 368 262.56 368 262.56 359.22 260.29 359.22 260.29 342.78 262.56 342.78 262.56 333.99 260.29 333.99 260.29 331.15 220.61 331.15"/><polygon class="cls-1" points="166.61 331.15 166.61 333.99 164.34 333.99 164.34 342.78 166.61 342.78 166.61 359.22 164.34 359.22 164.34 368 166.61 368 166.61 370.84 206.29 370.84 206.29 368 208.56 368 208.56 359.22 206.29 359.22 206.29 342.78 208.56 342.78 208.56 333.99 206.29 333.99 206.29 331.15 166.61 331.15"/><polygon class="cls-1" points="382.61 324.4 382.61 327.24 380.34 327.24 380.34 336.03 382.61 336.03 382.61 352.47 380.34 352.47 380.34 361.25 382.61 361.25 382.61 364.09 422.29 364.09 422.29 361.25 424.56 361.25 424.56 352.47 422.29 352.47 422.29 336.03 424.56 336.03 424.56 327.24 422.29 327.24 422.29 324.4 382.61 324.4"/><polygon class="cls-1" points="274.61 324.4 274.61 327.24 272.34 327.24 272.34 336.03 274.61 336.03 274.61 352.47 272.34 352.47 272.34 361.25 274.61 361.25 274.61 364.09 314.29 364.09 314.29 361.25 316.56 361.25 316.56 352.47 314.29 352.47 314.29 336.03 316.56 336.03 316.56 327.24 314.29 327.24 314.29 324.4 274.61 324.4"/><polygon class="cls-1" points="328.61 317.65 328.61 320.49 326.34 320.49 326.34 329.27 328.61 329.27 328.61 345.72 326.34 345.72 326.34 354.5 328.61 354.5 328.61 357.34 368.29 357.34 368.29 354.5 370.56 354.5 370.56 345.72 368.29 345.72 368.29 329.27 370.56 329.27 370.56 320.49 368.29 320.49 368.29 317.65 328.61 317.65"/><polygon class="cls-1" points="436.61 297.4 436.61 300.24 434.34 300.24 434.34 309.03 436.61 309.03 436.61 325.47 434.34 325.47 434.34 334.25 436.61 334.25 436.61 337.09 476.29 337.09 476.29 334.25 478.56 334.25 478.56 325.47 476.29 325.47 476.29 309.03 478.56 309.03 478.56 300.24 476.29 300.24 476.29 297.4 436.61 297.4"/><polygon class="cls-1" points="220.61 277.15 220.61 279.99 218.34 279.99 218.34 288.78 220.61 288.78 220.61 305.22 218.34 305.22 218.34 314 220.61 314 220.61 316.84 260.29 316.84 260.29 314 262.56 314 262.56 305.22 260.29 305.22 260.29 288.78 262.56 288.78 262.56 279.99 260.29 279.99 260.29 277.15 220.61 277.15"/><polygon class="cls-1" points="382.61 270.4 382.61 273.24 380.34 273.24 380.34 282.03 382.61 282.03 382.61 298.47 380.34 298.47 380.34 307.25 382.61 307.25 382.61 310.09 422.29 310.09 422.29 307.25 424.56 307.25 424.56 298.47 422.29 298.47 422.29 282.03 424.56 282.03 424.56 273.24 422.29 273.24 422.29 270.4 382.61 270.4"/><polygon class="cls-1" points="274.61 270.4 274.61 273.24 272.34 273.24 272.34 282.03 274.61 282.03 274.61 298.47 272.34 298.47 272.34 307.25 274.61 307.25 274.61 310.09 314.29 310.09 314.29 307.25 316.56 307.25 316.56 298.47 314.29 298.47 314.29 282.03 316.56 282.03 316.56 273.24 314.29 273.24 314.29 270.4 274.61 270.4"/><polygon class="cls-1" points="328.61 263.65 328.61 266.49 326.34 266.49 326.34 275.28 328.61 275.28 328.61 291.72 326.34 291.72 326.34 300.5 328.61 300.5 328.61 303.34 368.29 303.34 368.29 300.5 370.56 300.5 370.56 291.72 368.29 291.72 368.29 275.28 370.56 275.28 370.56 266.49 368.29 266.49 368.29 263.65 328.61 263.65"/><polygon class="cls-1" points="436.61 243.4 436.61 246.24 434.34 246.24 434.34 255.03 436.61 255.03 436.61 271.47 434.34 271.47 434.34 280.25 436.61 280.25 436.61 283.09 476.29 283.09 476.29 280.25 478.56 280.25 478.56 271.47 476.29 271.47 476.29 255.03 478.56 255.03 478.56 246.24 476.29 246.24 476.29 243.4 436.61 243.4"/><polygon class="cls-1" points="220.61 223.15 220.61 225.99 218.34 225.99 218.34 234.78 220.61 234.78 220.61 251.22 218.34 251.22 218.34 260 220.61 260 220.61 262.84 260.29 262.84 260.29 260 262.56 260 262.56 251.22 260.29 251.22 260.29 234.78 262.56 234.78 262.56 225.99 260.29 225.99 260.29 223.15 220.61 223.15"/><polygon class="cls-1" points="382.61 216.4 382.61 219.24 380.34 219.24 380.34 228.03 382.61 228.03 382.61 244.47 380.34 244.47 380.34 253.25 382.61 253.25 382.61 256.09 422.29 256.09 422.29 253.25 424.56 253.25 424.56 244.47 422.29 244.47 422.29 228.03 424.56 228.03 424.56 219.24 422.29 219.24 422.29 216.4 382.61 216.4"/><polygon class="cls-1" points="274.61 216.4 274.61 219.24 272.34 219.24 272.34 228.03 274.61 228.03 274.61 244.47 272.34 244.47 272.34 253.25 274.61 253.25 274.61 256.09 314.29 256.09 314.29 253.25 316.56 253.25 316.56 244.47 314.29 244.47 314.29 228.03 316.56 228.03 316.56 219.24 314.29 219.24 314.29 216.4 274.61 216.4"/><polygon class="cls-1" points="328.61 209.66 328.61 212.49 326.34 212.49 326.34 221.28 328.61 221.28 328.61 237.72 326.34 237.72 326.34 246.5 328.61 246.5 328.61 249.34 368.29 249.34 368.29 246.5 370.56 246.5 370.56 237.72 368.29 237.72 368.29 221.28 370.56 221.28 370.56 212.49 368.29 212.49 368.29 209.66 328.61 209.66"/><polygon class="cls-1" points="436.61 189.4 436.61 192.24 434.34 192.24 434.34 201.03 436.61 201.03 436.61 217.47 434.34 217.47 434.34 226.25 436.61 226.25 436.61 229.09 476.29 229.09 476.29 226.25 478.56 226.25 478.56 217.47 476.29 217.47 476.29 201.03 478.56 201.03 478.56 192.24 476.29 192.24 476.29 189.4 436.61 189.4"/><polygon class="cls-1" points="220.61 169.15 220.61 171.99 218.34 171.99 218.34 180.78 220.61 180.78 220.61 197.22 218.34 197.22 218.34 206 220.61 206 220.61 208.84 260.29 208.84 260.29 206 262.56 206 262.56 197.22 260.29 197.22 260.29 180.78 262.56 180.78 262.56 171.99 260.29 171.99 260.29 169.15 220.61 169.15"/><polygon class="cls-1" points="382.61 162.4 382.61 165.24 380.34 165.24 380.34 174.03 382.61 174.03 382.61 190.47 380.34 190.47 380.34 199.25 382.61 199.25 382.61 202.09 422.29 202.09 422.29 199.25 424.56 199.25 424.56 190.47 422.29 190.47 422.29 174.03 424.56 174.03 424.56 165.24 422.29 165.24 422.29 162.4 382.61 162.4"/><polygon class="cls-1" points="274.61 162.4 274.61 165.24 272.34 165.24 272.34 174.03 274.61 174.03 274.61 190.47 272.34 190.47 272.34 199.25 274.61 199.25 274.61 202.09 314.29 202.09 314.29 199.25 316.56 199.25 316.56 190.47 314.29 190.47 314.29 174.03 316.56 174.03 316.56 165.24 314.29 165.24 314.29 162.4 274.61 162.4"/><polygon class="cls-1" points="328.61 155.66 328.61 158.49 326.34 158.49 326.34 167.28 328.61 167.28 328.61 183.72 326.34 183.72 326.34 192.5 328.61 192.5 328.61 195.34 368.29 195.34 368.29 192.5 370.56 192.5 370.56 183.72 368.29 183.72 368.29 167.28 370.56 167.28 370.56 158.49 368.29 158.49 368.29 155.66 328.61 155.66"/><line class="cls-2" x1="287.33" y1="236.13" x2="301.5" y2="236.13"/><line class="cls-2" x1="294.42" y1="243.22" x2="294.42" y2="229.04"/><text class="cls-3" transform="translate(369.49 486.45)">Ergoslab</text><line class="cls-4" x1="382.61" y1="424.84" x2="381.81" y2="475.87"/><rect id="border" class="cls-4" x="0.25" y="0.25" width="751.18" height="565.7"/></g></g></g></svg>