<svg xmlns="http://www.w3.org/2000/svg" viewBox="0 0 751.68 566.2"><defs><style>.cls-1,.cls-2,.cls-4{fill:none;stroke:#000;}.cls-1{stroke-linecap:round;}.cls-1,.cls-2{stroke-linejoin:round;}.cls-3{font-size:10px;font-family:FiraSansCondensed-Medium, Fira Sans Condensed;font-weight:500;}.cls-4{stroke-miterlimit:10;stroke-width:0.5px;}</style></defs><g id="Layer_2" data-name="Layer 2"><g id="main"><g id="ergodash2"><g id="ergodash2-2" data-name="ergodash2"><line class="cls-1" x1="328.49" y1="324.27" x2="328.49" y2="317.55"/><polyline class="cls-1" points="422.21 270.27 382.49 270.27 382.49 309.99 422.21 309.99 422.21 270.27"/><polyline class="cls-1" points="422.21 216.27 382.49 216.27 382.49 255.99 422.21 255.99 422.21 216.27"/><polyline class="cls-1" points="490.49 283.77 530.21 283.77 530.21 323.49 490.49 323.49 490.49 283.77"/><polyline class="cls-1" points="490.49 121.77 530.21 121.77 530.21 161.49 490.49 161.49 490.49 121.77"/><polyline class="cls-1" points="260.21 115.05 220.49 115.05 220.49 154.71 260.21 154.71 260.21 115.05"/><polyline class="cls-1" points="490.49 175.77 530.21 175.77 530.21 215.49 490.49 215.49 490.49 175.77"/><polyline class="cls-1" points="490.49 229.77 530.21 229.77 530.21 269.49 490.49 269.49 490.49 229.77"/><polyline class="cls-1" points="476.21 121.77 436.49 121.77 436.49 161.49 476.21 161.49 476.21 121.77"/><polyline class="cls-1" points="476.21 175.77 436.49 175.77 436.49 215.49 476.21 215.49 476.21 175.77"/><polyline class="cls-1" points="476.21 229.77 436.49 229.77 436.49 269.49 476.21 269.49 476.21 229.77"/><polyline class="cls-1" points="476.21 283.77 436.49 283.77 436.49 323.49 476.21 323.49 476.21 283.77"/><polyline class="cls-1" points="382.49 108.27 422.21 108.27 422.21 147.99 382.49 147.99 382.49 108.27"/><polyline class="cls-1" points="382.49 162.27 422.21 162.27 422.21 201.99 382.49 201.99 382.49 162.27"/><polyline class="cls-1" points="368.21 101.55 328.49 101.55 328.49 141.21 368.21 141.21 368.21 101.55"/><polyline class="cls-1" points="368.21 155.55 328.49 155.55 328.49 195.21 368.21 195.21 368.21 155.55"/><polyline class="cls-1" points="368.21 209.55 328.49 209.55 328.49 249.21 368.21 249.21 368.21 209.55"/><polyline class="cls-1" points="368.21 263.55 328.49 263.55 328.49 303.21 368.21 303.21 368.21 263.55"/><polyline class="cls-1" points="314.21 108.27 274.49 108.27 274.49 147.99 314.21 147.99 314.21 108.27"/><polyline class="cls-1" points="314.21 162.27 274.49 162.27 274.49 201.99 314.21 201.99 314.21 162.27"/><polyline class="cls-1" points="314.21 216.27 274.49 216.27 274.49 255.99 314.21 255.99 314.21 216.27"/><polyline class="cls-1" points="314.21 270.27 274.49 270.27 274.49 309.99 314.21 309.99 314.21 270.27"/><polyline class="cls-1" points="220.49 169.05 260.21 169.05 260.21 208.71 220.49 208.71 220.49 169.05"/><polyline class="cls-1" points="220.49 223.05 260.21 223.05 260.21 262.71 220.49 262.71 220.49 223.05"/><polyline class="cls-1" points="220.49 277.05 260.21 277.05 260.21 316.71 220.49 316.71 220.49 277.05"/><polyline class="cls-1" points="206.21 142.05 166.49 142.05 166.49 181.71 206.21 181.71 206.21 142.05"/><polyline class="cls-1" points="206.21 196.05 166.49 196.05 166.49 235.71 206.21 235.71 206.21 196.05"/><polyline class="cls-1" points="206.21 250.05 166.49 250.05 166.49 289.71 206.21 289.71 206.21 250.05"/><polyline class="cls-1" points="490.49 337.77 530.21 337.77 530.21 377.49 490.49 377.49 490.49 337.77"/><polyline class="cls-1" points="476.21 337.77 436.49 337.77 436.49 377.49 476.21 377.49 476.21 337.77"/><polyline class="cls-1" points="382.49 324.27 422.21 324.27 422.21 363.99 382.49 363.99 382.49 324.27"/><polyline class="cls-1" points="289.97 364.89 270.17 330.51 235.79 350.37 255.65 384.75 289.97 364.89"/><polyline class="cls-1" points="328.49 317.55 368.21 317.55 368.21 357.21 346.61 357.21 346.61 363.99 306.89 363.99 306.89 324.27 328.49 324.27"/><path class="cls-1" d="M480.61,168.78a2.77,2.77,0,1,0,2.77-2.76A2.76,2.76,0,0,0,480.61,168.78Z"/><circle class="cls-1" cx="375.38" cy="209.1" r="2.76"/><path class="cls-1" d="M390.25,98.22A2.77,2.77,0,1,0,393,95.46,2.76,2.76,0,0,0,390.25,98.22Z"/><circle class="cls-1" cx="483.38" cy="331.5" r="2.76"/><path class="cls-1" d="M371.17,309.9a2.77,2.77,0,1,0,2.77-2.76A2.76,2.76,0,0,0,371.17,309.9Z"/><path class="cls-1" d="M227.53,330.78A2.77,2.77,0,1,0,230.3,328,2.76,2.76,0,0,0,227.53,330.78Z"/><path class="cls-1" d="M210.61,161.58a2.77,2.77,0,1,0,2.77-2.76A2.77,2.77,0,0,0,210.61,161.58Z"/><path class="cls-1" d="M146.92,323.46a2.77,2.77,0,1,0,2.77-2.76A2.76,2.76,0,0,0,146.92,323.46Z"/><polygon class="cls-2" points="200.62 318.1 196.4 310.79 162.04 330.63 208.87 411.73 243.23 391.89 239.03 384.62 240.88 383.55 236.21 375.45 234.35 376.52 205.3 326.2 207.15 325.13 202.47 317.03 200.62 318.1"/><polygon class="cls-2" points="153.85 345.1 149.63 337.79 115.27 357.63 162.1 438.73 196.46 418.89 192.26 411.62 194.11 410.55 189.44 402.45 187.58 403.52 158.53 353.2 160.38 352.13 155.7 344.03 153.85 345.1"/><path class="cls-1" d="M158,289.3a17.31,17.31,0,0,1-3.76,9.9l-45.58,51.37a8.39,8.39,0,0,0-.92,9.15l48.86,84.41a5.7,5.7,0,0,0,7.76,2.07l100.32-57.88a25.13,25.13,0,0,1,10.58-2.83H532.35a5.68,5.68,0,0,0,5.67-5.67V118.75a7.45,7.45,0,0,0-5.53-6.92L381.91,78a62,62,0,0,0-11.2-1.24H272A21,21,0,0,0,261.68,80L236.4,97.9a21,21,0,0,1-10.3,3.28H186.42a11.94,11.94,0,0,0-8.84,4.7l-16.47,24.43A21.91,21.91,0,0,0,158,140.68V289.42"/><line class="cls-1" x1="287.26" y1="236.13" x2="301.43" y2="236.13"/><line class="cls-1" x1="294.35" y1="243.22" x2="294.35" y2="229.04"/></g><text class="cls-3" transform="translate(3.29 74.15)">Ergodash 2</text><line class="cls-4" x1="176.4" y1="107.97" x2="54.42" y2="72.68"/><rect id="border" class="cls-4" x="0.25" y="0.25" width="751.18" height="565.7"/></g></g></g></svg>