<svg xmlns="http://www.w3.org/2000/svg" viewBox="0 0 751.68 566.2"><defs><style>.cls-1,.cls-3{fill:none;stroke:#000;}.cls-1{stroke-linecap:round;stroke-linejoin:round;}.cls-2{font-size:10px;font-family:FiraSansCondensed-Medium, Fira Sans Condensed;font-weight:500;}.cls-3{stroke-miterlimit:10;stroke-width:0.5px;}</style></defs><g id="Layer_2" data-name="Layer 2"><g id="main"><g id="ergodox"><g id="ergodox-2" data-name="ergodox"><g id="LWPOLYLINE"><path class="cls-1" d="M217.72,27.49v4.27h-9.94V41.82h-8.52V64.43h8.51v5.69h36.27V61.46h8.51V38.86h-8.51v-7.1h-9.29V27.49h1.58L275.77,13H330l26.36,14.52h4.26V38.86h-7.93V52.08H318.56V88.57H432.81v5.68h93.12V38.86H382.46V27.49h4.26L413.15,13H570.84A19.92,19.92,0,0,1,590.72,33V386.48a19.85,19.85,0,0,1-19.88,19.72H351.73a20.7,20.7,0,0,0-8.41,1.87l-226,105.37a19.88,19.88,0,0,1-26.43-9.62L17.12,345.65a19.88,19.88,0,0,1,9.62-26.42L121.64,275a19.87,19.87,0,0,0,11.49-18V32.85A19.88,19.88,0,0,1,153,13h23.05l39.42,14.52Z"/></g><g id="LWPOLYLINE-2" data-name="LWPOLYLINE"><polygon class="cls-1" points="206 114.46 206 111.67 166.32 111.67 166.32 114.46 164.01 114.46 164.01 124.4 166.32 124.4 166.32 138.63 164.01 138.63 164.01 148.57 166.32 148.57 166.32 151.36 206 151.36 206 148.57 208.31 148.57 208.31 138.63 206 138.63 206 124.4 208.31 124.4 208.31 114.46 206 114.46"/></g><g id="CIRCLE"><path class="cls-1" d="M146.68,30.76A4.26,4.26,0,1,1,150.94,35a4.26,4.26,0,0,1-4.26-4.26Z"/></g><g id="CIRCLE-2" data-name="CIRCLE"><path class="cls-1" d="M298.6,25.6a4.27,4.27,0,1,1,4.27,4.26,4.26,4.26,0,0,1-4.27-4.26Z"/></g><g id="CIRCLE-3" data-name="CIRCLE"><path class="cls-1" d="M568.67,30.76A4.26,4.26,0,1,1,572.93,35a4.26,4.26,0,0,1-4.26-4.26Z"/></g><g id="CIRCLE-4" data-name="CIRCLE"><path class="cls-1" d="M568.67,383.9a4.26,4.26,0,1,1,4.26,4.26,4.26,4.26,0,0,1-4.26-4.26Z"/></g><g id="CIRCLE-5" data-name="CIRCLE"><path class="cls-1" d="M340.26,393.58a4.26,4.26,0,1,1,4.26,4.26,4.26,4.26,0,0,1-4.26-4.26Z"/></g><g id="CIRCLE-6" data-name="CIRCLE"><path class="cls-1" d="M103.62,498.2a4.27,4.27,0,1,1,4.27,4.26,4.27,4.27,0,0,1-4.27-4.26Z"/></g><g id="CIRCLE-7" data-name="CIRCLE"><path class="cls-1" d="M28.1,336.24a4.26,4.26,0,1,1,4.26,4.26,4.26,4.26,0,0,1-4.26-4.26Z"/></g><g id="LWPOLYLINE-3" data-name="LWPOLYLINE"><polygon class="cls-1" points="281.35 84.02 297.68 67.69 269.56 39.57 256.07 53.06 256.07 58.73 281.35 84.02"/></g><g id="CIRCLE-8" data-name="CIRCLE"><path class="cls-1" d="M371.16,206.77a4.33,4.33,0,1,1,4.33,4.33,4.33,4.33,0,0,1-4.33-4.33Z"/></g><g id="CIRCLE-9" data-name="CIRCLE"><path class="cls-1" d="M129.3,417.68a4.33,4.33,0,1,1,4.33,4.33,4.33,4.33,0,0,1-4.33-4.33Z"/></g><g id="LWPOLYLINE-4" data-name="LWPOLYLINE"><rect class="cls-1" x="130.22" y="367.93" width="39.68" height="9.38" transform="translate(-143.44 98.35) rotate(-25)"/></g><g id="LWPOLYLINE-5" data-name="LWPOLYLINE"><rect class="cls-1" x="158.89" y="429.4" width="39.68" height="9.38" transform="translate(-166.71 116.2) rotate(-25)"/></g><g id="LWPOLYLINE-6" data-name="LWPOLYLINE"><rect class="cls-1" x="204" y="408.36" width="39.68" height="9.38" transform="translate(-153.61 133.33) rotate(-25)"/></g><g id="LWPOLYLINE-7" data-name="LWPOLYLINE"><rect class="cls-1" x="175.34" y="346.89" width="39.68" height="9.38" transform="translate(-130.29 115.42) rotate(-25)"/></g><g id="LWPOLYLINE-8" data-name="LWPOLYLINE"><polygon class="cls-1" points="504.53 279.42 504.53 282.21 502.23 282.21 502.23 292.15 504.53 292.15 504.53 306.38 502.23 306.38 502.23 316.32 504.53 316.32 504.53 319.11 544.22 319.11 544.22 316.32 546.53 316.32 546.53 306.38 544.22 306.38 544.22 292.15 546.53 292.15 546.53 282.21 544.22 282.21 544.22 279.42 504.53 279.42"/></g><g id="LWPOLYLINE-9" data-name="LWPOLYLINE"><polygon class="cls-1" points="504.53 225.31 504.53 228.09 502.23 228.09 502.23 238.04 504.53 238.04 504.53 252.26 502.23 252.26 502.23 262.21 504.53 262.21 504.53 264.99 544.22 264.99 544.22 262.21 546.53 262.21 546.53 252.26 544.22 252.26 544.22 238.04 546.53 238.04 546.53 228.09 544.22 228.09 544.22 225.31 504.53 225.31"/></g><g id="LWPOLYLINE-10" data-name="LWPOLYLINE"><polygon class="cls-1" points="504.53 171.19 504.53 173.98 502.23 173.98 502.23 183.92 504.53 183.92 504.53 198.15 502.23 198.15 502.23 208.09 504.53 208.09 504.53 210.88 544.22 210.88 544.22 208.09 546.53 208.09 546.53 198.15 544.22 198.15 544.22 183.92 546.53 183.92 546.53 173.98 544.22 173.98 544.22 171.19 504.53 171.19"/></g><g id="LWPOLYLINE-11" data-name="LWPOLYLINE"><polygon class="cls-1" points="504.53 117.09 504.53 119.87 502.23 119.87 502.23 129.81 504.53 129.81 504.53 144.04 502.23 144.04 502.23 153.99 504.53 153.99 504.53 156.77 544.22 156.77 544.22 153.99 546.53 153.99 546.53 144.04 544.22 144.04 544.22 129.81 546.53 129.81 546.53 119.87 544.22 119.87 544.22 117.09 504.53 117.09"/></g><g id="LWPOLYLINE-12" data-name="LWPOLYLINE"><polygon class="cls-1" points="220.43 111.67 220.43 114.46 218.12 114.46 218.12 124.4 220.43 124.4 220.43 138.63 218.12 138.63 218.12 148.57 220.43 148.57 220.43 151.36 260.12 151.36 260.12 148.57 262.42 148.57 262.42 138.63 260.12 138.63 260.12 124.4 262.42 124.4 262.42 114.46 260.12 114.46 260.12 111.67 220.43 111.67"/></g><g id="LWPOLYLINE-13" data-name="LWPOLYLINE"><polygon class="cls-1" points="382.77 162.17 382.77 164.96 380.47 164.96 380.47 174.9 382.77 174.9 382.77 189.13 380.47 189.13 380.47 199.07 382.77 199.07 382.77 201.86 422.46 201.86 422.46 199.07 424.77 199.07 424.77 189.13 422.46 189.13 422.46 174.9 424.77 174.9 424.77 164.96 422.46 164.96 422.46 162.17 382.77 162.17"/></g><g id="LWPOLYLINE-14" data-name="LWPOLYLINE"><polygon class="cls-1" points="152.84 430.64 155.36 429.46 156.34 431.55 165.35 427.35 164.38 425.26 177.27 419.25 178.24 421.34 187.25 417.13 186.28 415.04 188.81 413.87 172.03 377.9 169.5 379.08 168.53 376.99 159.52 381.19 160.49 383.28 147.6 389.29 146.63 387.2 137.61 391.4 138.59 393.5 136.06 394.67 152.84 430.64"/></g><g id="LWPOLYLINE-15" data-name="LWPOLYLINE"><polygon class="cls-1" points="201.88 407.77 204.41 406.59 205.38 408.68 214.39 404.48 213.42 402.39 226.31 396.38 227.28 398.47 236.3 394.26 235.32 392.17 237.85 390.99 221.07 355.02 218.55 356.21 217.57 354.12 208.56 358.32 209.53 360.41 196.64 366.42 195.67 364.33 186.66 368.53 187.63 370.63 185.1 371.8 201.88 407.77"/></g><g id="LWPOLYLINE-16" data-name="LWPOLYLINE"><polygon class="cls-1" points="274.55 324.52 274.55 327.3 272.24 327.3 272.24 337.25 274.55 337.25 274.55 351.48 272.24 351.48 272.24 361.42 274.55 361.42 274.55 364.2 314.23 364.2 314.23 361.42 316.54 361.42 316.54 351.48 314.23 351.48 314.23 337.25 316.54 337.25 316.54 327.3 314.23 327.3 314.23 324.52 274.55 324.52"/></g><g id="LWPOLYLINE-17" data-name="LWPOLYLINE"><polygon class="cls-1" points="328.66 319.98 328.66 322.77 326.35 322.77 326.35 332.71 328.66 332.71 328.66 346.94 326.35 346.94 326.35 356.88 328.66 356.88 328.66 359.67 368.35 359.67 368.35 356.88 370.65 356.88 370.65 346.94 368.35 346.94 368.35 332.71 370.65 332.71 370.65 322.77 368.35 322.77 368.35 319.98 328.66 319.98"/></g><g id="LWPOLYLINE-18" data-name="LWPOLYLINE"><polygon class="cls-1" points="436.89 333.54 436.89 336.32 434.58 336.32 434.58 346.27 436.89 346.27 436.89 360.5 434.58 360.5 434.58 370.44 436.89 370.44 436.89 373.22 476.57 373.22 476.57 370.44 478.88 370.44 478.88 360.5 476.57 360.5 476.57 346.27 478.88 346.27 478.88 336.32 476.57 336.32 476.57 333.54 436.89 333.54"/></g><g id="LWPOLYLINE-19" data-name="LWPOLYLINE"><polygon class="cls-1" points="220.43 274.01 220.43 276.8 218.12 276.8 218.12 286.74 220.43 286.74 220.43 300.97 218.12 300.97 218.12 310.91 220.43 310.91 220.43 313.7 260.12 313.7 260.12 310.91 262.42 310.91 262.42 300.97 260.12 300.97 260.12 286.74 262.42 286.74 262.42 276.8 260.12 276.8 260.12 274.01 220.43 274.01"/></g><g id="LWPOLYLINE-20" data-name="LWPOLYLINE"><polygon class="cls-1" points="274.55 270.4 274.55 273.19 272.24 273.19 272.24 283.13 274.55 283.13 274.55 297.36 272.24 297.36 272.24 307.3 274.55 307.3 274.55 310.09 314.23 310.09 314.23 307.3 316.54 307.3 316.54 297.36 314.23 297.36 314.23 283.13 316.54 283.13 316.54 273.19 314.23 273.19 314.23 270.4 274.55 270.4"/></g><g id="LWPOLYLINE-21" data-name="LWPOLYLINE"><polygon class="cls-1" points="328.66 265.87 328.66 268.65 326.35 268.65 326.35 278.59 328.66 278.59 328.66 292.82 326.35 292.82 326.35 302.76 328.66 302.76 328.66 305.55 368.35 305.55 368.35 302.76 370.65 302.76 370.65 292.82 368.35 292.82 368.35 278.59 370.65 278.59 370.65 268.65 368.35 268.65 368.35 265.87 328.66 265.87"/></g><g id="LWPOLYLINE-22" data-name="LWPOLYLINE"><polygon class="cls-1" points="382.77 270.4 382.77 273.19 380.47 273.19 380.47 283.13 382.77 283.13 382.77 297.36 380.47 297.36 380.47 307.3 382.77 307.3 382.77 310.09 422.46 310.09 422.46 307.3 424.77 307.3 424.77 297.36 422.46 297.36 422.46 283.13 424.77 283.13 424.77 273.19 422.46 273.19 422.46 270.4 382.77 270.4"/></g><g id="LWPOLYLINE-23" data-name="LWPOLYLINE"><polygon class="cls-1" points="436.89 279.42 436.89 282.21 434.58 282.21 434.58 292.15 436.89 292.15 436.89 306.38 434.58 306.38 434.58 316.32 436.89 316.32 436.89 319.11 476.57 319.11 476.57 316.32 478.88 316.32 478.88 306.38 476.57 306.38 476.57 292.15 478.88 292.15 478.88 282.21 476.57 282.21 476.57 279.42 436.89 279.42"/></g><g id="LWPOLYLINE-24" data-name="LWPOLYLINE"><polygon class="cls-1" points="220.43 219.9 220.43 222.68 218.12 222.68 218.12 232.63 220.43 232.63 220.43 246.85 218.12 246.85 218.12 256.8 220.43 256.8 220.43 259.58 260.12 259.58 260.12 256.8 262.42 256.8 262.42 246.85 260.12 246.85 260.12 232.63 262.42 232.63 262.42 222.68 260.12 222.68 260.12 219.9 220.43 219.9"/></g><g id="LWPOLYLINE-25" data-name="LWPOLYLINE"><polygon class="cls-1" points="274.55 216.29 274.55 219.07 272.24 219.07 272.24 229.02 274.55 229.02 274.55 243.25 272.24 243.25 272.24 253.19 274.55 253.19 274.55 255.97 314.23 255.97 314.23 253.19 316.54 253.19 316.54 243.25 314.23 243.25 314.23 229.02 316.54 229.02 316.54 219.07 314.23 219.07 314.23 216.29 274.55 216.29"/></g><g id="LWPOLYLINE-26" data-name="LWPOLYLINE"><polygon class="cls-1" points="328.66 211.75 328.66 214.54 326.35 214.54 326.35 224.48 328.66 224.48 328.66 238.71 326.35 238.71 326.35 248.65 328.66 248.65 328.66 251.44 368.35 251.44 368.35 248.65 370.65 248.65 370.65 238.71 368.35 238.71 368.35 224.48 370.65 224.48 370.65 214.54 368.35 214.54 368.35 211.75 328.66 211.75"/></g><g id="LWPOLYLINE-27" data-name="LWPOLYLINE"><polygon class="cls-1" points="382.77 216.29 382.77 219.07 380.47 219.07 380.47 229.02 382.77 229.02 382.77 243.25 380.47 243.25 380.47 253.19 382.77 253.19 382.77 255.97 422.46 255.97 422.46 253.19 424.77 253.19 424.77 243.25 422.46 243.25 422.46 229.02 424.77 229.02 424.77 219.07 422.46 219.07 422.46 216.29 382.77 216.29"/></g><g id="LWPOLYLINE-28" data-name="LWPOLYLINE"><polygon class="cls-1" points="436.89 225.31 436.89 228.09 434.58 228.09 434.58 238.04 436.89 238.04 436.89 252.26 434.58 252.26 434.58 262.21 436.89 262.21 436.89 264.99 476.57 264.99 476.57 262.21 478.88 262.21 478.88 252.26 476.57 252.26 476.57 238.04 478.88 238.04 478.88 228.09 476.57 228.09 476.57 225.31 436.89 225.31"/></g><g id="LWPOLYLINE-29" data-name="LWPOLYLINE"><polygon class="cls-1" points="274.55 162.17 274.55 164.96 272.24 164.96 272.24 174.9 274.55 174.9 274.55 189.13 272.24 189.13 272.24 199.07 274.55 199.07 274.55 201.86 314.23 201.86 314.23 199.07 316.54 199.07 316.54 189.13 314.23 189.13 314.23 174.9 316.54 174.9 316.54 164.96 314.23 164.96 314.23 162.17 274.55 162.17"/></g><g id="LWPOLYLINE-30" data-name="LWPOLYLINE"><polygon class="cls-1" points="328.66 157.64 328.66 160.42 326.35 160.42 326.35 170.36 328.66 170.36 328.66 184.59 326.35 184.59 326.35 194.53 328.66 194.53 328.66 197.32 368.35 197.32 368.35 194.53 370.65 194.53 370.65 184.59 368.35 184.59 368.35 170.36 370.65 170.36 370.65 160.42 368.35 160.42 368.35 157.64 328.66 157.64"/></g><g id="LWPOLYLINE-31" data-name="LWPOLYLINE"><polygon class="cls-1" points="436.89 171.19 436.89 173.98 434.58 173.98 434.58 183.92 436.89 183.92 436.89 198.15 434.58 198.15 434.58 208.09 436.89 208.09 436.89 210.88 476.57 210.88 476.57 208.09 478.88 208.09 478.88 198.15 476.57 198.15 476.57 183.92 478.88 183.92 478.88 173.98 476.57 173.98 476.57 171.19 436.89 171.19"/></g><g id="LWPOLYLINE-32" data-name="LWPOLYLINE"><polygon class="cls-1" points="382.77 324.52 382.77 327.3 380.47 327.3 380.47 337.25 382.77 337.25 382.77 351.48 380.47 351.48 380.47 361.42 382.77 361.42 382.77 364.2 422.46 364.2 422.46 361.42 424.77 361.42 424.77 351.48 422.46 351.48 422.46 337.25 424.77 337.25 424.77 327.3 422.46 327.3 422.46 324.52 382.77 324.52"/></g><g id="LWPOLYLINE-33" data-name="LWPOLYLINE"><polygon class="cls-1" points="274.55 108.06 274.55 110.84 272.24 110.84 272.24 120.79 274.55 120.79 274.55 135.02 272.24 135.02 272.24 144.96 274.55 144.96 274.55 147.74 314.23 147.74 314.23 144.96 316.54 144.96 316.54 135.02 314.23 135.02 314.23 120.79 316.54 120.79 316.54 110.84 314.23 110.84 314.23 108.06 274.55 108.06"/></g><g id="LWPOLYLINE-34" data-name="LWPOLYLINE"><polygon class="cls-1" points="328.66 103.52 328.66 106.31 326.35 106.31 326.35 116.25 328.66 116.25 328.66 130.48 326.35 130.48 326.35 140.42 328.66 140.42 328.66 143.21 368.35 143.21 368.35 140.42 370.65 140.42 370.65 130.48 368.35 130.48 368.35 116.25 370.65 116.25 370.65 106.31 368.35 106.31 368.35 103.52 328.66 103.52"/></g><g id="LWPOLYLINE-35" data-name="LWPOLYLINE"><polygon class="cls-1" points="382.77 108.06 382.77 110.84 380.47 110.84 380.47 120.79 382.77 120.79 382.77 135.02 380.47 135.02 380.47 144.96 382.77 144.96 382.77 147.74 422.46 147.74 422.46 144.96 424.77 144.96 424.77 135.02 422.46 135.02 422.46 120.79 424.77 120.79 424.77 110.84 422.46 110.84 422.46 108.06 382.77 108.06"/></g><g id="LWPOLYLINE-36" data-name="LWPOLYLINE"><polygon class="cls-1" points="436.89 117.09 436.89 119.87 434.58 119.87 434.58 129.81 436.89 129.81 436.89 144.04 434.58 144.04 434.58 153.99 436.89 153.99 436.89 156.77 476.57 156.77 476.57 153.99 478.88 153.99 478.88 144.04 476.57 144.04 476.57 129.81 478.88 129.81 478.88 119.87 476.57 119.87 476.57 117.09 436.89 117.09"/></g><g id="LWPOLYLINE-37" data-name="LWPOLYLINE"><polygon class="cls-1" points="101.76 321.11 102.94 323.63 100.85 324.61 105.05 333.62 107.14 332.64 113.15 345.54 111.06 346.51 115.27 355.52 117.36 354.55 118.54 357.07 154.5 340.3 153.32 337.77 155.41 336.8 151.21 327.79 149.12 328.76 143.11 315.87 145.2 314.89 141 305.88 138.91 306.86 137.73 304.33 101.76 321.11"/></g><g id="LWPOLYLINE-38" data-name="LWPOLYLINE"><polygon class="cls-1" points="52.72 343.97 53.9 346.5 51.81 347.47 56.01 356.48 58.1 355.51 64.11 368.4 62.02 369.38 66.22 378.39 68.32 377.42 69.49 379.94 105.46 363.16 104.28 360.64 106.37 359.67 102.17 350.65 100.08 351.63 94.07 338.73 96.16 337.76 91.95 328.75 89.86 329.72 88.69 327.2 52.72 343.97"/></g><g id="LWPOLYLINE-39" data-name="LWPOLYLINE"><polygon class="cls-1" points="98.46 442.06 99.64 444.59 97.55 445.56 101.75 454.57 103.84 453.6 109.85 466.5 107.76 467.47 111.96 476.48 114.06 475.51 115.23 478.03 151.2 461.26 150.02 458.73 152.11 457.76 147.91 448.75 145.82 449.72 139.81 436.82 141.9 435.85 137.69 426.84 135.6 427.81 134.42 425.29 98.46 442.06"/></g><g id="LWPOLYLINE-40" data-name="LWPOLYLINE"><polygon class="cls-1" points="75.58 393.01 76.77 395.54 74.67 396.51 78.87 405.52 80.97 404.55 86.98 417.44 84.88 418.42 89.09 427.43 91.18 426.46 92.36 428.98 128.33 412.21 127.14 409.68 129.24 408.71 125.04 399.69 122.94 400.67 116.93 387.78 119.03 386.8 114.82 377.79 112.73 378.76 111.55 376.24 75.58 393.01"/></g><g id="LWPOLYLINE-41" data-name="LWPOLYLINE"><polygon class="cls-1" points="220.43 165.78 220.43 168.57 218.12 168.57 218.12 178.51 220.43 178.51 220.43 192.74 218.12 192.74 218.12 202.68 220.43 202.68 220.43 205.47 260.12 205.47 260.12 202.68 262.42 202.68 262.42 192.74 260.12 192.74 260.12 178.51 262.42 178.51 262.42 168.57 260.12 168.57 260.12 165.78 220.43 165.78"/></g><g id="LWPOLYLINE-42" data-name="LWPOLYLINE"><polygon class="cls-1" points="491 333.54 491 336.32 488.7 336.32 488.7 346.27 491 346.27 491 360.5 488.7 360.5 488.7 370.44 491 370.44 491 373.22 530.69 373.22 530.69 370.44 533 370.44 533 360.5 530.69 360.5 530.69 346.27 533 346.27 533 336.32 530.69 336.32 530.69 333.54 491 333.54"/></g><g id="LWPOLYLINE-43" data-name="LWPOLYLINE"><polygon class="cls-1" points="166.32 300.17 169.1 300.17 169.1 302.48 179.04 302.48 179.04 300.17 193.27 300.17 193.27 302.48 203.22 302.48 203.22 300.17 206 300.17 206 260.48 203.22 260.48 203.22 258.17 193.27 258.17 193.27 260.48 179.04 260.48 179.04 258.17 169.1 258.17 169.1 260.48 166.32 260.48 166.32 300.17"/></g><g id="LWPOLYLINE-44" data-name="LWPOLYLINE"><polygon class="cls-1" points="166.32 219 169.1 219 169.1 221.3 179.04 221.3 179.04 219 193.27 219 193.27 221.3 203.22 221.3 203.22 219 206 219 206 179.31 203.22 179.31 203.22 177 193.27 177 193.27 179.31 179.04 179.31 179.04 177 169.1 177 169.1 179.31 166.32 179.31 166.32 219"/></g><line class="cls-1" x1="287.3" y1="236.13" x2="301.47" y2="236.13"/><line class="cls-1" x1="294.39" y1="243.22" x2="294.39" y2="229.04"/></g><text class="cls-2" transform="translate(3.29 12.97)">Ergodox</text><line class="cls-3" x1="136.76" y1="21.4" x2="41.43" y2="8.21"/><rect id="border" class="cls-3" x="0.25" y="0.25" width="751.18" height="565.7"/></g></g></g></svg>