<svg xmlns="http://www.w3.org/2000/svg" viewBox="0 0 751.68 566.2"><defs><style>.cls-1,.cls-2,.cls-4{fill:none;stroke:#000;}.cls-1,.cls-2{stroke-linecap:round;stroke-linejoin:round;}.cls-1{stroke-width:0.71px;}.cls-3{font-size:10px;font-family:FiraSansCondensed-Medium, Fira Sans Condensed;font-weight:500;}.cls-4{stroke-miterlimit:10;stroke-width:0.5px;}</style></defs><g id="Layer_2" data-name="Layer 2"><g id="main"><g id="ergotravel"><g id="ergotravel-2" data-name="ergotravel"><g id="LINE"><line class="cls-1" x1="215.86" y1="345.79" x2="217.33" y2="344.94"/></g><g id="LINE-2" data-name="LINE"><line class="cls-1" x1="217.33" y1="344.94" x2="237.18" y2="379.31"/></g><g id="LINE-3" data-name="LINE"><line class="cls-1" x1="237.18" y1="379.31" x2="235.7" y2="380.16"/></g><g id="LINE-4" data-name="LINE"><line class="cls-1" x1="235.7" y1="380.16" x2="236.83" y2="382.12"/></g><g id="LINE-5" data-name="LINE"><line class="cls-1" x1="236.83" y1="382.12" x2="205.41" y2="400.26"/></g><g id="LINE-6" data-name="LINE"><line class="cls-1" x1="205.41" y1="400.26" x2="204.28" y2="398.3"/></g><g id="LINE-7" data-name="LINE"><line class="cls-1" x1="204.28" y1="398.3" x2="202.81" y2="399.15"/></g><g id="LINE-8" data-name="LINE"><line class="cls-1" x1="202.81" y1="399.15" x2="182.97" y2="364.78"/></g><g id="LINE-9" data-name="LINE"><line class="cls-1" x1="182.97" y1="364.78" x2="184.44" y2="363.93"/></g><g id="LINE-10" data-name="LINE"><line class="cls-1" x1="184.44" y1="363.93" x2="183.3" y2="361.96"/></g><g id="LINE-11" data-name="LINE"><line class="cls-1" x1="183.3" y1="361.96" x2="214.72" y2="343.82"/></g><g id="LINE-12" data-name="LINE"><line class="cls-1" x1="214.72" y1="343.82" x2="215.86" y2="345.79"/></g><g id="LINE-13" data-name="LINE"><line class="cls-1" x1="530.3" y1="337.79" x2="530.3" y2="339.49"/></g><g id="LINE-14" data-name="LINE"><line class="cls-1" x1="530.3" y1="339.49" x2="532.57" y2="339.49"/></g><g id="LINE-15" data-name="LINE"><line class="cls-1" x1="532.57" y1="339.49" x2="532.57" y2="375.78"/></g><g id="LINE-16" data-name="LINE"><line class="cls-1" x1="532.57" y1="375.78" x2="530.3" y2="375.78"/></g><g id="LINE-17" data-name="LINE"><line class="cls-1" x1="530.3" y1="375.78" x2="530.3" y2="377.48"/></g><g id="LINE-18" data-name="LINE"><line class="cls-1" x1="530.3" y1="377.48" x2="490.61" y2="377.48"/></g><g id="LINE-19" data-name="LINE"><line class="cls-1" x1="490.61" y1="377.48" x2="490.61" y2="375.78"/></g><g id="LINE-20" data-name="LINE"><line class="cls-1" x1="490.61" y1="375.78" x2="488.35" y2="375.78"/></g><g id="LINE-21" data-name="LINE"><line class="cls-1" x1="488.35" y1="375.78" x2="488.35" y2="339.49"/></g><g id="LINE-22" data-name="LINE"><line class="cls-1" x1="488.35" y1="339.49" x2="490.61" y2="339.49"/></g><g id="LINE-23" data-name="LINE"><line class="cls-1" x1="490.61" y1="339.49" x2="490.61" y2="337.79"/></g><g id="LINE-24" data-name="LINE"><line class="cls-1" x1="490.61" y1="337.79" x2="530.3" y2="337.79"/></g><g id="LINE-25" data-name="LINE"><line class="cls-1" x1="292.27" y1="328.58" x2="294.5" y2="328.19"/></g><g id="LINE-26" data-name="LINE"><line class="cls-1" x1="294.5" y1="328.19" x2="300.81" y2="363.92"/></g><g id="LINE-27" data-name="LINE"><line class="cls-1" x1="300.81" y1="363.92" x2="298.57" y2="364.32"/></g><g id="LINE-28" data-name="LINE"><line class="cls-1" x1="298.57" y1="364.32" x2="298.87" y2="365.99"/></g><g id="LINE-29" data-name="LINE"><line class="cls-1" x1="298.87" y1="365.99" x2="259.78" y2="372.88"/></g><g id="LINE-30" data-name="LINE"><line class="cls-1" x1="259.78" y1="372.88" x2="259.49" y2="371.21"/></g><g id="LINE-31" data-name="LINE"><line class="cls-1" x1="259.49" y1="371.21" x2="257.26" y2="371.6"/></g><g id="LINE-32" data-name="LINE"><line class="cls-1" x1="257.26" y1="371.6" x2="250.95" y2="335.87"/></g><g id="LINE-33" data-name="LINE"><line class="cls-1" x1="250.95" y1="335.87" x2="253.19" y2="335.47"/></g><g id="LINE-34" data-name="LINE"><line class="cls-1" x1="253.19" y1="335.47" x2="252.89" y2="333.8"/></g><g id="LINE-35" data-name="LINE"><line class="cls-1" x1="252.89" y1="333.8" x2="291.98" y2="326.91"/></g><g id="LINE-36" data-name="LINE"><line class="cls-1" x1="291.98" y1="326.91" x2="292.27" y2="328.58"/></g><g id="LINE-37" data-name="LINE"><line class="cls-1" x1="476.3" y1="331.04" x2="476.3" y2="332.74"/></g><g id="LINE-38" data-name="LINE"><line class="cls-1" x1="476.3" y1="332.74" x2="478.56" y2="332.74"/></g><g id="LINE-39" data-name="LINE"><line class="cls-1" x1="478.56" y1="332.74" x2="478.56" y2="369.03"/></g><g id="LINE-40" data-name="LINE"><line class="cls-1" x1="478.56" y1="369.03" x2="476.3" y2="369.03"/></g><g id="LINE-41" data-name="LINE"><line class="cls-1" x1="476.3" y1="369.03" x2="476.3" y2="370.73"/></g><g id="LINE-42" data-name="LINE"><line class="cls-1" x1="476.3" y1="370.73" x2="436.61" y2="370.73"/></g><g id="LINE-43" data-name="LINE"><line class="cls-1" x1="436.61" y1="370.73" x2="436.61" y2="369.03"/></g><g id="LINE-44" data-name="LINE"><line class="cls-1" x1="436.61" y1="369.03" x2="434.34" y2="369.03"/></g><g id="LINE-45" data-name="LINE"><line class="cls-1" x1="434.34" y1="369.03" x2="434.34" y2="332.74"/></g><g id="LINE-46" data-name="LINE"><line class="cls-1" x1="434.34" y1="332.74" x2="436.61" y2="332.74"/></g><g id="LINE-47" data-name="LINE"><line class="cls-1" x1="436.61" y1="332.74" x2="436.61" y2="331.04"/></g><g id="LINE-48" data-name="LINE"><line class="cls-1" x1="436.61" y1="331.04" x2="476.3" y2="331.04"/></g><g id="LINE-49" data-name="LINE"><line class="cls-1" x1="422.29" y1="324.56" x2="422.29" y2="326.27"/></g><g id="LINE-50" data-name="LINE"><line class="cls-1" x1="422.29" y1="326.27" x2="424.56" y2="326.27"/></g><g id="LINE-51" data-name="LINE"><line class="cls-1" x1="424.56" y1="326.27" x2="424.56" y2="362.55"/></g><g id="LINE-52" data-name="LINE"><line class="cls-1" x1="424.56" y1="362.55" x2="422.29" y2="362.55"/></g><g id="LINE-53" data-name="LINE"><line class="cls-1" x1="422.29" y1="362.55" x2="422.29" y2="364.25"/></g><g id="LINE-54" data-name="LINE"><line class="cls-1" x1="422.29" y1="364.25" x2="382.61" y2="364.25"/></g><g id="LINE-55" data-name="LINE"><line class="cls-1" x1="382.61" y1="364.25" x2="382.61" y2="362.55"/></g><g id="LINE-56" data-name="LINE"><line class="cls-1" x1="382.61" y1="362.55" x2="380.34" y2="362.55"/></g><g id="LINE-57" data-name="LINE"><line class="cls-1" x1="380.34" y1="362.55" x2="380.34" y2="326.27"/></g><g id="LINE-58" data-name="LINE"><line class="cls-1" x1="380.34" y1="326.27" x2="382.61" y2="326.27"/></g><g id="LINE-59" data-name="LINE"><line class="cls-1" x1="382.61" y1="326.27" x2="382.61" y2="324.56"/></g><g id="LINE-60" data-name="LINE"><line class="cls-1" x1="382.61" y1="324.56" x2="422.29" y2="324.56"/></g><g id="LINE-61" data-name="LINE"><line class="cls-1" x1="368.29" y1="317.54" x2="368.29" y2="319.24"/></g><g id="LINE-62" data-name="LINE"><line class="cls-1" x1="368.29" y1="319.24" x2="370.56" y2="319.24"/></g><g id="LINE-63" data-name="LINE"><line class="cls-1" x1="370.56" y1="319.24" x2="370.56" y2="355.53"/></g><g id="LINE-64" data-name="LINE"><line class="cls-1" x1="370.56" y1="355.53" x2="368.29" y2="355.53"/></g><g id="LINE-65" data-name="LINE"><line class="cls-1" x1="368.29" y1="355.53" x2="368.29" y2="357.23"/></g><g id="LINE-66" data-name="LINE"><line class="cls-1" x1="368.29" y1="357.23" x2="328.61" y2="357.23"/></g><g id="LINE-67" data-name="LINE"><line class="cls-1" x1="328.61" y1="357.23" x2="328.61" y2="355.53"/></g><g id="LINE-68" data-name="LINE"><line class="cls-1" x1="328.61" y1="355.53" x2="326.34" y2="355.53"/></g><g id="LINE-69" data-name="LINE"><line class="cls-1" x1="326.34" y1="355.53" x2="326.34" y2="319.24"/></g><g id="LINE-70" data-name="LINE"><line class="cls-1" x1="326.34" y1="319.24" x2="328.61" y2="319.24"/></g><g id="LINE-71" data-name="LINE"><line class="cls-1" x1="328.61" y1="319.24" x2="328.61" y2="317.54"/></g><g id="LINE-72" data-name="LINE"><line class="cls-1" x1="328.61" y1="317.54" x2="368.29" y2="317.54"/></g><g id="LINE-73" data-name="LINE"><line class="cls-1" x1="188.86" y1="299.02" x2="190.33" y2="298.17"/></g><g id="LINE-74" data-name="LINE"><line class="cls-1" x1="190.33" y1="298.17" x2="210.17" y2="332.54"/></g><g id="LINE-75" data-name="LINE"><line class="cls-1" x1="210.17" y1="332.54" x2="208.7" y2="333.39"/></g><g id="LINE-76" data-name="LINE"><line class="cls-1" x1="208.7" y1="333.39" x2="209.83" y2="335.35"/></g><g id="LINE-77" data-name="LINE"><line class="cls-1" x1="209.83" y1="335.35" x2="178.41" y2="353.49"/></g><g id="LINE-78" data-name="LINE"><line class="cls-1" x1="178.41" y1="353.49" x2="177.27" y2="351.53"/></g><g id="LINE-79" data-name="LINE"><line class="cls-1" x1="177.27" y1="351.53" x2="175.81" y2="352.38"/></g><g id="LINE-80" data-name="LINE"><line class="cls-1" x1="175.81" y1="352.38" x2="155.96" y2="318.02"/></g><g id="LINE-81" data-name="LINE"><line class="cls-1" x1="155.96" y1="318.02" x2="157.43" y2="317.16"/></g><g id="LINE-82" data-name="LINE"><line class="cls-1" x1="157.43" y1="317.16" x2="156.3" y2="315.2"/></g><g id="LINE-83" data-name="LINE"><line class="cls-1" x1="156.3" y1="315.2" x2="187.72" y2="297.06"/></g><g id="LINE-84" data-name="LINE"><line class="cls-1" x1="187.72" y1="297.06" x2="188.86" y2="299.02"/></g><g id="LINE-85" data-name="LINE"><line class="cls-1" x1="530.3" y1="283.79" x2="530.3" y2="285.49"/></g><g id="LINE-86" data-name="LINE"><line class="cls-1" x1="530.3" y1="285.49" x2="532.57" y2="285.49"/></g><g id="LINE-87" data-name="LINE"><line class="cls-1" x1="532.57" y1="285.49" x2="532.57" y2="321.77"/></g><g id="LINE-88" data-name="LINE"><line class="cls-1" x1="532.57" y1="321.77" x2="530.3" y2="321.77"/></g><g id="LINE-89" data-name="LINE"><line class="cls-1" x1="530.3" y1="321.77" x2="530.3" y2="323.48"/></g><g id="LINE-90" data-name="LINE"><line class="cls-1" x1="530.3" y1="323.48" x2="490.61" y2="323.48"/></g><g id="LINE-91" data-name="LINE"><line class="cls-1" x1="490.61" y1="323.48" x2="490.61" y2="321.77"/></g><g id="LINE-92" data-name="LINE"><line class="cls-1" x1="490.61" y1="321.77" x2="488.35" y2="321.77"/></g><g id="LINE-93" data-name="LINE"><line class="cls-1" x1="488.35" y1="321.77" x2="488.35" y2="285.49"/></g><g id="LINE-94" data-name="LINE"><line class="cls-1" x1="488.35" y1="285.49" x2="490.61" y2="285.49"/></g><g id="LINE-95" data-name="LINE"><line class="cls-1" x1="490.61" y1="285.49" x2="490.61" y2="283.79"/></g><g id="LINE-96" data-name="LINE"><line class="cls-1" x1="490.61" y1="283.79" x2="530.3" y2="283.79"/></g><g id="LINE-97" data-name="LINE"><line class="cls-1" x1="476.3" y1="277.04" x2="476.3" y2="278.74"/></g><g id="LINE-98" data-name="LINE"><line class="cls-1" x1="476.3" y1="278.74" x2="478.56" y2="278.74"/></g><g id="LINE-99" data-name="LINE"><line class="cls-1" x1="478.56" y1="278.74" x2="478.56" y2="315.03"/></g><g id="LINE-100" data-name="LINE"><line class="cls-1" x1="478.56" y1="315.03" x2="476.3" y2="315.03"/></g><g id="LINE-101" data-name="LINE"><line class="cls-1" x1="476.3" y1="315.03" x2="476.3" y2="316.73"/></g><g id="LINE-102" data-name="LINE"><line class="cls-1" x1="476.3" y1="316.73" x2="436.61" y2="316.73"/></g><g id="LINE-103" data-name="LINE"><line class="cls-1" x1="436.61" y1="316.73" x2="436.61" y2="315.03"/></g><g id="LINE-104" data-name="LINE"><line class="cls-1" x1="436.61" y1="315.03" x2="434.34" y2="315.03"/></g><g id="LINE-105" data-name="LINE"><line class="cls-1" x1="434.34" y1="315.03" x2="434.34" y2="278.74"/></g><g id="LINE-106" data-name="LINE"><line class="cls-1" x1="434.34" y1="278.74" x2="436.61" y2="278.74"/></g><g id="LINE-107" data-name="LINE"><line class="cls-1" x1="436.61" y1="278.74" x2="436.61" y2="277.04"/></g><g id="LINE-108" data-name="LINE"><line class="cls-1" x1="436.61" y1="277.04" x2="476.3" y2="277.04"/></g><g id="LINE-109" data-name="LINE"><line class="cls-1" x1="260.29" y1="277.04" x2="260.29" y2="278.74"/></g><g id="LINE-110" data-name="LINE"><line class="cls-1" x1="260.29" y1="278.74" x2="262.55" y2="278.74"/></g><g id="LINE-111" data-name="LINE"><line class="cls-1" x1="262.55" y1="278.74" x2="262.55" y2="315.03"/></g><g id="LINE-112" data-name="LINE"><line class="cls-1" x1="262.55" y1="315.03" x2="260.29" y2="315.03"/></g><g id="LINE-113" data-name="LINE"><line class="cls-1" x1="260.29" y1="315.03" x2="260.29" y2="316.73"/></g><g id="LINE-114" data-name="LINE"><line class="cls-1" x1="260.29" y1="316.73" x2="220.6" y2="316.73"/></g><g id="LINE-115" data-name="LINE"><line class="cls-1" x1="220.6" y1="316.73" x2="220.6" y2="315.03"/></g><g id="LINE-116" data-name="LINE"><line class="cls-1" x1="220.6" y1="315.03" x2="218.33" y2="315.03"/></g><g id="LINE-117" data-name="LINE"><line class="cls-1" x1="218.33" y1="315.03" x2="218.33" y2="278.74"/></g><g id="LINE-118" data-name="LINE"><line class="cls-1" x1="218.33" y1="278.74" x2="220.6" y2="278.74"/></g><g id="LINE-119" data-name="LINE"><line class="cls-1" x1="220.6" y1="278.74" x2="220.6" y2="277.04"/></g><g id="LINE-120" data-name="LINE"><line class="cls-1" x1="220.6" y1="277.04" x2="260.29" y2="277.04"/></g><g id="LINE-121" data-name="LINE"><line class="cls-1" x1="422.29" y1="270.29" x2="422.29" y2="271.99"/></g><g id="LINE-122" data-name="LINE"><line class="cls-1" x1="422.29" y1="271.99" x2="424.56" y2="271.99"/></g><g id="LINE-123" data-name="LINE"><line class="cls-1" x1="424.56" y1="271.99" x2="424.56" y2="308.28"/></g><g id="LINE-124" data-name="LINE"><line class="cls-1" x1="424.56" y1="308.28" x2="422.29" y2="308.28"/></g><g id="LINE-125" data-name="LINE"><line class="cls-1" x1="422.29" y1="308.28" x2="422.29" y2="309.98"/></g><g id="LINE-126" data-name="LINE"><line class="cls-1" x1="422.29" y1="309.98" x2="382.61" y2="309.98"/></g><g id="LINE-127" data-name="LINE"><line class="cls-1" x1="382.61" y1="309.98" x2="382.61" y2="308.28"/></g><g id="LINE-128" data-name="LINE"><line class="cls-1" x1="382.61" y1="308.28" x2="380.34" y2="308.28"/></g><g id="LINE-129" data-name="LINE"><line class="cls-1" x1="380.34" y1="308.28" x2="380.34" y2="271.99"/></g><g id="LINE-130" data-name="LINE"><line class="cls-1" x1="380.34" y1="271.99" x2="382.61" y2="271.99"/></g><g id="LINE-131" data-name="LINE"><line class="cls-1" x1="382.61" y1="271.99" x2="382.61" y2="270.29"/></g><g id="LINE-132" data-name="LINE"><line class="cls-1" x1="382.61" y1="270.29" x2="422.29" y2="270.29"/></g><g id="LINE-133" data-name="LINE"><line class="cls-1" x1="314.29" y1="270.29" x2="314.29" y2="271.99"/></g><g id="LINE-134" data-name="LINE"><line class="cls-1" x1="314.29" y1="271.99" x2="316.56" y2="271.99"/></g><g id="LINE-135" data-name="LINE"><line class="cls-1" x1="316.56" y1="271.99" x2="316.56" y2="308.28"/></g><g id="LINE-136" data-name="LINE"><line class="cls-1" x1="316.56" y1="308.28" x2="314.29" y2="308.28"/></g><g id="LINE-137" data-name="LINE"><line class="cls-1" x1="314.29" y1="308.28" x2="314.29" y2="309.98"/></g><g id="LINE-138" data-name="LINE"><line class="cls-1" x1="314.29" y1="309.98" x2="274.6" y2="309.98"/></g><g id="LINE-139" data-name="LINE"><line class="cls-1" x1="274.6" y1="309.98" x2="274.6" y2="308.28"/></g><g id="LINE-140" data-name="LINE"><line class="cls-1" x1="274.6" y1="308.28" x2="272.34" y2="308.28"/></g><g id="LINE-141" data-name="LINE"><line class="cls-1" x1="272.34" y1="308.28" x2="272.34" y2="271.99"/></g><g id="LINE-142" data-name="LINE"><line class="cls-1" x1="272.34" y1="271.99" x2="274.6" y2="271.99"/></g><g id="LINE-143" data-name="LINE"><line class="cls-1" x1="274.6" y1="271.99" x2="274.6" y2="270.29"/></g><g id="LINE-144" data-name="LINE"><line class="cls-1" x1="274.6" y1="270.29" x2="314.29" y2="270.29"/></g><g id="LINE-145" data-name="LINE"><line class="cls-1" x1="368.29" y1="263.54" x2="368.29" y2="265.24"/></g><g id="LINE-146" data-name="LINE"><line class="cls-1" x1="368.29" y1="265.24" x2="370.56" y2="265.24"/></g><g id="LINE-147" data-name="LINE"><line class="cls-1" x1="370.56" y1="265.24" x2="370.56" y2="301.53"/></g><g id="LINE-148" data-name="LINE"><line class="cls-1" x1="370.56" y1="301.53" x2="368.29" y2="301.53"/></g><g id="LINE-149" data-name="LINE"><line class="cls-1" x1="368.29" y1="301.53" x2="368.29" y2="303.23"/></g><g id="LINE-150" data-name="LINE"><line class="cls-1" x1="368.29" y1="303.23" x2="328.61" y2="303.23"/></g><g id="LINE-151" data-name="LINE"><line class="cls-1" x1="328.61" y1="303.23" x2="328.61" y2="301.53"/></g><g id="LINE-152" data-name="LINE"><line class="cls-1" x1="328.61" y1="301.53" x2="326.34" y2="301.53"/></g><g id="LINE-153" data-name="LINE"><line class="cls-1" x1="326.34" y1="301.53" x2="326.34" y2="265.24"/></g><g id="LINE-154" data-name="LINE"><line class="cls-1" x1="326.34" y1="265.24" x2="328.61" y2="265.24"/></g><g id="LINE-155" data-name="LINE"><line class="cls-1" x1="328.61" y1="265.24" x2="328.61" y2="263.54"/></g><g id="LINE-156" data-name="LINE"><line class="cls-1" x1="328.61" y1="263.54" x2="368.29" y2="263.54"/></g><g id="LINE-157" data-name="LINE"><line class="cls-1" x1="206.28" y1="236.54" x2="206.28" y2="238.24"/></g><g id="LINE-158" data-name="LINE"><line class="cls-1" x1="206.28" y1="238.24" x2="208.55" y2="238.24"/></g><g id="LINE-159" data-name="LINE"><line class="cls-1" x1="208.55" y1="238.24" x2="208.55" y2="274.53"/></g><g id="LINE-160" data-name="LINE"><line class="cls-1" x1="208.55" y1="274.53" x2="206.28" y2="274.53"/></g><g id="LINE-161" data-name="LINE"><line class="cls-1" x1="206.28" y1="274.53" x2="206.28" y2="276.23"/></g><g id="LINE-162" data-name="LINE"><line class="cls-1" x1="206.28" y1="276.23" x2="166.6" y2="276.23"/></g><g id="LINE-163" data-name="LINE"><line class="cls-1" x1="166.6" y1="276.23" x2="166.6" y2="274.53"/></g><g id="LINE-164" data-name="LINE"><line class="cls-1" x1="166.6" y1="274.53" x2="164.33" y2="274.53"/></g><g id="LINE-165" data-name="LINE"><line class="cls-1" x1="164.33" y1="274.53" x2="164.33" y2="238.24"/></g><g id="LINE-166" data-name="LINE"><line class="cls-1" x1="164.33" y1="238.24" x2="166.6" y2="238.24"/></g><g id="LINE-167" data-name="LINE"><line class="cls-1" x1="166.6" y1="238.24" x2="166.6" y2="236.54"/></g><g id="LINE-168" data-name="LINE"><line class="cls-1" x1="166.6" y1="236.54" x2="206.28" y2="236.54"/></g><g id="LINE-169" data-name="LINE"><line class="cls-1" x1="530.3" y1="229.79" x2="530.3" y2="231.49"/></g><g id="LINE-170" data-name="LINE"><line class="cls-1" x1="530.3" y1="231.49" x2="532.57" y2="231.49"/></g><g id="LINE-171" data-name="LINE"><line class="cls-1" x1="532.57" y1="231.49" x2="532.57" y2="267.77"/></g><g id="LINE-172" data-name="LINE"><line class="cls-1" x1="532.57" y1="267.77" x2="530.3" y2="267.77"/></g><g id="LINE-173" data-name="LINE"><line class="cls-1" x1="530.3" y1="267.77" x2="530.3" y2="269.48"/></g><g id="LINE-174" data-name="LINE"><line class="cls-1" x1="530.3" y1="269.48" x2="490.61" y2="269.48"/></g><g id="LINE-175" data-name="LINE"><line class="cls-1" x1="490.61" y1="269.48" x2="490.61" y2="267.77"/></g><g id="LINE-176" data-name="LINE"><line class="cls-1" x1="490.61" y1="267.77" x2="488.35" y2="267.77"/></g><g id="LINE-177" data-name="LINE"><line class="cls-1" x1="488.35" y1="267.77" x2="488.35" y2="231.49"/></g><g id="LINE-178" data-name="LINE"><line class="cls-1" x1="488.35" y1="231.49" x2="490.61" y2="231.49"/></g><g id="LINE-179" data-name="LINE"><line class="cls-1" x1="490.61" y1="231.49" x2="490.61" y2="229.79"/></g><g id="LINE-180" data-name="LINE"><line class="cls-1" x1="490.61" y1="229.79" x2="530.3" y2="229.79"/></g><g id="LINE-181" data-name="LINE"><line class="cls-1" x1="476.3" y1="223.04" x2="476.3" y2="224.74"/></g><g id="LINE-182" data-name="LINE"><line class="cls-1" x1="476.3" y1="224.74" x2="478.56" y2="224.74"/></g><g id="LINE-183" data-name="LINE"><line class="cls-1" x1="478.56" y1="224.74" x2="478.56" y2="261.02"/></g><g id="LINE-184" data-name="LINE"><line class="cls-1" x1="478.56" y1="261.02" x2="476.3" y2="261.02"/></g><g id="LINE-185" data-name="LINE"><line class="cls-1" x1="476.3" y1="261.02" x2="476.3" y2="262.72"/></g><g id="LINE-186" data-name="LINE"><line class="cls-1" x1="476.3" y1="262.72" x2="436.61" y2="262.72"/></g><g id="LINE-187" data-name="LINE"><line class="cls-1" x1="436.61" y1="262.72" x2="436.61" y2="261.02"/></g><g id="LINE-188" data-name="LINE"><line class="cls-1" x1="436.61" y1="261.02" x2="434.34" y2="261.02"/></g><g id="LINE-189" data-name="LINE"><line class="cls-1" x1="434.34" y1="261.02" x2="434.34" y2="224.74"/></g><g id="LINE-190" data-name="LINE"><line class="cls-1" x1="434.34" y1="224.74" x2="436.61" y2="224.74"/></g><g id="LINE-191" data-name="LINE"><line class="cls-1" x1="436.61" y1="224.74" x2="436.61" y2="223.04"/></g><g id="LINE-192" data-name="LINE"><line class="cls-1" x1="436.61" y1="223.04" x2="476.3" y2="223.04"/></g><g id="LINE-193" data-name="LINE"><line class="cls-1" x1="260.29" y1="223.04" x2="260.29" y2="224.74"/></g><g id="LINE-194" data-name="LINE"><line class="cls-1" x1="260.29" y1="224.74" x2="262.55" y2="224.74"/></g><g id="LINE-195" data-name="LINE"><line class="cls-1" x1="262.55" y1="224.74" x2="262.55" y2="261.02"/></g><g id="LINE-196" data-name="LINE"><line class="cls-1" x1="262.55" y1="261.02" x2="260.29" y2="261.02"/></g><g id="LINE-197" data-name="LINE"><line class="cls-1" x1="260.29" y1="261.02" x2="260.29" y2="262.72"/></g><g id="LINE-198" data-name="LINE"><line class="cls-1" x1="260.29" y1="262.72" x2="220.6" y2="262.72"/></g><g id="LINE-199" data-name="LINE"><line class="cls-1" x1="220.6" y1="262.72" x2="220.6" y2="261.02"/></g><g id="LINE-200" data-name="LINE"><line class="cls-1" x1="220.6" y1="261.02" x2="218.33" y2="261.02"/></g><g id="LINE-201" data-name="LINE"><line class="cls-1" x1="218.33" y1="261.02" x2="218.33" y2="224.74"/></g><g id="LINE-202" data-name="LINE"><line class="cls-1" x1="218.33" y1="224.74" x2="220.6" y2="224.74"/></g><g id="LINE-203" data-name="LINE"><line class="cls-1" x1="220.6" y1="224.74" x2="220.6" y2="223.04"/></g><g id="LINE-204" data-name="LINE"><line class="cls-1" x1="220.6" y1="223.04" x2="260.29" y2="223.04"/></g><g id="LINE-205" data-name="LINE"><line class="cls-1" x1="422.29" y1="216.29" x2="422.29" y2="217.99"/></g><g id="LINE-206" data-name="LINE"><line class="cls-1" x1="422.29" y1="217.99" x2="424.56" y2="217.99"/></g><g id="LINE-207" data-name="LINE"><line class="cls-1" x1="424.56" y1="217.99" x2="424.56" y2="254.27"/></g><g id="LINE-208" data-name="LINE"><line class="cls-1" x1="424.56" y1="254.27" x2="422.29" y2="254.27"/></g><g id="LINE-209" data-name="LINE"><line class="cls-1" x1="422.29" y1="254.27" x2="422.29" y2="255.97"/></g><g id="LINE-210" data-name="LINE"><line class="cls-1" x1="422.29" y1="255.97" x2="382.61" y2="255.97"/></g><g id="LINE-211" data-name="LINE"><line class="cls-1" x1="382.61" y1="255.97" x2="382.61" y2="254.27"/></g><g id="LINE-212" data-name="LINE"><line class="cls-1" x1="382.61" y1="254.27" x2="380.34" y2="254.27"/></g><g id="LINE-213" data-name="LINE"><line class="cls-1" x1="380.34" y1="254.27" x2="380.34" y2="217.99"/></g><g id="LINE-214" data-name="LINE"><line class="cls-1" x1="380.34" y1="217.99" x2="382.61" y2="217.99"/></g><g id="LINE-215" data-name="LINE"><line class="cls-1" x1="382.61" y1="217.99" x2="382.61" y2="216.29"/></g><g id="LINE-216" data-name="LINE"><line class="cls-1" x1="382.61" y1="216.29" x2="422.29" y2="216.29"/></g><g id="LINE-217" data-name="LINE"><line class="cls-1" x1="314.29" y1="216.29" x2="314.29" y2="217.99"/></g><g id="LINE-218" data-name="LINE"><line class="cls-1" x1="314.29" y1="217.99" x2="316.56" y2="217.99"/></g><g id="LINE-219" data-name="LINE"><line class="cls-1" x1="316.56" y1="217.99" x2="316.56" y2="254.27"/></g><g id="LINE-220" data-name="LINE"><line class="cls-1" x1="316.56" y1="254.27" x2="314.29" y2="254.27"/></g><g id="LINE-221" data-name="LINE"><line class="cls-1" x1="314.29" y1="254.27" x2="314.29" y2="255.97"/></g><g id="LINE-222" data-name="LINE"><line class="cls-1" x1="314.29" y1="255.97" x2="274.6" y2="255.97"/></g><g id="LINE-223" data-name="LINE"><line class="cls-1" x1="274.6" y1="255.97" x2="274.6" y2="254.27"/></g><g id="LINE-224" data-name="LINE"><line class="cls-1" x1="274.6" y1="254.27" x2="272.34" y2="254.27"/></g><g id="LINE-225" data-name="LINE"><line class="cls-1" x1="272.34" y1="254.27" x2="272.34" y2="217.99"/></g><g id="LINE-226" data-name="LINE"><line class="cls-1" x1="272.34" y1="217.99" x2="274.6" y2="217.99"/></g><g id="LINE-227" data-name="LINE"><line class="cls-1" x1="274.6" y1="217.99" x2="274.6" y2="216.29"/></g><g id="LINE-228" data-name="LINE"><line class="cls-1" x1="274.6" y1="216.29" x2="314.29" y2="216.29"/></g><g id="LINE-229" data-name="LINE"><line class="cls-1" x1="368.29" y1="209.54" x2="368.29" y2="211.24"/></g><g id="LINE-230" data-name="LINE"><line class="cls-1" x1="368.29" y1="211.24" x2="370.56" y2="211.24"/></g><g id="LINE-231" data-name="LINE"><line class="cls-1" x1="370.56" y1="211.24" x2="370.56" y2="247.52"/></g><g id="LINE-232" data-name="LINE"><line class="cls-1" x1="370.56" y1="247.52" x2="368.29" y2="247.52"/></g><g id="LINE-233" data-name="LINE"><line class="cls-1" x1="368.29" y1="247.52" x2="368.29" y2="249.22"/></g><g id="LINE-234" data-name="LINE"><line class="cls-1" x1="368.29" y1="249.22" x2="328.61" y2="249.22"/></g><g id="LINE-235" data-name="LINE"><line class="cls-1" x1="328.61" y1="249.22" x2="328.61" y2="247.52"/></g><g id="LINE-236" data-name="LINE"><line class="cls-1" x1="328.61" y1="247.52" x2="326.34" y2="247.52"/></g><g id="LINE-237" data-name="LINE"><line class="cls-1" x1="326.34" y1="247.52" x2="326.34" y2="211.24"/></g><g id="LINE-238" data-name="LINE"><line class="cls-1" x1="326.34" y1="211.24" x2="328.61" y2="211.24"/></g><g id="LINE-239" data-name="LINE"><line class="cls-1" x1="328.61" y1="211.24" x2="328.61" y2="209.54"/></g><g id="LINE-240" data-name="LINE"><line class="cls-1" x1="328.61" y1="209.54" x2="368.29" y2="209.54"/></g><g id="LINE-241" data-name="LINE"><line class="cls-1" x1="206.28" y1="182.54" x2="206.28" y2="184.24"/></g><g id="LINE-242" data-name="LINE"><line class="cls-1" x1="206.28" y1="184.24" x2="208.55" y2="184.24"/></g><g id="LINE-243" data-name="LINE"><line class="cls-1" x1="208.55" y1="184.24" x2="208.55" y2="220.52"/></g><g id="LINE-244" data-name="LINE"><line class="cls-1" x1="208.55" y1="220.52" x2="206.28" y2="220.52"/></g><g id="LINE-245" data-name="LINE"><line class="cls-1" x1="206.28" y1="220.52" x2="206.28" y2="222.22"/></g><g id="LINE-246" data-name="LINE"><line class="cls-1" x1="206.28" y1="222.22" x2="166.6" y2="222.22"/></g><g id="LINE-247" data-name="LINE"><line class="cls-1" x1="166.6" y1="222.22" x2="166.6" y2="220.52"/></g><g id="LINE-248" data-name="LINE"><line class="cls-1" x1="166.6" y1="220.52" x2="164.33" y2="220.52"/></g><g id="LINE-249" data-name="LINE"><line class="cls-1" x1="164.33" y1="220.52" x2="164.33" y2="184.24"/></g><g id="LINE-250" data-name="LINE"><line class="cls-1" x1="164.33" y1="184.24" x2="166.6" y2="184.24"/></g><g id="LINE-251" data-name="LINE"><line class="cls-1" x1="166.6" y1="184.24" x2="166.6" y2="182.54"/></g><g id="LINE-252" data-name="LINE"><line class="cls-1" x1="166.6" y1="182.54" x2="206.28" y2="182.54"/></g><g id="LINE-253" data-name="LINE"><line class="cls-1" x1="530.3" y1="175.79" x2="530.3" y2="177.49"/></g><g id="LINE-254" data-name="LINE"><line class="cls-1" x1="530.3" y1="177.49" x2="532.57" y2="177.49"/></g><g id="LINE-255" data-name="LINE"><line class="cls-1" x1="532.57" y1="177.49" x2="532.57" y2="213.77"/></g><g id="LINE-256" data-name="LINE"><line class="cls-1" x1="532.57" y1="213.77" x2="530.3" y2="213.77"/></g><g id="LINE-257" data-name="LINE"><line class="cls-1" x1="530.3" y1="213.77" x2="530.3" y2="215.47"/></g><g id="LINE-258" data-name="LINE"><line class="cls-1" x1="530.3" y1="215.47" x2="490.61" y2="215.47"/></g><g id="LINE-259" data-name="LINE"><line class="cls-1" x1="490.61" y1="215.47" x2="490.61" y2="213.77"/></g><g id="LINE-260" data-name="LINE"><line class="cls-1" x1="490.61" y1="213.77" x2="488.35" y2="213.77"/></g><g id="LINE-261" data-name="LINE"><line class="cls-1" x1="488.35" y1="213.77" x2="488.35" y2="177.49"/></g><g id="LINE-262" data-name="LINE"><line class="cls-1" x1="488.35" y1="177.49" x2="490.61" y2="177.49"/></g><g id="LINE-263" data-name="LINE"><line class="cls-1" x1="490.61" y1="177.49" x2="490.61" y2="175.79"/></g><g id="LINE-264" data-name="LINE"><line class="cls-1" x1="490.61" y1="175.79" x2="530.3" y2="175.79"/></g><g id="LINE-265" data-name="LINE"><line class="cls-1" x1="476.3" y1="169.04" x2="476.3" y2="170.73"/></g><g id="LINE-266" data-name="LINE"><line class="cls-1" x1="476.3" y1="170.73" x2="478.56" y2="170.73"/></g><g id="LINE-267" data-name="LINE"><line class="cls-1" x1="478.56" y1="170.73" x2="478.56" y2="207.02"/></g><g id="LINE-268" data-name="LINE"><line class="cls-1" x1="478.56" y1="207.02" x2="476.3" y2="207.02"/></g><g id="LINE-269" data-name="LINE"><line class="cls-1" x1="476.3" y1="207.02" x2="476.3" y2="208.72"/></g><g id="LINE-270" data-name="LINE"><line class="cls-1" x1="476.3" y1="208.72" x2="436.61" y2="208.72"/></g><g id="LINE-271" data-name="LINE"><line class="cls-1" x1="436.61" y1="208.72" x2="436.61" y2="207.02"/></g><g id="LINE-272" data-name="LINE"><line class="cls-1" x1="436.61" y1="207.02" x2="434.34" y2="207.02"/></g><g id="LINE-273" data-name="LINE"><line class="cls-1" x1="434.34" y1="207.02" x2="434.34" y2="170.73"/></g><g id="LINE-274" data-name="LINE"><line class="cls-1" x1="434.34" y1="170.73" x2="436.61" y2="170.73"/></g><g id="LINE-275" data-name="LINE"><line class="cls-1" x1="436.61" y1="170.73" x2="436.61" y2="169.04"/></g><g id="LINE-276" data-name="LINE"><line class="cls-1" x1="436.61" y1="169.04" x2="476.3" y2="169.04"/></g><g id="LINE-277" data-name="LINE"><line class="cls-1" x1="260.29" y1="169.04" x2="260.29" y2="170.73"/></g><g id="LINE-278" data-name="LINE"><line class="cls-1" x1="260.29" y1="170.73" x2="262.55" y2="170.73"/></g><g id="LINE-279" data-name="LINE"><line class="cls-1" x1="262.55" y1="170.73" x2="262.55" y2="207.02"/></g><g id="LINE-280" data-name="LINE"><line class="cls-1" x1="262.55" y1="207.02" x2="260.29" y2="207.02"/></g><g id="LINE-281" data-name="LINE"><line class="cls-1" x1="260.29" y1="207.02" x2="260.29" y2="208.72"/></g><g id="LINE-282" data-name="LINE"><line class="cls-1" x1="260.29" y1="208.72" x2="220.6" y2="208.72"/></g><g id="LINE-283" data-name="LINE"><line class="cls-1" x1="220.6" y1="208.72" x2="220.6" y2="207.02"/></g><g id="LINE-284" data-name="LINE"><line class="cls-1" x1="220.6" y1="207.02" x2="218.33" y2="207.02"/></g><g id="LINE-285" data-name="LINE"><line class="cls-1" x1="218.33" y1="207.02" x2="218.33" y2="170.73"/></g><g id="LINE-286" data-name="LINE"><line class="cls-1" x1="218.33" y1="170.73" x2="220.6" y2="170.73"/></g><g id="LINE-287" data-name="LINE"><line class="cls-1" x1="220.6" y1="170.73" x2="220.6" y2="169.04"/></g><g id="LINE-288" data-name="LINE"><line class="cls-1" x1="220.6" y1="169.04" x2="260.29" y2="169.04"/></g><g id="LINE-289" data-name="LINE"><line class="cls-1" x1="422.29" y1="162.29" x2="422.29" y2="163.98"/></g><g id="LINE-290" data-name="LINE"><line class="cls-1" x1="422.29" y1="163.98" x2="424.56" y2="163.98"/></g><g id="LINE-291" data-name="LINE"><line class="cls-1" x1="424.56" y1="163.98" x2="424.56" y2="200.27"/></g><g id="LINE-292" data-name="LINE"><line class="cls-1" x1="424.56" y1="200.27" x2="422.29" y2="200.27"/></g><g id="LINE-293" data-name="LINE"><line class="cls-1" x1="422.29" y1="200.27" x2="422.29" y2="201.97"/></g><g id="LINE-294" data-name="LINE"><line class="cls-1" x1="422.29" y1="201.97" x2="382.61" y2="201.97"/></g><g id="LINE-295" data-name="LINE"><line class="cls-1" x1="382.61" y1="201.97" x2="382.61" y2="200.27"/></g><g id="LINE-296" data-name="LINE"><line class="cls-1" x1="382.61" y1="200.27" x2="380.34" y2="200.27"/></g><g id="LINE-297" data-name="LINE"><line class="cls-1" x1="380.34" y1="200.27" x2="380.34" y2="163.98"/></g><g id="LINE-298" data-name="LINE"><line class="cls-1" x1="380.34" y1="163.98" x2="382.61" y2="163.98"/></g><g id="LINE-299" data-name="LINE"><line class="cls-1" x1="382.61" y1="163.98" x2="382.61" y2="162.29"/></g><g id="LINE-300" data-name="LINE"><line class="cls-1" x1="382.61" y1="162.29" x2="422.29" y2="162.29"/></g><g id="LINE-301" data-name="LINE"><line class="cls-1" x1="314.29" y1="162.29" x2="314.29" y2="163.98"/></g><g id="LINE-302" data-name="LINE"><line class="cls-1" x1="314.29" y1="163.98" x2="316.56" y2="163.98"/></g><g id="LINE-303" data-name="LINE"><line class="cls-1" x1="316.56" y1="163.98" x2="316.56" y2="200.27"/></g><g id="LINE-304" data-name="LINE"><line class="cls-1" x1="316.56" y1="200.27" x2="314.29" y2="200.27"/></g><g id="LINE-305" data-name="LINE"><line class="cls-1" x1="314.29" y1="200.27" x2="314.29" y2="201.97"/></g><g id="LINE-306" data-name="LINE"><line class="cls-1" x1="314.29" y1="201.97" x2="274.6" y2="201.97"/></g><g id="LINE-307" data-name="LINE"><line class="cls-1" x1="274.6" y1="201.97" x2="274.6" y2="200.27"/></g><g id="LINE-308" data-name="LINE"><line class="cls-1" x1="274.6" y1="200.27" x2="272.34" y2="200.27"/></g><g id="LINE-309" data-name="LINE"><line class="cls-1" x1="272.34" y1="200.27" x2="272.34" y2="163.98"/></g><g id="LINE-310" data-name="LINE"><line class="cls-1" x1="272.34" y1="163.98" x2="274.6" y2="163.98"/></g><g id="LINE-311" data-name="LINE"><line class="cls-1" x1="274.6" y1="163.98" x2="274.6" y2="162.29"/></g><g id="LINE-312" data-name="LINE"><line class="cls-1" x1="274.6" y1="162.29" x2="314.29" y2="162.29"/></g><g id="LINE-313" data-name="LINE"><line class="cls-1" x1="368.29" y1="155.54" x2="368.29" y2="157.23"/></g><g id="LINE-314" data-name="LINE"><line class="cls-1" x1="368.29" y1="157.23" x2="370.56" y2="157.23"/></g><g id="LINE-315" data-name="LINE"><line class="cls-1" x1="370.56" y1="157.23" x2="370.56" y2="193.52"/></g><g id="LINE-316" data-name="LINE"><line class="cls-1" x1="370.56" y1="193.52" x2="368.29" y2="193.52"/></g><g id="LINE-317" data-name="LINE"><line class="cls-1" x1="368.29" y1="193.52" x2="368.29" y2="195.22"/></g><g id="LINE-318" data-name="LINE"><line class="cls-1" x1="368.29" y1="195.22" x2="328.61" y2="195.22"/></g><g id="LINE-319" data-name="LINE"><line class="cls-1" x1="328.61" y1="195.22" x2="328.61" y2="193.52"/></g><g id="LINE-320" data-name="LINE"><line class="cls-1" x1="328.61" y1="193.52" x2="326.34" y2="193.52"/></g><g id="LINE-321" data-name="LINE"><line class="cls-1" x1="326.34" y1="193.52" x2="326.34" y2="157.23"/></g><g id="LINE-322" data-name="LINE"><line class="cls-1" x1="326.34" y1="157.23" x2="328.61" y2="157.23"/></g><g id="LINE-323" data-name="LINE"><line class="cls-1" x1="328.61" y1="157.23" x2="328.61" y2="155.54"/></g><g id="LINE-324" data-name="LINE"><line class="cls-1" x1="328.61" y1="155.54" x2="368.29" y2="155.54"/></g><g id="LINE-325" data-name="LINE"><line class="cls-1" x1="546.05" y1="150.93" x2="420.38" y2="129.38"/></g><g id="LINE-326" data-name="LINE"><line class="cls-1" x1="420.38" y1="129.38" x2="152.09" y2="129.38"/></g><g id="LINE-327" data-name="LINE"><line class="cls-1" x1="152.09" y1="129.38" x2="149.02" y2="129.93"/></g><g id="LINE-328" data-name="LINE"><line class="cls-1" x1="149.02" y1="129.93" x2="146.29" y2="131.48"/></g><g id="LINE-329" data-name="LINE"><line class="cls-1" x1="146.29" y1="131.48" x2="144.26" y2="133.94"/></g><g id="LINE-330" data-name="LINE"><line class="cls-1" x1="144.26" y1="133.94" x2="143.26" y2="136.88"/></g><g id="LINE-331" data-name="LINE"><line class="cls-1" x1="143.26" y1="136.88" x2="143.11" y2="138.49"/></g><g id="LINE-332" data-name="LINE"><line class="cls-1" x1="143.11" y1="138.49" x2="143.11" y2="293.32"/></g><g id="LINE-333" data-name="LINE"><line class="cls-1" x1="143.11" y1="293.32" x2="141.36" y2="296.75"/></g><g id="LINE-334" data-name="LINE"><line class="cls-1" x1="141.36" y1="296.75" x2="130.5" y2="302.15"/></g><g id="LINE-335" data-name="LINE"><line class="cls-1" x1="130.5" y1="302.15" x2="129.46" y2="302.99"/></g><g id="LINE-336" data-name="LINE"><line class="cls-1" x1="129.46" y1="302.99" x2="128.68" y2="304.12"/></g><g id="LINE-337" data-name="LINE"><line class="cls-1" x1="128.68" y1="304.12" x2="128.33" y2="305.56"/></g><g id="LINE-338" data-name="LINE"><line class="cls-1" x1="128.33" y1="305.56" x2="128.42" y2="306.93"/></g><g id="LINE-339" data-name="LINE"><line class="cls-1" x1="128.42" y1="306.93" x2="197.08" y2="424.53"/></g><g id="LINE-340" data-name="LINE"><line class="cls-1" x1="197.08" y1="424.53" x2="199.15" y2="426"/></g><g id="LINE-341" data-name="LINE"><line class="cls-1" x1="199.15" y1="426" x2="201.74" y2="426.77"/></g><g id="LINE-342" data-name="LINE"><line class="cls-1" x1="201.74" y1="426.77" x2="204.3" y2="426.64"/></g><g id="LINE-343" data-name="LINE"><line class="cls-1" x1="204.3" y1="426.64" x2="206.84" y2="425.49"/></g><g id="LINE-344" data-name="LINE"><line class="cls-1" x1="206.84" y1="425.49" x2="246.73" y2="400.64"/></g><g id="LINE-345" data-name="LINE"><line class="cls-1" x1="246.73" y1="400.64" x2="249.14" y2="399.44"/></g><g id="LINE-346" data-name="LINE"><line class="cls-1" x1="249.14" y1="399.44" x2="544.39" y2="399.36"/></g><g id="LINE-347" data-name="LINE"><line class="cls-1" x1="544.39" y1="399.36" x2="547.39" y2="398.8"/></g><g id="LINE-348" data-name="LINE"><line class="cls-1" x1="547.39" y1="398.8" x2="550.22" y2="397.37"/></g><g id="LINE-349" data-name="LINE"><line class="cls-1" x1="550.22" y1="397.37" x2="552.14" y2="395.06"/></g><g id="LINE-350" data-name="LINE"><line class="cls-1" x1="552.14" y1="395.06" x2="553.31" y2="392.04"/></g><g id="LINE-351" data-name="LINE"><line class="cls-1" x1="553.31" y1="392.04" x2="553.53" y2="390.7"/></g><g id="LINE-352" data-name="LINE"><line class="cls-1" x1="553.53" y1="390.7" x2="553.55" y2="158.21"/></g><g id="LINE-353" data-name="LINE"><line class="cls-1" x1="553.55" y1="158.21" x2="551.74" y2="154.61"/></g><g id="LINE-354" data-name="LINE"><line class="cls-1" x1="551.74" y1="154.61" x2="550.01" y2="152.8"/></g><g id="LINE-355" data-name="LINE"><line class="cls-1" x1="550.01" y1="152.8" x2="546.05" y2="150.93"/></g><g id="CIRCLE"><path class="cls-1" d="M547.73,390.59a3.12,3.12,0,1,0-3.12,3.12,3.12,3.12,0,0,0,3.12-3.12Z"/></g><g id="CIRCLE-2" data-name="CIRCLE"><path class="cls-1" d="M547.73,277.18a3.12,3.12,0,1,0-3.12,3.12,3.12,3.12,0,0,0,3.12-3.12Z"/></g><g id="CIRCLE-3" data-name="CIRCLE"><path class="cls-1" d="M547.73,162a3.12,3.12,0,1,0-3.12,3.12,3.12,3.12,0,0,0,3.12-3.12Z"/></g><g id="CIRCLE-4" data-name="CIRCLE"><path class="cls-1" d="M423.52,138.57a3.12,3.12,0,1,0-3.12,3.12,3.11,3.11,0,0,0,3.12-3.12Z"/></g><g id="CIRCLE-5" data-name="CIRCLE"><path class="cls-1" d="M270.51,138.57a3.12,3.12,0,1,0-3.11,3.12,3.11,3.11,0,0,0,3.11-3.12Z"/></g><g id="CIRCLE-6" data-name="CIRCLE"><path class="cls-1" d="M155.31,138.57a3.12,3.12,0,1,0-3.12,3.12,3.12,3.12,0,0,0,3.12-3.12Z"/></g><g id="CIRCLE-7" data-name="CIRCLE"><path class="cls-1" d="M378.52,390.59a3.12,3.12,0,1,0-3.12,3.12,3.12,3.12,0,0,0,3.12-3.12Z"/></g><g id="CIRCLE-8" data-name="CIRCLE"><path class="cls-1" d="M207.51,415.79a3.12,3.12,0,1,0-3.12,3.12,3.12,3.12,0,0,0,3.12-3.12Z"/></g><g id="CIRCLE-9" data-name="CIRCLE"><path class="cls-1" d="M142.71,307.78a3.12,3.12,0,1,0-3.12,3.12,3.12,3.12,0,0,0,3.12-3.12Z"/></g><line class="cls-2" x1="287.24" y1="236.13" x2="301.42" y2="236.13"/><line class="cls-2" x1="294.33" y1="243.22" x2="294.33" y2="229.04"/></g><text class="cls-3" transform="translate(3.29 220.98)">Ergotravel</text><line id="ergotravel-3" data-name="ergotravel" class="cls-4" x1="144.11" y1="218.17" x2="49.96" y2="217.18"/><rect id="border" class="cls-4" x="0.25" y="0.25" width="751.18" height="565.7"/></g></g></g></svg>