<svg xmlns="http://www.w3.org/2000/svg" viewBox="0 0 751.68 566.2"><defs><style>.cls-1,.cls-2,.cls-4,.cls-5{fill:none;stroke:#000;}.cls-1,.cls-4{stroke-linecap:round;}.cls-1,.cls-2,.cls-4{stroke-linejoin:round;}.cls-3{font-size:10px;font-family:FiraSansCondensed-Medium, Fira Sans Condensed;font-weight:500;}.cls-4,.cls-5{stroke-width:0.5px;}.cls-5{stroke-miterlimit:10;}</style></defs><g id="Layer_2" data-name="Layer 2"><g id="main"><g id="ergodash1"><g id="ergodash1-2" data-name="ergodash1"><line class="cls-1" x1="328.46" y1="324.25" x2="328.46" y2="317.53"/><polyline class="cls-1" points="422.09 270.3 382.41 270.3 382.41 309.98 422.09 309.98 422.09 270.3"/><polyline class="cls-1" points="422.09 216.35 382.41 216.35 382.41 256.03 422.09 256.03 422.09 216.35"/><polyline class="cls-1" points="490.31 283.78 529.99 283.78 529.99 323.47 490.31 323.47 490.31 283.78"/><polyline class="cls-1" points="490.31 121.93 529.99 121.93 529.99 161.62 490.31 161.62 490.31 121.93"/><polyline class="cls-1" points="260.24 115.22 220.56 115.22 220.56 154.84 260.24 154.84 260.24 115.22"/><polyline class="cls-1" points="490.31 175.88 529.99 175.88 529.99 215.57 490.31 215.57 490.31 175.88"/><polyline class="cls-1" points="490.31 229.83 529.99 229.83 529.99 269.52 490.31 269.52 490.31 229.83"/><polyline class="cls-1" points="476.04 121.93 436.36 121.93 436.36 161.62 476.04 161.62 476.04 121.93"/><polyline class="cls-1" points="476.04 175.88 436.36 175.88 436.36 215.57 476.04 215.57 476.04 175.88"/><polyline class="cls-1" points="476.04 229.83 436.36 229.83 436.36 269.52 476.04 269.52 476.04 229.83"/><polyline class="cls-1" points="476.04 283.78 436.36 283.78 436.36 323.47 476.04 323.47 476.04 283.78"/><polyline class="cls-1" points="382.41 108.45 422.09 108.45 422.09 148.13 382.41 148.13 382.41 108.45"/><polyline class="cls-1" points="382.41 162.4 422.09 162.4 422.09 202.08 382.41 202.08 382.41 162.4"/><polyline class="cls-1" points="368.14 101.73 328.46 101.73 328.46 141.36 368.14 141.36 368.14 101.73"/><polyline class="cls-1" points="368.14 155.68 328.46 155.68 328.46 195.31 368.14 195.31 368.14 155.68"/><polyline class="cls-1" points="368.14 209.63 328.46 209.63 328.46 249.26 368.14 249.26 368.14 209.63"/><polyline class="cls-1" points="368.14 263.58 328.46 263.58 328.46 303.2 368.14 303.2 368.14 263.58"/><polyline class="cls-1" points="314.19 108.45 274.51 108.45 274.51 148.13 314.19 148.13 314.19 108.45"/><polyline class="cls-1" points="314.19 162.4 274.51 162.4 274.51 202.08 314.19 202.08 314.19 162.4"/><polyline class="cls-1" points="314.19 216.35 274.51 216.35 274.51 256.03 314.19 256.03 314.19 216.35"/><polyline class="cls-1" points="314.19 270.3 274.51 270.3 274.51 309.98 314.19 309.98 314.19 270.3"/><polyline class="cls-1" points="220.56 169.17 260.24 169.17 260.24 208.79 220.56 208.79 220.56 169.17"/><polyline class="cls-1" points="220.56 223.12 260.24 223.12 260.24 262.74 220.56 262.74 220.56 223.12"/><polyline class="cls-1" points="220.56 277.07 260.24 277.07 260.24 316.69 220.56 316.69 220.56 277.07"/><polyline class="cls-1" points="206.29 142.2 166.61 142.2 166.61 181.82 206.29 181.82 206.29 142.2"/><polyline class="cls-1" points="206.29 196.15 166.61 196.15 166.61 235.77 206.29 235.77 206.29 196.15"/><polyline class="cls-1" points="206.29 250.1 166.61 250.1 166.61 289.72 206.29 289.72 206.29 250.1"/><polyline class="cls-1" points="490.31 337.74 529.99 337.74 529.99 377.42 490.31 377.42 490.31 337.74"/><polyline class="cls-1" points="476.04 337.74 436.36 337.74 436.36 377.42 476.04 377.42 476.04 337.74"/><polyline class="cls-1" points="382.41 324.25 422.09 324.25 422.09 363.93 382.41 363.93 382.41 324.25"/><polyline class="cls-1" points="289.97 364.83 270.19 330.48 235.84 350.32 255.68 384.67 289.97 364.83"/><polyline class="cls-1" points="328.46 317.53 368.14 317.53 368.14 357.16 346.56 357.16 346.56 363.93 306.88 363.93 306.88 324.25 328.46 324.25"/><path class="cls-1" d="M211.41,419a5.64,5.64,0,0,1-7.71-2.09l-42.81-75a25.17,25.17,0,0,1-2.81-10.58V140.83a21.85,21.85,0,0,1,3.17-10.36l16.45-24.41a11.93,11.93,0,0,1,8.83-4.7h39.65a21,21,0,0,0,10.29-3.27l25.26-17.87A20.9,20.9,0,0,1,272,77h98.64a61.84,61.84,0,0,1,11.19,1.24L532.27,112a7.43,7.43,0,0,1,5.53,6.9V379.74a5.68,5.68,0,0,1-5.67,5.66H275.24a25.11,25.11,0,0,0-10.57,2.83Z"/><path class="cls-1" d="M480.44,168.9a2.76,2.76,0,1,0,2.76-2.76A2.76,2.76,0,0,0,480.44,168.9Z"/><path class="cls-1" d="M372.54,209.18a2.76,2.76,0,1,0,2.76-2.76A2.76,2.76,0,0,0,372.54,209.18Z"/><path class="cls-1" d="M390.16,98.41a2.77,2.77,0,1,0,2.77-2.76A2.77,2.77,0,0,0,390.16,98.41Z"/><circle class="cls-1" cx="483.2" cy="331.47" r="2.76"/><path class="cls-1" d="M371.1,309.89a2.76,2.76,0,1,0,2.76-2.76A2.77,2.77,0,0,0,371.1,309.89Z"/><path class="cls-1" d="M227.6,330.75a2.76,2.76,0,1,0,2.76-2.76A2.75,2.75,0,0,0,227.6,330.75Z"/><path class="cls-1" d="M210.69,161.71a2.77,2.77,0,1,0,2.76-2.76A2.77,2.77,0,0,0,210.69,161.71Z"/><polygon class="cls-2" points="200.71 318.08 196.5 310.78 162.17 330.6 208.95 411.63 243.28 391.81 239.08 384.54 240.94 383.47 236.26 375.38 234.41 376.45 205.38 326.17 207.24 325.1 202.56 317.01 200.71 318.08"/><line class="cls-1" x1="287.26" y1="236.19" x2="301.43" y2="236.19"/><line class="cls-1" x1="294.35" y1="243.27" x2="294.35" y2="229.1"/></g><text class="cls-3" transform="translate(3.29 86.38)">Ergodash 1</text><line class="cls-4" x1="51.81" y1="83.23" x2="170.46" y2="116.78"/><rect id="border" class="cls-5" x="0.25" y="0.25" width="751.18" height="565.7"/></g></g></g></svg>