<svg xmlns="http://www.w3.org/2000/svg" viewBox="0 0 751.68 566.2"><defs><style>.cls-1{fill-opacity:0;}.cls-1,.cls-3,.cls-4{stroke:#000;}.cls-1,.cls-4{stroke-linecap:round;stroke-linejoin:round;}.cls-2{font-size:10px;font-family:FiraSansCondensed-Medium, Fira Sans Condensed;font-weight:500;}.cls-3,.cls-4{fill:none;}.cls-3{stroke-miterlimit:10;stroke-width:0.5px;}</style></defs><g id="Layer_2" data-name="Layer 2"><g id="main"><g id="ferris"><g id="ferris-2" data-name="ferris"><g id="g5068"><path id="path4800" class="cls-1" d="M175.23,265l0,72.7"/><path id="path4802" class="cls-1" d="M177.35,262.91a2.12,2.12,0,0,0-2.12,2.12h0"/><path id="path4804" class="cls-1" d="M207.85,262.89l-30.5,0"/><path id="path4806" class="cls-1" d="M476.32,352.6h.78"/><path id="path4808" class="cls-1" d="M340.05,140A408.34,408.34,0,0,0,214.8,166.42"/><path id="path4810" class="cls-1" d="M198.69,407.1a5.58,5.58,0,0,0,7.69,1.73l.06,0"/><path id="path4814" class="cls-1" d="M191.62,395.18l7.07,11.91"/><path id="path4816" class="cls-1" d="M207.86,262.89a5.66,5.66,0,0,0,5.76-5.47"/><path id="path4818" class="cls-1" d="M340,140h11.27"/><path id="path4820" class="cls-1" d="M214.8,166.42a2.12,2.12,0,0,0-1.23,1.93"/><path id="path4822" class="cls-1" d="M482.85,193.19a11.49,11.49,0,0,0-4.05-5.71"/><path id="path4824" class="cls-1" d="M476.32,352.6a799.4,799.4,0,0,0-198.51,25.25"/><path id="path4826" class="cls-1" d="M277.81,377.86a246.55,246.55,0,0,0-71.37,30.93"/><path id="path4828" class="cls-1" d="M482.85,193.19l0,153.93"/><path id="path4830" class="cls-1" d="M478.8,187.48A194.87,194.87,0,0,0,351.32,140"/><path id="path4832" class="cls-1" d="M175.26,337.73a110.23,110.23,0,0,0,16.37,57.46"/><path id="path4834" class="cls-1" d="M213.62,257.42l-.05-89.08"/></g><g id="g9381"><g id="g8450"><path id="path7436" class="cls-1" d="M375.16,264.71v-54"/><path id="path7438" class="cls-1" d="M429.16,264.71h-54"/><path id="path7440" class="cls-1" d="M429.16,210.71v54"/><path id="path7442" class="cls-1" d="M375.16,210.71h54"/><path id="path7484" class="cls-1" d="M213.59,270.38v-54"/><path id="path7486" class="cls-1" d="M267.59,270.38h-54"/><path id="path7488" class="cls-1" d="M267.59,216.38v54"/><path id="path7490" class="cls-1" d="M213.59,216.38h54"/><path id="path7508" class="cls-1" d="M249.84,384.17l-14-52.17"/><path id="path7510" class="cls-1" d="M302,370.18l-52.16,14"/><path id="path7512" class="cls-1" d="M288,318l14,52.15"/><path id="path7514" class="cls-1" d="M235.87,332,288,318"/><path id="path7532" class="cls-1" d="M199.52,407.82l-27-46.76"/><path id="path7534" class="cls-1" d="M246.28,380.82l-46.76,27"/><path id="path7536" class="cls-1" d="M219.28,334.06l27,46.76"/><path id="path7538" class="cls-1" d="M172.52,361.06l46.76-27"/><path id="path7604" class="cls-1" d="M429,352.59v-54"/><path id="path7606" class="cls-1" d="M483,352.59H429"/><path id="path7608" class="cls-1" d="M483,298.59v54"/><path id="path7610" class="cls-1" d="M429,298.59h54"/><path id="path7628" class="cls-1" d="M375.16,318.57v-54"/><path id="path7630" class="cls-1" d="M429.16,318.57h-54"/><path id="path7632" class="cls-1" d="M429.16,264.57v54"/><path id="path7634" class="cls-1" d="M375.16,264.57h54"/><path id="path7652" class="cls-1" d="M321.3,301.56v-54"/><path id="path7654" class="cls-1" d="M375.3,301.56h-54"/><path id="path7656" class="cls-1" d="M375.3,247.56v54"/><path id="path7658" class="cls-1" d="M321.3,247.56h54"/><path id="path7676" class="cls-1" d="M267.44,317.15v-54"/><path id="path7678" class="cls-1" d="M321.44,317.15h-54"/><path id="path7680" class="cls-1" d="M321.44,263.15v54"/><path id="path7682" class="cls-1" d="M267.44,263.15h54"/><path id="path7700" class="cls-1" d="M213.59,324.24v-54"/><path id="path7702" class="cls-1" d="M267.59,324.24h-54"/><path id="path7704" class="cls-1" d="M267.59,270.24v54"/><path id="path7706" class="cls-1" d="M213.59,270.24h54"/><path id="path7844" class="cls-1" d="M429,298.72v-54"/><path id="path7846" class="cls-1" d="M483,298.72H429"/><path id="path7848" class="cls-1" d="M483,244.72v54"/><path id="path7850" class="cls-1" d="M429,244.72h54"/><path id="path7868" class="cls-1" d="M321.3,247.71v-54"/><path id="path7870" class="cls-1" d="M375.3,247.71h-54"/><path id="path7872" class="cls-1" d="M375.3,193.71v54"/><path id="path7874" class="cls-1" d="M321.3,193.71h54"/><path id="path7892" class="cls-1" d="M267.44,263.29v-54"/><path id="path7894" class="cls-1" d="M321.44,263.29h-54"/><path id="path7896" class="cls-1" d="M321.44,209.29v54"/><path id="path7898" class="cls-1" d="M267.44,209.29h54"/><path id="path8012" class="cls-1" d="M429,244.87v-54"/><path id="path8014" class="cls-1" d="M483,244.87H429"/><path id="path8016" class="cls-1" d="M483,190.87v54"/><path id="path8018" class="cls-1" d="M429,190.87h54"/><path id="path8036" class="cls-1" d="M375.16,210.85v-54"/><path id="path8038" class="cls-1" d="M429.16,210.85h-54"/><path id="path8040" class="cls-1" d="M429.16,156.85v54"/><path id="path8042" class="cls-1" d="M375.16,156.85h54"/><path id="path8060" class="cls-1" d="M321.3,193.84v-54"/><path id="path8062" class="cls-1" d="M375.3,193.84h-54"/><path id="path8064" class="cls-1" d="M375.3,139.84v54"/><path id="path8066" class="cls-1" d="M321.3,139.84h54"/><path id="path8084" class="cls-1" d="M267.44,209.44v-54"/><path id="path8086" class="cls-1" d="M321.44,209.44h-54"/><path id="path8088" class="cls-1" d="M321.44,155.44v54"/><path id="path8090" class="cls-1" d="M267.44,155.44h54"/><path id="path8108" class="cls-1" d="M213.59,216.52v-54"/><path id="path8110" class="cls-1" d="M267.59,216.52h-54"/><path id="path8112" class="cls-1" d="M267.59,162.52v54"/><path id="path8114" class="cls-1" d="M213.59,162.52h54"/></g><g id="g8724"><path id="path8456" class="cls-1" d="M175.22,265l0,72.7"/><path id="path8458" class="cls-1" d="M177.35,262.84a2.13,2.13,0,0,0-2.13,2.13h0"/><path id="path8460" class="cls-1" d="M207.84,262.83h-30.5"/><path id="path8462" class="cls-1" d="M476.32,352.53h.77"/><path id="path8464" class="cls-1" d="M340,139.91a408,408,0,0,0-125.25,26.44"/><path id="path8466" class="cls-1" d="M198.69,407a5.57,5.57,0,0,0,7.69,1.73l.05,0"/><path id="path8470" class="cls-1" d="M191.61,395.12,198.68,407"/><path id="path8472" class="cls-1" d="M207.85,262.83a5.68,5.68,0,0,0,5.77-5.47"/><path id="path8474" class="cls-1" d="M340,139.91H351.3"/><path id="path8476" class="cls-1" d="M214.79,166.35a2.13,2.13,0,0,0-1.23,1.93"/><path id="path8478" class="cls-1" d="M482.84,193.12a11.51,11.51,0,0,0-4-5.71"/><path id="path8480" class="cls-1" d="M476.32,352.54a798.87,798.87,0,0,0-198.51,25.25"/><path id="path8482" class="cls-1" d="M277.81,377.79a246.47,246.47,0,0,0-71.38,30.94"/><path id="path8484" class="cls-1" d="M482.84,193.12l0,153.94"/><path id="path8486" class="cls-1" d="M478.79,187.42a194.8,194.8,0,0,0-127.48-47.5"/><path id="path8488" class="cls-1" d="M175.25,337.66a110.3,110.3,0,0,0,16.37,57.46"/><path id="path8490" class="cls-1" d="M213.61,257.35l-.05-89.07"/></g></g><text class="cls-2" transform="translate(406.02 559.95)">Ferris</text><line class="cls-3" x1="416.54" y1="550.82" x2="417.62" y2="354.75"/></g><line class="cls-4" x1="287.26" y1="236.19" x2="301.43" y2="236.19"/><line class="cls-4" x1="294.35" y1="243.28" x2="294.35" y2="229.1"/><rect id="border" class="cls-3" x="0.25" y="0.25" width="751.18" height="565.7"/></g></g></g></svg>