<svg xmlns="http://www.w3.org/2000/svg" viewBox="0 0 751.68 566.2"><defs><style>.cls-1,.cls-2,.cls-4{fill:none;stroke:#000;}.cls-1,.cls-4{stroke-width:0.5px;}.cls-2{stroke-linecap:round;stroke-linejoin:round;}.cls-3{font-size:10px;font-family:FiraSansCondensed-Medium, Fira Sans Condensed;font-weight:500;}.cls-4{stroke-miterlimit:10;}</style></defs><g id="Layer_2" data-name="Layer 2"><g id="main"><g id="georgi"><g id="georgi-2" data-name="georgi"><g id="georgi-3" data-name="georgi"><g id="georgi-4" data-name="georgi"><g id="georgi-5" data-name="georgi"><g id="georgi-6" data-name="georgi"><g id="BLACK"><line class="cls-1" x1="344.51" y1="348.35" x2="344.55" y2="348.35"/><line class="cls-1" x1="344.55" y1="348.35" x2="344.58" y2="348.37"/><line class="cls-1" x1="344.58" y1="348.37" x2="344.62" y2="348.38"/><line class="cls-1" x1="344.62" y1="348.38" x2="344.64" y2="348.4"/><line class="cls-1" x1="344.64" y1="348.4" x2="344.68" y2="348.42"/><line class="cls-1" x1="344.68" y1="348.42" x2="344.74" y2="348.56"/><line class="cls-1" x1="344.74" y1="348.56" x2="344.74" y2="348.56"/><line class="cls-1" x1="344.74" y1="348.56" x2="366.18" y2="394.54"/><line class="cls-1" x1="366.18" y1="394.54" x2="366.18" y2="394.54"/><line class="cls-1" x1="366.18" y1="394.54" x2="366.24" y2="394.67"/><line class="cls-1" x1="366.24" y1="394.67" x2="366.24" y2="394.71"/><line class="cls-1" x1="366.24" y1="394.71" x2="366.24" y2="394.75"/><line class="cls-1" x1="366.24" y1="394.75" x2="366.22" y2="394.78"/><line class="cls-1" x1="366.22" y1="394.78" x2="366.22" y2="394.82"/><line class="cls-1" x1="366.22" y1="394.82" x2="366.19" y2="394.84"/><line class="cls-1" x1="366.19" y1="394.84" x2="366.17" y2="394.88"/><line class="cls-1" x1="366.17" y1="394.88" x2="366.13" y2="394.89"/><line class="cls-1" x1="366.13" y1="394.89" x2="366.13" y2="394.89"/><line class="cls-1" x1="366.13" y1="394.89" x2="317.24" y2="417.69"/><line class="cls-1" x1="317.24" y1="417.69" x2="317.24" y2="417.69"/><line class="cls-1" x1="317.24" y1="417.69" x2="317.21" y2="417.71"/><line class="cls-1" x1="317.21" y1="417.71" x2="317.17" y2="417.7"/><line class="cls-1" x1="317.17" y1="417.7" x2="317.13" y2="417.7"/><line class="cls-1" x1="317.13" y1="417.7" x2="317.1" y2="417.69"/><line class="cls-1" x1="317.1" y1="417.69" x2="317.06" y2="417.68"/><line class="cls-1" x1="317.06" y1="417.68" x2="317.03" y2="417.65"/><line class="cls-1" x1="317.03" y1="417.65" x2="317" y2="417.63"/><line class="cls-1" x1="317" y1="417.63" x2="316.99" y2="417.6"/><line class="cls-1" x1="316.99" y1="417.6" x2="316.99" y2="417.6"/><line class="cls-1" x1="316.99" y1="417.6" x2="312.09" y2="407.09"/><line class="cls-1" x1="312.09" y1="407.09" x2="263.32" y2="429.83"/><line class="cls-1" x1="263.32" y1="429.83" x2="268.49" y2="440.91"/><line class="cls-1" x1="268.49" y1="440.91" x2="268.49" y2="440.91"/><line class="cls-1" x1="268.49" y1="440.91" x2="268.55" y2="441.05"/><line class="cls-1" x1="268.55" y1="441.05" x2="268.54" y2="441.08"/><line class="cls-1" x1="268.54" y1="441.08" x2="268.55" y2="441.12"/><line class="cls-1" x1="268.55" y1="441.12" x2="268.53" y2="441.15"/><line class="cls-1" x1="268.53" y1="441.15" x2="268.52" y2="441.19"/><line class="cls-1" x1="268.52" y1="441.19" x2="268.5" y2="441.22"/><line class="cls-1" x1="268.5" y1="441.22" x2="268.48" y2="441.25"/><line class="cls-1" x1="268.48" y1="441.25" x2="268.44" y2="441.27"/><line class="cls-1" x1="268.44" y1="441.27" x2="268.44" y2="441.27"/><line class="cls-1" x1="268.44" y1="441.27" x2="219.55" y2="464.07"/><line class="cls-1" x1="219.55" y1="464.07" x2="219.55" y2="464.07"/><line class="cls-1" x1="219.55" y1="464.07" x2="219.51" y2="464.08"/><line class="cls-1" x1="219.51" y1="464.08" x2="219.48" y2="464.08"/><line class="cls-1" x1="219.48" y1="464.08" x2="219.44" y2="464.08"/><line class="cls-1" x1="219.44" y1="464.08" x2="219.41" y2="464.06"/><line class="cls-1" x1="219.41" y1="464.06" x2="219.37" y2="464.05"/><line class="cls-1" x1="219.37" y1="464.05" x2="219.34" y2="464.03"/><line class="cls-1" x1="219.34" y1="464.03" x2="219.31" y2="464.01"/><line class="cls-1" x1="219.31" y1="464.01" x2="219.29" y2="463.97"/><line class="cls-1" x1="219.29" y1="463.97" x2="219.29" y2="463.97"/><line class="cls-1" x1="219.29" y1="463.97" x2="197.76" y2="417.79"/><line class="cls-1" x1="197.76" y1="417.79" x2="197.74" y2="417.76"/><line class="cls-1" x1="197.74" y1="417.76" x2="197.75" y2="417.72"/><line class="cls-1" x1="197.75" y1="417.72" x2="197.75" y2="417.68"/><line class="cls-1" x1="197.75" y1="417.68" x2="197.76" y2="417.65"/><line class="cls-1" x1="197.76" y1="417.65" x2="197.77" y2="417.61"/><line class="cls-1" x1="197.77" y1="417.61" x2="197.8" y2="417.59"/><line class="cls-1" x1="197.8" y1="417.59" x2="197.82" y2="417.55"/><line class="cls-1" x1="197.82" y1="417.55" x2="197.95" y2="417.49"/><line class="cls-1" x1="197.95" y1="417.49" x2="197.95" y2="417.49"/><line class="cls-1" x1="197.95" y1="417.49" x2="246.69" y2="394.76"/><line class="cls-1" x1="246.69" y1="394.76" x2="241.47" y2="383.58"/><line class="cls-1" x1="241.47" y1="383.58" x2="241.46" y2="383.55"/><line class="cls-1" x1="241.46" y1="383.55" x2="241.46" y2="383.51"/><line class="cls-1" x1="241.46" y1="383.51" x2="241.46" y2="383.47"/><line class="cls-1" x1="241.46" y1="383.47" x2="241.48" y2="383.44"/><line class="cls-1" x1="241.48" y1="383.44" x2="241.49" y2="383.4"/><line class="cls-1" x1="241.49" y1="383.4" x2="241.51" y2="383.38"/><line class="cls-1" x1="241.51" y1="383.38" x2="241.53" y2="383.34"/><line class="cls-1" x1="241.53" y1="383.34" x2="241.67" y2="383.28"/><line class="cls-1" x1="241.67" y1="383.28" x2="241.67" y2="383.28"/><line class="cls-1" x1="241.67" y1="383.28" x2="290.46" y2="360.53"/><line class="cls-1" x1="290.46" y1="360.53" x2="290.46" y2="360.53"/><line class="cls-1" x1="290.46" y1="360.53" x2="290.49" y2="360.51"/><line class="cls-1" x1="290.49" y1="360.51" x2="290.53" y2="360.52"/><line class="cls-1" x1="290.53" y1="360.52" x2="290.57" y2="360.51"/><line class="cls-1" x1="290.57" y1="360.51" x2="290.6" y2="360.53"/><line class="cls-1" x1="290.6" y1="360.53" x2="290.64" y2="360.54"/><line class="cls-1" x1="290.64" y1="360.54" x2="290.67" y2="360.57"/><line class="cls-1" x1="290.67" y1="360.57" x2="290.7" y2="360.59"/><line class="cls-1" x1="290.7" y1="360.59" x2="290.76" y2="360.72"/><line class="cls-1" x1="290.76" y1="360.72" x2="290.76" y2="360.72"/><line class="cls-1" x1="290.76" y1="360.72" x2="295.62" y2="371.13"/><line class="cls-1" x1="295.62" y1="371.13" x2="295.64" y2="371.12"/><line class="cls-1" x1="295.64" y1="371.12" x2="295.64" y2="371.12"/><line class="cls-1" x1="295.64" y1="371.12" x2="344.44" y2="348.36"/><line class="cls-1" x1="344.44" y1="348.36" x2="344.44" y2="348.36"/><line class="cls-1" x1="344.44" y1="348.36" x2="344.47" y2="348.35"/><line class="cls-1" x1="344.47" y1="348.35" x2="344.51" y2="348.35"/><line class="cls-1" x1="231.43" y1="402.38" x2="198.28" y2="417.84"/><line class="cls-1" x1="198.28" y1="417.84" x2="219.6" y2="463.54"/><line class="cls-1" x1="219.6" y1="463.54" x2="268.01" y2="440.97"/><line class="cls-1" x1="268.01" y1="440.97" x2="246.7" y2="395.26"/><line class="cls-1" x1="246.7" y1="395.26" x2="231.43" y2="402.38"/><line class="cls-1" x1="275.14" y1="368.17" x2="242" y2="383.63"/><line class="cls-1" x1="242" y1="383.63" x2="263.31" y2="429.33"/><line class="cls-1" x1="263.31" y1="429.33" x2="311.72" y2="406.75"/><line class="cls-1" x1="311.72" y1="406.75" x2="290.41" y2="361.05"/><line class="cls-1" x1="290.41" y1="361.05" x2="275.14" y2="368.17"/><line class="cls-1" x1="311.27" y1="364.33" x2="295.98" y2="371.46"/><line class="cls-1" x1="295.98" y1="371.46" x2="317.29" y2="417.17"/><line class="cls-1" x1="317.29" y1="417.17" x2="365.7" y2="394.59"/><line class="cls-1" x1="365.7" y1="394.59" x2="344.39" y2="348.89"/><line class="cls-1" x1="344.39" y1="348.89" x2="311.27" y2="364.33"/><line class="cls-1" x1="267.13" y1="320" x2="267.12" y2="320.04"/><line class="cls-1" x1="267.12" y1="320.04" x2="267.09" y2="320.06"/><line class="cls-1" x1="267.09" y1="320.06" x2="267.07" y2="320.09"/><line class="cls-1" x1="267.07" y1="320.09" x2="267.03" y2="320.11"/><line class="cls-1" x1="267.03" y1="320.11" x2="267" y2="320.13"/><line class="cls-1" x1="267" y1="320.13" x2="212.98" y2="320.13"/><line class="cls-1" x1="212.98" y1="320.13" x2="212.95" y2="320.11"/><line class="cls-1" x1="212.95" y1="320.11" x2="212.91" y2="320.09"/><line class="cls-1" x1="212.91" y1="320.09" x2="212.89" y2="320.06"/><line class="cls-1" x1="212.89" y1="320.06" x2="212.86" y2="320.04"/><line class="cls-1" x1="212.86" y1="320.04" x2="212.85" y2="320"/><line class="cls-1" x1="212.85" y1="320" x2="212.82" y2="319.97"/><line class="cls-1" x1="212.82" y1="319.97" x2="212.82" y2="319.83"/><line class="cls-1" x1="212.82" y1="319.83" x2="212.82" y2="319.83"/><line class="cls-1" x1="212.82" y1="319.83" x2="212.82" y2="268.98"/><line class="cls-1" x1="212.82" y1="268.98" x2="212.82" y2="268.89"/><line class="cls-1" x1="212.82" y1="268.89" x2="212.82" y2="268.89"/><line class="cls-1" x1="212.82" y1="268.89" x2="212.82" y2="218.04"/><line class="cls-1" x1="212.82" y1="218.04" x2="212.82" y2="218.01"/><line class="cls-1" x1="212.82" y1="218.01" x2="212.85" y2="217.98"/><line class="cls-1" x1="212.85" y1="217.98" x2="212.86" y2="217.94"/><line class="cls-1" x1="212.86" y1="217.94" x2="212.89" y2="217.92"/><line class="cls-1" x1="212.89" y1="217.92" x2="212.91" y2="217.89"/><line class="cls-1" x1="212.91" y1="217.89" x2="212.95" y2="217.87"/><line class="cls-1" x1="212.95" y1="217.87" x2="212.98" y2="217.85"/><line class="cls-1" x1="212.98" y1="217.85" x2="267" y2="217.85"/><line class="cls-1" x1="267" y1="217.85" x2="267.03" y2="217.87"/><line class="cls-1" x1="267.03" y1="217.87" x2="267.07" y2="217.89"/><line class="cls-1" x1="267.07" y1="217.89" x2="267.09" y2="217.92"/><line class="cls-1" x1="267.09" y1="217.92" x2="267.12" y2="217.94"/><line class="cls-1" x1="267.12" y1="217.94" x2="267.13" y2="217.98"/><line class="cls-1" x1="267.13" y1="217.98" x2="267.16" y2="218.01"/><line class="cls-1" x1="267.16" y1="218.01" x2="267.16" y2="319.97"/><line class="cls-1" x1="267.16" y1="319.97" x2="267.13" y2="320"/><line class="cls-1" x1="249.85" y1="269.24" x2="213.28" y2="269.24"/><line class="cls-1" x1="213.28" y1="269.24" x2="213.28" y2="319.67"/><line class="cls-1" x1="213.28" y1="319.67" x2="266.7" y2="319.67"/><line class="cls-1" x1="266.7" y1="319.67" x2="266.7" y2="269.24"/><line class="cls-1" x1="266.7" y1="269.24" x2="249.85" y2="269.24"/><line class="cls-1" x1="230.15" y1="218.31" x2="213.28" y2="218.31"/><line class="cls-1" x1="213.28" y1="218.31" x2="213.28" y2="268.74"/><line class="cls-1" x1="213.28" y1="268.74" x2="266.7" y2="268.74"/><line class="cls-1" x1="266.7" y1="268.74" x2="266.7" y2="218.31"/><line class="cls-1" x1="266.7" y1="218.31" x2="249.85" y2="218.31"/><line class="cls-1" x1="429.32" y1="206.45" x2="429.35" y2="206.47"/><line class="cls-1" x1="429.35" y1="206.47" x2="429.38" y2="206.48"/><line class="cls-1" x1="429.38" y1="206.48" x2="429.4" y2="206.51"/><line class="cls-1" x1="429.4" y1="206.51" x2="429.43" y2="206.54"/><line class="cls-1" x1="429.43" y1="206.54" x2="429.45" y2="206.57"/><line class="cls-1" x1="429.45" y1="206.57" x2="429.47" y2="206.6"/><line class="cls-1" x1="429.47" y1="206.6" x2="429.47" y2="212.53"/><line class="cls-1" x1="429.47" y1="212.53" x2="537.27" y2="212.53"/><line class="cls-1" x1="537.27" y1="212.53" x2="537.3" y2="212.55"/><line class="cls-1" x1="537.3" y1="212.55" x2="537.34" y2="212.56"/><line class="cls-1" x1="537.34" y1="212.56" x2="537.36" y2="212.6"/><line class="cls-1" x1="537.36" y1="212.6" x2="537.39" y2="212.62"/><line class="cls-1" x1="537.39" y1="212.62" x2="537.4" y2="212.65"/><line class="cls-1" x1="537.4" y1="212.65" x2="537.42" y2="212.68"/><line class="cls-1" x1="537.42" y1="212.68" x2="537.42" y2="314.65"/><line class="cls-1" x1="537.42" y1="314.65" x2="537.4" y2="314.68"/><line class="cls-1" x1="537.4" y1="314.68" x2="537.39" y2="314.72"/><line class="cls-1" x1="537.39" y1="314.72" x2="537.36" y2="314.74"/><line class="cls-1" x1="537.36" y1="314.74" x2="537.34" y2="314.77"/><line class="cls-1" x1="537.34" y1="314.77" x2="537.3" y2="314.78"/><line class="cls-1" x1="537.3" y1="314.78" x2="537.27" y2="314.81"/><line class="cls-1" x1="537.27" y1="314.81" x2="429.27" y2="314.81"/><line class="cls-1" x1="429.27" y1="314.81" x2="429.24" y2="314.78"/><line class="cls-1" x1="429.24" y1="314.78" x2="429.2" y2="314.77"/><line class="cls-1" x1="429.2" y1="314.77" x2="429.18" y2="314.74"/><line class="cls-1" x1="429.18" y1="314.74" x2="429.15" y2="314.72"/><line class="cls-1" x1="429.15" y1="314.72" x2="429.14" y2="314.68"/><line class="cls-1" x1="429.14" y1="314.68" x2="429.11" y2="314.65"/><line class="cls-1" x1="429.11" y1="314.65" x2="429.11" y2="314.5"/><line class="cls-1" x1="429.11" y1="314.5" x2="429.11" y2="314.5"/><line class="cls-1" x1="429.11" y1="314.5" x2="429.11" y2="308.72"/><line class="cls-1" x1="429.11" y1="308.72" x2="375.29" y2="308.72"/><line class="cls-1" x1="375.29" y1="308.72" x2="375.26" y2="308.7"/><line class="cls-1" x1="375.26" y1="308.7" x2="375.22" y2="308.69"/><line class="cls-1" x1="375.22" y1="308.69" x2="375.2" y2="308.66"/><line class="cls-1" x1="375.2" y1="308.66" x2="375.17" y2="308.64"/><line class="cls-1" x1="375.17" y1="308.64" x2="375.16" y2="308.6"/><line class="cls-1" x1="375.16" y1="308.6" x2="375.14" y2="308.57"/><line class="cls-1" x1="375.14" y1="308.57" x2="375.14" y2="308.42"/><line class="cls-1" x1="375.14" y1="308.42" x2="375.14" y2="308.42"/><line class="cls-1" x1="375.14" y1="308.42" x2="375.14" y2="302.64"/><line class="cls-1" x1="375.14" y1="302.64" x2="321.51" y2="302.64"/><line class="cls-1" x1="321.51" y1="302.64" x2="321.51" y2="312.75"/><line class="cls-1" x1="321.51" y1="312.75" x2="321.49" y2="312.78"/><line class="cls-1" x1="321.49" y1="312.78" x2="321.48" y2="312.82"/><line class="cls-1" x1="321.48" y1="312.82" x2="321.45" y2="312.84"/><line class="cls-1" x1="321.45" y1="312.84" x2="321.43" y2="312.87"/><line class="cls-1" x1="321.43" y1="312.87" x2="321.39" y2="312.88"/><line class="cls-1" x1="321.39" y1="312.88" x2="321.36" y2="312.91"/><line class="cls-1" x1="321.36" y1="312.91" x2="267.34" y2="312.91"/><line class="cls-1" x1="267.34" y1="312.91" x2="267.3" y2="312.88"/><line class="cls-1" x1="267.3" y1="312.88" x2="267.27" y2="312.87"/><line class="cls-1" x1="267.27" y1="312.87" x2="267.25" y2="312.84"/><line class="cls-1" x1="267.25" y1="312.84" x2="267.22" y2="312.82"/><line class="cls-1" x1="267.22" y1="312.82" x2="267.2" y2="312.78"/><line class="cls-1" x1="267.2" y1="312.78" x2="267.18" y2="312.75"/><line class="cls-1" x1="267.18" y1="312.75" x2="267.18" y2="312.6"/><line class="cls-1" x1="267.18" y1="312.6" x2="267.18" y2="312.6"/><line class="cls-1" x1="267.18" y1="312.6" x2="267.18" y2="261.76"/><line class="cls-1" x1="267.18" y1="261.76" x2="267.18" y2="261.67"/><line class="cls-1" x1="267.18" y1="261.67" x2="267.18" y2="261.67"/><line class="cls-1" x1="267.18" y1="261.67" x2="267.18" y2="210.82"/><line class="cls-1" x1="267.18" y1="210.82" x2="267.18" y2="210.78"/><line class="cls-1" x1="267.18" y1="210.78" x2="267.2" y2="210.75"/><line class="cls-1" x1="267.2" y1="210.75" x2="267.22" y2="210.72"/><line class="cls-1" x1="267.22" y1="210.72" x2="267.25" y2="210.69"/><line class="cls-1" x1="267.25" y1="210.69" x2="267.27" y2="210.66"/><line class="cls-1" x1="267.27" y1="210.66" x2="267.3" y2="210.65"/><line class="cls-1" x1="267.3" y1="210.65" x2="267.34" y2="210.63"/><line class="cls-1" x1="267.34" y1="210.63" x2="321.16" y2="210.63"/><line class="cls-1" x1="321.16" y1="210.63" x2="321.16" y2="200.52"/><line class="cls-1" x1="321.16" y1="200.52" x2="321.18" y2="200.49"/><line class="cls-1" x1="321.18" y1="200.49" x2="321.19" y2="200.45"/><line class="cls-1" x1="321.19" y1="200.45" x2="321.22" y2="200.43"/><line class="cls-1" x1="321.22" y1="200.43" x2="321.25" y2="200.4"/><line class="cls-1" x1="321.25" y1="200.4" x2="321.28" y2="200.39"/><line class="cls-1" x1="321.28" y1="200.39" x2="321.31" y2="200.37"/><line class="cls-1" x1="321.31" y1="200.37" x2="375.34" y2="200.37"/><line class="cls-1" x1="375.34" y1="200.37" x2="375.37" y2="200.39"/><line class="cls-1" x1="375.37" y1="200.39" x2="375.4" y2="200.4"/><line class="cls-1" x1="375.4" y1="200.4" x2="375.43" y2="200.43"/><line class="cls-1" x1="375.43" y1="200.43" x2="375.46" y2="200.45"/><line class="cls-1" x1="375.46" y1="200.45" x2="375.47" y2="200.49"/><line class="cls-1" x1="375.47" y1="200.49" x2="375.49" y2="200.52"/><line class="cls-1" x1="375.49" y1="200.52" x2="375.49" y2="206.45"/><line class="cls-1" x1="375.49" y1="206.45" x2="429.32" y2="206.45"/><line class="cls-1" x1="520.12" y1="263.92" x2="483.55" y2="263.92"/><line class="cls-1" x1="483.55" y1="263.92" x2="483.55" y2="314.35"/><line class="cls-1" x1="483.55" y1="314.35" x2="536.97" y2="314.35"/><line class="cls-1" x1="536.97" y1="314.35" x2="536.97" y2="263.92"/><line class="cls-1" x1="536.97" y1="263.92" x2="520.12" y2="263.92"/><line class="cls-1" x1="466.14" y1="263.92" x2="429.57" y2="263.92"/><line class="cls-1" x1="429.57" y1="263.92" x2="429.57" y2="314.35"/><line class="cls-1" x1="429.57" y1="314.35" x2="482.99" y2="314.35"/><line class="cls-1" x1="482.99" y1="314.35" x2="482.99" y2="263.92"/><line class="cls-1" x1="482.99" y1="263.92" x2="466.14" y2="263.92"/><line class="cls-1" x1="304.6" y1="262.02" x2="267.64" y2="262.02"/><line class="cls-1" x1="267.64" y1="262.02" x2="267.64" y2="312.45"/><line class="cls-1" x1="267.64" y1="312.45" x2="321.06" y2="312.45"/><line class="cls-1" x1="321.06" y1="312.45" x2="321.06" y2="262.02"/><line class="cls-1" x1="321.06" y1="262.02" x2="304.21" y2="262.02"/><line class="cls-1" x1="412.16" y1="257.84" x2="375.59" y2="257.84"/><line class="cls-1" x1="375.59" y1="257.84" x2="375.59" y2="308.27"/><line class="cls-1" x1="375.59" y1="308.27" x2="429.01" y2="308.27"/><line class="cls-1" x1="429.01" y1="308.27" x2="429.01" y2="257.84"/><line class="cls-1" x1="429.01" y1="257.84" x2="412.16" y2="257.84"/><line class="cls-1" x1="358.18" y1="251.76" x2="321.62" y2="251.76"/><line class="cls-1" x1="321.62" y1="251.76" x2="321.62" y2="302.19"/><line class="cls-1" x1="321.62" y1="302.19" x2="375.04" y2="302.19"/><line class="cls-1" x1="375.04" y1="302.19" x2="375.04" y2="251.76"/><line class="cls-1" x1="375.04" y1="251.76" x2="358.18" y2="251.76"/><line class="cls-1" x1="520.12" y1="212.99" x2="483.55" y2="212.99"/><line class="cls-1" x1="483.55" y1="212.99" x2="483.55" y2="263.41"/><line class="cls-1" x1="483.55" y1="263.41" x2="536.97" y2="263.41"/><line class="cls-1" x1="536.97" y1="263.41" x2="536.97" y2="212.99"/><line class="cls-1" x1="536.97" y1="212.99" x2="520.12" y2="212.99"/><line class="cls-1" x1="429.57" y1="212.99" x2="429.57" y2="263.41"/><line class="cls-1" x1="429.57" y1="263.41" x2="482.99" y2="263.41"/><line class="cls-1" x1="482.99" y1="263.41" x2="482.99" y2="212.99"/><line class="cls-1" x1="304.21" y1="211.09" x2="267.64" y2="211.09"/><line class="cls-1" x1="267.64" y1="211.09" x2="267.64" y2="261.51"/><line class="cls-1" x1="267.64" y1="261.51" x2="321.06" y2="261.51"/><line class="cls-1" x1="321.06" y1="261.51" x2="321.06" y2="211.09"/><line class="cls-1" x1="321.06" y1="211.09" x2="304.21" y2="211.09"/><line class="cls-1" x1="412.16" y1="206.9" x2="375.59" y2="206.9"/><line class="cls-1" x1="375.59" y1="206.9" x2="375.59" y2="257.33"/><line class="cls-1" x1="375.59" y1="257.33" x2="429.01" y2="257.33"/><line class="cls-1" x1="429.01" y1="257.33" x2="429.01" y2="206.9"/><line class="cls-1" x1="429.01" y1="206.9" x2="412.16" y2="206.9"/><line class="cls-1" x1="338.49" y1="200.82" x2="321.62" y2="200.82"/><line class="cls-1" x1="321.62" y1="200.82" x2="321.62" y2="251.25"/><line class="cls-1" x1="321.62" y1="251.25" x2="375.04" y2="251.25"/><line class="cls-1" x1="375.04" y1="251.25" x2="375.04" y2="200.82"/><line class="cls-1" x1="375.04" y1="200.82" x2="338.49" y2="200.82"/><line class="cls-1" x1="326.76" y1="199.85" x2="368.37" y2="199.85"/><line class="cls-1" x1="368.37" y1="199.85" x2="368.39" y2="199.84"/><line class="cls-1" x1="368.39" y1="199.84" x2="368.5" y2="199.85"/><line class="cls-1" x1="368.5" y1="199.85" x2="368.54" y2="199.85"/><line class="cls-1" x1="368.54" y1="199.85" x2="368.56" y2="199.86"/><line class="cls-1" x1="368.56" y1="199.86" x2="368.65" y2="199.86"/><line class="cls-1" x1="368.65" y1="199.86" x2="368.68" y2="199.89"/><line class="cls-1" x1="368.68" y1="199.89" x2="368.73" y2="199.89"/><line class="cls-1" x1="368.73" y1="199.89" x2="368.8" y2="199.95"/><line class="cls-1" x1="368.8" y1="199.95" x2="368.82" y2="199.96"/><line class="cls-1" x1="368.82" y1="199.96" x2="368.85" y2="199.99"/><line class="cls-1" x1="368.85" y1="199.99" x2="368.93" y2="200.06"/><line class="cls-1" x1="368.93" y1="200.06" x2="368.94" y2="200.08"/><line class="cls-1" x1="368.94" y1="200.08" x2="375.16" y2="205.93"/><line class="cls-1" x1="375.16" y1="205.93" x2="423.12" y2="205.93"/><line class="cls-1" x1="423.12" y1="205.93" x2="423.16" y2="205.92"/><line class="cls-1" x1="423.16" y1="205.92" x2="423.25" y2="205.93"/><line class="cls-1" x1="423.25" y1="205.93" x2="423.27" y2="205.93"/><line class="cls-1" x1="423.27" y1="205.93" x2="423.31" y2="205.94"/><line class="cls-1" x1="423.31" y1="205.94" x2="423.42" y2="205.96"/><line class="cls-1" x1="423.42" y1="205.96" x2="423.44" y2="205.97"/><line class="cls-1" x1="423.44" y1="205.97" x2="423.46" y2="205.98"/><line class="cls-1" x1="423.46" y1="205.98" x2="423.55" y2="206.04"/><line class="cls-1" x1="423.55" y1="206.04" x2="423.58" y2="206.07"/><line class="cls-1" x1="423.58" y1="206.07" x2="423.6" y2="206.08"/><line class="cls-1" x1="423.6" y1="206.08" x2="423.67" y2="206.14"/><line class="cls-1" x1="423.67" y1="206.14" x2="423.69" y2="206.18"/><line class="cls-1" x1="423.69" y1="206.18" x2="429.16" y2="212.01"/><line class="cls-1" x1="429.16" y1="212.01" x2="531.86" y2="211.78"/><line class="cls-1" x1="531.86" y1="211.78" x2="531.92" y2="211.77"/><line class="cls-1" x1="531.92" y1="211.77" x2="531.99" y2="211.78"/><line class="cls-1" x1="531.99" y1="211.78" x2="531.99" y2="211.78"/><line class="cls-1" x1="531.99" y1="211.78" x2="532.04" y2="211.79"/><line class="cls-1" x1="532.04" y1="211.79" x2="532.17" y2="211.82"/><line class="cls-1" x1="532.17" y1="211.82" x2="532.18" y2="211.82"/><line class="cls-1" x1="532.18" y1="211.82" x2="532.18" y2="211.82"/><line class="cls-1" x1="532.18" y1="211.82" x2="532.28" y2="211.9"/><line class="cls-1" x1="532.28" y1="211.9" x2="532.33" y2="211.94"/><line class="cls-1" x1="532.33" y1="211.94" x2="532.33" y2="211.94"/><line class="cls-1" x1="532.33" y1="211.94" x2="532.38" y2="211.99"/><line class="cls-1" x1="532.38" y1="211.99" x2="532.41" y2="212.04"/><line class="cls-1" x1="532.41" y1="212.04" x2="537.6" y2="218.35"/><line class="cls-1" x1="537.6" y1="218.35" x2="537.61" y2="218.36"/><line class="cls-1" x1="537.61" y1="218.36" x2="537.69" y2="218.46"/><line class="cls-1" x1="537.69" y1="218.46" x2="537.73" y2="218.5"/><line class="cls-1" x1="537.73" y1="218.5" x2="537.73" y2="218.5"/><line class="cls-1" x1="537.73" y1="218.5" x2="537.77" y2="218.56"/><line class="cls-1" x1="537.77" y1="218.56" x2="537.79" y2="218.62"/><line class="cls-1" x1="537.79" y1="218.62" x2="537.82" y2="218.68"/><line class="cls-1" x1="537.82" y1="218.68" x2="537.82" y2="218.75"/><line class="cls-1" x1="537.82" y1="218.75" x2="537.82" y2="218.75"/><line class="cls-1" x1="537.82" y1="218.75" x2="537.82" y2="218.81"/><line class="cls-1" x1="537.82" y1="218.81" x2="537.82" y2="218.94"/><line class="cls-1" x1="537.82" y1="218.94" x2="537.82" y2="218.94"/><line class="cls-1" x1="537.82" y1="218.94" x2="537.82" y2="315.85"/><line class="cls-1" x1="537.82" y1="315.85" x2="537.82" y2="315.86"/><line class="cls-1" x1="537.82" y1="315.86" x2="537.82" y2="315.98"/><line class="cls-1" x1="537.82" y1="315.98" x2="537.82" y2="316.04"/><line class="cls-1" x1="537.82" y1="316.04" x2="537.82" y2="316.05"/><line class="cls-1" x1="537.82" y1="316.05" x2="537.82" y2="316.12"/><line class="cls-1" x1="537.82" y1="316.12" x2="537.79" y2="316.17"/><line class="cls-1" x1="537.79" y1="316.17" x2="537.77" y2="316.23"/><line class="cls-1" x1="537.77" y1="316.23" x2="537.73" y2="316.29"/><line class="cls-1" x1="537.73" y1="316.29" x2="537.7" y2="316.35"/><line class="cls-1" x1="537.7" y1="316.35" x2="537.65" y2="316.39"/><line class="cls-1" x1="537.65" y1="316.39" x2="537.61" y2="316.44"/><line class="cls-1" x1="537.61" y1="316.44" x2="537.55" y2="316.47"/><line class="cls-1" x1="537.55" y1="316.47" x2="537.54" y2="316.47"/><line class="cls-1" x1="537.54" y1="316.47" x2="537.49" y2="316.49"/><line class="cls-1" x1="537.49" y1="316.49" x2="537.38" y2="316.55"/><line class="cls-1" x1="537.38" y1="316.55" x2="537.38" y2="316.55"/><line class="cls-1" x1="537.38" y1="316.55" x2="229.99" y2="459.19"/><line class="cls-1" x1="229.99" y1="459.19" x2="229.88" y2="459.24"/><line class="cls-1" x1="229.88" y1="459.24" x2="229.81" y2="459.24"/><line class="cls-1" x1="229.81" y1="459.24" x2="229.74" y2="459.26"/><line class="cls-1" x1="229.74" y1="459.26" x2="229.62" y2="459.23"/><line class="cls-1" x1="229.62" y1="459.23" x2="217.14" y2="456.58"/><line class="cls-1" x1="217.14" y1="456.58" x2="217.07" y2="456.58"/><line class="cls-1" x1="217.07" y1="456.58" x2="216.95" y2="456.52"/><line class="cls-1" x1="216.95" y1="456.52" x2="216.84" y2="456.47"/><line class="cls-1" x1="216.84" y1="456.47" x2="216.84" y2="456.47"/><line class="cls-1" x1="216.84" y1="456.47" x2="216.83" y2="456.47"/><line class="cls-1" x1="216.83" y1="456.47" x2="216.76" y2="456.37"/><line class="cls-1" x1="216.76" y1="456.37" x2="216.68" y2="456.27"/><line class="cls-1" x1="216.68" y1="456.27" x2="216.66" y2="456.2"/><line class="cls-1" x1="216.66" y1="456.2" x2="168.76" y2="355.85"/><line class="cls-1" x1="168.84" y1="224" x2="175.85" y2="217.26"/><line class="cls-1" x1="175.85" y1="217.26" x2="176.01" y2="217.15"/><line class="cls-1" x1="176.01" y1="217.15" x2="176.27" y2="217.13"/><line class="cls-1" x1="176.27" y1="217.13" x2="176.52" y2="217.22"/><line class="cls-1" x1="176.52" y1="217.22" x2="176.55" y2="217.25"/><line class="cls-1" x1="176.55" y1="217.25" x2="266.79" y2="217.45"/><line class="cls-1" x1="266.79" y1="217.45" x2="274.01" y2="210.23"/><line class="cls-1" x1="274.01" y1="210.23" x2="274.01" y2="210.17"/><line class="cls-1" x1="274.01" y1="210.17" x2="274.12" y2="209.94"/><line class="cls-1" x1="274.12" y1="209.94" x2="274.33" y2="209.78"/><line class="cls-1" x1="274.33" y1="209.78" x2="274.52" y2="209.73"/><line class="cls-1" x1="274.52" y1="209.73" x2="316.54" y2="209.73"/><line class="cls-1" x1="316.54" y1="209.73" x2="326.19" y2="200.09"/><line class="cls-1" x1="326.19" y1="200.09" x2="326.2" y2="200.06"/><line class="cls-1" x1="326.2" y1="200.06" x2="326.28" y2="200"/><line class="cls-1" x1="326.28" y1="200" x2="326.3" y2="199.97"/><line class="cls-1" x1="326.3" y1="199.97" x2="326.33" y2="199.96"/><line class="cls-1" x1="326.33" y1="199.96" x2="326.4" y2="199.89"/><line class="cls-1" x1="326.4" y1="199.89" x2="326.44" y2="199.89"/><line class="cls-1" x1="326.44" y1="199.89" x2="326.47" y2="199.87"/><line class="cls-1" x1="326.47" y1="199.87" x2="326.56" y2="199.86"/><line class="cls-1" x1="326.56" y1="199.86" x2="326.59" y2="199.85"/><line class="cls-1" x1="326.59" y1="199.85" x2="326.63" y2="199.85"/><line class="cls-1" x1="326.63" y1="199.85" x2="326.72" y2="199.84"/><line class="cls-1" x1="326.72" y1="199.84" x2="326.76" y2="199.85"/><line class="cls-1" x1="169.76" y1="355.31" x2="169.79" y2="355.36"/><line class="cls-1" x1="169.79" y1="355.36" x2="217.6" y2="455.51"/><line class="cls-1" x1="217.6" y1="455.51" x2="229.68" y2="458.07"/><line class="cls-1" x1="229.68" y1="458.07" x2="536.68" y2="315.62"/><line class="cls-1" x1="536.68" y1="315.62" x2="536.68" y2="219.02"/><line class="cls-1" x1="536.68" y1="219.02" x2="531.66" y2="212.92"/><line class="cls-1" x1="429" y1="213.16" x2="428.96" y2="213.17"/><line class="cls-1" x1="428.96" y1="213.17" x2="428.87" y2="213.16"/><line class="cls-1" x1="428.87" y1="213.16" x2="428.85" y2="213.16"/><line class="cls-1" x1="428.85" y1="213.16" x2="428.81" y2="213.15"/><line class="cls-1" x1="428.81" y1="213.15" x2="428.7" y2="213.13"/><line class="cls-1" x1="428.7" y1="213.13" x2="428.68" y2="213.12"/><line class="cls-1" x1="428.68" y1="213.12" x2="428.66" y2="213.11"/><line class="cls-1" x1="428.66" y1="213.11" x2="428.57" y2="213.05"/><line class="cls-1" x1="428.57" y1="213.05" x2="428.54" y2="213.02"/><line class="cls-1" x1="428.54" y1="213.02" x2="428.52" y2="213.01"/><line class="cls-1" x1="428.52" y1="213.01" x2="428.45" y2="212.95"/><line class="cls-1" x1="428.45" y1="212.95" x2="428.44" y2="212.91"/><line class="cls-1" x1="428.44" y1="212.91" x2="422.96" y2="207.07"/><line class="cls-1" x1="422.96" y1="207.07" x2="375.04" y2="207.07"/><line class="cls-1" x1="375.04" y1="207.07" x2="375.02" y2="207.08"/><line class="cls-1" x1="375.02" y1="207.08" x2="374.91" y2="207.07"/><line class="cls-1" x1="374.91" y1="207.07" x2="374.87" y2="207.07"/><line class="cls-1" x1="374.87" y1="207.07" x2="374.85" y2="207.07"/><line class="cls-1" x1="374.85" y1="207.07" x2="374.76" y2="207.06"/><line class="cls-1" x1="374.76" y1="207.06" x2="374.72" y2="207.04"/><line class="cls-1" x1="374.72" y1="207.04" x2="374.68" y2="207.03"/><line class="cls-1" x1="374.68" y1="207.03" x2="374.61" y2="206.97"/><line class="cls-1" x1="374.61" y1="206.97" x2="374.59" y2="206.96"/><line class="cls-1" x1="374.59" y1="206.96" x2="374.56" y2="206.93"/><line class="cls-1" x1="374.56" y1="206.93" x2="374.48" y2="206.87"/><line class="cls-1" x1="374.48" y1="206.87" x2="374.47" y2="206.85"/><line class="cls-1" x1="374.47" y1="206.85" x2="368.25" y2="200.99"/><line class="cls-1" x1="368.25" y1="200.99" x2="326.89" y2="200.99"/><line class="cls-1" x1="326.89" y1="200.99" x2="317.25" y2="210.64"/><line class="cls-1" x1="317.25" y1="210.64" x2="317.23" y2="210.67"/><line class="cls-1" x1="317.23" y1="210.67" x2="317.16" y2="210.73"/><line class="cls-1" x1="317.16" y1="210.73" x2="317.13" y2="210.75"/><line class="cls-1" x1="317.13" y1="210.75" x2="317.11" y2="210.77"/><line class="cls-1" x1="317.11" y1="210.77" x2="317.03" y2="210.83"/><line class="cls-1" x1="317.03" y1="210.83" x2="317" y2="210.84"/><line class="cls-1" x1="317" y1="210.84" x2="316.97" y2="210.86"/><line class="cls-1" x1="316.97" y1="210.86" x2="316.87" y2="210.87"/><line class="cls-1" x1="316.87" y1="210.87" x2="316.84" y2="210.87"/><line class="cls-1" x1="316.84" y1="210.87" x2="316.81" y2="210.87"/><line class="cls-1" x1="316.81" y1="210.87" x2="316.71" y2="210.89"/><line class="cls-1" x1="316.71" y1="210.89" x2="316.68" y2="210.87"/><line class="cls-1" x1="316.68" y1="210.87" x2="274.66" y2="210.87"/><line class="cls-1" x1="274.66" y1="210.87" x2="267.39" y2="218.14"/><line class="cls-1" x1="267.39" y1="218.14" x2="267.39" y2="218.14"/><line class="cls-1" x1="267.39" y1="218.14" x2="267.3" y2="218.23"/><line class="cls-1" x1="267.3" y1="218.23" x2="267.26" y2="218.27"/><line class="cls-1" x1="267.26" y1="218.27" x2="267.26" y2="218.27"/><line class="cls-1" x1="267.26" y1="218.27" x2="267.21" y2="218.32"/><line class="cls-1" x1="267.21" y1="218.32" x2="267.15" y2="218.33"/><line class="cls-1" x1="267.15" y1="218.33" x2="267.1" y2="218.36"/><line class="cls-1" x1="267.1" y1="218.36" x2="267.04" y2="218.36"/><line class="cls-1" x1="267.04" y1="218.36" x2="267.04" y2="218.36"/><line class="cls-1" x1="267.04" y1="218.36" x2="266.98" y2="218.36"/><line class="cls-1" x1="266.98" y1="218.36" x2="266.86" y2="218.36"/><line class="cls-1" x1="266.86" y1="218.36" x2="266.86" y2="218.36"/><line class="cls-1" x1="266.86" y1="218.36" x2="176.54" y2="218.17"/><line class="cls-1" x1="176.54" y1="218.17" x2="169.74" y2="224.72"/></g></g><line class="cls-1" x1="169.74" y1="224.72" x2="169.76" y2="355.31"/><line class="cls-1" x1="168.84" y1="224" x2="168.76" y2="355.85"/></g></g></g><line class="cls-2" x1="287.16" y1="236.13" x2="301.33" y2="236.13"/><line class="cls-2" x1="294.25" y1="243.22" x2="294.25" y2="229.04"/></g><text class="cls-3" transform="translate(360.89 500.7)">Georgi</text><line class="cls-4" x1="364.85" y1="491.28" x2="360.27" y2="398.73"/><rect id="border" class="cls-4" x="0.25" y="0.25" width="751.18" height="565.7"/></g></g></g></svg>