<svg xmlns="http://www.w3.org/2000/svg" xmlns:xlink="http://www.w3.org/1999/xlink" viewBox="0 0 751.68 566.2"><defs><style>.cls-1,.cls-2,.cls-6{fill:none;}.cls-2,.cls-6{stroke:#000;}.cls-2{stroke-linecap:round;stroke-linejoin:round;}.cls-3{clip-path:url(#clip-path);}.cls-4{clip-path:url(#clip-path-2);}.cls-5{font-size:10px;font-family:FiraSansCondensed-Medium, Fira Sans Condensed;font-weight:500;}.cls-6{stroke-miterlimit:10;stroke-width:0.5px;}</style><clipPath id="clip-path"><rect class="cls-1" x="485.12" y="214.88" width="0.63" height="64.88"/></clipPath><clipPath id="clip-path-2"><rect class="cls-1" x="482.6" y="277.88" width="3.15" height="5.67"/></clipPath></defs><g id="Layer_2" data-name="Layer 2"><g id="main"><g id="ginny"><g id="ginny-2" data-name="ginny"><line class="cls-2" x1="225.34" y1="272.4" x2="225.34" y2="287.67"/><path class="cls-2" d="M275.17,379.34a4.73,4.73,0,0,1-6.9-2.17"/><line class="cls-2" x1="225.34" y1="287.67" x2="268.26" y2="377.16"/><line class="cls-2" x1="225.34" y1="238.92" x2="225.34" y2="272.4"/><line class="cls-2" x1="225.34" y1="238.92" x2="225.34" y2="216.38"/><line class="cls-2" x1="318.08" y1="208.38" x2="234.06" y2="207.65"/><path class="cls-2" d="M225.34,216.38a8.74,8.74,0,0,1,8.73-8.73"/><line class="cls-2" x1="325.73" y1="200.37" x2="373.77" y2="200.74"/><path class="cls-2" d="M378.87,205.83a2.55,2.55,0,0,1-2.55-2.54"/><line class="cls-2" x1="378.86" y1="205.83" x2="428.31" y2="205.83"/><path class="cls-2" d="M428.32,205.84a2.54,2.54,0,0,1,2.54,2.54"/><path class="cls-2" d="M321.74,204.38a4,4,0,0,1,4-4"/><path class="cls-2" d="M321.73,204.38a4,4,0,0,1-3.65,4"/><path class="cls-2" d="M373.78,200.74a2.55,2.55,0,0,1,2.54,2.55"/><g class="cls-3"><line class="cls-2" x1="485.69" y1="278.94" x2="485.78" y2="216.01"/></g><line class="cls-2" x1="275.17" y1="379.34" x2="483.6" y2="282.94"/><path class="cls-2" d="M433.41,210.93a2.55,2.55,0,0,1-2.55-2.55"/><g class="cls-4"><path class="cls-2" d="M485.71,279a4.87,4.87,0,0,1-2.1,4"/></g><line class="cls-2" x1="433.41" y1="210.92" x2="480.69" y2="210.92"/><line class="cls-2" x1="321.71" y1="263.3" x2="321.71" y2="208.74"/><line class="cls-2" x1="267.14" y1="263.3" x2="321.71" y2="263.3"/><line class="cls-2" x1="267.14" y1="208.74" x2="267.14" y2="263.3"/><line class="cls-2" x1="321.71" y1="208.74" x2="267.14" y2="208.74"/><line class="cls-2" x1="270.34" y1="381.77" x2="319.79" y2="358.7"/><line class="cls-2" x1="319.79" y1="358.7" x2="296.74" y2="309.25"/><line class="cls-2" x1="247.27" y1="332.31" x2="270.34" y2="381.77"/><line class="cls-2" x1="296.74" y1="309.25" x2="247.27" y2="332.31"/><line class="cls-2" x1="376.27" y1="205.43" x2="376.27" y2="259.99"/><line class="cls-2" x1="376.27" y1="254.54" x2="376.27" y2="199.97"/><line class="cls-2" x1="321.71" y1="254.54" x2="376.27" y2="254.54"/><line class="cls-2" x1="321.71" y1="199.97" x2="321.71" y2="254.54"/><line class="cls-2" x1="376.27" y1="199.97" x2="321.71" y2="199.97"/><line class="cls-2" x1="485.39" y1="265.49" x2="485.39" y2="210.92"/><line class="cls-2" x1="430.83" y1="265.49" x2="485.39" y2="265.49"/><line class="cls-2" x1="430.83" y1="210.92" x2="430.83" y2="265.49"/><line class="cls-2" x1="485.39" y1="210.92" x2="430.83" y2="210.92"/><line class="cls-2" x1="430.83" y1="259.99" x2="430.83" y2="205.43"/><line class="cls-2" x1="376.27" y1="259.99" x2="430.83" y2="259.99"/><line class="cls-2" x1="430.83" y1="205.43" x2="376.27" y2="205.43"/><text class="cls-5" transform="translate(454.81 524.71)">Ginny</text><line class="cls-6" x1="458.79" y1="513.73" x2="461.68" y2="293.08"/></g><line class="cls-2" x1="287.32" y1="236.13" x2="301.5" y2="236.13"/><line class="cls-2" x1="294.41" y1="243.22" x2="294.41" y2="229.04"/><rect id="border" class="cls-6" x="0.25" y="0.25" width="751.18" height="565.7"/></g></g></g></svg>