<svg xmlns="http://www.w3.org/2000/svg" viewBox="0 0 751.68 566.2"><defs><style>.cls-1{fill-opacity:0;}.cls-1,.cls-2,.cls-4{stroke:#000;}.cls-1,.cls-2{stroke-linecap:round;stroke-linejoin:round;}.cls-2,.cls-4{fill:none;}.cls-3{font-size:10px;font-family:FiraSansCondensed-Medium, Fira Sans Condensed;font-weight:500;}.cls-4{stroke-miterlimit:10;stroke-width:0.5px;}</style></defs><g id="Layer_2" data-name="Layer 2"><g id="main"><g id="interphase"><g id="interphase-2" data-name="interphase"><g id="g7054"><path id="path10" class="cls-1" d="M593.26,387.41v-288"/><path id="path12" class="cls-1" d="M593.26,387.41v7.2"/><path id="path14" class="cls-1" d="M593.26,99.41l-7.2-7.2"/><path id="path16" class="cls-1" d="M586.06,401.81l7.2-7.2"/><path id="path18" class="cls-1" d="M578.86,401.81h7.2"/><path id="path20" class="cls-1" d="M373.66,401.81h205.2"/><path id="path22" class="cls-1" d="M586.06,92.21h-1.8"/><path id="path24" class="cls-1" d="M197.26,272.21v-46.8"/><path id="path26" class="cls-1" d="M190.06,279.41l7.2-7.2"/><path id="path28" class="cls-1" d="M190.06,416.21V279.41"/><path id="path30" class="cls-1" d="M197.26,124.61v100.8"/><path id="path32" class="cls-1" d="M443.86,92.21h-1.8"/><path id="path34" class="cls-1" d="M377.26,92.21h64.8"/><path id="path36" class="cls-1" d="M366.46,92.21h10.8"/><path id="path38" class="cls-1" d="M312.46,99.41h-3.6"/><path id="path40" class="cls-1" d="M319.66,92.21l-7.2,7.2"/><path id="path42" class="cls-1" d="M366.46,92.21h-46.8"/><path id="path44" class="cls-1" d="M265.66,99.41l-18,18"/><path id="path46" class="cls-1" d="M308.86,99.41h-43.2"/><path id="path48" class="cls-1" d="M204.46,117.41h43.2"/><path id="path50" class="cls-1" d="M197.26,124.61l7.2-7.2"/><path id="path52" class="cls-1" d="M218.86,466.61l-28.8-50.4"/><path id="path54" class="cls-1" d="M294.46,423.41l-75.6,43.2"/><path id="path56" class="cls-1" d="M373.66,401.81l-79.2,21.6"/><path id="path58" class="cls-1" d="M443.86,92.21v30.6"/><path id="path70" class="cls-1" d="M584.26,122.81V92.21"/><path id="path96" class="cls-1" d="M443.86,122.81h140.4"/><path id="path134" class="cls-1" d="M517.66,335.86v2.95"/><path id="path136" class="cls-1" d="M513.05,335.86h4.61"/><path id="path138" class="cls-1" d="M513.05,337.73v-1.87"/><path id="path140" class="cls-1" d="M507.94,337.73h5.11"/><path id="path142" class="cls-1" d="M507.94,341v-3.31"/><path id="path144" class="cls-1" d="M499.3,341h8.64"/><path id="path146" class="cls-1" d="M499.3,337.73V341"/><path id="path148" class="cls-1" d="M494.19,337.73h5.11"/><path id="path152" class="cls-1" d="M491.74,320.45h2.45"/><path id="path154" class="cls-1" d="M491.74,312.53v7.92"/><path id="path156" class="cls-1" d="M494.19,312.53h-2.45"/><path id="path158" class="cls-1" d="M494.19,299.93v12.6"/><path id="path160" class="cls-1" d="M513.05,299.93H494.19"/><path id="path162" class="cls-1" d="M513.05,302.23v-2.3"/><path id="path164" class="cls-1" d="M517.66,302.23h-4.61"/><path id="path166" class="cls-1" d="M517.66,299.21v3"/><path id="path168" class="cls-1" d="M557.26,299.21h-39.6"/><path id="path174" class="cls-1" d="M494.19,320.45v17.28"/><path id="path192" class="cls-1" d="M557.26,335.86v2.95"/><path id="path194" class="cls-1" d="M561.87,335.86h-4.61"/><path id="path196" class="cls-1" d="M561.87,337.73v-1.87"/><path id="path198" class="cls-1" d="M567,337.73h-5.11"/><path id="path200" class="cls-1" d="M567,341v-3.31"/><path id="path202" class="cls-1" d="M575.62,341H567"/><path id="path204" class="cls-1" d="M575.62,337.73V341"/><path id="path206" class="cls-1" d="M580.73,337.73h-5.11"/><path id="path210" class="cls-1" d="M583.18,320.45h-2.45"/><path id="path212" class="cls-1" d="M583.18,312.53v7.92"/><path id="path214" class="cls-1" d="M580.73,312.53h2.45"/><path id="path216" class="cls-1" d="M580.73,299.93v12.6"/><path id="path218" class="cls-1" d="M561.87,299.93h18.86"/><path id="path220" class="cls-1" d="M561.87,302.23v-2.3"/><path id="path222" class="cls-1" d="M557.26,302.23h4.61"/><path id="path224" class="cls-1" d="M580.73,320.45v17.28"/><path id="path228" class="cls-1" d="M557.26,338.81h-39.6"/><path id="path230" class="cls-1" d="M557.26,299.21v3"/><path id="path232" class="cls-1" d="M249.18,392.83l-34.37,19.84"/><path id="path248" class="cls-1" d="M269,427.2,234.65,447"/><path id="path252" class="cls-1" d="M269,427.2,259.1,410l-9.92-17.18"/><path id="path254" class="cls-1" d="M234.65,447l-9.92-17.19-9.92-17.18"/><path id="path264" class="cls-1" d="M340.4,360.8l-38.33,10.27"/><path id="path268" class="cls-1" d="M340.4,360.8,345.54,380l5.13,19.16"/><path id="path280" class="cls-1" d="M350.67,399.13l-38.33,10.28"/><path id="path286" class="cls-1" d="M312.34,409.41l-5.14-19.17-5.13-19.17"/><path id="path296" class="cls-1" d="M368.31,263.17H328.63"/><path id="path300" class="cls-1" d="M368.31,263.17v39.68"/><path id="path312" class="cls-1" d="M368.31,302.85H328.63"/><path id="path318" class="cls-1" d="M328.63,302.85V263.17"/><path id="path328" class="cls-1" d="M260.31,292H220.63"/><path id="path332" class="cls-1" d="M260.31,292v39.68"/><path id="path334" class="cls-1" d="M220.63,292v39.68"/><path id="path344" class="cls-1" d="M260.31,331.65H220.63"/><path id="path360" class="cls-1" d="M530.31,137.17H490.63"/><path id="path364" class="cls-1" d="M530.31,137.17v39.68"/><path id="path366" class="cls-1" d="M490.63,137.17v39.68"/><path id="path376" class="cls-1" d="M530.31,176.85H490.63"/><path id="path392" class="cls-1" d="M260.31,238H220.63"/><path id="path408" class="cls-1" d="M260.31,277.65H220.63"/><path id="path412" class="cls-1" d="M260.31,277.65V238"/><path id="path414" class="cls-1" d="M220.63,277.65V238"/><path id="path424" class="cls-1" d="M260.31,184H220.63"/><path id="path428" class="cls-1" d="M260.31,184v39.68"/><path id="path430" class="cls-1" d="M220.63,184v39.68"/><path id="path440" class="cls-1" d="M260.31,223.65H220.63"/><path id="path456" class="cls-1" d="M260.31,130H220.63"/><path id="path472" class="cls-1" d="M260.31,169.65H220.63"/><path id="path476" class="cls-1" d="M260.31,169.65V130"/><path id="path478" class="cls-1" d="M220.63,169.65V130"/><path id="path488" class="cls-1" d="M314.31,270.37H274.63"/><path id="path504" class="cls-1" d="M314.31,310.05H274.63"/><path id="path508" class="cls-1" d="M314.31,310.05V270.37"/><path id="path510" class="cls-1" d="M274.63,310.05V270.37"/><path id="path520" class="cls-1" d="M314.31,216.37H274.63"/><path id="path536" class="cls-1" d="M314.31,256.05H274.63"/><path id="path540" class="cls-1" d="M314.31,256.05V216.37"/><path id="path542" class="cls-1" d="M274.63,256.05V216.37"/><path id="path552" class="cls-1" d="M314.31,162.37H274.63"/><path id="path556" class="cls-1" d="M314.31,162.37v39.68"/><path id="path558" class="cls-1" d="M274.63,162.37v39.68"/><path id="path568" class="cls-1" d="M314.31,202.05H274.63"/><path id="path584" class="cls-1" d="M368.31,209.17H328.63"/><path id="path590" class="cls-1" d="M328.63,209.17v39.68"/><path id="path600" class="cls-1" d="M368.31,248.85H328.63"/><path id="path604" class="cls-1" d="M368.31,248.85V209.17"/><path id="path616" class="cls-1" d="M368.31,155.17H328.63"/><path id="path632" class="cls-1" d="M368.31,194.85H328.63"/><path id="path636" class="cls-1" d="M368.31,194.85V155.17"/><path id="path638" class="cls-1" d="M328.63,194.85V155.17"/><path id="path648" class="cls-1" d="M368.31,101.17H328.63"/><path id="path654" class="cls-1" d="M328.63,101.17v39.68"/><path id="path664" class="cls-1" d="M368.31,140.85H328.63"/><path id="path668" class="cls-1" d="M368.31,140.85V101.17"/><path id="path680" class="cls-1" d="M422.31,353.17H382.63"/><path id="path684" class="cls-1" d="M422.31,353.17v39.68"/><path id="path696" class="cls-1" d="M422.31,392.85H382.63"/><path id="path702" class="cls-1" d="M382.63,392.85V353.17"/><path id="path712" class="cls-1" d="M422.31,270.37H382.63"/><path id="path716" class="cls-1" d="M422.31,270.37v39.68"/><path id="path728" class="cls-1" d="M422.31,310.05H382.63"/><path id="path734" class="cls-1" d="M382.63,310.05V270.37"/><path id="path744" class="cls-1" d="M422.31,216.37H382.63"/><path id="path760" class="cls-1" d="M422.31,256.05H382.63"/><path id="path764" class="cls-1" d="M422.31,256.05V216.37"/><path id="path766" class="cls-1" d="M382.63,256.05V216.37"/><path id="path776" class="cls-1" d="M422.31,162.37H382.63"/><path id="path792" class="cls-1" d="M422.31,202.05H382.63"/><path id="path796" class="cls-1" d="M422.31,202.05V162.37"/><path id="path798" class="cls-1" d="M382.63,202.05V162.37"/><path id="path808" class="cls-1" d="M422.31,108.37H382.63"/><path id="path824" class="cls-1" d="M422.31,148.05H382.63"/><path id="path828" class="cls-1" d="M422.31,148.05V108.37"/><path id="path830" class="cls-1" d="M382.63,148.05V108.37"/><path id="path840" class="cls-1" d="M476.31,353.17H436.63"/><path id="path856" class="cls-1" d="M476.31,392.85H436.63"/><path id="path860" class="cls-1" d="M476.31,392.85V353.17"/><path id="path862" class="cls-1" d="M436.63,392.85V353.17"/><path id="path872" class="cls-1" d="M476.31,292H436.63"/><path id="path888" class="cls-1" d="M476.31,331.65H436.63"/><path id="path892" class="cls-1" d="M476.31,331.65V292"/><path id="path894" class="cls-1" d="M436.63,331.65V292"/><path id="path904" class="cls-1" d="M476.31,238H436.63"/><path id="path908" class="cls-1" d="M476.31,238v39.68"/><path id="path920" class="cls-1" d="M476.31,277.65H436.63"/><path id="path926" class="cls-1" d="M436.63,277.65V238"/><path id="path936" class="cls-1" d="M476.31,184H436.63"/><path id="path942" class="cls-1" d="M436.63,184v39.68"/><path id="path952" class="cls-1" d="M476.31,223.65H436.63"/><path id="path956" class="cls-1" d="M476.31,223.65V184"/><path id="path968" class="cls-1" d="M476.31,130H436.63"/><path id="path972" class="cls-1" d="M476.31,130v39.68"/><path id="path984" class="cls-1" d="M476.31,169.65H436.63"/><path id="path990" class="cls-1" d="M436.63,169.65V130"/><path id="path1000" class="cls-1" d="M530.31,353.17H490.63"/><path id="path1004" class="cls-1" d="M530.31,353.17v39.68"/><path id="path1016" class="cls-1" d="M530.31,392.85H490.63"/><path id="path1022" class="cls-1" d="M490.63,392.85V353.17"/><path id="path1032" class="cls-1" d="M530.31,245.17H490.63"/><path id="path1038" class="cls-1" d="M490.63,245.17v39.68"/><path id="path1048" class="cls-1" d="M530.31,284.85H490.63"/><path id="path1052" class="cls-1" d="M530.31,284.85V245.17"/><path id="path1064" class="cls-1" d="M530.31,191.17H490.63"/><path id="path1080" class="cls-1" d="M530.31,230.85H490.63"/><path id="path1084" class="cls-1" d="M530.31,230.85V191.17"/><path id="path1086" class="cls-1" d="M490.63,230.85V191.17"/><path id="path1096" class="cls-1" d="M584.31,353.17H544.63"/><path id="path1100" class="cls-1" d="M584.31,353.17v39.68"/><path id="path1112" class="cls-1" d="M584.31,392.85H544.63"/><path id="path1118" class="cls-1" d="M544.63,392.85V353.17"/><path id="path1128" class="cls-1" d="M584.31,245.17H544.63"/><path id="path1144" class="cls-1" d="M584.31,284.85H544.63"/><path id="path1148" class="cls-1" d="M584.31,284.85V245.17"/><path id="path1150" class="cls-1" d="M544.63,284.85V245.17"/><path id="path1160" class="cls-1" d="M584.31,137.17H544.63"/><path id="path1164" class="cls-1" d="M584.31,137.17v39.68"/><path id="path1166" class="cls-1" d="M544.63,137.17v39.68"/><path id="path1176" class="cls-1" d="M584.31,176.85H544.63"/><path id="path1192" class="cls-1" d="M584.31,191.17H544.63"/><path id="path1198" class="cls-1" d="M544.63,191.17v39.68"/><path id="path1208" class="cls-1" d="M584.31,230.85H544.63"/><path id="path1212" class="cls-1" d="M584.31,230.85V191.17"/><path id="path1224" class="cls-1" d="M314.31,108.37H274.63"/><path id="path1240" class="cls-1" d="M314.31,148.05H274.63"/><path id="path1244" class="cls-1" d="M314.31,148.05V108.37"/><path id="path1246" class="cls-1" d="M274.63,148.05V108.37"/></g><line class="cls-2" x1="287.22" y1="236.11" x2="301.39" y2="236.11"/><line class="cls-2" x1="294.31" y1="243.2" x2="294.31" y2="229.03"/></g><text class="cls-3" transform="translate(3.29 123.09)">Interphase</text><line class="cls-4" x1="204.46" y1="117.41" x2="53.26" y2="119.09"/><rect id="border" class="cls-4" x="0.25" y="0.25" width="751.18" height="565.7"/></g></g></g></svg>