<svg xmlns="http://www.w3.org/2000/svg" viewBox="0 0 751.68 566.2"><defs><style>.cls-1,.cls-2,.cls-4{fill:none;stroke:#000;}.cls-1{stroke-miterlimit:11.34;}.cls-2{stroke-linecap:round;stroke-linejoin:round;}.cls-3{font-size:10px;font-family:FiraSansCondensed-Medium, Fira Sans Condensed;font-weight:500;}.cls-4{stroke-miterlimit:10;stroke-width:0.5px;}</style></defs><g id="Layer_2" data-name="Layer 2"><g id="main"><g id="keeseebee"><path class="cls-1" d="M296.32,379l108-7.2,133.2-18v-162l-108-36-54-7.2h-54l-108,14.4v169.1L169,354.32l24.09,48.33Zm32.36-183.56V155.8h39.68v39.68Zm-54,7.2V163h39.68v39.68Zm108,0V163h39.68v39.68Zm-162,7.2V170.2h39.68v39.68Zm216,21.6V191.8h39.68v39.68Zm54,7.2V199h39.68v39.68Zm-162,10.8V209.8h39.68v39.68Zm-54,7.2V217h39.68v39.68Zm108,0V217h39.68v39.68Zm-162,7.2V224.2h39.68v39.68Zm216,21.6V245.8h39.68v39.68Zm54,7.2V253h39.68v39.68Zm-162,10.8V263.8h39.68v39.68Zm54,7.2V271h39.68v39.68Zm-108,0V271h39.68v39.68Zm-54,7.2V278.2h39.68v39.68Zm216,21.6V299.8h39.68v39.68Zm54,7.2V307h39.68v39.68Zm-187.2,18V325h39.68v39.68Zm54,0V325h39.68v39.68Zm-108,7.2V332.2h39.68v39.68Zm-70.85-14.34,35.51-17.71,17.71,35.51-35.52,17.71Z"/><line class="cls-2" x1="287.24" y1="236.19" x2="301.41" y2="236.19"/><line class="cls-2" x1="294.33" y1="243.27" x2="294.33" y2="229.1"/><text class="cls-3" transform="translate(3.29 208.74)">Keyseebee</text><line class="cls-4" x1="213.52" y1="205.76" x2="54.42" y2="205.43"/><rect id="border" class="cls-4" x="0.25" y="0.25" width="751.18" height="565.7"/></g></g></g></svg>