<svg xmlns="http://www.w3.org/2000/svg" viewBox="0 0 751.68 566.2"><defs><style>.cls-1{opacity:0.39;}.cls-2,.cls-3,.cls-4,.cls-5,.cls-7,.cls-8{fill:none;stroke:#000;}.cls-2,.cls-8{stroke-miterlimit:10;}.cls-2,.cls-4{fill-rule:evenodd;}.cls-3,.cls-4,.cls-5,.cls-7{stroke-linecap:round;}.cls-3,.cls-4{stroke-miterlimit:3.84;}.cls-5,.cls-7{stroke-linejoin:round;}.cls-6{font-size:10px;font-family:FiraSansCondensed-Medium, Fira Sans Condensed;font-weight:500;}.cls-7,.cls-8{stroke-width:0.5px;}</style></defs><g id="Layer_2" data-name="Layer 2"><g id="main"><g id="keyboardio_model01"><g id="keyboardio"><g id="keyboardio-2" data-name="keyboardio"><g id="keyboardio-3" data-name="keyboardio"><path class="cls-2" d="M360,327.45l.1,0,.09,0,.1,0,.1,0,.09,0,.1,0,.09,0,.1,0,.09,0,.1,0,.09,0,.1,0,.09,0,.1,0,.09,0,.1,0,.09,0,.1,0,.09,0,.1,0,.09,0,.09,0,.1,0,.09,0,.1,0,.09,0,.1,0,.09,0,.09,0,.1,0,.09,0,.09,0,.1,0,.09,0,.1,0,.09,0,.09,0,.1,0,.09,0,.09,0,.09,0,.19.06.09,0,.1,0,.09,0,.09,0,.09,0,.1,0,.09,0,.09,0,.09,0,.1,0,.09,0,.09,0,.09,0,.19.06.09,0,.09,0,.09,0,.09,0,.1,0,.09,0,.09,0,.09,0,.09,0,.09,0,.09,0,.09,0,.1,0,.18.06.18.06.09,0,.09,0,.09,0,.09,0,.09,0,.09,0,.09,0,.09,0,.09,0,.09,0,.09,0,.09,0,.09,0,.09,0,.09,0,.09,0,.09,0,.09,0,.09,0,.09,0,.09,0,.09,0,.09,0,.17.07.18.06.18.06.17.06.18.07.18.06.17.06.18.06.17.07.18.06.17.06.18.07.17.06.18.06.17.07.17.06.18.06.17.07.17.06.17.07.18.06.17.06.17.07.17.06.17.07.17.06.17.06.17.07.17.06.17.07.16.06.17.07.17.06.17.07.17.06.16.06.17.07.16.06.17.07.17.06.16.07.17.06.16.07.16.06.17.07.16.06.17.07.16.06.16.07.16.07.16.06.17.07.16.06.16.07.16.06.16.07.16.06.16.07.16.06.16.07.15.06.16.07.16.06.16.07.15.07.16.06.16.07.15.06.16.07.15.06.16.07.15.06.16.07.15.06.15.07.16.06.15.07.15.07.15.06.16.07.15.06.15.07.15.06.15.07.15.06.15.07.15.06.14.07.15.06.15.07.15.06.15.07.14.06.15.07.14.06.15.07.15.06.14.06.14.07.15.06.14.07.15.06.14.07.14.06.14.06.15.07.14.06.14.07.14.06.14.06.14.07.14.06.14.07.14.06.13.06.14.07.14.06.14.06.13.06.14.07.13.06.14.06.13.07.14.06.13.06.14.06.13.07.13.06.14.06.13.06.13.06.13.07.13.06.13.06.13.06.13.06.13.06.13.06.13.07.13.06.13.06.12.06.13.06.13.06.12.06.13.06.12.06.13.06.12.06.12.06.13.06.12.06.12.06.13.06.12,0,.12.06.12.06.12.06.12.06.12.06.12.05.12.06.11.06.12.06.12.06.23.11.23.11.23.12.23.11.23.11.22.11.22.11.23.11.21.11.22.11.22.1.21.11.21.11.21.1.21.1.2.11.2.1.2.1.2.1.2.1.2.1.2.1.2.1.2.1.2.1.2.1.2.1.19.1.2.1.2.1.19.1.4.2.39.2.38.19.39.2.39.2.39.19.77.4.76.39.38.19.38.19.38.2.38.19.38.19.38.2.19.09.19.1.19.09.19.1.19.09.19.1.19.09.19.1.18.1.19.09.19.1.19.09.19.1.19.09.19.09.19.1.18.09.19.1.19.09.19.1.19.09.19.09.19.1.19.09.19.1.18.09.19.09.19.1.19.09.19.09.19.1.19.09.19.09.19.1.19.09.19.09.19.09.19.1.2.09.19.09.19.09.19.1.19.09.19.09.2.09.19.09.19.1.19.09.2.09.19.09.19.09.2.09.19.1.2.09.09,0,.1.05.1,0,.1,0,.09.05.1,0,.1.05.1,0,.1.05.19.09.1,0,.1.05.1.05.1,0,.09.05.1,0,.1.05.1,0,.1.05.1,0,.1.05.1,0,.1.05.1,0,.1,0,.1,0,.1.05.1,0,.09.05.1,0,.11.05.1,0,.1.05.1,0,.1.05.1,0,.1.05.1,0,.1,0,.1,0,.1.05.1,0,.1,0,.11,0,.1.05.1,0,.1.05.1,0,.11.05.1,0,.1.05.1,0,.11.05.1,0,.1.05.1,0,.11,0,.1,0,.1.05.11,0,.1,0,.1.05.11,0,.1,0,.11,0,.1.05.11,0,.1.05.1,0,.11.05.1,0,.11,0,.1.05.11,0,.11.05.1,0,.11.05.1,0,.11,0,.11.05.1,0,.11.05.1,0,.11.05.11,0,.11,0,.1.05.11,0,.11.05.11,0,.1.05.11,0,.11,0,.11.05.11,0,.11.05.1,0,.11,0,.11.05.11,0,.11.05.11,0,.11,0,.11.05.11,0,.11.05.11,0,.11,0,.11.05.12,0,.11.05.11,0,.11,0,.11.05.11,0,.12.05.11,0,.11,0,.11.05.12,0,.11.05.11,0,.12,0,.11.05.11,0,.12,0,.11.05.12,0,.11,0,.12,0,.11,0,.12,0,.11,0,.12,0,.11,0,.12,0,.11,0,.12.05.12,0,.11.05.12,0,.12,0,.12.05.11,0,.12,0,.12.05.12,0,.12,0,.11.05.12,0,.12,0,.12,0,.12,0,.12,0,.12,0,.12,0,.12.05.12,0,.12,0,.12.05.12,0,.13,0,.12.05.12,0,.12,0,.12.05.13,0,.12,0,.12.05.13,0,.12,0,.12.05.13,0,.12,0,.13,0,.12.05.12,0,.13,0,.13.05.12,0,.13,0,.12.05.13,0,.13,0,.12.05.13,0,.13,0,.12.05.13,0,.13,0,.13,0,.13,0,.13,0,.12,0,.13,0,.13,0,.13,0,.13.05.13,0,.13,0,.14.05.13,0,.13,0,.13,0,.13,0,.13,0,.14,0,.13,0,.13,0,.13,0,.14.05.13,0,.14,0,.13.05.13,0,.14,0,.13,0,.14.05.14,0,.13,0,.14.05.13,0,.14,0,.14.05.13,0,.14,0,.14,0,.14.05.14,0,.14,0,.13.05.14,0,.14,0,.14,0,.14.05.14,0,.14,0,.15,0,.14,0,.14,0,.14,0,.14,0,.15,0,.14,0,.14,0,.14.05.15,0,.14,0,.15.05.14,0,.15,0,.14,0,.15.05.14,0,.15,0,.15,0,.14.05.15,0,.15,0,.14.05.15,0,.15,0,.15,0,.15,0,.15,0,.15,0,.15,0,.15.05.15,0,.15,0,.15,0,.15.05.15,0,.15,0,.16.05.15,0,.15,0,.16,0,.15.05.15,0,.16,0,.15,0,.16,0,.15,0,.16,0,.16,0,.15.05.16,0,.16,0,.15,0,.16.05.16,0,.16,0,.16,0,.16.05.16,0,.15,0,.17,0,.16.05.16,0,.16,0,.16,0,.16,0,.16,0,.17,0,.16.05.16,0,.15,0,.16,0,.15,0,.16,0,.16,0,.16,0,.16,0,.17,0,.16.05.17,0,.17,0,.18.05.17,0,.18.05.18,0,.18.05.18,0,.18.05.19.05.19,0,.19.05.19.05.19.05.19,0,.2,0,.2.05.2.05.2.05.2.05.21,0,.2.05.21.05.21.05.21.05.21,0,.22.05.21.05.22.06.22.05.22,0,.22.05.22.05.22.06.23.05.23.05.23.06.22,0,.24.05.23.06.23.05.24.05.11,0,.12,0,.12,0,.12,0,.12,0,.12,0,.12,0,.12,0,.12,0,.12,0,.12,0,.12,0,.12,0,.12,0,.12,0,.13,0,.12,0,.12,0,.12,0,.13,0,.12,0,.13,0,.12,0,.12,0,.13,0,.12,0,.13,0,.12,0,.13,0,.13,0,.12,0,.13,0,.13,0,.12,0,.13,0,.13,0,.12,0,.13,0,.13,0,.13,0,.13,0,.13,0,.13,0,.12,0,.13,0,.13,0,.13,0,.13,0,.13,0,.13,0,.14,0,.13,0,.13,0,.13,0,.13,0,.13,0,.13,0,.14,0,.13,0,.13,0,.13,0,.14,0,.13,0,.13,0,.14,0,.13,0,.13,0,.14,0,.13,0,.14,0,.13,0,.13,0,.14,0,.13,0,.14,0,.14,0,.13,0,.14,0,.13,0,.14,0,.13,0,.14,0,.14,0,.13,0,.14,0,.14,0,.13,0,.14,0,.14,0,.13,0,.14,0,.14,0,.14,0,.13,0,.14,0,.14,0,.14,0,.14,0,.13,0,.14,0,.14,0,.14,0,.14,0,.14,0,.13,0,.14,0,.14,0,.14,0,.14,0,.14,0,.14,0,.14,0,.14,0,.14,0,.14,0,.14,0,.14,0,.14,0,.14,0,.14,0,.14,0,.14,0,.14,0,.14,0,.14,0,.14,0,.14,0,.14,0,.14,0,.14,0,.14,0,.14,0,.14,0,.14,0,.14,0,.14,0,.14,0,.14,0,.14,0,.14,0,.15,0,.14,0,.14,0,.14,0,.14,0,.14,0,.14,0,.14,0,.14,0,.14,0,.14,0,.14,0,.14,0,.15,0h.2l.1,0h.2l.11,0h.2l.1,0h.31l.11,0h.31l.1,0h.31l.1,0h.32l.1,0h.42l.11,0h.53l.1,0h.85l.11,0h23.49l.14,0H514l.14,0h.42l.14,0H515l.14,0h.28l.14,0h.15l.14,0h2l.06,0h.33l.07,0h.19l.07,0h.13l.07,0h.13l.06,0H519l.06,0h.13l.07,0h.06l.07,0h.06l.07,0h.06l.07,0,.06,0h.07l.06,0h.06l.07,0,.06,0h.07l.06,0,.06,0h.07l.06,0,.07,0,.06,0h.06l.07,0,.06,0,.07,0,.06,0h.06l.07,0,.06,0,.06,0,.07,0,.06,0,.06,0,.06,0,.07,0,.06,0,.06,0,.07,0,.06,0,.06,0,.06,0,.07,0,.06,0,.06,0,.06,0,.07,0,.06,0,.06,0,.06,0,.06,0,.07,0,.06,0,.06,0,.06,0,.06,0,.07,0,.06,0,.06,0,.06,0,.06,0,.06,0,.06,0,.06,0,.06,0,.07,0,.06,0,.06,0,.06,0,.06,0,.06,0,.06,0,.06,0,.06,0,.06,0,.06,0,.06,0,.06,0,.06,0,.06,0,.06,0,.06,0,.06,0,.06,0,.06,0,.06,0,.06,0,.06,0,.06,0,.06,0,.06,0,0,0,.06,0,.06,0,.06,0,.06,0,.06,0,.06,0,.06,0,0,0,.06,0,.06,0,.06,0,.06,0,.06,0,.05,0,.06,0,.06,0,.06,0,.05,0,.06,0,.06,0,.06,0,0,0,.06,0,.06,0,.06,0,0,0,.06,0,.06,0,.05,0,.06,0,.06,0,0,0,.06,0,.06,0,0,0,.06,0,0,0,.06,0,.06,0,.05,0,.06,0,.05,0,.06,0,0,0,.06,0,0,0,.06,0,.06,0,.05,0,.06,0,.05,0,0,0,.06,0,.05,0,.06,0,.05,0,.06,0,.05,0,.06,0,0,0,.05,0,.06,0,.05,0,.06,0,.05,0,0,0,.06,0,.05,0,0,0,.06,0,0,0,.05,0,.06,0,0,0,.05,0,0,0,.06,0,0,0,.05,0,0,0,.06,0,.05,0,0,0,.05,0,0,0,0,0,.06,0,0,0,.05,0,0,0,0,0,.05,0,0,0,.05,0,.06,0,.05,0,0,0,0,0,.05,0,0-.05.05,0,0,0,0,0,.05,0,0,0,.05,0,0,0,0,0,.05-.05,0,0,.05,0,0,0,0,0L531,366l0,0,0,0,.05,0,0-.05.05,0,0,0,0,0,.05-.05,0,0,.05,0,0-.05,0,0,.05-.05,0,0,0,0,.05-.05,0,0,.05-.05,0,0,0,0,.05-.05,0,0,0-.05.05,0,0-.05.05,0,0-.05,0,0,.05,0,0-.05,0,0,.05-.05,0,0,.05-.05,0-.05,0,0,0,0,0,0,0-.05.05-.05,0,0,0,0,0-.05,0-.05,0,0,0-.05,0-.05,0-.05,0,0,0-.05,0-.05,0-.05,0-.05,0,0,0-.05,0-.05,0-.05,0,0,0-.05,0-.05,0,0,0,0,0-.05,0-.05,0-.05,0-.05,0,0,0-.05.05-.05,0-.05,0-.05,0,0,0-.05,0-.05,0-.05,0-.05,0,0,0-.05,0-.05,0-.05,0-.06,0-.05,0,0,0-.05,0-.05,0-.05,0-.05,0-.06,0,0,0-.05,0-.05,0-.05,0-.06,0-.05,0,0,0-.05,0-.06,0-.05,0-.05,0,0,0-.06,0-.05,0-.05,0-.06,0-.05,0-.05,0-.06,0,0,0-.05,0-.06,0-.05,0-.06,0-.05,0-.06,0,0,0-.05,0-.06,0-.05,0-.06,0-.05,0-.06,0-.05,0-.06,0-.05,0-.06,0-.05,0-.06,0-.05,0-.06,0-.06,0-.05,0-.06,0-.05,0-.06,0-.06,0-.05,0-.06,0-.05,0-.06,0-.06,0-.06,0,0,0-.06,0-.06,0-.05,0-.06,0-.06,0-.05,0-.06,0-.06,0-.06,0-.05,0-.06,0-.06,0-.06,0-.06,0-.05,0-.06,0-.06,0-.06,0-.06,0-.06,0-.06,0-.05,0-.06,0-.06,0-.06,0-.06,0-.06,0-.06,0-.06,0-.06,0-.06,0-.06,0-.06,0-.06,0-.06,0-.05,0-.07,0-.06,0-.06,0-.06,0-.06,0-.06,0-.06,0-.06,0-.06,0-.06,0-.06,0-.06,0-.06,0-.06,0-.06,0-.07,0-.06,0-.06,0-.06,0-.06,0-.06,0-.06,0-.07,0-.06,0-.06,0-.06,0-.06,0-.07,0-.06,0-.06,0-.06,0-.06,0-.07,0-.06,0-.06,0-.07,0-.06,0-.06,0-.06,0-.07,0-.06,0-.06,0-.07,0-.06,0-.06,0-.07,0-.06,0-.06,0-.07,0-.06,0-.07,0-.06,0-.06,0-.07,0-.06,0-.07,0-.06,0-.07v-.06l0-.06,0-.07,0-.06,0-.07,0-.06v-.07l0-.06,0-.07,0-.06,0-.07v-.06l0-.07,0-.06v-.07l0-.06,0-.07V352l0-.06v-.07l0-.06,0-.07v-.07l0-.06,0-.16,0-.16,0-.16,0-.16,0-.16,0-.16,0-.16,0-.16,0-.15,0-.16,0-.16,0-.16,0-.16,0-.16,0-.16,0-.16,0-.16,0-.16,0-.16,0-.16,0-.16,0-.16,0-.16,0-.16,0-.16,0-.16,0-.15,0-.16,0-.16,0-.16,0-.16,0-.16,0-.16,0-.16,0-.16,0-.16,0-.16,0-.16,0-.16,0-.16,0-.16,0-.16,0-.16,0-.16,0-.16,0-.16,0-.16,0-.16,0-.16,0-.16,0-.16,0-.16,0-.16,0-.16,0-.16,0-.16,0-.16,0-.16,0-.16,0-.16,0-.16,0-.16,0-.16,0-.16,0-.16,0-.16,0-.16,0-.16,0-.16,0-.16,0-.16,0-.16,0-.16,0-.16,0-.16,0-.16,0-.16,0-.16,0-.16,0-.16,0-.16,0-.16,0-.16,0-.16,0-.16,0-.16,0-.16,0-.16,0-.16,0-.16,0-.16,0-.16,0-.16,0-.16,0-.16,0-.16,0-.16,0-.17,0-.16,0-.16,0-.16,0-.16,0-.16,0-.16,0-.16,0-.16,0-.16,0-.16,0-.16,0-.16,0-.16,0-.16,0-.16,0-.16,0-.16,0-.17,0-.16,0-.16,0-.16,0-.16,0-.16,0-.16,0-.16,0-.16,0-.16,0-.16,0-.16,0-.16,0-.17,0-.16,0-.16,0-.16,0-.16,0-.16,0-.16,0-.16,0-.16,0-.16,0-.16,0-.16,0-.17,0-.16,0-.16,0-.16,0-.16,0-.16,0-.16,0-.16,0-.16,0-.16,0-.17,0-.16,0-.16,0-.16,0-.16,0-.16,0-.16,0-.16,0-.16,0-.17,0-.16,0-.16,0-.16,0-.16,0-.16,0-.16,0-.16,0-.16,0-.17,0-.16,0-.16,0-.16,0-.16,0-.16,0-.16,0-.16,0-.17,0-.16,0-.16,0-.16,0-.16,0-.16,0-.16,0-.17,0-.16,0-.16,0-.16,0-.16,0-.16,0-.16,0-.17,0-.16,0-.16,0-.16,0-.16,0-.16,0-.16,0-.17,0-.16,0-.16,0-.16,0-.16,0-.16,0-.17,0-.16,0-.16,0-.16,0-.16,0-.16,0-.16,0-.17,0-.16,0-.16,0-.16,0-.16,0-.17,0-.16,0-.16,0-.16,0-.16,0-.16,0-.17,0-.16,0-.16,0-.16,0-.16,0-.16,0-.17,0-.16,0-.16,0-.16,0-.16,0-.17,0-.16,0-.16,0-.16,0-.16,0-.16,0-.17,0-.16,0-.16,0-.16,0-.16,0-.17,0-.16,0-.16,0-.16,0-.16,0-.17,0-.16,0-.16,0-.16,0-.16,0-.17,0-.16,0-.16,0-.28,0-.29,0-.28,0-.28,0-.28,0-.29,0-.28,0-.28,0-.28,0-.29,0-.28,0-.28,0-.29,0-.28,0-.28,0-.28,0-.29,0-.28,0-.28,0-.29,0-.28,0-.28,0-.29,0-.28,0-.28,0-.28,0-.29,0-.28,0-.28,0-.29,0-.28,0-.28,0-.28,0-.29,0-.28,0-.28,0-.29,0-.28,0-.28,0-.29,0-.28,0-.28,0-.29,0-.28,0-.28,0-.29,0-.28,0-.28,0-.28,0-.29,0-.28,0-.28,0-.29,0-.28,0-.28,0-.29,0-.28,0-.28,0-.29,0-.28,0-.28,0-.29,0-.28,0-.28,0-.29,0-.28,0-.28,0-.29,0-.28,0-.28,0-.29,0-.28,0-.28,0-.29,0-.28,0-.28,0-.29,0-.28,0-.28,0-.29,0-.28,0-.29,0-.28,0-.28,0-.29,0-.28,0-.28,0-.29,0-.28,0-.28,0-.29,0-.28,0-.28,0-.29,0-.28,0-.28,0-.29,0-.28,0-.29,0-.28,0-.28,0-.29,0-.28,0-.28,0-.29,0-.28,0-.29,0-.28,0-.28,0-.29,0-.28,0-.28,0-.29,0-.28,0-.29,0-.28,0-.28,0-.29,0-.28,0-.28,0-.29,0-.28,0-.29,0-.28,0-.28,0-.29,0-.28,0-.28,0-.29,0-.28,0-.29,0-.28,0-.28,0-.29,0-.28,0-.29,0-.28,0-.28,0-.29,0-.28,0-.29,0-.28,0-.28,0-.29,0-.28,0-.29,0-.28,0-.28v-.29l0-.28,0-.29,0-.28,0-.28,0-.29,0-.28,0-.29,0-.28,0-.28v-.29l0-.28,0-.29,0-.28,0-.28V264l0-.28,0-.29,0-.28,0-.28v-.29l0-.28,0-.29v-.28l0-.29,0-.28v-.28l0-.29,0-.28V260l0-.28,0-.28v-.29l0-.28v-.29l0-.28V258l0-.28,0-.28v-.29l0-.28v-.29l0-.28V256l0-.28v-.57l0-.28v-.29l0-.28v-.57l0-.28v-.29l0-.28v-.57l0-.29v-.85l0-.28v-.86l0-.28v-.85l0-.29v-1.7l0-.29V192.3l0-.29v-2.84l0-.29v-1.13l0-.29v-.85l0-.29v-.85l0-.29v-.56l0-.29v-.57l0-.28v-.29l0-.28v-.57l0-.28v-.29l0-.28v-.29l0-.28v-.29l0-.28v-.29l0-.28v-.28l0-.29v-.28l0-.29v-.28l0-.29,0-.28v-.29l0-.28v-.28l0-.29,0-.28v-.29l0-.28,0-.29v-.28l0-.28,0-.29,0-.28v-.29l0-.28,0-.29,0-.28V173l0-.28,0-.28,0-.29,0-.28,0-.29v-.28l0-.29,0-.28,0-.28,0-.29,0-.28,0-.29,0-.28,0-.29,0-.28,0-.28v-.29l0-.28,0-.29,0-.28,0-.28,0-.29,0-.28,0-.29,0-.28,0-.29,0-.28,0-.28v-2.59l0-.07v-.42l0-.06v-.28l0-.07v-.2l0-.07v-.14l0-.07V161l0-.06v-.14l0-.07v-.07l0-.07v-.06l0-.07v-.07l0-.07v-.07l0-.06v-.07l0-.07v-.07l0-.06,0-.07v-.07l0-.07v-.06l0-.07,0-.07v-.07l0-.06,0-.07,0-.07v-.07l0-.06,0-.07,0-.07v-.06l0-.07,0-.07,0-.06,0-.07,0-.07,0-.06v-.07l0-.07,0-.06,0-.07,0-.07,0-.06,0-.07,0-.06,0-.07,0-.07,0-.06,0-.07,0-.06,0-.07,0-.07,0-.06,0-.07,0-.06,0-.07,0-.06,0-.07,0-.06,0-.07,0-.06,0-.07,0-.07,0-.06,0-.07,0-.06,0-.07,0-.06,0-.07,0-.06,0-.06,0-.07,0-.06,0-.07,0-.06,0-.07,0-.06,0-.07,0-.06,0-.06,0-.07,0-.06,0-.07,0-.06,0-.06,0-.07,0-.06,0-.07,0-.06,0-.06,0-.07,0-.06,0-.06,0-.07,0-.06,0-.06,0-.07,0-.06,0-.06,0-.07,0-.06,0-.06,0-.06,0-.07,0-.06,0-.06,0-.06,0-.07,0-.06,0-.06,0-.06,0-.07,0-.06,0-.06,0-.06,0-.06,0-.07,0-.06,0-.06,0-.06,0-.06,0-.06,0-.07,0-.06,0-.06,0-.06,0-.06,0-.06,0-.06,0-.06,0-.06,0-.07,0-.06,0-.06,0-.06,0-.06,0-.06,0-.06,0-.06,0-.06,0-.06,0-.06,0-.06,0-.06,0-.06,0-.06,0-.06,0-.06,0-.06,0-.06,0-.06,0-.06,0-.06,0-.06,0-.06,0-.05,0-.06,0-.06,0-.06,0-.06,0-.06,0-.06,0-.06,0-.05,0-.06,0-.06,0-.06,0-.06,0-.06,0,0,0-.06,0-.06,0-.06,0-.06,0,0,0-.06,0-.06,0-.06,0-.05,0-.06,0-.06,0,0,0-.06,0-.06,0-.06,0-.05,0-.06,0-.06,0-.05,0-.06,0-.05,0-.06,0-.06,0-.05,0-.06,0-.06,0,0,0-.06,0-.05,0-.06,0-.05,0-.06,0-.06,0-.05,0-.06,0,0,0-.06,0-.05,0-.06,0-.05,0-.06,0-.05,0-.06,0-.05,0,0,0-.06,0-.05,0-.06,0,0,0-.05,0-.06,0,0,0-.06,0-.05,0,0,0-.06,0-.05,0-.05,0-.06,0-.05,0-.05,0-.06,0,0,0-.05,0,0,0-.06,0-.05-.05-.05,0,0,0-.06,0-.05,0,0,0-.05,0,0,0-.06,0-.05-.05-.05,0,0,0-.05,0,0,0-.05,0-.06-.05,0,0-.05-.05-.05,0,0,0-.05-.05,0,0-.05,0-.05-.05,0,0-.05-.05,0,0-.05,0-.05-.05,0,0-.05,0,0-.05-.05,0-.05-.05,0,0-.05,0,0-.05-.05,0-.05,0,0-.05,0,0,0-.05-.05,0,0,0-.05,0-.05,0,0-.05,0,0-.05,0-.05-.05,0,0,0-.05,0,0-.05,0,0-.05,0,0,0-.05-.05,0,0,0,0-.05,0,0-.05-.05,0,0-.05,0,0-.05,0,0,0-.05,0,0,0,0-.05-.05,0,0-.05-.06,0,0,0,0,0-.05,0,0,0-.05,0-.06,0-.05,0,0,0,0-.05-.06,0,0-.05-.05,0,0-.05-.06,0-.05,0,0-.05-.05,0-.06-.05-.05,0,0,0-.06-.05-.05,0-.06,0-.05,0,0,0-.06,0,0,0-.06-.05-.05,0,0,0-.06,0,0-.05-.06,0,0,0-.06,0,0,0-.06-.05-.05,0-.06,0-.05,0-.06,0-.05,0-.06,0,0,0-.06,0-.06,0-.05-.05-.06,0-.06,0,0,0-.06,0,0,0-.06,0-.06,0,0,0-.06,0-.06,0-.05,0-.06,0-.06,0-.06,0-.05,0-.06,0-.06,0-.06,0,0,0-.06,0-.06,0-.06,0-.06,0-.05,0-.06,0-.06,0-.06,0-.06,0-.06,0-.06,0-.06,0-.05,0-.06,0-.06,0-.06,0-.06,0-.06,0-.06,0-.06,0-.06,0-.06,0-.06,0-.06,0-.06,0-.06,0-.06,0-.06,0-.06,0-.06,0-.06,0-.06,0-.06,0-.06,0-.06,0-.07,0-.06,0-.06,0-.06,0-.06,0-.06,0-.06,0-.07,0-.06,0-.06,0-.06,0-.06,0-.06,0-.07,0-.06,0-.06,0-.06,0-.07,0-.06,0-.06,0-.06,0-.07,0-.06,0-.06,0-.07,0-.06,0-.06,0-.07,0-.06,0-.06,0-.07,0-.06,0-.07,0-.06,0-.06,0-.07,0-.06,0-.07,0-.06,0-.06,0-.07,0-.06,0-.07,0-.06,0-.11,0-.11-.05-.1,0-.11,0-.11-.05-.11-.05-.1,0-.11,0-.11-.05-.11-.05-.1,0-.11-.05-.11,0-.11,0-.1-.05-.11-.05-.11,0-.11-.05-.1,0-.11,0-.11-.05-.11-.05-.11,0-.1,0-.11,0-.11,0-.11-.05-.1,0-.11-.05-.11,0-.11-.05-.11,0-.1,0-.11,0-.11,0-.11-.05-.11,0-.1-.05-.11-.05-.11,0-.11,0-.11,0-.1,0-.11,0-.11,0-.11,0-.11-.05-.11,0-.1-.05-.11,0-.11-.05-.11,0-.11-.05-.11,0-.1-.05-.11,0-.11,0-.11-.05-.11,0-.11-.05-.11,0-.1-.05-.11,0-.11,0-.11-.05-.11,0-.11-.05-.11,0-.1,0-.11-.05-.11,0-.11-.05-.11,0-.11,0-.11-.05-.11,0-.1,0-.11-.05-.11,0-.11,0-.11-.05-.11,0-.11,0-.11,0-.11,0-.11,0-.1,0-.11,0-.11,0-.11,0-.11-.05-.11,0-.11,0-.11-.05-.11,0-.11,0-.11,0-.11,0-.1,0-.11,0-.11,0-.11,0-.11,0-.11,0-.11,0-.11,0-.11,0-.11-.05-.11,0-.11,0-.11,0-.11,0-.11-.05-.11,0-.11,0-.11,0-.1,0-.11,0-.11,0-.11-.05-.11,0-.11,0-.11,0-.11,0-.11,0-.11,0-.11,0-.11,0-.11,0-.11-.05-.11,0-.11,0-.11,0-.11,0-.11,0-.11,0-.11,0-.11,0-.11,0-.11,0-.11,0-.11,0-.11,0-.11,0-.11,0-.11,0-.11,0-.11,0-.11,0-.11,0-.11,0-.11,0-.11,0-.12,0-.11,0-.11,0-.11,0-.11,0-.11,0-.11,0-.11,0-.11,0-.11,0-.11,0-.11,0-.11,0-.11,0-.11,0-.11,0-.11,0-.11,0-.11,0-.12,0-.11,0-.11,0-.11,0-.11,0-.11,0-.11,0-.11,0-.11,0-.11,0-.11,0-.11,0-.12,0-.11,0-.11,0-.11,0-.11,0-.11,0-.11,0-.11,0-.11,0-.11,0-.12,0-.11,0-.11,0-.11,0-.11,0-.11,0-.11,0-.11,0-.12,0-.11,0-.11,0-.11,0-.11,0-.11,0-.11,0-.11,0-.12,0-.11,0-.11,0-.11,0-.11,0-.11,0-.11,0-.12,0-.11,0-.11,0-.11,0-.11,0-.11,0-.12,0-.11,0-.11,0-.11,0-.11,0-.11,0-.12,0-.11,0-.11,0-.11,0-.11,0-.12,0-.11,0-.11,0-.11,0-.11,0-.12,0-.11,0-.11,0-.11,0-.11,0-.11,0-.12,0-.11,0-.11,0-.11,0-.12,0-.11,0-.11,0-.11,0-.11,0-.12,0-.11,0-.23-.07-.23-.07-.23-.07-.23-.07-.23-.07-.23-.07-.23-.07-.23-.07-.23-.07-.23-.07-.23-.07-.23-.07-.23-.06-.23-.07-.23-.07-.23-.07-.23-.07-.23-.07-.23-.06-.23-.07-.23-.07-.23-.07-.23-.07-.23-.06-.23-.07-.23-.07-.23-.07-.23-.06-.24-.07-.23-.07-.23-.07-.23-.06-.23-.07-.23-.07-.23-.06-.23-.07-.23-.07-.23-.06-.23-.07-.46-.13-.23-.07-.24-.06-.23-.07L493,124l-.23-.06-.23-.07-.23-.06-.23-.07-.23-.06-.23-.07-.23-.06-.24-.07-.23-.06-.23-.07-.23-.06-.23-.07-.23-.06-.23-.07-.23-.06-.23-.06-.24-.07-.23-.06-.23-.07-.23-.06-.23-.06-.23-.07-.23-.06-.24-.07-.23-.06-.23-.06-.23-.06-.23-.07-.23-.06-.23-.06-.24-.07-.23-.06-.23-.06-.23-.06-.23-.07-.23-.06-.24-.06-.23-.06-.23-.07-.23-.06-.23-.06-.23-.06-.24-.06-.23-.07-.23-.06-.23-.06-.23-.06-.24-.06-.23-.06-.23-.06-.23-.06-.23-.06-.24-.07-.23-.06-.23-.06-.23-.06-.23-.06-.24-.06-.23-.06-.23-.06-.23-.06-.24-.06-.23-.06-.23-.06-.23-.06-.23-.06-.24-.06-.23-.06-.23,0-.23-.06-.24-.06-.23-.06-.23-.06-.23-.06-.24-.06-.23-.06-.23-.05-.23-.06-.24-.06-.23-.06-.23-.06-.23-.06-.24,0-.23-.06-.23-.06-.24-.06-.23-.05-.23-.06-.23-.06-.24-.06-.23,0-.23-.06-.23-.06-.24,0-.23-.06-.23-.06-.24,0-.23-.06-.23-.06-.24,0-.23-.06-.23-.06-.23,0-.24-.06-.23,0-.23-.06-.24-.06-.23,0-.23-.06-.24,0-.23-.06-.23,0-.24-.06-.23,0-.23-.06-.24,0-.23-.06-.23,0-.24-.06-.23,0-.23,0-.24-.06-.23,0-.23-.06-.24,0-.23-.05-.23-.06-.24-.05-.23-.06-.23-.05-.24,0-.23-.06-.23,0-.24,0-.23-.06-.24,0-.23,0-.23-.05-.24-.06-.23-.05-.23,0-.24,0-.23-.06-.24,0-.23,0-.23,0-.24-.05-.23-.06-.24-.05-.23,0-.23,0-.24,0-.23,0-.23-.05-.24-.06-.23-.05-.24,0-.23,0-.24,0-.23,0-.23-.05-.24,0-.23,0-.24,0-.23,0-.23-.05-.24,0-.23,0-.24,0-.23,0-.24-.05-.23,0-.23,0-.24,0-.23,0-.24-.05-.23,0-.24,0-.23-.05-.23,0-.24,0-.23,0-.24,0-.23-.05-.24,0-.23,0-.24-.05-.23,0-.24,0-.23,0-.24,0-.23,0-.23,0-.24,0-.23,0-.24,0-.23,0-.24,0-.23,0-.24,0-.23,0-.24,0-.23,0-.24,0-.23,0-.24,0-.23,0-.24,0-.23,0-.24,0-.23,0-.24,0-.23-.05-.24,0-.23,0-.24,0-.23,0-.24,0-.23,0-.24,0-.23,0-.24,0-.23,0-.24,0-.23,0-.24,0-.23,0-.24,0-.23,0-.24,0-.23,0-.24,0-.23,0-.24,0-.23,0-.24,0-.23,0-.24,0-.24,0-.23,0-.24,0-.23,0-.24,0-.23,0-.24,0-.23,0-.24,0-.23,0-.24,0-.24,0-.23,0-.24,0-.23,0-.24,0-.23,0-.24,0-.23,0-.24,0-.24,0-.23,0-.24,0-.23,0-.24,0-.23,0-.24,0-.24,0-.23,0-.24,0-.23,0-.24,0-.23,0-.24,0-.24,0-.23,0-.24,0-.23,0-.24,0-.24,0-.23,0-.24,0-.23,0-.24,0-.24,0-.23,0-.24,0-.23,0-.24,0-.24,0-.23,0-.24,0-.23,0-.24,0-.24,0-.23,0-.24,0-.24,0-.23,0-.24,0-.23,0-.24,0-.24,0-.23,0-.24,0-.24,0-.23,0-.24,0-.23,0-.24,0-.24,0-.23,0-.24,0-.24,0-.23,0-.24,0-.24,0-.23,0-.24,0-.23,0-.24,0-.24,0-.23,0-.24,0-.24,0-.23,0-.24,0-.24,0-.23,0-.24,0-.24,0-.23,0-.24,0-.24,0-.23,0-.24,0-.24,0-.23,0-.24,0-.24,0-.23,0-.24,0-.24,0-.23,0-.24,0-.24,0-.23,0-.24,0-.24,0-.24,0-.23,0-.24,0-.24,0-.23,0-.24,0-.24,0-.23,0-.24,0-.24,0-.23,0-.24,0-.24,0-.24,0-.23,0-.24,0-.24,0-.23,0-.24,0-.24,0-.24,0-.23,0-.24,0-.24,0-.23,0-.24,0-.24,0-.24,0-.23,0-.24,0-.24,0-.23,0-.24,0-.24,0-.24,0-.23,0-.24,0-.24,0-.24,0-.23,0-.24,0-.24,0-.23,0-.24,0-.24,0-.24,0-.23,0-.24,0-.24,0-.24,0-.23,0-.24,0-.24,0-.24,0-.23,0-.24,0-.24,0-.24,0-.23,0-.24,0-.24,0-.24,0-.23,0-.24,0-.24,0-.24,0-.23,0-.24,0-.24,0-.24,0-.23,0-.24,0-.24,0-.24,0-.24,0-.23,0-.24,0-.24,0-.24,0-.23,0-.24,0-.24,0-.24,0-.23,0-.24,0-.24,0-.24,0-.24,0-.23,0-.24,0-.24,0-.24,0-.23,0-.24,0-.24,0-.24,0-.24,0-.23,0-.24,0-.24,0-.24,0-.24,0-.23,0-.24,0-.24,0-.24,0-.24,0-.23,0-.24,0-.24,0-.24,0-.24,0-.23,0-.24,0-.24,0-.24,0-.24,0-.23,0-.24,0-.24,0-.24,0-.24,0-.23,0-.24,0-.24,0-.24,0-.24,0-.23,0-.24,0-.24,0-.24,0-.24,0-.24,0-.23,0-.24,0-.24,0-.24,0-.24,0-.23,0-.24,0-.24,0-.24,0h-.24l-.24,0-.23,0-.24,0-.24,0-.24,0-.24,0-.24,0h-.23l-.24,0-.24,0-.24,0-.24,0-.24,0h-.23l-.24,0-.24,0-.24,0h-.24l-.24,0-.23,0-.24,0h-.24l-.24,0-.24,0h-.24l-.24,0-.23,0h-.24l-.24,0-.24,0h-.24l-.24,0h-.24l-.23,0-.24,0h-.24l-.24,0h-.24l-.24,0h-.24l-.23,0h-.24l-.24,0h-.24l-.24,0h-.24l-.24,0h-.23l-.24,0h-.24l-.24,0h-.24l-.24,0h-.48l-.23,0h-.48l-.24,0h-.24l-.24,0h-.71l-.24,0h-.48l-.24,0h-.71l-.24,0h-1l-.24,0h-1.19l-.24,0H303.4l-.24,0h-1.68l-.23,0h-1.2l-.24,0h-.72l-.24,0h-.72l-.24,0h-.47l-.24,0h-.48l-.24,0H296l-.24,0h-.48l-.24,0h-.24l-.24,0h-.23l-.24,0h-.24l-.24,0h-.48l-.24,0h-.24l-.24,0h-.24l-.24,0-.24,0h-.24l-.24,0H291l-.24,0h-.24l-.24,0-.24,0h-.24l-.24,0h-.24l-.24,0-.24,0h-.24l-.24,0-.24,0h-.23l-.24,0-.24,0-.24,0h-.24l-.24,0-.24,0-.24,0h-.24l-.24,0-.24,0-.24,0-.24,0h-.23l-.24,0-.24,0-.24,0-.24,0-.24,0h-.24l-.24,0-.24,0-.24,0-.24,0-.23,0-.24,0-.24,0-.24,0-.24,0-.24,0-.24,0-.24,0-.24,0-.24,0-.24,0-.24,0-.23,0-.24,0-.24,0-.24,0-.24,0-.24,0-.24,0-.24,0-.24,0-.24,0-.23,0-.24,0-.24,0-.24,0-.24,0-.24,0-.24,0-.24,0-.24,0-.24,0-.23,0-.24,0-.24,0-.24,0-.24,0-.24,0-.24,0-.24,0-.24,0-.24,0-.23,0-.24,0-.24,0-.24,0-.24,0-.24,0-.24,0-.24,0-.24,0-.24,0-.23,0-.24,0-.24,0-.24,0-.24,0-.24,0-.24,0-.24,0-.24,0-.23,0-.24,0-.24,0-.24,0-.24,0-.24,0-.24,0-.24,0-.23,0-.24,0-.24,0-.24,0-.24,0-.24,0-.24,0-.24,0-.24,0-.23,0-.24,0-.24,0-.24,0-.24,0-.24,0-.24,0-.24,0-.23,0-.24,0-.24,0-.24,0-.17,0-.17,0-.17,0-.17,0-.16,0-.17,0-.17,0-.17,0-.17,0-.17,0-.17,0-.16,0-.17,0-.17,0-.17,0-.17,0-.17,0-.17,0-.16,0-.17,0-.17,0-.17,0-.17,0-.17,0-.16,0-.17,0-.17,0-.17,0-.17,0-.17,0-.16,0-.17,0-.17,0-.17,0-.17,0-.16,0-.17,0-.17,0-.17,0-.17,0-.16,0-.17,0-.17,0-.17,0-.17,0-.16,0-.17,0-.17,0-.17,0-.16,0-.17,0-.17,0-.17,0-.16,0-.17,0-.17,0-.17,0-.16,0-.17,0-.17,0-.17,0-.16,0-.17,0-.17,0-.17,0-.16,0-.17,0-.17,0-.17,0-.16,0-.17,0-.17,0-.16,0-.17,0-.17,0-.16,0-.17,0-.17,0-.17,0-.16,0-.17,0-.17,0-.16,0-.17,0-.17,0-.16,0-.17,0-.17,0-.16,0-.17,0-.16,0-.17,0-.17,0-.16,0-.17,0-.17,0-.16,0-.17,0-.17,0-.16,0-.17,0-.16,0-.17,0-.17,0-.16,0-.17,0-.17,0-.16,0-.17,0-.16,0-.17,0-.17,0-.16,0-.17,0-.16,0-.17,0-.16,0-.17,0-.17,0-.16,0-.17,0-.16,0-.17,0-.16,0-.17,0-.16,0-.17,0-.16,0-.17,0-.17,0-.16,0-.17,0-.16,0-.17,0-.16,0-.17,0-.16,0-.17,0-.16,0-.17,0-.16,0-.17,0-.16,0-.17,0-.16,0-.17,0-.16,0-.17,0-.16,0-.16,0-.17,0-.16,0-.17,0-.16,0-.17,0-.16,0-.17,0-.16,0-.17,0-.16,0-.16,0-.17,0-.16,0-.17,0-.16,0-.16,0-.17.05-.16,0-.17,0-.16,0-.16,0-.17,0-.16,0-.17,0-.16,0-.16,0-.17,0-.16,0-.16,0-.17,0-.16,0-.17,0-.16,0-.16,0-.17,0-.16,0-.16.05-.17,0-.16,0-.16,0-.17,0-.16.05-.16,0-.17,0-.16,0-.16,0-.16,0-.17,0-.16,0-.16,0-.17,0-.16,0-.16.05-.16,0-.17,0-.16.05-.16,0-.16,0-.17.05-.16,0-.16,0-.16,0-.17,0-.16,0-.16,0-.16,0-.17,0-.16,0-.16,0-.16,0-.16.05-.17,0-.16,0-.16.05-.16,0-.16,0-.17,0-.16,0-.16.05-.16,0-.16,0-.16,0-.17,0-.16.05-.16,0-.16,0-.16,0-.16,0-.16.05-.17.06-.16.05-.16,0-.16,0-.16,0-.16,0-.16.05-.16.06-.16,0-.16,0-.17,0-.16.06-.16,0-.16,0-.16.05-.16.06-.16.05-.16,0-.16.06-.16,0-.16,0-.16.06-.16,0-.16,0-.16.06-.16,0-.16.06-.16,0-.16.06-.16,0-.16.06-.16,0-.16.06-.16,0-.16.06-.16.05-.16.06-.16.05-.16.06-.16.06-.16,0-.16.06-.16,0-.16.06-.16.06-.16,0-.16.06-.16.06-.16.06-.16,0-.16.06-.15.06-.16.06-.16,0-.16.06-.16.06-.16.06-.16.06-.16,0-.16.06-.15.06-.16.06-.16.06-.16.06-.16.06-.16.06-.16.06-.15.06-.16,0-.16.06-.16.06-.16.06-.16.06-.15.07-.16.06-.16.06-.16.06-.16.06-.15.06-.16.06-.16.06-.16.06-.15.06-.16.07-.16.06-.16.06-.15.06-.16.06-.16.06-.16.07-.15.06-.16.06-.16.06-.16.07-.15.06-.16.06-.16.07-.15.06-.16.06-.16.07-.15.06-.16.06-.16.07-.15.06-.16.07-.16.06-.15.07-.16.06-.16.06-.15.07-.16.06-.16.07-.15.07-.16.06-.15.07-.16.06-.16.07-.15.06-.16.07-.15.06-.16.07-.16.07-.15.06-.16.07-.15.07-.16.06-.15.07-.16.07-.16.07-.15.06-.16.07-.15.07-.16.07-.15.06-.16.07-.15.07-.16.07-.15.07-.16.06-.15.07-.16.07-.15.07-.16.07-.15.07-.16.07-.15.07-.15.07-.16.07-.15.07-.16.06-.15.07-.16.07-.15.07-.15.08-.16.07-.15.07-.16.07-.15.07-.15.07-.16.07-.15.07-.16.07-.15.07-.15.07-.16.08-.15.07L195,124l-.16.07-.15.07-.15.08-.16.07-.15.07-.15.07-.16.08-.15.07-.15.07-.16.08-.15.07-.15.07L193,125l-.16.07-.15.07-.15.08-.15.07-.16.08-.15.07-.15.07-.15.08-.16.07-.15.08-.15.07-.15.08L191,126l-.16.08-.15.07-.15.08-.15.07-.15.08-.16.08-.15.07-.15.08-.15.07-.15.08-.15.08-.15.07-.16.08-.15.08-.15.07-.15.08-.15.08-.15.08-.15.07-.15.08-.15.08-.16.08-.15.07-.15.08-.15.08-.15.08-.15.08-.15.08-.15.07-.15.08-.15.08-.15.08-.15.08-.15.08-.15.08-.15.08-.15.08-.15.08-.15.08-.15.08-.15.08-.15.08-.15.08-.15.08-.15.08-.15.08-.15.08-.15.08-.15.08-.14.08-.15.09-.15.08-.15.08-.15.08-.15.08-.15.08-.15.09-.15.08-.14.08-.15.08-.15.09-.15.08-.15.08-.15.08-.14.09-.15.08-.15.08-.15.09-.15.08-.15.08-.14.09-.15.08-.15.09-.15.08-.14.08-.15.09-.15.08-.15.09-.14.08-.15.09,0,0,0,0,0,0,0,0,0,0,0,0,0,0,0,0,0,0,0,0,0,0,0,0,0,0,0,0,0,0,0,0,0,0,0,0,0,0,0,0,0,0,0,0,0,0,0,0,0,0,0,0,0,0,0,0,0,0,0,0,0,0,0,0,0,0,0,0,0,0,0,0,0,0,0,0,0,0,0,0,0,0,0,0,0,0,0,0,0,0,0,0,0,0,0,0,0,0,0,0,0,0,0,0,0,0,0,0,0,0,0,0,0,0,0,0,0,0,0,0,0,0,0,0,0,0,0,0,0,0,0,0,0,0,0,0,0,0,0,0,0,0,0,0,0,0,0,0,0,0,0,0,0,0,0,0,0,0,0,0,0,0,0,0,0,0,0,0,0,0,0,0,0,0,0,0,0,0,0,0,0,0,0,0,0,0,0,0,0,0,0,0,0,0,0,0,0,0,0,0,0,0,0,0,0,0,0,0,0,0,0,0,0,0,0,0,0,0,0,0,0,0,0,0,0,0,0,0,0,0,0,0,0,0,0,0,0,0,0,0,0,0,0,0,0,0,0,0,0,0,0,0,0,0,0,0,0,0,0,0,0,0,0,0,0,0,0,0,0,0,0,0,0,0,0,0,0,0,0,0,0,0,0,0,0,0,0,0,0,0,0,0,0,0,0,0,0,0,0,0,0,0,0,0-.08.06-.07.06-.07.05-.07.06-.07.06-.07.06-.07.06-.07,0-.07.06-.07.06-.06.06-.07.06-.07.06-.07.06-.07.06-.07.06-.07.06-.07,0-.06.06-.07.06-.07.06-.07.06-.07.07-.06.06-.07.06-.07.06-.07.06-.06.06-.07.06-.07.06-.06.06-.07.06-.07.06-.06.07-.07.06-.06.06-.07.06-.07.06-.06.07-.07.06-.06.06-.07.06-.06.07-.07.06-.06.06-.07.07-.06.06-.06.06-.07.07-.06.06-.07.06-.06.07-.06.06-.07.07-.06.06-.06.07-.07.06-.06.06-.06.07-.06.06-.07.07-.06.06-.06.07-.06.06-.07.07-.06.07-.06.06-.06.07-.06.06-.06.07-.06.07-.07.06-.06.07-.06.07-.06.06-.06.07-.06.07-.06.06-.06.07-.06.07-.06.06-.06.07-.06.07-.06.07-.05.07-.06.06-.06.07-.06.07-.06.07-.06.07-.06.06,0,.07-.06.07-.06.07-.06.07-.05.07-.06.07-.06.07-.06.07-.05.07-.06.07-.06.07,0,.07-.06.07-.06.07-.05.07-.06.07,0,.07-.06.07-.05.07-.06.07,0,.07-.06.07-.05.07-.06.07,0,.07-.06.07-.05.08-.06.07,0,.07-.05.07-.06.07-.05.08,0,.07-.06.07-.05.07,0,.07-.06.08-.05.07,0,.07-.05.08-.06.07,0,.07-.05.07-.05.08,0,.07-.05.07-.06.08,0,.07-.05.08-.05.07,0,.07-.05.08,0,.07-.05.08-.05.07,0,.07-.05.08,0,.07-.05.08-.05.07,0,.08-.05.07,0,.08-.05.07,0,.08-.05.07,0,.08-.05.08,0,.07-.05.08-.05.07,0,.08,0,.07-.05.08-.05.08,0,.07-.05.08,0,.08,0,.07-.05.08-.05.08,0,.07,0,.08,0,.08,0,.08,0,.07,0,.08,0,.08,0,.08,0,.07-.05.08,0,.08-.05.08,0,.07,0,.08-.05.08,0,.08,0,.08,0,.08,0,.07,0,.08,0,.08,0,.08,0,.08,0,.08-.05.08,0,.08,0,.08,0,.08,0,.08,0,.07,0,.08-.05.08,0,.08,0,.08,0,.08,0,.08,0,.08,0,.08,0,.08,0,.08,0,.09,0,.08,0,.08,0,.08,0,.08,0,.08,0,.08,0,.08,0,.08,0,.08,0,.08,0,.09,0,.08,0,.08,0,.08,0,.08,0,.08,0,.09,0,.08,0,.08,0,.08,0,.08,0,.09,0,.08,0,.08,0,.08,0,.09,0,.08,0,.08,0,.08,0,.09,0,.08,0,.08,0,.08,0,.09,0,.08,0,.08,0,.09,0,.08,0,.08,0,.09,0,.08,0,.09,0,.08,0,.08,0,.09,0,.08,0,.08,0,.09,0,.08,0,.09,0,.08,0,.09,0,.08,0,.09,0,.08,0,.08,0,.09,0,.08,0,.09,0,.08,0,.09,0,.08,0,.09,0,.08,0,.09,0,.09,0,.08,0,.09,0,.08,0,.09,0,.08,0,.09,0,.08,0,.09,0,.09,0,.08,0,.09,0,.08,0,.09,0,.09,0,.08,0,.09,0,.09,0,.08,0,.09,0,.09,0,.08,0,.09,0,.09,0,.08,0,.09,0,.09,0,.08,0,.09,0,.09,0,.08,0,.09,0,.09,0,.09,0,.08,0,.09,0,.09,0,.09,0,.08,0,.09,0,.09,0,.09,0,.09,0,.08,0,.09,0,.09,0,.09,0,.09,0,.08,0,.09,0,.09,0,.09,0,.09,0,.09,0,.09v.08l0,.09,0,.09,0,.09,0,.09,0,.09V162l0,.09,0,.08,0,.09v.09l0,.09,0,.09v.09l0,.09v.09l0,.09,0,.09v.09l0,.09v.09l0,.09v.09l0,.09v.09l0,.09v.72l0,.09v.67l0,.09v.23l0,.14v5.09l.66,187.89v2.61l0,.08v.21l0,.08v.06l0,.08v.41l0,.05,0,.09v.05l0,.09v.28l0,.05v.09l0,.05v1l0,0V364l0,0v.05l0,0v.41l0,0v.19l0,0v.13l0,0v.13l0,0v.11l0,0v.08l0,0v.08l0,0v.08l0,0v.05l0,0v.08l0,0v0l0,0v0l0,0v.05l0,0V366l0,0v.05l0,0v0l0,0v.05l0,0v0l0,0v.05l0,0v0l0,0v0l0,0v.05l0,0v0l0,0v0l0,0v0l0,0v0l0,0v0l0,0v0l0,0v0l0,0v0l0,0,0,0v0l0,0v0l0,0v0l0,0v0l0,0,0,0v0l0,0v0l0,0,0,0v0l0,0v0l0,0,0,0v0l0,0,0,0v0l0,0v0l0,0,0,0v0l0,0,0,0,0,0v0l0,0,0,0v0l0,0,0,0v0l0,0,0,0,0,0v0l0,0,0,0,0,0v0l0,0,0,0,0,0v0l0,0,0,0,0,0,0,0v0l0,0,0,0,0,0v0l0,0,0,0,0,0,0,0,0,0v0l0,0,0,0,0,0,0,0,0,0v0l0,0,0,0,0,0,0,0,0,0,0,0,0,0v0l0,0,0,0,0,0,0,0,0,0,0,0,0,0,0,0,0,0,0,0,0,0,0,0,0,0v0l0,0,0,0,0,0,0,0,0,0,0,0,0,0,0,0,0,0,0,0,0,0,0,0,0,0,0,0,0,0,0,0,0,0,0,0,0,0,0,0,0,0,0,0,0,0,0,0,0,0,0,0,0,0,0,0,0,0,0,0,0,0,0,0,0,0,0,0h0l0,0,0,0,0,0,0,0,0,0,0,0,0,0,0,0,0,0,0,0,0,0,0,0,0,0,0,0,0,0,0,0,0,0,0,0h0l0,0,0,0,0,0,0,0,0,0,0,0,0,0,0,0,0,0,0,0,0,0,0,0,0,0,0,0,0,0h0l0,0,0,0,0,0,0,0,0,0,0,0,0,0,0,0h0l0,0,0,0,0,0,0,0,0,0h0l0,0,0,0,0,0,0,0,0,0,0,0h0l0,0,0,0,0,0,0,0h0l0,0,0,0,0,0h0l0,0,0,0,0,0,0,0h0l0,0,0,0,0,0h0l0,0,0,0,0,0h0l0,0,0,0h0l-.12.09-.12.09-.12.08-.12.09-.12.08-.13.09-.12.08-.12.09-.12.09-.12.08-.12.09-.12.08-.12.09-.13.09-.12.08-.12.09-.12.08-.12.09-.12.09-.12.08-.12.09-.12.09-.12.08-.12.09-.12.09-.13.08-.12.09-.12.09-.12.08-.12.09-.12.09-.12.08-.12.09-.12.09-.12.09-.12.08-.12.09-.12.09-.12.08-.12.09-.12.09L146,375l-.12.08-.12.09-.12.09-.12.09-.12.08-.12.09-.12.09-.12.09-.12.08-.12.09-.12.09-.12.09-.12.09-.12.08-.12.09-.12.09-.12.09-.12.09-.12.08-.12.09-.12.09-.12.09-.12.09-.12.09-.11.09-.12.08-.12.09-.12.09-.12.09-.12.09-.12.09-.12.09-.12.08-.12.09-.12.09-.11.09-.12.09-.12.09-.12.09-.12.09-.12.09-.12.09-.12.09-.11.09-.12.08-.12.09-.12.09-.12.09-.12.09-.12.09-.11.09-.12.09-.12.09-.12.09-.12.09-.12.09-.11.09-.12.09-.12.09-.12.09-.12.09-.11.09-.12.09-.12.09-.12.09-.12.09L138,381l-.12.09-.12.09-.12.09-.12.09-.11.09-.12.09-.12.1-.12.09-.11.09-.12.09-.12.09-.12.09-.11.09-.12.09-.12.09-.12.09-.11.09-.12.1-.12.09-.11.09-.12.09-.12.09-.12.09-.11.09-.12.09-.12.1-.11.09-.12.09-.12.09-.11.09-.12.09-.12.1-.11.09-.12.09-.12.09-.11.09-.12.1-.12.09-.11.09-.12.09-.12.09-.11.1-.12.09-.12.09-.11.09-.12.09-.11.1-.12.09-.12.09-.11.09-.12.1-.11.09-.12.09-.12.1-.11.09-.12.09-.11.09-.12.1-.12.09-.11.09-.12.1-.11.09-.12.09-.11.09-.12.1-.12.09-.11.09-.12.1-.11.09-.12.09-.11.1-.12.09-.11.09-.12.1-.11.09-.12.1L129,388l-.12.09-.12.1-.11.09-.12.09-.11.1-.12.09-.11.1-.11.09-.12.09-.11.1-.12.09-.11.1-.12.09-.11.1-.12.09-.11.09-.12.1-.11.09-.12.1-.11.09-.12.1-.11.09-.11.1-.12.09-.11.1-.12.09-.11.09-.11.1-.12.09-.11.1-.12.09-.11.1-.12.09-.11.1-.11.09-.12.1-.11.1-.11.09-.12.1-.11.09-.12.1-.11.09-.11.1-.12.09-.11.1-.11.09-.12.1-.11.1-.11.09-.12.1-.11.09-.11.1-.12.1-.11.09-.11.1-.12.09-.11.1-.11.1-.12.09-.11.1-.11.09-.12.1-.11.1-.11.09-.11.1-.12.1-.11.09-.11.1-.12.1-.11.09-.11.1-.11.1-.12.09-.11.1-.11.1-.11.09-.11.1-.12.1-.11.09-.11.1-.11.1-.12.1-.11.09-.11.1-.11.1-.12.1-.11.09-.11.1-.11.1-.11.1-.11.09-.12.1-.11.1-.11.1-.11.09-.11.1-.12.1-.11.1-.11.09-.11.1-.11.1-.11.1-.11.1-.12.09-.11.1-.11.1-.11.1-.11.1-.11.1-.11.09-.12.1-.11.1-.11.1-.11.1-.11.1-.11.1-.11.09-.11.1-.11.1-.11.1-.11.1-.12.1-.11.1-.11.1-.11.09-.11.1-.11.1-.11.1-.11.1-.11.1-.11.1-.11.1-.11.1-.11.1-.11.1-.11.1-.11.1-.11.09-.11.1-.11.1-.11.1-.11.1-.11.1-.11.1-.11.1-.11.1-.11.1-.11.1-.11.1-.11.1-.11.1-.11.1-.11.1-.11.1-.11.1-.11.1-.11.1-.11.1-.11.1-.11.1-.11.11-.11.1-.11.1-.1.1-.11.1-.11.1-.11.1-.11.1-.11.1-.11.1-.11.1-.11.1-.11.1-.1.1-.11.11-.11.1-.11.1-.11.1-.11.1-.11.1-.1.1-.11.1-.11.11-.11.1-.11.1-.11.1-.11.1-.1.1-.11.11-.11.1-.11.1-.11.1-.1.1-.11.1-.11.11-.11.1-.11.1-.1.1-.11.1-.11.11-.11.1-.11.1-.1.1-.11.1-.11.11-.11.1-.1.1-.11.1-.11.11-.11.1-.1.1-.11.1-.11.11-.11.1-.1.1-.11.1-.11.11-.11.1-.1.1-.11.11-.11.1-.1.1-.11.1-.11.11-.1.1-.11.1-.11.11-.1.1-.11.1-.11.11-.1.1-.11.1-.11.11-.1.1-.11.1-.11.11-.1.1-.11.1-.11.11-.1.1-.11.11-.11.1-.1.1-.11.11-.1.1-.11.11-.11.1-.1.1-.11.11-.1.1-.11.11-.11.1-.1.1-.11.11-.1.1-.11.11-.1.1-.11.11-.11.1-.1.1-.11.11-.1.1-.11.11-.1.1-.11.11-.1.1-.11.11-.1.1-.11.11-.11.1-.1.11-.11.1-.1.11-.11.1-.1.11-.11.1-.1.11-.11.1-.1.11-.1.1-.11.11-.1.1-.11.11-.1.1-.11.11-.1.11-.11.1-.1.11-.11.1-.1.11-.11.1-.1.11-.1.11-.11.1-.1.11-.11.1-.1.11-.1.11-.11.1-.1.11-.11.1-.1.11-.1.11-.11.1-.1.11-.11.11-.1.1-.1.11-.11.1-.1.11-.1.11-.11.1-.1.11-.1.11-.11.1-.1.11-.1.11-.11.1-.1.11-.1.11-.11.11-.1.1-.1.11-.11.11-.1.1-.1.11,0,0h0v0l0,0h0l0,0v0h0v0l0,0v0h0v0h0v0l0,0v0h0v0l0,0v0h0v0l0,0v0h0l0,0v0l0,0h0l0,0v0l0,0h0v0l0,0v0l0,0h0v0l0,0v0h0l0,0v0l0,0v0h0l0,0v.06l0,0v0h0l0,0V422l0,0V422h0l0,0v.12l0,0v.2h0l0,0v.05h0v.19h0v.05h0v5.32l0,0v.46l0,0v.23l0,0v.32l0,0v.06l0,0h0v.06l0,0v0l0,0,0,0v.06h0v0l0,0v.06l0,0v0h0l0,0v.06l0,0h0l0,0,0,0v0h0l0,0v0l0,0v0h0l0,0,0,0,0,0v0l0,0v0h0v0l0,0v0h0l0,0,0,0h0l0,0v0h0v0l0,0,0,0v0l0,0h0l0,0v0h0v0l0,0h0v0h0v0l0,0h0l0,0v0h0l0,0v0h0v0h0l0,0v0h0l0,0h0l0,0h0v0h0l0,0v0h0l0,0h0l0,0h0l36.3,32.36h0l0,0h0l0,0h0l0,0h0l0,0h0l0,0h0l0,0h0l0,0h0l0,0h0v0h0l0,0h0v0h0l0,0h0l0,0h0l0,0h0l0,0h0l0,0h0l0,0H131l0,0h.07l0,0,0,0h0l0,0h.12l0,0h.17l0,0h.31l0,0,0,0h1l.06,0h5.49l0,0h.15l0,0h.11l0,0h.07l0,0h.07l0,0H139l0,0h.05l0,0h0l0,0h0l0,0h0v0h0l0,0h0l0,0h0l0,0h0v0h0l0,0h0l0,0h0v0h0l0,0h0v0h0l0,0h0l0,0h0v0h0l0,0h0l0,0h0v0h0l0,0v0h0v0h0l0,0h0l0,0,0,0h0l0,0v0h0v0l0,0h0v0l0,0h0l0,0,0,0,.1-.11.11-.12.11-.12.11-.12.12-.12.11-.12.11-.12.11-.12.11-.12.11-.12.11-.11.11-.12.11-.12.11-.12.11-.12.11-.12.11-.11.12-.12.11-.12.11-.12.11-.12.11-.11.11-.12.12-.12L143,460l.11-.11.11-.12.11-.12.12-.12.11-.11.11-.12.11-.12.11-.11L144,459l.11-.12.11-.11.11-.12.12-.12.11-.11.11-.12.12-.12.11-.11.11-.12.11-.11.12-.12.11-.11.11-.12.12-.12.11-.11.11-.12.12-.11.11-.12.12-.11.11-.12.11-.11.12-.12.11-.11.12-.12.11-.11.11-.12.12-.11.11-.12.12-.11.11-.12.12-.11.11-.11.12-.12.11-.11.12-.12.11-.11.12-.11.11-.12.12-.11.11-.11.12-.12.11-.11.12-.11.11-.12.12-.11.11-.11.12-.12.11-.11.12-.11.12-.11.11-.12.12-.11.11-.11.12-.11.12-.12.11-.11.12-.11.12-.11.11-.12.12-.11L151,452l.11-.11.12-.11.12-.11.11-.12.12-.11.12-.11.11-.11.12-.11L152,451l.12-.11.11-.11.12-.11.12-.12.12-.11.11-.11.12-.11.12-.11.12-.11.12-.11.11-.11.12-.11.12-.11.12-.11.12-.11.11-.11.12-.11.12-.11.12-.11.12-.11.12-.11.12-.1.11-.11.12-.11.12-.11.12-.11.12-.11.12-.11.12-.11.12-.11.12-.1.12-.11.12-.11.12-.11.12-.11.12-.11.11-.1.12-.11.12-.11.12-.11.12-.11.12-.1.12-.11.13-.11.12-.11.12-.1.12-.11.12-.11.12-.1.12-.11.12-.11.12-.1.12-.11.12-.11.12-.1.12-.11.12-.11.12-.1.13-.11.12-.11.12-.1.12-.11.12-.1.12-.11.12-.1.13-.11.12-.11.12-.1.12-.11.12-.1.13-.11.12-.1.12-.11.12-.1.12-.11.13-.1.12-.11.12-.1.12-.11.13-.1.12-.1.12-.11.12-.1.13-.11.12-.1.12-.11.13-.1.12-.1.12-.11.12-.1.13-.1.12-.11.12-.1.13-.1.12-.11.13-.1.12-.1.12-.11.13-.1.12-.1.12-.1.13-.11.12-.1.13-.1.12-.1.12-.11.13-.1.12-.1.13-.1.12-.1.13-.11.12-.1.13-.1.12-.1.12-.1.13-.1.12-.11.13-.1.12-.1.13-.1.12-.1.13-.1.13-.1.12-.1.13-.1.12-.1.13-.1.12-.1.13-.1.12-.1.13-.11.13-.09.12-.11.13-.09.12-.1.13-.1.13-.1.12-.1.13-.1.12-.1.13-.1.13-.1.12-.1.13-.1.13-.1.12-.1.13-.1.13-.09.12-.1.13-.1.13-.1.12-.1.13-.1.13-.09.13-.1.12-.1.13-.1.13-.1.13-.09.12-.1.13-.1.13-.1L172,434l.12-.1.13-.1.13-.1.13-.09.13-.1.12-.1.13-.09.13-.1.13-.1.13-.09.12-.1.13-.1.13-.09.13-.1.13-.09.13-.1.13-.1.13-.09.12-.1.13-.09.13-.1.13-.1.13-.09.13-.1.13-.09.13-.1.13-.09.13-.1.13-.09.12-.1L176,431l.13-.1.13-.09.13-.09.13-.1.13-.09.13-.1.13-.09.13-.1.13-.09.13-.09.13-.1.13-.09.13-.09.13-.1.14-.09.13-.09.13-.1.13-.09.13-.09.13-.1.13-.09.13-.09.13-.1.13-.09.13-.09.13-.09.13-.1.14-.09.13-.09.13-.09.13-.09.13-.1.13-.09.13-.09.14-.09.13-.09.13-.09.13-.1.13-.09.13-.09.14-.09.13-.09.13-.09.13-.09.14-.09.13-.09.13-.09.13-.1.13-.09.14-.09.13-.09.13-.09.13-.09.14-.09.13-.09.13-.09.14-.09.13-.09.13-.09.13-.08.14-.09.13-.09.13-.09.14-.09.13-.09.13-.09.14-.09.13-.09.13-.09.14-.08.13-.09.13-.09.14-.09.13-.09.14-.09.13-.08.13-.09.14-.09.13-.09.14-.09.13-.08.13-.09.14-.09.13-.09.14-.08.13-.09.14-.09.13-.08.14-.09.13-.09.14-.08.13-.09.13-.09.14-.08.13-.09.14-.09.13-.08.14-.09.13-.09.14-.08.14-.09.13-.08.14-.09.13-.08.14-.09.13-.08.14-.09.13-.09.14-.08.14-.09.13-.08.14-.09.13-.08.14-.08.14-.09.13-.08.14-.09.13-.08.14-.09.14-.08.13-.09.14-.08.14-.08.13-.09.14-.08.13-.08.14-.09.14-.08.14-.08.13-.09.14-.08.14-.08.13-.09.14-.08.14-.08.13-.09.14-.08.14-.08.14-.08.13-.09.14-.08.14-.08.14-.08.13-.08.14-.09.14-.08.14-.08.13-.08.14-.08.14-.08.14-.09.14-.08.13-.08.14-.08.14-.08.14-.08.14-.08.13-.08.14-.08.14-.08.14-.08.14-.08.14-.08.14-.08.13-.08.14-.08.14-.08.14-.08.14-.08.14-.08.14-.08.14-.08.13-.08.14-.08.14-.08.14-.08.14-.08.14-.08.14-.08.14-.08.14-.07.14-.08.14-.08.14-.08.14-.08.14-.08.14-.07.14-.08.14-.08.14-.08.14-.08.14-.07.14-.08.14-.08.14-.08.14-.07.14-.08.14-.08.14-.07.14-.08.14-.08.14-.07.14-.08.14-.08.14-.07.14-.08.14-.08.14-.07.14-.08.15-.07.14-.08.14-.08.14-.07.14-.08.14-.07.14-.08.14-.07.15-.08.14-.07.14-.08.14-.07.14-.08.14-.07.14-.08.15-.07.14-.08.14-.07.14-.08.14-.07.15-.07.14-.08.14-.07.14-.08.14-.07.15-.07.14-.08.14-.07.14-.07.14-.08.15-.07.14-.07.14-.08.14-.07.15-.07.14-.08.14-.07.14-.07.15-.07.14-.08.14-.07.15-.07.14-.07.14-.07.15-.08.14-.07.14-.07.14-.07.15-.07.14-.08.14-.07.15-.07.14-.07.14-.07.15-.07.14-.07.15-.07.14-.07.14-.07.15-.07.14-.07.14-.08.15-.07.14-.07.15-.07.14-.07.14-.07.15-.07.14-.07.15-.06.14-.07.15-.07.14-.07.14-.07.15-.07.14-.07.15-.07.14-.07.15-.07.14-.07.15-.06.14-.07.15-.07.14-.07.15-.07.14-.07.15-.06.14-.07.15-.07.14-.07.15-.06.14-.07.15-.07.14-.07.15-.06.14-.07.15-.07.14-.07.15-.06.14-.07.15-.07.15-.06.14-.07.15-.07.14-.06.15-.07.15-.06.14-.07.15-.07.14-.06.15-.07.15-.06.14-.07.15-.06.14-.07.15-.06.15-.07.14-.06.15-.07.15-.06.14-.07.15-.06.15-.07.14-.06.15-.07.15-.06.14-.07.15-.06.15-.06.14-.07.15-.06.15-.07.14-.06.15-.06.15-.07.15-.06.14-.06.15-.07.15-.06.14-.06.15-.07.15-.06.15-.06.14-.06.15-.07.15-.06.15-.06.15-.06.14-.07.15-.06.15-.06.15-.06.14-.06.15-.06.15-.07.15-.06.15-.06.14-.06.15-.06.15-.06.15-.06.15-.06.15-.07L228,402l.15-.06.15-.06.15-.06.15-.06.15-.06.15-.06.14-.06.15-.06.15-.06.15-.06.15-.06.15-.06.15-.06.15-.06.14-.05.15-.06.15-.06.15-.06.15-.06.15-.06.15-.06.15-.06.15-.06.15,0,.15-.06.15-.06.15-.06.15-.06.14-.05.15-.06.15-.06.15-.06.15-.06.15-.05.15-.06.15-.06.15,0,.15-.06.15-.06.15-.06.15-.05.15-.06.15-.06.15-.05.15-.06.15-.05.15-.06.15-.06.15-.05.16-.06.15-.05.15-.06.15-.06.15-.05.15-.06.15,0,.15-.06.15-.05.15-.06.15-.05.15-.06.15-.05.15-.06.15-.05.16-.06.15-.05.15-.05.15-.06.15-.05.15-.06.15-.05.15,0,.16-.06.15-.05.15-.05.15-.06.15-.05.15-.05.15-.06.16-.05.15-.05.15-.06.15-.05.15-.05.15,0,.16-.06.15-.05.15-.05.15-.05.15-.05.16-.06.15,0,.15-.05.15-.05.15-.05.16-.05.15-.06.15,0,.15-.05.16-.05.15-.05.15-.05.15,0,.16-.05.15-.05.15-.05.15-.05.16,0,.15-.05.15-.05.15-.05.16-.05.15,0,.15-.05.15-.05.16-.05.15-.05.15,0,.16-.05.15-.05.15-.05.16-.05.15,0,.15-.05.16-.05.15-.05.15,0,.16-.05.15,0,.15-.05.16,0,.15-.05.15-.05.16,0,.15,0,.15-.05.16-.05.15,0,.16,0,.15-.05.15-.05.16,0,.15-.05.15,0,.16,0,.15-.05.16,0,.15-.05.15-.05.16,0,.15,0,.16-.05.15,0,.16-.05.15,0,.15-.05.16,0,.15-.05.16,0,.15-.05.16,0,.15,0,.16,0,.15-.05.16,0,.15,0,.15,0,.16-.05.15,0,.16,0L254,393l.16,0,.15-.05.16,0,.15,0,.16,0,.15,0,.16,0,.15,0,.16,0,.15,0,.16,0,.16-.05.15,0,.16,0,.15-.05.16,0,.15,0,.16,0,.15,0,.16-.05.15,0,.16,0,.16,0,.15,0,.16,0,.15-.05.16,0,.15,0,.16,0,.16,0,.15,0,.16,0,.15,0,.16,0,.16,0,.15,0,.16,0,.15,0,.16,0,.16,0,.15,0,.16,0,.16,0,.15,0,.16,0,.15,0,.16,0,.16,0,.15,0,.16,0,.16,0,.15,0,.16,0,.16,0,.15,0,.16,0,.16,0,.15,0,.16,0,.16,0,.15,0,.16,0,.16,0,.16,0,.15,0,.16,0,.16,0,.15,0,.16,0,.16,0,.15,0,.16,0,.16,0,.16,0,.15,0,.16,0,.16,0,.16,0,.15,0,.16,0,.16,0,.16,0,.15,0,.16,0,.16,0,.16,0,.15,0,.16,0,.16,0,.16,0,.16,0,.15,0,.16,0,.16,0,.16,0,.15,0,.16,0,.16,0,.16,0,.16,0,.15,0,.16,0,.16,0,.16,0,.16,0,.16,0,.15,0,.16,0,.16,0,.16,0,.16,0,.16,0,.15,0,.16,0,.16,0,.16,0,.16,0,.16,0,.16,0,.15,0,.16,0,.16,0,.16,0,.16,0,.16,0,.16,0,.16,0,.15,0,.16,0,.16,0,.16,0,.16,0,.16,0,.16,0,.16,0,.16,0,.16,0,.16,0,.15,0,.16,0,.16,0,.16,0,.16,0,.16,0,.16,0,.16,0,.16,0,.16,0,.16,0,.16,0,.16,0,.16,0,.16,0,.16,0,.15,0,.16,0,.16,0,.16,0,.16,0,.16,0,.16,0,.16,0,.16,0,.16,0,.16,0,.16,0,.16,0,.16,0,.16,0,.16,0,.16,0,.16,0,.16,0,.16,0,.16,0,.16,0,.16,0,.16,0,.16,0,.16,0,.16,0,.16,0h2.49l0,0h.13l0,0h.11l0,0h.07l0,0h.07v0h.06l0,0h.05l0,0h0l0,0h.05l0,0h0l0,0h0l0,0h0l0,0h0l0,0h0l0,0h0v0h0l0,0h0v0h0v0h0v0h0v0h0l0,0h0v0h0l0,0h0l0,0h0l0,0h0l0,0h0l0,0h0l0,0h0l0,0h0l0,0h0l0,0v0h0v0h0v0h0v0l0,0h0v0h0v0h0v0l0,0h0v0l0,0h0l0,0h0v0l0,0h0v0l0,0h0l0,0v0h0v0l0,0h0v0l0,0h0v0l0,0h0v0l0,0v0h0v0l0,0v0h0v0l0,0v0h0v0l0,0v0h0v0h0v-.08l0,0h0v-.08h0l0,0v-.06h0v-.08l0,0h0v-.14h0v-.16h0v-.22h0v-4.11l-6.54-44.31v-4.93l0,0v-.2l0,0v-.14l0,0v-.08l0,0v-.08l0,0v-.09l0,0v-.06l0,0v-.05l0,0v0l0,0v-.06l0,0v0l0,0v0l0,0v0l0,0v0l0,0v0l0,0v0l0,0v0l0,0v0l0,0,0,0v0l0,0v0l0,0v0l0,0,0,0v0l0,0,0,0v0l0,0,0,0v0l0,0,0,0v0l0,0,0,0,0,0v0l0,0,0,0,0,0v0l0,0,0,0,0,0v0l0,0,0,0,0,0,0,0,0,0,0,0v0l0,0,0,0,0,0,0,0,0,0,0,0,0,0v0l0,0,0,0,0,0,0,0,0,0,0,0,0,0,0,0,0,0,0,0,0,0,0,0,0,0,0,0,0,0,0,0,0,0,0,0,0,0,0,0,0,0,0,0,0,0,0,0,0,0,0,0,0,0,0,0,0,0,0,0,0,0,0,0,0,0,0,0,0,0,0,0,0,0,0,0,0,0,0,0,0,0,0,0,0,0,0,0,0,0,0,0,0,0,0,0,0,0,0,0,0,0,0,0,0,0,0,0,0,0,0,0,0,0,0,0,0,0,0,0,0,0,0,0,0,0,0,0,0,0,0,0,0,0h0l0,0,0,0,0,0,0,0,0,0,0,0,0,0,0,0,0,0h0l0,0,0,0,0,0,0,0,0,0h0l0,0,0,0,0,0,0,0h0l0,0,0,0,0,0h0l0,0,0,0,0,0h0l0,0,0,0h0l0,0,0,0,0,0h0l0,0h0l0,0,0,0h0l0,0,0,0h0l0,0h0l0,0,0,0h0l0,0h0l0,0h0l0,0h0l0,0h0l0,0h0l0,0h0l0,0h.05l0,0h0l0,0h0l0,0h.05l0,0h.05l0,0h.05l0,0h.06l0,0h.09l0,0h.09l0,0H288l0,0h.17l0,0h.32l0,0h2l.19,0,.19,0,.19,0,.19,0,.19,0,.19,0,.18,0,.19,0,.19,0,.19,0,.18,0,.19,0,.19,0,.18,0,.19,0,.18,0,.19,0,.19,0,.18,0,.19,0,.18,0,.19,0,.18,0,.18,0,.19,0,.18,0,.19,0,.18,0,.18,0h.18l.19,0,.18,0,.18,0,.18,0,.19,0h.18l.18,0,.18,0,.18,0H298l.18,0,.18,0h.18l.18,0h.18l.18,0,.18,0h.18l.18,0h.18l.18,0h.17l.18,0h.18l.18,0H301l.18,0h.35l.18,0h.53l.17,0H303l.17,0h26.71l.14,0h.67l.13,0h.54l.13,0h.4l.13,0h.4l.13,0h.26l.13,0h.26l.13,0h.26l.13,0h.12l.13,0h.26l.13,0h.12l.13,0h.26l.12,0h.13l.13,0h.12l.13,0h.12l.13,0h.12l.13,0h.12l.13,0h.12l.12,0h.13l.12,0h.12l.13,0,.12,0h.12l.12,0h.12l.13,0h.12l.12,0,.12,0H338l.12,0,.12,0h.12l.12,0h.12l.12,0,.12,0H339l.11,0,.12,0h.12l.12,0,.12,0,.11,0h.12l.12,0,.11,0h.12l.12,0,.11,0,.12,0h.11l.12,0,.11,0,.12,0h.11l.12,0,.11,0,.11,0h.12l.11,0,.11,0,.12,0,.11,0h.11l.11,0,.11,0,.12,0,.11,0h.11l.11,0,.11,0,.11,0,.11,0,.11,0h.11l.11,0,.11,0,.1,0,.11,0,.11,0,.11,0,.11,0h.1l.11,0,.11,0,.11,0,.1,0,.11,0,.1,0,.11,0,.11,0h.1l.11,0,.1,0,.11,0,.1,0,.1,0,.11,0,.1,0,.11,0,.1,0,.1,0,.1,0,.11,0,.1,0,.1,0h.1l.1,0,.1,0,.11,0,.1,0,.1,0,.1,0,.1,0,.1,0,.1,0,.09,0,.1,0,.1,0,.1,0,.1,0,.1,0,.09,0,.1,0,.1,0,.1,0,.09,0,.1,0,.1,0,.09,0,.1,0,.09,0,.1,0,.09,0,.1,0,.09,0,.1,0,.09,0,.09,0,.1,0,.09,0,.09,0,.09,0,.1,0,.09,0,.09,0,.09,0,.09,0,.1,0,.09,0,.09,0,.09,0,.09,0,.09,0,.09,0,.09,0,.09,0,.08,0,.09,0,.09,0,.09,0,.09,0,.08,0,.09,0,.09,0,.09,0,.08,0,.09,0,.08,0,.09,0,.09,0,.08,0,.09,0,.08,0,.09,0,.08,0,.08,0,.09,0,.08,0,.09,0,.08,0,.08,0,.17,0,.16,0,.16,0,.16,0,.16,0,.16,0,.16,0,.16,0,.16,0,.15,0,.16,0,.15,0,.15,0,.15,0,.15,0,.15,0,.15,0,.15,0,.15,0,.14,0,.15,0,.14,0,.14,0,.14,0,.14,0,.14,0,.14,0,.1,0,.09,0,.1,0,.1,0,.09,0,.1,0,.1,0,.09,0,.1,0,.1,0,.09,0,.1,0,.1,0,.09,0,.1,0,.1,0,.09,0,.1,0,.1,0,.09,0,.1,0,.09,0,.1,0,.1,0Z"/><path class="cls-2" d="M280.14,517v-8l0-.07v-.41l0-.07v-.28l0-.07v-.27l0-.07v-.14l0-.07v-.2l0-.07v-.14l0-.07V507l0-.07v-.14l0-.07v-.07l0-.06v-.14l0-.07v-.07l0-.07v-.07l0-.07v-.07l0-.07v-.07l0-.07v-.07l0-.06v-.07l0-.07v-.07l0-.07,0-.07v-.07l0-.07v-.07l0-.07,0-.07v-.07l0-.07,0-.07v-.06l0-.07,0-.07v-.07l0-.07,0-.07,0-.07v-.07l0-.07,0-.07,0-.07V504l0-.07,0-.07,0-.07v-.06l0-.07,0-.07,0-.07,0-.07,0-.07,0-.07v-.07l0-.07,0-.07,0-.07,0-.07,0-.07,0-.07,0-.07,0-.07,0-.07,0-.06,0-.07,0-.07,0-.07,0-.07,0-.07,0-.07,0-.07,0-.07,0-.07,0-.07,0-.07,0-.07,0-.07,0-.07,0-.07,0-.07,0-.06,0-.07,0-.07,0-.07,0-.07,0-.07,0-.07,0-.07,0-.07,0-.07,0-.07,0-.07,0-.07,0-.07,0-.07,0-.07,0-.06,0-.07,0-.07,0-.07,0-.07,0-.07,0-.07,0-.07,0-.07,0-.07,0-.07,0-.07,0-.07,0-.07,0-.07,0-.06,0-.07,0-.07,0-.07,0-.07,0-.07,0-.07,0-.07,0-.07,0-.07,0-.07,0-.07,0-.07,0-.06,0-.07,0-.07,0-.07,0-.07,0-.07,0-.07,0-.07,0-.07,0-.07,0-.07,0-.07,0-.06,0-.07,0-.07,0-.07,0-.07,0-.07,0-.07,0-.07,0-.07,0-.07,0-.07,0-.06,0-.07,0-.07,0-.07,0-.07,0-.07,0-.07,0-.07,0-.07,0-.07,0-.06,0-.07,0-.07,0-.07,0-.07,0-.07,0-.07,0-.07,0-.07,0-.06,0-.07,0-.07,0-.07,0-.07,0-.07,0-.07,0-.07,0-.06,0-.07,0-.07,0-.07,0-.07,0-.07,0-.07,0-.07,0-.06,0-.07,0-.07,0-.07,0-.07,0-.07,0-.07,0-.06,0-.07,0-.07,0-.07,0-.07,0-.07,0-.07,0-.06,0-.07,0-.07,0-.07,0-.07,0-.07,0-.06,0-.07,0-.07,0-.07,0-.07,0-.07,0-.06,0-.07,0-.07,0-.07,0-.07,0-.07,0-.06,0-.07,0-.07,0-.07,0-.07,0-.06,0-.07,0-.07,0-.07,0-.07,0-.06,0-.07,0-.07,0-.07,0-.07,0-.06,0-.07,0-.07,0-.07,0-.06,0-.07,0-.07,0-.07,0-.07,0-.06,0-.07,0-.07,0-.07,0-.06,0-.07,0-.07,0-.07,0-.06,0-.07,0-.07,0-.07,0-.06,0-.07,0-.07,0-.07,0-.06,0-.07,0-.07,0-.06,0-.07,0-.07,0-.06,0-.07,0-.07,0-.06,0-.07,0-.07,0-.06,0-.07,0-.06,0-.07,0-.07,0-.06,0-.07,0-.06,0-.07,0-.06,0-.07,0-.07,0-.06,0-.07,0-.06,0-.07,0-.06,0-.07,0-.06,0-.07,0-.06,0-.06,0-.07,0-.06,0-.07,0-.06,0-.07,0-.06,0-.07,0-.06,0-.06,0-.07,0-.06-.05-.06,0-.07,0-.06,0-.07,0-.06,0-.06,0-.07,0-.06,0-.06-.05-.07,0-.06,0-.06,0-.06,0-.07,0-.06-.05-.06,0-.06,0-.07,0-.06,0-.06-.05-.06,0-.07,0-.06,0-.06,0-.06-.05-.06,0-.07,0-.06,0-.06,0-.06,0-.06,0-.06,0-.07,0-.06,0-.06,0-.06-.05-.06,0-.06,0-.06-.05-.06,0-.06,0-.06,0-.07,0-.06-.05-.06,0-.06,0-.06-.05-.06,0-.06,0-.06-.05-.06,0-.06,0-.06,0-.06,0-.06,0-.06,0-.06-.05-.05,0-.06,0-.06,0-.06,0-.06,0-.06,0-.06-.05-.06,0-.06-.05-.06,0-.06-.05,0,0-.06-.05-.06,0-.06-.05-.06,0-.06-.05-.05,0-.06,0-.06-.05-.06,0-.06-.05-.05,0-.06-.05-.06,0-.06-.05-.05,0-.06,0-.06-.05-.06,0-.05-.05-.06-.05-.06,0-.05-.05-.06,0-.06-.05,0-.05-.06,0-.06-.05-.05-.05-.06,0-.06,0-.05-.05-.06,0-.05-.05-.06,0-.06,0,0-.05-.06-.05-.05,0-.06L266,480l-.05-.06-.05-.05,0-.06-.05,0-.05-.06-.05-.06,0-.05-.05-.05-.05-.06-.05-.05,0-.06-.05,0-.05-.06-.05-.05-.05-.06,0-.05-.05-.06-.05-.05-.05,0-.05-.06,0-.05-.05-.05-.05-.06-.05-.05,0-.06-.05-.05,0,0-.05-.06,0-.05-.05-.05-.05-.05-.05-.06-.05,0,0-.05,0-.06-.05-.05-.05-.05,0-.05-.05-.06-.05,0-.05-.05-.05-.05,0-.05-.05-.06-.05-.05-.05,0-.05-.05,0-.05-.05-.05-.05-.06-.05-.05,0,0-.05-.05-.05-.05-.05-.05-.05-.05,0,0-.05-.05-.05-.06-.05-.05-.05-.05,0,0-.05-.05-.05-.05-.05-.05-.05-.05,0,0-.05-.05-.06-.05-.05-.05-.05-.05-.05,0,0-.05-.05-.05-.05-.05-.05-.05-.05,0,0-.05-.05-.05-.05-.05-.05-.05-.06,0-.05-.05,0-.05-.05-.05-.05,0-.05-.05-.05-.05,0-.05-.06-.05-.05,0-.05,0-.05-.05-.05-.05,0,0-.05,0-.06-.05-.05-.05-.05,0-.05,0,0-.05-.06-.05-.05,0-.05,0-.05-.05,0-.05-.06,0-.05-.05-.05-.05-.05,0-.05,0-.06-.05,0,0-.05-.05-.05,0-.06-.05-.05-.05-.05,0,0,0-.06,0-.05-.05-.05,0-.05-.05-.06-.05,0,0-.05,0-.06,0-.05-.05-.05,0-.05,0-.06,0,0,0-.05,0-.06,0-.05-.05-.05,0-.06-.05-.05,0,0,0-.06,0-.05,0-.05-.05-.06,0-.05,0,0-.05-.06,0-.05,0-.05-.05-.06,0-.05,0-.06-.05-.05,0,0,0-.06-.05-.05,0-.06,0-.05,0-.05-.05-.06,0,0,0-.06,0-.05,0-.05-.05-.06,0-.05,0-.06,0,0,0-.06,0-.05-.05-.05,0-.06,0-.05,0-.06,0-.05,0-.06,0,0,0-.06,0-.05-.05-.06,0-.05,0-.06,0-.05,0-.06,0,0,0-.06,0-.05,0-.06,0-.05,0-.06,0-.05,0-.06,0,0,0-.06,0-.05,0-.06,0-.05,0-.06,0,0,0-.06,0-.05,0-.06,0,0,0-.06,0-.05,0-.06,0-.06,0,0,0-.06,0-.05,0-.06,0,0,0-.06,0-.06,0-.05,0-.06,0,0,0-.06,0-.06,0-.05,0-.06,0,0,0-.06,0-.06,0-.05,0-.06,0,0,0-.06,0-.06,0-.05,0-.06,0,0,0-.06,0-.06,0-.05,0-.06,0-.06,0,0,0-.06,0-.06,0-.05,0-.06,0-.06,0-.05,0-.06,0-.06,0,0,0-.06,0-.06,0-.05,0-.06,0-.06,0,0,0-.06,0-.06,0-.05,0-.06,0-.06,0,0,0-.06,0-.06,0-.05,0-.06,0-.06,0-.06,0-.05,0-.06,0-.06,0,0,0-.06,0-.06,0-.06,0-.05,0-.06,0-.06,0-.06,0,0,0-.06,0-.06,0-.06,0-.05,0-.06,0-.06,0-.06,0-.05,0-.06,0-.06,0-.06,0,0,0-.06,0-.06,0-.06,0-.05,0-.06,0-.06,0-.06,0-.05,0-.06,0-.06,0-.06,0-.06,0,0,0-.06,0-.06,0-.06,0-.06,0-.05,0-.06,0-.06,0-.06,0-.06,0-.05,0-.06,0-.06,0-.06,0-.06,0-.05,0-.06,0-.06,0-.06,0-.06,0,0,0-.06,0-.06,0-.06,0-.06,0-.06,0-.05,0-.06,0-.06,0-.06,0-.06,0-.06,0-.05,0-.06,0-.06,0-.06,0-.06,0-.06,0-.06,0-.05,0-.06,0-.06,0-.06,0-.06,0-.06,0-.06,0-.05,0-.06,0-.06,0-.06,0-.06,0-.06,0-.06,0,0,0-.06,0-.06,0-.06,0-.06,0-.06,0-.06,0-.06,0,0,0-.06,0-.06,0-.06,0-.06,0-.06,0-.06,0-.06,0-.06,0,0,0-.06,0-.06,0-.06,0-.06,0-.06,0-.06,0-.06,0-.06,0-.05,0-.06,0-.06,0-.06,0-.06,0-.06,0-.06,0-.06,0-.06,0-.06,0-.05,0-.06,0-.06,0-.06,0-.06,0-.06,0-.06,0-.06,0-.06,0-.06,0-.06,0-.05,0-.06,0-.06,0-.06,0-.06,0-.06,0-.06,0-.06,0-.06,0-.06,0-.06,0-.06,0-.06,0h0l-.06,0-.06,0-.06,0-.06,0-.06,0-.06,0h-.06l-.06,0-.06,0-.06,0-.06,0h-.06l-.06,0-.06,0-.05,0h-.06l-.06,0-.06,0-.12,0h0l-.06,0-.06,0h-.06l-.06,0-.06,0h-.06l-.06,0h-.06l-.06,0,0,0h-.06l-.06,0h-.06l-.06,0-.06,0h-.06l-.06,0H241l-.06,0h-.06l-.06,0h-.06l-.06,0h-.12l-.06,0h-.06l-.05,0h-.06l-.06,0h-.12l-.06,0H240l-.06,0h-.12l-.06,0h-.12l-.06,0h-.18l-.06,0h-.17l-.06,0h-.3l-.06,0h-.59l-.06,0h-12l-.06,0h-.28l-.06,0h-.22l-.06,0h-.17l-.06,0h-.11l0,0h-.12l-.05,0h-.11l-.06,0h-.11l-.06,0h0l-.06,0h-.05l-.06,0h-.06l0,0h-.06l-.05,0H224l0,0h-.06l-.05,0h-.06l-.06,0h0l-.06,0-.05,0h-.06l0,0h-.06l-.05,0-.06,0h0l-.06,0-.05,0h-.06l0,0-.06,0-.05,0h-.06l0,0-.06,0-.05,0h-.06l0,0-.06,0-.05,0-.06,0h-.05l-.06,0-.05,0-.06,0-.05,0-.06,0-.05,0-.06,0-.05,0,0,0h-.06l-.05,0-.06,0,0,0-.06,0-.05,0,0,0-.06,0-.05,0-.06,0,0,0-.05,0-.06,0-.05,0-.06,0-.05,0-.05,0-.06,0,0,0-.06,0-.05,0,0,0-.06,0-.05,0-.06,0,0,0-.05,0-.06,0,0,0-.05,0-.06,0-.05,0,0,0-.06,0-.05,0,0,0-.06,0-.05,0,0,0-.06,0-.05,0-.05,0-.06,0-.05,0-.05,0,0,0-.06,0-.05,0,0,0-.06,0-.05,0,0,0-.05,0-.06,0-.05,0,0,0-.05,0-.06,0,0,0-.05,0-.05,0-.06,0-.05,0-.05,0,0,0-.06,0-.05,0,0,0-.05,0-.05,0-.06,0-.05,0-.05,0,0,0-.05,0-.06,0,0,0-.05,0-.05,0,0,0-.05,0-.06,0,0,0-.05,0-.05,0,0,0-.05,0,0,0-.06,0-.05,0,0,0-.05,0-.05,0,0,0-.05,0,0,0-.05,0-.05,0,0,0-.05,0,0,0-.05,0-.05,0,0,0-.05,0,0,0-.05,0-.05,0,0,0-.05,0,0,0-.05,0-.05,0,0,0-.05,0,0,0-.05,0,0,0-.05,0-.05,0,0,0-.05,0,0,0-.05,0,0,0-.05,0,0,0-.05,0,0,0-.05,0,0,0-.05,0,0,0-.05,0-.05,0,0,0,0,0-.05,0-.05,0,0,0,0,0,0,0-.05,0,0,0-.05,0,0,0,0,0-.05,0-.05,0,0,0-.05,0,0,0,0,0-.05,0,0,0-.05,0-.05,0,0,0,0,0,0,0,0,0,0,0,0,0,0,0-.05,0,0,0-.05,0,0,0-.05,0,0,0-.05,0,0,0-.05,0,0,0,0,0,0,0,0,0-.05,0,0,0,0,0,0,0,0,0-.05,0,0,0,0,0-.05,0,0,0-.05,0,0,0,0,0,0,0,0,0,0,0,0,0,0,0,0,0,0,0,0,0-.05,0,0,0,0,0,0,0,0,0,0,0,0,0,0,0,0,.05-.05,0,0,0,0,0,0,0,0,0,0,0,0,0,0,0,0,0,0,.05,0,0,0,0,0,0,0,0,0,0,0,0,0,0,0,0,0,0-.05,0,0,0,0,0,0,.05,0,0,0,0,0,0,0,0,0,0,0,.05,0,0,0,0,0,0,0,0,0,.05,0,0,0,0,0,0,0,.05,0,0,0,0,0,0,0,.05,0,0,0,0,0,.05,0,0,0,0,0,.05,0,0,0,0,0,.05,0,0,0,0,0,.05,0,0,0,0,0,0,0,0,0,.05,0,0,0,.05,0,0,0,0,0,0,0,0,0,.05,0,0,0,.05,0,0,0,.05,0,0,0,.05,0,0,0,.05,0,0,0,.05,0,0,0,0,0,.05,0,0,0,.05,0,0,0,.05,0,0,0,.05,0,0,0,0,0,.05,0,.05,0,0,0,.05,0,0,0,0,0,.05,0,0,0,.05,0,0,0,.05,0,0,0,.05,0,.05,0,0,0,.05,0,.05,0,.05,0,0,0,.05,0,.05,0,.05,0,0,0,.05,0,.05,0,.05,0,0,0,0,0,.05,0,.05,0,0,0,.05,0,.05,0,0,0,.05,0,0,0,.05,0,.05,0,.05,0,.05,0,0,0,.05,0,0,0,.05,0,0,0,.05,0,.05,0,.05,0,.05,0,0,0,.05,0,.05,0,.05,0,.05,0,0,0,.05,0,.05,0,.05,0,.05,0,0,0,.05,0,.05,0,.05,0,.05,0,0,0,.05,0,.06,0,.05,0,.05,0,.05,0,0,0,.05,0,.05,0,.05,0,.05,0,0,0,.06,0,.05,0,.05,0,.05,0,0,0,.05,0,.06,0,.05,0,.05,0,.05,0,0,0,.06,0,.05,0,.05,0,.05,0,.06,0,.05,0,0,0,.05,0,.06,0,.05,0,.05,0,.05,0,.06,0,.05,0,.05,0,.06,0,.05,0,.05,0,.06,0,0,0,.05,0,.05,0,.06,0,.05,0,.06,0,.05,0,0,0,.06,0,.05,0,.05,0,.06,0,.05,0,.06,0,0,0,.05,0,.06,0,.05,0,.06,0,.05,0,.06,0,0,0,.06,0,.05,0,.06,0,.05,0,.05,0,.06,0,.05,0,.06,0,0,0,.06,0,.05,0,.06,0,.05,0,.06,0,.06,0,.05,0,.06,0,0,0,.06,0,.05,0,.06,0,.05,0,.06,0,.06,0,.05,0,.06,0,0,0,.06,0,.06,0,.05,0,.06,0,.06,0,.05,0,.06,0,.06,0,0,0,.06,0,.06,0,.05,0,.06,0,.05,0,.06,0,.06,0,.06,0,.05,0,.06,0,.06,0,0,0,.06,0,.06,0,.06,0,.05,0,.06,0,.06,0,.06,0,.05,0,.06,0,.06,0,.06,0,.06,0,0,0,.06,0,.06,0,.06,0,.06,0,.05,0,.06,0,.06,0,.06v.06l0,.06,0,.05,0,.06,0,.06,0,.06,0,.06v.06l0,.06,0,.05,0,.06,0,.06v.06l0,.06,0,.06,0,.06v.06l0,.06,0,.06v.06l0,.05,0,.06,0,.06v.06l0,.06,0,.06v.06l0,.12v.06l0,.06v.06l0,.06,0,.06,0,.12v.06l0,.06,0,.12v.06l0,.06,0,.06v.06l0,.06v.06l0,.06v.13l0,.06v.06l0,.06v.06l0,.06,0,.12v.12l0,.13v.06l0,.06v.12l0,.06v.12l0,.07v.12l0,.06v.19l0,.06v.25l0,.06v.25l0,.06v.25l0,.12,0,.13,0,.06v.38l0,.12,0,.13v.69l0,.13,0,.13v1.4l0,.13v10.87l0,.14v1.78l0,.14v.41l0,.07v.35l0,.07v.2l0,.07v.21l0,.07V508l0,.07v.13l0,.07v.14l0,.07v.14l0,.07v.07l0,.07v.07l0,.06v.14l0,.07v.07l0,.07v.07l0,.07v.07l0,.07v.07l0,.07,0,.07v.06l0,.07V510l0,.07v.07l0,.07,0,.07v.07l0,.07,0,.07v.07l0,.07,0,.07v.07l0,.06,0,.07V511l0,.07,0,.07v.07l0,.07,0,.07,0,.07v.07l0,.07,0,.07,0,.07,0,.07v.07l0,.07,0,.06,0,.07,0,.07,0,.07,0,.07v.07l0,.07,0,.07,0,.07,0,.07,0,.07,0,.07,0,.07,0,.07,0,.07,0,.07,0,.06,0,.07,0,.07,0,.07,0,.07,0,.07,0,.07,0,.07,0,.07,0,.07,0,.07,0,.07,0,.07,0,.07,0,.07,0,.07,0,.07,0,.07,0,.06,0,.07,0,.07,0,.07,0,.07,0,.07.05.14,0,.07,0,.07,0,.07,0,.07,0,.07,0,.14,0,.06,0,.07,0,.07,0,.07,0,.07,0,.07,0,.07,0,.07,0,.07,0,.07,0,.07,0,.07,0,.07,0,.07,0,.07,0,.06,0,.07,0,.07,0,.07,0,.07,0,.07,0,.07,0,.07,0,.07,0,.07,0,.07,0,.07,0,.07,0,.06,0,.07,0,.07,0,.07,0,.07,0,.07,0,.07,0,.07,0,.07,0,.07,0,.07,0,.07,0,.06,0,.07,0,.07,0,.07,0,.07,0,.07,0,.07,0,.07,0,.07,0,.07,0,.06,0,.07,0,.07,0,.07,0,.07,0,.07,0,.07,0,.07,0,.07,0,.07,0,.06,0,.07,0,.07,0,.07,0,.07,0,.07,0,.07,0,.07,0,.07,0,.06,0,.07,0,.07,0,.07,0,.07,0,.07,0,.07,0,.07,0,.06,0,.07,0,.07,0,.07,0,.07,0,.07.06.14.06.13,0,.07,0,.07,0,.07,0,.07,0,.07,0,.06,0,.07.06.14,0,.07,0,.07,0,.07,0,.06,0,.07,0,.07,0,.07,0,.07,0,.07,0,.06,0,.07,0,.07,0,.07,0,.07,0,.07,0,.06,0,.07,0,.07,0,.07,0,.07,0,.06,0,.07,0,.07,0,.07,0,.07,0,.07,0,.06,0,.07,0,.07,0,.07,0,.07,0,.06,0,.07,0,.07,0,.07,0,.06,0,.07,0,.07,0,.07,0,.07,0,.06,0,.07,0,.07,0,.07,0,.06,0,.07,0,.07,0,.07,0,.07,0,.06,0,.07,0,.07,0,.07,0,.06,0,.07,0,.07,0,.07,0,.06,0,.07,0,.07,0,.06,0,.07,0,.07,0,.06,0,.07,0,.07,0,.06,0,.07,0,.07,0,.06,0,.07,0,.07,0,.06,0,.07,0,.07,0,.06,0,.07,0,.06,0,.07,0,.06.08.14,0,.06,0,.07,0,.06,0,.07,0,.06,0,.07,0,.06,0,.07,0,.06,0,.07,0,.06,0,.07,0,.06,0,.07,0,.06,0,.06,0,.07,0,.06,0,.07,0,.06,0,.06,0,.07.05.06,0,.07,0,.06,0,.06,0,.07,0,.06,0,.06,0,.07,0,.06,0,.06,0,.07.08.12,0,.07,0,.06,0,.06,0,.06,0,.07,0,.06,0,.06,0,.06,0,.07,0,.06,0,.06,0,.06.05.06,0,.07,0,.06,0,.06,0,.06,0,.06,0,.06,0,.07.05.06,0,.06,0,.06.05.06,0,.06,0,.06.05.06,0,.06,0,.07,0,.06,0,.06,0,.06,0,.06,0,.06,0,.06,0,.06,0,.06,0,.06,0,.06,0,.06.05.06,0,.06,0,.06.08.12.05.06,0,.06,0,.06,0,0,0,.06,0,.06,0,.06,0,.06.05.06,0,.06.05.06,0,.06.05.05,0,.06,0,.06.05.06.05.06,0,.06,0,0,0,.06,0,.06,0,.06,0,0,0,.06,0,.06.05.06,0,.06.05.05,0,.06,0,.06,0,0,0,.06.05.06,0,0,.05.06,0,.06,0,.06,0,0,0,.06,0,0,.05.06,0,.06.05,0,0,.06,0,.06,0,.05.05.06,0,.05.05.06,0,0,.05.06,0,.06.05.05,0,.06.05.05,0,.06.05.05,0,.06,0,0,0,.06.05,0,0,.06.09.11.05,0,.05.05,0,.06,0,0,.05.06.05,0,0,.05.05.06,0,.05,0,.06,0,0,.05.05.05.06,0,.05.05,0,0,.06.05,0,0,0,.05.06,0,0,.05.05.05,0,0,.06,0,0,.05,0,.05.05,0,.06.05.05,0,0,.05,0,.05.06,0,0,.1.1.05.05.05,0,0,.06.05.05,0,0,.05.05,0,0,.05,0,.05.05,0,0,.05.06,0,0,.05,0,.05.05,0,0,.05.05,0,0,.11.1,0,0,.05.05.05,0,0,0,.05.05,0,0,.05.05.05,0,0,0,.05.05,0,0,.05.05.05,0,0,0,.05.05.06,0,0,.05.05,0,.05,0,0,.05.05,0,0,0,.05,0,.06,0,.05.05,0,0,.05.05,0,0,.05,0,.05.05.11.09.1.1.1.09.11.1.05,0,0,0,.05.05.06,0,0,0,.05,0,0,0,.06.05.05,0,.05,0,0,.05.05,0,.06,0,0,.05.05,0,.06.05,0,0,.05,0,.05.05.06,0,0,0,.05,0,0,0,.06,0,.05.05,0,0,.06.05.05,0,.05,0,.06,0,0,0,.05,0,0,0,.06,0,.05,0,0,.05.06,0,.05,0,.06.05,0,0,.05.05.06,0,.05,0,0,.05.06,0,.05,0,0,.05.06,0,.05,0,.11.09.05,0,.06,0,0,0,.06,0,.05,0,.05,0,.06,0,0,.05.06,0,.05,0,0,0,.06,0,.05,0,.06,0,0,0,.06,0,.05,0,.06,0,0,0,.05,0,.06,0,0,0,.06,0,.05,0,.06,0,0,0,.06,0,.05,0,.06,0,.05,0,.06,0,.05,0,.06,0,.05,0,.06,0,.05,0,.06,0,.05,0,.06,0,0,0,.06,0,.05,0,.06,0,0,0,.06,0,.05,0,.06,0,.06,0,0,0,.06,0,.05,0,.06,0,0,0,.06,0,.05,0,.06,0,.06,0,0,0,.06,0,.05,0,.06,0,.06,0,.05,0,.06,0,.05,0,.06,0,0,0,.06,0,.06,0,.05,0,.06,0,.06,0,.11.07.05,0,.06,0,.06,0,.05,0,.06,0,.06,0,0,0,.06,0,.05,0,.06,0,.06,0,0,0,.06,0,.06,0,.05,0,.06,0,.06,0,0,0,.06,0,.06,0,.05,0,.06,0,.06,0,0,0,.06,0,.12.07,0,0,.06,0,.06,0,.05,0,.06,0,.06,0,0,0,.06,0,.06,0,.05,0,.06,0,.06,0,.06,0,0,0,.06,0,.06,0,.05,0,.06,0,.06,0,.06,0,.05,0,.06,0,.06,0,.06,0,0,0,.06,0,.06,0,.06,0,.05,0,.06,0,.06,0,.11.06.06,0,.06,0,.06,0,.06,0,0,0,.06,0,.06,0,.06,0,.05,0,.06,0,.06,0,.06,0,.06,0,.05,0,.06,0,.06,0,.06,0,0,0,.06,0,.06,0,.06,0,.06,0,.05,0,.06,0,.06,0,.06,0,.06,0,.05,0,.06,0,.06,0,.06,0,.06,0,.06,0,.05,0,.06,0,.06,0,.06,0,.06,0,.11.06.06,0,.06,0,.06,0,.06,0,.06,0,0,0,.06,0,.06,0,.06,0,.06,0,.06,0,.06,0,.05,0,.06,0,.06,0,.06,0,.06,0,.06,0,.05,0,.06,0,.06,0,.06,0,.06,0,.06,0,.06,0,.06,0,.05,0,.06,0,.06,0,.06,0,.06,0,.06,0,.06,0,.06,0,.05,0,.06,0,.06,0,.06,0,.06,0,.06,0,.06,0,.06,0,.05,0,.06,0,.06,0,.06,0,.06,0,.06,0,.06,0,.06,0,.06,0,.06,0,.05,0,.06,0,.06,0,.06,0,.06,0,.06,0,.06,0,.06,0,.06,0,.12.05.05,0,.06,0,.06,0,.06,0,.06,0,.12,0,.06,0,.06,0,.06,0,.06,0,0,0,.06,0,.06,0,.12,0,.12,0,.06,0,.06,0,.06,0,.06,0,.06,0,.06,0H238l.06,0,.06,0,.06,0,.06,0,.06,0h.06l.06,0,.06,0,.06,0,.06,0h.06l.06,0,.06,0,.05,0h.06l.06,0,.12,0,.06,0,.06,0h.06l.06,0,.06,0h.06l.06,0,.06,0h.06l.06,0,.06,0h.06l.05,0h.06l.06,0H240l.06,0h.06l.06,0h.06l.06,0h.06l.06,0h.06l.06,0h.06l.06,0h.12l.06,0h0l.06,0h.12l.06,0h.12l.06,0h.12l.06,0h.18l.06,0h.18l0,0h.24l.06,0h.48l.06,0h12.3l.06,0h.28l.06,0h.22l.06,0h.17l.05,0h.12l.05,0h.11l.06,0h.11l.06,0h.05l.06,0h.05l.06,0h.11l.06,0h.05l.06,0h.05l.06,0h.06l.05,0,.06,0h.05l.06,0h.05l.06,0h.05l.06,0,.05,0h.06l.06,0,.05,0h.06l.05,0,.06,0h.05l.06,0,.05,0h.06l0,0,.06,0,.05,0h.06l.05,0,.06,0,.05,0,0,0h.06l.05,0,.06,0,.05,0,.06,0,.05,0,.06,0,0,0,.06,0h.05l.06,0,.05,0,.05,0,.06,0,.05,0,.06,0,.05,0,.06,0,.05,0,.05,0,.06,0,.05,0,.06,0,0,0,.05,0,.06,0,.05,0,.06,0,.05,0,0,0,.06,0,.05,0,.06,0,.05,0,.05,0,.06,0,.05,0,0,0,.06,0,.05,0,.05,0,.06,0,.05,0,.06,0,0,0,.05,0,.06,0,.05,0,.05,0,.06,0,.05,0,0,0,.05,0,.06,0,.05,0,.05,0,.06,0,0,0,.05,0,.05,0,.06,0,.05,0,.05,0,.06,0,0,0,.05,0,.05,0,.06,0,.05,0,.05,0,0,0,.06,0,.05,0,.05,0,.05,0,.06,0,0,0,.05,0,.05,0,.05,0,.06,0,.05,0,0,0,.05,0,.05,0,.06,0,.05,0,.05,0,0,0,.05,0,.05,0,.06,0,.05,0,.05,0,0,0,.05,0,.05,0,.06,0,.05,0,.05,0,0,0,.05,0,.05,0,.05,0,.05,0,0,0,.05,0,.05,0,.05,0,.05,0,0,0,.05,0,.05,0,.05,0,.05,0,0,0,.05,0,.05,0,.05,0,.05,0,0,0,.05,0,.05,0,.05,0,.05,0,0,0,.05,0,.05,0,0,0,0,0,.05,0,.05,0,.05,0,.05,0,0,0,0,0,.05,0,.05,0,0,0,.05,0,0,0,.05,0,0,0,.05,0,0,0,.05,0,0,0,.05,0,0,0,.05,0,.05,0,0,0,0,0,.05,0,.05,0,0,0,.05,0,.05,0,0,0,.05,0,.05,0,0,0,0,0,0,0,.05,0,.05,0,0,0,.05,0,0,0,.05,0,0,0,.05,0,0,0,0,0,.05,0,0,0,.05,0,0,0,.05,0,0,0,.05,0,0,0,0,0,.05,0,0,0,.05,0,0,0,.05,0,0,0,0,0,.05,0,0,0,.05,0,0,0,0,0,.05,0,0,0,0,0,.05,0,0,0,0,0,0,0,0,0,0,0,0,0,0,0,0,0,0,0,.05,0,0,0,0,0,0,0,.05,0,0,0,0,0,0,0,0,0,.05,0,0,0,0,0,0,0,0,0,0,0,.05,0,0,0,0,0,0,0,0,0,0,0,0,0,0,0,0,0,0,0,.05,0,0,0,0,0,0,0,0,0,0,0,0,0,0,0,0,0,0,0,0,0,0,0,0,0,0,0,0,0,0,0,0,0,0,0,0,0,0-.05,0,0,0,0,0,0,0,0,0,0,0,0,0,0,0,0,0,0,0,0,0,0,0,0,0,0,0,0,0,0,0,0,0,0,0,0,0,0,0,0,0,0,0,0,0,0,0,0,0,0,0,0,0,0,0,0,0-.05,0,0,0,0,0,0,0,0,0,0,0-.05,0,0,0-.05,0,0,0,0,0,0,0,0,0,0,0-.05,0,0,0,0,0,0,0,0,0-.05,0,0,0,0,0,0,0,0,0,0,0,0,0,0,0-.05,0,0,0,0,0-.05,0,0,0,0,0-.05,0,0,0-.05,0,0,0,0,0-.05,0,0,0,0,0,0,0,0,0-.05,0,0,0,0,0-.05,0,0,0,0,0-.05,0,0,0-.05,0,0,0,0,0-.05,0,0,0,0,0,0,0,0,0-.05,0,0,0-.05,0,0,0,0,0,0,0,0,0,0,0-.05,0,0,0-.05,0,0,0,0,0-.05,0,0,0-.05,0,0,0,0,0-.05,0,0,0-.05,0,0,0,0,0-.05,0,0,0-.05,0,0,0,0,0-.05,0,0,0-.05,0,0,0,0,0-.05,0-.06,0-.05,0,0,0-.05,0,0,0,0,0-.05,0,0,0-.06,0,0,0,0,0-.05,0,0,0-.05,0-.06,0,0,0-.05,0,0,0-.05,0-.06,0-.05,0,0,0,0,0-.05,0-.06,0-.05,0,0,0-.06,0,0,0,0,0-.05,0-.06,0-.05,0,0,0-.06,0-.05,0,0,0-.06,0,0,0-.05,0-.06,0,0,0-.05,0-.06,0-.05,0,0,0-.06,0,0,0-.06,0-.05,0,0,0-.06,0,0,0-.06,0,0,0-.06,0,0,0,0,0-.06,0,0,0-.06,0,0,0-.06,0,0,0-.06,0-.05,0-.06,0-.05,0-.06,0-.05,0-.06,0,0,0-.06,0,0,0-.06,0,0,0-.06,0-.06,0-.05,0-.06,0,0,0-.06,0-.06,0-.05,0-.06,0-.05,0-.06,0-.06,0,0,0-.06,0,0,0-.06,0-.06,0,0,0-.06,0-.06,0-.05,0-.06,0-.06,0,0,0-.06,0-.06,0,0,0-.06,0-.06,0-.06,0,0,0-.06,0-.06,0-.05,0-.06,0-.06,0-.06,0,0,0-.06,0-.06,0-.06v-.06l0-.05,0-.06,0-.06,0-.06,0-.06,0,0,0-.06,0-.06,0-.06,0-.06,0-.06v-.05l0-.06,0-.06,0-.06,0-.06,0-.06v-.05l0-.06,0-.06,0-.06,0-.06V530l0-.06,0-.06,0-.06v0l0-.06,0-.06,0-.06v-.06l0-.06,0-.06v-.06l0-.06,0-.06v-.06l0-.06,0-.06V529l0-.06v-.06l0-.06,0-.06v-.06l0-.06v-.06l0-.06,0-.06v-.06l0-.06v-.06l0-.06v-.06l0-.06V528l0-.06v-.06l0-.06v-.12l0-.06v-.07l0-.06v-.06l0-.06v-.12l0-.06v-.06l0-.06V527l0-.06v-.12l0-.06v-.19l0-.06v-.18l0-.07v-.18l0-.06v-.25l0-.06v-.44l0-.06v-8"/><path class="cls-3" d="M220.83,472.1c-14.57,8.08-17.54,30.57-6.64,50.24s31.56,29.07,46.13,21,17.54-30.57,6.64-50.24-31.56-29.07-46.13-21Z"/><path class="cls-4" d="M130.48,396.85a2.65,2.65,0,0,1,1.34,1l27.81,35c1.57,2,.29,3.29-.77,4.17A207.83,207.83,0,0,0,137,457.57c-.72.8-1.57,1.5-2.69,1.19h0a3.59,3.59,0,0,1-1.4-.85L100,428.37a3,3,0,0,1-.29-4.57,283.94,283.94,0,0,1,27.53-25.86c.77-.63,2-1.44,3.18-1.1Zm43.39-29.94a2.68,2.68,0,0,1,1.51,1.42l21.3,39.33c1.2,2.22,0,3.27-1.23,3.95a211.46,211.46,0,0,0-25.3,16.61,2.66,2.66,0,0,1-2.42.56h0a4,4,0,0,1-2-1.47l-27-34.41c-1.55-2-.51-3.57.7-4.48a288.72,288.72,0,0,1,31.88-20.91,3.38,3.38,0,0,1,2.51-.6Zm48.41-22.11a2.44,2.44,0,0,1,1.54,1.79l14.06,42.46c.79,2.4-.62,3.21-1.91,3.68a210,210,0,0,0-27.83,11.9,2.75,2.75,0,0,1-2.06.28h0A3.63,3.63,0,0,1,204,403l-20.5-38.62c-1.18-2.23.12-3.6,1.47-4.28a288.39,288.39,0,0,1,35.07-15,3.91,3.91,0,0,1,2.26-.27Zm51.14-13.08a2.3,2.3,0,0,1,1.55,2.15l6.46,44.27c.36,2.49-1.16,3.05-2.52,3.28a211.08,211.08,0,0,0-29.47,6.89,2.92,2.92,0,0,1-1.68.07h0a3.33,3.33,0,0,1-2.11-2.44l-13.49-41.6c-.77-2.4.75-3.53,2.2-4a286,286,0,0,1,37.13-8.66,4.49,4.49,0,0,1,1.93,0ZM206.86,282.8c1.06.31,1.44,1.07,1.44,2.81l0,45.46c0,3.31-.79,4.31-2,4.76a325.71,325.71,0,0,0-39.92,18.84A1.87,1.87,0,0,1,165,355h0c-1-.3-1.24-2.15-1.24-4l-.08-65.4c0-2.52.45-2.93,3-2.93l38.37-.06a6.89,6.89,0,0,1,1.87.19ZM261,278.36c1,.29,1.24,1,1.24,2.78l0,34.85c0,3.31-.87,4.05-2.19,4.25-8.14,1.23-27.22,6.26-39.12,10.3a2.68,2.68,0,0,1-1.49.13h0c-.68-.19-1.18-.86-1.18-2.37l-.05-46.86c0-2.52.51-3.19,3-3.19l37.93-.05a6.54,6.54,0,0,1,1.78.17Zm54.76-11.45c.82.24,1,.89.94,2.56l-.31,41.22c0,3.3-1.28,3.75-2.61,3.75a323.54,323.54,0,0,0-39.09,3.29,2.87,2.87,0,0,1-1.24,0h0c-.72-.2-1.22-.89-1.22-2.56l-.05-45.42c0-2.52.38-2.92,2.9-2.92l38.84-.05a7.31,7.31,0,0,1,1.84.14Zm156.36,95.8a341.31,341.31,0,0,1-37-9.47c-1.88-.61-2.68-1.26-2.53-3.77L435,310.6c.14-2.51.79-3.27,3.3-3.05l37.83,3.27c2.51.22,3.33,1,3.12,3.53l-4,45.7C475,363.34,474.51,363.1,472.11,362.71Zm-51.94-15.83-38-19.12c-1.76-.89-2.06-1.13-2-3.65l1.09-43.68c.06-2.52.46-3.18,3-3.1l40.06,1.35c2.51.09,2.61.18,2.46,2.69l-3.79,63c-.19,3.3-.75,3.28-2.8,2.49ZM535.7,316l-43.15-3.51c-2.51-.21-3.13.28-3.35,2.79l-4.1,46.23c-.23,2.5,0,3.35,3.1,3.87,15.29,1.95,30.73,2.53,38-4.49,8.49-7.38,12.76-41.69,12.76-41.69C539.7,316.77,538.21,316.19,535.7,316ZM205.2,217.55l-38.76,0c-2.52,0-2.89.38-2.88,2.9l.05,49.41c0,2.52.7,2.82,3.22,2.82l38.62-.05c2.52,0,2.83-.62,2.83-3.14l-.05-49.17C208.22,217.85,207.72,217.54,205.2,217.55Zm165.43,46.82c.83.25,1.07.86,1,2.46l-1.31,52.44c-.08,3.18-1.39,3.28-2.63,2.93h0l-.12,0a201.42,201.42,0,0,0-38.64-7.33,4,4,0,0,1-.78-.13h0c-1-.29-1.83-1-1.81-3.05l.34-45.28c0-2.51.79-2.83,3.31-2.79l38.61.63a8.77,8.77,0,0,1,2,.17ZM258.7,227.09l-37.3,0c-2.52,0-3.23.67-3.23,3.19l0,35.12c0,2.52.71,2.86,3.23,2.85l37.57-.05c2.51,0,3.2-.85,3.2-3.37l0-35c0-2.52-.95-2.81-3.47-2.81Zm54.8-11.43-38.36,0c-2.52,0-3.05.63-3.05,3.15l0,34.82c0,2.52.53,3.13,3.05,3.13l38.43,0c2.52,0,3.19-.7,3.2-3.22l.27-35.23c0-2.52-1.06-2.72-3.58-2.72Zm167.06,44.27-39.22-3.39c-2.51-.22-3.2.28-3.35,2.79L435.9,293.8c-.15,2.52.13,3.56,2.64,3.77l38.83,3.37c2.51.21,3.05-.56,3.27-3.07l3-34.67C483.86,260.7,483.07,260.15,480.56,259.93Zm60.58,5.25-43.6-3.77c-2.51-.22-3.83.71-4.05,3.21l-2.95,34.08c-.22,2.5,1,3.46,3.51,3.68l43,3.72c2.51.22,3.79.56,4-2L544.38,269c.23-2.51-.73-3.59-3.24-3.81ZM206.86,127.12a1.73,1.73,0,0,1,1.26,1.87l.08,74.82c0,2.52-.91,3.75-3.43,3.76l-38,.05a6.14,6.14,0,0,1-1.62-.17h0c-1.19-.34-1.55-1.23-1.55-3.07,0,0-.37-22.09,0-33.13.34-9.23,2.19-19.42,14.41-29.61,7.59-6.33,17.3-10.46,26-14.2a4.67,4.67,0,0,1,2.83-.32Zm163.44,86L330,212.44c-2.51,0-2.91.58-2.93,3.09l-.27,35.14c0,2.52.41,2.92,2.93,3l39.59.64c2.52,0,2.7-.39,2.76-2.9l.88-35.29c.07-2.52-.11-2.94-2.63-3Zm56.28,14.49-41.09-1.36c-2.52-.08-2.88.51-2.95,3l-.87,34.91c-.07,2.52,0,3.14,2.51,3.23l40.08,1.35c2.52.08,3.29-.57,3.44-3.08l2.11-35.27C430,227.88,429.1,227.68,426.58,227.59ZM258.68,176l-37.31,0c-2.52,0-3.26.68-3.26,3.2l0,34.92c0,2.52.8,3.06,3.32,3.06l37.69,0c2.51,0,3-1.15,3-3.67l0-34.67C262.11,176.29,261.2,176,258.68,176Zm55.63-11-38.89-.29c-2.52,0-3.39.65-3.39,3.17l0,34.67c0,2.52.88,3.26,3.39,3.26l39-.05c2.52,0,2.77-.55,2.79-3.07l.26-34.82c0-2.52-.63-2.85-3.15-2.87ZM484.8,209l-40.19-3.48c-2.51-.21-3.37.36-3.53,2.88L439,242.73c-.16,2.51.35,3.66,2.86,3.88l39.82,3.45c2.51.21,3.13-.44,3.35-2.94l3-34.68C488.25,209.93,487.31,209.2,484.8,209Zm58.2,5-40.73-3.53c-2.5-.21-4.15.7-4.37,3.2L495,247.75c-.22,2.51.3,3.48,2.81,3.7l44,3.81c2.5.21,3.49-.64,3.53-3.16l.64-34.54c0-2.51-.4-3.32-2.91-3.54ZM371.17,162l-40.43-.66c-2.52,0-3.3.73-3.32,3.25l-.26,35c0,2.52.66,2.89,3.18,2.93l40,.65c2.52,0,3-.3,3-2.82l.89-35.48C374.28,162.34,373.69,162,371.17,162Zm58.56,14.57-42.56-1.43c-2.52-.08-3.3.94-3.36,3.46l-.87,34.63c-.06,2.52.93,3,3.45,3.1l41.32,1.37c2.52.08,2.89-.4,3-2.92l2.11-35.13c.15-2.51-.61-3-3.13-3.08ZM258.47,113s-24.6,4.12-36.76,8.32a4.92,4.92,0,0,0-3.66,4.65l0,36.38c0,2.52.75,3.75,3.27,3.75l37.69-.05c2.52,0,3-.86,3-3.38l0-46.49c0-2.52-1.11-3.73-3.57-3.18Zm56.74-5.22s-20.77.31-40.86,2.93c-2,.26-2.38,1.27-2.38,3.79l0,37.05c0,2.52.74,3.17,3.26,3.19l39.1.29c2.51,0,3.2-1,3.22-3.48l.3-40.59c0-2.13-.27-3.17-2.68-3.18ZM492,131.06s-22.69-6.3-43-10c-1.94-.35-2.61.39-2.77,2.91l-4.16,68.49c-.15,2.52.19,2.89,2.7,3.11l41.6,3.6c2.51.22,2.91-.78,3.12-3.29l5.29-61c.22-2.51.1-3-2.78-3.79ZM372.54,110s-21.2-2.18-41.86-2.32c-2,0-2.83,1-2.85,3.54l-.28,37.24c0,2.52.87,2.89,3.38,2.93l40.23.65c2.51,0,3.4-.78,3.46-3.29l.88-35.29C375.57,111,375.19,110.24,372.54,110ZM507,136.09l.36.11c7.52,2.73,17.62,6.37,23.58,9.92,11,6.52,13.42,14.56,13.61,21.38l1,33.6c.07,2.52-.58,3.09-3.09,2.87l-40.56-3.48a6.72,6.72,0,0,1-1.08-.18h0c-1.48-.42-1.61-1.46-1.43-3.54l5.11-58.58c.2-2.28,1.28-2.46,2.51-2.1Zm-73.41-17.81s-24.87-4.44-45.24-6.6c-2-.21-2.9.72-3,3.24l-1.17,47c-.07,2.52.55,3.16,3.07,3.24l43.1,1.45c2.52.09,3.28-.78,3.44-3.29l2.49-41.58c.15-2.51-.07-3.27-2.72-3.49Z"/></g><line class="cls-5" x1="287.3" y1="236.13" x2="301.47" y2="236.13"/><line class="cls-5" x1="294.39" y1="243.22" x2="294.39" y2="229.04"/></g><text class="cls-6" transform="translate(290.76 560.09)">Keyboardio</text></g><line class="cls-7" x1="274.28" y1="538.97" x2="289.07" y2="552.86"/><rect id="border" class="cls-8" x="0.25" y="0.25" width="751.18" height="565.7"/></g></g></g></svg>