<svg xmlns="http://www.w3.org/2000/svg" viewBox="0 0 751.68 566.2"><defs><style>.cls-1,.cls-3,.cls-5{fill:none;stroke:#000;}.cls-1,.cls-3{stroke-linecap:round;stroke-linejoin:round;}.cls-1{stroke-width:0.71px;}.cls-2{font-size:16px;font-family:Exo2-Regular, "Exo 2";}.cls-4{font-size:10px;font-family:FiraSansCondensed-Medium, Fira Sans Condensed;font-weight:500;}.cls-5{stroke-miterlimit:10;stroke-width:0.5px;}</style></defs><g id="Layer_2" data-name="Layer 2"><g id="main"><g id="kimiko"><path class="cls-1" d="M537,136.06a5.68,5.68,0,0,0-2.3-4.09c-1.82-1.21-5.39-2.28-7.37-3.26-10.25-4.33-21.05-8.66-31.49-12.5-31-11.37-63.48-20.23-96.45-23.36-14.06-1.4-28.65-1.17-42.74-1.16-16.55.22-33.2-.56-49.72.58a129.52,129.52,0,0,0-31.88,6.46,150.61,150.61,0,0,0-16.12,7,77.92,77.92,0,0,1-12.76,4.81,28,28,0,0,1-6.74,1H217.61a2.84,2.84,0,0,0-2.83,2.84V271a2.85,2.85,0,0,1-2.85,2.84H139.26a2.83,2.83,0,0,0-2.83,2.84v72c.09.36,0,1.31,0,1.69a25.69,25.69,0,0,0,3,10.41c.53,1.42,34.52,59.52,35.18,60.88a5.89,5.89,0,0,0,3.13,2.16,6,6,0,0,0,3.78-.31c1.17-.58,85.47-49.32,86.6-49.92a25.2,25.2,0,0,1,2.75-1.25,23.81,23.81,0,0,1,6.61-1.42c8.21-.29,144.38.26,150.92-.23,30.8-1.29,61.43-7.51,90.87-16.5,3.46-1.11,7.44-2.32,10.87-3.53,1.3-.66,3.44-.9,4.59-1.91a6,6,0,0,0,2.11-3.26C537.52,344,536.75,137.77,537,136.06Z"/><path class="cls-1" d="M486.18,186.62c.06,3.78-6,3.78-6,0S486.24,182.83,486.18,186.62Z"/><path class="cls-1" d="M486.18,294.29c.06,3.79-6,3.79-6,0S486.24,290.51,486.18,294.29Z"/><path class="cls-1" d="M268,271.61c.06,3.78-6,3.78-6,0S268,267.82,268,271.61Z"/><path class="cls-1" d="M268,163.87c.06,3.79-6,3.79-6,0S268,160.09,268,163.87Z"/><path class="cls-1" d="M203.39,335.53c.06,3.78-6,3.78-6,0S203.45,331.74,203.39,335.53Z"/><polyline class="cls-1" points="221.05 118.59 221.05 158.16 260.62 158.16 260.62 118.59 221.05 118.59"/><polyline class="cls-1" points="274.91 108.67 274.91 148.24 314.48 148.24 314.48 108.67 274.91 108.67"/><polyline class="cls-1" points="382.62 108.67 382.62 148.24 422.19 148.24 422.19 108.67 382.62 108.67"/><polyline class="cls-1" points="436.49 139.85 436.49 179.42 476.06 179.42 476.06 139.85 436.49 139.85"/><polyline class="cls-1" points="490.34 139.85 490.34 179.42 529.91 179.42 529.91 139.85 490.34 139.85"/><polyline class="cls-1" points="221.05 172.44 221.05 212.02 260.62 212.02 260.62 172.44 221.05 172.44"/><polyline class="cls-1" points="274.91 162.53 274.91 202.1 314.48 202.1 314.48 162.53 274.91 162.53"/><polyline class="cls-1" points="328.77 152.6 328.77 192.17 368.34 192.17 368.34 152.6 328.77 152.6"/><polyline class="cls-1" points="382.62 162.53 382.62 202.1 422.19 202.1 422.19 162.53 382.62 162.53"/><polyline class="cls-1" points="436.49 193.71 436.49 233.28 476.06 233.28 476.06 193.71 436.49 193.71"/><polyline class="cls-1" points="490.34 193.71 490.34 233.28 529.91 233.28 529.91 193.71 490.34 193.71"/><polyline class="cls-1" points="221.05 226.31 221.05 265.88 260.62 265.88 260.62 226.31 221.05 226.31"/><polyline class="cls-1" points="274.91 216.39 274.91 255.95 314.48 255.95 314.48 216.39 274.91 216.39"/><polyline class="cls-1" points="328.77 206.47 328.77 246.03 368.34 246.03 368.34 206.47 328.77 206.47"/><polyline class="cls-1" points="382.62 216.39 382.62 255.95 422.19 255.95 422.19 216.39 382.62 216.39"/><polyline class="cls-1" points="436.49 247.56 436.49 287.13 476.06 287.13 476.06 247.56 436.49 247.56"/><polyline class="cls-1" points="490.34 247.56 490.34 287.13 529.91 287.13 529.91 247.56 490.34 247.56"/><polyline class="cls-1" points="221.05 280.16 221.05 319.74 260.62 319.74 260.62 280.16 221.05 280.16"/><polyline class="cls-1" points="274.91 270.24 274.91 309.81 314.48 309.81 314.48 270.24 274.91 270.24"/><polyline class="cls-1" points="328.77 260.32 328.77 299.89 368.34 299.89 368.34 260.32 328.77 260.32"/><polyline class="cls-1" points="382.62 270.24 382.62 309.81 422.19 309.81 422.19 270.24 382.62 270.24"/><polyline class="cls-1" points="436.49 301.43 436.49 340.99 476.06 340.99 476.06 301.43 436.49 301.43"/><polyline class="cls-1" points="490.34 301.43 490.34 340.99 529.91 340.99 529.91 301.43 490.34 301.43"/><polyline class="cls-1" points="240.99 335.29 206.72 355.07 226.5 389.34 260.78 369.56 240.99 335.29"/><polyline class="cls-1" points="274.91 324.1 274.91 363.67 314.48 363.67 314.48 324.1 274.91 324.1"/><polyline class="cls-1" points="328.77 314.18 328.77 353.75 368.34 353.75 368.34 314.18 328.77 314.18"/><path class="cls-1" d="M382.62,324.1v39.57h39.57V324.1H382.62"/><polyline class="cls-1" points="328.77 98.75 328.77 138.32 368.34 138.32 368.34 98.75 328.77 98.75"/><path class="cls-1" d="M155.94,280.14v39.57h39.57V280.14H155.94"/><polyline class="cls-1" points="187.42 350.3 153.15 370.09 172.94 404.36 207.21 384.58 187.42 350.3"/><text class="cls-2" transform="translate(398 350.05)">R</text><text class="cls-2" transform="translate(170.92 305.27)">R</text><line class="cls-3" x1="287.25" y1="236.13" x2="301.43" y2="236.13"/><line class="cls-3" x1="294.34" y1="243.22" x2="294.34" y2="229.04"/><text class="cls-4" transform="translate(3.29 135.33)">Kimiko</text><line class="cls-5" x1="214.78" y1="135.33" x2="35.36" y2="133.01"/><rect id="border" class="cls-5" x="0.25" y="0.25" width="751.18" height="565.7"/></g></g></g></svg>