<svg xmlns="http://www.w3.org/2000/svg" viewBox="0 0 751.68 566.2"><defs><style>.cls-1,.cls-3{fill:none;stroke:#000;}.cls-1{stroke-linecap:round;stroke-linejoin:round;}.cls-2{font-size:10px;font-family:FiraSansCondensed-Medium, Fira Sans Condensed;font-weight:500;}.cls-3{stroke-miterlimit:10;stroke-width:0.5px;}.cls-4{font-size:16px;font-family:Exo2-Regular, "Exo 2";}</style></defs><g id="Layer_2" data-name="Layer 2"><g id="main"><g id="kyria"><g id="kyria-2" data-name="kyria"><g id="kyria-3" data-name="kyria"><g id="CIRCLE"><path class="cls-1" d="M479.94,295.73a3.4,3.4,0,1,1,3.4,3.4,3.41,3.41,0,0,1-3.4-3.4Z"/></g><g id="CIRCLE-2" data-name="CIRCLE"><path class="cls-1" d="M433.09,181.42a3.41,3.41,0,1,1,3.41,3.4,3.41,3.41,0,0,1-3.41-3.4Z"/></g><g id="CIRCLE-3" data-name="CIRCLE"><path class="cls-1" d="M290.3,318.1a3.4,3.4,0,1,1,3.4,3.41,3.4,3.4,0,0,1-3.4-3.41Z"/></g><g id="CIRCLE-4" data-name="CIRCLE"><path class="cls-1" d="M165.77,369.68a3.41,3.41,0,1,1,3.4,3.41,3.41,3.41,0,0,1-3.4-3.41Z"/></g><g id="CIRCLE-5" data-name="CIRCLE"><path class="cls-1" d="M263.94,152.3a3.4,3.4,0,1,1,3.4,3.4,3.41,3.41,0,0,1-3.4-3.4Z"/></g><g id="CIRCLE-6" data-name="CIRCLE"><path class="cls-1" d="M415.62,322a3.41,3.41,0,1,1,3.4,3.4,3.4,3.4,0,0,1-3.4-3.4Z"/></g><g id="CIRCLE-7" data-name="CIRCLE"><path class="cls-1" d="M479.94,187.73a3.4,3.4,0,1,1,3.4,3.4,3.4,3.4,0,0,1-3.4-3.4Z"/></g><g id="LWPOLYLINE"><path class="cls-1" d="M537.34,352.56h-123a2.83,2.83,0,0,0-2.83,2.83v15.79a2.84,2.84,0,0,1-2.83,2.84h-81a202.28,202.28,0,0,0-143,59.23l-19.09,19.1a2.85,2.85,0,0,1-4,0L85.21,376a2.83,2.83,0,0,1,0-4l19.09-19.09a316,316,0,0,1,105.14-69.57,2.82,2.82,0,0,0,1.78-2.62V148.61a2.83,2.83,0,0,1,2.1-2.74,445.33,445.33,0,0,1,325.36,38.22,2.82,2.82,0,0,1,1.49,2.49V349.73A2.83,2.83,0,0,1,537.34,352.56Z"/></g><g id="LWPOLYLINE-2" data-name="LWPOLYLINE"><path class="cls-1" d="M496.16,234.57a2.84,2.84,0,0,1,2.82,2.48,2.82,2.82,0,0,0,2.81,2.48h17.09a2.84,2.84,0,0,0,2.82-2.48,2.83,2.83,0,0,1,2.81-2.48h2.83a2.84,2.84,0,0,0,2.84-2.83v-34a2.84,2.84,0,0,0-2.84-2.83h-2.83a2.84,2.84,0,0,1-2.81-2.48,2.84,2.84,0,0,0-2.82-2.48H501.79a2.82,2.82,0,0,0-2.81,2.48,2.85,2.85,0,0,1-2.82,2.48h-2.83a2.84,2.84,0,0,0-2.84,2.83v34a2.84,2.84,0,0,0,2.84,2.83Z"/></g><g id="LWPOLYLINE-3" data-name="LWPOLYLINE"><path class="cls-1" d="M496.21,342.57a2.83,2.83,0,0,1,2.81,2.48,2.83,2.83,0,0,0,2.81,2.48h17.05a2.84,2.84,0,0,0,2.82-2.48,2.83,2.83,0,0,1,2.81-2.48h2.83a2.84,2.84,0,0,0,2.84-2.84v-34a2.84,2.84,0,0,0-2.84-2.84h-2.88a2.84,2.84,0,0,1-2.81-2.48,2.84,2.84,0,0,0-2.81-2.48H501.79A2.83,2.83,0,0,0,499,300.4a2.84,2.84,0,0,1-2.82,2.48h-2.83a2.84,2.84,0,0,0-2.84,2.84v34a2.84,2.84,0,0,0,2.84,2.84Z"/></g><g id="LWPOLYLINE-4" data-name="LWPOLYLINE"><path class="cls-1" d="M393.05,366.51a2.85,2.85,0,0,1-2.82,2.48H373.14a2.83,2.83,0,0,1-2.81-2.48,2.84,2.84,0,0,0-2.82-2.48h-2.83a2.84,2.84,0,0,1-2.84-2.84v-34a2.84,2.84,0,0,1,2.84-2.84h2.83a2.84,2.84,0,0,0,2.82-2.48,2.82,2.82,0,0,1,2.81-2.48h17.09a2.84,2.84,0,0,1,2.82,2.48,2.83,2.83,0,0,0,2.81,2.48h2.83a2.84,2.84,0,0,1,2.84,2.84v34a2.84,2.84,0,0,1-2.84,2.84h-2.83A2.83,2.83,0,0,0,393.05,366.51Z"/></g><g id="LWPOLYLINE-5" data-name="LWPOLYLINE"><path class="cls-1" d="M145.79,366.31a2.85,2.85,0,0,1,0-4l3.51-3.51a2.83,2.83,0,0,0,0-4L134.92,340.4a2.83,2.83,0,0,0-4,0L99.34,372a2.85,2.85,0,0,0,0,4l1.18,1.18a2.83,2.83,0,0,1,.23,3.74,2.84,2.84,0,0,0,.24,3.74l4,4a2.84,2.84,0,0,0,3.74.24,2.83,2.83,0,0,1,3.74.23L148.37,425a2.84,2.84,0,0,1,.24,3.74,2.84,2.84,0,0,0,.23,3.75l4,4a2.84,2.84,0,0,0,3.75.23,2.83,2.83,0,0,1,3.74.24l1.21,1.2a2.83,2.83,0,0,0,4,0l31.56-31.56a2.83,2.83,0,0,0,0-4l-14.38-14.38a2.83,2.83,0,0,0-4,0l-3.5,3.5a2.83,2.83,0,0,1-4,0Z"/></g><g id="LWPOLYLINE-6" data-name="LWPOLYLINE"><rect class="cls-1" x="328.5" y="251.86" width="39.68" height="39.68" rx="2.83"/></g><g id="LWPOLYLINE-7" data-name="LWPOLYLINE"><rect class="cls-1" x="328.5" y="143.86" width="39.68" height="39.68" rx="2.83"/></g><g id="LWPOLYLINE-8" data-name="LWPOLYLINE"><rect class="cls-1" x="220.5" y="277.37" width="39.68" height="39.68" rx="2.83"/></g><g id="LWPOLYLINE-9" data-name="LWPOLYLINE"><rect class="cls-1" x="307.85" y="324.34" width="39.68" height="39.68" rx="2.83"/></g><g id="LWPOLYLINE-10" data-name="LWPOLYLINE"><rect class="cls-1" x="382.5" y="160.87" width="39.68" height="39.68" rx="2.83"/></g><g id="LWPOLYLINE-11" data-name="LWPOLYLINE"><rect class="cls-1" x="436.5" y="248.88" width="39.68" height="39.68" rx="2.83"/></g><g id="LWPOLYLINE-12" data-name="LWPOLYLINE"><rect class="cls-1" x="436.5" y="302.88" width="39.68" height="39.68" rx="2.83"/></g><g id="LWPOLYLINE-13" data-name="LWPOLYLINE"><rect class="cls-1" x="436.5" y="194.89" width="39.68" height="39.68" rx="2.83"/></g><g id="LWPOLYLINE-14" data-name="LWPOLYLINE"><rect class="cls-1" x="274.5" y="162.29" width="39.68" height="39.68" rx="2.83"/></g><g id="LWPOLYLINE-15" data-name="LWPOLYLINE"><rect class="cls-1" x="274.5" y="216.29" width="39.68" height="39.68" rx="2.83"/></g><g id="LWPOLYLINE-16" data-name="LWPOLYLINE"><rect class="cls-1" x="328.5" y="197.86" width="39.68" height="39.68" rx="2.83"/></g><g id="LWPOLYLINE-17" data-name="LWPOLYLINE"><rect class="cls-1" x="220.5" y="223.37" width="39.68" height="39.68" rx="2.83"/></g><g id="LWPOLYLINE-18" data-name="LWPOLYLINE"><rect class="cls-1" x="247.78" y="332.25" width="39.68" height="39.68" rx="2.83" transform="translate(-82.01 81.26) rotate(-15)"/></g><g id="LWPOLYLINE-19" data-name="LWPOLYLINE"><rect class="cls-1" x="382.5" y="214.87" width="39.68" height="39.68" rx="2.83"/></g><g id="LWPOLYLINE-20" data-name="LWPOLYLINE"><rect class="cls-1" x="490.49" y="248.88" width="39.68" height="39.68" rx="2.83"/></g><g id="LWPOLYLINE-21" data-name="LWPOLYLINE"><rect class="cls-1" x="382.5" y="268.87" width="39.68" height="39.68" rx="2.83"/></g><g id="LWPOLYLINE-22" data-name="LWPOLYLINE"><rect class="cls-1" x="220.5" y="169.37" width="39.68" height="39.68" rx="2.83"/></g><g id="LWPOLYLINE-23" data-name="LWPOLYLINE"><rect class="cls-1" x="274.5" y="270.29" width="39.68" height="39.68" rx="2.83"/></g><g id="LWPOLYLINE-24" data-name="LWPOLYLINE"><path class="cls-1" d="M193.65,383.79a2.83,2.83,0,0,1-.74,3.68,2.83,2.83,0,0,0-.74,3.67l2.86,4.95a2.83,2.83,0,0,0,3.55,1.2,2.83,2.83,0,0,1,3.55,1.19l.84,1.45a2.83,2.83,0,0,0,3.87,1l38.66-22.32a2.83,2.83,0,0,0,1-3.87l-10.17-17.61a2.83,2.83,0,0,0-3.87-1l-4.3,2.48a2.83,2.83,0,0,1-3.87-1l-18-31.18a2.83,2.83,0,0,1,1-3.87l4.3-2.48a2.83,2.83,0,0,0,1-3.87l-10.17-17.61a2.83,2.83,0,0,0-3.87-1L160,319.83a2.83,2.83,0,0,0-1,3.87l.86,1.48a2.84,2.84,0,0,1-.75,3.68,2.85,2.85,0,0,0-.74,3.68l2.84,4.91a2.84,2.84,0,0,0,3.55,1.19,2.83,2.83,0,0,1,3.55,1.2Z"/></g><line class="cls-1" x1="287.25" y1="236.13" x2="301.43" y2="236.13"/><line class="cls-1" x1="294.34" y1="243.22" x2="294.34" y2="229.04"/></g><text class="cls-2" transform="translate(3.29 294.4)">Kyria</text><line class="cls-3" x1="143.81" y1="319.38" x2="27.38" y2="290.88"/></g><text class="cls-4" transform="translate(376.74 348.83)">R</text><text class="cls-4" transform="translate(505.39 327.42)">R</text><text class="cls-4" transform="translate(505.39 219.38)">R</text><rect id="border" class="cls-3" x="0.25" y="0.25" width="751.18" height="565.7"/></g></g></g></svg>