<svg xmlns="http://www.w3.org/2000/svg" viewBox="0 0 751.68 566.2"><defs><style>.cls-1,.cls-2,.cls-3,.cls-4,.cls-6{fill:none;stroke:#000;}.cls-1,.cls-6{stroke-miterlimit:10;}.cls-3,.cls-4{stroke-linecap:round;}.cls-4{stroke-linejoin:round;}.cls-5{font-size:10px;font-family:FiraSansCondensed-Medium, Fira Sans Condensed;font-weight:500;}.cls-6{stroke-width:0.5px;}</style></defs><g id="Layer_2" data-name="Layer 2"><g id="main"><g id="lily58"><g id="lily58-2" data-name="lily58"><g id="lily58-3" data-name="lily58"><g id="lily58-4" data-name="lily58"><path class="cls-1" d="M538,116.3c0-10-73.8-18-165-18"/><line class="cls-1" x1="538.02" y1="116.3" x2="538.02" y2="331.31"/><path class="cls-1" d="M538,331.31a4.25,4.25,0,0,1-4.25,4.26"/><path class="cls-1" d="M404.4,345.49a9.91,9.91,0,0,1,9.92-9.92"/><line class="cls-1" x1="414.32" y1="335.57" x2="533.77" y2="335.57"/><path class="cls-1" d="M404.4,373.05a4.25,4.25,0,0,1-4.26,4.25"/><line class="cls-1" x1="404.4" y1="345.49" x2="404.4" y2="373.11"/><line class="cls-1" x1="233.02" y1="377.3" x2="400.14" y2="377.3"/><polyline class="cls-1" points="154.02 333.99 158.79 342.1 163.56 350.21 168.32 358.32 173.09 366.43 177.86 374.54 182.62 382.65 187.39 390.77 192.16 398.88"/><polyline class="cls-1" points="195.02 399.3 199.77 396.55 204.52 393.8 209.27 391.05 214.02 388.3 218.77 385.55 223.52 382.8 228.27 380.05 233.02 377.3"/><polyline class="cls-1" points="192.16 398.88 192.43 399.21 192.85 399.48 193.17 399.63 193.47 399.72 193.8 399.73 194.15 399.69 194.51 399.58 195.02 399.3"/><polyline class="cls-1" points="134.03 247 134.91 262.72 137.02 279.3 139.9 293.94 143.19 306.53 146.59 316.95 149.74 325.08 152.33 330.8 154.02 333.99"/><line class="cls-1" x1="373.02" y1="98.3" x2="218.9" y2="98.3"/><rect id="S24" class="cls-2" x="436.66" y="121.87" width="39.69" height="39.69"/><rect id="S24-2" data-name="S24" class="cls-2" x="436.66" y="283.72" width="39.69" height="39.69"/><rect id="S24-3" data-name="S24" class="cls-2" x="436.62" y="229.86" width="39.69" height="39.69"/><rect id="S24-4" data-name="S24" class="cls-2" x="436.66" y="175.44" width="39.69" height="39.69"/><rect id="S24-5" data-name="S24" class="cls-2" x="382.52" y="270.4" width="39.69" height="39.69"/><rect id="S24-6" data-name="S24" class="cls-2" x="382.52" y="216.26" width="39.69" height="39.69"/><rect id="S24-7" data-name="S24" class="cls-2" x="382.51" y="162.12" width="39.69" height="39.69"/><rect id="S24-8" data-name="S24" class="cls-2" x="382.53" y="108.26" width="39.69" height="39.69"/><rect id="S24-9" data-name="S24" class="cls-2" x="328.46" y="104.32" width="39.69" height="39.69"/><rect id="S24-10" data-name="S24" class="cls-2" x="328.66" y="158.43" width="39.69" height="39.69"/><rect id="S24-11" data-name="S24" class="cls-2" x="328.66" y="212.57" width="39.69" height="39.69"/><rect id="S24-12" data-name="S24" class="cls-2" x="328.66" y="266.43" width="39.69" height="39.69"/><rect id="S24-13" data-name="S24" class="cls-2" x="301.45" y="324.12" width="39.69" height="39.69"/><rect id="S24-14" data-name="S24" class="cls-2" x="247.59" y="330.49" width="39.69" height="39.69"/><rect id="S24-15" data-name="S24" class="cls-2" x="274.52" y="270.4" width="39.69" height="39.69"/><rect id="S24-16" data-name="S24" class="cls-2" x="274.52" y="216.26" width="39.69" height="39.69"/><rect id="S24-17" data-name="S24" class="cls-2" x="274.52" y="162.4" width="39.69" height="39.69"/><rect id="S24-18" data-name="S24" class="cls-2" x="274.52" y="108.26" width="39.69" height="39.69"/><rect id="S24-19" data-name="S24" class="cls-2" x="220.66" y="115.06" width="39.69" height="39.69"/><rect id="S24-20" data-name="S24" class="cls-2" x="220.66" y="169.21" width="39.69" height="39.69"/><rect id="S24-21" data-name="S24" class="cls-2" x="220.66" y="223.06" width="39.69" height="39.69"/><rect id="S24-22" data-name="S24" class="cls-2" x="220.66" y="276.92" width="39.69" height="39.69"/><rect id="S24-23" data-name="S24" class="cls-2" x="176.72" y="333.33" width="39.69" height="39.69" transform="translate(-150.25 145.6) rotate(-30)"/><rect id="S24-24" data-name="S24" class="cls-2" x="166.52" y="249.71" width="39.55" height="39.69"/><line class="cls-3" x1="140.26" y1="240.76" x2="206.43" y2="240.76"/><path class="cls-3" d="M206.43,240.76a6.23,6.23,0,0,0,6.24-6.23"/><path class="cls-3" d="M140.26,240.76A6.18,6.18,0,0,0,134,247"/><path class="cls-3" d="M218.9,98.3a6.23,6.23,0,0,0-6.23,6.23"/><path class="cls-4" d="M355.59,324.12h39.69"/><path class="cls-4" d="M395.28,324.12V363.8"/><path class="cls-4" d="M395.28,363.8H355.59"/><path class="cls-4" d="M355.59,351.25V324.12"/><path class="cls-4" d="M355.59,363.8V351.25"/><path class="cls-4" d="M490.51,126.12H530.2"/><path class="cls-4" d="M530.2,126.12V165.8"/><path class="cls-4" d="M530.2,165.8H490.51"/><path class="cls-4" d="M490.51,165.8V126.12"/><path class="cls-4" d="M490.51,179.69H530.2"/><path class="cls-4" d="M530.2,179.69v39.68"/><path class="cls-4" d="M530.2,219.37H490.51"/><path class="cls-4" d="M490.51,219.37V179.69"/><rect id="S24-25" data-name="S24" class="cls-2" x="490.66" y="287.97" width="39.69" height="39.69"/><rect id="S24-26" data-name="S24" class="cls-2" x="490.52" y="234.12" width="39.69" height="39.69"/><line class="cls-3" x1="212.67" y1="234.53" x2="212.67" y2="104.57"/><path id="H4" class="cls-3" d="M269.65,162.24a3.33,3.33,0,1,0-3.33,3.33A3.33,3.33,0,0,0,269.65,162.24Z"/><path id="H4-2" data-name="H4" class="cls-3" d="M269.65,270a3.33,3.33,0,1,0-3.33,3.33A3.33,3.33,0,0,0,269.65,270Z"/><path id="H4-3" data-name="H4" class="cls-3" d="M485.65,276.76a3.33,3.33,0,1,0-3.33,3.32A3.33,3.33,0,0,0,485.65,276.76Z"/><path id="H4-4" data-name="H4" class="cls-3" d="M485.65,168.47a3.33,3.33,0,1,0-3.33,3.33A3.33,3.33,0,0,0,485.65,168.47Z"/><path id="H4-5" data-name="H4" class="cls-3" d="M199.92,318.71a3.33,3.33,0,1,0-3.33,3.33A3.33,3.33,0,0,0,199.92,318.71Z"/></g><line class="cls-4" x1="287.28" y1="236.1" x2="301.45" y2="236.1"/><line class="cls-4" x1="294.36" y1="243.19" x2="294.36" y2="229.02"/></g><text class="cls-5" transform="translate(3.29 98.62)">Lily58</text></g><line class="cls-6" x1="212.67" y1="107.3" x2="31.53" y2="94.25"/><rect id="border" class="cls-6" x="0.25" y="0.25" width="751.18" height="565.7"/></g></g></g></svg>