<svg xmlns="http://www.w3.org/2000/svg" viewBox="0 0 751.68 566.2"><defs><style>.cls-1,.cls-2{fill-opacity:0;}.cls-1,.cls-2,.cls-3,.cls-5{stroke:#000;}.cls-1,.cls-3{stroke-linecap:round;stroke-linejoin:round;}.cls-2{fill:#00f300;}.cls-2,.cls-5{stroke-miterlimit:10;}.cls-3,.cls-5{fill:none;}.cls-4{font-size:10px;font-family:FiraSansCondensed-Medium, Fira Sans Condensed;font-weight:500;}.cls-5{stroke-width:0.5px;}</style></defs><g id="Layer_2" data-name="Layer 2"><g id="main"><g id="microdox"><path id="path841" class="cls-1" d="M375.69,336.48h2"/><path id="path843" class="cls-1" d="M383.65,319.68h0a3.37,3.37,0,0,0-3.37,3.37"/><path id="path845" class="cls-1" d="M425.74,323.08h0a3.37,3.37,0,0,0-3.37-3.37"/><path id="path847" class="cls-1" d="M425.78,336.46V323"/><path id="path849" class="cls-1" d="M377.7,336.48h2.58"/><path id="path851" class="cls-1" d="M380.28,336.48V323"/><path id="path853" class="cls-1" d="M387.82,319.68H388"/><path id="path855" class="cls-1" d="M383.46,319.7h39.11"/><path id="path857" class="cls-1" d="M370.85,395.52l4.78-.08"/><path id="path859" class="cls-1" d="M375.63,395.44l.06-59"/><path id="path861" class="cls-1" d="M425.75,336.43l58.73.05"/><path id="path863" class="cls-1" d="M200.76,356.22l2.67-13"/><path id="path865" class="cls-1" d="M203.43,343.23l0,0"/><path id="path867" class="cls-1" d="M203.46,343.26h39.06"/><path id="path869" class="cls-1" d="M242.52,343.26V323.79"/><path id="path871" class="cls-1" d="M207.51,323.76l35,0"/><path id="path873" class="cls-1" d="M219.8,407.94a8.15,8.15,0,0,0,8.71,5.05"/><path id="path875" class="cls-1" d="M370.85,395.52l-143,17.54"/><path id="path877" class="cls-1" d="M220.29,408.88,200.77,373.2"/><path id="path879" class="cls-1" d="M200.77,373.2v-17"/><path id="path881" class="cls-1" d="M207.51,323.76,212,301.92"/><path id="path883" class="cls-1" d="M251.7,148.35l-18.08,13.51"/><path id="path885" class="cls-1" d="M251.65,148.36h73.09"/><path id="path887" class="cls-1" d="M324.74,148.36H427.68"/><path id="path889" class="cls-1" d="M212,301.92V165.24"/><path id="path891" class="cls-1" d="M215.19,161.86h18.43"/><path id="path893" class="cls-1" d="M484.48,336.48l0-164.5"/><path id="path895" class="cls-1" d="M481.12,168.6H434.43"/><path id="path897" class="cls-1" d="M431.06,165.24v-13.5"/><path id="path899" class="cls-1" d="M431.05,165.24h0a3.37,3.37,0,0,0,3.37,3.37"/><path id="path901" class="cls-1" d="M431.05,151.74a3.38,3.38,0,0,0-3.38-3.38"/><path id="path903" class="cls-1" d="M484.49,172a3.37,3.37,0,0,0-3.37-3.38"/><path id="path905" class="cls-1" d="M215.32,161.86a3.38,3.38,0,0,0-3.38,3.38"/><g id="layer1"><path id="path923" class="cls-1" d="M328.52,155.52V195.2"/><path id="path925" class="cls-1" d="M328.52,195.2h39.69"/><path id="path927" class="cls-1" d="M368.21,195.2V155.52"/><path id="path929" class="cls-1" d="M368.21,155.52H328.52"/><path id="path931" class="cls-1" d="M274.52,162.27V202"/><path id="path933" class="cls-1" d="M274.52,202h39.69"/><path id="path935" class="cls-1" d="M314.21,202V162.27"/><path id="path937" class="cls-1" d="M314.21,162.27H274.52"/><path id="path955" class="cls-1" d="M328.52,209.52V249.2"/><path id="path957" class="cls-1" d="M328.52,249.2h39.69"/><path id="path959" class="cls-1" d="M368.21,249.2V209.52"/><path id="path961" class="cls-1" d="M368.21,209.52H328.52"/><path id="path963" class="cls-1" d="M274.52,216.27V256"/><path id="path965" class="cls-1" d="M274.52,256h39.69"/><path id="path967" class="cls-1" d="M314.21,256V216.27"/><path id="path969" class="cls-1" d="M314.21,216.27H274.52"/><path id="path995" class="cls-1" d="M328.52,263.52V303.2"/><path id="path997" class="cls-1" d="M328.52,303.2h39.69"/><path id="path999" class="cls-1" d="M368.21,303.2V263.52"/><path id="path1001" class="cls-1" d="M368.21,263.52H328.52"/><path id="path1003" class="cls-1" d="M274.52,270.27V310"/><path id="path1005" class="cls-1" d="M274.52,310h39.69"/><path id="path1007" class="cls-1" d="M314.21,310V270.27"/><path id="path1009" class="cls-1" d="M314.21,270.27H274.52"/><path id="path971" class="cls-1" d="M220.52,223V262.7"/><path id="path973" class="cls-1" d="M220.52,262.7h39.69"/><path id="path975" class="cls-1" d="M260.21,262.7V223"/><path id="path977" class="cls-1" d="M260.21,223H220.52"/><path id="path1011" class="cls-1" d="M220.52,277V316.7"/><path id="path1013" class="cls-1" d="M220.52,316.7h39.69"/><path id="path1015" class="cls-1" d="M260.21,316.7V277"/><path id="path1017" class="cls-1" d="M260.21,277H220.52"/><path id="path1035" class="cls-1" d="M220.52,169V208.7"/><path id="path1037" class="cls-1" d="M220.52,208.7h39.69"/><path id="path1039" class="cls-1" d="M260.21,208.7V169"/><path id="path1041" class="cls-1" d="M260.21,169H220.52"/><path id="path915" class="cls-1" d="M382.52,162.27V202"/><path id="path917" class="cls-1" d="M382.52,202h39.69"/><path id="path919" class="cls-1" d="M422.21,202V162.27"/><path id="path921" class="cls-1" d="M422.21,162.27H382.52"/><path id="path947" class="cls-1" d="M382.52,216.27V256"/><path id="path949" class="cls-1" d="M382.52,256h39.69"/><path id="path951" class="cls-1" d="M422.21,256V216.27"/><path id="path953" class="cls-1" d="M422.21,216.27H382.52"/><path id="path987" class="cls-1" d="M382.52,270.27V310"/><path id="path989" class="cls-1" d="M382.52,310h39.69"/><path id="path991" class="cls-1" d="M422.21,310V270.27"/><path id="path993" class="cls-1" d="M422.21,270.27H382.52"/><path id="path907" class="cls-1" d="M436.52,175.77v39.68"/><path id="path909" class="cls-1" d="M436.52,215.45h39.69"/><path id="path911" class="cls-1" d="M476.21,215.45V175.77"/><path id="path913" class="cls-1" d="M476.21,175.77H436.52"/><path id="path939" class="cls-1" d="M436.52,229.77v39.68"/><path id="path941" class="cls-1" d="M436.52,269.45h39.69"/><path id="path943" class="cls-1" d="M476.21,269.45V229.77"/><path id="path945" class="cls-1" d="M476.21,229.77H436.52"/><path id="path979" class="cls-1" d="M436.52,283.77v39.68"/><path id="path981" class="cls-1" d="M436.52,323.45h39.69"/><path id="path983" class="cls-1" d="M476.21,323.45V283.77"/><path id="path985" class="cls-1" d="M476.21,283.77H436.52"/><path id="path1019" class="cls-1" d="M330.93,338.94v39.68"/><path id="path1021" class="cls-1" d="M330.93,378.62h39.69"/><path id="path1023" class="cls-1" d="M370.62,378.62V338.94"/><path id="path1025" class="cls-1" d="M370.62,338.94H330.93"/><path id="path1043" class="cls-1" d="M266,352.27l10.28,38.33"/><path id="path1045" class="cls-1" d="M276.31,390.6l38.33-10.26"/><path id="path1047" class="cls-1" d="M314.64,380.34,304.36,342"/><path id="path1049" class="cls-1" d="M304.36,342,266,352.27"/><path id="path1027" class="cls-1" d="M203.22,368.06l18.94,34.88"/><path id="path1029" class="cls-1" d="M222.16,402.94,257,384"/><path id="path1031" class="cls-1" d="M257,384,238.1,349.12"/><path id="path1033" class="cls-1" d="M238.1,349.12l-34.88,18.94"/></g><g id="layer2"><circle id="circle1207" class="cls-1" cx="278.26" cy="332.3" r="4.54"/><circle id="path2042" class="cls-2" cx="422.49" cy="157.36" r="2.96"/><circle id="path2042-2" class="cls-2" cx="253.43" cy="158.44" r="2.96"/><circle id="path2042-1" class="cls-2" cx="240.53" cy="404.32" r="2.96"/><circle id="path2042-9" class="cls-2" cx="320.49" cy="323.75" r="2.96"/><circle id="path2042-14" class="cls-2" cx="443.48" cy="331.12" r="2.96"/></g><line class="cls-3" x1="287.21" y1="236.13" x2="301.38" y2="236.13"/><line class="cls-3" x1="294.29" y1="243.22" x2="294.29" y2="229.04"/><text class="cls-4" transform="translate(346.7 513.63)">Microdox</text><line class="cls-5" x1="344.11" y1="398.8" x2="349.37" y2="503.11"/><rect id="border" class="cls-5" x="0.25" y="0.25" width="751.18" height="565.7"/></g></g></g></svg>