<svg xmlns="http://www.w3.org/2000/svg" viewBox="0 0 751.68 566.2"><defs><style>.cls-1,.cls-3{fill:none;stroke:#000;}.cls-1{stroke-linecap:round;stroke-linejoin:round;}.cls-2{font-size:10px;font-family:FiraSansCondensed-Medium, Fira Sans Condensed;font-weight:500;}.cls-3{stroke-miterlimit:10;stroke-width:0.5px;}</style></defs><g id="Layer_2" data-name="Layer 2"><g id="main"><g id="minidox"><g id="minidox-2" data-name="minidox"><g id="LWPOLYLINE"><polygon class="cls-1" points="174.18 356.26 173.12 354.42 204.54 336.28 205.61 338.12 207.08 337.27 226.92 371.64 225.44 372.49 226.51 374.33 195.08 392.47 194.02 390.63 192.55 391.48 172.71 357.11 174.18 356.26"/></g><g id="LWPOLYLINE-2" data-name="LWPOLYLINE"><polygon class="cls-1" points="436.47 213.77 434.34 213.77 434.34 177.49 436.47 177.49 436.47 175.79 476.15 175.79 476.15 177.49 478.28 177.49 478.28 213.77 476.15 213.77 476.15 215.47 436.47 215.47 436.47 213.77"/></g><g id="LWPOLYLINE-3" data-name="LWPOLYLINE"><polygon class="cls-1" points="220.47 207.02 218.34 207.02 218.34 170.74 220.47 170.74 220.47 169.03 260.15 169.03 260.15 170.74 262.28 170.74 262.28 207.02 260.15 207.02 260.15 208.72 220.47 208.72 220.47 207.02"/></g><g id="LWPOLYLINE-4" data-name="LWPOLYLINE"><polygon class="cls-1" points="274.47 200.27 272.34 200.27 272.34 163.99 274.47 163.99 274.47 162.29 314.15 162.29 314.15 163.99 316.28 163.99 316.28 200.27 314.15 200.27 314.15 201.97 274.47 201.97 274.47 200.27"/></g><g id="CIRCLE"><path class="cls-1" d="M487.42,141a3,3,0,1,0,3-3,3,3,0,0,0-3,3Z"/></g><g id="LWPOLYLINE-5" data-name="LWPOLYLINE"><polygon class="cls-1" points="382.47 200.27 380.34 200.27 380.34 163.99 382.47 163.99 382.47 162.29 422.15 162.29 422.15 163.99 424.28 163.99 424.28 200.27 422.15 200.27 422.15 201.97 382.47 201.97 382.47 200.27"/></g><g id="CIRCLE-2" data-name="CIRCLE"><path class="cls-1" d="M192.17,432.19a3,3,0,1,0,3-3,3,3,0,0,0-3,3Z"/></g><g id="CIRCLE-3" data-name="CIRCLE"><path class="cls-1" d="M137.75,337.26a3,3,0,1,0,3-3,3,3,0,0,0-3,3Z"/></g><g id="LWPOLYLINE-6" data-name="LWPOLYLINE"><polygon class="cls-1" points="436.47 321.77 434.34 321.77 434.34 285.49 436.47 285.49 436.47 283.79 476.15 283.79 476.15 285.49 478.28 285.49 478.28 321.77 476.15 321.77 476.15 323.47 436.47 323.47 436.47 321.77"/></g><g id="LWPOLYLINE-7" data-name="LWPOLYLINE"><polygon class="cls-1" points="436.47 267.77 434.34 267.77 434.34 231.49 436.47 231.49 436.47 229.79 476.15 229.79 476.15 231.49 478.28 231.49 478.28 267.77 476.15 267.77 476.15 269.47 436.47 269.47 436.47 267.77"/></g><g id="LWPOLYLINE-8" data-name="LWPOLYLINE"><polygon class="cls-1" points="220.47 261.02 218.34 261.02 218.34 224.73 220.47 224.73 220.47 223.03 260.15 223.03 260.15 224.73 262.28 224.73 262.28 261.02 260.15 261.02 260.15 262.72 220.47 262.72 220.47 261.02"/></g><g id="CIRCLE-4" data-name="CIRCLE"><path class="cls-1" d="M363.77,141.21a3,3,0,1,0,3-3,3,3,0,0,0-3,3Z"/></g><g id="LWPOLYLINE-9" data-name="LWPOLYLINE"><polygon class="cls-1" points="328.47 193.52 326.34 193.52 326.34 157.24 328.47 157.24 328.47 155.53 368.15 155.53 368.15 157.24 370.28 157.24 370.28 193.52 368.15 193.52 368.15 195.22 328.47 195.22 328.47 193.52"/></g><g id="LWPOLYLINE-10" data-name="LWPOLYLINE"><polygon class="cls-1" points="382.47 308.27 380.34 308.27 380.34 271.99 382.47 271.99 382.47 270.29 422.15 270.29 422.15 271.99 424.28 271.99 424.28 308.27 422.15 308.27 422.15 309.97 382.47 309.97 382.47 308.27"/></g><g id="LWPOLYLINE-11" data-name="LWPOLYLINE"><polygon class="cls-1" points="328.47 247.52 326.34 247.52 326.34 211.23 328.47 211.23 328.47 209.53 368.15 209.53 368.15 211.23 370.28 211.23 370.28 247.52 368.15 247.52 368.15 249.22 328.47 249.22 328.47 247.52"/></g><g id="CIRCLE-5" data-name="CIRCLE"><path class="cls-1" d="M326.89,141.21a3,3,0,1,0,3-3,3,3,0,0,0-3,3Z"/></g><g id="LWPOLYLINE-12" data-name="LWPOLYLINE"><polygon class="cls-1" points="382.47 254.27 380.34 254.27 380.34 217.99 382.47 217.99 382.47 216.29 422.15 216.29 422.15 217.99 424.28 217.99 424.28 254.27 422.15 254.27 422.15 255.97 382.47 255.97 382.47 254.27"/></g><g id="LWPOLYLINE-13" data-name="LWPOLYLINE"><polygon class="cls-1" points="308.21 369.01 306.09 369.01 306.09 332.73 308.21 332.73 308.21 331.03 347.9 331.03 347.9 332.73 350.03 332.73 350.03 369.01 347.9 369.01 347.9 370.72 308.21 370.72 308.21 369.01"/></g><g id="CIRCLE-6" data-name="CIRCLE"><path class="cls-1" d="M487.42,337.72a3,3,0,1,0,3-3,3,3,0,0,0-3,3Z"/></g><g id="CIRCLE-7" data-name="CIRCLE"><path class="cls-1" d="M358.9,384.16a3,3,0,1,0,3-3,3,3,0,0,0-3,3Z"/></g><g id="LWPOLYLINE-14" data-name="LWPOLYLINE"><polygon class="cls-1" points="252.84 380.29 250.79 380.84 241.4 345.79 243.45 345.24 243.01 343.6 281.34 333.32 281.78 334.97 283.83 334.42 293.23 369.46 291.18 370.01 291.62 371.65 253.28 381.93 252.84 380.29"/></g><g id="LWPOLYLINE-15" data-name="LWPOLYLINE"><polygon class="cls-1" points="220.47 315.02 218.34 315.02 218.34 278.73 220.47 278.73 220.47 277.03 260.15 277.03 260.15 278.73 262.28 278.73 262.28 315.02 260.15 315.02 260.15 316.72 220.47 316.72 220.47 315.02"/></g><g id="LWPOLYLINE-16" data-name="LWPOLYLINE"><polygon class="cls-1" points="274.47 308.27 272.34 308.27 272.34 271.99 274.47 271.99 274.47 270.29 314.15 270.29 314.15 271.99 316.28 271.99 316.28 308.27 314.15 308.27 314.15 309.97 274.47 309.97 274.47 308.27"/></g><g id="LWPOLYLINE-17" data-name="LWPOLYLINE"><polygon class="cls-1" points="274.47 254.27 272.34 254.27 272.34 217.99 274.47 217.99 274.47 216.29 314.15 216.29 314.15 217.99 316.28 217.99 316.28 254.27 314.15 254.27 314.15 255.97 274.47 255.97 274.47 254.27"/></g><g id="CIRCLE-8" data-name="CIRCLE"><path class="cls-1" d="M203.25,141a3,3,0,1,0,3-3,3,3,0,0,0-3,3Z"/></g><g id="LWPOLYLINE-18" data-name="LWPOLYLINE"><polygon class="cls-1" points="328.47 301.52 326.34 301.52 326.34 265.23 328.47 265.23 328.47 263.53 368.15 263.53 368.15 265.23 370.28 265.23 370.28 301.52 368.15 301.52 368.15 303.22 328.47 303.22 328.47 301.52"/></g><g id="LWPOLYLINE-19" data-name="LWPOLYLINE"><path class="cls-1" d="M199.14,139.61v153a5.65,5.65,0,0,1-2.84,4.91l-60.39,34.87a5.67,5.67,0,0,0-2.08,7.74L189.76,437l.12.21a5.68,5.68,0,0,0,7.83,1.74,305.29,305.29,0,0,1,165.58-47.68,5.67,5.67,0,0,0,5.67-5.67v-6.75a34,34,0,0,1,34-34h88.83a5.67,5.67,0,0,0,5.67-5.67V139.61a5.67,5.67,0,0,0-5.67-5.67h-287A5.67,5.67,0,0,0,199.14,139.61Z"/></g><line class="cls-1" x1="287.23" y1="236.13" x2="301.4" y2="236.13"/><line class="cls-1" x1="294.31" y1="243.22" x2="294.31" y2="229.04"/></g><text class="cls-2" transform="translate(319.79 538.1)">Minidox</text><line class="cls-3" x1="324.69" y1="526.92" x2="324.23" y2="393.52"/><rect id="border" class="cls-3" x="0.25" y="0.25" width="751.18" height="565.7"/></g></g></g></svg>