<svg xmlns="http://www.w3.org/2000/svg" viewBox="0 0 751.68 566.2"><defs><style>.cls-1{fill-opacity:0;}.cls-1,.cls-2,.cls-4{stroke:#000;}.cls-1,.cls-2{stroke-linecap:round;stroke-linejoin:round;}.cls-2,.cls-4{fill:none;}.cls-3{font-size:10px;font-family:FiraSansCondensed-Medium, Fira Sans Condensed;font-weight:500;}.cls-4{stroke-miterlimit:10;stroke-width:0.5px;}</style></defs><g id="Layer_2" data-name="Layer 2"><g id="main"><g id="mitosis"><g id="mitosis-2" data-name="mitosis"><g id="mitosis-3" data-name="mitosis"><path class="cls-1" d="M211.14,312.9a5.88,5.88,0,0,0,6.28-5.48,4.35,4.35,0,0,0,0-.51"/><path class="cls-1" d="M319,153.31a4.25,4.25,0,0,0,4.2-3.83"/><path class="cls-1" d="M327.43,145.33a4.25,4.25,0,0,0-4.2,3.75"/><path class="cls-1" d="M371.39,149.35a4.26,4.26,0,0,0-4.28-4.23"/><path class="cls-1" d="M371.41,154.17a4.26,4.26,0,0,0,4.28,4.23"/><path class="cls-1" d="M424.75,162.39a4.26,4.26,0,0,0-4.28-4.23"/><path class="cls-1" d="M424.84,180.53a4.25,4.25,0,0,0,4.28,4.23h0"/><path class="cls-1" d="M478.18,188.76a4.26,4.26,0,0,0-4.28-4.23"/><path class="cls-1" d="M464.66,439.27a4.25,4.25,0,0,0,4.64-3.83"/><path class="cls-1" d="M220.89,153.82a4.26,4.26,0,0,0-4.23,4.28h0"/><path class="cls-1" d="M200.74,311.9a4.28,4.28,0,0,0-4.68,3.82"/><path class="cls-1" d="M187.14,408.27a4.25,4.25,0,0,0,3.83,4.64"/><path class="cls-1" d="M258.4,171.46a1.12,1.12,0,0,0,1.16,1.1,1.14,1.14,0,0,0,1.11-1.12"/><path class="cls-1" d="M260.73,183.92a1.12,1.12,0,0,0-1.14-1.13,1.14,1.14,0,0,0-1.13,1.14h0"/><path class="cls-1" d="M221,171.65a1.14,1.14,0,1,0,2.27,0h0"/><path class="cls-1" d="M223.31,184.11a1.13,1.13,0,0,0-2.26,0"/><path class="cls-1" d="M260.6,159a1.14,1.14,0,0,0-1.14-1.13h0"/><path class="cls-1" d="M222,158a1.12,1.12,0,0,0-1.12,1.14"/><path class="cls-1" d="M221.11,196.6a1.14,1.14,0,0,0,1.14,1.12h0"/><path class="cls-1" d="M259.67,197.53a1.15,1.15,0,0,0,1.13-1.14"/><path class="cls-1" d="M311.72,176.59a1.13,1.13,0,1,0,2.26,0"/><path class="cls-1" d="M314.05,189.05a1.13,1.13,0,0,0-1.14-1.13,1.14,1.14,0,0,0-1.13,1.14"/><path class="cls-1" d="M274.3,176.79a1.14,1.14,0,0,0,2.27,0"/><path class="cls-1" d="M276.63,189.25a1.13,1.13,0,0,0-2.26,0"/><path class="cls-1" d="M313.92,164.11a1.13,1.13,0,0,0-1.14-1.13h0"/><path class="cls-1" d="M275.36,163.17a1.15,1.15,0,0,0-1.13,1.14h0"/><path class="cls-1" d="M274.43,201.73a1.13,1.13,0,0,0,1.14,1.13h0"/><path class="cls-1" d="M313,202.66a1.14,1.14,0,0,0,1.13-1.14h0"/><path class="cls-1" d="M364.94,163a1.13,1.13,0,0,0,1.14,1.13,1.15,1.15,0,0,0,1.13-1.14"/><path class="cls-1" d="M367.27,175.45a1.14,1.14,0,0,0-2.27,0"/><path class="cls-1" d="M327.52,163.19a1.14,1.14,0,0,0,2.27,0"/><path class="cls-1" d="M329.85,175.65a1.13,1.13,0,1,0-2.26,0"/><path class="cls-1" d="M367.14,150.51a1.12,1.12,0,0,0-1.14-1.13h0"/><path class="cls-1" d="M328.58,149.57a1.14,1.14,0,0,0-1.12,1.14h0"/><path class="cls-1" d="M327.65,188.13a1.14,1.14,0,0,0,1.14,1.13h0"/><path class="cls-1" d="M366.21,189.06a1.14,1.14,0,0,0,1.13-1.14h0"/><path class="cls-1" d="M418.3,176a1.14,1.14,0,0,0,2.27,0"/><path class="cls-1" d="M420.63,188.49a1.14,1.14,0,0,0-2.27,0"/><path class="cls-1" d="M380.88,176.23a1.14,1.14,0,0,0,2.27,0"/><path class="cls-1" d="M383.21,188.69a1.13,1.13,0,1,0-2.26,0h0"/><path class="cls-1" d="M420.5,163.55a1.13,1.13,0,0,0-1.14-1.13h0"/><path class="cls-1" d="M381.94,162.62a1.12,1.12,0,0,0-1.12,1.14h0"/><path class="cls-1" d="M381,201.17a1.14,1.14,0,0,0,1.14,1.13h0"/><path class="cls-1" d="M419.57,202.11A1.15,1.15,0,0,0,420.7,201h0"/><path class="cls-1" d="M471.73,202.4a1.13,1.13,0,0,0,1.16,1.11,1.14,1.14,0,0,0,1.11-1.12"/><path class="cls-1" d="M474.06,214.86a1.14,1.14,0,1,0-2.27,0h0"/><path class="cls-1" d="M434.31,202.59a1.14,1.14,0,0,0,2.27,0h0"/><path class="cls-1" d="M436.64,215.06a1.13,1.13,0,0,0-2.26,0"/><path class="cls-1" d="M473.93,189.91a1.12,1.12,0,0,0-1.14-1.12h0"/><path class="cls-1" d="M435.37,189a1.14,1.14,0,0,0-1.12,1.14"/><path class="cls-1" d="M434.44,227.54a1.14,1.14,0,0,0,1.14,1.13"/><path class="cls-1" d="M473,228.47a1.14,1.14,0,0,0,1.13-1.14"/><path class="cls-1" d="M258.68,224.75a1.12,1.12,0,0,0,1.14,1.12,1.14,1.14,0,0,0,1.13-1.14"/><path class="cls-1" d="M261,237.21a1.14,1.14,0,0,0-2.27,0"/><path class="cls-1" d="M221.26,224.94a1.14,1.14,0,0,0,2.27,0"/><path class="cls-1" d="M223.59,237.4a1.13,1.13,0,0,0-2.26,0"/><path class="cls-1" d="M260.88,212.26a1.14,1.14,0,0,0-1.14-1.13"/><path class="cls-1" d="M222.32,211.33a1.14,1.14,0,0,0-1.13,1.14h0"/><path class="cls-1" d="M221.39,249.89a1.12,1.12,0,0,0,1.14,1.12"/><path class="cls-1" d="M260,250.82a1.14,1.14,0,0,0,1.13-1.14h0"/><path class="cls-1" d="M312,229.88a1.13,1.13,0,1,0,2.26,0"/><path class="cls-1" d="M314.33,242.34a1.14,1.14,0,0,0-2.27,0"/><path class="cls-1" d="M274.58,230.08a1.14,1.14,0,0,0,2.27,0"/><path class="cls-1" d="M276.91,242.54a1.14,1.14,0,0,0-2.27,0h0"/><path class="cls-1" d="M314.2,217.4a1.13,1.13,0,0,0-1.14-1.13h0"/><path class="cls-1" d="M275.64,216.47a1.14,1.14,0,0,0-1.13,1.13h0"/><path class="cls-1" d="M274.71,255a1.13,1.13,0,0,0,1.14,1.13h0"/><path class="cls-1" d="M313.27,256a1.12,1.12,0,0,0,1.12-1.14h0"/><path class="cls-1" d="M365.22,216.28a1.13,1.13,0,1,0,2.26,0h0"/><path class="cls-1" d="M367.55,228.74a1.13,1.13,0,0,0-1.16-1.11,1.14,1.14,0,0,0-1.11,1.12"/><path class="cls-1" d="M327.8,216.48a1.12,1.12,0,0,0,1.16,1.1,1.14,1.14,0,0,0,1.11-1.12"/><path class="cls-1" d="M330.13,228.94a1.13,1.13,0,1,0-2.26,0"/><path class="cls-1" d="M367.42,203.8a1.12,1.12,0,0,0-1.14-1.13h0"/><path class="cls-1" d="M328.86,202.86a1.15,1.15,0,0,0-1.13,1.14h0"/><path class="cls-1" d="M327.93,241.42a1.13,1.13,0,0,0,1.14,1.13h0"/><path class="cls-1" d="M366.49,242.35a1.14,1.14,0,0,0,1.13-1.14h0"/><path class="cls-1" d="M418.58,229.32a1.13,1.13,0,0,0,2.26,0"/><path class="cls-1" d="M420.91,241.78a1.14,1.14,0,0,0-2.27,0h0"/><path class="cls-1" d="M381.16,229.52a1.13,1.13,0,0,0,1.14,1.13,1.14,1.14,0,0,0,1.13-1.14h0"/><path class="cls-1" d="M383.49,242a1.13,1.13,0,0,0-2.26,0"/><path class="cls-1" d="M420.78,216.84a1.13,1.13,0,0,0-1.14-1.13h0"/><path class="cls-1" d="M382.22,215.91a1.12,1.12,0,0,0-1.12,1.14"/><path class="cls-1" d="M381.29,254.46a1.13,1.13,0,0,0,1.14,1.13"/><path class="cls-1" d="M419.85,255.4a1.15,1.15,0,0,0,1.13-1.14h0"/><path class="cls-1" d="M472,255.69a1.13,1.13,0,0,0,2.26,0"/><path class="cls-1" d="M474.34,268.15A1.13,1.13,0,0,0,473.2,267a1.14,1.14,0,0,0-1.13,1.14h0"/><path class="cls-1" d="M434.59,255.89a1.14,1.14,0,0,0,2.27,0h0"/><path class="cls-1" d="M436.92,268.35a1.13,1.13,0,0,0-2.26,0"/><path class="cls-1" d="M474.21,243.21a1.12,1.12,0,0,0-1.14-1.13"/><path class="cls-1" d="M435.65,242.27a1.14,1.14,0,0,0-1.12,1.14"/><path class="cls-1" d="M434.72,280.83a1.13,1.13,0,0,0,1.14,1.13h0"/><path class="cls-1" d="M473.28,281.76a1.14,1.14,0,0,0,1.13-1.14"/><path class="cls-1" d="M259,278a1.13,1.13,0,1,0,2.26,0"/><path class="cls-1" d="M261.29,290.5a1.14,1.14,0,0,0-2.27,0"/><path class="cls-1" d="M221.54,278.23a1.14,1.14,0,0,0,2.27,0"/><path class="cls-1" d="M223.87,290.69a1.12,1.12,0,0,0-1.14-1.12,1.14,1.14,0,0,0-1.13,1.14"/><path class="cls-1" d="M261.16,265.55a1.13,1.13,0,0,0-1.14-1.12"/><path class="cls-1" d="M222.6,264.62a1.14,1.14,0,0,0-1.13,1.14h0"/><path class="cls-1" d="M221.67,303.18a1.14,1.14,0,0,0,1.14,1.13"/><path class="cls-1" d="M260.23,304.11a1.12,1.12,0,0,0,1.12-1.14h0"/><path class="cls-1" d="M312.28,283.17a1.13,1.13,0,0,0,2.26,0"/><path class="cls-1" d="M314.61,295.63a1.14,1.14,0,0,0-2.27,0"/><path class="cls-1" d="M274.86,283.37A1.14,1.14,0,0,0,276,284.5a1.15,1.15,0,0,0,1.13-1.14h0"/><path class="cls-1" d="M277.19,295.83a1.14,1.14,0,1,0-2.27,0"/><path class="cls-1" d="M314.48,270.69a1.14,1.14,0,0,0-1.14-1.13h0"/><path class="cls-1" d="M275.92,269.76a1.14,1.14,0,0,0-1.13,1.14h0"/><path class="cls-1" d="M275,308.31a1.13,1.13,0,0,0,1.14,1.13h0"/><path class="cls-1" d="M313.55,309.24a1.12,1.12,0,0,0,1.12-1.14h0"/><path class="cls-1" d="M365.5,269.57a1.13,1.13,0,0,0,2.26,0"/><path class="cls-1" d="M367.83,282a1.13,1.13,0,0,0-1.14-1.13,1.14,1.14,0,0,0-1.13,1.14h0"/><path class="cls-1" d="M328.08,269.77a1.14,1.14,0,0,0,2.27,0h0"/><path class="cls-1" d="M330.41,282.23a1.14,1.14,0,0,0-2.27,0"/><path class="cls-1" d="M367.7,257.09a1.13,1.13,0,0,0-1.14-1.13h0"/><path class="cls-1" d="M329.14,256.15a1.15,1.15,0,0,0-1.13,1.14"/><path class="cls-1" d="M328.21,294.71a1.13,1.13,0,0,0,1.14,1.13"/><path class="cls-1" d="M366.77,295.64a1.12,1.12,0,0,0,1.12-1.14h0"/><path class="cls-1" d="M418.86,282.61a1.13,1.13,0,0,0,2.26,0"/><path class="cls-1" d="M421.19,295.07a1.14,1.14,0,0,0-2.27,0"/><path class="cls-1" d="M381.44,282.81a1.13,1.13,0,0,0,1.14,1.13,1.14,1.14,0,0,0,1.13-1.14h0"/><path class="cls-1" d="M383.77,295.27a1.13,1.13,0,0,0-2.26,0"/><path class="cls-1" d="M421.06,270.13a1.13,1.13,0,0,0-1.14-1.13h0"/><path class="cls-1" d="M382.5,269.2a1.14,1.14,0,0,0-1.13,1.14"/><path class="cls-1" d="M381.57,307.75a1.12,1.12,0,0,0,1.14,1.13"/><path class="cls-1" d="M420.13,308.69a1.14,1.14,0,0,0,1.12-1.14"/><path class="cls-1" d="M472.29,309a1.13,1.13,0,1,0,2.26,0h0"/><path class="cls-1" d="M474.62,321.44a1.14,1.14,0,0,0-2.27,0"/><path class="cls-1" d="M434.87,309.18a1.12,1.12,0,0,0,1.16,1.1,1.14,1.14,0,0,0,1.11-1.12"/><path class="cls-1" d="M437.2,321.64a1.14,1.14,0,1,0-2.27,0"/><path class="cls-1" d="M474.49,296.5a1.12,1.12,0,0,0-1.14-1.13h0"/><path class="cls-1" d="M435.93,295.56a1.15,1.15,0,0,0-1.13,1.14h0"/><path class="cls-1" d="M435,334.12a1.13,1.13,0,0,0,1.14,1.13h0"/><path class="cls-1" d="M473.56,335.05a1.12,1.12,0,0,0,1.12-1.14h0"/><path class="cls-1" d="M236.23,333.26a1.14,1.14,0,0,0,2.26.22"/><path class="cls-1" d="M237.29,345.89a1.13,1.13,0,0,0-2.26-.21"/><path class="cls-1" d="M199,329.68a1.14,1.14,0,0,0,1.05,1.21,1.12,1.12,0,0,0,1.21-1"/><path class="cls-1" d="M200.05,342.31a1.14,1.14,0,0,0-2.26-.22"/><path class="cls-1" d="M239.68,321.06a1.12,1.12,0,0,0-1-1.23h0"/><path class="cls-1" d="M201.42,316.24a1.13,1.13,0,0,0-1.24,1"/><path class="cls-1" d="M196.59,354.5a1.13,1.13,0,0,0,1,1.24"/><path class="cls-1" d="M234.86,359.33a1.14,1.14,0,0,0,1.24-1h0"/><path class="cls-1" d="M289.28,338.37a1.13,1.13,0,0,0,2.25.22"/><path class="cls-1" d="M290.34,351a1.14,1.14,0,0,0-2.26-.22"/><path class="cls-1" d="M252,334.78a1.14,1.14,0,0,0,2.26.22"/><path class="cls-1" d="M253.09,347.42a1.14,1.14,0,1,0-2.26-.22"/><path class="cls-1" d="M292.73,326.17a1.14,1.14,0,0,0-1-1.24"/><path class="cls-1" d="M254.46,321.35a1.12,1.12,0,0,0-1.23,1h0"/><path class="cls-1" d="M249.64,359.61a1.13,1.13,0,0,0,1,1.24h0"/><path class="cls-1" d="M287.9,364.44a1.13,1.13,0,0,0,1.24-1"/><path class="cls-1" d="M342.32,343.48a1.14,1.14,0,0,0,2.26.21"/><path class="cls-1" d="M343.38,356.11a1.13,1.13,0,0,0-2.25-.22"/><path class="cls-1" d="M305.08,339.89a1.13,1.13,0,1,0,2.25.22"/><path class="cls-1" d="M306.14,352.52a1.13,1.13,0,0,0-2.26-.21"/><path class="cls-1" d="M345.77,331.28a1.13,1.13,0,0,0-1-1.24h0"/><path class="cls-1" d="M307.51,326.46a1.13,1.13,0,0,0-1.24,1h0"/><path class="cls-1" d="M302.69,364.72a1.13,1.13,0,0,0,1,1.24h0"/><path class="cls-1" d="M341,369.54a1.13,1.13,0,0,0,1.24-1h0"/><path class="cls-1" d="M395.37,348.58a1.13,1.13,0,1,0,2.25.22"/><path class="cls-1" d="M396.43,361.22a1.14,1.14,0,0,0-2.26-.22"/><path class="cls-1" d="M358.12,345a1.14,1.14,0,0,0,2.26.22"/><path class="cls-1" d="M359.18,357.63a1.13,1.13,0,0,0-2.25-.22"/><path class="cls-1" d="M398.82,336.39a1.13,1.13,0,0,0-1-1.24h0"/><path class="cls-1" d="M360.56,331.56a1.13,1.13,0,0,0-1.24,1h0"/><path class="cls-1" d="M355.73,369.83a1.14,1.14,0,0,0,1,1.24h0"/><path class="cls-1" d="M394,374.65a1.12,1.12,0,0,0,1.23-1h0"/><path class="cls-1" d="M231.12,386.31a1.14,1.14,0,1,0,2.26.22"/><path class="cls-1" d="M232.18,398.94a1.13,1.13,0,1,0-2.25-.22h0"/><path class="cls-1" d="M193.88,382.72a1.13,1.13,0,0,0,2.25.22"/><path class="cls-1" d="M194.94,395.35a1.14,1.14,0,0,0-2.26-.21"/><path class="cls-1" d="M234.57,374.11a1.13,1.13,0,0,0-1-1.24h0"/><path class="cls-1" d="M196.31,369.29a1.13,1.13,0,0,0-1.24,1"/><path class="cls-1" d="M191.49,407.55a1.13,1.13,0,0,0,1,1.24"/><path class="cls-1" d="M229.75,412.37a1.13,1.13,0,0,0,1.24-1h0"/><path class="cls-1" d="M284.17,391.42a1.13,1.13,0,0,0,2.25.21"/><path class="cls-1" d="M285.23,404.05a1.14,1.14,0,0,0-2.26-.22"/><path class="cls-1" d="M246.92,387.83a1.14,1.14,0,0,0,2.26.22"/><path class="cls-1" d="M248,400.46a1.13,1.13,0,1,0-2.25-.22h0"/><path class="cls-1" d="M287.62,379.22a1.13,1.13,0,0,0-1-1.24"/><path class="cls-1" d="M249.36,374.39a1.13,1.13,0,0,0-1.24,1h0"/><path class="cls-1" d="M244.53,412.66a1.14,1.14,0,0,0,1,1.24h0"/><path class="cls-1" d="M282.8,417.48a1.12,1.12,0,0,0,1.23-1"/><path class="cls-1" d="M337.21,396.52a1.14,1.14,0,0,0,1.05,1.22,1.12,1.12,0,0,0,1.21-1"/><path class="cls-1" d="M338.28,409.15a1.14,1.14,0,0,0-1-1.21,1.12,1.12,0,0,0-1.21,1"/><path class="cls-1" d="M300,392.94a1.13,1.13,0,0,0,2.26.21"/><path class="cls-1" d="M301,405.57a1.14,1.14,0,0,0-2.26-.22h0"/><path class="cls-1" d="M340.67,384.33a1.13,1.13,0,0,0-1-1.24h0"/><path class="cls-1" d="M302.4,379.5a1.14,1.14,0,0,0-1.24,1h0"/><path class="cls-1" d="M297.58,417.77a1.12,1.12,0,0,0,1,1.23h0"/><path class="cls-1" d="M335.84,422.59a1.13,1.13,0,0,0,1.24-1h0"/><path class="cls-1" d="M390.26,401.63a1.14,1.14,0,1,0,2.26.22"/><path class="cls-1" d="M391.32,414.26a1.13,1.13,0,0,0-2.26-.21h0"/><path class="cls-1" d="M353,398a1.14,1.14,0,0,0,1.05,1.22,1.12,1.12,0,0,0,1.21-1"/><path class="cls-1" d="M354.08,410.68a1.14,1.14,0,0,0-1.05-1.22,1.12,1.12,0,0,0-1.21,1"/><path class="cls-1" d="M393.71,389.43a1.12,1.12,0,0,0-1-1.23h0"/><path class="cls-1" d="M355.45,384.61a1.13,1.13,0,0,0-1.24,1h0"/><path class="cls-1" d="M350.62,422.87a1.13,1.13,0,0,0,1,1.24h0"/><path class="cls-1" d="M388.89,427.7a1.14,1.14,0,0,0,1.24-1h0"/><path class="cls-1" d="M323.17,149.48l.05-.4"/><path class="cls-1" d="M478.17,188.76l.77,146.54"/><path class="cls-1" d="M429.11,184.76l44.79-.23"/><path class="cls-1" d="M424.74,162.39l.1,18.14"/><path class="cls-1" d="M375.68,158.39l44.79-.23"/><path class="cls-1" d="M371.39,149.35l0,4.81"/><path class="cls-1" d="M327.43,145.32l39.68-.21"/><path class="cls-1" d="M220.89,153.82,319,153.3"/><path class="cls-1" d="M216.66,158.09l.78,148.82"/><path class="cls-1" d="M200.74,311.9l10.39,1"/><path class="cls-1" d="M187.14,408.27l8.91-92.55"/><path class="cls-1" d="M191,412.91l273.69,26.35"/><path class="cls-1" d="M469.3,435.44l9.64-100.14"/><path class="cls-1" d="M220.91,159.17l.07,12.48"/><path class="cls-1" d="M223.18,160.3l.06,11.34"/><path class="cls-1" d="M260.6,159l.07,12.47"/><path class="cls-1" d="M258.33,160.12l.06,11.33"/><path class="cls-1" d="M260.73,183.91l.07,12.47"/><path class="cls-1" d="M258.46,183.93l.06,11.34"/><path class="cls-1" d="M221,184.12l.07,12.47"/><path class="cls-1" d="M223.31,184.11l.06,11.34"/><path class="cls-1" d="M222,158l37.42-.2"/><path class="cls-1" d="M223.18,160.3l35.15-.18"/><path class="cls-1" d="M223.37,195.45l35.15-.18"/><path class="cls-1" d="M222.25,197.72l37.42-.2"/><path class="cls-1" d="M274.23,164.31l.07,12.48"/><path class="cls-1" d="M276.51,165.43l.05,11.34"/><path class="cls-1" d="M313.91,164.1l.07,12.48"/><path class="cls-1" d="M311.66,165.25l0,11.34"/><path class="cls-1" d="M314,189.05l.07,12.47"/><path class="cls-1" d="M311.78,189.06l.06,11.34"/><path class="cls-1" d="M274.36,189.25l.07,12.48"/><path class="cls-1" d="M276.63,189.24l.06,11.34"/><path class="cls-1" d="M275.36,163.17l37.42-.19"/><path class="cls-1" d="M276.51,165.43l35.15-.18"/><path class="cls-1" d="M276.69,200.58l35.15-.18"/><path class="cls-1" d="M275.56,202.85l37.43-.19"/><path class="cls-1" d="M327.45,150.71l.07,12.47"/><path class="cls-1" d="M329.73,151.83l.06,11.34"/><path class="cls-1" d="M367.14,150.5,367.2,163"/><path class="cls-1" d="M364.87,151.65l.07,11.34"/><path class="cls-1" d="M367.27,175.44l.06,12.48"/><path class="cls-1" d="M365,175.46l.06,11.34"/><path class="cls-1" d="M327.58,175.65l.07,12.48"/><path class="cls-1" d="M329.85,175.64l.06,11.34"/><path class="cls-1" d="M328.58,149.57l37.41-.19"/><path class="cls-1" d="M329.73,151.83l35.14-.18"/><path class="cls-1" d="M329.91,187l35.15-.18"/><path class="cls-1" d="M328.79,189.25l37.41-.19"/><path class="cls-1" d="M380.81,163.75l.07,12.48"/><path class="cls-1" d="M383.08,164.87l.06,11.34"/><path class="cls-1" d="M420.5,163.54l.06,12.48"/><path class="cls-1" d="M418.23,164.69l.06,11.34"/><path class="cls-1" d="M420.63,188.49l.06,12.47"/><path class="cls-1" d="M418.36,188.5l.06,11.34"/><path class="cls-1" d="M380.94,188.7l.07,12.47"/><path class="cls-1" d="M383.21,188.68l.06,11.34"/><path class="cls-1" d="M381.94,162.61l37.42-.19"/><path class="cls-1" d="M383.08,164.87l35.15-.18"/><path class="cls-1" d="M383.27,200l35.15-.18"/><path class="cls-1" d="M382.15,202.29l37.42-.19"/><path class="cls-1" d="M434.25,190.12l.06,12.47"/><path class="cls-1" d="M436.52,191.24l.06,11.34"/><path class="cls-1" d="M473.93,189.91l.06,12.48"/><path class="cls-1" d="M471.67,191.06l.06,11.33"/><path class="cls-1" d="M474.06,214.85l.06,12.47"/><path class="cls-1" d="M471.79,214.87l.06,11.34"/><path class="cls-1" d="M434.38,215.06l.06,12.47"/><path class="cls-1" d="M436.64,215.05l.06,11.34"/><path class="cls-1" d="M435.37,189l37.42-.2"/><path class="cls-1" d="M436.52,191.24l35.15-.18"/><path class="cls-1" d="M436.7,226.39l35.15-.18"/><path class="cls-1" d="M435.58,228.66l37.42-.19"/><path class="cls-1" d="M221.19,212.47l.07,12.47"/><path class="cls-1" d="M223.46,213.59l.06,11.33"/><path class="cls-1" d="M260.88,212.26l.06,12.47"/><path class="cls-1" d="M258.61,213.4l.06,11.34"/><path class="cls-1" d="M261,237.21l.06,12.46"/><path class="cls-1" d="M258.74,237.21l.06,11.34"/><path class="cls-1" d="M221.32,237.41l.07,12.47"/><path class="cls-1" d="M223.59,237.4l.06,11.34"/><path class="cls-1" d="M222.32,211.32l37.42-.19"/><path class="cls-1" d="M223.46,213.59l35.15-.19"/><path class="cls-1" d="M223.65,248.74l35.15-.19"/><path class="cls-1" d="M222.53,251l37.41-.19"/><path class="cls-1" d="M274.51,217.6l.07,12.47"/><path class="cls-1" d="M276.79,218.72l0,11.34"/><path class="cls-1" d="M314.19,217.39l.07,12.47"/><path class="cls-1" d="M311.94,218.54l.05,11.34"/><path class="cls-1" d="M314.32,242.34l.07,12.47"/><path class="cls-1" d="M312.06,242.35l.06,11.34"/><path class="cls-1" d="M274.64,242.55l.07,12.47"/><path class="cls-1" d="M276.91,242.53l.06,11.34"/><path class="cls-1" d="M275.64,216.46l37.42-.2"/><path class="cls-1" d="M276.79,218.72l35.15-.18"/><path class="cls-1" d="M277,253.87l35.15-.18"/><path class="cls-1" d="M275.84,256.15l37.43-.2"/><path class="cls-1" d="M327.73,204l.06,12.48"/><path class="cls-1" d="M330,205.12l.06,11.34"/><path class="cls-1" d="M367.42,203.79l.06,12.47"/><path class="cls-1" d="M365.15,204.94l.07,11.33"/><path class="cls-1" d="M367.55,228.74l.06,12.47"/><path class="cls-1" d="M365.28,228.75l.06,11.33"/><path class="cls-1" d="M327.86,228.94l.06,12.47"/><path class="cls-1" d="M330.13,228.93l.06,11.34"/><path class="cls-1" d="M328.86,202.86l37.41-.2"/><path class="cls-1" d="M330,205.12l35.14-.18"/><path class="cls-1" d="M330.19,240.27l35.15-.19"/><path class="cls-1" d="M329.07,242.54l37.41-.19"/><path class="cls-1" d="M381.09,217l.07,12.47"/><path class="cls-1" d="M383.36,218.17l.06,11.34"/><path class="cls-1" d="M420.78,216.84l.06,12.46"/><path class="cls-1" d="M418.51,218l.06,11.34"/><path class="cls-1" d="M420.91,241.78l.06,12.47"/><path class="cls-1" d="M418.64,241.79l.06,11.34"/><path class="cls-1" d="M381.22,242l.07,12.47"/><path class="cls-1" d="M383.49,242l.06,11.34"/><path class="cls-1" d="M382.22,215.9l37.42-.19"/><path class="cls-1" d="M383.36,218.17l35.15-.19"/><path class="cls-1" d="M383.55,253.32l35.15-.19"/><path class="cls-1" d="M382.43,255.59l37.41-.2"/><path class="cls-1" d="M434.52,243.41l.07,12.47"/><path class="cls-1" d="M436.8,244.53l.05,11.34"/><path class="cls-1" d="M474.2,243.2l.07,12.47"/><path class="cls-1" d="M472,244.34l.05,11.34"/><path class="cls-1" d="M474.33,268.15l.07,12.47"/><path class="cls-1" d="M472.07,268.16l.06,11.33"/><path class="cls-1" d="M434.65,268.36l.07,12.47"/><path class="cls-1" d="M436.92,268.34l.06,11.34"/><path class="cls-1" d="M435.65,242.27l37.42-.2"/><path class="cls-1" d="M436.8,244.53l35.15-.19"/><path class="cls-1" d="M437,279.68l35.15-.19"/><path class="cls-1" d="M435.85,282l37.43-.19"/><path class="cls-1" d="M221.47,265.76l.07,12.47"/><path class="cls-1" d="M223.74,266.88l.06,11.34"/><path class="cls-1" d="M261.16,265.55l.06,12.47"/><path class="cls-1" d="M258.89,266.69,259,278"/><path class="cls-1" d="M261.29,290.49l.06,12.48"/><path class="cls-1" d="M259,290.5l.05,11.34"/><path class="cls-1" d="M221.6,290.7l.07,12.47"/><path class="cls-1" d="M223.87,290.69l.06,11.34"/><path class="cls-1" d="M222.6,264.62l37.42-.2"/><path class="cls-1" d="M223.74,266.88l35.15-.19"/><path class="cls-1" d="M223.93,302l35.14-.19"/><path class="cls-1" d="M222.81,304.3l37.41-.2"/><path class="cls-1" d="M274.79,270.89l.07,12.47"/><path class="cls-1" d="M277.06,272l.06,11.33"/><path class="cls-1" d="M314.47,270.69l.07,12.47"/><path class="cls-1" d="M312.21,271.83l.06,11.34"/><path class="cls-1" d="M314.6,295.62l.07,12.48"/><path class="cls-1" d="M312.34,295.64,312.4,307"/><path class="cls-1" d="M274.92,295.83l.07,12.48"/><path class="cls-1" d="M277.19,295.83l.06,11.33"/><path class="cls-1" d="M275.92,269.75l37.42-.19"/><path class="cls-1" d="M277.06,272l35.15-.19"/><path class="cls-1" d="M277.25,307.16,312.4,307"/><path class="cls-1" d="M276.12,309.44l37.43-.2"/><path class="cls-1" d="M328,257.29l.06,12.47"/><path class="cls-1" d="M330.29,258.42l.06,11.33"/><path class="cls-1" d="M367.7,257.08l.06,12.47"/><path class="cls-1" d="M365.43,258.23l.07,11.34"/><path class="cls-1" d="M367.83,282l.06,12.47"/><path class="cls-1" d="M365.56,282l.06,11.34"/><path class="cls-1" d="M328.14,282.24l.06,12.47"/><path class="cls-1" d="M330.41,282.22l.06,11.34"/><path class="cls-1" d="M329.14,256.15l37.41-.2"/><path class="cls-1" d="M330.29,258.42l35.14-.19"/><path class="cls-1" d="M330.47,293.56l35.15-.18"/><path class="cls-1" d="M329.35,295.84l37.41-.2"/><path class="cls-1" d="M381.37,270.34l.07,12.46"/><path class="cls-1" d="M383.64,271.46l.06,11.33"/><path class="cls-1" d="M421.06,270.13l.06,12.47"/><path class="cls-1" d="M418.79,271.27l.06,11.34"/><path class="cls-1" d="M421.19,295.07l.06,12.47"/><path class="cls-1" d="M418.92,295.08l.05,11.34"/><path class="cls-1" d="M381.5,295.28l.07,12.47"/><path class="cls-1" d="M383.77,295.27l.06,11.33"/><path class="cls-1" d="M382.5,269.19l37.42-.19"/><path class="cls-1" d="M383.64,271.46l35.15-.19"/><path class="cls-1" d="M383.83,306.6l35.14-.18"/><path class="cls-1" d="M382.71,308.88l37.41-.19"/><path class="cls-1" d="M434.8,296.7l.07,12.47"/><path class="cls-1" d="M437.08,297.82l.05,11.34"/><path class="cls-1" d="M474.48,296.49l.07,12.47"/><path class="cls-1" d="M472.23,297.64l0,11.34"/><path class="cls-1" d="M474.61,321.43l.07,12.48"/><path class="cls-1" d="M472.35,321.45l.06,11.34"/><path class="cls-1" d="M434.93,321.64l.07,12.48"/><path class="cls-1" d="M437.2,321.64l.06,11.33"/><path class="cls-1" d="M435.93,295.56l37.42-.19"/><path class="cls-1" d="M437.08,297.82l35.15-.18"/><path class="cls-1" d="M437.26,333l35.15-.18"/><path class="cls-1" d="M436.13,335.25l37.43-.2"/><path class="cls-1" d="M199,329.67l1.2-12.41"/><path class="cls-1" d="M202.33,318.6l-1.09,11.29"/><path class="cls-1" d="M238.48,333.47l1.2-12.41"/><path class="cls-1" d="M236.22,333.26,237.31,322"/><path class="cls-1" d="M236.09,358.31l1.2-12.42"/><path class="cls-1" d="M235,345.67,233.94,357"/><path class="cls-1" d="M196.59,354.5l1.2-12.42"/><path class="cls-1" d="M199,353.59l1.09-11.29"/><path class="cls-1" d="M201.41,316.23l37.25,3.59"/><path class="cls-1" d="M202.33,318.6l35,3.37"/><path class="cls-1" d="M199,353.59l35,3.37"/><path class="cls-1" d="M197.61,355.74l37.25,3.58"/><path class="cls-1" d="M252,334.78l1.19-12.41"/><path class="cls-1" d="M255.37,323.71,254.28,335"/><path class="cls-1" d="M291.53,338.58l1.2-12.41"/><path class="cls-1" d="M289.27,338.36l1.09-11.28"/><path class="cls-1" d="M289.14,363.42,290.33,351"/><path class="cls-1" d="M288.08,350.78,287,362.07"/><path class="cls-1" d="M249.64,359.61l1.19-12.42"/><path class="cls-1" d="M252,358.7l1.09-11.29"/><path class="cls-1" d="M254.46,321.34l37.24,3.59"/><path class="cls-1" d="M255.37,323.71l35,3.37"/><path class="cls-1" d="M252,358.7l35,3.37"/><path class="cls-1" d="M250.66,360.85l37.24,3.58"/><path class="cls-1" d="M305.08,339.89l1.19-12.42"/><path class="cls-1" d="M308.42,328.82l-1.09,11.28"/><path class="cls-1" d="M344.58,343.69l1.19-12.41"/><path class="cls-1" d="M342.32,343.47l1.09-11.29"/><path class="cls-1" d="M342.19,368.52l1.19-12.42"/><path class="cls-1" d="M341.13,355.89,340,367.17"/><path class="cls-1" d="M302.68,364.72l1.2-12.42"/><path class="cls-1" d="M305.05,363.8l1.09-11.28"/><path class="cls-1" d="M307.5,326.45,344.75,330"/><path class="cls-1" d="M308.42,328.82l35,3.36"/><path class="cls-1" d="M305.05,363.8l35,3.37"/><path class="cls-1" d="M303.7,366,341,369.54"/><path class="cls-1" d="M358.12,345l1.19-12.41"/><path class="cls-1" d="M361.46,333.92l-1.09,11.29"/><path class="cls-1" d="M397.62,348.8l1.2-12.42"/><path class="cls-1" d="M395.36,348.58l1.09-11.29"/><path class="cls-1" d="M395.23,373.63l1.2-12.42"/><path class="cls-1" d="M394.17,361l-1.09,11.29"/><path class="cls-1" d="M355.73,369.83l1.19-12.42"/><path class="cls-1" d="M358.09,368.91l1.09-11.29"/><path class="cls-1" d="M360.55,331.56l37.25,3.58"/><path class="cls-1" d="M361.46,333.92l35,3.37"/><path class="cls-1" d="M358.09,368.91l35,3.37"/><path class="cls-1" d="M356.75,371.06,394,374.65"/><path class="cls-1" d="M193.88,382.72l1.19-12.42"/><path class="cls-1" d="M197.22,371.65l-1.09,11.29"/><path class="cls-1" d="M233.37,386.52l1.2-12.42"/><path class="cls-1" d="M231.12,386.31,232.2,375"/><path class="cls-1" d="M231,411.35l1.2-12.41"/><path class="cls-1" d="M229.92,398.72,228.83,410"/><path class="cls-1" d="M191.49,407.55l1.19-12.42"/><path class="cls-1" d="M193.85,406.64l1.09-11.29"/><path class="cls-1" d="M196.31,369.28l37.24,3.59"/><path class="cls-1" d="M197.22,371.65l35,3.37"/><path class="cls-1" d="M193.85,406.64l35,3.37"/><path class="cls-1" d="M192.5,408.79l37.25,3.58"/><path class="cls-1" d="M246.92,387.83l1.19-12.42"/><path class="cls-1" d="M250.26,376.76,249.18,388"/><path class="cls-1" d="M286.42,391.63l1.2-12.42"/><path class="cls-1" d="M284.16,391.41l1.09-11.28"/><path class="cls-1" d="M284,416.46l1.2-12.42"/><path class="cls-1" d="M283,403.83l-1.09,11.28"/><path class="cls-1" d="M244.53,412.65l1.19-12.41"/><path class="cls-1" d="M246.89,411.75,248,400.46"/><path class="cls-1" d="M249.35,374.39,286.59,378"/><path class="cls-1" d="M250.26,376.76l35,3.37"/><path class="cls-1" d="M246.89,411.75l35,3.36"/><path class="cls-1" d="M245.55,413.89l37.24,3.59"/><path class="cls-1" d="M300,392.94l1.19-12.42"/><path class="cls-1" d="M303.31,381.86l-1.09,11.29"/><path class="cls-1" d="M339.47,396.74l1.2-12.42"/><path class="cls-1" d="M337.21,396.52l1.09-11.29"/><path class="cls-1" d="M337.08,421.57l1.2-12.42"/><path class="cls-1" d="M336,408.93l-1.09,11.29"/><path class="cls-1" d="M297.58,417.76l1.19-12.41"/><path class="cls-1" d="M299.94,416.85,301,405.57"/><path class="cls-1" d="M302.4,379.5l37.24,3.58"/><path class="cls-1" d="M303.31,381.86l35,3.37"/><path class="cls-1" d="M299.94,416.85l35,3.37"/><path class="cls-1" d="M298.59,419l37.25,3.59"/><path class="cls-1" d="M353,398l1.2-12.42"/><path class="cls-1" d="M356.35,387l-1.08,11.29"/><path class="cls-1" d="M392.51,401.85l1.2-12.42"/><path class="cls-1" d="M390.26,401.63l1.08-11.29"/><path class="cls-1" d="M390.12,426.67l1.2-12.41"/><path class="cls-1" d="M389.06,414,388,425.33"/><path class="cls-1" d="M350.62,422.87l1.19-12.41"/><path class="cls-1" d="M353,422l1.09-11.29"/><path class="cls-1" d="M355.45,384.61l37.24,3.58"/><path class="cls-1" d="M356.35,387l35,3.37"/><path class="cls-1" d="M353,422l35,3.37"/><path class="cls-1" d="M351.64,424.11l37.25,3.59"/></g><line class="cls-2" x1="287.26" y1="236.19" x2="301.43" y2="236.19"/><line class="cls-2" x1="294.35" y1="243.27" x2="294.35" y2="229.1"/></g><text class="cls-3" transform="translate(436.86 534.99)">Mitosis</text><line class="cls-4" x1="446.73" y1="437.53" x2="443.76" y2="525.15"/><rect id="border" class="cls-4" x="0.25" y="0.25" width="751.18" height="565.7"/></g></g></g></svg>