<svg xmlns="http://www.w3.org/2000/svg" viewBox="0 0 751.68 566.2"><defs><style>.cls-1,.cls-2,.cls-4{fill:none;stroke:#000;}.cls-1{stroke-linecap:round;stroke-linejoin:round;}.cls-3{font-size:10px;font-family:FiraSansCondensed-Medium, Fira Sans Condensed;font-weight:500;}.cls-4{stroke-miterlimit:10;stroke-width:0.5px;}</style></defs><g id="Layer_2" data-name="Layer 2"><g id="main"><g id="moonlander"><path class="cls-1" d="M553.53,92.65v.2m0-.2h-8.66m8.66,0,1,.2.92.51.71.71.41,1v1l-.2,1-.61.81-.82.61-1,.31h-.4m0-6.21v6.21m0-6h-8.66m8.66,0,1.12.2,1,.61.62,1,.2.51v.61l-.2,1.12-.62.92-1,.61-1.12.31m0-5.91v5.91m0,.1v-.1m0,.1h-8.66m8.66-.1h-8.66M154.08,92.65v.2m0-.2h-8.66m8.66,0,1,.2.92.51.71.71.41,1v1l-.3,1-.51.81-.92.61-.92.31h-.4m1-6.21v6.21m-1-6,1.12.2.91.61.72,1,.1.51.1.61m-1.95-3,2.95,3m-3.95-3h-8.66m8.66,6v-.1m0,.1h-8.66m8.66-.1h-8.66m8.66,0,1.12-.31m389.67.41v-.1m0,.1-1-.1-.92-.51-.71-.82-.41-.91V95.4l.21-.92.61-.82.81-.61,1-.3.41-.1m0,6.21V92.65m0,6.11-1.12-.31-.92-.61-.71-.92-.1-.61-.11-.51.21-1.12.71-1,.92-.61,1.12-.2m0,5.91V92.85m0-.2v.2m-399.45,6v-.1m0,.1-1-.1-.92-.51-.71-.82-.41-.91-.1-1.12.31-.92.61-.82.81-.61,1-.3.41-.1m1,6.21V92.65m-1,6.11-1.12-.31-1-.61-.61-.92-.2-.61V95.8m3.95,3-2.95-3m1.95-3.15v.2m0,0-1.12.2m49.6,219.69.61.51m0,0,.71-.81m-.71.81-.1.1v.1h-.1v.11l-.11.1m.31-.41-.31.41m-19.75-17.21.61.5m-.61-.5.71-.82m-.71.82-.11.1v.1h-.1v.1h-.1v.1m.31-.4-.31.4m.61.51-.61-.51m0,0-.2.21m20.26,16.6-.61-.51m.61.51-.2.2m-43-33.51-.31.41-.71.92-1.12,1.22-1.42,1.73-1.63,1.94-1.74,2.13L140.43,293l-1.63,1.94-1.43,1.73-1.12,1.22-.71.92-.31.4M151,280.35l-15.79,18.84M151,280.35l-1-.81m-14.77,19.65-1-.91M157.54,86.74v-.1m383.87,18.64v.1m0-.51v.1M144.3,93.05l-1,.61-.61,1-.2,1.12m2.83-2.75-1.83,2.75m11.73,2.65.91-.61.72-.92.2-1.12m-.83,2.65L158,95.8M384.25,76.86l-.2-1.12.2-1.12.61-1m-.61,3.26.61.92,1,.71m-1.63-1.63.61,1,1,.61m-1.63-1.63-.3-1.12.3-1.22.61-.92m1,4.89,1.12.2,1.12-.2m0,0,1-.71.61-.92m-1.63,1.63,1-.61.61-1m0,0,.21-1.12-.21-1.12-.61-1m.61,3.26.31-1.12-.31-1.22-.61-.92m0,0-1-.61-1.12-.2m2.14.81-1-.71L387,72.68l-1.12.21-1,.71m2.14-.81-1.12.2-1,.61m2.14-.81,1.12.3m-1.12-.3-1.12.3M152.45,276.48,278.94,382.71M407.07,76.86l.3-1.12-.3-1.22-.61-.92m.61,3.26-.61,1-1,.61m1.63-1.63-.61.92-1,.71m1.63-1.63.2-1.12-.2-1.12-.61-1m-1,4.89-1.12.2-1.12-.2m0,0-1-.61-.61-1m1.63,1.63-1-.71-.61-.92m0,0-.31-1.12.31-1.22.61-.92m-.61,3.26-.21-1.12.21-1.12.61-1m0,0,1-.71,1.12-.21,1.12.21,1,.71m-4.28,0,1-.61,1.12-.2m2.14.81-1-.61-1.12-.2m0,0,1.12.3m-1.12-.3-1.12.3m21.18,3.77.31-1.12-.31-1.22-.61-.92m.61,3.26-.61,1-1,.61m1.63-1.63-.61.92-1,.71m1.63-1.63.21-1.12-.21-1.12-.61-1m-1,4.89-1.12.2-1.12-.2m0,0-1-.61-.61-1m1.63,1.63-1-.71-.61-.92m0,0-.3-1.12.3-1.22.61-.92m-.61,3.26-.2-1.12.2-1.12.61-1m0,0,1-.71,1.12-.21,1.12.21,1,.71m-4.28,0,1-.61,1.12-.2m2.14.81-1-.61-1.12-.2m0,0,1.12.3m-1.12-.3-1.12.3M260,49.56v-1H439v1M260,49.56H219.56m40.44,0H439M260,49.56,259.9,51M439,49.56h40.43m-40.43,0,.1,1.43M564.42,396.56l-.3,4.69L563,405.83l-1,2.55Zm0,0h-1m1,0V111.69m-1,284.87V111.69m0,284.87H562m1.42,0-.3,4.59L562,405.53l-1,2.85ZM358.69,408.17l.1-.3.21-.82.2-.71.1-.61.2-.51.11-.31v-.2h.1v.2l-.1.31-.11.51-.1.61-.1.71-.2.82-.1.3Zm0,0h15.38m-14.77,0,1.22-4.68m0,0-.81-1m.81,1H372M490,397.68v3.26m0-3.26h-4.78m4.78,0,1-1m-131.28,5.81-1.43,5.7m1.43-5.7-1.22-1.53m1.22,1.53h11.51m.81,1-.81-1m.81,1,1.43-5.81m-2.24,4.79-1.12-1.53m1.12,1.53,1.42-5.81m.82,1-.82-1m.82,1h5m-5.81-1-1.12-1.52m1.12,1.52H491m-111.12,1H483.76m7.23-1v11.51m0-11.51,1.43-1.52m-195.65,2.24,12.83,10.79M164.36,48.55l-4.68.3L155.2,50l-4.38,1.84-4,2.44-3.56,3-3.06,3.57-2.44,4L136,69.22l-1.12,4.58-.31,4.69m29.84-29.94h55.1l.1,1m-55.2-1v1M134.52,78.49h.92m-.92,0v1.43m85-30.36.11,1.43m-.11-1.43h-55.2m0,0-4.48.31L155.5,51l-4.28,1.73-3.76,2.34L144,58l-3,3.46-2.44,3.87-1.74,4.18-1,4.38-.41,4.58m28.92-28.93V51M564.42,79.92V78.49m0,0h-1m1,0-.3-4.69L563,69.22l-1.84-4.38-2.44-4-3.06-3.57-3.56-3-4-2.44L543.75,50l-4.59-1.12-4.68-.3M563.4,78.49v1.43m0-1.43H562m1.42,0-.3-4.58L562,69.53l-1.73-4.18-2.34-3.87L555,58l-3.46-3-3.87-2.34L543.44,51l-4.38-1.12-4.58-.31m0-1v1m0-1h-55l-.1,1m0,0-.1,1.43m.1-1.43h55.1m0,0V51m-399,27.5v1.43m0-1.43H137m-2.45,33.2V262M259.29,406.14l.2-.31.61-.71,1-1.12,1.32-1.63,1.63-1.94,1.84-2.14,1.93-2.34m-8.55,10.19L267.84,396m-8.55,10.19.1,2M267.84,396l11.31-13.44M267.84,396l.61,1.33M141.34,289.82l-1.93,2.35-1.83,2.14L136,296.24l-1.33,1.63-1,1.12-.61.71-.2.31m8.55-10.19L132.79,300m8.55-10.19,11.31-13.44m-11.31,13.44-1.42-.4M132.79,300l-2,.2m-16.19-14.46.2-.3.72-.72.91-1.22,1.43-1.53,1.63-1.93,1.83-2.24m-6.72,7.94,6.72-7.94m-6.72,7.94.2,1.94m6.52-9.88,14.16-16.91m-14.16,16.91.31.3.4.31.31.41m-1-1,1,1M283.12,413.67l-1.84,2.14-1.62,1.94-1.33,1.63-1,1.22-.61.71-.2.2m6.62-7.84-6.62,7.84m6.62-7.84-.82-.61-.3-.3m1.12.91-1.12-.91m1.12.91,14.26-17M276.5,421.51l-2,.21M122.3,278.83l-2,2.44-1.83,2.14-1.53,1.83-1.12,1.33-.71.91-.31.21m7.54-8.86-7.54,8.86m7.54-8.86L137,261.31M122.3,278.83l10.18,6.31,6.83,3.46.81.31M122.3,278.83l17.82,10.08m-25.36-1.22,16,12.52m0,0,.31-.3.61-.72,1-1.32,1.42-1.63,1.74-2,1.93-2.34,2.14-2.44m-9.17,10.79,9.17-10.79m0,0,.1-.31.1-.2m-.2.51.2-.51m12.53-12.53-.2-2.14m.2,2.14,126.5,106.13m-139-93.6,12.33-14.67m116,123-2,2.44-1.93,2.34-1.73,2-1.43,1.73-1,1.22-.71.82-.2.3m9.06-10.89-9.06,10.89m9.06-10.89.21-.21.2-.1m-.41.31.41-.31m-9.47,11.2,15.07,13.55m0,0,.2-.31.72-.81,1.12-1.43,1.53-1.73,1.83-2.24,2.14-2.44m-7.54,9,7.54-9m0,0-4.08-4.38-3.56-4.08L272,401.55l-1.43-1.93-1-1.43-.51-.91-.2-.31M282,412.76,268.86,397M282,412.76l15.17-18.13M564.53,105.07v6.62H563.1m1.43-6.62-1.43.51m1.43-.51V86.54m-1.43,25.15H562V396.56m1.12-284.87v-6.11m-428.68-19V79.92h1.43m-1.43,6.62,1.43-.51m-1.43.51v18.53m1.43-25.15H137V78.49m-1.12,1.43V86M358.49,400.94l-1.74,7.23m1.74-7.23H370.1M387,70l-1.93.3-1.73,1L382,72.89l-.61,1.83v2l.61,1.83M387,70v-.11m0,.11h34.63M382,78.59l1.33,1.53,1.73,1M382,78.59l-.71-1.83v-2l.71-1.93,1.22-1.53,1.84-1,1.93-.31m-5,8.66,1.22,1.53,1.84,1m0,0,1.93.3m0,0h34.63M387,69.93h34.63m0,.11v-.11m0,.11,1.94.3,1.73,1,1.32,1.53.61,1.83v2l-.61,1.83m-5-8.66,1.94.31,1.83,1,1.22,1.53.72,1.93v2l-.72,1.83m-5,2.85,1.94-.3m0,0,1.73-1,1.32-1.53m-3.05,2.55,1.83-1,1.22-1.53m137.91,8V79.92H563.1m1.43,6.62L563.1,86m0-6.11V86m0-6.11H562V78.49m0,0-.41-4.28-.92-4.28-1.73-4-2.24-3.66L553.93,59l-3.26-2.75L547,54.05l-4-1.63-4.18-1L534.48,51m-55.2,0h55.2m-55.2,0H439.05M279.15,382.51l2-.31M268.86,397l12.32-14.77M135.44,260.9V111.69m0,149.21,1.53.41M281.18,382.2l-128.73-108M370.1,400.94l1.42-5.8m120.9,0H371.52m120.9,0v13M439.05,51H259.9m0,0H219.67m91.46,357.18-13.75-11.51m0,0-.21-2M562,396.56l-.41,4.38-.92,4.18-1.32,3.05ZM135.85,111.69H137V261.31m-1.12-149.62v-6.11m0,6.11h-1.43v-6.62M297.17,394.63l16.3,13.54M563.1,105.58H541.41m21.69,0V86m0,0H541.41M219.67,51H164.36M137,78.49l.3-4.28,1-4.28,1.63-4,2.34-3.66L145,59l3.26-2.75,3.67-2.24,4-1.63,4.18-1,4.27-.41M135.85,86h21.69m-21.69,0v19.55m-1.43-.51,1.43.51m0,0h21.69M280.06,385.87,293.3,397m-13.24-11.1,2.24-2.65m-2.24,2.65.41-.41.1-.2.41-.41m-.92,1,.92-1M293.3,397l2.24-2.65M293.3,397l.1-.1.11-.21.3-.3.1-.2.21-.21m-.82,1,.82-1M281,384.85,294.12,396M281,384.85l.51-.61M294.12,396l.51-.71M149.19,276l2.24-2.64M149.19,276l-13.34-11.1M149.19,276v-.1l.3-.3.1-.21.41-.4m-.81,1,.81-1m1.43-1.63-.1.1-.21.1-.1.2-.41.41-.1.2m.92-1-.92,1m.92-1-13.34-11.11M150,275l.51-.62M150,275l-13.24-11.11m13.75,10.49-13.14-11.1M295.54,394.32l-.91.92m.91-.92-13.24-11.1m12.33,12-13.14-11m-143.4-122v.11l-.31.3-.1.21-.21.2-.1.2m.72-1-.72,1m.72-1-2.24,2.65m1.52-1.63-.61.61m-.91,1,.1-.1.2-.1.1-.21.41-.4.1-.21m-.91,1,.91-1M282.3,383.22l-.2.2-.1.21-.21.2-.1.2-.2.21m.81-1-.81,1m-124-278.66V86m0,19.55h.61l2.95-.71,2.75-1.84,2-2.75.92-3.36-.21-3.36-1.32-3.26-2-2.24-2.65-1.52L157.54,86m383.87,0v19.55m0-19.55h-.62l-2.95.71-2.75,1.83-2,2.75-.91,3.26.2,3.46,1.22,3.16,2.14,2.34,2.65,1.53,3.06.51M143,289.62v-.51l-.1-.51v-.51m.1,1.53-.1-1.53m.1,1.53-.5.1H142l-.51.1m1.52-.2-1.52.2m1.42-1.73h1l.41-.1m-1.43.1,1.43-.1m-2.85,1.83.1.41v.51l.1.51m-.2-1.43.2,1.43M150,279.64l.61.41.21.2m-.82-.61.82.61m-.82-.61.31.2.2.31.2.2m-.71-.71.71.71m.11-.1.3.2m-.41-.1-.3-.1-.61-.41m.91.51-.91-.51m0,0,.41.61.2.41m-.61-1,.61,1m0,0-.41-.2-.3-.1-.41-.11m1.12.41-1.12-.41m0,0,.2.31.21.41.1.3m-.51-1,.51,1m0,0-.41-.1H149l-.4-.1m1.22.2-1.22-.2m0,0,.2.41.2.81m-.4-1.22.4,1.22m0,0-.4-.1h-.41l-.41-.1m1.22.2-1.22-.2m0,0,.1.41.11.5.1.41m-.31-1.32.31,1.32m0,0h-1.43m0,0,.1.41.1.51.11.41m-.31-1.33.31,1.33m0,0h-1l-.41.1m1.43-.1-1.43.1m0,0v.41l.2,1m-.2-1.42.2,1.42m0,0h-1l-.51.11m1.52-.11-1.52.11m0,0,.1.4v1m-.1-1.42.1,1.42m-2.65,3.26-.51.1h-1m1.53-.1-1.53.1m0,0v.51l.21,1m-.21-1.53.21,1.53m0,0h-1l-.51.1m1.53-.1-1.53.1m0,0,.1.41.1.51v.41m-.2-1.33.2,1.33m0,0h-1.32m0,0v.51l.1.4.1.51m-.2-1.42.2,1.42m0,0-.41-.1h-.91m1.32.1-1.32-.1m0,0,.2.82.21.4m-.41-1.22.41,1.22m0,0-.41-.1h-.41l-.41-.1m1.23.2-1.23-.2m0,0,.21.81.2.31m-.41-1.12.41,1.12m0,0-.81-.2-.31-.11m1.12.31-1.12-.31m0,0,.2.41.11.31.2.3m-.51-1,.51,1m0,0-.31-.1-.4-.2-.31-.11m1,.41-1-.41m0,0,.21.31.3.2.2.31m-.71-.82.71.82m0,0-.91-.61m0,0,.2.3.31.21.3.3m-.81-.81.81.81m0,0,.21.1m16.7-20,.41-.4,2-.21m-2.44.61v.1h-.1v.11l-.1.2-.21.1-.1.21-.2.2-.21.3m.92-1.22-.92,1.22m.92-1.22,2-.1m.4-.51,1.12.92m-1.12-.92-.4.51m122.21,104.4.41-.41-.1-2.14m-.31,2.55v.1l-.4.4-.11.21-.4.41m.91-1.12-.91,1.12m.91-1.12-.1-2m.41-.51-1.12-.92m1.12.92-.41.51m-.71-1.43-.82.21m.82-.21.2-.2m.51,1.63-1.53-1.22m1.53,1.22-.2.2-.1.21-.61.61-.21.3m1.12-1.32-1.12,1.32m-102.36-88.1.11-.71L159,282.29m13.75,12.42-.1.11-.2.3-.31.41m.61-.82-.61.82m.61-.82-14.56-12.22m.81-.2-.81.2m.81-.2.11-.21M195.83,314h-.2m.2,0,61.83,51.84.51-.2,13.95,11.71M195.83,314v-.1m-.2.1,76.49,64.17M195.63,314h-.2l-.21.31-.4.3m.81-.61-.81.61m77.3,62.74.2-.2m-.2.2v.82M155.6,279.54l.21-.21m-.21.21v.81m-1.52-1.22,1.52,1.22m-1.52-1.22-.31.31-.1.2-.21.2-.2.31-.3.2m1.12-1.22L153,280.35m122.11,99.41-2.54-2.14m2.54,2.14.21-.21m-.21.21-.3.3-.31.21m.61-.51-.61.51m-1.93-2.65-.21.41-.2.3m.41-.71-.41.71m.41-.71.1-.21M156,279.84l2.55,2.14M156,279.84l.1-.2m-.1.2-.1.11-.1.3-.21.31m.41-.72-.41.72m3,1.42.2-.2m-.2.2-.31.31-.3.2m.61-.51-.61.51m116.71,97.78-1.22,1.22m-1.32-3.36-.1.2-.41.51-.51.71m1-1.42-1,1.42m-76.28-65-22.72-19m-13.95-13-.2.21-.41.3-.61.71m1.22-1.22-1.22,1.22m-1.33-3.36-.1.21-.41.51-.5.71m1-1.43-1,1.43M275.38,384.65l-.31-1.84m.31,1.84-.72.81-1.63,2-1,1.22-1.12,1.22-1.12,1.43-1.12,1.32-1.23,1.43m7.95-9.47-7.95,9.47m7.64-11.31-1.63-1.32m1.63,1.32-.81.92-.82,1-1,1.22-1.12,1.22-1.12,1.43L269,390.15l-2.65,3.05m8.76-10.39-8.76,10.39M151.12,280.45l1.84-.1m-1.84.1-.71.82-.82.92-.91,1-.92,1.23-3.36,4-1.22,1.42m7.94-9.37-7.94,9.37m9.78-9.47,1.63,1.43M153,280.35l-.72.92-1.83,2.24-1.12,1.32-2.45,2.86-1.22,1.52-1.32,1.53M153,280.35l-8.66,10.39M132.18,303,112,287.18M132.18,303l11-13.14m-11,13.14.2,2m-.2-2-19.45-15.07m-.72-.71.72.71m-.72-.71-4.38,5.19m167.85,132-19.05-17.11m19.05,17.11-4.18,5.09m4.18-5.09-.82-.61m-18.23-16.5,11-13.14m-11,13.14-2,.2m2-.2,18.23,16.5M81.25,452.48l-.4,2.85m0,0,1,.1m-1-.1-.41,3.77.1,3.87.61,3.87,1.12,3.66,1.63,3.57,2,3.36,2.34,2.95L91.13,483m16.5-190.66-.51,2.85m.51-2.85.92.51M271.3,429.46l-96.75,89.42m96.75-89.42-.81-.71m4.17-5-2,.1m2-.1-4.17,5m-95.94,90.13-3.77,3-4.18,2.34L162,525.81l-4.68.91-4.79.11-4.79-.61-4.58-1.43-4.28-2.14L135,519.9m39.52-1-.72-.71m96.66-89.42-96.66,89.42m96.66-89.42-1-1m-187.6,27.7-.41,3.77.1,3.67.61,3.76,1.12,3.57,1.53,3.46,1.93,3.16,2.35,2.85,2.64,2.65m-9.87-26.89,1.42.31m-1.42-.31.5-3.06M91.13,483l.61-.71m-.61.71L135,519.9m-22.3-232,.3,2m-.3-2-4.18,5m0,0-.41,2.75m.41-2.75,1.43.61M91.74,482.32l43.9,36.77m-43.9-36.77,1-1.12M135,519.9l.61-.81m0,0,.92-1.12m-.92,1.12,3.77,2.75,4.18,2L148,525.2l4.68.61,4.58-.1,4.59-.82,4.38-1.63,4.07-2.24,3.56-2.85m0,0-1-1.12M143.18,289.82l1.12.92M92.76,481.2l-2.54-2.45L88,475.9,86.14,473l-1.52-3.26-1-3.46-.51-3.47L83,459.2l.3-3.46m9.47,25.46L136.56,518M267.43,394.12l-1.12-.92M132.38,305l11.92-14.26M132.38,305,113,289.93m41.56-8.15-1.23,1.53-1.52,1.83-1.74,2.24-2,2.34-2,2.55m8.56-10.49L146,292.27M83.29,455.74l1.94-11.82m188.21-62.43-1.32,1.42-1.63,1.84-1.83,2.14-1.94,2.34-2.14,2.44m8.86-10.18-8.86,10.18m1.73,1.53L254.4,407.46m11.91-14.26-1.73-1.53M144.3,290.74l1.73,1.53m-36,1.22,3-3.56m-3,3.56-1.84,11.1m163,75L156.93,283.71M271.1,379.55l-1.22,1.53L268.35,383l-1.73,2.14-1.94,2.34L262.54,390m8.56-10.49L262.54,390M156.93,283.71l-1.33,1.43L154,287l-1.83,2.14-1.93,2.34-2.14,2.45m8.86-10.19-8.86,10.19M254.4,407.46l18.23,16.4m-99.81,93.19-3.47,2.75-3.77,2.14-4.17,1.53-4.28.71-4.48.2-4.28-.61-4.28-1.32-3.87-1.94L136.56,518m36.26-.92,96.65-89.32m3.16-3.87-3.16,3.87M148.07,293.9,262.54,390M148.07,293.9l-.21.3M262.54,390l-.2.21M146,292.27l-.2.2m118.75,99.2-.2.31M147.86,294.2l-2-1.73m2,1.73.61-.91m-2.64-.82.81-.81m9-11.1,2.35,1.93m-2.35-1.93L153.06,284m4.89-1.53-3,3.16m119.47,94.62-2.34-1.94m2.34,1.94-2.95,3.15m.61-5.09-2.55,3.46M264.38,392l-2-1.73m2,1.73.71-.92m-2.75-.81.82-.82m8.35-6-1.94-1.63m1.94,1.63h-.1v.11h-.11v.1l-.3.3m.51-.51-.51.51m-1.43-2.14-.1.11v.1h-.1l-.1.1v.1l-.11.1m.41-.51-.41.51m1.84,1.63-5.5,6.62m5.5-6.62-1.84-1.63m-4.07,8.76V391h.1v-.1l.31-.31m-.41.51.41-.51m-.41.51-1.93-1.63m6-7.13-5.6,6.62m-.4.51v-.1h.1l.1-.1v-.1l.2-.21m-.4.51.4-.51m1.94,1.63-1.94-1.63M146.64,291.66v-.1h.1l.1-.11v-.1l.21-.2m-.41.51.41-.51m-.41.51,1.83,1.63m4.59-9.27-.1.1v.1h-.11l-.2.21v.1m.41-.51-.41.51m.41-.51,1.93,1.63m0,0h-.1v.1h-.1v.1l-.31.31m.51-.51-.51.51m-6,7.13h.11v-.1h.1v-.11l.3-.3m-.51.51.51-.51m-1.93-1.63,5.6-6.62m-5.6,6.62,1.93,1.63m3.67-8.25,1.83,1.63m0,0-5.5,6.62m46.75,20.47-1,1.22m1-1.22,62,52m-62-52,.1.61m61.93,51.43-.31.31m.31-.31H257l-61.21-51.43M407.17,75.74l-.2-1.12-.62-.92-.91-.61m1.73,2.65-.2,1.12-.62.92m.82-2-.2,1-.62,1m-.91-4.69-1.12-.2-1.12.2m0,0-.92.61-.61.92-.2,1.12m0,0,.2,1.12.61.92m-.81-2,.2,1,.61,1m0,0,.92.61,1.12.2,1.12-.2.91-.61m-16.49-2-.21-1.12L389,73.7l-.92-.61m1.74,2.65-.21,1.12-.61.92m.82-2-.21,1-.61,1m-.92-4.69-1.12-.2-1.12.2m0,0-.91.61-.61.92-.21,1.12m0,0,.21,1.12.61.92m-.82-2,.21,1,.61,1m0,0,.91.61,1.12.2,1.12-.2.92-.61m35.44-2-.2-1.12-.61-.92-.92-.61m1.73,2.65-.2,1.12-.61.92m.81-2-.2,1-.61,1m-.92-4.69-1.12-.2-1.12.2m0,0-.92.61-.61.92-.2,1.12m0,0,.2,1.12.61.92m-.81-2,.2,1,.61,1m0,0,.92.61,1.12.2,1.12-.2.92-.61m-49.6,329.88v-9.57h4.38m-4.38,9.57v.51m0-.51h4.38m111.11,0v-9.57h-4.37m4.37,9.57v.51m0-.51h-4.37m-105.32,0V397.38h-1.42v10.28m1.42,0h-1.42m1.42,0H483.76m0,0V397.38h1.43v10.28m-1.43,0h1.43m4.37.51,71.4.21m-71.4-.21H374.07m0,0H309.6M100.91,270.58l.41-.41.71-.82,1.12-1.32,1.43-1.73,1.63-1.94,1.83-2.14,1.83-2.24,1.74-2.14,1.73-2,1.42-1.63,1-1.33.82-.91.3-.41m-16,19,16-19m-16,19,.1,1.22m15.89-20.27,1.22-.1m0,0-.2.3-.61.72-1,1.22-1.43,1.63-1.52,1.93-1.84,2.14-3.87,4.48L105.9,266l-1.63,1.94L103,269.56l-1,1.22-.71.81-.21.21m17.11-20.37L101,271.8m17.11-20.37,14.16,11.91M101,271.8l14.16,11.91m0,0,.2-.3.72-.71,1-1.23,1.32-1.63,1.63-1.93,1.73-2.14,3.87-4.48,1.73-2.24,1.63-1.94,1.43-1.53,1-1.22.61-.81.2-.21m-17.11,20.37,17.11-20.37m-17.11,20.37,1.22-.1m15.89-20.27.1,1.23m-17.21,68.85-5.4,6.41m5.4-6.41.71-.72.92-.61.92-.41m-2.55,1.74,2.55-1.74m-8,8.15-.61.82-.41.91-.2,1m1.22-2.75-1.22,2.75m57-27.7-47.86,16.8m47.86-16.8,1.13-.31h1.12l1.22.21,1,.41,1,.71m-5.5-1,5.5,1m21,17.62-21-17.62m21,17.62.81.71.61,1,.41,1,.2,1.12v1l-.3,1.12-.41,1-.61.91m-.71-7.94.71,7.94m-84.23,1.12-8.25,50.11m0,0-.1,1.12.2,1.22.41,1,.61,1,.82.82m-1.94-5.2,1.94,5.2m29,16.9,61.52-73.33m-61.52,73.33-.81.82-.92.61-1.12.41-1,.2h-1.12l-1.12-.2-1-.51-.91-.61m8-.72-8,.72m-21-17.62,21,17.62m71.39-103.58-1.22,1.42m-17.62-17.21-1.22,1.43M82.27,452.48v.1l-1.42-.21m1.42.11,2.55-6.73m-2.55,6.73-1.42-.21m0,.1-.82-.1m.82.1v-.1m27.29-156.74v-.1l-1.42-.31m1.42.41.21,7.23m-.21-7.23-1.42-.31m0-.1v.1m0-.1-.82-.1m2.45,7.74v.61l-.11.61-.1.71-.1.82-.1.92-.2.91-.11,1m.72-5.6-.72,5.6m.72-5.6-1.43-.31m-.2-7.23.2,7.23m-22.1,143.3-1.43-.3m1.43.3.1-.3L85,445l.1-.51.11-.71.2-.82.1-.91.21-.92.2-1m-1.12,5.6,1.12-5.6m-5.09,12.12,2.54-6.82m24.24-137.09L85.94,440.15m21.69-131.79-1.42-.2m.71-5.71v.72l-.1.61-.1.71-.11.82-.1.91-.2.92-.1,1m.71-5.71-.71,5.71M83.39,445.45l.11-.2.1-.41.2-1.22.2-.82.11-.92.2-1,.2-.92m-1.12,5.5,1.12-5.5m1.43.2-1.43-.2M80,452.27v-.51l.1-.51.11-.71.1-.81.1-1,.41-2.24m-.82,5.8.82-5.8M84.51,440l21.7-131.79M105.9,295v.1l-.1.31-.1.61-.21.61-.1.92-.4,2-.21,1.12m1.12-5.7-1.12,5.7m0,0L80.85,446.47m402.91-48.38H379.87m110.61,2.85h-.92m1.23,7.23v-3.26l-.1-1.52v-1.12l-.11-.92-.1-.51v-.2l-.1.2v.1ZM168.64,385.46l.31-.1.71-.51.51-.71.1-.82Zm-.51-4.28-.81.1-.72.51-.51.72-.1.81v.41Zm5.7,8.66.21-.2,1.53-1.84Zm-14-9.17-.3,1.43v2.34l.1.72Zm8.45-6h-.81l-2.24.51-1.12.51ZM406.56,75.74l-.1-.92-.51-.71-.72-.51-.91-.2-.92.2-.71.51-.51.71-.1.92.1.81.51.82.71.41.92.2.91-.2.72-.41.51-.82Zm-17.32,0-.1-.92-.51-.71-.81-.51-.82-.2-.91.2-.72.51-.51.71-.1.92.1.81.51.82.72.41.91.2.82-.2.81-.41.51-.82Zm34.63,0-.1-.92-.51-.71-.71-.51-.92-.2-.81.2-.82.51-.51.71-.1.92.1.81.51.82.82.41.81.2.92-.2.71-.41.51-.82ZM194.71,343.19l-26.17,31.17-1.12,2-.21,2.24.62,2.14,1.42,1.73L221.5,426.4l1.93,1,2.25.31,2.13-.72,1.84-1.32,26.07-31.27,1.12-1.93.2-2.24-.61-2.14L255,386.38l-52.15-43.9-2-1-2.24-.3-2.14.61Zm-35.34,42.07L133.3,416.42l-1.12,1.94-.2,2.24.61,2.24,1.42,1.73,52.15,43.8,2,1.12,2.24.2,2.13-.61,1.74-1.43,26.17-31.16,1.12-1.94.21-2.24-.62-2.24-1.42-1.73-52.25-43.8-1.94-1.12-2.24-.2-2.13.61Zm-35.24,42L98,458.38l-1,2-.31,2.24.61,2.14,1.43,1.73,52.25,43.9,2,1,2.24.3,2.14-.61,1.73-1.42,26.17-31.17,1.12-2,.21-2.24-.62-2.14-1.42-1.73-52.25-43.89-1.93-1-2.25-.31-2.13.61Z"/><rect class="cls-2" x="158.62" y="113.3" width="52.4" height="52.34" rx="5.85"/><rect class="cls-2" x="158.62" y="168.17" width="52.4" height="52.34" rx="5.85"/><rect class="cls-2" x="158.62" y="222.97" width="52.4" height="52.34" rx="5.85"/><rect class="cls-2" x="213.4" y="108.97" width="52.4" height="52.34" rx="5.85"/><rect class="cls-2" x="213.4" y="163.84" width="52.4" height="52.34" rx="5.85"/><rect class="cls-2" x="213.4" y="218.64" width="52.4" height="52.34" rx="5.85"/><rect class="cls-2" x="213.4" y="273.54" width="52.4" height="52.34" rx="5.85"/><rect class="cls-2" x="268.17" y="100.27" width="52.4" height="52.34" rx="5.85"/><rect class="cls-2" x="268.17" y="155.14" width="52.4" height="52.34" rx="5.85"/><rect class="cls-2" x="268.17" y="209.94" width="52.4" height="52.34" rx="5.85"/><rect class="cls-2" x="268.17" y="264.84" width="52.4" height="52.34" rx="5.85"/><rect class="cls-2" x="268.17" y="319.74" width="52.4" height="52.34" rx="5.85"/><rect class="cls-2" x="323.17" y="96.07" width="52.4" height="52.34" rx="5.85"/><rect class="cls-2" x="323.17" y="150.94" width="52.4" height="52.34" rx="5.85"/><rect class="cls-2" x="323.17" y="205.74" width="52.4" height="52.34" rx="5.85"/><rect class="cls-2" x="323.17" y="260.64" width="52.4" height="52.34" rx="5.85"/><rect class="cls-2" x="323.17" y="315.54" width="52.4" height="52.34" rx="5.85"/><rect class="cls-2" x="378.1" y="100.27" width="52.4" height="52.34" rx="5.85"/><rect class="cls-2" x="378.1" y="155.14" width="52.4" height="52.34" rx="5.85"/><rect class="cls-2" x="378.1" y="209.94" width="52.4" height="52.34" rx="5.85"/><rect class="cls-2" x="378.1" y="264.84" width="52.4" height="52.34" rx="5.85"/><rect class="cls-2" x="378.1" y="319.74" width="52.4" height="52.34" rx="5.85"/><rect class="cls-2" x="432.92" y="108.97" width="52.4" height="52.34" rx="5.85"/><rect class="cls-2" x="432.92" y="163.84" width="52.4" height="52.34" rx="5.85"/><rect class="cls-2" x="432.92" y="218.64" width="52.4" height="52.34" rx="5.85"/><rect class="cls-2" x="432.92" y="273.54" width="52.4" height="52.34" rx="5.85"/><rect class="cls-2" x="432.92" y="328.44" width="52.4" height="52.34" rx="5.85"/><rect class="cls-2" x="487.74" y="113.29" width="52.4" height="52.34" rx="5.85"/><rect class="cls-2" x="487.74" y="168.16" width="52.4" height="52.34" rx="5.85"/><rect class="cls-2" x="487.74" y="222.96" width="52.4" height="52.34" rx="5.85"/><rect class="cls-2" x="487.74" y="277.86" width="52.4" height="52.34" rx="5.85"/><rect class="cls-2" x="487.74" y="332.76" width="52.4" height="52.34" rx="5.85"/><line class="cls-1" x1="287.29" y1="236.1" x2="301.46" y2="236.1"/><line class="cls-1" x1="294.37" y1="243.19" x2="294.37" y2="229.02"/><text class="cls-3" transform="translate(3.29 25.2)">Moonlander</text><line class="cls-4" x1="143.28" y1="57.3" x2="56.83" y2="25.03"/><rect id="border" class="cls-4" x="0.25" y="0.25" width="751.18" height="565.7"/></g></g></g></svg>