<svg xmlns="http://www.w3.org/2000/svg" viewBox="0 0 751.68 566.2"><defs><style>.cls-1,.cls-2,.cls-4{fill:none;stroke:#000;}.cls-1{stroke-miterlimit:11.34;}.cls-2{stroke-linecap:round;stroke-linejoin:round;}.cls-3{font-size:10px;font-family:FiraSansCondensed-Medium, Fira Sans Condensed;font-weight:500;}.cls-4{stroke-miterlimit:10;stroke-width:0.5px;}</style></defs><g id="Layer_2" data-name="Layer 2"><g id="main"><g id="nyquist"><g id="nyquist-2" data-name="nyquist"><g id="nyquist-3" data-name="nyquist"><polygon class="cls-1" points="546.04 83.91 546.71 83.93 547.38 84.01 548.03 84.14 548.67 84.32 549.3 84.56 549.91 84.83 550.49 85.16 551.04 85.53 551.57 85.94 552.06 86.4 552.51 86.89 552.93 87.41 553.3 87.97 553.63 88.55 553.9 89.16 554.13 89.78 554.32 90.43 554.45 91.08 554.52 91.74 554.55 92.41 554.55 379.85 554.52 380.51 554.45 381.18 554.32 381.83 554.13 382.48 553.9 383.1 553.63 383.71 553.3 384.29 552.93 384.85 552.51 385.37 552.06 385.86 551.57 386.31 551.04 386.73 550.49 387.1 549.91 387.43 549.3 387.7 548.67 387.94 548.03 388.12 547.38 388.25 546.71 388.32 546.04 388.35 204.62 388.35 203.94 388.32 203.28 388.25 202.63 388.12 201.98 387.94 201.36 387.7 200.75 387.43 200.17 387.1 199.61 386.73 199.09 386.31 198.6 385.86 198.14 385.37 197.73 384.85 197.36 384.29 197.03 383.71 196.75 383.1 196.52 382.48 196.34 381.83 196.21 381.18 196.13 380.51 196.11 379.85 196.1 92.41 196.13 91.74 196.21 91.08 196.34 90.43 196.52 89.78 196.75 89.16 197.03 88.55 197.36 87.97 197.73 87.41 198.14 86.89 198.6 86.4 199.09 85.94 199.61 85.53 200.17 85.16 200.75 84.83 201.36 84.56 201.98 84.32 202.63 84.14 203.28 84.01 203.94 83.93 204.62 83.91 546.04 83.91"/><polygon class="cls-1" points="375.33 376.87 375.1 376.88 374.86 376.91 374.63 376.95 374.41 377.02 374.19 377.1 373.98 377.19 373.77 377.31 373.58 377.44 373.39 377.58 373.23 377.74 373.07 377.92 372.92 378.1 372.79 378.29 372.68 378.5 372.58 378.71 372.5 378.93 372.43 379.15 372.39 379.38 372.36 379.61 372.35 379.85 372.36 380.08 372.39 380.31 372.43 380.54 372.5 380.77 372.58 380.99 372.68 381.2 372.79 381.4 372.92 381.6 373.07 381.78 373.23 381.95 373.39 382.11 373.58 382.25 373.77 382.39 373.98 382.5 374.19 382.6 374.41 382.68 374.63 382.74 374.86 382.79 375.1 382.81 375.33 382.82 375.56 382.81 375.79 382.79 376.02 382.74 376.25 382.68 376.47 382.6 376.68 382.5 376.88 382.39 377.08 382.25 377.26 382.11 377.43 381.95 377.59 381.78 377.74 381.6 377.87 381.4 377.98 381.2 378.08 380.99 378.16 380.77 378.22 380.54 378.27 380.31 378.3 380.08 378.31 379.85 378.3 379.61 378.27 379.38 378.22 379.15 378.16 378.93 378.08 378.71 377.98 378.5 377.87 378.29 377.74 378.1 377.59 377.92 377.43 377.74 377.26 377.58 377.08 377.44 376.88 377.31 376.68 377.19 376.47 377.1 376.25 377.02 376.02 376.95 375.79 376.91 375.56 376.88 375.33 376.87"/><polygon class="cls-1" points="204.82 376.87 203.97 377 203.2 377.4 202.59 378.01 202.19 378.78 202.06 379.64 202.19 380.49 202.59 381.26 203.2 381.87 203.97 382.26 204.82 382.4 205.68 382.26 206.45 381.87 207.06 381.26 207.45 380.49 207.59 379.64 207.45 378.78 207.06 378.01 206.45 377.4 205.68 377 204.82 376.87"/><polygon class="cls-1" points="545.84 376.87 544.98 377 544.21 377.4 543.6 378.01 543.2 378.78 543.07 379.64 543.2 380.49 543.6 381.26 544.21 381.87 544.98 382.26 545.84 382.4 546.69 382.26 547.46 381.87 548.07 381.26 548.46 380.49 548.6 379.64 548.46 378.78 548.07 378.01 547.46 377.4 546.69 377 545.84 376.87"/><polygon class="cls-1" points="490.7 324.5 490.7 326.2 488.43 326.2 488.43 362.06 490.7 362.06 490.7 363.76 529.96 363.76 529.96 362.06 532.23 362.06 532.23 326.2 529.96 326.2 529.96 324.5 490.7 324.5"/><polygon class="cls-1" points="436.7 324.5 436.7 326.2 434.43 326.2 434.43 362.06 436.7 362.06 436.7 363.76 475.96 363.76 475.96 362.06 478.23 362.06 478.23 326.2 475.96 326.2 475.96 324.5 436.7 324.5"/><polygon class="cls-1" points="382.7 324.5 382.7 326.2 380.43 326.2 380.43 362.06 382.7 362.06 382.7 363.76 421.96 363.76 421.96 362.06 424.23 362.06 424.23 326.2 421.96 326.2 421.96 324.5 382.7 324.5"/><polygon class="cls-1" points="328.7 324.5 328.7 326.2 326.43 326.2 326.43 362.06 328.7 362.06 328.7 363.76 367.96 363.76 367.96 362.06 370.23 362.06 370.23 326.2 367.96 326.2 367.96 324.5 328.7 324.5"/><polygon class="cls-1" points="274.7 324.5 274.7 326.2 272.43 326.2 272.43 362.06 274.7 362.06 274.7 363.76 313.96 363.76 313.96 362.06 316.23 362.06 316.23 326.2 313.96 326.2 313.96 324.5 274.7 324.5"/><polygon class="cls-1" points="220.7 324.5 220.7 326.2 218.43 326.2 218.43 362.06 220.7 362.06 220.7 363.76 259.96 363.76 259.96 362.06 262.23 362.06 262.23 326.2 259.96 326.2 259.96 324.5 220.7 324.5"/><polygon class="cls-1" points="490.7 270.5 490.7 272.2 488.43 272.2 488.43 308.06 490.7 308.06 490.7 309.76 529.96 309.76 529.96 308.06 532.23 308.06 532.23 272.2 529.96 272.2 529.96 270.5 490.7 270.5"/><polygon class="cls-1" points="436.7 270.5 436.7 272.2 434.43 272.2 434.43 308.06 436.7 308.06 436.7 309.76 475.96 309.76 475.96 308.06 478.23 308.06 478.23 272.2 475.96 272.2 475.96 270.5 436.7 270.5"/><polygon class="cls-1" points="382.7 270.5 382.7 272.2 380.43 272.2 380.43 308.06 382.7 308.06 382.7 309.76 421.96 309.76 421.96 308.06 424.23 308.06 424.23 272.2 421.96 272.2 421.96 270.5 382.7 270.5"/><polygon class="cls-1" points="328.7 270.5 328.7 272.2 326.43 272.2 326.43 308.06 328.7 308.06 328.7 309.76 367.96 309.76 367.96 308.06 370.23 308.06 370.23 272.2 367.96 272.2 367.96 270.5 328.7 270.5"/><polygon class="cls-1" points="274.7 270.5 274.7 272.2 272.43 272.2 272.43 308.06 274.7 308.06 274.7 309.76 313.96 309.76 313.96 308.06 316.23 308.06 316.23 272.2 313.96 272.2 313.96 270.5 274.7 270.5"/><polygon class="cls-1" points="220.7 270.5 220.7 272.2 218.43 272.2 218.43 308.06 220.7 308.06 220.7 309.76 259.96 309.76 259.96 308.06 262.23 308.06 262.23 272.2 259.96 272.2 259.96 270.5 220.7 270.5"/><polygon class="cls-1" points="490.7 216.5 490.7 218.2 488.43 218.2 488.43 254.06 490.7 254.06 490.7 255.76 529.96 255.76 529.96 254.06 532.23 254.06 532.23 218.2 529.96 218.2 529.96 216.5 490.7 216.5"/><polygon class="cls-1" points="436.7 216.5 436.7 218.2 434.43 218.2 434.43 254.06 436.7 254.06 436.7 255.76 475.96 255.76 475.96 254.06 478.23 254.06 478.23 218.2 475.96 218.2 475.96 216.5 436.7 216.5"/><polygon class="cls-1" points="382.7 216.5 382.7 218.2 380.43 218.2 380.43 254.06 382.7 254.06 382.7 255.76 421.96 255.76 421.96 254.06 424.23 254.06 424.23 218.2 421.96 218.2 421.96 216.5 382.7 216.5"/><polygon class="cls-1" points="328.7 216.5 328.7 218.2 326.43 218.2 326.43 254.06 328.7 254.06 328.7 255.76 367.96 255.76 367.96 254.06 370.23 254.06 370.23 218.2 367.96 218.2 367.96 216.5 328.7 216.5"/><polygon class="cls-1" points="274.7 216.5 274.7 218.2 272.43 218.2 272.43 254.06 274.7 254.06 274.7 255.76 313.96 255.76 313.96 254.06 316.23 254.06 316.23 218.2 313.96 218.2 313.96 216.5 274.7 216.5"/><polygon class="cls-1" points="220.7 216.5 220.7 218.2 218.43 218.2 218.43 254.06 220.7 254.06 220.7 255.76 259.96 255.76 259.96 254.06 262.23 254.06 262.23 218.2 259.96 218.2 259.96 216.5 220.7 216.5"/><polygon class="cls-1" points="546.04 233.15 545.81 233.16 545.58 233.19 545.35 233.24 545.13 233.3 544.91 233.38 544.7 233.48 544.49 233.59 544.3 233.72 544.11 233.87 543.94 234.03 543.78 234.2 543.64 234.38 543.51 234.57 543.39 234.78 543.29 234.99 543.22 235.21 543.15 235.44 543.11 235.66 543.08 235.9 543.07 236.13 543.08 236.36 543.11 236.59 543.15 236.82 543.22 237.05 543.29 237.27 543.39 237.48 543.51 237.69 543.64 237.88 543.78 238.06 543.94 238.23 544.11 238.39 544.3 238.54 544.49 238.67 544.7 238.78 544.91 238.88 545.13 238.96 545.35 239.02 545.58 239.07 545.81 239.1 546.04 239.11 546.28 239.1 546.51 239.07 546.74 239.02 546.97 238.96 547.18 238.88 547.4 238.78 547.6 238.67 547.8 238.54 547.98 238.39 548.15 238.23 548.31 238.06 548.45 237.88 548.59 237.69 548.7 237.48 548.8 237.27 548.88 237.05 548.94 236.82 548.99 236.59 549.01 236.36 549.02 236.13 549.01 235.9 548.99 235.66 548.94 235.44 548.88 235.21 548.8 234.99 548.7 234.78 548.59 234.57 548.45 234.38 548.31 234.2 548.15 234.03 547.98 233.87 547.8 233.72 547.6 233.59 547.4 233.48 547.18 233.38 546.97 233.3 546.74 233.24 546.51 233.19 546.28 233.16 546.04 233.15"/><polygon class="cls-1" points="204.62 233.15 204.38 233.16 204.14 233.19 203.91 233.24 203.69 233.3 203.47 233.38 203.26 233.48 203.06 233.59 202.86 233.72 202.68 233.87 202.51 234.03 202.35 234.2 202.2 234.38 202.07 234.57 201.96 234.78 201.86 234.99 201.78 235.21 201.72 235.44 201.67 235.66 201.64 235.9 201.63 236.13 201.64 236.36 201.67 236.59 201.72 236.82 201.78 237.05 201.86 237.27 201.96 237.48 202.07 237.69 202.2 237.88 202.35 238.06 202.51 238.23 202.68 238.39 202.86 238.54 203.06 238.67 203.26 238.78 203.47 238.88 203.69 238.96 203.91 239.02 204.14 239.07 204.38 239.1 204.62 239.11 204.84 239.1 205.08 239.07 205.31 239.02 205.53 238.96 205.75 238.88 205.96 238.78 206.16 238.67 206.36 238.54 206.54 238.39 206.72 238.23 206.87 238.06 207.02 237.88 207.15 237.69 207.26 237.48 207.36 237.27 207.44 237.05 207.5 236.82 207.55 236.59 207.58 236.36 207.59 236.13 207.58 235.9 207.55 235.66 207.5 235.44 207.44 235.21 207.36 234.99 207.26 234.78 207.15 234.57 207.02 234.38 206.87 234.2 206.72 234.03 206.54 233.87 206.36 233.72 206.16 233.59 205.96 233.48 205.75 233.38 205.53 233.3 205.31 233.24 205.08 233.19 204.84 233.16 204.62 233.15"/><polygon class="cls-1" points="490.7 162.5 490.7 164.2 488.43 164.2 488.43 200.06 490.7 200.06 490.7 201.76 529.96 201.76 529.96 200.06 532.23 200.06 532.23 164.2 529.96 164.2 529.96 162.5 490.7 162.5"/><polygon class="cls-1" points="436.7 162.5 436.7 164.2 434.43 164.2 434.43 200.06 436.7 200.06 436.7 201.76 475.96 201.76 475.96 200.06 478.23 200.06 478.23 164.2 475.96 164.2 475.96 162.5 436.7 162.5"/><polygon class="cls-1" points="382.7 162.5 382.7 164.2 380.43 164.2 380.43 200.06 382.7 200.06 382.7 201.76 421.96 201.76 421.96 200.06 424.23 200.06 424.23 164.2 421.96 164.2 421.96 162.5 382.7 162.5"/><polygon class="cls-1" points="328.7 162.5 328.7 164.2 326.43 164.2 326.43 200.06 328.7 200.06 328.7 201.76 367.96 201.76 367.96 200.06 370.23 200.06 370.23 164.2 367.96 164.2 367.96 162.5 328.7 162.5"/><polygon class="cls-1" points="274.7 162.5 274.7 164.2 272.43 164.2 272.43 200.06 274.7 200.06 274.7 201.76 313.96 201.76 313.96 200.06 316.23 200.06 316.23 164.2 313.96 164.2 313.96 162.5 274.7 162.5"/><polygon class="cls-1" points="220.7 162.5 220.7 164.2 218.43 164.2 218.43 200.06 220.7 200.06 220.7 201.76 259.96 201.76 259.96 200.06 262.23 200.06 262.23 164.2 259.96 164.2 259.96 162.5 220.7 162.5"/><polygon class="cls-1" points="490.7 108.5 490.7 110.2 488.43 110.2 488.43 146.06 490.7 146.06 490.7 147.76 529.96 147.76 529.96 146.06 532.23 146.06 532.23 110.2 529.96 110.2 529.96 108.5 490.7 108.5"/><polygon class="cls-1" points="436.7 108.5 436.7 110.2 434.43 110.2 434.43 146.06 436.7 146.06 436.7 147.76 475.96 147.76 475.96 146.06 478.23 146.06 478.23 110.2 475.96 110.2 475.96 108.5 436.7 108.5"/><polygon class="cls-1" points="382.7 108.5 382.7 110.2 380.43 110.2 380.43 146.06 382.7 146.06 382.7 147.76 421.96 147.76 421.96 146.06 424.23 146.06 424.23 110.2 421.96 110.2 421.96 108.5 382.7 108.5"/><polygon class="cls-1" points="328.7 108.5 328.7 110.2 326.43 110.2 326.43 146.06 328.7 146.06 328.7 147.76 367.96 147.76 367.96 146.06 370.23 146.06 370.23 110.2 367.96 110.2 367.96 108.5 328.7 108.5"/><polygon class="cls-1" points="274.7 108.5 274.7 110.2 272.43 110.2 272.43 146.06 274.7 146.06 274.7 147.76 313.96 147.76 313.96 146.06 316.23 146.06 316.23 110.2 313.96 110.2 313.96 108.5 274.7 108.5"/><polygon class="cls-1" points="220.7 108.5 220.7 110.2 218.43 110.2 218.43 146.06 220.7 146.06 220.7 147.76 259.96 147.76 259.96 146.06 262.23 146.06 262.23 110.2 259.96 110.2 259.96 108.5 220.7 108.5"/><polygon class="cls-1" points="545.84 89.86 544.98 90 544.21 90.39 543.6 91 543.2 91.77 543.07 92.62 543.2 93.48 543.6 94.25 544.21 94.86 544.98 95.25 545.84 95.39 546.69 95.25 547.46 94.86 548.07 94.25 548.46 93.48 548.6 92.62 548.46 91.77 548.07 91 547.46 90.39 546.69 90 545.84 89.86"/><polygon class="cls-1" points="379.27 89.44 379.04 89.44 378.81 89.47 378.58 89.52 378.35 89.58 378.13 89.66 377.92 89.76 377.71 89.87 377.52 90 377.34 90.15 377.17 90.31 377.01 90.48 376.87 90.66 376.73 90.86 376.62 91.06 376.52 91.27 376.44 91.49 376.38 91.72 376.33 91.94 376.3 92.18 376.3 92.41 376.3 92.64 376.33 92.88 376.38 93.11 376.44 93.33 376.52 93.55 376.62 93.76 376.73 93.97 376.87 94.16 377.01 94.34 377.17 94.52 377.34 94.67 377.52 94.82 377.71 94.95 377.92 95.06 378.13 95.16 378.35 95.24 378.58 95.3 378.81 95.35 379.04 95.38 379.27 95.39 379.5 95.38 379.74 95.35 379.97 95.3 380.19 95.24 380.41 95.16 380.62 95.06 380.83 94.95 381.02 94.82 381.2 94.67 381.37 94.52 381.53 94.34 381.68 94.16 381.81 93.97 381.92 93.76 382.02 93.55 382.1 93.33 382.17 93.11 382.21 92.88 382.24 92.64 382.25 92.41 382.24 92.18 382.21 91.94 382.17 91.72 382.1 91.49 382.02 91.27 381.92 91.06 381.81 90.86 381.68 90.66 381.53 90.48 381.37 90.31 381.2 90.15 381.02 90 380.83 89.87 380.62 89.76 380.41 89.66 380.19 89.58 379.97 89.52 379.74 89.47 379.5 89.44 379.27 89.44"/><polygon class="cls-1" points="305.57 89.44 305.34 89.44 305.11 89.47 304.88 89.52 304.65 89.58 304.43 89.66 304.22 89.76 304.01 89.87 303.82 90 303.64 90.15 303.47 90.31 303.31 90.48 303.16 90.66 303.03 90.86 302.92 91.06 302.82 91.27 302.74 91.49 302.68 91.72 302.63 91.94 302.6 92.18 302.59 92.41 302.6 92.64 302.63 92.88 302.68 93.11 302.74 93.33 302.82 93.55 302.92 93.76 303.03 93.97 303.16 94.16 303.31 94.34 303.47 94.52 303.64 94.67 303.82 94.82 304.01 94.95 304.22 95.06 304.43 95.16 304.65 95.24 304.88 95.3 305.11 95.35 305.34 95.38 305.57 95.39 305.8 95.38 306.04 95.35 306.26 95.3 306.49 95.24 306.71 95.16 306.92 95.06 307.13 94.95 307.32 94.82 307.5 94.67 307.67 94.52 307.83 94.34 307.98 94.16 308.11 93.97 308.22 93.76 308.32 93.55 308.4 93.33 308.46 93.11 308.51 92.88 308.54 92.64 308.55 92.41 308.54 92.18 308.51 91.94 308.46 91.72 308.4 91.49 308.32 91.27 308.22 91.06 308.11 90.86 307.98 90.66 307.83 90.48 307.67 90.31 307.5 90.15 307.32 90 307.13 89.87 306.92 89.76 306.71 89.66 306.49 89.58 306.26 89.52 306.04 89.47 305.8 89.44 305.57 89.44"/><polygon class="cls-1" points="204.82 89.86 203.97 90 203.2 90.39 202.59 91 202.19 91.77 202.06 92.62 202.19 93.48 202.59 94.25 203.2 94.86 203.97 95.25 204.82 95.39 205.68 95.25 206.45 94.86 207.06 94.25 207.45 93.48 207.59 92.62 207.45 91.77 207.06 91 206.45 90.39 205.68 90 204.82 89.86"/><line class="cls-2" x1="287.24" y1="236.13" x2="301.42" y2="236.13"/><line class="cls-2" x1="294.33" y1="243.22" x2="294.33" y2="229.04"/></g><text class="cls-3" transform="translate(3.29 49.68)">Nyquist</text></g><line class="cls-4" x1="198.14" y1="86.89" x2="39.16" y2="48.55"/><rect id="border" class="cls-4" x="0.25" y="0.25" width="751.18" height="565.7"/></g></g></g></svg>