<svg xmlns="http://www.w3.org/2000/svg" viewBox="0 0 751.68 566.2"><defs><style>.cls-1,.cls-2,.cls-4{fill:none;stroke:#000;}.cls-1,.cls-2{stroke-linecap:round;stroke-linejoin:round;}.cls-1{stroke-width:0.71px;}.cls-3{font-size:10px;font-family:FiraSansCondensed-Medium, Fira Sans Condensed;font-weight:500;}.cls-4{stroke-miterlimit:10;stroke-width:0.5px;}</style></defs><g id="Layer_2" data-name="Layer 2"><g id="main"><g id="pteron36"><g id="pteron36-2" data-name="pteron36"><g id="SPLINE"><path class="cls-1" d="M140,469.5a8.42,8.42,0,0,1-2.72,1.85,8.48,8.48,0,0,1-6.44.09,8.5,8.5,0,0,1-3.11-2.12"/></g><g id="SPLINE-2" data-name="SPLINE"><path class="cls-1" d="M140,469.5c10.06-10.22,11.83-12,14.21-14.28"/></g><g id="SPLINE-3" data-name="SPLINE"><path class="cls-1" d="M154.25,455.22A217.94,217.94,0,0,1,278,396.57"/></g><g id="SPLINE-4" data-name="SPLINE"><path class="cls-1" d="M278,396.57a23.41,23.41,0,0,0,20.89-18.44,24.06,24.06,0,0,0,.51-4.88"/></g><g id="LINE"><line class="cls-1" x1="299.38" y1="373.25" x2="299.38" y2="371.46"/></g><g id="LINE-2" data-name="LINE"><line class="cls-1" x1="299.38" y1="371.46" x2="299.38" y2="368.12"/></g><g id="ARC"><path class="cls-1" d="M307.87,359.63a8.49,8.49,0,0,0-8.49,8.49"/></g><g id="LINE-3" data-name="LINE"><line class="cls-1" x1="307.87" y1="359.63" x2="308.74" y2="359.63"/></g><g id="LINE-4" data-name="LINE"><line class="cls-1" x1="308.74" y1="359.63" x2="480.88" y2="359.63"/></g><g id="LINE-5" data-name="LINE"><line class="cls-1" x1="480.88" y1="359.63" x2="492.2" y2="359.63"/></g><g id="SPLINE-5" data-name="SPLINE"><path class="cls-1" d="M492.2,359.63a23.6,23.6,0,0,0,14.22-4.82,23.4,23.4,0,0,0,9.16-18.56"/></g><g id="LINE-6" data-name="LINE"><line class="cls-1" x1="515.58" y1="336.25" x2="515.58" y2="179.57"/></g><g id="SPLINE-6" data-name="SPLINE"><path class="cls-1" d="M515.58,179.57a23.37,23.37,0,0,0-23.32-23.38h0"/></g><g id="LINE-7" data-name="LINE"><line class="cls-1" x1="492.24" y1="156.19" x2="480.88" y2="156.19"/></g><g id="LINE-8" data-name="LINE"><line class="cls-1" x1="480.88" y1="156.19" x2="450" y2="156.19"/></g><g id="LINE-9" data-name="LINE"><line class="cls-1" x1="450" y1="156.19" x2="450" y2="152.62"/></g><g id="SPLINE-7" data-name="SPLINE"><path class="cls-1" d="M450,152.62a23.38,23.38,0,0,0-18.53-22.87,23.28,23.28,0,0,0-4.8-.51h0"/></g><g id="LINE-10" data-name="LINE"><line class="cls-1" x1="426.65" y1="129.24" x2="392.99" y2="129.24"/></g><g id="SPLINE-8" data-name="SPLINE"><path class="cls-1" d="M393,129.24c-.38-.63-.8-1.24-1.24-1.83a23.42,23.42,0,0,0-18.62-9.31h0"/></g><g id="LINE-11" data-name="LINE"><line class="cls-1" x1="373.11" y1="118.1" x2="323.81" y2="118.1"/></g><g id="SPLINE-9" data-name="SPLINE"><path class="cls-1" d="M323.81,118.1h0a23.41,23.41,0,0,0-22.19,16.17"/></g><g id="LINE-12" data-name="LINE"><line class="cls-1" x1="301.6" y1="134.27" x2="269.9" y2="134.27"/></g><g id="SPLINE-10" data-name="SPLINE"><path class="cls-1" d="M269.9,134.27h0a23.51,23.51,0,0,0-14.17,4.83c-.38.29-.76.6-1.12.92"/></g><g id="LINE-13" data-name="LINE"><line class="cls-1" x1="254.59" y1="140.02" x2="206.85" y2="140.02"/></g><g id="LINE-14" data-name="LINE"><line class="cls-1" x1="206.85" y1="140.02" x2="206.85" y2="251.07"/></g><g id="LINE-15" data-name="LINE"><line class="cls-1" x1="127.31" y1="251.08" x2="127.31" y2="140.03"/></g><g id="SPLINE-11" data-name="SPLINE"><path class="cls-1" d="M127.31,140a23.61,23.61,0,0,0-13.57,4.81,23.37,23.37,0,0,0-9.16,18.49v0h0"/></g><g id="LINE-16" data-name="LINE"><line class="cls-1" x1="104.58" y1="163.36" x2="104.58" y2="364.03"/></g><g id="LINE-17" data-name="LINE"><line class="cls-1" x1="104.58" y1="364.03" x2="104.58" y2="371.35"/></g><g id="SPLINE-12" data-name="SPLINE"><path class="cls-1" d="M104.58,371.35c-11.25,9.32-19,17.08-24.45,22.5L74,400"/></g><g id="SPLINE-13" data-name="SPLINE"><path class="cls-1" d="M74,412a8.37,8.37,0,0,1-1.82-2.73,8.48,8.48,0,0,1,0-6.44,8.68,8.68,0,0,1,.79-1.51A8.45,8.45,0,0,1,74,400"/></g><g id="LINE-18" data-name="LINE"><line class="cls-1" x1="73.97" y1="411.98" x2="82.73" y2="420.77"/></g><g id="LINE-19" data-name="LINE"><line class="cls-1" x1="82.73" y1="420.77" x2="127.77" y2="469.32"/></g><g id="LWPOLYLINE"><rect class="cls-1" x="227.77" y="334.03" width="39.53" height="39.53" transform="translate(-70.68 61.93) rotate(-12.49)"/></g><g id="LWPOLYLINE-2" data-name="LWPOLYLINE"><rect class="cls-1" x="382.41" y="210.96" width="39.53" height="39.53"/></g><g id="LWPOLYLINE-3" data-name="LWPOLYLINE"><rect class="cls-1" x="173.01" y="352.87" width="39.53" height="39.53" transform="translate(-139.4 116.35) rotate(-24.99)"/></g><g id="LWPOLYLINE-4" data-name="LWPOLYLINE"><rect class="cls-1" x="274.66" y="216.42" width="39.53" height="39.53"/></g><g id="LWPOLYLINE-5" data-name="LWPOLYLINE"><rect class="cls-1" x="382.46" y="265.08" width="39.53" height="39.53"/></g><g id="LWPOLYLINE-6" data-name="LWPOLYLINE"><rect class="cls-1" x="328.53" y="254.2" width="39.53" height="39.53"/></g><g id="LWPOLYLINE-7" data-name="LWPOLYLINE"><polygon class="cls-1" points="115.59 398.85 139.66 430.21 171.02 406.15 146.95 374.78 115.59 398.85"/></g><g id="LWPOLYLINE-8" data-name="LWPOLYLINE"><rect class="cls-1" x="436.27" y="184.2" width="39.53" height="39.53"/></g><g id="LWPOLYLINE-9" data-name="LWPOLYLINE"><rect class="cls-1" x="274.79" y="162.63" width="39.53" height="39.53"/></g><g id="LWPOLYLINE-10" data-name="LWPOLYLINE"><rect class="cls-1" x="382.54" y="157.17" width="39.53" height="39.53"/></g><g id="LWPOLYLINE-11" data-name="LWPOLYLINE"><rect class="cls-1" x="436.39" y="238.06" width="39.53" height="39.53"/></g><g id="LWPOLYLINE-12" data-name="LWPOLYLINE"><rect class="cls-1" x="436.51" y="291.93" width="39.53" height="39.53"/></g><g id="LWPOLYLINE-13" data-name="LWPOLYLINE"><rect class="cls-1" x="328.61" y="146.29" width="39.53" height="39.53"/></g><g id="LWPOLYLINE-14" data-name="LWPOLYLINE"><rect class="cls-1" x="220.83" y="275.88" width="39.53" height="39.53"/></g><g id="LWPOLYLINE-15" data-name="LWPOLYLINE"><rect class="cls-1" x="328.66" y="200.41" width="39.53" height="39.53"/></g><g id="LWPOLYLINE-16" data-name="LWPOLYLINE"><rect class="cls-1" x="220.78" y="221.76" width="39.53" height="39.53"/></g><g id="LWPOLYLINE-17" data-name="LWPOLYLINE"><rect class="cls-1" x="274.78" y="270.28" width="39.53" height="39.53"/></g><g id="LWPOLYLINE-18" data-name="LWPOLYLINE"><rect class="cls-1" x="220.65" y="167.89" width="39.53" height="39.53"/></g><g id="CIRCLE"><circle class="cls-1" cx="114.48" cy="263.7" r="2.83"/></g><g id="CIRCLE-2" data-name="CIRCLE"><circle class="cls-1" cx="81.99" cy="405.99" r="2.83"/></g><g id="CIRCLE-3" data-name="CIRCLE"><circle class="cls-1" cx="134.02" cy="461.5" r="2.83"/></g><g id="CIRCLE-4" data-name="CIRCLE"><circle class="cls-1" cx="289.66" cy="349.91" r="2.83"/></g><g id="CIRCLE-5" data-name="CIRCLE"><circle class="cls-1" cx="501.38" cy="345.4" r="2.83"/></g><g id="CIRCLE-6" data-name="CIRCLE"><circle class="cls-1" cx="501.36" cy="170.4" r="2.83"/></g><g id="CIRCLE-7" data-name="CIRCLE"><circle class="cls-1" cx="348.46" cy="128" r="2.83"/></g><g id="CIRCLE-8" data-name="CIRCLE"><circle class="cls-1" cx="218.11" cy="149.92" r="2.83"/></g><g id="CIRCLE-9" data-name="CIRCLE"><circle class="cls-1" cx="117.74" cy="154.89" r="2.83"/></g><g id="SPLINE-14" data-name="SPLINE"><path class="cls-1" d="M140,469.5a8.42,8.42,0,0,1-2.72,1.85,8.48,8.48,0,0,1-6.44.09,8.5,8.5,0,0,1-3.11-2.12"/></g><g id="SPLINE-15" data-name="SPLINE"><path class="cls-1" d="M140,469.5c10.06-10.22,11.83-12,14.21-14.28"/></g><g id="SPLINE-16" data-name="SPLINE"><path class="cls-1" d="M154.25,455.22A217.94,217.94,0,0,1,278,396.57"/></g><g id="SPLINE-17" data-name="SPLINE"><path class="cls-1" d="M278,396.57a23.41,23.41,0,0,0,20.89-18.44,24.06,24.06,0,0,0,.51-4.88"/></g><g id="LINE-20" data-name="LINE"><line class="cls-1" x1="299.38" y1="373.25" x2="299.38" y2="371.46"/></g><g id="LINE-21" data-name="LINE"><line class="cls-1" x1="299.38" y1="371.46" x2="299.38" y2="368.12"/></g><g id="ARC-2" data-name="ARC"><path class="cls-1" d="M307.87,359.63a8.49,8.49,0,0,0-8.49,8.49"/></g><g id="LINE-22" data-name="LINE"><line class="cls-1" x1="307.87" y1="359.63" x2="308.74" y2="359.63"/></g><g id="LINE-23" data-name="LINE"><line class="cls-1" x1="308.74" y1="359.63" x2="480.88" y2="359.63"/></g><g id="LINE-24" data-name="LINE"><line class="cls-1" x1="480.88" y1="359.63" x2="492.2" y2="359.63"/></g><g id="SPLINE-18" data-name="SPLINE"><path class="cls-1" d="M492.2,359.63a23.6,23.6,0,0,0,14.22-4.82,23.4,23.4,0,0,0,9.16-18.56"/></g><g id="LINE-25" data-name="LINE"><line class="cls-1" x1="515.58" y1="336.25" x2="515.58" y2="179.57"/></g><g id="SPLINE-19" data-name="SPLINE"><path class="cls-1" d="M515.58,179.57a23.37,23.37,0,0,0-23.32-23.38h0"/></g><g id="LINE-26" data-name="LINE"><line class="cls-1" x1="492.24" y1="156.19" x2="480.88" y2="156.19"/></g><g id="LINE-27" data-name="LINE"><line class="cls-1" x1="480.88" y1="156.19" x2="450" y2="156.19"/></g><g id="LINE-28" data-name="LINE"><line class="cls-1" x1="450" y1="156.19" x2="450" y2="152.62"/></g><g id="SPLINE-20" data-name="SPLINE"><path class="cls-1" d="M450,152.62a23.38,23.38,0,0,0-18.53-22.87,23.28,23.28,0,0,0-4.8-.51h0"/></g><g id="LINE-29" data-name="LINE"><line class="cls-1" x1="426.65" y1="129.24" x2="392.99" y2="129.24"/></g><g id="SPLINE-21" data-name="SPLINE"><path class="cls-1" d="M393,129.24c-.38-.63-.8-1.24-1.24-1.83a23.42,23.42,0,0,0-18.62-9.31h0"/></g><g id="LINE-30" data-name="LINE"><line class="cls-1" x1="373.11" y1="118.1" x2="323.81" y2="118.1"/></g><g id="SPLINE-22" data-name="SPLINE"><path class="cls-1" d="M323.81,118.1h0a23.41,23.41,0,0,0-22.19,16.17"/></g><g id="LINE-31" data-name="LINE"><line class="cls-1" x1="301.6" y1="134.27" x2="269.9" y2="134.27"/></g><g id="SPLINE-23" data-name="SPLINE"><path class="cls-1" d="M269.9,134.27h0a23.51,23.51,0,0,0-14.17,4.83c-.38.29-.76.6-1.12.92"/></g><g id="LINE-32" data-name="LINE"><line class="cls-1" x1="254.59" y1="140.02" x2="206.85" y2="140.02"/></g><g id="LINE-33" data-name="LINE"><line class="cls-1" x1="206.85" y1="140.02" x2="206.85" y2="251.07"/></g><g id="LINE-34" data-name="LINE"><line class="cls-1" x1="127.31" y1="251.08" x2="127.31" y2="140.03"/></g><g id="SPLINE-24" data-name="SPLINE"><path class="cls-1" d="M127.31,140a23.61,23.61,0,0,0-13.57,4.81,23.37,23.37,0,0,0-9.16,18.49v0h0"/></g><g id="LINE-35" data-name="LINE"><line class="cls-1" x1="104.58" y1="163.36" x2="104.58" y2="364.03"/></g><g id="LINE-36" data-name="LINE"><line class="cls-1" x1="104.58" y1="364.03" x2="104.58" y2="371.35"/></g><g id="SPLINE-25" data-name="SPLINE"><path class="cls-1" d="M104.58,371.35c-11.25,9.32-19,17.08-24.45,22.5L74,400"/></g><g id="SPLINE-26" data-name="SPLINE"><path class="cls-1" d="M74,412a8.37,8.37,0,0,1-1.82-2.73,8.48,8.48,0,0,1,0-6.44,8.68,8.68,0,0,1,.79-1.51A8.45,8.45,0,0,1,74,400"/></g><g id="LINE-37" data-name="LINE"><line class="cls-1" x1="73.97" y1="411.98" x2="82.73" y2="420.77"/></g><g id="LINE-38" data-name="LINE"><line class="cls-1" x1="82.73" y1="420.77" x2="127.77" y2="469.32"/></g><g id="CIRCLE-10" data-name="CIRCLE"><circle class="cls-1" cx="114.48" cy="263.7" r="2.83"/></g><g id="CIRCLE-11" data-name="CIRCLE"><circle class="cls-1" cx="81.99" cy="405.99" r="2.83"/></g><g id="CIRCLE-12" data-name="CIRCLE"><circle class="cls-1" cx="134.02" cy="461.5" r="2.83"/></g><g id="CIRCLE-13" data-name="CIRCLE"><circle class="cls-1" cx="289.66" cy="349.91" r="2.83"/></g><g id="CIRCLE-14" data-name="CIRCLE"><circle class="cls-1" cx="501.38" cy="345.4" r="2.83"/></g><g id="CIRCLE-15" data-name="CIRCLE"><circle class="cls-1" cx="501.36" cy="170.4" r="2.83"/></g><g id="CIRCLE-16" data-name="CIRCLE"><circle class="cls-1" cx="348.46" cy="128" r="2.83"/></g><g id="CIRCLE-17" data-name="CIRCLE"><circle class="cls-1" cx="218.11" cy="149.92" r="2.83"/></g><g id="CIRCLE-18" data-name="CIRCLE"><circle class="cls-1" cx="117.74" cy="154.89" r="2.83"/></g><g id="LWPOLYLINE-19" data-name="LWPOLYLINE"><rect class="cls-1" x="227.77" y="334.03" width="39.53" height="39.53" transform="translate(-70.68 61.93) rotate(-12.49)"/></g><g id="LWPOLYLINE-20" data-name="LWPOLYLINE"><rect class="cls-1" x="382.41" y="210.96" width="39.53" height="39.53"/></g><g id="LWPOLYLINE-21" data-name="LWPOLYLINE"><rect class="cls-1" x="173.01" y="352.87" width="39.53" height="39.53" transform="translate(-139.4 116.35) rotate(-24.99)"/></g><g id="LWPOLYLINE-22" data-name="LWPOLYLINE"><rect class="cls-1" x="274.66" y="216.42" width="39.53" height="39.53"/></g><g id="LWPOLYLINE-23" data-name="LWPOLYLINE"><rect class="cls-1" x="382.46" y="265.08" width="39.53" height="39.53"/></g><g id="LWPOLYLINE-24" data-name="LWPOLYLINE"><rect class="cls-1" x="328.53" y="254.2" width="39.53" height="39.53"/></g><g id="LWPOLYLINE-25" data-name="LWPOLYLINE"><polygon class="cls-1" points="115.59 398.85 139.66 430.21 171.02 406.15 146.95 374.78 115.59 398.85"/></g><g id="LWPOLYLINE-26" data-name="LWPOLYLINE"><rect class="cls-1" x="436.27" y="184.2" width="39.53" height="39.53"/></g><g id="LWPOLYLINE-27" data-name="LWPOLYLINE"><rect class="cls-1" x="274.79" y="162.63" width="39.53" height="39.53"/></g><g id="LWPOLYLINE-28" data-name="LWPOLYLINE"><rect class="cls-1" x="382.54" y="157.17" width="39.53" height="39.53"/></g><g id="LWPOLYLINE-29" data-name="LWPOLYLINE"><rect class="cls-1" x="436.39" y="238.06" width="39.53" height="39.53"/></g><g id="LWPOLYLINE-30" data-name="LWPOLYLINE"><rect class="cls-1" x="436.51" y="291.93" width="39.53" height="39.53"/></g><g id="LWPOLYLINE-31" data-name="LWPOLYLINE"><rect class="cls-1" x="328.61" y="146.29" width="39.53" height="39.53"/></g><g id="LWPOLYLINE-32" data-name="LWPOLYLINE"><rect class="cls-1" x="220.83" y="275.88" width="39.53" height="39.53"/></g><g id="LWPOLYLINE-33" data-name="LWPOLYLINE"><rect class="cls-1" x="328.66" y="200.41" width="39.53" height="39.53"/></g><g id="LWPOLYLINE-34" data-name="LWPOLYLINE"><rect class="cls-1" x="220.78" y="221.76" width="39.53" height="39.53"/></g><g id="LWPOLYLINE-35" data-name="LWPOLYLINE"><rect class="cls-1" x="274.78" y="270.28" width="39.53" height="39.53"/></g><g id="LWPOLYLINE-36" data-name="LWPOLYLINE"><rect class="cls-1" x="220.65" y="167.89" width="39.53" height="39.53"/></g><g id="LINE-39" data-name="LINE"><line class="cls-1" x1="127.31" y1="251.08" x2="127.31" y2="285.29"/></g><g id="LINE-40" data-name="LINE"><line class="cls-1" x1="127.31" y1="285.29" x2="206.85" y2="285.29"/></g><g id="LINE-41" data-name="LINE"><line class="cls-1" x1="206.85" y1="285.29" x2="206.85" y2="251.07"/></g><g id="LWPOLYLINE-37" data-name="LWPOLYLINE"><polygon class="cls-1" points="141.46 297.01 191.26 297.01 191.26 315.41 191.26 337.48 141.46 337.48 141.46 297.01"/></g></g><line class="cls-2" x1="287.34" y1="236.19" x2="301.51" y2="236.19"/><line class="cls-2" x1="294.43" y1="243.27" x2="294.43" y2="229.1"/><text class="cls-3" transform="translate(3.29 172.04)">Pteron36</text><line class="cls-4" x1="104.58" y1="167.62" x2="46.14" y2="168.1"/><rect id="border" class="cls-4" x="0.25" y="0.25" width="751.18" height="565.7"/></g></g></g></svg>