<svg xmlns="http://www.w3.org/2000/svg" viewBox="0 0 751.68 566.2"><defs><style>.cls-1,.cls-2,.cls-4,.cls-5{fill:none;stroke:#000;}.cls-1,.cls-5{stroke-miterlimit:10;}.cls-2,.cls-4{stroke-linecap:round;stroke-linejoin:round;}.cls-3{font-size:10px;font-family:FiraSansCondensed-Medium, Fira Sans Condensed;font-weight:500;}.cls-4,.cls-5{stroke-width:0.5px;}</style></defs><g id="Layer_2" data-name="Layer 2"><g id="main"><g id="quefrency_rev2"><path class="cls-1" d="M232.53,78.47H724.19a11.34,11.34,0,0,1,11.34,11.34V382.49a11.33,11.33,0,0,1-11.34,11.33H246a5.66,5.66,0,0,1-5.67-5.67V268.82a5.67,5.67,0,0,0-5.67-5.67H219a5.67,5.67,0,0,1-5.67-5.67V214.82a5.67,5.67,0,0,0-5.67-5.67h-2.16a5.67,5.67,0,0,1-5.67-5.67V160.82a5.67,5.67,0,0,1,5.67-5.67h15.66a5.67,5.67,0,0,0,5.67-5.67V84.14A5.67,5.67,0,0,1,232.53,78.47Z"/><rect class="cls-2" x="666.01" y="105.47" width="39.69" height="46.77"/><g id="LINE"><rect class="cls-2" x="666.01" y="162.3" width="39.69" height="39.69"/></g><g id="LINE-2" data-name="LINE"><rect class="cls-2" x="666.01" y="216.3" width="39.69" height="39.69"/></g><g id="LINE-3" data-name="LINE"><rect class="cls-2" x="666.01" y="270.3" width="39.69" height="39.69"/></g><g id="LINE-4" data-name="LINE"><rect class="cls-2" x="666.01" y="324.3" width="39.69" height="39.69"/></g><g id="LINE-5" data-name="LINE"><rect class="cls-2" x="234.01" y="108.3" width="39.69" height="39.69"/></g><g id="LINE-6" data-name="LINE"><rect class="cls-2" x="288.01" y="108.3" width="39.69" height="39.69"/></g><g id="LINE-7" data-name="LINE"><rect class="cls-2" x="342.01" y="108.3" width="39.69" height="39.69"/></g><g id="LINE-8" data-name="LINE"><rect class="cls-2" x="396.01" y="108.3" width="39.69" height="39.69"/></g><g id="LINE-9" data-name="LINE"><rect class="cls-2" x="450.01" y="108.3" width="39.69" height="39.69"/></g><g id="LINE-10" data-name="LINE"><rect class="cls-2" x="504.01" y="108.3" width="39.69" height="39.69"/></g><polygon class="cls-1" points="624.7 108.31 612.01 108.31 597.7 108.31 585.01 108.31 558.01 108.31 558.01 147.99 561.45 147.99 561.45 150.82 580.58 150.82 580.58 147.99 585.01 147.99 597.7 147.99 612.01 147.99 624.7 147.99 629.13 147.99 629.13 150.82 648.26 150.82 648.26 147.99 651.7 147.99 651.7 108.31 624.7 108.31"/><g id="LINE-11" data-name="LINE"><rect class="cls-2" x="207.01" y="162.3" width="39.69" height="39.69"/></g><g id="LINE-12" data-name="LINE"><rect class="cls-2" x="261.01" y="162.3" width="39.69" height="39.69"/></g><g id="LINE-13" data-name="LINE"><rect class="cls-2" x="315.01" y="162.3" width="39.69" height="39.69"/></g><g id="LINE-14" data-name="LINE"><rect class="cls-2" x="369.01" y="162.3" width="39.69" height="39.69"/></g><g id="LINE-15" data-name="LINE"><rect class="cls-2" x="423.01" y="162.3" width="39.69" height="39.69"/></g><g id="LINE-16" data-name="LINE"><rect class="cls-2" x="477.01" y="162.3" width="39.69" height="39.69"/></g><g id="LINE-17" data-name="LINE"><rect class="cls-2" x="531.01" y="162.3" width="39.69" height="39.69"/></g><g id="LINE-18" data-name="LINE"><rect class="cls-2" x="220.51" y="216.3" width="39.69" height="39.69"/></g><g id="LINE-19" data-name="LINE"><rect class="cls-2" x="274.51" y="216.3" width="39.69" height="39.69"/></g><g id="LINE-20" data-name="LINE"><rect class="cls-2" x="328.51" y="216.3" width="39.69" height="39.69"/></g><g id="LINE-21" data-name="LINE"><rect class="cls-2" x="382.51" y="216.3" width="39.69" height="39.69"/></g><g id="LINE-22" data-name="LINE"><rect class="cls-2" x="436.51" y="216.3" width="39.69" height="39.69"/></g><g id="LINE-23" data-name="LINE"><rect class="cls-2" x="490.51" y="216.3" width="39.69" height="39.69"/></g><polygon class="cls-1" points="644.95 228.99 644.95 189.31 638.2 189.31 638.2 184.87 642.11 184.87 642.11 165.74 638.2 165.74 638.2 162.31 598.51 162.31 598.51 201.99 605.26 201.99 605.26 216.31 584.2 216.31 578.26 216.31 544.51 216.31 544.51 255.99 554.7 255.99 554.7 258.82 573.83 258.82 573.83 255.99 578.26 255.99 584.2 255.99 617.95 255.99 617.95 252.55 622.38 252.55 622.38 258.82 641.51 258.82 641.51 252.55 642.11 252.55 642.11 233.42 641.51 233.42 641.51 228.99 644.95 228.99"/><g id="LINE-24" data-name="LINE"><rect class="cls-2" x="247.51" y="270.3" width="39.69" height="39.69"/></g><g id="LINE-25" data-name="LINE"><rect class="cls-2" x="301.51" y="270.3" width="39.69" height="39.69"/></g><g id="LINE-26" data-name="LINE"><rect class="cls-2" x="355.51" y="270.3" width="39.69" height="39.69"/></g><g id="LINE-27" data-name="LINE"><rect class="cls-2" x="409.51" y="270.3" width="39.69" height="39.69"/></g><polygon class="cls-1" points="503.2 270.31 483.76 270.31 463.51 270.31 463.51 309.99 483.76 309.99 503.2 309.99 523.45 309.99 523.45 270.31 503.2 270.31"/><polygon class="cls-1" points="612.01 270.31 612.01 273.14 608.88 273.14 608.88 312.82 628.01 312.82 628.01 309.99 651.7 309.99 651.7 270.31 612.01 270.31"/><polygon class="cls-1" points="577.45 270.31 564.76 270.31 558.01 270.31 537.76 270.31 537.76 309.99 541.2 309.99 541.2 312.82 560.33 312.82 560.33 309.99 564.76 309.99 577.45 309.99 597.7 309.99 604.45 309.99 604.45 270.31 597.7 270.31 577.45 270.31"/><polygon class="cls-1" points="368.2 363.99 281.26 363.99 254.26 363.99 254.26 324.31 257.7 324.31 257.7 321.47 271.2 321.47 276.83 321.47 290.33 321.47 290.33 324.31 293.95 324.31 294.76 324.31 320.95 324.31 325.38 324.31 325.38 321.47 338.88 321.47 344.51 321.47 358.01 321.47 358.01 324.31 368.2 324.31 368.2 363.99"/><polygon class="cls-1" points="644.95 324.31 612.01 324.31 605.26 324.31 605.26 363.99 612.01 363.99 644.95 363.99 651.7 363.99 651.7 324.31 644.95 324.31"/><rect class="cls-1" x="375.76" y="324.3" width="221.94" height="39.69"/><circle class="cls-1" cx="238.19" cy="89.81" r="3.12"/><circle class="cls-1" cx="306.3" cy="89.81" r="3.12"/><circle class="cls-1" cx="519.51" cy="89.81" r="3.12"/><circle class="cls-1" cx="582.21" cy="89.81" r="3.12"/><circle class="cls-1" cx="251.69" cy="382.49" r="3.12"/><circle class="cls-1" cx="486.97" cy="382.49" r="3.12"/><circle class="cls-1" cx="722.21" cy="91.79" r="3.12"/><circle class="cls-1" cx="722.21" cy="380.5" r="3.12"/><line class="cls-2" x1="287.26" y1="236.15" x2="301.43" y2="236.15"/><line class="cls-2" x1="294.35" y1="243.23" x2="294.35" y2="229.06"/><text class="cls-3" transform="translate(675.58 426.13)">Quefrency R2</text><line class="cls-4" x1="678.64" y1="416.78" x2="678.64" y2="393.98"/><rect id="border" class="cls-5" x="0.25" y="0.25" width="751.18" height="565.7"/></g></g></g></svg>