<svg xmlns="http://www.w3.org/2000/svg" viewBox="0 0 751.68 566.2"><defs><style>.cls-1,.cls-3,.cls-4,.cls-5{fill:none;}.cls-1{stroke:#231f20;}.cls-2{font-size:10px;font-family:FiraSansCondensed-Medium, Fira Sans Condensed;font-weight:500;}.cls-3,.cls-4,.cls-5{stroke:#000;}.cls-3,.cls-4{stroke-linecap:round;stroke-linejoin:round;}.cls-3,.cls-5{stroke-width:0.5px;}.cls-5{stroke-miterlimit:10;}</style></defs><g id="Layer_2" data-name="Layer 2"><g id="main"><g id="quefrency_rev1"><g id="quefrency_rev1-2" data-name="quefrency_rev1"><polygon class="cls-1" points="396.2 324.46 396.2 326.15 393.94 326.15 393.94 362.44 396.2 362.44 396.2 364.14 442.64 364.14 442.64 362.44 444.9 362.44 444.9 326.15 442.64 326.15 442.64 324.46 396.2 324.46"/><polygon class="cls-1" points="450.2 324.46 450.2 326.15 447.94 326.15 447.94 362.44 450.2 362.44 450.2 364.14 597.89 364.14 597.89 362.44 600.16 362.44 600.16 326.15 597.89 326.15 597.89 324.46 450.2 324.46"/><polygon class="cls-1" points="605.45 324.46 605.45 326.15 603.18 326.15 603.18 362.44 605.45 362.44 605.45 364.14 651.89 364.14 651.89 362.44 654.16 362.44 654.16 326.15 651.89 326.15 651.89 324.46 605.45 324.46"/><polygon class="cls-1" points="537.95 270.46 537.95 272.15 535.68 272.15 535.68 308.44 537.95 308.44 537.95 310.14 546.39 310.14 546.39 312.27 555.74 312.27 555.74 310.14 604.64 310.14 604.64 308.44 606.9 308.44 606.9 296.82 608.96 296.82 608.96 309.49 612.2 309.49 612.2 310.14 613.85 310.14 613.85 312.27 623.2 312.27 623.2 310.14 651.89 310.14 651.89 308.44 654.16 308.44 654.16 272.15 651.89 272.15 651.89 270.46 612.2 270.46 612.2 272.15 609.93 272.15 609.93 274.62 608.96 274.62 608.96 283.78 606.9 283.78 606.9 272.15 604.64 272.15 604.64 270.46 537.95 270.46"/><polygon class="cls-1" points="247.7 270.46 247.7 272.15 245.43 272.15 245.43 308.44 247.7 308.44 247.7 310.14 287.39 310.14 287.39 308.44 289.65 308.44 289.65 272.15 287.39 272.15 287.39 270.46 247.7 270.46"/><polygon class="cls-1" points="301.7 270.46 301.7 272.15 299.43 272.15 299.43 308.44 301.7 308.44 301.7 310.14 341.39 310.14 341.39 308.44 343.65 308.44 343.65 272.15 341.39 272.15 341.39 270.46 301.7 270.46"/><polygon class="cls-1" points="355.7 270.46 355.7 272.15 353.43 272.15 353.43 308.44 355.7 308.44 355.7 310.14 395.39 310.14 395.39 308.44 397.65 308.44 397.65 272.15 395.39 272.15 395.39 270.46 355.7 270.46"/><polygon class="cls-1" points="409.7 270.46 409.7 272.15 407.43 272.15 407.43 308.44 409.7 308.44 409.7 310.14 449.39 310.14 449.39 308.44 451.65 308.44 451.65 272.15 449.39 272.15 449.39 270.46 409.7 270.46"/><polygon class="cls-1" points="463.7 270.46 463.7 272.15 461.43 272.15 461.43 308.44 463.7 308.44 463.7 310.14 523.64 310.14 523.64 308.44 525.9 308.44 525.9 272.15 523.64 272.15 523.64 270.46 463.7 270.46"/><polygon class="cls-1" points="578.45 216.46 578.45 218.16 576.18 218.16 576.18 229.78 574.13 229.78 574.13 220.62 569.24 220.62 569.24 218.02 559.88 218.02 559.88 220.62 554.99 220.62 554.99 229.78 552.66 229.78 552.66 237.72 554.99 237.72 554.99 255.49 559.88 255.49 559.88 258.27 569.24 258.27 569.24 255.49 574.13 255.49 574.13 242.82 576.18 242.82 576.18 254.44 578.45 254.44 578.45 256.14 618.14 256.14 618.14 254.44 620.4 254.44 620.4 242.82 622.46 242.82 622.46 255.49 627.35 255.49 627.35 258.27 636.7 258.27 636.7 255.49 641.59 255.49 641.59 237.72 643.93 237.72 643.93 229.78 641.59 229.78 641.59 220.62 636.7 220.62 636.7 218.02 627.35 218.02 627.35 220.62 622.46 220.62 622.46 229.78 620.4 229.78 620.4 218.16 618.14 218.16 618.14 216.46 578.45 216.46"/><polygon class="cls-1" points="220.7 216.46 220.7 218.16 218.43 218.16 218.43 254.44 220.7 254.44 220.7 256.14 260.39 256.14 260.39 254.44 262.65 254.44 262.65 218.16 260.39 218.16 260.39 216.46 220.7 216.46"/><polygon class="cls-1" points="274.7 216.46 274.7 218.16 272.43 218.16 272.43 254.44 274.7 254.44 274.7 256.14 314.39 256.14 314.39 254.44 316.65 254.44 316.65 218.16 314.39 218.16 314.39 216.46 274.7 216.46"/><polygon class="cls-1" points="328.7 216.46 328.7 218.16 326.43 218.16 326.43 254.44 328.7 254.44 328.7 256.14 368.39 256.14 368.39 254.44 370.65 254.44 370.65 218.16 368.39 218.16 368.39 216.46 328.7 216.46"/><polygon class="cls-1" points="382.7 216.46 382.7 218.16 380.43 218.16 380.43 254.44 382.7 254.44 382.7 256.14 422.39 256.14 422.39 254.44 424.65 254.44 424.65 218.16 422.39 218.16 422.39 216.46 382.7 216.46"/><polygon class="cls-1" points="436.7 216.46 436.7 218.16 434.43 218.16 434.43 254.44 436.7 254.44 436.7 256.14 476.39 256.14 476.39 254.44 478.65 254.44 478.65 218.16 476.39 218.16 476.39 216.46 436.7 216.46"/><polygon class="cls-1" points="490.7 216.46 490.7 218.16 488.43 218.16 488.43 254.44 490.7 254.44 490.7 256.14 530.39 256.14 530.39 254.44 532.65 254.44 532.65 218.16 530.39 218.16 530.39 216.46 490.7 216.46"/><polygon class="cls-1" points="207.2 162.46 207.2 164.16 204.94 164.16 204.94 200.44 207.2 200.44 207.2 202.14 246.89 202.14 246.89 200.44 249.16 200.44 249.16 164.16 246.89 164.16 246.89 162.46 207.2 162.46"/><polygon class="cls-1" points="261.2 162.46 261.2 164.16 258.94 164.16 258.94 200.44 261.2 200.44 261.2 202.14 300.89 202.14 300.89 200.44 303.16 200.44 303.16 164.16 300.89 164.16 300.89 162.46 261.2 162.46"/><polygon class="cls-1" points="315.2 162.46 315.2 164.16 312.94 164.16 312.94 200.44 315.2 200.44 315.2 202.14 354.89 202.14 354.89 200.44 357.16 200.44 357.16 164.16 354.89 164.16 354.89 162.46 315.2 162.46"/><polygon class="cls-1" points="369.2 162.46 369.2 164.16 366.94 164.16 366.94 200.44 369.2 200.44 369.2 202.14 408.89 202.14 408.89 200.44 411.16 200.44 411.16 164.16 408.89 164.16 408.89 162.46 369.2 162.46"/><polygon class="cls-1" points="423.2 162.46 423.2 164.16 420.94 164.16 420.94 200.44 423.2 200.44 423.2 202.14 462.89 202.14 462.89 200.44 465.15 200.44 465.15 164.16 462.89 164.16 462.89 162.46 423.2 162.46"/><polygon class="cls-1" points="477.2 162.46 477.2 164.16 474.94 164.16 474.94 200.44 477.2 200.44 477.2 202.14 516.88 202.14 516.88 200.44 519.15 200.44 519.15 164.16 516.88 164.16 516.88 162.46 477.2 162.46"/><polygon class="cls-1" points="531.2 162.46 531.2 164.16 528.93 164.16 528.93 200.44 531.2 200.44 531.2 202.14 570.89 202.14 570.89 200.44 573.16 200.44 573.16 164.16 570.89 164.16 570.89 162.46 531.2 162.46"/><polygon class="cls-1" points="598.7 162.46 598.7 164.16 596.43 164.16 596.43 200.44 598.7 200.44 598.7 202.14 638.39 202.14 638.39 200.44 640.65 200.44 640.65 164.16 638.39 164.16 638.39 162.46 598.7 162.46"/><polygon class="cls-1" points="234.2 108.46 234.2 110.16 231.94 110.16 231.94 146.44 234.2 146.44 234.2 148.14 273.89 148.14 273.89 146.44 276.16 146.44 276.16 110.16 273.89 110.16 273.89 108.46 234.2 108.46"/><polygon class="cls-1" points="288.2 108.46 288.2 110.16 285.94 110.16 285.94 146.44 288.2 146.44 288.2 148.14 327.89 148.14 327.89 146.44 330.16 146.44 330.16 110.16 327.89 110.16 327.89 108.46 288.2 108.46"/><polygon class="cls-1" points="342.2 108.46 342.2 110.16 339.94 110.16 339.94 146.44 342.2 146.44 342.2 148.14 381.89 148.14 381.89 146.44 384.16 146.44 384.16 110.16 381.89 110.16 381.89 108.46 342.2 108.46"/><polygon class="cls-1" points="396.2 108.46 396.2 110.16 393.94 110.16 393.94 146.44 396.2 146.44 396.2 148.14 435.89 148.14 435.89 146.44 438.16 146.44 438.16 110.16 435.89 110.16 435.89 108.46 396.2 108.46"/><polygon class="cls-1" points="450.2 108.46 450.2 110.16 447.94 110.16 447.94 146.44 450.2 146.44 450.2 148.14 489.89 148.14 489.89 146.44 492.16 146.44 492.16 110.16 489.89 110.16 489.89 108.46 450.2 108.46"/><polygon class="cls-1" points="504.2 108.46 504.2 110.16 501.94 110.16 501.94 146.44 504.2 146.44 504.2 148.14 543.89 148.14 543.89 146.44 546.16 146.44 546.16 110.16 543.89 110.16 543.89 108.46 504.2 108.46"/><polygon class="cls-1" points="566.63 106.33 566.63 108.46 558.2 108.46 558.2 110.16 555.93 110.16 555.93 146.44 558.2 146.44 558.2 148.14 651.89 148.14 651.89 146.44 654.16 146.44 654.16 110.16 651.89 110.16 651.89 108.46 643.45 108.46 643.45 106.33 634.1 106.33 634.1 108.46 575.99 108.46 575.99 106.33 566.63 106.33"/><polygon class="cls-1" points="276.39 322.33 276.39 324.46 254.45 324.46 254.45 326.15 252.18 326.15 252.18 362.44 254.45 362.44 254.45 364.14 294.14 364.14 294.14 364.14 294.95 364.14 294.95 364.14 368.39 364.14 368.39 362.44 370.65 362.44 370.65 326.15 368.39 326.15 368.39 324.46 353.2 324.46 353.2 322.33 343.85 322.33 343.85 324.46 294.95 324.46 294.95 324.46 294.14 324.46 294.14 324.46 285.74 324.46 285.74 322.33 276.39 322.33"/><polygon class="cls-1" points="666.2 108.46 666.2 110.16 663.94 110.16 663.94 146.44 666.2 146.44 666.2 148.14 705.89 148.14 705.89 146.44 708.16 146.44 708.16 110.16 705.89 110.16 705.89 108.46 666.2 108.46"/><polygon class="cls-1" points="666.2 162.46 666.2 164.16 663.94 164.16 663.94 200.44 666.2 200.44 666.2 202.14 705.89 202.14 705.89 200.44 708.16 200.44 708.16 164.16 705.89 164.16 705.89 162.46 666.2 162.46"/><polygon class="cls-1" points="666.2 216.46 666.2 218.16 663.94 218.16 663.94 254.44 666.2 254.44 666.2 256.14 705.89 256.14 705.89 254.44 708.16 254.44 708.16 218.16 705.89 218.16 705.89 216.46 666.2 216.46"/><polygon class="cls-1" points="666.2 270.46 666.2 272.16 663.94 272.16 663.94 308.44 666.2 308.44 666.2 310.14 705.89 310.14 705.89 308.44 708.16 308.44 708.16 272.16 705.89 272.16 705.89 270.46 666.2 270.46"/><polygon class="cls-1" points="666.2 324.46 666.2 326.16 663.94 326.16 663.94 362.44 666.2 362.44 666.2 364.14 705.89 364.14 705.89 362.44 708.16 362.44 708.16 326.16 705.89 326.16 705.89 324.46 666.2 324.46"/><path class="cls-1" d="M240.55,388.31V269a5.67,5.67,0,0,0-5.67-5.67H219.22a5.67,5.67,0,0,1-5.67-5.67V215a5.67,5.67,0,0,0-5.67-5.67h-2.16a5.67,5.67,0,0,1-5.67-5.67V161a5.67,5.67,0,0,1,5.67-5.67h15.66a5.67,5.67,0,0,0,5.67-5.67V84.29a5.67,5.67,0,0,1,5.67-5.67H724.39A11.34,11.34,0,0,1,735.73,90V382.64A11.34,11.34,0,0,1,724.39,394H246.22a5.67,5.67,0,0,1-5.67-5.67Z"/><circle class="cls-1" cx="487.28" cy="382.64" r="3.12"/><circle class="cls-1" cx="722.69" cy="91.66" r="3.12"/><circle class="cls-1" cx="722.69" cy="380.94" r="3.12"/><circle class="cls-1" cx="724.39" cy="236.3" r="3.12"/><circle class="cls-1" cx="238.39" cy="89.96" r="3.12"/><circle class="cls-1" cx="251.88" cy="382.64" r="3.12"/><circle class="cls-1" cx="480.54" cy="89.96" r="3.12"/><text class="cls-2" transform="translate(682.06 416.13)">Quefrency R1</text><line class="cls-3" x1="685.02" y1="406.83" x2="684.89" y2="394.7"/></g><line class="cls-4" x1="287.26" y1="236.16" x2="301.43" y2="236.16"/><line class="cls-4" x1="294.35" y1="243.24" x2="294.35" y2="229.07"/><rect id="border" class="cls-5" x="0.25" y="0.25" width="751.18" height="565.7"/></g></g></g></svg>