<svg xmlns="http://www.w3.org/2000/svg" viewBox="0 0 751.68 566.2"><defs><style>.cls-1,.cls-3,.cls-4{fill:none;stroke:#000;}.cls-1,.cls-3{stroke-linecap:round;stroke-linejoin:round;}.cls-2{font-size:10px;font-family:FiraSansCondensed-Medium, Fira Sans Condensed;font-weight:500;}.cls-3,.cls-4{stroke-width:0.5px;}.cls-4{stroke-miterlimit:10;}</style></defs><g id="Layer_2" data-name="Layer 2"><g id="main"><g id="redox"><g id="redox-2" data-name="redox"><g id="LWPOLYLINE"><polygon class="cls-1" points="480.74 317.3 480.74 317.76 481.12 319.17 482.15 320.7 483.68 321.73 485.09 322.11 485.56 322.11 486.02 322.11 487.43 321.73 488.96 320.7 489.99 319.17 490.37 317.76 490.37 317.3 490.37 316.83 489.99 315.42 488.96 313.89 487.43 312.86 486.02 312.48 485.56 312.48 485.09 312.48 483.68 312.86 482.15 313.89 481.12 315.42 480.74 316.83 480.74 317.3"/></g><g id="LWPOLYLINE-2" data-name="LWPOLYLINE"><polygon class="cls-1" points="166.89 360.95 166.89 361.41 167.27 362.82 168.3 364.35 169.83 365.38 171.24 365.76 171.71 365.76 172.18 365.76 173.59 365.38 175.11 364.35 176.14 362.82 176.52 361.41 176.52 360.95 176.52 360.48 176.14 359.07 175.11 357.54 173.59 356.51 172.18 356.14 171.71 356.14 171.24 356.14 169.83 356.51 168.3 357.54 167.27 359.07 166.89 360.48 166.89 360.95"/></g><g id="LWPOLYLINE-3" data-name="LWPOLYLINE"><polygon class="cls-1" points="215.59 99.04 215.59 99.51 215.97 100.92 217.01 102.45 218.54 103.48 219.94 103.86 220.41 103.86 220.88 103.86 222.28 103.48 223.81 102.45 224.85 100.92 225.22 99.51 225.22 99.04 225.22 98.57 224.85 97.17 223.81 95.64 222.28 94.61 220.88 94.23 220.41 94.23 219.94 94.23 218.54 94.61 217.01 95.64 215.97 97.17 215.59 98.57 215.59 99.04"/></g><g id="LWPOLYLINE-4" data-name="LWPOLYLINE"><polygon class="cls-1" points="436.54 103.19 436.54 103.77 437 105.49 438.27 107.37 440.15 108.64 441.87 109.1 442.44 109.1 443.02 109.1 444.75 108.64 446.63 107.37 447.89 105.49 448.36 103.77 448.36 103.19 448.36 102.62 447.89 100.89 446.63 99.01 444.75 97.75 443.02 97.29 442.44 97.29 441.87 97.29 440.15 97.75 438.27 99.01 437 100.89 436.54 102.62 436.54 103.19"/></g><g id="LWPOLYLINE-5" data-name="LWPOLYLINE"><polygon class="cls-1" points="529.44 104.46 529.44 104.92 529.82 106.33 530.86 107.86 532.39 108.89 533.79 109.27 534.26 109.27 534.73 109.27 536.13 108.89 537.66 107.86 538.7 106.33 539.07 104.92 539.07 104.46 539.07 103.99 538.7 102.58 537.66 101.05 536.13 100.02 534.73 99.64 534.26 99.64 533.79 99.64 532.39 100.02 530.86 101.05 529.82 102.58 529.44 103.99 529.44 104.46"/></g><g id="LWPOLYLINE-6" data-name="LWPOLYLINE"><line class="cls-1" x1="476.54" y1="120.69" x2="436.86" y2="120.69"/></g><g id="LWPOLYLINE-7" data-name="LWPOLYLINE"><line class="cls-1" x1="436.86" y1="120.69" x2="436.86" y2="160.37"/></g><g id="LWPOLYLINE-8" data-name="LWPOLYLINE"><line class="cls-1" x1="436.86" y1="160.37" x2="476.54" y2="160.37"/></g><g id="LWPOLYLINE-9" data-name="LWPOLYLINE"><line class="cls-1" x1="476.54" y1="160.37" x2="476.54" y2="120.69"/></g><g id="LWPOLYLINE-10" data-name="LWPOLYLINE"><line class="cls-1" x1="422.43" y1="108.06" x2="382.74" y2="108.06"/></g><g id="LWPOLYLINE-11" data-name="LWPOLYLINE"><line class="cls-1" x1="382.74" y1="108.06" x2="382.74" y2="147.75"/></g><g id="LWPOLYLINE-12" data-name="LWPOLYLINE"><line class="cls-1" x1="382.74" y1="147.75" x2="422.43" y2="147.75"/></g><g id="LWPOLYLINE-13" data-name="LWPOLYLINE"><line class="cls-1" x1="422.43" y1="147.75" x2="422.43" y2="108.06"/></g><g id="LWPOLYLINE-14" data-name="LWPOLYLINE"><line class="cls-1" x1="368.32" y1="100.85" x2="328.63" y2="100.85"/></g><g id="LWPOLYLINE-15" data-name="LWPOLYLINE"><line class="cls-1" x1="328.63" y1="100.85" x2="328.63" y2="140.53"/></g><g id="LWPOLYLINE-16" data-name="LWPOLYLINE"><line class="cls-1" x1="328.63" y1="140.53" x2="368.32" y2="140.53"/></g><g id="LWPOLYLINE-17" data-name="LWPOLYLINE"><line class="cls-1" x1="368.32" y1="140.53" x2="368.32" y2="100.85"/></g><g id="LWPOLYLINE-18" data-name="LWPOLYLINE"><line class="cls-1" x1="314.2" y1="108.06" x2="274.52" y2="108.06"/></g><g id="LWPOLYLINE-19" data-name="LWPOLYLINE"><line class="cls-1" x1="274.52" y1="108.06" x2="274.52" y2="147.75"/></g><g id="LWPOLYLINE-20" data-name="LWPOLYLINE"><line class="cls-1" x1="274.52" y1="147.75" x2="314.2" y2="147.75"/></g><g id="LWPOLYLINE-21" data-name="LWPOLYLINE"><line class="cls-1" x1="314.2" y1="147.75" x2="314.2" y2="108.06"/></g><g id="LWPOLYLINE-22" data-name="LWPOLYLINE"><line class="cls-1" x1="260.09" y1="113.47" x2="220.41" y2="113.47"/></g><g id="LWPOLYLINE-23" data-name="LWPOLYLINE"><line class="cls-1" x1="220.41" y1="113.47" x2="220.41" y2="153.16"/></g><g id="LWPOLYLINE-24" data-name="LWPOLYLINE"><line class="cls-1" x1="220.41" y1="153.16" x2="260.09" y2="153.16"/></g><g id="LWPOLYLINE-25" data-name="LWPOLYLINE"><line class="cls-1" x1="260.09" y1="153.16" x2="260.09" y2="113.47"/></g><g id="LWPOLYLINE-26" data-name="LWPOLYLINE"><line class="cls-1" x1="205.98" y1="140.53" x2="166.3" y2="140.53"/></g><g id="LWPOLYLINE-27" data-name="LWPOLYLINE"><line class="cls-1" x1="166.3" y1="140.53" x2="166.3" y2="180.21"/></g><g id="LWPOLYLINE-28" data-name="LWPOLYLINE"><line class="cls-1" x1="166.3" y1="180.21" x2="205.98" y2="180.21"/></g><g id="LWPOLYLINE-29" data-name="LWPOLYLINE"><line class="cls-1" x1="205.98" y1="180.21" x2="205.98" y2="140.53"/></g><g id="LWPOLYLINE-30" data-name="LWPOLYLINE"><line class="cls-1" x1="476.54" y1="174.8" x2="436.86" y2="174.8"/></g><g id="LWPOLYLINE-31" data-name="LWPOLYLINE"><line class="cls-1" x1="436.86" y1="174.8" x2="436.86" y2="214.48"/></g><g id="LWPOLYLINE-32" data-name="LWPOLYLINE"><line class="cls-1" x1="436.86" y1="214.48" x2="476.54" y2="214.48"/></g><g id="LWPOLYLINE-33" data-name="LWPOLYLINE"><line class="cls-1" x1="476.54" y1="214.48" x2="476.54" y2="174.8"/></g><g id="LWPOLYLINE-34" data-name="LWPOLYLINE"><line class="cls-1" x1="422.43" y1="162.17" x2="382.74" y2="162.17"/></g><g id="LWPOLYLINE-35" data-name="LWPOLYLINE"><line class="cls-1" x1="382.74" y1="162.17" x2="382.74" y2="201.86"/></g><g id="LWPOLYLINE-36" data-name="LWPOLYLINE"><line class="cls-1" x1="382.74" y1="201.86" x2="422.43" y2="201.86"/></g><g id="LWPOLYLINE-37" data-name="LWPOLYLINE"><line class="cls-1" x1="422.43" y1="201.86" x2="422.43" y2="162.17"/></g><g id="LWPOLYLINE-38" data-name="LWPOLYLINE"><line class="cls-1" x1="368.32" y1="154.96" x2="328.63" y2="154.96"/></g><g id="LWPOLYLINE-39" data-name="LWPOLYLINE"><line class="cls-1" x1="328.63" y1="154.96" x2="328.63" y2="194.64"/></g><g id="LWPOLYLINE-40" data-name="LWPOLYLINE"><line class="cls-1" x1="328.63" y1="194.64" x2="368.32" y2="194.64"/></g><g id="LWPOLYLINE-41" data-name="LWPOLYLINE"><line class="cls-1" x1="368.32" y1="194.64" x2="368.32" y2="154.96"/></g><g id="LWPOLYLINE-42" data-name="LWPOLYLINE"><line class="cls-1" x1="314.2" y1="162.17" x2="274.52" y2="162.17"/></g><g id="LWPOLYLINE-43" data-name="LWPOLYLINE"><line class="cls-1" x1="274.52" y1="162.17" x2="274.52" y2="201.86"/></g><g id="LWPOLYLINE-44" data-name="LWPOLYLINE"><line class="cls-1" x1="274.52" y1="201.86" x2="314.2" y2="201.86"/></g><g id="LWPOLYLINE-45" data-name="LWPOLYLINE"><line class="cls-1" x1="314.2" y1="201.86" x2="314.2" y2="162.17"/></g><g id="LWPOLYLINE-46" data-name="LWPOLYLINE"><line class="cls-1" x1="260.09" y1="167.59" x2="220.41" y2="167.59"/></g><g id="LWPOLYLINE-47" data-name="LWPOLYLINE"><line class="cls-1" x1="220.41" y1="167.59" x2="220.41" y2="207.27"/></g><g id="LWPOLYLINE-48" data-name="LWPOLYLINE"><line class="cls-1" x1="220.41" y1="207.27" x2="260.09" y2="207.27"/></g><g id="LWPOLYLINE-49" data-name="LWPOLYLINE"><line class="cls-1" x1="260.09" y1="207.27" x2="260.09" y2="167.59"/></g><g id="LWPOLYLINE-50" data-name="LWPOLYLINE"><line class="cls-1" x1="476.54" y1="228.92" x2="436.86" y2="228.92"/></g><g id="LWPOLYLINE-51" data-name="LWPOLYLINE"><line class="cls-1" x1="436.86" y1="228.92" x2="436.86" y2="268.59"/></g><g id="LWPOLYLINE-52" data-name="LWPOLYLINE"><line class="cls-1" x1="436.86" y1="268.59" x2="476.54" y2="268.59"/></g><g id="LWPOLYLINE-53" data-name="LWPOLYLINE"><line class="cls-1" x1="476.54" y1="268.59" x2="476.54" y2="228.92"/></g><g id="LWPOLYLINE-54" data-name="LWPOLYLINE"><line class="cls-1" x1="422.43" y1="216.29" x2="382.74" y2="216.29"/></g><g id="LWPOLYLINE-55" data-name="LWPOLYLINE"><line class="cls-1" x1="382.74" y1="216.29" x2="382.74" y2="255.97"/></g><g id="LWPOLYLINE-56" data-name="LWPOLYLINE"><line class="cls-1" x1="382.74" y1="255.97" x2="422.43" y2="255.97"/></g><g id="LWPOLYLINE-57" data-name="LWPOLYLINE"><line class="cls-1" x1="422.43" y1="255.97" x2="422.43" y2="216.29"/></g><g id="LWPOLYLINE-58" data-name="LWPOLYLINE"><line class="cls-1" x1="368.32" y1="209.07" x2="328.63" y2="209.07"/></g><g id="LWPOLYLINE-59" data-name="LWPOLYLINE"><line class="cls-1" x1="328.63" y1="209.07" x2="328.63" y2="248.75"/></g><g id="LWPOLYLINE-60" data-name="LWPOLYLINE"><line class="cls-1" x1="328.63" y1="248.75" x2="368.32" y2="248.75"/></g><g id="LWPOLYLINE-61" data-name="LWPOLYLINE"><line class="cls-1" x1="368.32" y1="248.75" x2="368.32" y2="209.07"/></g><g id="LWPOLYLINE-62" data-name="LWPOLYLINE"><line class="cls-1" x1="314.2" y1="216.29" x2="274.52" y2="216.29"/></g><g id="LWPOLYLINE-63" data-name="LWPOLYLINE"><line class="cls-1" x1="274.52" y1="216.29" x2="274.52" y2="255.97"/></g><g id="LWPOLYLINE-64" data-name="LWPOLYLINE"><line class="cls-1" x1="274.52" y1="255.97" x2="314.2" y2="255.97"/></g><g id="LWPOLYLINE-65" data-name="LWPOLYLINE"><line class="cls-1" x1="314.2" y1="255.97" x2="314.2" y2="216.29"/></g><g id="LWPOLYLINE-66" data-name="LWPOLYLINE"><line class="cls-1" x1="260.09" y1="221.7" x2="220.41" y2="221.7"/></g><g id="LWPOLYLINE-67" data-name="LWPOLYLINE"><line class="cls-1" x1="220.41" y1="221.7" x2="220.41" y2="261.38"/></g><g id="LWPOLYLINE-68" data-name="LWPOLYLINE"><line class="cls-1" x1="220.41" y1="261.38" x2="260.09" y2="261.38"/></g><g id="LWPOLYLINE-69" data-name="LWPOLYLINE"><line class="cls-1" x1="260.09" y1="261.38" x2="260.09" y2="221.7"/></g><g id="LWPOLYLINE-70" data-name="LWPOLYLINE"><line class="cls-1" x1="182.58" y1="286.58" x2="148.21" y2="306.42"/></g><g id="LWPOLYLINE-71" data-name="LWPOLYLINE"><line class="cls-1" x1="148.21" y1="306.42" x2="168.06" y2="340.79"/></g><g id="LWPOLYLINE-72" data-name="LWPOLYLINE"><line class="cls-1" x1="168.06" y1="340.79" x2="202.42" y2="320.95"/></g><g id="LWPOLYLINE-73" data-name="LWPOLYLINE"><line class="cls-1" x1="202.42" y1="320.95" x2="182.58" y2="286.58"/></g><g id="LWPOLYLINE-74" data-name="LWPOLYLINE"><line class="cls-1" x1="476.54" y1="283.03" x2="436.86" y2="283.03"/></g><g id="LWPOLYLINE-75" data-name="LWPOLYLINE"><line class="cls-1" x1="436.86" y1="283.03" x2="436.86" y2="322.71"/></g><g id="LWPOLYLINE-76" data-name="LWPOLYLINE"><line class="cls-1" x1="436.86" y1="322.71" x2="476.54" y2="322.71"/></g><g id="LWPOLYLINE-77" data-name="LWPOLYLINE"><line class="cls-1" x1="476.54" y1="322.71" x2="476.54" y2="283.03"/></g><g id="LWPOLYLINE-78" data-name="LWPOLYLINE"><line class="cls-1" x1="422.43" y1="270.4" x2="382.74" y2="270.4"/></g><g id="LWPOLYLINE-79" data-name="LWPOLYLINE"><line class="cls-1" x1="382.74" y1="270.4" x2="382.74" y2="310.08"/></g><g id="LWPOLYLINE-80" data-name="LWPOLYLINE"><line class="cls-1" x1="382.74" y1="310.08" x2="422.43" y2="310.08"/></g><g id="LWPOLYLINE-81" data-name="LWPOLYLINE"><line class="cls-1" x1="422.43" y1="310.08" x2="422.43" y2="270.4"/></g><g id="LWPOLYLINE-82" data-name="LWPOLYLINE"><line class="cls-1" x1="368.32" y1="263.18" x2="328.63" y2="263.18"/></g><g id="LWPOLYLINE-83" data-name="LWPOLYLINE"><line class="cls-1" x1="328.63" y1="263.18" x2="328.63" y2="302.87"/></g><g id="LWPOLYLINE-84" data-name="LWPOLYLINE"><line class="cls-1" x1="328.63" y1="302.87" x2="368.32" y2="302.87"/></g><g id="LWPOLYLINE-85" data-name="LWPOLYLINE"><line class="cls-1" x1="368.32" y1="302.87" x2="368.32" y2="263.18"/></g><g id="LWPOLYLINE-86" data-name="LWPOLYLINE"><line class="cls-1" x1="314.2" y1="270.4" x2="274.52" y2="270.4"/></g><g id="LWPOLYLINE-87" data-name="LWPOLYLINE"><line class="cls-1" x1="274.52" y1="270.4" x2="274.52" y2="310.08"/></g><g id="LWPOLYLINE-88" data-name="LWPOLYLINE"><line class="cls-1" x1="274.52" y1="310.08" x2="314.2" y2="310.08"/></g><g id="LWPOLYLINE-89" data-name="LWPOLYLINE"><line class="cls-1" x1="314.2" y1="310.08" x2="314.2" y2="270.4"/></g><g id="LWPOLYLINE-90" data-name="LWPOLYLINE"><line class="cls-1" x1="260.09" y1="275.81" x2="220.41" y2="275.81"/></g><g id="LWPOLYLINE-91" data-name="LWPOLYLINE"><line class="cls-1" x1="220.41" y1="275.81" x2="220.41" y2="315.49"/></g><g id="LWPOLYLINE-92" data-name="LWPOLYLINE"><line class="cls-1" x1="220.41" y1="315.49" x2="260.09" y2="315.49"/></g><g id="LWPOLYLINE-93" data-name="LWPOLYLINE"><line class="cls-1" x1="260.09" y1="315.49" x2="260.09" y2="275.81"/></g><g id="LWPOLYLINE-94" data-name="LWPOLYLINE"><line class="cls-1" x1="530.65" y1="337.14" x2="490.97" y2="337.14"/></g><g id="LWPOLYLINE-95" data-name="LWPOLYLINE"><line class="cls-1" x1="490.97" y1="337.14" x2="490.97" y2="376.82"/></g><g id="LWPOLYLINE-96" data-name="LWPOLYLINE"><line class="cls-1" x1="490.97" y1="376.82" x2="530.65" y2="376.82"/></g><g id="LWPOLYLINE-97" data-name="LWPOLYLINE"><line class="cls-1" x1="530.65" y1="376.82" x2="530.65" y2="337.14"/></g><g id="LWPOLYLINE-98" data-name="LWPOLYLINE"><line class="cls-1" x1="476.54" y1="337.14" x2="436.86" y2="337.14"/></g><g id="LWPOLYLINE-99" data-name="LWPOLYLINE"><line class="cls-1" x1="436.86" y1="337.14" x2="436.86" y2="376.82"/></g><g id="LWPOLYLINE-100" data-name="LWPOLYLINE"><line class="cls-1" x1="436.86" y1="376.82" x2="476.54" y2="376.82"/></g><g id="LWPOLYLINE-101" data-name="LWPOLYLINE"><line class="cls-1" x1="476.54" y1="376.82" x2="476.54" y2="337.14"/></g><g id="LWPOLYLINE-102" data-name="LWPOLYLINE"><line class="cls-1" x1="422.43" y1="324.51" x2="382.74" y2="324.51"/></g><g id="LWPOLYLINE-103" data-name="LWPOLYLINE"><line class="cls-1" x1="382.74" y1="324.51" x2="382.74" y2="364.2"/></g><g id="LWPOLYLINE-104" data-name="LWPOLYLINE"><line class="cls-1" x1="382.74" y1="364.2" x2="422.43" y2="364.2"/></g><g id="LWPOLYLINE-105" data-name="LWPOLYLINE"><line class="cls-1" x1="422.43" y1="364.2" x2="422.43" y2="324.51"/></g><g id="LWPOLYLINE-106" data-name="LWPOLYLINE"><line class="cls-1" x1="368.32" y1="317.3" x2="328.63" y2="317.3"/></g><g id="LWPOLYLINE-107" data-name="LWPOLYLINE"><line class="cls-1" x1="328.63" y1="317.3" x2="328.63" y2="356.98"/></g><g id="LWPOLYLINE-108" data-name="LWPOLYLINE"><line class="cls-1" x1="328.63" y1="356.98" x2="368.32" y2="356.98"/></g><g id="LWPOLYLINE-109" data-name="LWPOLYLINE"><line class="cls-1" x1="368.32" y1="356.98" x2="368.32" y2="317.3"/></g><g id="LWPOLYLINE-110" data-name="LWPOLYLINE"><line class="cls-1" x1="537.87" y1="120.69" x2="498.18" y2="120.69"/></g><g id="LWPOLYLINE-111" data-name="LWPOLYLINE"><line class="cls-1" x1="498.18" y1="120.69" x2="498.18" y2="160.37"/></g><g id="LWPOLYLINE-112" data-name="LWPOLYLINE"><line class="cls-1" x1="498.18" y1="160.37" x2="537.87" y2="160.37"/></g><g id="LWPOLYLINE-113" data-name="LWPOLYLINE"><line class="cls-1" x1="537.87" y1="160.37" x2="537.87" y2="120.69"/></g><g id="LWPOLYLINE-114" data-name="LWPOLYLINE"><line class="cls-1" x1="537.87" y1="174.8" x2="498.18" y2="174.8"/></g><g id="LWPOLYLINE-115" data-name="LWPOLYLINE"><line class="cls-1" x1="498.18" y1="174.8" x2="498.18" y2="214.48"/></g><g id="LWPOLYLINE-116" data-name="LWPOLYLINE"><line class="cls-1" x1="498.18" y1="214.48" x2="537.87" y2="214.48"/></g><g id="LWPOLYLINE-117" data-name="LWPOLYLINE"><line class="cls-1" x1="537.87" y1="214.48" x2="537.87" y2="174.8"/></g><g id="LWPOLYLINE-118" data-name="LWPOLYLINE"><line class="cls-1" x1="537.87" y1="228.92" x2="498.18" y2="228.92"/></g><g id="LWPOLYLINE-119" data-name="LWPOLYLINE"><line class="cls-1" x1="498.18" y1="228.92" x2="498.18" y2="268.59"/></g><g id="LWPOLYLINE-120" data-name="LWPOLYLINE"><line class="cls-1" x1="498.18" y1="268.59" x2="537.87" y2="268.59"/></g><g id="LWPOLYLINE-121" data-name="LWPOLYLINE"><line class="cls-1" x1="537.87" y1="268.59" x2="537.87" y2="228.92"/></g><g id="LWPOLYLINE-122" data-name="LWPOLYLINE"><line class="cls-1" x1="537.87" y1="283.03" x2="498.18" y2="283.03"/></g><g id="LWPOLYLINE-123" data-name="LWPOLYLINE"><line class="cls-1" x1="498.18" y1="283.03" x2="498.18" y2="322.71"/></g><g id="LWPOLYLINE-124" data-name="LWPOLYLINE"><line class="cls-1" x1="498.18" y1="322.71" x2="537.87" y2="322.71"/></g><g id="LWPOLYLINE-125" data-name="LWPOLYLINE"><line class="cls-1" x1="537.87" y1="322.71" x2="537.87" y2="283.03"/></g><g id="LWPOLYLINE-126" data-name="LWPOLYLINE"><line class="cls-1" x1="290.36" y1="329.07" x2="252.02" y2="339.34"/></g><g id="LWPOLYLINE-127" data-name="LWPOLYLINE"><line class="cls-1" x1="252.02" y1="339.34" x2="262.3" y2="377.67"/></g><g id="LWPOLYLINE-128" data-name="LWPOLYLINE"><line class="cls-1" x1="262.3" y1="377.67" x2="300.62" y2="367.4"/></g><g id="LWPOLYLINE-129" data-name="LWPOLYLINE"><line class="cls-1" x1="300.62" y1="367.4" x2="290.36" y2="329.07"/></g><g id="LWPOLYLINE-130" data-name="LWPOLYLINE"><line class="cls-1" x1="135.69" y1="313.64" x2="101.32" y2="333.48"/></g><g id="LWPOLYLINE-131" data-name="LWPOLYLINE"><line class="cls-1" x1="101.32" y1="333.48" x2="121.16" y2="367.84"/></g><g id="LWPOLYLINE-132" data-name="LWPOLYLINE"><line class="cls-1" x1="121.16" y1="367.84" x2="155.53" y2="348"/></g><g id="LWPOLYLINE-133" data-name="LWPOLYLINE"><line class="cls-1" x1="155.53" y1="348" x2="135.69" y2="313.64"/></g><g id="LWPOLYLINE-134" data-name="LWPOLYLINE"><line class="cls-1" x1="182.49" y1="365.95" x2="202.33" y2="400.31"/></g><g id="LWPOLYLINE-135" data-name="LWPOLYLINE"><line class="cls-1" x1="202.33" y1="400.31" x2="236.69" y2="380.47"/></g><g id="LWPOLYLINE-136" data-name="LWPOLYLINE"><line class="cls-1" x1="236.69" y1="380.47" x2="216.85" y2="346.11"/></g><g id="LWPOLYLINE-137" data-name="LWPOLYLINE"><line class="cls-1" x1="216.85" y1="346.11" x2="182.49" y2="365.95"/></g><g id="LWPOLYLINE-138" data-name="LWPOLYLINE"><line class="cls-1" x1="135.59" y1="393" x2="155.43" y2="427.37"/></g><g id="LWPOLYLINE-139" data-name="LWPOLYLINE"><line class="cls-1" x1="155.43" y1="427.37" x2="189.8" y2="407.53"/></g><g id="LWPOLYLINE-140" data-name="LWPOLYLINE"><line class="cls-1" x1="189.8" y1="407.53" x2="169.95" y2="373.16"/></g><g id="LWPOLYLINE-141" data-name="LWPOLYLINE"><line class="cls-1" x1="169.95" y1="373.16" x2="135.59" y2="393"/></g><g id="LWPOLYLINE-142" data-name="LWPOLYLINE"><line class="cls-1" x1="166.3" y1="209.07" x2="166.3" y2="248.75"/></g><g id="LWPOLYLINE-143" data-name="LWPOLYLINE"><line class="cls-1" x1="166.3" y1="248.75" x2="205.98" y2="248.75"/></g><g id="LWPOLYLINE-144" data-name="LWPOLYLINE"><line class="cls-1" x1="205.98" y1="248.75" x2="205.98" y2="209.07"/></g><g id="LWPOLYLINE-145" data-name="LWPOLYLINE"><line class="cls-1" x1="205.98" y1="209.07" x2="166.3" y2="209.07"/></g><g id="LWPOLYLINE-146" data-name="LWPOLYLINE"><line class="cls-1" x1="173.51" y1="89.67" x2="537.51" y2="89.67"/></g><g id="LWPOLYLINE-147" data-name="LWPOLYLINE"><line class="cls-1" x1="159.08" y1="104.09" x2="159.08" y2="132.95"/></g><g id="LWPOLYLINE-148" data-name="LWPOLYLINE"><line class="cls-1" x1="551.93" y1="104.09" x2="551.93" y2="113.47"/></g><g id="LWPOLYLINE-149" data-name="LWPOLYLINE"><line class="cls-1" x1="551.93" y1="104.09" x2="537.51" y2="89.67"/></g><g id="LWPOLYLINE-150" data-name="LWPOLYLINE"><line class="cls-1" x1="159.08" y1="104.09" x2="173.51" y2="89.67"/></g><g id="LWPOLYLINE-151" data-name="LWPOLYLINE"><line class="cls-1" x1="339.81" y1="364.56" x2="368.68" y2="364.56"/></g><g id="LWPOLYLINE-152" data-name="LWPOLYLINE"><line class="cls-1" x1="159.08" y1="291.68" x2="91.26" y2="330.64"/></g><g id="LWPOLYLINE-153" data-name="LWPOLYLINE"><line class="cls-1" x1="159.08" y1="132.95" x2="159.08" y2="291.68"/></g><g id="LWPOLYLINE-154" data-name="LWPOLYLINE"><line class="cls-1" x1="159.44" y1="448.97" x2="91.26" y2="330.64"/></g><g id="LWPOLYLINE-155" data-name="LWPOLYLINE"><line class="cls-1" x1="159.81" y1="448.97" x2="159.44" y2="448.97"/></g><g id="LWPOLYLINE-156" data-name="LWPOLYLINE"><line class="cls-1" x1="277.41" y1="381.15" x2="339.81" y2="364.56"/></g><g id="LWPOLYLINE-157" data-name="LWPOLYLINE"><line class="cls-1" x1="159.81" y1="448.97" x2="277.41" y2="381.15"/></g><g id="LWPOLYLINE-158" data-name="LWPOLYLINE"><line class="cls-1" x1="375.89" y1="371.77" x2="368.68" y2="364.56"/></g><g id="LWPOLYLINE-159" data-name="LWPOLYLINE"><line class="cls-1" x1="417.74" y1="371.77" x2="375.89" y2="371.77"/></g><g id="LWPOLYLINE-160" data-name="LWPOLYLINE"><line class="cls-1" x1="430" y1="384.03" x2="417.74" y2="371.77"/></g><g id="LWPOLYLINE-161" data-name="LWPOLYLINE"><line class="cls-1" x1="538.23" y1="384.03" x2="430" y2="384.03"/></g><g id="LWPOLYLINE-162" data-name="LWPOLYLINE"><line class="cls-1" x1="538.23" y1="343.63" x2="538.23" y2="384.03"/></g><g id="LWPOLYLINE-163" data-name="LWPOLYLINE"><line class="cls-1" x1="551.93" y1="329.92" x2="538.23" y2="343.63"/></g><g id="LWPOLYLINE-164" data-name="LWPOLYLINE"><line class="cls-1" x1="551.93" y1="113.47" x2="551.93" y2="329.92"/></g><line class="cls-1" x1="287.28" y1="236.13" x2="301.45" y2="236.13"/><line class="cls-1" x1="294.36" y1="243.22" x2="294.36" y2="229.04"/></g><text class="cls-2" transform="translate(3.29 61.91)">Redox</text><line class="cls-3" x1="33.32" y1="60.69" x2="170.81" y2="92.37"/><rect id="border" class="cls-4" x="0.25" y="0.25" width="751.18" height="565.7"/></g></g></g></svg>