<svg xmlns="http://www.w3.org/2000/svg" viewBox="0 0 751.68 566.2"><defs><style>.cls-1,.cls-2,.cls-4{fill:none;stroke:#000;}.cls-1,.cls-4{stroke-miterlimit:10;}.cls-2{stroke-linecap:round;stroke-linejoin:round;}.cls-3{font-size:10px;font-family:FiraSansCondensed-Medium, Fira Sans Condensed;font-weight:500;}.cls-4{stroke-width:0.5px;}</style></defs><g id="Layer_2" data-name="Layer 2"><g id="main"><g id="reviung39"><path class="cls-1" d="M99.1,367.21c37.79,6.52,162.58,32,199.21,25.86a2.85,2.85,0,0,0,2.37-1.28l37.74-54.4H534.33a2.85,2.85,0,0,0,2.85-2.8v-158a2.83,2.83,0,0,0-2.36-2.81L348.07,140.86h0L285.17,118l3.24,8.84-4.84,5.77-7.41-1.31-3-8.24-15.52,42.44c-1.69,2.93-48.09-15.75-51.05-16.46M530,276.73H490.6V235.91H530ZM476,172c.7.69-1.68,35.79,1.41,34.14h11.77a1.41,1.41,0,0,0,1.41-1.41V181.9H530v40.82H477.87c-3.69.2-1.61-8-2.12-9.9H436.6V172Zm-54-9.91V202.9H382.6V162.08Zm-54-9.9V193H328.6V152.18ZM314,256.92h-39.4V216.1H314ZM220.62,280H260v40.82h-39.4ZM260,266.83h-39.4V226H260Zm30-132.32c1.12-1.61,1.79-9.33,5.14-7.93l18.95,6.88a2.13,2.13,0,0,1,1.27,2.73c-1.12,1.6-1.8,9.32-5.15,7.93l-18.94-6.89a2.12,2.12,0,0,1-1.27-2.72ZM260,172l0,23.32a1.42,1.42,0,0,0,1.41,1.42h11.74c3.11,1.25.7-33.89,1.41-34.66H314V202.9H274.73c-.53,1.92,1.59,10.06-2.11,9.88l-52,0V172ZM218.85,383.05l-8.53-1.5a4.24,4.24,0,0,1-7.34-1.29l-6-1.06.23-1.35L150,369.52l-.24,1.35-6.05-1.07a4.24,4.24,0,0,1-7.35-1.3L127.89,367l9-50.95,91,16Zm34.25,3.4V345.64h39.4v40.81Zm21.48-75.56V270.07H314v40.82Zm42.61,29.67c-8.72-1.4-6.31-15.06,2.36-13.4,8.72,1.41,6.31,15.06-2.36,13.4ZM328.61,301V260.16H368V301ZM370,256.9c-3.68.2-1.63-8-2.13-9.89H328.6V206.19H368c.7.68-1.67,36.08,1.41,34.39h11.77a1.41,1.41,0,0,0,1.41-1.41V216.1H422v40.82Zm12.6,54V270.07H422v40.82Zm54-84.88H476v.7h0v39.4h0v.71H436.6Zm54,104.74c-.62,1.85-11.52.55-12.95.92-3.8.23-1.53-8.93-2.08-10.83h-39V280H476c.75.92-1.71,36.58,1.42,35.39h11.77A1.41,1.41,0,0,0,490.6,314V289.93H530v40.82Z"/><line class="cls-2" x1="287.19" y1="236.13" x2="301.36" y2="236.13"/><line class="cls-2" x1="294.27" y1="243.22" x2="294.27" y2="229.04"/><text class="cls-3" transform="translate(3.29 282.16)">Reviung 39</text><line class="cls-4" x1="47.44" y1="280.16" x2="136.06" y2="320.7"/><rect id="border" class="cls-4" x="0.25" y="0.25" width="751.18" height="565.7"/></g></g></g></svg>