<svg xmlns="http://www.w3.org/2000/svg" viewBox="0 0 751.68 566.2"><defs><style>.cls-1,.cls-3,.cls-4{fill:none;stroke:#000;}.cls-1,.cls-3{stroke-miterlimit:10;}.cls-2{font-size:10px;font-family:FiraSansCondensed-Medium, Fira Sans Condensed;font-weight:500;}.cls-3{stroke-width:0.5px;}.cls-4{stroke-linecap:round;stroke-linejoin:round;}</style></defs><g id="Layer_2" data-name="Layer 2"><g id="main"><g id="reviung41"><g id="cut"><path class="cls-1" d="M103.19,375.65l137.39,23.78,73.47-6.64a2.84,2.84,0,0,0,2.17-1.36l10.14-16.87a2.83,2.83,0,0,1,2.91-1.33l48.65,8.42a2.84,2.84,0,0,0,3.28-2.3l7.38-42.63a2.82,2.82,0,0,1,2.78-2.35l64.3-.34a5.53,5.53,0,0,1,2.13.41l22.65,9.06a5.88,5.88,0,0,0,2.12.41l54.08-.16a8.51,8.51,0,0,0,8.5-8.52l-.5-159.67a8.51,8.51,0,0,0-7-8.35L316.2,128.88l-25.3-9.09a1.42,1.42,0,0,0-1.81.85l-3.57,9.89-6.77,1.21-4.43-5.25,3.29-9.15a2.19,2.19,0,0,0-1.32-2.8h0a2.19,2.19,0,0,0-2.8,1.31L257.24,160.6a4.24,4.24,0,0,1-5.44,2.55l-41.61-15a1.42,1.42,0,0,0-1.81.86l-3.3,9.16-6.77,1.21M530.18,276.45l-39.4.12-.12-42.23,39.39-.12Zm-54.32-106,.09,31.68a2.83,2.83,0,0,0,3.94,2.6,8.33,8.33,0,0,1,4.84-.58,8.9,8.9,0,0,1,1.9.56,2.83,2.83,0,0,0,3.92-2.62l-.07-21.76,39.39-.12.13,42.23-39.4.12v-.13a2.54,2.54,0,0,0-3.7-2.22,8.51,8.51,0,0,1-12.14-7.52l-38.19.11-.13-42.23Zm-54-9.75.13,42.23-39.4.12-.13-42.23Zm-53.76,76a2.83,2.83,0,0,0,3.94,2.6,8.53,8.53,0,0,1,4.85-.59,9,9,0,0,1,1.89.56,2.82,2.82,0,0,0,3.91-2.62l-.06-21.85,39.4-.12.13,42.23-39.4.12v0a2.53,2.53,0,0,0-3.69-2.22,8.5,8.5,0,0,1-12.13-7.61l-38.21.11-.13-42.23L368,205Zm-53.77,74.54-39.4.12-.13-42.23,39.4-.12ZM367.79,151l.13,42.23-39.4.12-.13-42.23Zm-53.66,106.3-39.4.13-.13-42.24L314,215Zm-24.3-123.08,2.4-6.67a2.12,2.12,0,0,1,2.72-1.28l19,6.83a2.11,2.11,0,0,1,1.28,2.71l-2.4,6.67a2.12,2.12,0,0,1-2.72,1.28l-19-6.83A2.12,2.12,0,0,1,289.83,134.19Zm-30,36.94.06,22.13a2.83,2.83,0,0,0,3.94,2.6,8.37,8.37,0,0,1,4.85-.59,8,8,0,0,1,1.9.56,2.83,2.83,0,0,0,3.92-2.62l-.1-32,39.4-.12.13,42.23-38.2.12a8.59,8.59,0,0,1-.79,3.83,8.46,8.46,0,0,1-7.39,4.92,8.69,8.69,0,0,1-4.12-.89,2.36,2.36,0,0,0-3.48,2.07v0l-39.4.13-.12-42.24Zm.29,96.24-39.39.12-.13-42.23,39.4-.13Zm-67.71,44.2a7.37,7.37,0,1,1-6-8.52A7.38,7.38,0,0,1,192.44,311.57ZM223,362.87h0L219.45,383l-8.53-1.48a4.22,4.22,0,0,1-7.35-1.27l-6-1,.23-1.35-47.3-8.19-.24,1.35L144.23,370a4.22,4.22,0,0,1-7.35-1.27l-8.43-1.46,8.83-51,91,15.75-4,23.08h0L223,362.87Zm-2-41.38-.13-42.24,39.4-.12.13,42.23Zm39.4,62.78-3.8-42.07,39.24-3.56,3.81,42.07Zm53.22-52.85a7.37,7.37,0,1,1,8.52-6A7.36,7.36,0,0,1,313.54,331.42Zm15.32-30.11-.13-42.23,39.4-.12.13,42.23Zm39.6,65.14-38.82-6.72,7.2-41.62,38.82,6.72Zm14.43-55.39-.13-42.23,39.4-.12.13,42.23Zm53.73-86.48,39.4-.12.13,42.23-39.4.12Zm54.33,106v-.12a2,2,0,0,0-3-1.76,8.49,8.49,0,0,1-12.25-8l-38.81.12-.13-42.23,39.4-.12.1,32.49a2.83,2.83,0,0,0,4.13,2.51,8.43,8.43,0,0,1,5.25-.77,8.85,8.85,0,0,1,1.39.36,2.8,2.8,0,0,0,3.82-2.59l-.06-22.12,39.39-.12.09,26.43.05,15.81Z"/></g><text class="cls-2" transform="translate(3.29 269.92)">Reviung 41</text><line class="cls-3" x1="50.04" y1="266.77" x2="137.4" y2="294.53"/><line class="cls-4" x1="287.19" y1="236.22" x2="301.36" y2="236.22"/><line class="cls-4" x1="294.27" y1="243.31" x2="294.27" y2="229.13"/><rect id="border" class="cls-3" x="0.25" y="0.25" width="751.18" height="565.7"/></g></g></g></svg>