<svg xmlns="http://www.w3.org/2000/svg" viewBox="0 0 751.68 566.2"><defs><style>.cls-1,.cls-2,.cls-4{fill:none;stroke:#000;}.cls-1{stroke-linecap:round;}.cls-1,.cls-2{stroke-linejoin:round;}.cls-3{font-size:10px;font-family:FiraSansCondensed-Medium, Fira Sans Condensed;font-weight:500;}.cls-4{stroke-miterlimit:10;stroke-width:0.5px;}</style></defs><g id="Layer_2" data-name="Layer 2"><g id="main"><g id="rhymestone"><g id="rhymestone-2" data-name="rhymestone"><g id="g4858-60-5-9"><g id="g22619-1-7-1-3-1"><path id="path4733-2-8-78-6-54" class="cls-1" d="M377,102.94a1.81,1.81,0,0,0-1.8-1.8H229.43l-16.2,55.8v212.4a1.79,1.79,0,0,0,1.8,1.8h266.4a1.79,1.79,0,0,0,1.8-1.8V156.94a1.81,1.81,0,0,0-1.8-1.8H378.84a1.79,1.79,0,0,1-1.8-1.8Z"/></g><circle id="path60932-99-3-8-4-0" class="cls-2" cx="429.25" cy="209.15" r="3.26"/><circle id="path60932-99-5-1-7-5-6" class="cls-2" cx="429.25" cy="317.15" r="3.26"/><circle id="path60932-99-0-4-09-2-4" class="cls-2" cx="267.25" cy="317.15" r="3.26"/><circle id="path60932-99-50-8-9-4-94" class="cls-2" cx="267.25" cy="209.15" r="3.26"/></g><g id="g992"><path id="rect60927-38-5-8" class="cls-2" d="M221.24,162.29h38a.85.85,0,0,1,.85.85v38a.85.85,0,0,1-.85.85h-38a.85.85,0,0,1-.85-.85v-38A.85.85,0,0,1,221.24,162.29Z"/><circle id="path60932-00-3-3" class="cls-2" cx="267.23" cy="209.14" r="3.26"/><path id="rect60927-2-3-7-1" class="cls-2" d="M275.24,162.29h38a.85.85,0,0,1,.85.85v38a.85.85,0,0,1-.85.85h-38a.85.85,0,0,1-.85-.85v-38A.85.85,0,0,1,275.24,162.29Z"/><path id="rect60927-2-2-8-8-0" class="cls-2" d="M329.24,162.29h38a.85.85,0,0,1,.85.85v38a.85.85,0,0,1-.85.85h-38a.85.85,0,0,1-.85-.85v-38A.85.85,0,0,1,329.24,162.29Z"/><path id="rect60927-2-2-3-0-3-4" class="cls-2" d="M383.24,162.29h38a.85.85,0,0,1,.85.85v38a.85.85,0,0,1-.85.85h-38a.85.85,0,0,1-.85-.85v-38A.85.85,0,0,1,383.24,162.29Z"/><path id="rect60927-2-2-2-4-3-5" class="cls-2" d="M437.24,162.29h38a.85.85,0,0,1,.85.85v38a.85.85,0,0,1-.85.85h-38a.85.85,0,0,1-.85-.85v-38A.85.85,0,0,1,437.24,162.29Z"/><circle id="path60932-9-8-8-8" class="cls-2" cx="429.23" cy="209.14" r="3.26"/><path id="rect60927-5-8-5-5" class="cls-2" d="M221.24,216.29h38a.85.85,0,0,1,.85.85v38a.85.85,0,0,1-.85.85h-38a.85.85,0,0,1-.85-.85v-38A.85.85,0,0,1,221.24,216.29Z"/><path id="rect60927-6-0-8-8" class="cls-2" d="M275.24,216.29h38a.85.85,0,0,1,.85.85v38a.85.85,0,0,1-.85.85h-38a.85.85,0,0,1-.85-.85v-38A.85.85,0,0,1,275.24,216.29Z"/><path id="rect60927-1-8-5-1" class="cls-2" d="M329.24,216.29h38a.85.85,0,0,1,.85.85v38a.85.85,0,0,1-.85.85h-38a.85.85,0,0,1-.85-.85v-38A.85.85,0,0,1,329.24,216.29Z"/><path id="rect60927-59-2-1-2" class="cls-2" d="M383.24,216.29h38a.85.85,0,0,1,.85.85v38a.85.85,0,0,1-.85.85h-38a.85.85,0,0,1-.85-.85v-38A.85.85,0,0,1,383.24,216.29Z"/><path id="rect60927-19-2-2-4" class="cls-2" d="M437.24,216.29h38a.85.85,0,0,1,.85.85v38a.85.85,0,0,1-.85.85h-38a.85.85,0,0,1-.85-.85v-38A.85.85,0,0,1,437.24,216.29Z"/><path id="rect60927-3-8-9-2" class="cls-2" d="M221.24,270.29h38a.85.85,0,0,1,.85.85v38a.85.85,0,0,1-.85.85h-38a.85.85,0,0,1-.85-.85v-38A.85.85,0,0,1,221.24,270.29Z"/><path id="rect60927-4-5-8-6" class="cls-2" d="M275.24,270.29h38a.85.85,0,0,1,.85.85v38a.85.85,0,0,1-.85.85h-38a.85.85,0,0,1-.85-.85v-38A.85.85,0,0,1,275.24,270.29Z"/><path id="rect60927-45-5-5-8" class="cls-2" d="M329.24,270.29h38a.85.85,0,0,1,.85.85v38a.85.85,0,0,1-.85.85h-38a.85.85,0,0,1-.85-.85v-38A.85.85,0,0,1,329.24,270.29Z"/><path id="rect60927-7-2-9-9" class="cls-2" d="M383.24,270.29h38a.85.85,0,0,1,.85.85v38a.85.85,0,0,1-.85.85h-38a.85.85,0,0,1-.85-.85v-38A.85.85,0,0,1,383.24,270.29Z"/><path id="rect60927-51-7-6-4" class="cls-2" d="M437.24,270.29h38a.85.85,0,0,1,.85.85v38a.85.85,0,0,1-.85.85h-38a.85.85,0,0,1-.85-.85v-38A.85.85,0,0,1,437.24,270.29Z"/><circle id="path60932-7-6-6-0" class="cls-2" cx="267.23" cy="317.14" r="3.26"/><circle id="path60932-0-2-0-6" class="cls-2" cx="429.23" cy="317.14" r="3.26"/><path id="rect60927-3-1-9-5-7" class="cls-2" d="M221.24,324.29h38a.85.85,0,0,1,.85.85v38a.85.85,0,0,1-.85.85h-38a.85.85,0,0,1-.85-.85v-38A.85.85,0,0,1,221.24,324.29Z"/><path id="rect60927-3-3-8-5-6" class="cls-2" d="M275.24,324.29h38a.85.85,0,0,1,.85.85v38a.85.85,0,0,1-.85.85h-38a.85.85,0,0,1-.85-.85v-38A.85.85,0,0,1,275.24,324.29Z"/><path id="rect60927-3-2-4-6-9" class="cls-2" d="M329.24,324.29h38a.85.85,0,0,1,.85.85v38a.85.85,0,0,1-.85.85h-38a.85.85,0,0,1-.85-.85v-38A.85.85,0,0,1,329.24,324.29Z"/><path id="rect60927-3-4-3-7-6" class="cls-2" d="M383.24,324.29h38a.85.85,0,0,1,.85.85v38a.85.85,0,0,1-.85.85h-38a.85.85,0,0,1-.85-.85v-38A.85.85,0,0,1,383.24,324.29Z"/><path id="rect60927-3-29-0-1-6" class="cls-2" d="M437.24,324.29h38a.85.85,0,0,1,.85.85v38a.85.85,0,0,1-.85.85h-38a.85.85,0,0,1-.85-.85v-38A.85.85,0,0,1,437.24,324.29Z"/><rect id="rect61217-4-7-4" class="cls-2" x="213.23" y="155.14" width="270" height="216" rx="1.42"/></g><text class="cls-3" transform="translate(3.29 37.44)">Rhymestone</text><line class="cls-4" x1="229.43" y1="101.14" x2="60.16" y2="36.45"/></g><line class="cls-1" x1="287.15" y1="236.13" x2="301.32" y2="236.13"/><line class="cls-1" x1="294.24" y1="243.22" x2="294.24" y2="229.04"/><rect id="border" class="cls-4" x="0.25" y="0.25" width="751.18" height="565.7"/></g></g></g></svg>