<svg xmlns="http://www.w3.org/2000/svg" viewBox="0 0 751.68 566.2"><defs><style>.cls-1,.cls-2,.cls-4,.cls-5{fill:none;stroke:#000;}.cls-1,.cls-5{stroke-miterlimit:10;}.cls-2,.cls-4{stroke-linecap:round;stroke-linejoin:round;}.cls-3{font-size:10px;font-family:FiraSansCondensed-Medium, Fira Sans Condensed;font-weight:500;}.cls-4,.cls-5{stroke-width:0.5px;}</style></defs><g id="Layer_2" data-name="Layer 2"><g id="main"><g id="sinc"><path class="cls-1" d="M240.34,388.19V268.86a5.67,5.67,0,0,0-5.67-5.67H219a5.67,5.67,0,0,1-5.67-5.67V214.86a5.67,5.67,0,0,0-5.67-5.67h-2.16a5.67,5.67,0,0,1-5.67-5.67V160.86a5.67,5.67,0,0,1,5.67-5.67h15.66a5.67,5.67,0,0,0,5.67-5.67V106.86a5.67,5.67,0,0,1,5.67-5.67h15.66a5.67,5.67,0,0,0,5.67-5.67V16.68A5.67,5.67,0,0,1,259.51,11H724.18a11.34,11.34,0,0,1,11.34,11.34V382.53a11.34,11.34,0,0,1-11.34,11.33H246A5.67,5.67,0,0,1,240.34,388.19Z"/><g id="LINE"><rect class="cls-2" x="666" y="38.01" width="39.69" height="46.77"/></g><g id="LINE-2" data-name="LINE"><rect class="cls-2" x="666" y="108.34" width="39.69" height="39.69"/></g><g id="LINE-3" data-name="LINE"><rect class="cls-2" x="666" y="162.34" width="39.69" height="39.69"/></g><g id="LINE-4" data-name="LINE"><rect class="cls-2" x="666" y="216.34" width="39.69" height="39.69"/></g><g id="LINE-5" data-name="LINE"><rect class="cls-2" x="666" y="270.34" width="39.69" height="39.69"/></g><g id="LINE-6" data-name="LINE"><rect class="cls-2" x="666" y="324.34" width="39.69" height="39.69"/></g><g id="LINE-7" data-name="LINE"><rect class="cls-2" x="261" y="40.84" width="39.69" height="39.69"/></g><g id="LINE-8" data-name="LINE"><rect class="cls-2" x="315" y="40.84" width="39.69" height="39.69"/></g><g id="LINE-9" data-name="LINE"><rect class="cls-2" x="382.5" y="40.84" width="39.69" height="39.69"/></g><g id="LINE-10" data-name="LINE"><rect class="cls-2" x="436.5" y="40.84" width="39.69" height="39.69"/></g><g id="LINE-11" data-name="LINE"><rect class="cls-2" x="490.5" y="40.84" width="39.69" height="39.69"/></g><g id="LINE-12" data-name="LINE"><rect class="cls-2" x="544.5" y="40.84" width="39.69" height="39.69"/></g><g id="LINE-13" data-name="LINE"><rect class="cls-2" x="612" y="40.84" width="39.69" height="39.69"/></g><g id="LINE-14" data-name="LINE"><rect class="cls-2" x="234" y="108.34" width="39.69" height="39.69"/></g><g id="LINE-15" data-name="LINE"><rect class="cls-2" x="288" y="108.34" width="39.69" height="39.69"/></g><g id="LINE-16" data-name="LINE"><rect class="cls-2" x="342" y="108.34" width="39.69" height="39.69"/></g><g id="LINE-17" data-name="LINE"><rect class="cls-2" x="396" y="108.34" width="39.69" height="39.69"/></g><g id="LINE-18" data-name="LINE"><rect class="cls-2" x="450" y="108.34" width="39.69" height="39.69"/></g><g id="LINE-19" data-name="LINE"><rect class="cls-2" x="504" y="108.34" width="39.69" height="39.69"/></g><polygon class="cls-1" points="624.69 108.34 612 108.34 597.69 108.34 585 108.34 558 108.34 558 148.03 561.44 148.03 561.44 150.86 580.57 150.86 580.57 148.03 585 148.03 597.69 148.03 612 148.03 624.69 148.03 629.12 148.03 629.12 150.86 648.25 150.86 648.25 148.03 651.69 148.03 651.69 108.34 624.69 108.34"/><g id="LINE-20" data-name="LINE"><rect class="cls-2" x="207" y="162.34" width="39.69" height="39.69"/></g><g id="LINE-21" data-name="LINE"><rect class="cls-2" x="261" y="162.34" width="39.69" height="39.69"/></g><g id="LINE-22" data-name="LINE"><rect class="cls-2" x="315" y="162.34" width="39.69" height="39.69"/></g><g id="LINE-23" data-name="LINE"><rect class="cls-2" x="369" y="162.34" width="39.69" height="39.69"/></g><g id="LINE-24" data-name="LINE"><rect class="cls-2" x="423" y="162.34" width="39.69" height="39.69"/></g><g id="LINE-25" data-name="LINE"><rect class="cls-2" x="477" y="162.34" width="39.69" height="39.69"/></g><g id="LINE-26" data-name="LINE"><rect class="cls-2" x="531" y="162.34" width="39.69" height="39.69"/></g><g id="LINE-27" data-name="LINE"><rect class="cls-2" x="220.5" y="216.34" width="39.69" height="39.69"/></g><g id="LINE-28" data-name="LINE"><rect class="cls-2" x="274.5" y="216.34" width="39.69" height="39.69"/></g><g id="LINE-29" data-name="LINE"><rect class="cls-2" x="328.5" y="216.34" width="39.69" height="39.69"/></g><g id="LINE-30" data-name="LINE"><rect class="cls-2" x="382.5" y="216.34" width="39.69" height="39.69"/></g><g id="LINE-31" data-name="LINE"><rect class="cls-2" x="436.5" y="216.34" width="39.69" height="39.69"/></g><g id="LINE-32" data-name="LINE"><rect class="cls-2" x="490.5" y="216.34" width="39.69" height="39.69"/></g><polygon class="cls-1" points="644.94 229.03 644.94 189.34 638.19 189.34 638.19 184.91 642.1 184.91 642.1 165.78 638.19 165.78 638.19 162.34 598.5 162.34 598.5 202.03 605.25 202.03 605.25 216.34 584.19 216.34 578.25 216.34 544.5 216.34 544.5 256.03 554.69 256.03 554.69 258.86 573.82 258.86 573.82 256.03 578.25 256.03 584.19 256.03 617.94 256.03 617.94 252.59 622.37 252.59 622.37 258.86 641.5 258.86 641.5 252.59 642.1 252.59 642.1 233.46 641.5 233.46 641.5 229.03 644.94 229.03"/><g id="LINE-33" data-name="LINE"><rect class="cls-2" x="247.5" y="270.34" width="39.69" height="39.69"/></g><g id="LINE-34" data-name="LINE"><rect class="cls-2" x="301.5" y="270.34" width="39.69" height="39.69"/></g><g id="LINE-35" data-name="LINE"><rect class="cls-2" x="355.5" y="270.34" width="39.69" height="39.69"/></g><g id="LINE-36" data-name="LINE"><rect class="cls-2" x="409.5" y="270.34" width="39.69" height="39.69"/></g><polygon class="cls-1" points="503.19 270.35 483.75 270.35 463.5 270.35 463.5 310.03 483.75 310.03 503.19 310.03 523.44 310.03 523.44 270.35 503.19 270.35"/><polygon class="cls-1" points="612 270.35 612 273.18 608.87 273.18 608.87 312.86 628 312.86 628 310.03 651.69 310.03 651.69 270.35 612 270.35"/><polygon class="cls-1" points="577.44 270.35 564.75 270.35 558 270.35 537.75 270.35 537.75 310.03 541.19 310.03 541.19 312.86 560.32 312.86 560.32 310.03 564.75 310.03 577.44 310.03 597.69 310.03 604.44 310.03 604.44 270.35 597.69 270.35 577.44 270.35"/><polygon class="cls-1" points="368.19 364.03 281.25 364.03 254.25 364.03 254.25 324.35 257.69 324.35 257.69 321.51 271.19 321.51 276.82 321.51 290.32 321.51 290.32 324.35 293.94 324.35 294.75 324.35 320.94 324.35 325.37 324.35 325.37 321.51 338.87 321.51 344.5 321.51 358 321.51 358 324.35 368.19 324.35 368.19 364.03"/><polygon class="cls-1" points="644.94 324.35 612 324.35 605.25 324.35 605.25 364.03 612 364.03 644.94 364.03 651.69 364.03 651.69 324.35 644.94 324.35"/><rect class="cls-1" x="375.75" y="324.34" width="221.94" height="39.69"/><circle class="cls-1" cx="265.18" cy="22.35" r="3.12"/><circle class="cls-1" cx="342.94" cy="22.35" r="3.12"/><circle class="cls-1" cx="394.25" cy="22.35" r="3.12"/><circle class="cls-1" cx="505.99" cy="22.35" r="3.12"/><circle class="cls-1" cx="568.69" cy="22.35" r="3.12"/><circle class="cls-1" cx="251.68" cy="382.53" r="3.12"/><circle class="cls-1" cx="486.96" cy="382.53" r="3.12"/><circle class="cls-1" cx="722.2" cy="24.33" r="3.12"/><circle class="cls-1" cx="722.2" cy="380.54" r="3.12"/><line class="cls-2" x1="287.26" y1="236.27" x2="301.43" y2="236.27"/><line class="cls-2" x1="294.34" y1="243.36" x2="294.34" y2="229.19"/><text class="cls-3" transform="translate(547.39 454.5)">Sinc</text><line class="cls-4" x1="554.17" y1="443.71" x2="553.95" y2="393.86"/><rect id="border" class="cls-5" x="0.25" y="0.25" width="751.18" height="565.7"/></g></g></g></svg>