<svg xmlns="http://www.w3.org/2000/svg" viewBox="0 0 751.68 566.2"><defs><style>.cls-1{opacity:0.35;}.cls-2{fill:#c2c200;fill-opacity:0;}.cls-2,.cls-3,.cls-4,.cls-5,.cls-6,.cls-7,.cls-9{stroke:#000;}.cls-2,.cls-6,.cls-7{stroke-linecap:round;}.cls-2,.cls-7{stroke-linejoin:round;}.cls-2,.cls-3{stroke-width:0.75px;}.cls-3,.cls-4,.cls-5,.cls-7,.cls-9{fill:none;}.cls-3,.cls-4,.cls-5,.cls-6{stroke-miterlimit:11.34;}.cls-4{stroke-width:0.75px;}.cls-5{stroke-width:0.81px;}.cls-6{stroke-width:1.42px;}.cls-8{font-size:10px;font-family:FiraSansCondensed-Medium, Fira Sans Condensed;font-weight:500;}.cls-9{stroke-miterlimit:10;stroke-width:0.5px;}.cls-10{font-size:16px;font-family:Exo2-Regular, "Exo 2";}</style></defs><g id="Layer_2" data-name="Layer 2"><g id="main"><g id="sofle_v2"><g id="g2145" class="cls-1"><path id="path11840" class="cls-2" d="M145.92,364.37l34.37-19.84"/><path id="path11842" class="cls-2" d="M165.76,398.74l-19.84-34.37"/><path id="path11844" class="cls-2" d="M200.13,378.9l-34.37,19.84"/><path id="path11846" class="cls-2" d="M180.29,344.53l19.84,34.37"/><path id="path11848" class="cls-2" d="M382.22,364V324.27"/><path id="path11850" class="cls-2" d="M421.9,364H382.22"/><path id="path11852" class="cls-2" d="M421.9,324.27V364"/><path id="path11854" class="cls-2" d="M382.22,324.27H421.9"/><path id="path11856" class="cls-2" d="M328.36,356.87V317.19"/><path id="path11858" class="cls-2" d="M368.05,356.87H328.36"/><path id="path11860" class="cls-2" d="M368.05,317.19v39.68"/><path id="path11862" class="cls-2" d="M328.36,317.19h39.69"/><path id="path11864" class="cls-2" d="M274.5,364.24V324.55"/><path id="path11866" class="cls-2" d="M314.19,364.24H274.5"/><path id="path11868" class="cls-2" d="M314.19,324.55v39.69"/><path id="path11870" class="cls-2" d="M274.5,324.55h39.69"/><path id="path11872" class="cls-2" d="M221.76,383.45l-15.51-36.53"/><path id="path11874" class="cls-2" d="M258.28,368l-36.52,15.5"/><path id="path11876" class="cls-2" d="M242.78,331.42,258.28,368"/><path id="path11878" class="cls-2" d="M206.25,346.92l36.53-15.5"/><path id="path11880" class="cls-2" d="M490.08,335.32V295.64"/><path id="path11882" class="cls-2" d="M529.77,335.32H490.08"/><path id="path11884" class="cls-2" d="M529.77,295.64v39.68"/><path id="path11886" class="cls-2" d="M490.08,295.64h39.69"/><path id="path11888" class="cls-2" d="M436.08,335.32V295.64"/><path id="path11890" class="cls-2" d="M475.77,335.32H436.08"/><path id="path11892" class="cls-2" d="M475.77,295.64v39.68"/><path id="path11894" class="cls-2" d="M436.08,295.64h39.69"/><path id="path11896" class="cls-2" d="M382.22,310.1V270.42"/><path id="path11898" class="cls-2" d="M421.9,310.1H382.22"/><path id="path11900" class="cls-2" d="M421.9,270.42V310.1"/><path id="path11902" class="cls-2" d="M382.22,270.42H421.9"/><path id="path11904" class="cls-2" d="M328.36,303V263.32"/><path id="path11906" class="cls-2" d="M368.05,303H328.36"/><path id="path11908" class="cls-2" d="M368.05,263.32V303"/><path id="path11910" class="cls-2" d="M328.36,263.32h39.69"/><path id="path11912" class="cls-2" d="M274.5,310.1V270.42"/><path id="path11914" class="cls-2" d="M314.19,310.1H274.5"/><path id="path11916" class="cls-2" d="M314.19,270.42V310.1"/><path id="path11918" class="cls-2" d="M274.5,270.42h39.69"/><path id="path11920" class="cls-2" d="M220.65,316.9V277.22"/><path id="path11922" class="cls-2" d="M260.33,316.9H220.65"/><path id="path11924" class="cls-2" d="M260.33,277.22V316.9"/><path id="path11926" class="cls-2" d="M220.65,277.22h39.68"/><path id="path11928" class="cls-2" d="M489.94,281.47V241.78"/><path id="path11930" class="cls-2" d="M529.62,281.47H489.94"/><path id="path11932" class="cls-2" d="M529.62,241.78v39.69"/><path id="path11934" class="cls-2" d="M489.94,241.78h39.68"/><path id="path11936" class="cls-2" d="M436.08,281.47V241.78"/><path id="path11938" class="cls-2" d="M475.77,281.47H436.08"/><path id="path11940" class="cls-2" d="M475.77,241.78v39.69"/><path id="path11942" class="cls-2" d="M436.08,241.78h39.69"/><path id="path11944" class="cls-2" d="M382.22,256V216.27"/><path id="path11946" class="cls-2" d="M421.9,256H382.22"/><path id="path11948" class="cls-2" d="M421.9,216.27V256"/><path id="path11950" class="cls-2" d="M382.22,216.27H421.9"/><path id="path11952" class="cls-2" d="M328.36,249.15V209.47"/><path id="path11954" class="cls-2" d="M368.05,249.15H328.36"/><path id="path11956" class="cls-2" d="M368.05,209.47v39.68"/><path id="path11958" class="cls-2" d="M328.36,209.47h39.69"/><path id="path11960" class="cls-2" d="M274.5,256V216.27"/><path id="path11962" class="cls-2" d="M314.19,256H274.5"/><path id="path11964" class="cls-2" d="M314.19,216.27V256"/><path id="path11966" class="cls-2" d="M274.5,216.27h39.69"/><path id="path11968" class="cls-2" d="M220.65,263V223.36"/><path id="path11970" class="cls-2" d="M260.33,263H220.65"/><path id="path11972" class="cls-2" d="M260.33,223.36V263"/><path id="path11974" class="cls-2" d="M220.65,223.36h39.68"/><path id="path11976" class="cls-2" d="M489.94,227V187.36"/><path id="path11978" class="cls-2" d="M529.62,227H489.94"/><path id="path11980" class="cls-2" d="M529.62,187.36V227"/><path id="path11982" class="cls-2" d="M489.94,187.36h39.68"/><path id="path11984" class="cls-2" d="M436.08,227V187.36"/><path id="path11986" class="cls-2" d="M475.77,227H436.08"/><path id="path11988" class="cls-2" d="M475.77,187.36V227"/><path id="path11990" class="cls-2" d="M436.08,187.36h39.69"/><path id="path11992" class="cls-2" d="M382.22,201.81V162.13"/><path id="path11994" class="cls-2" d="M421.9,201.81H382.22"/><path id="path11996" class="cls-2" d="M421.9,162.13v39.68"/><path id="path11998" class="cls-2" d="M382.22,162.13H421.9"/><path id="path12000" class="cls-2" d="M328.36,195V155.32"/><path id="path12002" class="cls-2" d="M368.05,195H328.36"/><path id="path12004" class="cls-2" d="M368.05,155.32V195"/><path id="path12006" class="cls-2" d="M328.36,155.32h39.69"/><path id="path12008" class="cls-2" d="M274.5,202.1V162.42"/><path id="path12010" class="cls-2" d="M314.19,202.1H274.5"/><path id="path12012" class="cls-2" d="M314.19,162.42V202.1"/><path id="path12014" class="cls-2" d="M274.5,162.42h39.69"/><path id="path12016" class="cls-2" d="M220.65,209.19V169.5"/><path id="path12018" class="cls-2" d="M260.33,209.19H220.65"/><path id="path12020" class="cls-2" d="M260.33,169.5v39.69"/><path id="path12022" class="cls-2" d="M220.65,169.5h39.68"/><path id="path12024" class="cls-2" d="M489.94,173.47V133.78"/><path id="path12026" class="cls-2" d="M529.62,173.47H489.94"/><path id="path12028" class="cls-2" d="M529.62,133.78v39.69"/><path id="path12030" class="cls-2" d="M489.94,133.78h39.68"/><path id="path12032" class="cls-2" d="M436.08,173.47V133.78"/><path id="path12034" class="cls-2" d="M475.77,173.47H436.08"/><path id="path12036" class="cls-2" d="M475.77,133.78v39.69"/><path id="path12038" class="cls-2" d="M436.08,133.78h39.69"/><path id="path12040" class="cls-2" d="M382.22,148V108.27"/><path id="path12042" class="cls-2" d="M421.9,148H382.22"/><path id="path12044" class="cls-2" d="M421.9,108.27V148"/><path id="path12046" class="cls-2" d="M382.22,108.27H421.9"/><path id="path12048" class="cls-2" d="M328.36,140.9V101.22"/><path id="path12050" class="cls-2" d="M368.05,140.9H328.36"/><path id="path12052" class="cls-2" d="M368.05,101.22V140.9"/><path id="path12054" class="cls-2" d="M328.36,101.22h39.69"/><path id="path12056" class="cls-2" d="M274.5,148V108.27"/><path id="path12058" class="cls-2" d="M314.19,148H274.5"/><path id="path12060" class="cls-2" d="M314.19,108.27V148"/><path id="path12062" class="cls-2" d="M274.5,108.27h39.69"/><path id="path12064" class="cls-2" d="M220.65,155V115.36"/><path id="path12066" class="cls-2" d="M260.33,155H220.65"/><path id="path12068" class="cls-2" d="M260.33,115.36V155"/><path id="path12070" class="cls-2" d="M220.65,115.36h39.68"/></g><path id="path8013" class="cls-3" d="M212.49,108.42h57v-7.08h53.85V94.25h51v7.09h53.85v25.51H535.94V342.28L428.22,370.62H268.07L218.46,393.3l-48.19,28.34-41.1-70.86,24.09-14.18V271.28h59.25Z"/><path id="path2266" class="cls-4" d="M220.65,115.36h39.68V155H220.65Z"/><path id="path2266-3" class="cls-4" d="M274.51,108.27h39.68V148H274.51Z"/><path id="path2266-3-6" class="cls-4" d="M328.36,101.22H368V140.9H328.36Z"/><path id="path2266-3-7" class="cls-4" d="M382.22,108.27H421.9V148H382.22Z"/><path id="path2266-3-5" class="cls-4" d="M436.09,133.78h39.68v39.69H436.09Z"/><path id="path2266-3-5-3" class="cls-4" d="M489.94,133.78h39.67v39.69H489.94Z"/><path id="path2266-3-5-5" class="cls-4" d="M489.94,187.36h39.67V227H489.94Z"/><path id="path2266-3-5-6" class="cls-4" d="M436.08,187.36h39.68V227H436.08Z"/><path id="path2266-3-5-2" class="cls-4" d="M489.94,241.78h39.67v39.69H489.94Z"/><path id="path2266-3-5-9" class="cls-4" d="M436.08,241.78h39.68v39.69H436.08Z"/><path id="path2266-3-5-1" class="cls-4" d="M490.08,295.64h39.68v39.69H490.08Z"/><path id="path2266-3-5-27" class="cls-4" d="M436.08,295.64h39.68v39.69H436.08Z"/><path id="path2266-3-5-0" class="cls-4" d="M382.22,324.27H421.9V364H382.22Z"/><path id="path2266-3-5-93" class="cls-4" d="M382.22,270.42H421.9V310.1H382.22Z"/><path id="path2266-3-5-60" class="cls-4" d="M328.36,263.32H368V303H328.36Z"/><path id="path2266-3-5-60-6" class="cls-4" d="M328.36,317.19H368v39.68H328.36Z"/><path id="path2266-3-5-60-2" class="cls-4" d="M274.5,270.42h39.68V310.1H274.5Z"/><path id="path2266-3-5-60-61" class="cls-4" d="M274.5,324.55h39.68v39.69H274.5Z"/><path id="path2266-3-5-60-8" class="cls-4" d="M220.65,277.22h39.68v39.69H220.65Z"/><path id="path2266-3-5-60-7" class="cls-4" d="M220.65,223.36h39.68V263H220.65Z"/><path id="path2266-3-5-60-9" class="cls-4" d="M274.5,216.27h39.68V256H274.5Z"/><path id="path2266-3-5-60-20" class="cls-4" d="M274.51,162.42h39.68V202.1H274.51Z"/><path id="path2266-3-5-60-23" class="cls-4" d="M220.65,169.5h39.68v39.69H220.65Z"/><path id="path2266-3-5-60-75" class="cls-4" d="M328.36,155.32H368V195H328.36Z"/><path id="path2266-3-5-60-92" class="cls-4" d="M382.22,162.13H421.9v39.68H382.22Z"/><path id="path2266-3-5-60-28" class="cls-4" d="M382.22,216.27H421.9V256H382.22Z"/><path id="path2266-3-5-60-97" class="cls-4" d="M328.36,209.47H368v39.68H328.36Z"/><path id="path2579" class="cls-5" d="M162.23,277.36h36v35.77h-36Z"/><path id="path2581" class="cls-4" d="M145.92,364.37l19.84,34.37,34.37-19.84-19.84-34.37Z"/><path id="path2583" class="cls-4" d="M206.25,346.92l36.53-15.5L258.28,368l-36.52,15.5Z"/><circle id="path17568" class="cls-6" cx="265.43" cy="162.41" r="2.83"/><circle id="path17568-4" class="cls-6" cx="482.28" cy="181.15" r="2.83"/><circle id="path17568-8" class="cls-6" cx="482.28" cy="289.72" r="2.83"/><circle id="path17568-7" class="cls-6" cx="193.15" cy="335.93" r="2.83"/><circle id="path17568-0" class="cls-6" cx="265.44" cy="269.88" r="2.83"/><line class="cls-7" x1="287.25" y1="236.11" x2="301.42" y2="236.11"/><line class="cls-7" x1="294.33" y1="243.2" x2="294.33" y2="229.03"/><text class="cls-8" transform="translate(3.29 245.45)">Sofle V2</text><line class="cls-9" x1="153.26" y1="271.28" x2="40.65" y2="240.87"/><text class="cls-10" transform="translate(175.34 300.36)">R</text><rect id="border" class="cls-9" x="0.25" y="0.25" width="751.18" height="565.7"/></g></g></g></svg>