<svg xmlns="http://www.w3.org/2000/svg" viewBox="0 0 751.68 566.2"><defs><style>.cls-1,.cls-2,.cls-4{fill:none;stroke:#000;}.cls-2{stroke-linecap:round;stroke-linejoin:round;}.cls-3{font-size:10px;font-family:FiraSansCondensed-Medium, Fira Sans Condensed;font-weight:500;}.cls-4{stroke-miterlimit:10;stroke-width:0.5px;}</style></defs><g id="Layer_2" data-name="Layer 2"><g id="main"><g id="squiggle"><g id="squiggle-2" data-name="squiggle"><g id="squiggle-3" data-name="squiggle"><g id="ID_0" data-name="ID 0"><line class="cls-1" x1="182.23" y1="453.26" x2="183.32" y2="452.53"/><line class="cls-1" x1="175.74" y1="454.56" x2="182.23" y2="453.26"/><line class="cls-1" x1="169.25" y1="453.26" x2="175.74" y2="454.56"/><line class="cls-1" x1="163.75" y1="449.59" x2="169.25" y2="453.26"/><line class="cls-1" x1="160.08" y1="444.09" x2="163.75" y2="449.59"/><line class="cls-1" x1="158.79" y1="437.61" x2="160.08" y2="444.09"/><line class="cls-1" x1="160.08" y1="431.12" x2="158.79" y2="437.61"/><line class="cls-1" x1="163.75" y1="425.62" x2="160.08" y2="431.12"/><line class="cls-1" x1="168.74" y1="422.29" x2="163.75" y2="425.62"/><line class="cls-1" x1="137.34" y1="357.21" x2="168.74" y2="422.29"/><line class="cls-1" x1="212.46" y1="320.94" x2="137.34" y2="357.21"/><line class="cls-1" x1="212.46" y1="147.24" x2="212.46" y2="320.94"/><line class="cls-1" x1="223.76" y1="142.56" x2="212.46" y2="147.24"/><line class="cls-1" x1="223.64" y1="142.39" x2="223.76" y2="142.56"/><line class="cls-1" x1="222.35" y1="135.9" x2="223.64" y2="142.39"/><line class="cls-1" x1="223.64" y1="129.42" x2="222.35" y2="135.9"/><line class="cls-1" x1="227.32" y1="123.92" x2="223.64" y2="129.42"/><line class="cls-1" x1="232.82" y1="120.25" x2="227.32" y2="123.92"/><line class="cls-1" x1="239.3" y1="118.96" x2="232.82" y2="120.25"/><line class="cls-1" x1="245.79" y1="120.25" x2="239.3" y2="118.96"/><line class="cls-1" x1="251.29" y1="123.92" x2="245.79" y2="120.25"/><line class="cls-1" x1="254.96" y1="129.42" x2="251.29" y2="123.92"/><line class="cls-1" x1="255.36" y1="131.45" x2="254.96" y2="129.42"/><line class="cls-1" x1="259.36" y1="130.19" x2="255.36" y2="131.45"/><line class="cls-1" x1="283.9" y1="124.75" x2="259.36" y2="130.19"/><line class="cls-1" x1="308.82" y1="121.46" x2="283.9" y2="124.75"/><line class="cls-1" x1="333.94" y1="120.37" x2="308.82" y2="121.46"/><line class="cls-1" x1="359.05" y1="121.46" x2="333.94" y2="120.37"/><line class="cls-1" x1="383.97" y1="124.75" x2="359.05" y2="121.46"/><line class="cls-1" x1="408.51" y1="130.19" x2="383.97" y2="124.75"/><line class="cls-1" x1="414.45" y1="132.06" x2="408.51" y2="130.19"/><line class="cls-1" x1="415.17" y1="130.98" x2="414.45" y2="132.06"/><line class="cls-1" x1="420.67" y1="127.31" x2="415.17" y2="130.98"/><line class="cls-1" x1="427.16" y1="126.02" x2="420.67" y2="127.31"/><line class="cls-1" x1="433.64" y1="127.31" x2="427.16" y2="126.02"/><line class="cls-1" x1="439.14" y1="130.98" x2="433.64" y2="127.31"/><line class="cls-1" x1="442.82" y1="136.48" x2="439.14" y2="130.98"/><line class="cls-1" x1="444.02" y1="142.52" x2="442.82" y2="136.48"/><line class="cls-1" x1="455.71" y1="147.36" x2="444.02" y2="142.52"/><line class="cls-1" x1="478.01" y1="158.97" x2="455.71" y2="147.36"/><line class="cls-1" x1="498.36" y1="171.94" x2="478.01" y2="158.97"/><line class="cls-1" x1="497.32" y1="173.44" x2="498.36" y2="171.94"/><line class="cls-1" x1="497.78" y1="173.48" x2="497.32" y2="173.44"/><line class="cls-1" x1="497.78" y1="250.31" x2="497.78" y2="173.48"/><line class="cls-1" x1="504.27" y1="251.6" x2="497.78" y2="250.31"/><line class="cls-1" x1="509.77" y1="255.28" x2="504.27" y2="251.6"/><line class="cls-1" x1="513.44" y1="260.78" x2="509.77" y2="255.28"/><line class="cls-1" x1="514.73" y1="267.26" x2="513.44" y2="260.78"/><line class="cls-1" x1="513.44" y1="273.75" x2="514.73" y2="267.26"/><line class="cls-1" x1="509.77" y1="279.25" x2="513.44" y2="273.75"/><line class="cls-1" x1="504.27" y1="282.92" x2="509.77" y2="279.25"/><line class="cls-1" x1="497.78" y1="284.21" x2="504.27" y2="282.92"/><line class="cls-1" x1="497.78" y1="354.84" x2="497.78" y2="284.21"/><line class="cls-1" x1="484.78" y1="360.83" x2="497.78" y2="354.84"/><line class="cls-1" x1="482.77" y1="359.98" x2="484.78" y2="360.83"/><line class="cls-1" x1="472.64" y1="356.69" x2="482.77" y2="359.98"/><line class="cls-1" x1="462.28" y1="354.26" x2="472.64" y2="356.69"/><line class="cls-1" x1="451.75" y1="352.71" x2="462.28" y2="354.26"/><line class="cls-1" x1="441.12" y1="352.04" x2="451.75" y2="352.71"/><line class="cls-1" x1="430.48" y1="352.26" x2="441.12" y2="352.04"/><line class="cls-1" x1="419.89" y1="353.37" x2="430.48" y2="352.26"/><line class="cls-1" x1="409.43" y1="355.37" x2="419.89" y2="353.37"/><line class="cls-1" x1="399.18" y1="358.23" x2="409.43" y2="355.37"/><line class="cls-1" x1="389.2" y1="361.94" x2="399.18" y2="358.23"/><line class="cls-1" x1="379.56" y1="366.48" x2="389.2" y2="361.94"/><line class="cls-1" x1="370.34" y1="371.8" x2="379.56" y2="366.48"/><line class="cls-1" x1="361.6" y1="377.88" x2="370.34" y2="371.8"/><line class="cls-1" x1="353.4" y1="384.66" x2="361.6" y2="377.88"/><line class="cls-1" x1="345.79" y1="392.11" x2="353.4" y2="384.66"/><line class="cls-1" x1="338.83" y1="400.17" x2="345.79" y2="392.11"/><line class="cls-1" x1="332.58" y1="408.78" x2="338.83" y2="400.17"/><line class="cls-1" x1="327.06" y1="417.89" x2="332.58" y2="408.78"/><line class="cls-1" x1="322.33" y1="427.43" x2="327.06" y2="417.89"/><line class="cls-1" x1="318.41" y1="437.33" x2="322.33" y2="427.43"/><line class="cls-1" x1="318.32" y1="437.63" x2="318.41" y2="437.33"/><line class="cls-1" x1="202.01" y1="491.28" x2="318.32" y2="437.63"/><line class="cls-1" x1="183.32" y1="452.53" x2="202.01" y2="491.28"/><line class="cls-1" x1="245.49" y1="142.1" x2="242.65" y2="144"/><line class="cls-1" x1="247.39" y1="139.26" x2="245.49" y2="142.1"/><line class="cls-1" x1="248.06" y1="135.9" x2="247.39" y2="139.26"/><line class="cls-1" x1="247.39" y1="132.55" x2="248.06" y2="135.9"/><line class="cls-1" x1="245.49" y1="129.71" x2="247.39" y2="132.55"/><line class="cls-1" x1="242.65" y1="127.81" x2="245.49" y2="129.71"/><line class="cls-1" x1="239.3" y1="127.15" x2="242.65" y2="127.81"/><line class="cls-1" x1="235.95" y1="127.81" x2="239.3" y2="127.15"/><line class="cls-1" x1="233.11" y1="129.71" x2="235.95" y2="127.81"/><line class="cls-1" x1="231.21" y1="132.55" x2="233.11" y2="129.71"/><line class="cls-1" x1="230.54" y1="135.9" x2="231.21" y2="132.55"/><line class="cls-1" x1="231.21" y1="139.26" x2="230.54" y2="135.9"/><line class="cls-1" x1="233.11" y1="142.1" x2="231.21" y2="139.26"/><line class="cls-1" x1="235.95" y1="144" x2="233.11" y2="142.1"/><line class="cls-1" x1="239.3" y1="144.66" x2="235.95" y2="144"/><line class="cls-1" x1="242.65" y1="144" x2="239.3" y2="144.66"/><line class="cls-1" x1="433.35" y1="149.16" x2="430.51" y2="151.06"/><line class="cls-1" x1="435.25" y1="146.32" x2="433.35" y2="149.16"/><line class="cls-1" x1="435.92" y1="142.97" x2="435.25" y2="146.32"/><line class="cls-1" x1="435.25" y1="139.62" x2="435.92" y2="142.97"/><line class="cls-1" x1="433.35" y1="136.77" x2="435.25" y2="139.62"/><line class="cls-1" x1="430.51" y1="134.88" x2="433.35" y2="136.77"/><line class="cls-1" x1="427.16" y1="134.21" x2="430.51" y2="134.88"/><line class="cls-1" x1="423.81" y1="134.88" x2="427.16" y2="134.21"/><line class="cls-1" x1="420.97" y1="136.77" x2="423.81" y2="134.88"/><line class="cls-1" x1="419.07" y1="139.62" x2="420.97" y2="136.77"/><line class="cls-1" x1="418.4" y1="142.97" x2="419.07" y2="139.62"/><line class="cls-1" x1="419.07" y1="146.32" x2="418.4" y2="142.97"/><line class="cls-1" x1="420.97" y1="149.16" x2="419.07" y2="146.32"/><line class="cls-1" x1="423.81" y1="151.06" x2="420.97" y2="149.16"/><line class="cls-1" x1="427.16" y1="151.72" x2="423.81" y2="151.06"/><line class="cls-1" x1="430.51" y1="151.06" x2="427.16" y2="151.72"/><line class="cls-1" x1="367.84" y1="142.97" x2="367.84" y2="182.52"/><line class="cls-1" x1="328.29" y1="142.97" x2="367.84" y2="142.97"/><line class="cls-1" x1="328.29" y1="182.52" x2="328.29" y2="142.97"/><line class="cls-1" x1="367.84" y1="182.52" x2="328.29" y2="182.52"/><line class="cls-1" x1="421.51" y1="159.92" x2="421.51" y2="199.47"/><line class="cls-1" x1="381.96" y1="159.92" x2="421.51" y2="159.92"/><line class="cls-1" x1="381.96" y1="199.47" x2="381.96" y2="159.92"/><line class="cls-1" x1="421.51" y1="199.47" x2="381.96" y2="199.47"/><line class="cls-1" x1="314.16" y1="162.74" x2="314.16" y2="202.29"/><line class="cls-1" x1="274.61" y1="162.74" x2="314.16" y2="162.74"/><line class="cls-1" x1="274.61" y1="202.29" x2="274.61" y2="162.74"/><line class="cls-1" x1="314.16" y1="202.29" x2="274.61" y2="202.29"/><line class="cls-1" x1="260.49" y1="168.39" x2="260.49" y2="207.94"/><line class="cls-1" x1="220.94" y1="168.39" x2="260.49" y2="168.39"/><line class="cls-1" x1="220.94" y1="207.94" x2="220.94" y2="168.39"/><line class="cls-1" x1="260.49" y1="207.94" x2="220.94" y2="207.94"/><line class="cls-1" x1="475.18" y1="193.82" x2="475.18" y2="233.36"/><line class="cls-1" x1="435.63" y1="193.82" x2="475.18" y2="193.82"/><line class="cls-1" x1="435.63" y1="233.36" x2="435.63" y2="193.82"/><line class="cls-1" x1="475.18" y1="233.36" x2="435.63" y2="233.36"/><line class="cls-1" x1="367.84" y1="196.64" x2="367.84" y2="236.19"/><line class="cls-1" x1="328.29" y1="196.64" x2="367.84" y2="196.64"/><line class="cls-1" x1="328.29" y1="236.19" x2="328.29" y2="196.64"/><line class="cls-1" x1="367.84" y1="236.19" x2="328.29" y2="236.19"/><line class="cls-1" x1="421.51" y1="213.59" x2="421.51" y2="253.14"/><line class="cls-1" x1="381.96" y1="213.59" x2="421.51" y2="213.59"/><line class="cls-1" x1="381.96" y1="253.14" x2="381.96" y2="213.59"/><line class="cls-1" x1="421.51" y1="253.14" x2="381.96" y2="253.14"/><line class="cls-1" x1="314.16" y1="216.41" x2="314.16" y2="255.96"/><line class="cls-1" x1="274.61" y1="216.41" x2="314.16" y2="216.41"/><line class="cls-1" x1="274.61" y1="255.96" x2="274.61" y2="216.41"/><line class="cls-1" x1="314.16" y1="255.96" x2="274.61" y2="255.96"/><line class="cls-1" x1="260.49" y1="222.06" x2="260.49" y2="261.61"/><line class="cls-1" x1="220.94" y1="222.06" x2="260.49" y2="222.06"/><line class="cls-1" x1="220.94" y1="261.61" x2="220.94" y2="222.06"/><line class="cls-1" x1="260.49" y1="261.61" x2="220.94" y2="261.61"/><line class="cls-1" x1="475.18" y1="247.49" x2="475.18" y2="287.04"/><line class="cls-1" x1="435.63" y1="247.49" x2="475.18" y2="247.49"/><line class="cls-1" x1="435.63" y1="287.04" x2="435.63" y2="247.49"/><line class="cls-1" x1="475.18" y1="287.04" x2="435.63" y2="287.04"/><line class="cls-1" x1="367.84" y1="250.31" x2="367.84" y2="289.86"/><line class="cls-1" x1="328.29" y1="250.31" x2="367.84" y2="250.31"/><line class="cls-1" x1="328.29" y1="289.86" x2="328.29" y2="250.31"/><line class="cls-1" x1="367.84" y1="289.86" x2="328.29" y2="289.86"/><line class="cls-1" x1="503.97" y1="273.46" x2="501.13" y2="275.35"/><line class="cls-1" x1="505.87" y1="270.61" x2="503.97" y2="273.46"/><line class="cls-1" x1="506.54" y1="267.26" x2="505.87" y2="270.61"/><line class="cls-1" x1="505.87" y1="263.91" x2="506.54" y2="267.26"/><line class="cls-1" x1="503.97" y1="261.07" x2="505.87" y2="263.91"/><line class="cls-1" x1="501.13" y1="259.17" x2="503.97" y2="261.07"/><line class="cls-1" x1="497.78" y1="258.51" x2="501.13" y2="259.17"/><line class="cls-1" x1="494.43" y1="259.17" x2="497.78" y2="258.51"/><line class="cls-1" x1="491.59" y1="261.07" x2="494.43" y2="259.17"/><line class="cls-1" x1="489.69" y1="263.91" x2="491.59" y2="261.07"/><line class="cls-1" x1="489.02" y1="267.26" x2="489.69" y2="263.91"/><line class="cls-1" x1="489.69" y1="270.61" x2="489.02" y2="267.26"/><line class="cls-1" x1="491.59" y1="273.46" x2="489.69" y2="270.61"/><line class="cls-1" x1="494.43" y1="275.35" x2="491.59" y2="273.46"/><line class="cls-1" x1="497.78" y1="276.02" x2="494.43" y2="275.35"/><line class="cls-1" x1="501.13" y1="275.35" x2="497.78" y2="276.02"/><line class="cls-1" x1="421.51" y1="267.26" x2="421.51" y2="306.81"/><line class="cls-1" x1="381.96" y1="267.26" x2="421.51" y2="267.26"/><line class="cls-1" x1="381.96" y1="306.81" x2="381.96" y2="267.26"/><line class="cls-1" x1="421.51" y1="306.81" x2="381.96" y2="306.81"/><line class="cls-1" x1="314.16" y1="270.09" x2="314.16" y2="309.64"/><line class="cls-1" x1="274.61" y1="270.09" x2="314.16" y2="270.09"/><line class="cls-1" x1="274.61" y1="309.64" x2="274.61" y2="270.09"/><line class="cls-1" x1="314.16" y1="309.64" x2="274.61" y2="309.64"/><line class="cls-1" x1="260.49" y1="275.74" x2="260.49" y2="315.29"/><line class="cls-1" x1="220.94" y1="275.74" x2="260.49" y2="275.74"/><line class="cls-1" x1="220.94" y1="315.29" x2="220.94" y2="275.74"/><line class="cls-1" x1="260.49" y1="315.29" x2="220.94" y2="315.29"/><line class="cls-1" x1="475.18" y1="301.16" x2="475.18" y2="340.71"/><line class="cls-1" x1="435.63" y1="301.16" x2="475.18" y2="301.16"/><line class="cls-1" x1="435.63" y1="340.71" x2="435.63" y2="301.16"/><line class="cls-1" x1="475.18" y1="340.71" x2="435.63" y2="340.71"/><line class="cls-1" x1="314.12" y1="407.98" x2="312.86" y2="411.77"/><line class="cls-1" x1="305.05" y1="389.86" x2="314.12" y2="407.98"/><line class="cls-1" x1="301.25" y1="388.6" x2="305.05" y2="389.86"/><line class="cls-1" x1="296.83" y1="390.81" x2="301.25" y2="388.6"/><line class="cls-1" x1="293.04" y1="389.55" x2="296.83" y2="390.81"/><line class="cls-1" x1="276.98" y1="357.47" x2="293.04" y2="389.55"/><line class="cls-1" x1="278.24" y1="353.68" x2="276.98" y2="357.47"/><line class="cls-1" x1="282.66" y1="351.46" x2="278.24" y2="353.68"/><line class="cls-1" x1="283.92" y1="347.67" x2="282.66" y2="351.46"/><line class="cls-1" x1="274.85" y1="329.55" x2="283.92" y2="347.67"/><line class="cls-1" x1="271.06" y1="328.29" x2="274.85" y2="329.55"/><line class="cls-1" x1="231.27" y1="348.21" x2="271.06" y2="328.29"/><line class="cls-1" x1="230.01" y1="352" x2="231.27" y2="348.21"/><line class="cls-1" x1="230.76" y1="353.49" x2="230.01" y2="352"/><line class="cls-1" x1="229.8" y1="357.1" x2="230.76" y2="353.49"/><line class="cls-1" x1="228.85" y1="360.71" x2="229.8" y2="357.1"/><line class="cls-1" x1="231.4" y1="365.8" x2="228.85" y2="360.71"/><line class="cls-1" x1="234.86" y1="367.2" x2="231.4" y2="365.8"/><line class="cls-1" x1="238.32" y1="368.6" x2="234.86" y2="367.2"/><line class="cls-1" x1="260.97" y1="413.83" x2="238.32" y2="368.6"/><line class="cls-1" x1="260.02" y1="417.45" x2="260.97" y2="413.83"/><line class="cls-1" x1="259.07" y1="421.06" x2="260.02" y2="417.45"/><line class="cls-1" x1="261.59" y1="426.11" x2="259.07" y2="421.06"/><line class="cls-1" x1="265.06" y1="427.51" x2="261.59" y2="426.11"/><line class="cls-1" x1="268.52" y1="428.91" x2="265.06" y2="427.51"/><line class="cls-1" x1="269.29" y1="430.43" x2="268.52" y2="428.91"/><line class="cls-1" x1="273.08" y1="431.7" x2="269.29" y2="430.43"/><line class="cls-1" x1="312.86" y1="411.77" x2="273.08" y2="431.7"/><line class="cls-1" x1="256.22" y1="436.76" x2="254.96" y2="440.55"/><line class="cls-1" x1="255.47" y1="435.28" x2="256.22" y2="436.76"/><line class="cls-1" x1="256.43" y1="431.67" x2="255.47" y2="435.28"/><line class="cls-1" x1="257.38" y1="428.06" x2="256.43" y2="431.67"/><line class="cls-1" x1="254.83" y1="422.96" x2="257.38" y2="428.06"/><line class="cls-1" x1="251.37" y1="421.57" x2="254.83" y2="422.96"/><line class="cls-1" x1="247.91" y1="420.16" x2="251.37" y2="421.57"/><line class="cls-1" x1="225.26" y1="374.94" x2="247.91" y2="420.16"/><line class="cls-1" x1="226.21" y1="371.32" x2="225.26" y2="374.94"/><line class="cls-1" x1="227.17" y1="367.71" x2="226.21" y2="371.32"/><line class="cls-1" x1="224.64" y1="362.66" x2="227.17" y2="367.71"/><line class="cls-1" x1="221.17" y1="361.26" x2="224.64" y2="362.66"/><line class="cls-1" x1="217.71" y1="359.86" x2="221.17" y2="361.26"/><line class="cls-1" x1="216.94" y1="358.34" x2="217.71" y2="359.86"/><line class="cls-1" x1="213.15" y1="357.07" x2="216.94" y2="358.34"/><line class="cls-1" x1="173.37" y1="377" x2="213.15" y2="357.07"/><line class="cls-1" x1="172.11" y1="380.79" x2="173.37" y2="377"/><line class="cls-1" x1="181.18" y1="398.91" x2="172.11" y2="380.79"/><line class="cls-1" x1="184.98" y1="400.17" x2="181.18" y2="398.91"/><line class="cls-1" x1="189.4" y1="397.96" x2="184.98" y2="400.17"/><line class="cls-1" x1="193.18" y1="399.22" x2="189.4" y2="397.96"/><line class="cls-1" x1="209.25" y1="431.3" x2="193.18" y2="399.22"/><line class="cls-1" x1="207.99" y1="435.09" x2="209.25" y2="431.3"/><line class="cls-1" x1="203.57" y1="437.3" x2="207.99" y2="435.09"/><line class="cls-1" x1="202.31" y1="441.09" x2="203.57" y2="437.3"/><line class="cls-1" x1="211.38" y1="459.22" x2="202.31" y2="441.09"/><line class="cls-1" x1="215.17" y1="460.48" x2="211.38" y2="459.22"/><line class="cls-1" x1="254.96" y1="440.55" x2="215.17" y2="460.48"/><line class="cls-1" x1="181.93" y1="443.8" x2="179.09" y2="445.7"/><line class="cls-1" x1="183.83" y1="440.96" x2="181.93" y2="443.8"/><line class="cls-1" x1="184.5" y1="437.61" x2="183.83" y2="440.96"/><line class="cls-1" x1="183.83" y1="434.26" x2="184.5" y2="437.61"/><line class="cls-1" x1="181.93" y1="431.41" x2="183.83" y2="434.26"/><line class="cls-1" x1="179.09" y1="429.52" x2="181.93" y2="431.41"/><line class="cls-1" x1="175.74" y1="428.85" x2="179.09" y2="429.52"/><line class="cls-1" x1="172.39" y1="429.52" x2="175.74" y2="428.85"/><line class="cls-1" x1="169.55" y1="431.41" x2="172.39" y2="429.52"/><line class="cls-1" x1="167.65" y1="434.26" x2="169.55" y2="431.41"/><line class="cls-1" x1="166.98" y1="437.61" x2="167.65" y2="434.26"/><line class="cls-1" x1="167.65" y1="440.96" x2="166.98" y2="437.61"/><line class="cls-1" x1="169.55" y1="443.8" x2="167.65" y2="440.96"/><line class="cls-1" x1="172.39" y1="445.7" x2="169.55" y2="443.8"/><line class="cls-1" x1="175.74" y1="446.36" x2="172.39" y2="445.7"/><line class="cls-1" x1="179.09" y1="445.7" x2="175.74" y2="446.36"/></g></g><line class="cls-2" x1="287.26" y1="236.19" x2="301.43" y2="236.19"/><line class="cls-2" x1="294.35" y1="243.27" x2="294.35" y2="229.1"/></g><text class="cls-3" transform="translate(180.08 559.95)">Squiggle</text><line class="cls-4" x1="184.96" y1="548.77" x2="198.01" y2="482.97"/><rect id="border" class="cls-4" x="0.25" y="0.25" width="751.18" height="565.7"/><rect id="border-2" data-name="border" class="cls-4" x="0.25" y="0.25" width="751.18" height="565.7"/></g></g></g></svg>