<svg xmlns="http://www.w3.org/2000/svg" viewBox="0 0 751.68 566.2"><defs><style>.cls-1,.cls-3{fill:none;stroke:#000;}.cls-1{stroke-linecap:round;stroke-linejoin:round;}.cls-2{font-size:10px;font-family:FiraSansCondensed-Medium, Fira Sans Condensed;font-weight:500;}.cls-3{stroke-miterlimit:10;stroke-width:0.5px;}.cls-4{font-size:16px;font-family:Exo2-Regular, "Exo 2";}</style></defs><g id="Layer_2" data-name="Layer 2"><g id="main"><g id="torn"><g id="torn-2" data-name="torn"><g id="torn-3" data-name="torn"><g id="torn-4" data-name="torn"><g id="SPLINE"><path class="cls-1" d="M213.19,160.86a1.45,1.45,0,0,0-1,.42"/></g><g id="SPLINE-2" data-name="SPLINE"><path class="cls-1" d="M212.17,161.28a1.45,1.45,0,0,0-.42,1"/></g><g id="LWPOLYLINE"><polyline class="cls-1" points="372.93 147.6 372.38 147.32 372.02 147.28"/></g><g id="LWPOLYLINE-2" data-name="LWPOLYLINE"><line class="cls-1" x1="425.97" y1="153.67" x2="374.86" y2="153.67"/></g><g id="LWPOLYLINE-3" data-name="LWPOLYLINE"><polyline class="cls-1" points="428.2 167.02 427.71 166.63 427.43 166.09 427.39 165.73"/></g><g id="LWPOLYLINE-4" data-name="LWPOLYLINE"><line class="cls-1" x1="538.39" y1="325.69" x2="538.21" y2="174.8"/></g><g id="LWPOLYLINE-5" data-name="LWPOLYLINE"><line class="cls-1" x1="428.81" y1="167.15" x2="428.2" y2="167.02"/></g><g id="LWPOLYLINE-6" data-name="LWPOLYLINE"><line class="cls-1" x1="422.13" y1="216.29" x2="422.13" y2="256.03"/></g><g id="LWPOLYLINE-7" data-name="LWPOLYLINE"><line class="cls-1" x1="274.48" y1="216.29" x2="314.24" y2="216.29"/></g><g id="LWPOLYLINE-8" data-name="LWPOLYLINE"><line class="cls-1" x1="314.24" y1="162.34" x2="314.24" y2="202.09"/></g><g id="LWPOLYLINE-9" data-name="LWPOLYLINE"><polyline class="cls-1" points="368.18 322.83 368.18 362.58 328.43 362.58 328.43 322.83"/></g><g id="LWPOLYLINE-10" data-name="LWPOLYLINE"><polyline class="cls-1" points="265.01 334.58 303.74 325.64 312.68 364.38"/></g><g id="LWPOLYLINE-11" data-name="LWPOLYLINE"><polyline class="cls-1" points="394.22 333.75 393.6 334.22 393.02 334.74 392.51 335.29 392.05 335.88 391.66 336.47 391.45 336.88"/></g><g id="LWPOLYLINE-12" data-name="LWPOLYLINE"><line class="cls-1" x1="367.19" y1="371.78" x2="367.97" y2="371.75"/></g><g id="LWPOLYLINE-13" data-name="LWPOLYLINE"><line class="cls-1" x1="531.92" y1="167.31" x2="531.18" y2="167.23"/></g><g id="LWPOLYLINE-14" data-name="LWPOLYLINE"><line class="cls-1" x1="532.63" y1="167.45" x2="531.92" y2="167.31"/></g><g id="LWPOLYLINE-15" data-name="LWPOLYLINE"><line class="cls-1" x1="533.33" y1="167.66" x2="532.63" y2="167.45"/></g><g id="LWPOLYLINE-16" data-name="LWPOLYLINE"><line class="cls-1" x1="533.98" y1="167.93" x2="533.33" y2="167.66"/></g><g id="LWPOLYLINE-17" data-name="LWPOLYLINE"><line class="cls-1" x1="534.6" y1="168.26" x2="533.98" y2="167.93"/></g><g id="LWPOLYLINE-18" data-name="LWPOLYLINE"><line class="cls-1" x1="535.19" y1="168.65" x2="534.6" y2="168.26"/></g><g id="LWPOLYLINE-19" data-name="LWPOLYLINE"><line class="cls-1" x1="535.73" y1="169.09" x2="535.19" y2="168.65"/></g><g id="LWPOLYLINE-20" data-name="LWPOLYLINE"><line class="cls-1" x1="536.23" y1="169.58" x2="535.73" y2="169.09"/></g><g id="LWPOLYLINE-21" data-name="LWPOLYLINE"><line class="cls-1" x1="536.69" y1="170.12" x2="536.23" y2="169.58"/></g><g id="LWPOLYLINE-22" data-name="LWPOLYLINE"><line class="cls-1" x1="537.08" y1="170.69" x2="536.69" y2="170.12"/></g><g id="LWPOLYLINE-23" data-name="LWPOLYLINE"><line class="cls-1" x1="537.43" y1="171.31" x2="537.08" y2="170.69"/></g><g id="LWPOLYLINE-24" data-name="LWPOLYLINE"><line class="cls-1" x1="537.71" y1="171.95" x2="537.43" y2="171.31"/></g><g id="LWPOLYLINE-25" data-name="LWPOLYLINE"><line class="cls-1" x1="537.94" y1="172.63" x2="537.71" y2="171.95"/></g><g id="LWPOLYLINE-26" data-name="LWPOLYLINE"><line class="cls-1" x1="538.1" y1="173.33" x2="537.94" y2="172.63"/></g><g id="LWPOLYLINE-27" data-name="LWPOLYLINE"><line class="cls-1" x1="538.19" y1="174.06" x2="538.1" y2="173.33"/></g><g id="LWPOLYLINE-28" data-name="LWPOLYLINE"><line class="cls-1" x1="538.21" y1="174.8" x2="538.19" y2="174.06"/></g><g id="LWPOLYLINE-29" data-name="LWPOLYLINE"><polyline class="cls-1" points="374.86 153.67 374.25 153.52 373.76 153.15 373.49 152.6"/></g><g id="LWPOLYLINE-30" data-name="LWPOLYLINE"><line class="cls-1" x1="538.31" y1="160.94" x2="538.39" y2="160.2"/></g><g id="LWPOLYLINE-31" data-name="LWPOLYLINE"><line class="cls-1" x1="538.16" y1="161.66" x2="538.31" y2="160.94"/></g><g id="LWPOLYLINE-32" data-name="LWPOLYLINE"><line class="cls-1" x1="537.96" y1="162.34" x2="538.16" y2="161.66"/></g><g id="LWPOLYLINE-33" data-name="LWPOLYLINE"><line class="cls-1" x1="536.52" y1="164.76" x2="536.96" y2="164.21"/></g><g id="LWPOLYLINE-34" data-name="LWPOLYLINE"><line class="cls-1" x1="536.03" y1="165.26" x2="536.52" y2="164.76"/></g><g id="LWPOLYLINE-35" data-name="LWPOLYLINE"><line class="cls-1" x1="535.5" y1="165.7" x2="536.03" y2="165.26"/></g><g id="LWPOLYLINE-36" data-name="LWPOLYLINE"><line class="cls-1" x1="534.93" y1="166.11" x2="535.5" y2="165.7"/></g><g id="LWPOLYLINE-37" data-name="LWPOLYLINE"><line class="cls-1" x1="534.31" y1="166.45" x2="534.93" y2="166.11"/></g><g id="LWPOLYLINE-38" data-name="LWPOLYLINE"><line class="cls-1" x1="533.66" y1="166.74" x2="534.31" y2="166.45"/></g><g id="LWPOLYLINE-39" data-name="LWPOLYLINE"><line class="cls-1" x1="532.99" y1="166.96" x2="533.66" y2="166.74"/></g><g id="LWPOLYLINE-40" data-name="LWPOLYLINE"><line class="cls-1" x1="532.29" y1="167.12" x2="532.99" y2="166.96"/></g><g id="LWPOLYLINE-41" data-name="LWPOLYLINE"><line class="cls-1" x1="536.57" y1="330.15" x2="537" y2="329.62"/></g><g id="LWPOLYLINE-42" data-name="LWPOLYLINE"><line class="cls-1" x1="536.09" y1="330.63" x2="536.57" y2="330.15"/></g><g id="LWPOLYLINE-43" data-name="LWPOLYLINE"><line class="cls-1" x1="535.57" y1="331.07" x2="536.09" y2="330.63"/></g><g id="LWPOLYLINE-44" data-name="LWPOLYLINE"><polyline class="cls-1" points="178.27 438.44 177.6 438.35 176.95 438.21 176.31 438.02 175.69 437.79 175.09 437.51 174.51 437.19 173.96 436.82 173.44 436.41 172.95 435.95 172.49 435.46 172.21 435.12"/></g><g id="LWPOLYLINE-45" data-name="LWPOLYLINE"><polyline class="cls-1" points="184.84 436.29 184.31 436.71 183.76 437.1 183.19 437.43 182.6 437.72 181.98 437.97 181.36 438.17 180.71 438.32 180.05 438.42 179.39 438.47 178.72 438.47 178.27 438.44"/></g><g id="LWPOLYLINE-46" data-name="LWPOLYLINE"><polyline class="cls-1" points="376.18 366.4 375.86 366.97 375.51 367.51 375.13 368.03 374.72 368.52 374.28 368.99 373.81 369.41 373.31 369.81 372.8 370.18 372.25 370.51 371.69 370.8 371.11 371.06 370.51 371.27 369.89 371.45 369.26 371.6 368.62 371.69 367.97 371.75"/></g><g id="LWPOLYLINE-48" data-name="LWPOLYLINE"><polyline class="cls-1" points="145.64 397.36 145.74 396.71 145.88 396.1 146.08 395.48 146.31 394.88 146.58 394.31 146.9 393.76 147.26 393.23 147.65 392.73 148.08 392.26 148.55 391.82 148.88 391.54"/></g><g id="LWPOLYLINE-49" data-name="LWPOLYLINE"><polyline class="cls-1" points="147.48 403.76 147.09 403.24 146.75 402.69 146.45 402.13 146.2 401.55 145.98 400.94 145.82 400.33 145.69 399.71 145.61 399.07 145.59 398.43 145.6 397.79 145.64 397.36"/></g><g id="LWPOLYLINE-50" data-name="LWPOLYLINE"><polyline class="cls-1" points="211.75 337.91 211.68 338.58 211.55 339.23 211.38 339.86 211.16 340.47 210.88 341.05 210.56 341.6 210.2 342.11 209.79 342.6 209.35 343.04 208.85 343.43 208.5 343.68"/></g><g id="LWPOLYLINE-51" data-name="LWPOLYLINE"><line class="cls-1" x1="537.68" y1="163.01" x2="537.96" y2="162.34"/></g><g id="LWPOLYLINE-52" data-name="LWPOLYLINE"><line class="cls-1" x1="537.35" y1="163.63" x2="537.68" y2="163.01"/></g><g id="LWPOLYLINE-53" data-name="LWPOLYLINE"><line class="cls-1" x1="536.96" y1="164.21" x2="537.35" y2="163.63"/></g><g id="LWPOLYLINE-54" data-name="LWPOLYLINE"><line class="cls-1" x1="535.01" y1="331.47" x2="535.57" y2="331.07"/></g><g id="LWPOLYLINE-55" data-name="LWPOLYLINE"><line class="cls-1" x1="534.41" y1="331.8" x2="535.01" y2="331.47"/></g><g id="LWPOLYLINE-56" data-name="LWPOLYLINE"><line class="cls-1" x1="533.78" y1="332.08" x2="534.41" y2="331.8"/></g><g id="LWPOLYLINE-57" data-name="LWPOLYLINE"><line class="cls-1" x1="533.12" y1="332.3" x2="533.78" y2="332.08"/></g><g id="LWPOLYLINE-58" data-name="LWPOLYLINE"><line class="cls-1" x1="532.43" y1="332.46" x2="533.12" y2="332.3"/></g><g id="LWPOLYLINE-59" data-name="LWPOLYLINE"><line class="cls-1" x1="531.72" y1="332.54" x2="532.43" y2="332.46"/></g><g id="LWPOLYLINE-60" data-name="LWPOLYLINE"><line class="cls-1" x1="531" y1="332.56" x2="531.72" y2="332.54"/></g><g id="LWPOLYLINE-61" data-name="LWPOLYLINE"><line class="cls-1" x1="139.06" y1="118" x2="138.86" y2="388.99"/></g><g id="LWPOLYLINE-62" data-name="LWPOLYLINE"><polyline class="cls-1" points="397.94 332.56 397.13 332.61 396.36 332.77 395.61 333.02 394.9 333.35 394.22 333.75"/></g><g id="LWPOLYLINE-63" data-name="LWPOLYLINE"><line class="cls-1" x1="382.37" y1="216.29" x2="422.13" y2="216.29"/></g><g id="LWPOLYLINE-64" data-name="LWPOLYLINE"><line class="cls-1" x1="139.05" y1="117.82" x2="139.07" y2="118"/></g><g id="LWPOLYLINE-65" data-name="LWPOLYLINE"><line class="cls-1" x1="139.04" y1="117.06" x2="139.05" y2="117.82"/></g><g id="LWPOLYLINE-66" data-name="LWPOLYLINE"><line class="cls-1" x1="139.1" y1="116.31" x2="139.04" y2="117.06"/></g><g id="LWPOLYLINE-67" data-name="LWPOLYLINE"><line class="cls-1" x1="139.24" y1="115.57" x2="139.1" y2="116.31"/></g><g id="LWPOLYLINE-68" data-name="LWPOLYLINE"><line class="cls-1" x1="531.56" y1="167.21" x2="532.29" y2="167.12"/></g><g id="LWPOLYLINE-69" data-name="LWPOLYLINE"><line class="cls-1" x1="530.82" y1="167.23" x2="531.56" y2="167.21"/></g><g id="LWPOLYLINE-70" data-name="LWPOLYLINE"><line class="cls-1" x1="146.24" y1="110.08" x2="531.17" y2="109.71"/></g><g id="LWPOLYLINE-71" data-name="LWPOLYLINE"><line class="cls-1" x1="538.21" y1="117.28" x2="538.39" y2="160.2"/></g><g id="LWPOLYLINE-72" data-name="LWPOLYLINE"><line class="cls-1" x1="531.92" y1="109.79" x2="531.18" y2="109.72"/></g><g id="LWPOLYLINE-73" data-name="LWPOLYLINE"><line class="cls-1" x1="532.64" y1="109.93" x2="531.92" y2="109.79"/></g><g id="LWPOLYLINE-74" data-name="LWPOLYLINE"><line class="cls-1" x1="533.33" y1="110.14" x2="532.64" y2="109.93"/></g><g id="LWPOLYLINE-75" data-name="LWPOLYLINE"><line class="cls-1" x1="533.99" y1="110.42" x2="533.33" y2="110.14"/></g><g id="LWPOLYLINE-76" data-name="LWPOLYLINE"><line class="cls-1" x1="534.61" y1="110.76" x2="533.99" y2="110.42"/></g><g id="LWPOLYLINE-77" data-name="LWPOLYLINE"><line class="cls-1" x1="535.19" y1="111.14" x2="534.61" y2="110.76"/></g><g id="LWPOLYLINE-78" data-name="LWPOLYLINE"><line class="cls-1" x1="535.74" y1="111.59" x2="535.19" y2="111.14"/></g><g id="LWPOLYLINE-79" data-name="LWPOLYLINE"><line class="cls-1" x1="536.24" y1="112.07" x2="535.74" y2="111.59"/></g><g id="LWPOLYLINE-80" data-name="LWPOLYLINE"><line class="cls-1" x1="536.69" y1="112.6" x2="536.24" y2="112.07"/></g><g id="LWPOLYLINE-81" data-name="LWPOLYLINE"><line class="cls-1" x1="537.09" y1="113.18" x2="536.69" y2="112.6"/></g><g id="LWPOLYLINE-82" data-name="LWPOLYLINE"><line class="cls-1" x1="537.43" y1="113.79" x2="537.09" y2="113.18"/></g><g id="LWPOLYLINE-83" data-name="LWPOLYLINE"><line class="cls-1" x1="537.72" y1="114.44" x2="537.43" y2="113.79"/></g><g id="LWPOLYLINE-84" data-name="LWPOLYLINE"><line class="cls-1" x1="537.94" y1="115.11" x2="537.72" y2="114.44"/></g><g id="LWPOLYLINE-85" data-name="LWPOLYLINE"><line class="cls-1" x1="538.1" y1="115.82" x2="537.94" y2="115.11"/></g><g id="LWPOLYLINE-86" data-name="LWPOLYLINE"><line class="cls-1" x1="538.19" y1="116.54" x2="538.1" y2="115.82"/></g><g id="LWPOLYLINE-87" data-name="LWPOLYLINE"><line class="cls-1" x1="538.21" y1="117.28" x2="538.19" y2="116.54"/></g><g id="LWPOLYLINE-88" data-name="LWPOLYLINE"><line class="cls-1" x1="141.03" y1="112.31" x2="140.9" y2="112.45"/></g><g id="LWPOLYLINE-89" data-name="LWPOLYLINE"><line class="cls-1" x1="141.58" y1="111.79" x2="141.03" y2="112.31"/></g><g id="LWPOLYLINE-90" data-name="LWPOLYLINE"><line class="cls-1" x1="142.17" y1="111.33" x2="141.58" y2="111.79"/></g><g id="LWPOLYLINE-91" data-name="LWPOLYLINE"><line class="cls-1" x1="142.82" y1="110.94" x2="142.17" y2="111.33"/></g><g id="LWPOLYLINE-92" data-name="LWPOLYLINE"><line class="cls-1" x1="143.49" y1="110.63" x2="142.82" y2="110.94"/></g><g id="LWPOLYLINE-93" data-name="LWPOLYLINE"><line class="cls-1" x1="144.2" y1="110.37" x2="143.49" y2="110.63"/></g><g id="LWPOLYLINE-94" data-name="LWPOLYLINE"><line class="cls-1" x1="139.74" y1="114.17" x2="139.46" y2="114.86"/></g><g id="LWPOLYLINE-95" data-name="LWPOLYLINE"><line class="cls-1" x1="140.1" y1="113.51" x2="139.74" y2="114.17"/></g><g id="LWPOLYLINE-96" data-name="LWPOLYLINE"><line class="cls-1" x1="140.53" y1="112.89" x2="140.1" y2="113.51"/></g><g id="LWPOLYLINE-97" data-name="LWPOLYLINE"><line class="cls-1" x1="140.9" y1="112.45" x2="140.53" y2="112.89"/></g><g id="LWPOLYLINE-98" data-name="LWPOLYLINE"><line class="cls-1" x1="531.92" y1="109.79" x2="531.18" y2="109.72"/></g><g id="LWPOLYLINE-99" data-name="LWPOLYLINE"><line class="cls-1" x1="532.64" y1="109.93" x2="531.92" y2="109.79"/></g><g id="LWPOLYLINE-100" data-name="LWPOLYLINE"><line class="cls-1" x1="533.33" y1="110.14" x2="532.64" y2="109.93"/></g><g id="LWPOLYLINE-101" data-name="LWPOLYLINE"><line class="cls-1" x1="533.98" y1="110.42" x2="533.33" y2="110.14"/></g><g id="LWPOLYLINE-102" data-name="LWPOLYLINE"><line class="cls-1" x1="534.61" y1="110.75" x2="533.98" y2="110.42"/></g><g id="LWPOLYLINE-103" data-name="LWPOLYLINE"><line class="cls-1" x1="535.19" y1="111.14" x2="534.61" y2="110.75"/></g><g id="LWPOLYLINE-104" data-name="LWPOLYLINE"><line class="cls-1" x1="535.73" y1="111.58" x2="535.19" y2="111.14"/></g><g id="LWPOLYLINE-105" data-name="LWPOLYLINE"><line class="cls-1" x1="536.24" y1="112.07" x2="535.73" y2="111.58"/></g><g id="LWPOLYLINE-106" data-name="LWPOLYLINE"><line class="cls-1" x1="536.69" y1="112.6" x2="536.24" y2="112.07"/></g><g id="LWPOLYLINE-107" data-name="LWPOLYLINE"><line class="cls-1" x1="537.09" y1="113.18" x2="536.69" y2="112.6"/></g><g id="LWPOLYLINE-108" data-name="LWPOLYLINE"><line class="cls-1" x1="537.43" y1="113.79" x2="537.09" y2="113.18"/></g><g id="LWPOLYLINE-109" data-name="LWPOLYLINE"><line class="cls-1" x1="537.72" y1="114.44" x2="537.43" y2="113.79"/></g><g id="LWPOLYLINE-110" data-name="LWPOLYLINE"><line class="cls-1" x1="537.94" y1="115.11" x2="537.72" y2="114.44"/></g><g id="LWPOLYLINE-111" data-name="LWPOLYLINE"><line class="cls-1" x1="538.1" y1="115.82" x2="537.94" y2="115.11"/></g><g id="LWPOLYLINE-112" data-name="LWPOLYLINE"><line class="cls-1" x1="538.19" y1="116.54" x2="538.1" y2="115.82"/></g><g id="LWPOLYLINE-113" data-name="LWPOLYLINE"><line class="cls-1" x1="538.21" y1="117.28" x2="538.19" y2="116.54"/></g><g id="LWPOLYLINE-114" data-name="LWPOLYLINE"><line class="cls-1" x1="211.75" y1="162.3" x2="211.75" y2="337.91"/></g><g id="LWPOLYLINE-115" data-name="LWPOLYLINE"><line class="cls-1" x1="266.96" y1="160.76" x2="213.19" y2="160.86"/></g><g id="LWPOLYLINE-116" data-name="LWPOLYLINE"><polyline class="cls-1" points="268.38 155.09 268.38 159.34 268.24 159.96 267.86 160.44 267.31 160.72 266.96 160.76"/></g><g id="LWPOLYLINE-117" data-name="LWPOLYLINE"><polyline class="cls-1" points="320.91 153.67 269.8 153.67 269.18 153.8 268.7 154.18 268.43 154.73 268.38 155.09"/></g><g id="LWPOLYLINE-118" data-name="LWPOLYLINE"><polyline class="cls-1" points="322.33 148.7 322.33 152.25 322.19 152.86 321.81 153.34 321.27 153.62 320.91 153.67"/></g><g id="LWPOLYLINE-119" data-name="LWPOLYLINE"><polyline class="cls-1" points="372.02 147.28 323.75 147.28 323.13 147.41 322.65 147.79 322.38 148.34 322.33 148.7"/></g><g id="LWPOLYLINE-120" data-name="LWPOLYLINE"><polyline class="cls-1" points="373.44 152.25 373.44 148.7 373.3 148.08 372.93 147.6"/></g><g id="LWPOLYLINE-121" data-name="LWPOLYLINE"><polyline class="cls-1" points="476.08 215.57 436.32 215.57 436.32 175.82"/></g><g id="LWPOLYLINE-122" data-name="LWPOLYLINE"><line class="cls-1" x1="530.02" y1="175.82" x2="530.02" y2="215.57"/></g><g id="LWPOLYLINE-123" data-name="LWPOLYLINE"><line class="cls-1" x1="328.43" y1="155.59" x2="368.18" y2="155.59"/></g><g id="LWPOLYLINE-124" data-name="LWPOLYLINE"><polyline class="cls-1" points="314.24 309.99 274.48 309.99 274.48 270.23"/></g><g id="LWPOLYLINE-125" data-name="LWPOLYLINE"><line class="cls-1" x1="220.54" y1="276.98" x2="260.28" y2="276.98"/></g><g id="LWPOLYLINE-126" data-name="LWPOLYLINE"><line class="cls-1" x1="436.33" y1="175.82" x2="476.08" y2="175.82"/></g><g id="LWPOLYLINE-127" data-name="LWPOLYLINE"><line class="cls-1" x1="373.49" y1="152.6" x2="373.44" y2="152.25"/></g><g id="LWPOLYLINE-128" data-name="LWPOLYLINE"><polyline class="cls-1" points="427.39 165.73 427.39 155.09 427.25 154.47 426.88 153.99 426.32 153.71 425.97 153.67"/></g><g id="LWPOLYLINE-129" data-name="LWPOLYLINE"><line class="cls-1" x1="530.82" y1="167.23" x2="428.81" y2="167.15"/></g><g id="LWPOLYLINE-130" data-name="LWPOLYLINE"><line class="cls-1" x1="476.08" y1="175.82" x2="476.08" y2="215.57"/></g><g id="LWPOLYLINE-131" data-name="LWPOLYLINE"><line class="cls-1" x1="422.13" y1="202.09" x2="382.37" y2="202.09"/></g><g id="LWPOLYLINE-132" data-name="LWPOLYLINE"><line class="cls-1" x1="260.28" y1="169.08" x2="260.28" y2="208.83"/></g><g id="LWPOLYLINE-133" data-name="LWPOLYLINE"><line class="cls-1" x1="382.37" y1="309.99" x2="382.37" y2="270.23"/></g><g id="LWPOLYLINE-134" data-name="LWPOLYLINE"><polyline class="cls-1" points="274.48 270.23 314.24 270.23 314.24 309.99"/></g><g id="LWPOLYLINE-135" data-name="LWPOLYLINE"><line class="cls-1" x1="220.54" y1="208.83" x2="220.54" y2="169.08"/></g><g id="LWPOLYLINE-136" data-name="LWPOLYLINE"><line class="cls-1" x1="260.28" y1="208.83" x2="220.54" y2="208.83"/></g><g id="LWPOLYLINE-137" data-name="LWPOLYLINE"><line class="cls-1" x1="368.18" y1="155.59" x2="368.18" y2="195.34"/></g><g id="LWPOLYLINE-138" data-name="LWPOLYLINE"><line class="cls-1" x1="490.27" y1="215.57" x2="490.27" y2="175.82"/></g><g id="LWPOLYLINE-139" data-name="LWPOLYLINE"><line class="cls-1" x1="274.48" y1="202.09" x2="274.48" y2="162.34"/></g><g id="LWPOLYLINE-140" data-name="LWPOLYLINE"><line class="cls-1" x1="172.21" y1="435.12" x2="140.85" y2="395.24"/></g><g id="LWPOLYLINE-141" data-name="LWPOLYLINE"><line class="cls-1" x1="208.5" y1="343.68" x2="148.88" y2="391.54"/></g><g id="LWPOLYLINE-142" data-name="LWPOLYLINE"><line class="cls-1" x1="328.43" y1="322.83" x2="368.18" y2="322.83"/></g><g id="LWPOLYLINE-143" data-name="LWPOLYLINE"><line class="cls-1" x1="274.48" y1="162.34" x2="314.24" y2="162.34"/></g><g id="LWPOLYLINE-144" data-name="LWPOLYLINE"><polyline class="cls-1" points="220.54 223.03 260.28 223.03 260.28 262.78"/></g><g id="LWPOLYLINE-145" data-name="LWPOLYLINE"><line class="cls-1" x1="382.37" y1="162.34" x2="422.13" y2="162.34"/></g><g id="LWPOLYLINE-146" data-name="LWPOLYLINE"><line class="cls-1" x1="220.54" y1="169.08" x2="260.28" y2="169.08"/></g><g id="LWPOLYLINE-147" data-name="LWPOLYLINE"><line class="cls-1" x1="422.13" y1="162.34" x2="422.13" y2="202.09"/></g><g id="LWPOLYLINE-148" data-name="LWPOLYLINE"><polyline class="cls-1" points="490.27 283.72 530.02 283.72 530.02 323.47"/></g><g id="LWPOLYLINE-149" data-name="LWPOLYLINE"><line class="cls-1" x1="490.27" y1="175.82" x2="530.02" y2="175.82"/></g><g id="LWPOLYLINE-150" data-name="LWPOLYLINE"><line class="cls-1" x1="274.48" y1="256.03" x2="274.48" y2="216.29"/></g><g id="LWPOLYLINE-151" data-name="LWPOLYLINE"><line class="cls-1" x1="328.43" y1="209.54" x2="368.18" y2="209.54"/></g><g id="LWPOLYLINE-152" data-name="LWPOLYLINE"><polyline class="cls-1" points="314.24 216.29 314.24 256.03 274.48 256.03"/></g><g id="LWPOLYLINE-153" data-name="LWPOLYLINE"><polyline class="cls-1" points="368.18 209.54 368.18 249.29 328.43 249.29"/></g><g id="LWPOLYLINE-154" data-name="LWPOLYLINE"><line class="cls-1" x1="382.37" y1="202.09" x2="382.37" y2="162.34"/></g><g id="LWPOLYLINE-155" data-name="LWPOLYLINE"><polyline class="cls-1" points="260.28 262.78 220.54 262.78 220.54 223.03"/></g><g id="LWPOLYLINE-156" data-name="LWPOLYLINE"><polyline class="cls-1" points="422.13 256.03 382.37 256.03 382.37 216.29"/></g><g id="LWPOLYLINE-157" data-name="LWPOLYLINE"><line class="cls-1" x1="328.43" y1="249.29" x2="328.43" y2="209.54"/></g><g id="LWPOLYLINE-158" data-name="LWPOLYLINE"><line class="cls-1" x1="530.02" y1="215.57" x2="490.27" y2="215.57"/></g><g id="LWPOLYLINE-159" data-name="LWPOLYLINE"><polyline class="cls-1" points="530.02 323.47 490.27 323.47 490.27 283.72"/></g><g id="LWPOLYLINE-160" data-name="LWPOLYLINE"><line class="cls-1" x1="436.33" y1="283.72" x2="476.08" y2="283.72"/></g><g id="LWPOLYLINE-161" data-name="LWPOLYLINE"><line class="cls-1" x1="314.24" y1="202.09" x2="274.48" y2="202.09"/></g><g id="LWPOLYLINE-162" data-name="LWPOLYLINE"><polyline class="cls-1" points="382.37 270.23 422.13 270.23 422.13 309.99 382.37 309.99"/></g><g id="LWPOLYLINE-163" data-name="LWPOLYLINE"><rect class="cls-1" x="490.27" y="229.77" width="39.75" height="39.74"/></g><g id="LWPOLYLINE-164" data-name="LWPOLYLINE"><rect class="cls-1" x="436.33" y="229.77" width="39.75" height="39.74"/></g><g id="LWPOLYLINE-165" data-name="LWPOLYLINE"><polyline class="cls-1" points="328.43 263.49 368.18 263.49 368.18 303.24 328.43 303.24"/></g><g id="LWPOLYLINE-166" data-name="LWPOLYLINE"><polyline class="cls-1" points="241.58 342.88 259 378.61 223.27 396.04 205.85 360.31"/></g><g id="LWPOLYLINE-167" data-name="LWPOLYLINE"><polyline class="cls-1" points="153.99 398.68 184.89 373.66 209.9 404.56"/></g><g id="LWPOLYLINE-168" data-name="LWPOLYLINE"><polyline class="cls-1" points="260.28 276.98 260.28 316.73 220.54 316.73 220.54 276.98"/></g><g id="LWPOLYLINE-169" data-name="LWPOLYLINE"><polyline class="cls-1" points="476.08 283.72 476.08 323.47 436.32 323.47 436.32 283.72"/></g><g id="LWPOLYLINE-170" data-name="LWPOLYLINE"><polyline class="cls-1" points="312.68 364.38 273.94 373.32 265.01 334.58"/></g><g id="LWPOLYLINE-171" data-name="LWPOLYLINE"><line class="cls-1" x1="205.85" y1="360.31" x2="241.58" y2="342.88"/></g><g id="LWPOLYLINE-172" data-name="LWPOLYLINE"><line class="cls-1" x1="531" y1="332.56" x2="397.94" y2="332.56"/></g><g id="LWPOLYLINE-173" data-name="LWPOLYLINE"><line class="cls-1" x1="141.16" y1="112.18" x2="140.9" y2="112.45"/></g><g id="LWPOLYLINE-174" data-name="LWPOLYLINE"><line class="cls-1" x1="141.58" y1="111.8" x2="141.16" y2="112.18"/></g><g id="LWPOLYLINE-175" data-name="LWPOLYLINE"><line class="cls-1" x1="142.17" y1="111.33" x2="141.58" y2="111.8"/></g><g id="LWPOLYLINE-176" data-name="LWPOLYLINE"><line class="cls-1" x1="142.82" y1="110.94" x2="142.17" y2="111.33"/></g><g id="LWPOLYLINE-177" data-name="LWPOLYLINE"><line class="cls-1" x1="143.49" y1="110.63" x2="142.82" y2="110.94"/></g><g id="LWPOLYLINE-178" data-name="LWPOLYLINE"><line class="cls-1" x1="144.2" y1="110.37" x2="143.49" y2="110.63"/></g><g id="LWPOLYLINE-179" data-name="LWPOLYLINE"><line class="cls-1" x1="144.93" y1="110.2" x2="144.2" y2="110.37"/></g><g id="LWPOLYLINE-180" data-name="LWPOLYLINE"><line class="cls-1" x1="145.67" y1="110.1" x2="144.93" y2="110.2"/></g><g id="LWPOLYLINE-181" data-name="LWPOLYLINE"><line class="cls-1" x1="146.24" y1="110.08" x2="145.67" y2="110.1"/></g><g id="LWPOLYLINE-182" data-name="LWPOLYLINE"><line class="cls-1" x1="139.04" y1="117.63" x2="139.07" y2="118"/></g><g id="LWPOLYLINE-183" data-name="LWPOLYLINE"><line class="cls-1" x1="139.04" y1="117.06" x2="139.04" y2="117.63"/></g><g id="LWPOLYLINE-184" data-name="LWPOLYLINE"><line class="cls-1" x1="139.1" y1="116.31" x2="139.04" y2="117.06"/></g><g id="LWPOLYLINE-185" data-name="LWPOLYLINE"><line class="cls-1" x1="139.24" y1="115.57" x2="139.1" y2="116.31"/></g><g id="LWPOLYLINE-186" data-name="LWPOLYLINE"><line class="cls-1" x1="139.46" y1="114.86" x2="139.24" y2="115.57"/></g><g id="LWPOLYLINE-187" data-name="LWPOLYLINE"><line class="cls-1" x1="328.43" y1="303.24" x2="328.43" y2="263.49"/></g><g id="LWPOLYLINE-188" data-name="LWPOLYLINE"><line class="cls-1" x1="328.43" y1="195.34" x2="328.43" y2="155.59"/></g><g id="LWPOLYLINE-189" data-name="LWPOLYLINE"><polyline class="cls-1" points="209.9 404.56 179.01 429.56 153.99 398.68"/></g><g id="LWPOLYLINE-190" data-name="LWPOLYLINE"><line class="cls-1" x1="368.18" y1="195.34" x2="328.43" y2="195.34"/></g><g id="LWPOLYLINE-191" data-name="LWPOLYLINE"><polyline class="cls-1" points="140.85 395.24 140.47 394.73 140.13 394.2 139.82 393.65 139.56 393.08 139.34 392.5 139.16 391.9 139.01 391.29 138.92 390.67 138.86 390.04 138.85 389.42 138.86 388.99"/></g><g id="LWPOLYLINE-192" data-name="LWPOLYLINE"><polyline class="cls-1" points="184.84 436.29 189.63 431.94 194.48 427.73 199.41 423.68 204.41 419.78 209.46 416.02 214.59 412.42 219.78 408.95 225.03 405.65 230.35 402.49 235.72 399.48 241.16 396.62 246.65 393.91 252.2 391.36 257.81 388.95 263.47 386.7 269.19 384.59 274.96 382.64 280.78 380.84 286.66 379.2 292.58 377.7 298.56 376.36 304.57 375.17 310.64 374.13 316.76 373.25 322.92 372.53 329.11 371.96 335.36 371.54 341.65 371.27 347.97 371.16 354.34 371.21 360.75 371.42 367.19 371.78"/></g><g id="LWPOLYLINE-193" data-name="LWPOLYLINE"><line class="cls-1" x1="144.93" y1="110.2" x2="144.2" y2="110.37"/></g><g id="LWPOLYLINE-194" data-name="LWPOLYLINE"><line class="cls-1" x1="145.67" y1="110.1" x2="144.93" y2="110.2"/></g><g id="LWPOLYLINE-195" data-name="LWPOLYLINE"><line class="cls-1" x1="146.24" y1="110.08" x2="145.67" y2="110.1"/></g><g id="LWPOLYLINE-196" data-name="LWPOLYLINE"><line class="cls-1" x1="139.46" y1="114.86" x2="139.24" y2="115.57"/></g><g id="LWPOLYLINE-197" data-name="LWPOLYLINE"><line class="cls-1" x1="139.74" y1="114.17" x2="139.46" y2="114.86"/></g><g id="LWPOLYLINE-198" data-name="LWPOLYLINE"><line class="cls-1" x1="140.1" y1="113.51" x2="139.74" y2="114.17"/></g><g id="LWPOLYLINE-199" data-name="LWPOLYLINE"><line class="cls-1" x1="140.53" y1="112.89" x2="140.1" y2="113.51"/></g><g id="LWPOLYLINE-200" data-name="LWPOLYLINE"><line class="cls-1" x1="140.9" y1="112.45" x2="140.53" y2="112.89"/></g><g id="LWPOLYLINE-201" data-name="LWPOLYLINE"><line class="cls-1" x1="376.18" y1="366.4" x2="391.45" y2="336.89"/></g><g id="LWPOLYLINE-202" data-name="LWPOLYLINE"><line class="cls-1" x1="538.32" y1="326.42" x2="538.39" y2="325.69"/></g><g id="LWPOLYLINE-203" data-name="LWPOLYLINE"><line class="cls-1" x1="538.18" y1="327.12" x2="538.32" y2="326.42"/></g><g id="LWPOLYLINE-204" data-name="LWPOLYLINE"><line class="cls-1" x1="537.97" y1="327.79" x2="538.18" y2="327.12"/></g><g id="LWPOLYLINE-205" data-name="LWPOLYLINE"><line class="cls-1" x1="537.7" y1="328.43" x2="537.97" y2="327.79"/></g><g id="LWPOLYLINE-206" data-name="LWPOLYLINE"><line class="cls-1" x1="537.38" y1="329.05" x2="537.7" y2="328.43"/></g><g id="LWPOLYLINE-207" data-name="LWPOLYLINE"><line class="cls-1" x1="537" y1="329.62" x2="537.38" y2="329.05"/></g><g id="LWPOLYLINE-208" data-name="LWPOLYLINE"><polyline class="cls-1" points="184.81 436.19 189.67 431.84 194.6 427.65 199.59 423.6 204.64 419.7 209.76 415.95 214.94 412.35 220.18 408.9 225.47 405.59 230.83 402.43 236.24 399.43 241.71 396.57 247.24 393.87 252.82 391.31 258.45 388.91 264.13 386.65 269.88 384.56 275.66 382.6 281.5 380.81 287.38 379.16 293.32 377.67 299.31 376.33 305.34 375.14 311.41 374.11 317.53 373.23 323.69 372.5 329.9 371.93 336.14 371.51 342.43 371.24 348.76 371.13 355.13 371.19 361.53 371.39 367.97 371.75"/></g><g id="LWPOLYLINE-209" data-name="LWPOLYLINE"><polyline class="cls-1" points="141.07 395.61 140.69 395.09 140.35 394.56 140.05 394.01 139.79 393.44 139.56 392.86 139.38 392.26 139.24 391.65 139.15 391.03 139.09 390.4 139.07 389.78 139.09 389.35"/></g><g id="LWPOLYLINE-210" data-name="LWPOLYLINE"><line class="cls-1" x1="172.18" y1="435.02" x2="141.07" y2="395.6"/></g><g id="LWPOLYLINE-211" data-name="LWPOLYLINE"><polyline class="cls-1" points="178.24 438.34 177.57 438.26 176.92 438.12 176.28 437.93 175.66 437.7 175.06 437.42 174.48 437.09 173.94 436.72 173.41 436.31 172.92 435.86 172.46 435.37 172.18 435.02"/></g><g id="LWPOLYLINE-212" data-name="LWPOLYLINE"><polyline class="cls-1" points="184.81 436.19 184.28 436.61 183.74 437 183.17 437.34 182.57 437.63 181.96 437.87 181.33 438.07 180.68 438.23 180.02 438.33 179.36 438.38 178.69 438.37 178.24 438.34"/></g><g id="LWPOLYLINE-213" data-name="LWPOLYLINE"><polyline class="cls-1" points="376.18 366.4 375.86 366.97 375.51 367.51 375.13 368.03 374.72 368.52 374.28 368.99 373.81 369.41 373.31 369.81 372.8 370.18 372.25 370.51 371.69 370.8 371.11 371.06 370.51 371.27 369.89 371.45 369.26 371.6 368.62 371.69 367.97 371.75"/></g><g id="SPLINE-3" data-name="SPLINE"><path class="cls-1" d="M531.06,332.51a7.22,7.22,0,0,0,7.39-6.86"/></g><g id="LWPOLYLINE-214" data-name="LWPOLYLINE"><line class="cls-1" x1="153.44" y1="109.9" x2="146.12" y2="110.01"/></g><g id="LWPOLYLINE-215" data-name="LWPOLYLINE"><polyline class="cls-1" points="397.81 332.5 397.01 332.55 396.24 332.71 395.48 332.96 394.78 333.29 394.1 333.7 393.48 334.17 392.9 334.68 392.38 335.23 391.93 335.82 391.54 336.42 391.32 336.83"/></g><g id="LWPOLYLINE-216" data-name="LWPOLYLINE"><line class="cls-1" x1="531.05" y1="332.51" x2="397.81" y2="332.5"/></g><g id="SPLINE-4" data-name="SPLINE"><path class="cls-1" d="M146.12,110a7.22,7.22,0,0,0-5.35,2.37"/></g><g id="SPLINE-5" data-name="SPLINE"><path class="cls-1" d="M140.77,112.39a7.22,7.22,0,0,0-1.83,5.56"/></g><g id="SPLINE-6" data-name="SPLINE"><path class="cls-1" d="M538.45,117.23a7.4,7.4,0,0,0-7-7.57"/></g><g id="LWPOLYLINE-217" data-name="LWPOLYLINE"><line class="cls-1" x1="376.18" y1="366.4" x2="391.32" y2="336.83"/></g><g id="LWPOLYLINE-218" data-name="LWPOLYLINE"><line class="cls-1" x1="138.94" y1="117.95" x2="139.09" y2="389.35"/></g><g id="LWPOLYLINE-219" data-name="LWPOLYLINE"><line class="cls-1" x1="538.45" y1="117.23" x2="538.45" y2="325.65"/></g><g id="LWPOLYLINE-220" data-name="LWPOLYLINE"><line class="cls-1" x1="202.28" y1="109.9" x2="531.41" y2="109.65"/></g><g id="LWPOLYLINE-221" data-name="LWPOLYLINE"><line class="cls-1" x1="172.18" y1="109.9" x2="153.44" y2="109.9"/></g><g id="LWPOLYLINE-222" data-name="LWPOLYLINE"><line class="cls-1" x1="172.18" y1="113.59" x2="172.18" y2="109.9"/></g><g id="LWPOLYLINE-223" data-name="LWPOLYLINE"><line class="cls-1" x1="184.96" y1="113.59" x2="172.18" y2="113.59"/></g><g id="LWPOLYLINE-224" data-name="LWPOLYLINE"><line class="cls-1" x1="184.96" y1="109.9" x2="184.96" y2="113.59"/></g><g id="LWPOLYLINE-225" data-name="LWPOLYLINE"><line class="cls-1" x1="202.28" y1="109.9" x2="184.96" y2="109.9"/></g><line class="cls-1" x1="287.27" y1="236.16" x2="301.45" y2="236.16"/><line class="cls-1" x1="294.36" y1="243.25" x2="294.36" y2="229.07"/></g><text class="cls-2" transform="translate(3.29 196.51)">Torn</text><line class="cls-3" x1="138.86" y1="192.1" x2="24.33" y2="192.62"/></g><text class="cls-4" transform="translate(343.36 347.83)">R</text></g><text class="cls-4" transform="matrix(0.79, -0.62, 0.62, 0.79, 181.46, 408.97)">R</text><text class="cls-4" transform="translate(505.78 201.32)">R</text><rect id="border" class="cls-3" x="0.25" y="0.25" width="751.18" height="565.7"/></g></g></g></svg>