<svg xmlns="http://www.w3.org/2000/svg" viewBox="0 0 751.68 566.2"><defs><style>.cls-1,.cls-3,.cls-4{fill:none;stroke:#000;}.cls-1,.cls-3{stroke-miterlimit:10;}.cls-2{font-size:10px;font-family:FiraSansCondensed-Medium, Fira Sans Condensed;font-weight:500;}.cls-3{stroke-width:0.5px;}.cls-4{stroke-linecap:round;stroke-linejoin:round;}</style></defs><g id="Layer_2" data-name="Layer 2"><g id="main"><g id="uhk_ansi"><g id="g83"><rect id="rect5741-4-3-8-2-1-6-0" class="cls-1" x="227.27" y="101.84" width="51.55" height="51.55" rx="2.87"/><rect id="rect5741-4-3-8-2-1-6-0-6" class="cls-1" x="281.72" y="101.84" width="51.55" height="51.55" rx="2.87"/><rect id="rect5741-4-3-8-2-1-6-0-6-5" class="cls-1" x="336.18" y="101.84" width="51.55" height="51.55" rx="2.87"/><rect id="rect5741-4-3-8-2-1-6-0-6-5-9" class="cls-1" x="390.63" y="101.84" width="51.55" height="51.55" rx="2.87"/><rect id="rect5741-4-3-8-2-1-6-0-6-5-9-7" class="cls-1" x="445.09" y="101.84" width="51.55" height="51.55" rx="2.87"/><rect id="rect5741-4-3-8-2-1-6-0-6-5-9-7-7" class="cls-1" x="499.54" y="101.84" width="51.55" height="51.55" rx="2.87"/><rect id="rect5741-4-3-8-2-1-6-0-6-5-9-7-7-3" class="cls-1" x="554" y="101.84" width="79.4" height="51.55" rx="2.87"/><rect id="rect5741-4-2" class="cls-1" x="200.49" y="156.43" width="51.55" height="51.55" rx="2.87"/><rect id="rect5741-4-94" class="cls-1" x="254.94" y="156.43" width="51.55" height="51.55" rx="2.87"/><rect id="rect5741-4-7" class="cls-1" x="309.4" y="156.43" width="51.55" height="51.55" rx="2.87"/><rect id="rect5741-4-6" class="cls-1" x="363.85" y="156.43" width="51.55" height="51.55" rx="2.87"/><rect id="rect5741-4-74" class="cls-1" x="418.31" y="156.43" width="51.55" height="51.55" rx="2.87"/><rect id="rect5741-4-0" class="cls-1" x="472.76" y="156.43" width="51.55" height="51.55" rx="2.87"/><rect id="rect5741-4-68" class="cls-1" x="527.22" y="156.43" width="51.55" height="51.55" rx="2.87"/><rect id="rect5741-4-70" class="cls-1" x="581.67" y="156.43" width="51.55" height="51.55" rx="2.87"/><rect id="rect5741-4-3-8-2-1-6-0-6-5-9-7-7-3-5-3" class="cls-1" x="538.91" y="211.03" width="94.48" height="51.55" rx="2.87"/><rect id="rect5741-4-1-1" class="cls-1" x="213.91" y="211.03" width="51.55" height="51.55" rx="2.87"/><rect id="rect5741-4-1-7" class="cls-1" x="268.08" y="211.03" width="51.55" height="51.55" rx="2.87"/><rect id="rect5741-4-1-2" class="cls-1" x="322.24" y="211.03" width="51.55" height="51.55" rx="2.87"/><rect id="rect5741-4-1-56" class="cls-1" x="376.41" y="211.03" width="51.55" height="51.55" rx="2.87"/><rect id="rect5741-4-1-6" class="cls-1" x="430.58" y="211.03" width="51.55" height="51.55" rx="2.87"/><rect id="rect5741-4-1-9" class="cls-1" x="484.74" y="211.03" width="51.55" height="51.55" rx="2.87"/><rect id="rect5741-4-3-8-2-1-6-0-6-5-9-7-7-3-5-3-7-4-8" class="cls-1" x="512.99" y="265.63" width="120.4" height="51.55" rx="2.87"/><rect id="rect5741-4-1-5-8" class="cls-1" x="240.72" y="265.63" width="51.55" height="51.55" rx="2.87"/><rect id="rect5741-4-1-5-4" class="cls-1" x="295.17" y="265.63" width="51.55" height="51.55" rx="2.87"/><rect id="rect5741-4-1-5-9" class="cls-1" x="349.63" y="265.63" width="51.55" height="51.55" rx="2.87"/><rect id="rect5741-4-1-5-5" class="cls-1" x="404.08" y="265.63" width="51.55" height="51.55" rx="2.87"/><rect id="rect5741-4-1-5-1" class="cls-1" x="458.54" y="265.63" width="51.55" height="51.55" rx="2.87"/><rect id="rect5741-4-3-8-2-1-6-0-6-5-9-7-7-3-5-3-7-1-8" class="cls-1" x="213.39" y="320.23" width="94.48" height="51.55" rx="2.87"/><rect id="rect5741-4-3-8-2-1-6-0-6-5-9-7-7-3-5-5-6" class="cls-1" x="309.89" y="320.23" width="65.69" height="51.55" rx="2.87"/><rect id="rect5741-4-3-8-2-1-6-0-6-5-9-7-7-3-5-5-1" class="cls-1" x="377.59" y="320.23" width="65.69" height="51.55" rx="2.87"/><rect id="rect5741-4-3-8-2-1-6-0-6-5-9-7-7-3-5-5-89" class="cls-1" x="445.29" y="320.23" width="65.69" height="51.55" rx="2.87"/><rect id="rect5741-4-3-8-2-1-6-0-6-5-9-7-7-3-5-3-7-4-8-2" class="cls-1" x="512.99" y="320.23" width="120.4" height="51.55" rx="2.87"/></g><text class="cls-2" transform="translate(627.3 456.94)">Ultimate Hacking KeyBoard</text><line class="cls-3" x1="632.87" y1="370.55" x2="634.88" y2="446.03"/><line class="cls-4" x1="286.76" y1="236.82" x2="300.94" y2="236.82"/><line class="cls-4" x1="293.85" y1="243.91" x2="293.85" y2="229.73"/><rect id="border" class="cls-3" x="0.25" y="0.25" width="751.18" height="565.7"/></g></g></g></svg>