<svg xmlns="http://www.w3.org/2000/svg" viewBox="0 0 751.68 566.2"><defs><style>.cls-1,.cls-3,.cls-4{fill:none;stroke:#000;}.cls-1{stroke-miterlimit:11.34;}.cls-2{font-size:10px;font-family:FiraSansCondensed-Medium, Fira Sans Condensed;font-weight:500;}.cls-3{stroke-miterlimit:10;stroke-width:0.5px;}.cls-4{stroke-linecap:round;stroke-linejoin:round;}</style></defs><g id="Layer_2" data-name="Layer 2"><g id="main"><g id="viterbi"><polygon class="cls-1" points="204.61 388.31 203.94 388.28 203.28 388.21 202.62 388.08 201.98 387.89 201.35 387.66 200.75 387.38 200.17 387.06 199.61 386.69 199.09 386.27 198.59 385.82 198.14 385.33 197.73 384.8 197.36 384.25 197.03 383.67 196.75 383.06 196.52 382.44 196.34 381.79 196.21 381.14 196.13 380.47 196.11 379.8 196.1 92.37 196.13 91.7 196.21 91.04 196.34 90.38 196.52 89.74 196.75 89.11 197.03 88.51 197.36 87.93 197.73 87.37 198.14 86.85 198.59 86.36 199.09 85.9 199.61 85.49 200.17 85.12 200.75 84.79 201.35 84.51 201.98 84.28 202.62 84.1 203.28 83.97 203.94 83.89 204.61 83.86 600.04 83.86 600.71 83.89 601.38 83.97 602.03 84.1 602.67 84.28 603.3 84.51 603.9 84.79 604.49 85.12 605.04 85.49 605.57 85.9 606.06 86.36 606.51 86.85 606.93 87.37 607.29 87.93 607.62 88.51 607.9 89.11 608.13 89.74 608.32 90.38 608.45 91.04 608.52 91.7 608.55 92.37 608.55 379.8 608.52 380.47 608.45 381.14 608.32 381.79 608.13 382.44 607.9 383.06 607.62 383.67 607.29 384.25 606.93 384.8 606.51 385.33 606.06 385.82 605.57 386.27 605.04 386.69 604.49 387.06 603.9 387.38 603.3 387.66 602.67 387.89 602.03 388.08 601.38 388.21 600.71 388.28 600.05 388.31 204.61 388.31"/><polygon class="cls-1" points="375.54 95.34 375.77 95.34 376.01 95.31 376.24 95.26 376.46 95.2 376.68 95.12 376.89 95.02 377.1 94.91 377.29 94.78 377.47 94.63 377.65 94.47 377.81 94.3 377.95 94.12 378.08 93.92 378.19 93.72 378.29 93.51 378.37 93.29 378.43 93.07 378.48 92.84 378.51 92.6 378.52 92.37 378.51 92.14 378.48 91.9 378.43 91.67 378.37 91.45 378.29 91.23 378.19 91.02 378.08 90.81 377.95 90.62 377.81 90.44 377.65 90.27 377.47 90.11 377.29 89.96 377.1 89.83 376.89 89.72 376.68 89.62 376.46 89.54 376.24 89.48 376.01 89.43 375.77 89.4 375.54 89.39 375.31 89.4 375.07 89.43 374.85 89.48 374.62 89.54 374.4 89.62 374.19 89.72 373.99 89.83 373.79 89.96 373.61 90.11 373.44 90.27 373.28 90.44 373.13 90.62 373 90.81 372.89 91.02 372.79 91.23 372.71 91.45 372.65 91.67 372.6 91.9 372.57 92.14 372.56 92.37 372.57 92.6 372.6 92.84 372.65 93.07 372.71 93.29 372.79 93.51 372.89 93.72 373 93.92 373.13 94.12 373.28 94.3 373.44 94.47 373.61 94.63 373.79 94.78 373.99 94.91 374.19 95.02 374.4 95.12 374.62 95.2 374.85 95.26 375.07 95.31 375.31 95.34 375.54 95.34"/><polygon class="cls-1" points="204.61 95.34 204.84 95.34 205.07 95.31 205.31 95.26 205.53 95.2 205.75 95.12 205.96 95.02 206.16 94.91 206.36 94.78 206.54 94.63 206.71 94.47 206.87 94.3 207.02 94.12 207.15 93.92 207.26 93.72 207.36 93.51 207.44 93.29 207.5 93.07 207.55 92.84 207.58 92.6 207.59 92.37 207.58 92.14 207.55 91.9 207.5 91.67 207.44 91.45 207.36 91.23 207.26 91.02 207.15 90.81 207.02 90.62 206.87 90.44 206.71 90.27 206.54 90.11 206.36 89.96 206.16 89.83 205.96 89.72 205.75 89.62 205.53 89.54 205.31 89.48 205.07 89.43 204.84 89.4 204.61 89.39 204.38 89.4 204.14 89.43 203.91 89.48 203.69 89.54 203.47 89.62 203.26 89.72 203.05 89.83 202.86 89.96 202.68 90.11 202.5 90.27 202.35 90.44 202.2 90.62 202.07 90.81 201.96 91.02 201.86 91.23 201.78 91.45 201.72 91.67 201.67 91.9 201.64 92.14 201.63 92.37 201.64 92.6 201.67 92.84 201.72 93.07 201.78 93.29 201.86 93.51 201.96 93.72 202.07 93.92 202.2 94.12 202.35 94.3 202.5 94.47 202.68 94.63 202.86 94.78 203.05 94.91 203.26 95.02 203.47 95.12 203.69 95.2 203.91 95.26 204.14 95.31 204.38 95.34 204.61 95.34"/><polygon class="cls-1" points="600.05 95.34 600.28 95.34 600.51 95.31 600.74 95.26 600.97 95.2 601.18 95.12 601.4 95.02 601.6 94.91 601.79 94.78 601.98 94.63 602.15 94.47 602.31 94.3 602.45 94.12 602.58 93.92 602.7 93.72 602.8 93.51 602.88 93.29 602.94 93.07 602.99 92.84 603.01 92.6 603.02 92.37 603.01 92.14 602.99 91.9 602.94 91.67 602.88 91.45 602.8 91.23 602.7 91.02 602.58 90.81 602.45 90.62 602.31 90.44 602.15 90.27 601.98 90.11 601.79 89.96 601.6 89.83 601.4 89.72 601.18 89.62 600.97 89.54 600.74 89.48 600.51 89.43 600.28 89.4 600.05 89.39 599.81 89.4 599.58 89.43 599.35 89.48 599.13 89.54 598.91 89.62 598.69 89.72 598.49 89.83 598.29 89.96 598.11 90.11 597.94 90.27 597.78 90.44 597.64 90.62 597.51 90.81 597.39 91.02 597.29 91.23 597.22 91.45 597.15 91.67 597.1 91.9 597.08 92.14 597.07 92.37 597.08 92.6 597.1 92.84 597.15 93.07 597.22 93.29 597.29 93.51 597.39 93.72 597.51 93.92 597.64 94.12 597.78 94.3 597.94 94.47 598.11 94.63 598.29 94.78 598.49 94.91 598.69 95.02 598.91 95.12 599.13 95.2 599.35 95.26 599.58 95.31 599.81 95.34 600.05 95.34"/><polygon class="cls-1" points="259.96 147.72 259.96 146.02 262.23 146.02 262.23 110.16 259.96 110.16 259.96 108.46 220.7 108.46 220.7 110.16 218.43 110.16 218.43 146.02 220.7 146.02 220.7 147.72 259.96 147.72"/><polygon class="cls-1" points="313.96 147.72 313.96 146.02 316.23 146.02 316.23 110.16 313.96 110.16 313.96 108.46 274.7 108.46 274.7 110.16 272.43 110.16 272.43 146.02 274.7 146.02 274.7 147.72 313.96 147.72"/><polygon class="cls-1" points="367.96 147.72 367.96 146.02 370.23 146.02 370.23 110.16 367.96 110.16 367.96 108.46 328.7 108.46 328.7 110.16 326.43 110.16 326.43 146.02 328.7 146.02 328.7 147.72 367.96 147.72"/><polygon class="cls-1" points="421.96 147.72 421.96 146.02 424.23 146.02 424.23 110.16 421.96 110.16 421.96 108.46 382.7 108.46 382.7 110.16 380.43 110.16 380.43 146.02 382.7 146.02 382.7 147.72 421.96 147.72"/><polygon class="cls-1" points="475.96 147.72 475.96 146.02 478.22 146.02 478.22 110.16 475.96 110.16 475.96 108.46 436.7 108.46 436.7 110.16 434.43 110.16 434.43 146.02 436.7 146.02 436.7 147.72 475.96 147.72"/><polygon class="cls-1" points="529.95 147.72 529.95 146.02 532.22 146.02 532.22 110.16 529.95 110.16 529.95 108.46 490.7 108.46 490.7 110.16 488.43 110.16 488.43 146.02 490.7 146.02 490.7 147.72 529.95 147.72"/><polygon class="cls-1" points="583.96 147.72 583.96 146.02 586.23 146.02 586.23 110.16 583.96 110.16 583.96 108.46 544.7 108.46 544.7 110.16 542.43 110.16 542.43 146.02 544.7 146.02 544.7 147.72 583.96 147.72"/><polygon class="cls-1" points="259.96 201.72 259.96 200.02 262.23 200.02 262.23 164.16 259.96 164.16 259.96 162.46 220.7 162.46 220.7 164.16 218.43 164.16 218.43 200.02 220.7 200.02 220.7 201.72 259.96 201.72"/><polygon class="cls-1" points="313.96 201.72 313.96 200.02 316.23 200.02 316.23 164.16 313.96 164.16 313.96 162.46 274.7 162.46 274.7 164.16 272.43 164.16 272.43 200.02 274.7 200.02 274.7 201.72 313.96 201.72"/><polygon class="cls-1" points="367.96 201.72 367.96 200.02 370.23 200.02 370.23 164.16 367.96 164.16 367.96 162.46 328.7 162.46 328.7 164.16 326.43 164.16 326.43 200.02 328.7 200.02 328.7 201.72 367.96 201.72"/><polygon class="cls-1" points="421.96 201.72 421.96 200.02 424.23 200.02 424.23 164.16 421.96 164.16 421.96 162.46 382.7 162.46 382.7 164.16 380.43 164.16 380.43 200.02 382.7 200.02 382.7 201.72 421.96 201.72"/><polygon class="cls-1" points="475.96 201.72 475.96 200.02 478.22 200.02 478.22 164.16 475.96 164.16 475.96 162.46 436.7 162.46 436.7 164.16 434.43 164.16 434.43 200.02 436.7 200.02 436.7 201.72 475.96 201.72"/><polygon class="cls-1" points="529.95 201.72 529.95 200.02 532.22 200.02 532.22 164.16 529.95 164.16 529.95 162.46 490.7 162.46 490.7 164.16 488.43 164.16 488.43 200.02 490.7 200.02 490.7 201.72 529.95 201.72"/><polygon class="cls-1" points="583.96 201.72 583.96 200.02 586.23 200.02 586.23 164.16 583.96 164.16 583.96 162.46 544.7 162.46 544.7 164.16 542.43 164.16 542.43 200.02 544.7 200.02 544.7 201.72 583.96 201.72"/><polygon class="cls-1" points="259.96 255.72 259.96 254.02 262.23 254.02 262.23 218.16 259.96 218.16 259.96 216.46 220.7 216.46 220.7 218.16 218.43 218.16 218.43 254.02 220.7 254.02 220.7 255.72 259.96 255.72"/><polygon class="cls-1" points="313.96 255.72 313.96 254.02 316.23 254.02 316.23 218.16 313.96 218.16 313.96 216.46 274.7 216.46 274.7 218.16 272.43 218.16 272.43 254.02 274.7 254.02 274.7 255.72 313.96 255.72"/><polygon class="cls-1" points="367.96 255.72 367.96 254.02 370.23 254.02 370.23 218.16 367.96 218.16 367.96 216.46 328.7 216.46 328.7 218.16 326.43 218.16 326.43 254.02 328.7 254.02 328.7 255.72 367.96 255.72"/><polygon class="cls-1" points="421.96 255.72 421.96 254.02 424.23 254.02 424.23 218.16 421.96 218.16 421.96 216.46 382.7 216.46 382.7 218.16 380.43 218.16 380.43 254.02 382.7 254.02 382.7 255.72 421.96 255.72"/><polygon class="cls-1" points="475.96 255.72 475.96 254.02 478.22 254.02 478.22 218.16 475.96 218.16 475.96 216.46 436.7 216.46 436.7 218.16 434.43 218.16 434.43 254.02 436.7 254.02 436.7 255.72 475.96 255.72"/><polygon class="cls-1" points="529.95 255.72 529.95 254.02 532.22 254.02 532.22 218.16 529.95 218.16 529.95 216.46 490.7 216.46 490.7 218.16 488.43 218.16 488.43 254.02 490.7 254.02 490.7 255.72 529.95 255.72"/><polygon class="cls-1" points="583.96 255.72 583.96 254.02 586.23 254.02 586.23 218.16 583.96 218.16 583.96 216.46 544.7 216.46 544.7 218.16 542.43 218.16 542.43 254.02 544.7 254.02 544.7 255.72 583.96 255.72"/><polygon class="cls-1" points="204.61 239.06 204.84 239.06 205.07 239.03 205.31 238.98 205.53 238.92 205.75 238.84 205.96 238.74 206.16 238.63 206.36 238.49 206.54 238.35 206.71 238.19 206.87 238.02 207.02 237.84 207.15 237.64 207.26 237.44 207.36 237.23 207.44 237.01 207.5 236.78 207.55 236.55 207.58 236.32 207.59 236.09 207.58 235.85 207.55 235.62 207.5 235.39 207.44 235.17 207.36 234.95 207.26 234.74 207.15 234.53 207.02 234.34 206.87 234.15 206.71 233.98 206.54 233.83 206.36 233.68 206.16 233.55 205.96 233.43 205.75 233.34 205.53 233.26 205.31 233.19 205.07 233.15 204.84 233.12 204.61 233.11 204.38 233.12 204.14 233.15 203.91 233.19 203.69 233.26 203.47 233.34 203.26 233.43 203.05 233.55 202.86 233.68 202.68 233.83 202.5 233.98 202.35 234.15 202.2 234.34 202.07 234.53 201.96 234.74 201.86 234.95 201.78 235.17 201.72 235.39 201.67 235.62 201.64 235.85 201.63 236.09 201.64 236.32 201.67 236.55 201.72 236.78 201.78 237.01 201.86 237.23 201.96 237.44 202.07 237.64 202.2 237.84 202.35 238.02 202.5 238.19 202.68 238.35 202.86 238.49 203.05 238.63 203.26 238.74 203.47 238.84 203.69 238.92 203.91 238.98 204.14 239.03 204.38 239.06 204.61 239.06"/><polygon class="cls-1" points="600.05 239.06 600.28 239.06 600.51 239.03 600.74 238.98 600.97 238.92 601.18 238.84 601.4 238.74 601.6 238.63 601.79 238.49 601.98 238.35 602.15 238.19 602.31 238.02 602.45 237.84 602.58 237.64 602.7 237.44 602.8 237.23 602.88 237.01 602.94 236.78 602.99 236.55 603.01 236.32 603.02 236.09 603.01 235.85 602.99 235.62 602.94 235.39 602.88 235.17 602.8 234.95 602.7 234.74 602.58 234.53 602.45 234.34 602.31 234.15 602.15 233.98 601.98 233.83 601.79 233.68 601.6 233.55 601.4 233.43 601.18 233.34 600.97 233.26 600.74 233.19 600.51 233.15 600.28 233.12 600.05 233.11 599.81 233.12 599.58 233.15 599.35 233.19 599.13 233.26 598.91 233.34 598.69 233.43 598.49 233.55 598.29 233.68 598.11 233.83 597.94 233.98 597.78 234.15 597.64 234.34 597.51 234.53 597.39 234.74 597.29 234.95 597.22 235.17 597.15 235.39 597.1 235.62 597.08 235.85 597.07 236.09 597.08 236.32 597.1 236.55 597.15 236.78 597.22 237.01 597.29 237.23 597.39 237.44 597.51 237.64 597.64 237.84 597.78 238.02 597.94 238.19 598.11 238.35 598.29 238.49 598.49 238.63 598.69 238.74 598.91 238.84 599.13 238.92 599.35 238.98 599.58 239.03 599.81 239.06 600.05 239.06"/><polygon class="cls-1" points="259.96 309.72 259.96 308.02 262.23 308.02 262.23 272.16 259.96 272.16 259.96 270.46 220.7 270.46 220.7 272.16 218.43 272.16 218.43 308.02 220.7 308.02 220.7 309.72 259.96 309.72"/><polygon class="cls-1" points="313.96 309.72 313.96 308.02 316.23 308.02 316.23 272.16 313.96 272.16 313.96 270.46 274.7 270.46 274.7 272.16 272.43 272.16 272.43 308.02 274.7 308.02 274.7 309.72 313.96 309.72"/><polygon class="cls-1" points="367.96 309.72 367.96 308.02 370.23 308.02 370.23 272.16 367.96 272.16 367.96 270.46 328.7 270.46 328.7 272.16 326.43 272.16 326.43 308.02 328.7 308.02 328.7 309.72 367.96 309.72"/><polygon class="cls-1" points="421.96 309.72 421.96 308.02 424.23 308.02 424.23 272.16 421.96 272.16 421.96 270.46 382.7 270.46 382.7 272.16 380.43 272.16 380.43 308.02 382.7 308.02 382.7 309.72 421.96 309.72"/><polygon class="cls-1" points="475.96 309.72 475.96 308.02 478.22 308.02 478.22 272.16 475.96 272.16 475.96 270.46 436.7 270.46 436.7 272.16 434.43 272.16 434.43 308.02 436.7 308.02 436.7 309.72 475.96 309.72"/><polygon class="cls-1" points="529.95 309.72 529.95 308.02 532.22 308.02 532.22 272.16 529.95 272.16 529.95 270.46 490.7 270.46 490.7 272.16 488.43 272.16 488.43 308.02 490.7 308.02 490.7 309.72 529.95 309.72"/><polygon class="cls-1" points="583.96 309.72 583.96 308.02 586.23 308.02 586.23 272.16 583.96 272.16 583.96 270.46 544.7 270.46 544.7 272.16 542.43 272.16 542.43 308.02 544.7 308.02 544.7 309.72 583.96 309.72"/><polygon class="cls-1" points="313.95 363.72 313.95 362.02 316.23 362.02 316.23 326.16 313.95 326.16 313.95 324.46 305.52 324.46 305.52 322.33 296.6 322.33 296.6 324.46 238.06 324.46 238.06 322.33 229.13 322.33 229.13 324.46 220.7 324.46 220.7 326.16 218.43 326.16 218.43 362.02 220.7 362.02 220.7 363.72 313.95 363.72"/><polygon class="cls-1" points="367.96 363.72 367.96 362.02 370.23 362.02 370.23 326.16 367.96 326.16 367.96 324.46 328.7 324.46 328.7 326.16 326.43 326.16 326.43 362.02 328.7 362.02 328.7 363.72 367.96 363.72"/><polygon class="cls-1" points="421.96 363.72 421.96 362.02 424.23 362.02 424.23 326.16 421.96 326.16 421.96 324.46 382.7 324.46 382.7 326.16 380.43 326.16 380.43 362.02 382.7 362.02 382.7 363.72 421.96 363.72"/><polygon class="cls-1" points="475.96 363.72 475.96 362.02 478.22 362.02 478.22 326.16 475.96 326.16 475.96 324.46 436.7 324.46 436.7 326.16 434.43 326.16 434.43 362.02 436.7 362.02 436.7 363.72 475.96 363.72"/><polygon class="cls-1" points="529.95 363.72 529.95 362.02 532.22 362.02 532.22 326.16 529.95 326.16 529.95 324.46 490.7 324.46 490.7 326.16 488.43 326.16 488.43 362.02 490.7 362.02 490.7 363.72 529.95 363.72"/><polygon class="cls-1" points="583.96 363.72 583.96 362.02 586.23 362.02 586.23 326.16 583.96 326.16 583.96 324.46 544.7 324.46 544.7 326.16 542.43 326.16 542.43 362.02 544.7 362.02 544.7 363.72 583.96 363.72"/><polygon class="cls-1" points="375.11 382.78 375.35 382.77 375.58 382.75 375.81 382.7 376.03 382.64 376.25 382.56 376.46 382.46 376.67 382.34 376.86 382.21 377.05 382.07 377.22 381.91 377.38 381.74 377.52 381.56 377.65 381.36 377.76 381.16 377.86 380.94 377.94 380.73 378.01 380.5 378.05 380.27 378.08 380.04 378.09 379.8 378.08 379.57 378.05 379.34 378.01 379.11 377.94 378.89 377.86 378.67 377.76 378.45 377.65 378.25 377.52 378.06 377.38 377.87 377.22 377.7 377.05 377.54 376.86 377.4 376.67 377.27 376.46 377.15 376.25 377.06 376.03 376.98 375.81 376.91 375.58 376.87 375.35 376.84 375.11 376.83 374.88 376.84 374.65 376.87 374.42 376.91 374.19 376.98 373.98 377.06 373.76 377.15 373.56 377.27 373.36 377.4 373.18 377.54 373.01 377.7 372.85 377.87 372.7 378.06 372.57 378.25 372.46 378.45 372.36 378.67 372.28 378.89 372.22 379.11 372.17 379.34 372.15 379.57 372.14 379.8 372.15 380.04 372.17 380.27 372.22 380.5 372.28 380.73 372.36 380.94 372.46 381.16 372.57 381.36 372.7 381.56 372.85 381.74 373.01 381.91 373.18 382.07 373.36 382.21 373.56 382.34 373.76 382.46 373.98 382.56 374.19 382.64 374.42 382.7 374.65 382.75 374.88 382.77 375.11 382.78"/><polygon class="cls-1" points="204.61 382.78 204.84 382.77 205.07 382.75 205.31 382.7 205.53 382.64 205.75 382.56 205.96 382.46 206.16 382.34 206.36 382.21 206.54 382.07 206.71 381.91 206.87 381.74 207.02 381.56 207.15 381.36 207.26 381.16 207.36 380.94 207.44 380.73 207.5 380.5 207.55 380.27 207.58 380.04 207.59 379.8 207.58 379.57 207.55 379.34 207.5 379.11 207.44 378.89 207.36 378.67 207.26 378.45 207.15 378.25 207.02 378.06 206.87 377.87 206.71 377.7 206.54 377.54 206.36 377.4 206.16 377.27 205.96 377.15 205.75 377.06 205.53 376.98 205.31 376.91 205.07 376.87 204.84 376.84 204.61 376.83 204.38 376.84 204.14 376.87 203.91 376.91 203.69 376.98 203.47 377.06 203.26 377.15 203.05 377.27 202.86 377.4 202.68 377.54 202.5 377.7 202.35 377.87 202.2 378.06 202.07 378.25 201.96 378.45 201.86 378.67 201.78 378.89 201.72 379.11 201.67 379.34 201.64 379.57 201.63 379.8 201.64 380.04 201.67 380.27 201.72 380.5 201.78 380.73 201.86 380.94 201.96 381.16 202.07 381.36 202.2 381.56 202.35 381.74 202.5 381.91 202.68 382.07 202.86 382.21 203.05 382.34 203.26 382.46 203.47 382.56 203.69 382.64 203.91 382.7 204.14 382.75 204.38 382.77 204.61 382.78"/><polygon class="cls-1" points="600.05 382.78 600.28 382.77 600.51 382.75 600.74 382.7 600.97 382.64 601.18 382.56 601.4 382.46 601.6 382.34 601.79 382.21 601.98 382.07 602.15 381.91 602.31 381.74 602.45 381.56 602.58 381.36 602.7 381.16 602.8 380.94 602.88 380.73 602.94 380.5 602.99 380.27 603.01 380.04 603.02 379.8 603.01 379.57 602.99 379.34 602.94 379.11 602.88 378.89 602.8 378.67 602.7 378.45 602.58 378.25 602.45 378.06 602.31 377.87 602.15 377.7 601.98 377.54 601.79 377.4 601.6 377.27 601.4 377.15 601.18 377.06 600.97 376.98 600.74 376.91 600.51 376.87 600.28 376.84 600.05 376.83 599.81 376.84 599.58 376.87 599.35 376.91 599.13 376.98 598.91 377.06 598.69 377.15 598.49 377.27 598.29 377.4 598.11 377.54 597.94 377.7 597.78 377.87 597.64 378.06 597.51 378.25 597.39 378.45 597.29 378.67 597.22 378.89 597.15 379.11 597.1 379.34 597.08 379.57 597.07 379.8 597.08 380.04 597.1 380.27 597.15 380.5 597.22 380.73 597.29 380.94 597.39 381.16 597.51 381.36 597.64 381.56 597.78 381.74 597.94 381.91 598.11 382.07 598.29 382.21 598.49 382.34 598.69 382.46 598.91 382.56 599.13 382.64 599.35 382.7 599.58 382.75 599.81 382.77 600.05 382.78"/><text class="cls-2" transform="translate(537.52 463.54)">Viterbi</text><line class="cls-3" x1="541.28" y1="454.5" x2="541.03" y2="388.31"/><line class="cls-4" x1="287.24" y1="236.13" x2="301.41" y2="236.13"/><line class="cls-4" x1="294.33" y1="243.22" x2="294.33" y2="229.04"/><rect id="border" class="cls-3" x="0.25" y="0.25" width="751.18" height="565.7"/></g></g></g></svg>