<svg xmlns="http://www.w3.org/2000/svg" viewBox="0 0 751.68 566.2"><defs><style>.cls-1,.cls-2,.cls-3,.cls-5{fill:none;stroke:#000;}.cls-2{stroke-opacity:0.99;}.cls-3{stroke-linecap:round;stroke-linejoin:round;}.cls-4{font-size:10px;font-family:FiraSansCondensed-Medium, Fira Sans Condensed;font-weight:500;}.cls-5{stroke-miterlimit:10;stroke-width:0.5px;}</style></defs><g id="Layer_2" data-name="Layer 2"><g id="main"><g id="xenon"><g id="xenon-2" data-name="xenon"><g id="xenon-3" data-name="xenon"><g id="layer8"><path id="rect63287" class="cls-1" d="M158.16,176A3,3,0,0,1,161,173H267.59V161.18a2.8,2.8,0,0,1,2.84-2.76H320.7a2.59,2.59,0,0,1,.63.07h.26V146.05a2.8,2.8,0,0,1,2.85-2.76H374a2.8,2.8,0,0,1,2.84,2.76v12.44h51.38a2.8,2.8,0,0,1,2.84,2.76v26.81H535.35a2.81,2.81,0,0,1,2.85,2.77V342.3a2.8,2.8,0,0,1-2.85,2.76H431v20.73a2.8,2.8,0,0,1-2.84,2.76H377l-.22,0v33.19a2.8,2.8,0,0,1-2.84,2.76H323.55V418.3a2.81,2.81,0,0,1-2.85,2.77H267.59v11.05a2.8,2.8,0,0,1-2.84,2.77H161a2.8,2.8,0,0,1-2.84-2.77Z"/></g><g id="g81243"><path id="path81193" class="cls-2" d="M161.25,330.89h53.56V173.56h53.91V158.82h53V146.19c.35-2.13,1-2.48,2.84-2.76h49.31a2.79,2.79,0,0,1,2.84,2.76v12.63H424a2.94,2.94,0,0,1,1.33-.33h2.84a2.8,2.8,0,0,1,2.84,2.76v27.29H532a2.86,2.86,0,0,1,1.34-.34h2.14a2.8,2.8,0,0,1,2.84,2.77V342.29a2.6,2.6,0,0,1-.06.56,2.7,2.7,0,0,1-.77,1.4,2.87,2.87,0,0,1-.9.59,2.93,2.93,0,0,1-1.11.22H431a2.8,2.8,0,0,1-2.84-2.77v-22.8h-54.3V354H320.09L320,369l-53.81-.07-.09,14.81H161.25Zm5.2,6v38.62h39.94V336.9Zm54.14-157.72V218h39.7V179.18Zm0,52.65v38.62h39.7V231.83Zm0,52.42v38.62h39.7V284.25Zm0,52.65v38.62h39.7V336.91Zm53.9-172.46v38.61H314.2V164.44Zm0,52.41v38.62H314.2V216.85Zm0,52.42v38.62H314.2V269.28Zm0,52.66v38.61H314.2V321.93Zm53.91-120V240.5h39.71V201.88Zm0,52.65v38.62h39.71V254.53Zm0,52.42v38.62h39.71V307Zm.24-143.63v24.75h39.77V149.45H328.7v13.87Zm53.9,1.12v38.61h39.71V164.44Zm0,52.42v38.61h39.71V216.86Zm0,52.65v38.61h39.71V269.51Zm54.15-75.36v38.62h39.7V194.15Zm0,52.66v38.61h39.7V246.81Zm0,52.42v38.62h39.7V299.23Zm53.9-105.08v38.62H530.3V194.15Zm0,52.66v38.61H530.3V246.81Zm0,52.42v38.61H530.3V299.23Z"/></g><line class="cls-3" x1="287.26" y1="236.16" x2="301.43" y2="236.16"/><line class="cls-3" x1="294.35" y1="243.25" x2="294.35" y2="229.07"/></g><text class="cls-4" transform="translate(3.31 233.22)">Xenon</text><line class="cls-5" x1="158.16" y1="234.64" x2="32.36" y2="229.88"/></g><rect class="cls-2" x="166.45" y="389.57" width="39.95" height="38.61"/><rect class="cls-2" x="220.47" y="389.57" width="39.95" height="38.61"/><rect class="cls-2" x="274.37" y="375.52" width="39.95" height="38.61"/><rect class="cls-2" x="328.21" y="359.54" width="39.95" height="38.61"/><rect class="cls-2" x="382.42" y="324.26" width="39.95" height="38.61"/><rect id="border" class="cls-5" x="0.25" y="0.25" width="751.18" height="565.7"/></g></g></g></svg>