<svg xmlns="http://www.w3.org/2000/svg" viewBox="0 0 751.68 566.2"><defs><style>.cls-1,.cls-2,.cls-3,.cls-6{fill-opacity:0;}.cls-1,.cls-10,.cls-2,.cls-3,.cls-4,.cls-5,.cls-6,.cls-7,.cls-9{stroke:#000;}.cls-1,.cls-2,.cls-3,.cls-4,.cls-5,.cls-6,.cls-7,.cls-9{stroke-linecap:round;stroke-linejoin:round;}.cls-1,.cls-3{stroke-width:0.94px;}.cls-2{stroke-width:0.89px;}.cls-3{stroke-dasharray:0.94 2.82;}.cls-10,.cls-4,.cls-7,.cls-9{fill:none;}.cls-4,.cls-5{stroke-width:1px;stroke-dasharray:1 1.99;}.cls-5{fill:#fff;}.cls-6{stroke-width:1.34px;}.cls-8{font-size:10px;font-family:FiraSansCondensed-Medium, Fira Sans Condensed;font-weight:500;}.cls-10,.cls-9{stroke-width:0.5px;}.cls-10{stroke-miterlimit:10;}</style></defs><g id="Layer_2" data-name="Layer 2"><g id="main"><g id="yaemk"><g id="g800"><path id="path302" class="cls-1" d="M158.15,266.68H104.29"/><path id="path304" class="cls-1" d="M158.15,157.55V266.68"/><path id="path306" class="cls-1" d="M104.29,157.55h53.86"/><path id="path308" class="cls-1" d="M104.29,266.68V157.55"/><circle id="circle310" class="cls-1" cx="152.48" cy="258.18" r="2.83"/><circle id="circle312" class="cls-1" cx="109.96" cy="258.18" r="2.83"/></g><g id="g1498"><circle id="circle802" class="cls-2" cx="361.91" cy="352.62" r="25.6"/><path id="path804" class="cls-1" d="M129.67,327.06l44.18-25.51"/><path id="path806" class="cls-1" d="M173.85,301.55l52.45,90.83"/><path id="path808" class="cls-1" d="M226.3,392.38l-44.19,25.51"/><path id="path810" class="cls-1" d="M182.11,417.89l-52.44-90.83"/><path id="path812" class="cls-3" d="M155.18,371.25l44.19-25.52"/><path id="path814" class="cls-3" d="M200.79,348.19l-44.2,25.52"/><path id="path816" class="cls-1" d="M72.89,372.24,112,339.43"/><path id="path818" class="cls-1" d="M112,339.43l67.42,80.35"/><path id="path820" class="cls-1" d="M179.4,419.78l-39.09,32.8"/><path id="path822" class="cls-1" d="M140.31,452.58,72.89,372.24"/><path id="path824" class="cls-3" d="M105.69,411.32l39.08-32.8"/><path id="path826" class="cls-3" d="M146.59,380.7l-39.08,32.79"/><path id="path828" class="cls-1" d="M481.88,354.2h-51"/><path id="path830" class="cls-1" d="M430.86,354.2v-51"/><path id="path832" class="cls-1" d="M430.86,303.18h51"/><path id="path834" class="cls-1" d="M481.88,303.18v51"/><path id="path836" class="cls-1" d="M373.88,302.18h-51"/><path id="path838" class="cls-1" d="M322.86,302.18v-51"/><path id="path840" class="cls-1" d="M322.86,251.16h51"/><path id="path842" class="cls-1" d="M373.88,251.16v51"/><path id="path844" class="cls-1" d="M427.88,162.32h-51"/><path id="path846" class="cls-1" d="M376.86,162.32v-51"/><path id="path848" class="cls-1" d="M376.86,111.3h51"/><path id="path850" class="cls-1" d="M427.88,111.3v51"/><path id="path852" class="cls-1" d="M535.92,360.18h-51"/><path id="path854" class="cls-1" d="M484.9,360.18v-51"/><path id="path856" class="cls-1" d="M484.9,309.15h51"/><path id="path858" class="cls-1" d="M535.92,309.15v51"/><path id="path860" class="cls-1" d="M535.92,306.18h-51"/><path id="path862" class="cls-1" d="M484.9,306.18v-51"/><path id="path864" class="cls-1" d="M484.9,255.15h51"/><path id="path866" class="cls-1" d="M535.92,255.15v51"/><path id="path868" class="cls-1" d="M535.92,252.18h-51"/><path id="path870" class="cls-1" d="M484.9,252.18v-51"/><path id="path872" class="cls-1" d="M484.9,201.15h51"/><path id="path874" class="cls-1" d="M535.92,201.15v51"/><path id="path876" class="cls-1" d="M535.92,198.18h-51"/><path id="path878" class="cls-1" d="M484.9,198.18v-51"/><path id="path880" class="cls-1" d="M484.9,147.15h51"/><path id="path882" class="cls-1" d="M535.92,147.15v51"/><path id="path884" class="cls-1" d="M481.88,300.2h-51"/><path id="path886" class="cls-1" d="M430.86,300.2v-51"/><path id="path888" class="cls-1" d="M430.86,249.18h51"/><path id="path890" class="cls-1" d="M481.88,249.18v51"/><path id="path892" class="cls-1" d="M481.88,246.2h-51"/><path id="path894" class="cls-1" d="M430.86,246.2v-51"/><path id="path896" class="cls-1" d="M430.86,195.18h51"/><path id="path898" class="cls-1" d="M481.88,195.18v51"/><path id="path900" class="cls-1" d="M481.88,192.2h-51"/><path id="path902" class="cls-1" d="M430.86,192.2v-51"/><path id="path904" class="cls-1" d="M430.86,141.18h51"/><path id="path906" class="cls-1" d="M481.88,141.18v51"/><path id="path908" class="cls-1" d="M427.88,324.32h-51"/><path id="path910" class="cls-1" d="M376.86,324.32v-51"/><path id="path912" class="cls-1" d="M376.86,273.3h51"/><path id="path914" class="cls-1" d="M427.88,273.3v51"/><path id="path916" class="cls-1" d="M427.88,270.32h-51"/><path id="path918" class="cls-1" d="M376.86,270.32v-51"/><path id="path920" class="cls-1" d="M376.86,219.3h51"/><path id="path922" class="cls-1" d="M427.88,219.3v51"/><path id="path924" class="cls-1" d="M427.88,216.32h-51"/><path id="path926" class="cls-1" d="M376.86,216.32v-51"/><path id="path928" class="cls-1" d="M376.86,165.3h51"/><path id="path930" class="cls-1" d="M427.88,165.3v51"/><path id="path932" class="cls-1" d="M373.88,248.18h-51"/><path id="path934" class="cls-1" d="M322.86,248.18v-51"/><path id="path936" class="cls-1" d="M322.86,197.16h51"/><path id="path938" class="cls-1" d="M373.88,197.16v51"/><path id="path940" class="cls-1" d="M373.88,194.18h-51"/><path id="path942" class="cls-1" d="M322.86,194.18v-51"/><path id="path944" class="cls-1" d="M322.86,143.16h51"/><path id="path946" class="cls-1" d="M373.88,143.16v51"/><path id="path948" class="cls-1" d="M373.88,140.18h-51"/><path id="path950" class="cls-1" d="M322.86,140.18v-51"/><path id="path952" class="cls-1" d="M322.86,89.16h51"/><path id="path954" class="cls-1" d="M373.88,89.16v51"/><path id="path956" class="cls-1" d="M333.67,378.29h-51"/><path id="path958" class="cls-1" d="M282.65,378.29v-51"/><path id="path960" class="cls-1" d="M282.65,327.26h51"/><path id="path962" class="cls-1" d="M333.67,327.26v51"/><path id="path964" class="cls-1" d="M319.88,315.68h-51"/><path id="path966" class="cls-1" d="M268.86,315.68v-51"/><path id="path968" class="cls-1" d="M268.86,264.66h51"/><path id="path970" class="cls-1" d="M319.88,264.66v51"/><path id="path972" class="cls-1" d="M319.88,261.68h-51"/><path id="path974" class="cls-1" d="M268.86,261.68v-51"/><path id="path976" class="cls-1" d="M268.86,210.66h51"/><path id="path978" class="cls-1" d="M319.88,210.66v51"/><path id="path980" class="cls-1" d="M319.88,207.68h-51"/><path id="path982" class="cls-1" d="M268.86,207.68v-51"/><path id="path984" class="cls-1" d="M268.86,156.66h51"/><path id="path986" class="cls-1" d="M319.88,156.66v51"/><path id="path988" class="cls-1" d="M319.88,153.68h-51"/><path id="path990" class="cls-1" d="M268.86,153.68v-51"/><path id="path992" class="cls-1" d="M268.86,102.66h51"/><path id="path994" class="cls-1" d="M319.88,102.66v51"/><path id="path996" class="cls-1" d="M279.11,378.73,229.6,391.08"/><path id="path998" class="cls-1" d="M229.6,391.08l-12.35-49.51"/><path id="path1000" class="cls-1" d="M217.25,341.57l49.51-12.34"/><path id="path1002" class="cls-1" d="M266.76,329.23l12.35,49.5"/><path id="path1004" class="cls-1" d="M265.88,323.78h-51"/><path id="path1006" class="cls-1" d="M214.86,323.78v-51"/><path id="path1008" class="cls-1" d="M214.86,272.76h51"/><path id="path1010" class="cls-1" d="M265.88,272.76v51"/><path id="path1012" class="cls-1" d="M265.88,269.78h-51"/><path id="path1014" class="cls-1" d="M214.86,269.78v-51"/><path id="path1016" class="cls-1" d="M214.86,218.76h51"/><path id="path1018" class="cls-1" d="M265.88,218.76v51"/><path id="path1020" class="cls-1" d="M265.88,215.78h-51"/><path id="path1022" class="cls-1" d="M214.86,215.78v-51"/><path id="path1024" class="cls-1" d="M214.86,164.76h51"/><path id="path1026" class="cls-1" d="M265.88,164.76v51"/><path id="path1028" class="cls-1" d="M211.88,269.78h-51"/><path id="path1030" class="cls-1" d="M160.86,269.78v-51"/><path id="path1032" class="cls-1" d="M160.86,218.76h51"/><path id="path1034" class="cls-1" d="M211.88,218.76v51"/><path id="path1036" class="cls-1" d="M211.88,215.78h-51"/><path id="path1038" class="cls-1" d="M160.86,215.78v-51"/><path id="path1040" class="cls-1" d="M160.86,164.76h51"/><path id="path1042" class="cls-1" d="M211.88,164.76v51"/><path id="path1044" class="cls-1" d="M265.88,161.78h-51"/><path id="path1046" class="cls-1" d="M214.86,161.78v-51"/><path id="path1048" class="cls-1" d="M214.86,110.76h51"/><path id="path1050" class="cls-1" d="M265.88,110.76v51"/><path id="path1052" class="cls-1" d="M211.88,161.78h-51"/><path id="path1054" class="cls-1" d="M160.86,161.78v-51"/><path id="path1056" class="cls-1" d="M160.86,110.76h51"/><path id="path1058" class="cls-1" d="M211.88,110.76v51"/><circle id="path3371" class="cls-4" cx="294.37" cy="236.18" r="12.86" transform="translate(14.09 488.91) rotate(-80.78)"/><circle id="circle3373" class="cls-4" cx="348.37" cy="222.68" r="12.86"/><circle id="circle3375" class="cls-4" cx="402.37" cy="244.82" r="12.86"/><circle id="circle3377" class="cls-4" cx="456.37" cy="274.7" r="12.86"/><circle id="circle3379" class="cls-4" cx="248.18" cy="360.76" r="12.86"/><circle id="circle3381" class="cls-5" cx="178.55" cy="359.4" r="12.86"/></g><g id="g1550"><path id="path1504" class="cls-6" d="M102.6,110.5V341.93L69.48,369.8"/><path id="path1506" class="cls-6" d="M102.6,110.5l2.16-2.16h45.58"/><path id="path1514" class="cls-6" d="M537.41,364l2.09-2.09"/><path id="path1516" class="cls-6" d="M537.34,143.26l2.16,2.16"/><path id="path1518" class="cls-6" d="M321.41,85.3l-171.07,23"/><path id="path1528" class="cls-6" d="M69.48,373.4l68.15,82.05"/><path id="path1530" class="cls-6" d="M69.48,369.8v3.6"/><path id="path1532" class="cls-6" d="M137.63,455.45l4.9.5"/><path id="path1534" class="cls-6" d="M142.53,456,281.13,382"/><path id="path1536" class="cls-6" d="M281.13,382l115.59-.15"/><path id="path1538" class="cls-6" d="M396.72,381.86,537.41,364"/><path id="path1540" class="cls-6" d="M539.5,361.92V145.42"/><path id="path1542" class="cls-6" d="M537.34,143.26l-162.43-58"/><path id="path1546" class="cls-6" d="M321.41,85.3h53.5"/></g><line class="cls-7" x1="287.28" y1="236.18" x2="301.45" y2="236.18"/><line class="cls-7" x1="294.37" y1="243.26" x2="294.37" y2="229.09"/><text class="cls-8" transform="translate(3.32 110.86)">Yaemk</text><line class="cls-9" x1="35.92" y1="108.37" x2="102.6" y2="110.5"/><rect id="border" class="cls-10" x="0.25" y="0.25" width="751.18" height="565.7"/></g></g></g></svg>