<svg xmlns="http://www.w3.org/2000/svg" viewBox="0 0 751.68 566.2"><defs><style>.cls-1,.cls-3,.cls-4{fill:none;stroke:#000;}.cls-1{stroke-miterlimit:11.34;}.cls-2{font-size:10px;font-family:FiraSansCondensed-Medium, Fira Sans Condensed;font-weight:500;}.cls-3{stroke-miterlimit:10;stroke-width:0.5px;}.cls-4{stroke-linecap:round;stroke-linejoin:round;}</style></defs><g id="Layer_2" data-name="Layer 2"><g id="main"><g id="zodiark"><g id="zodiark-2" data-name="zodiark"><path class="cls-1" d="M372,84.77l1.65.12,2.62.19,3.92.45.33,0,.37.07,16,3L420.05,93l2.06.39,55.66,10.49.39.08,11,2.08,23.74,4.47L536.62,115l2.15,1,1.91,1.39,1.58,1.76,1.18,2.05.67,2.06.06.19.25,2.35V386.57l-.29,2.52-.84,2.4-1.35,2.14-1.79,1.8L538,396.78l-2.39.84-2.52.28H446.19l-8.53-.34-1.11-.14-7.36-.91-8.36-1.74-.78-.3-33.55-13-5.65-1.7-.7-.21-1.31-.39-7.75-1.37-.12,0-1.15-.07-6.82-.4H287.73l-5.57.57-5.35,1.62-4.95,2.62L252,393.78l-11.95,7-2,1.14-3.79,2.2-4.85,2.84-1,.58-11,6.44-29.55,17.25-23.22,13.55L160.81,447l-2.32,1.35-1,.59-1.13.56-1.19.59,0,0-2.57.61-2.64,0-2.58-.56-1.32-.62-.69-.32-.39-.18-.92-.72-1.16-.91-1.45-1.78-.22-.27-4.87-8.51-6.73-11.75-4.3-7.51-2.35-4.1-4.75-8.31-1.9-3.3L103,378.67l-6.65-11.61L95,364.65l-1.25-2.18-1.17-2.37-.61-2.56,0-2.09v-.56l.56-2.58,1.12-2.39L95,348.16l.25-.32,2-1.67,13-7.72,2.58-3,1.77-3.2.15-.28,1.19-3.79.25-2.45.15-.31,1.18-2.42.62-.62,2.47-2.48,2.28-1.36.74-.29.63-.24.88-.14h.1l3.66-.58h17.82l.52-.51,4.47-4.31v-118l3.41-3.41,4-4h48l3-3v-80.9l.9-.5,4.56-2.53,1.77-1,11-6.12,5.85-3.25,9-5h125l1.57,0,1.27,0,.87,0M154.42,440.57l.06-.37h0l-.17-1.06-.48-.95-.75-.75-.07,0-.89-.45-1.05-.16-1,.16-1,.49-.76.75-.48.95,0,.26-.13.25-.11.22-.18,1.1.18,1.09.11.23.14.26.25.5.09.09.46.46.24.24,1,.5,1.09.18,1.1-.18,1-.5.24-.24.55-.55.25-.5.08-.15.17-.34.18-1.09-.06-.38m120.5-170.09h-.26v39.7h39.7v-39.7H274.92m39.31-34.74V216.28h-39.7V256h39.7V235.74M250,274.79H220.4v39.7h39.7v-39.7H250m-17.68,113,2-1.11,10.51-5.82-10.51-19-.33-.6-3.22-5.81-2.3-4.15-1-1.74L226,347l-.49-.87-8,4.46-.1.06-2.23,1.23-1.17.65-5.32,2.95-1.61.89-3.81,2.12-2.65,1.46-1.15.64-8.63,4.78,1,1.72,1.15,2.09.46.82.25.46,1.36,2.44,3.21,5.8,1.24,2.23,2,3.58,3.22,5.8,5.42,9.78,1-.55,6.33-3.51,1-.53,5.48-3,4.59-2.54.71-.4,3.13-1.74M482.08,368.9l-.95.48-.76.76-.48.95-.16,1.05.11.73.05.33.48.95.76.75.95.49,1.05.16,1.06-.16.95-.49.75-.75.49-.95.05-.33.11-.73-.16-1.05-.49-.95-.75-.76-.95-.48-1.06-.16-1.05.16m-153.53-147v25.15h39.7v-39.7h-39.7v14.55m-83.28,38.36H260v-39.7h-39.7v39.7h24.94m97.26,55.23h-14v39.7h39.7v-39.7H342.53m-68,8.37v39.69h39.7V323.89h-39.7m-9.16-119,1,.5,1.09.18,1.1-.18.52-.26.47-.24.39-.39.4-.4.5-1L271,202l-.17-1.1-.5-1-.79-.78-.47-.24-.52-.27-1.1-.17-1.09.17-1,.51-.79.78-.5,1-.18,1.1.18,1.09.5,1,.4.4.39.39M226,322.74l-.49-.95-.75-.76-.82-.41-.13-.07-1.05-.17-1.06.17-.13.07-.82.41-.75.76-.49.95-.16,1.05.16,1.06.49.95.75.75.95.48,1,.16h.09l1.05-.17.95-.48.75-.75.49-.95.16-1.06-.16-1.05M314.41,175v-12.7h-39.7V202h39.7V175m14.14.48v17.73h39.7v-39.7h-39.7v22m153.9-26.28-.95.48-.75.76-.49,1-.14.86,0,.19.17,1.06.49,1,.75.75.95.48,1.05.17,1.06-.17.95-.48.75-.75.48-1,.17-1.06,0-.19-.14-.86-.48-1-.75-.76-.95-.48L483.5,149l-1.05.17m-153.9-24.82v14.55h39.7V99.24h-39.7v25.15m0,149.79v27.18h39.7V261.67h-39.7v12.51m85-168.56H382.41v39.7h39.7v-39.7h-8.57M395.72,159.9H382.41v39.7h39.7V159.9H395.72M372,238.24l.51,1,.11.12.67.67.31.15.68.35,1.1.17,1.1-.17,1-.5.68-.67.11-.12.5-1,.18-1.09-.18-1.1-.5-1-.79-.79-1-.5-1.1-.18-1.1.18-.68.34-.31.16-.78.79-.51,1-.17,1.1.17,1.09M479.8,262.57v.1l.17,1.1.51,1,.78.78,1,.51,1.1.17,1.09-.17,1-.51.79-.78.5-1,.18-1.1,0-.1-.16-1-.5-1-.79-.79-1-.5-1.09-.18-1.1.18-1,.5-.78.79-.51,1-.16,1M395.46,214h-13v39.7h39.7V214H395.46M318,348.52l.51,1,.14.14.64.65,1,.5,1.1.17,1.1-.17,1-.5.65-.65.13-.14.51-1,.17-1.1-.17-1.1-.51-1-.78-.79-1-.5-1.1-.18h0l-1.07.17-1,.5-.78.79-.51,1-.17,1.1.17,1.1m2.39-112.66-.95.48-.76.75-.48,1-.17,1,0,.25.13.8.48.95.76.76.95.48,1.05.17,1.05-.17.95-.48.76-.76.48-.95.13-.8,0-.25-.17-1-.48-1-.76-.75-.95-.48-1.05-.17-1.05.17m-69-123.44h-31.1v39.7H260v-39.7h-8.61m39-4.4H274.69v39.71h39.7V108h-24m85.91,88.5.95-.48.75-.75.49-.95.16-1.06-.06-.38-.1-.67-.49-.95-.75-.75-.95-.49-1.06-.17-1.05.17-.95.49-.75.75-.49.95-.1.67-.06.38.16,1.06.49.95.75.75.95.48,1.05.17,1.06-.17M176.23,311.44l-.37.21-11.24,6.5-2.79,1.61-1,.58-5.65,3.27L152.71,325l-.26.15.56,1,2.15,3.73.23.4,1,1.67,4.46,7.72,2.41,4.18,1.4,2.42,5.31,9.19,2.36,4.1,3.94-2.27,3.16-1.83.21-.11,6-3.45,2.27-1.31,2.4-1.39,16.43-9.49-1.16-2-3.15-5.46-2.91-5-.44-.76-3.35-5.81L189,309l-1.11-1.93-1-1.76L180.44,309l-4.21,2.43m57.4-144.74H220.31v39.7H260V166.7H233.63M206,268.37V247.3h-39.7v21.07h0V287H206V268.37m324.14,95.72V344.44h-39.7v39.7h39.7V364.09M191.27,233.14H206v-39.7h-39.7v39.7h25m126.88-104-.17,1.05.17,1.06.48.95.76.75.95.49,1.05.16,1.05-.16.95-.49.76-.75.48-.95.17-1.06-.17-1.05,0-.06-.45-.89-.76-.75-.95-.49-1.05-.16-1.05.16-.95.49-.76.75-.45.89,0,.06m53.9,216.15.51,1,.78.79.27.13.73.37,1.09.18,1.1-.18,1-.5.78-.79.51-1,.17-1.1-.05-.31-.12-.78-.51-1-.78-.79-1-.5-1.1-.18-1.09.18-.73.37-.27.13-.78.79-.51,1-.12.78-.05.31.17,1.1m-224,45.26-.78.45-1.27.73-.69.4-.84.49-1.36.78-1.72,1-5.09,2.93-3.5,2,1.49,2.59.88,1.51,1.13,2,5.09,8.82,1.86,3.23.58,1,1.48,2.58.69,1.18,1.27,2.2.43.75,4.85,8.4,2.6-1.5,1.19-.69,4.46-2.57,3.81-2.2,2.5-1.44.19-.12,4.14-2.38,2.22-1.29,13.1-7.56-6.86-11.87-3.68-6.38-1.29-2.23-1.33-2.3-.4-.71L167,379.56l-2.4,1.39-3.81,2.2-1.41.81-2.68,1.55-.37.21-.85.49-.34.2-.6.35-6.11,3.52-.39.23M395.46,268h-13v39.7h39.7V268H395.46m80.79-63.53V182.15h-39.7v22.36h0v17.33h39.7V204.51m-39.7,32.21v39.7h39.7v-39.7h-39.7M464.37,128.3H436.55V168h39.7V128.3H464.37M436.55,290.58v39.7h39.7v-39.7h-39.7M153,353l-.23-.39,0-.07-1.68-2.9L150.1,348l-.14-.24-.16-.28-.17-.29-.19-.33-.07-.14-1.68-2.9-.41-.72-.08-.12-.26-.46-.32-.55-.2-.34-.17-.29-.17-.3-.07-.12h0l-.69-1.19-1-1.7-2.94-5.1-1-1.65-4.13,2.38-11,6.37-1.33.76-.67.39-.68.39-.68.4-.94.54-1.62.94-.67.38-.51.3-13.34,7.7h0l-1.58.92,1.54,2.68,1.76,3.05,1.6,2.76.12.22.23.39.12.2,0,.08h0l.8,1.38.36.63.25.43,1.43,2.47,3.35,5.81.51.88.23.4.11.19.05.08h0l.78,1.35.62,1.09,1,1.75,0,.06,5.6,9.7,1.47-.84.12-.07,10.91-6.3,4.3-2.49.79-.45,3.92-2.27.69-.39,1.27-.73,7.88-4.55,1.19-.7,3.07-1.76h0l1.29-.75.11-.06.19-.11-.19-.32-4.46-7.72-1.19-2.08-.77-1.32h0l-.36-.63-1-1.77,0,0M506.32,128.3H490.41V168h39.7V128.3H506.32m-69.77,233v22.88h39.7v-39.7h-39.7v16.82m53.86-162.55v23.14h39.7V202h0V182.15h-39.7v16.56M376,132.85l1-.51.78-.78.51-1,.17-1.1-.07-.43-.1-.67-.51-1-.78-.78-1-.51-1.1-.17-1.1.17-.14.07-.85.44-.78.78-.51,1-.1.67-.07.43.17,1.1.51,1,.78.78.85.44.14.07,1.1.17,1.1-.17M395.2,322.18H382.41v39.7h39.7v-39.7H395.2m95.21-7.37v15.47h39.7v-39.7h-39.7v24.23M126.12,329.12l1.1.18,1.1-.18,1-.5.78-.79.51-1,.06-.41.11-.68-.17-1.1-.51-1-.78-.78-1-.51-1.1-.17-1.1.17-.84.43-.15.08-.78.78-.51,1-.17,1.1.11.68.06.41.51,1,.78.79.15.07.84.43m364.29-70.63v17.93h39.7v-39.7h-39.7v21.77Z"/><text class="cls-2" transform="translate(3.98 438.78)">Zodiark</text><line class="cls-3" x1="117.29" y1="403.66" x2="39.57" y2="433.64"/></g><line class="cls-4" x1="287.29" y1="236.13" x2="301.46" y2="236.13"/><line class="cls-4" x1="294.38" y1="243.22" x2="294.38" y2="229.04"/><rect id="border" class="cls-3" x="0.25" y="0.25" width="751.18" height="565.7"/></g></g></g></svg>