<?xml version="1.0" standalone="no"?>
 <!DOCTYPE svg PUBLIC "-//W3C//DTD SVG 1.1//EN" 
 "http://www.w3.org/Graphics/SVG/1.1/DTD/svg11.dtd"> 
<svg
  xmlns:svg="http://www.w3.org/2000/svg"
  xmlns="http://www.w3.org/2000/svg"
  xmlns:xlink="http://www.w3.org/1999/xlink"
  version="1.1"
  width="29.700220cm" height="21.000720cm" viewBox="0 0 116930 82680">
<title>SVG Picture created as plate_top-F_SilkS.svg date 2021/10/19 14:56:39 </title>
  <desc>Picture generated by PCBNEW </desc>
<g style="fill:#000000; fill-opacity:1;stroke:#000000; stroke-opacity:1;
stroke-linecap:round; stroke-linejoin:round;"
 transform="translate(0 0) scale(1 1)">
</g>
<g style="fill:#000000; fill-opacity:0.0; 
stroke:#000000; stroke-width:-0.000393701; stroke-opacity:1; 
stroke-linecap:round; stroke-linejoin:round;">
</g>
<g style="fill:#000000; fill-opacity:0.0; 
stroke:#000000; stroke-width:39.3701; stroke-opacity:1; 
stroke-linecap:round; stroke-linejoin:round;">
</g>
<g style="fill:#000000; fill-opacity:0.0; 
stroke:#000000; stroke-width:59.0551; stroke-opacity:1; 
stroke-linecap:round; stroke-linejoin:round;">
<rect x="69685.9" y="65357.2" width="42519.7" height="12598.4" rx="0" />
</g>
<g style="fill:#000000; fill-opacity:0.0; 
stroke:#000000; stroke-width:39.3701; stroke-opacity:1; 
stroke-linecap:round; stroke-linejoin:round;">
</g>
<g style="fill:#000000; fill-opacity:0.0; 
stroke:#000000; stroke-width:59.0551; stroke-opacity:1; 
stroke-linecap:round; stroke-linejoin:round;">
<rect x="3937.01" y="3937.01" width="109056" height="74806" rx="0" />
</g>
<g style="fill:#000000; fill-opacity:0.0; 
stroke:#000000; stroke-width:39.3701; stroke-opacity:1; 
stroke-linecap:round; stroke-linejoin:round;">
</g>
<g style="fill:#000000; fill-opacity:0.0; 
stroke:#000000; stroke-width:59.0551; stroke-opacity:1; 
stroke-linecap:round; stroke-linejoin:round;">
<rect x="4724.41" y="4724.41" width="107481" height="73231.2" rx="0" />
</g>
<g style="fill:#000000; fill-opacity:0.0; 
stroke:#000000; stroke-width:39.3701; stroke-opacity:1; 
stroke-linecap:round; stroke-linejoin:round;">
</g>
<g style="fill:#000000; fill-opacity:0.0; 
stroke:#000000; stroke-width:59.0551; stroke-opacity:1; 
stroke-linecap:round; stroke-linejoin:round;">
<path d="M23622 4724
L23622 3937
" />
</g>
<g style="fill:#000000; fill-opacity:0.0; 
stroke:#000000; stroke-width:39.3701; stroke-opacity:1; 
stroke-linecap:round; stroke-linejoin:round;">
</g>
<g style="fill:#000000; fill-opacity:0.0; 
stroke:#000000; stroke-width:59.0551; stroke-opacity:1; 
stroke-linecap:round; stroke-linejoin:round;">
<path d="M43307 4724
L43307 3937
" />
</g>
<g style="fill:#000000; fill-opacity:0.0; 
stroke:#000000; stroke-width:39.3701; stroke-opacity:1; 
stroke-linecap:round; stroke-linejoin:round;">
</g>
<g style="fill:#000000; fill-opacity:0.0; 
stroke:#000000; stroke-width:59.0551; stroke-opacity:1; 
stroke-linecap:round; stroke-linejoin:round;">
<path d="M62992 4724
L62992 3937
" />
</g>
<g style="fill:#000000; fill-opacity:0.0; 
stroke:#000000; stroke-width:39.3701; stroke-opacity:1; 
stroke-linecap:round; stroke-linejoin:round;">
</g>
<g style="fill:#000000; fill-opacity:0.0; 
stroke:#000000; stroke-width:59.0551; stroke-opacity:1; 
stroke-linecap:round; stroke-linejoin:round;">
<path d="M82677 4724
L82677 3937
" />
</g>
<g style="fill:#000000; fill-opacity:0.0; 
stroke:#000000; stroke-width:39.3701; stroke-opacity:1; 
stroke-linecap:round; stroke-linejoin:round;">
</g>
<g style="fill:#000000; fill-opacity:0.0; 
stroke:#000000; stroke-width:59.0551; stroke-opacity:1; 
stroke-linecap:round; stroke-linejoin:round;">
<path d="M102362 4724
L102362 3937
" />
</g>
<g style="fill:#000000; fill-opacity:0.0; 
stroke:#000000; stroke-width:39.3701; stroke-opacity:1; 
stroke-linecap:round; stroke-linejoin:round;">
</g>
<g style="fill:#000000; fill-opacity:0.0; 
stroke:#000000; stroke-width:59.0551; stroke-opacity:1; 
stroke-linecap:round; stroke-linejoin:round;">
<text x="13779.5" y="4586.61"
textLength="487.439" font-size="682.415" lengthAdjust="spacingAndGlyphs"
text-anchor="start" opacity="0">1</text>
<path d="M14199 4562
L13906 4562
" />
<path d="M14052 4562
L14052 4050
L14004 4123
L13955 4172
L13906 4196
" />
</g>
<g style="fill:#000000; fill-opacity:0.0; 
stroke:#000000; stroke-width:39.3701; stroke-opacity:1; 
stroke-linecap:round; stroke-linejoin:round;">
</g>
<g style="fill:#000000; fill-opacity:0.0; 
stroke:#000000; stroke-width:59.0551; stroke-opacity:1; 
stroke-linecap:round; stroke-linejoin:round;">
<text x="33464.6" y="4586.61"
textLength="546.494" font-size="682.415" lengthAdjust="spacingAndGlyphs"
text-anchor="start" opacity="0">2</text>
<path d="M33591 4099
L33615 4074
L33664 4050
L33786 4050
L33835 4074
L33859 4099
L33884 4147
L33884 4196
L33859 4269
L33567 4562
L33884 4562
" />
</g>
<g style="fill:#000000; fill-opacity:0.0; 
stroke:#000000; stroke-width:39.3701; stroke-opacity:1; 
stroke-linecap:round; stroke-linejoin:round;">
</g>
<g style="fill:#000000; fill-opacity:0.0; 
stroke:#000000; stroke-width:59.0551; stroke-opacity:1; 
stroke-linecap:round; stroke-linejoin:round;">
<text x="53149.6" y="4586.61"
textLength="546.494" font-size="682.415" lengthAdjust="spacingAndGlyphs"
text-anchor="start" opacity="0">3</text>
<path d="M53252 4050
L53569 4050
L53398 4245
L53471 4245
L53520 4269
L53544 4294
L53569 4342
L53569 4464
L53544 4513
L53520 4537
L53471 4562
L53325 4562
L53276 4537
L53252 4513
" />
</g>
<g style="fill:#000000; fill-opacity:0.0; 
stroke:#000000; stroke-width:39.3701; stroke-opacity:1; 
stroke-linecap:round; stroke-linejoin:round;">
</g>
<g style="fill:#000000; fill-opacity:0.0; 
stroke:#000000; stroke-width:59.0551; stroke-opacity:1; 
stroke-linecap:round; stroke-linejoin:round;">
<text x="72834.6" y="4586.61"
textLength="546.494" font-size="682.415" lengthAdjust="spacingAndGlyphs"
text-anchor="start" opacity="0">4</text>
<path d="M73205 4221
L73205 4562
" />
<path d="M73083 4026
L72961 4391
L73278 4391
" />
</g>
<g style="fill:#000000; fill-opacity:0.0; 
stroke:#000000; stroke-width:39.3701; stroke-opacity:1; 
stroke-linecap:round; stroke-linejoin:round;">
</g>
<g style="fill:#000000; fill-opacity:0.0; 
stroke:#000000; stroke-width:59.0551; stroke-opacity:1; 
stroke-linecap:round; stroke-linejoin:round;">
<text x="92519.7" y="4586.61"
textLength="546.494" font-size="682.415" lengthAdjust="spacingAndGlyphs"
text-anchor="start" opacity="0">5</text>
<path d="M92914 4050
L92671 4050
L92646 4294
L92671 4269
L92719 4245
L92841 4245
L92890 4269
L92914 4294
L92939 4342
L92939 4464
L92914 4513
L92890 4537
L92841 4562
L92719 4562
L92671 4537
L92646 4513
" />
</g>
<g style="fill:#000000; fill-opacity:0.0; 
stroke:#000000; stroke-width:39.3701; stroke-opacity:1; 
stroke-linecap:round; stroke-linejoin:round;">
</g>
<g style="fill:#000000; fill-opacity:0.0; 
stroke:#000000; stroke-width:59.0551; stroke-opacity:1; 
stroke-linecap:round; stroke-linejoin:round;">
<text x="112205" y="4586.61"
textLength="546.494" font-size="682.415" lengthAdjust="spacingAndGlyphs"
text-anchor="start" opacity="0">6</text>
<path d="M112575 4050
L112477 4050
L112429 4074
L112404 4099
L112356 4172
L112331 4269
L112331 4464
L112356 4513
L112380 4537
L112429 4562
L112526 4562
L112575 4537
L112599 4513
L112624 4464
L112624 4342
L112599 4294
L112575 4269
L112526 4245
L112429 4245
L112380 4269
L112356 4294
L112331 4342
" />
</g>
<g style="fill:#000000; fill-opacity:0.0; 
stroke:#000000; stroke-width:39.3701; stroke-opacity:1; 
stroke-linecap:round; stroke-linejoin:round;">
</g>
<g style="fill:#000000; fill-opacity:0.0; 
stroke:#000000; stroke-width:59.0551; stroke-opacity:1; 
stroke-linecap:round; stroke-linejoin:round;">
<path d="M23622 77955
L23622 78742
" />
</g>
<g style="fill:#000000; fill-opacity:0.0; 
stroke:#000000; stroke-width:39.3701; stroke-opacity:1; 
stroke-linecap:round; stroke-linejoin:round;">
</g>
<g style="fill:#000000; fill-opacity:0.0; 
stroke:#000000; stroke-width:59.0551; stroke-opacity:1; 
stroke-linecap:round; stroke-linejoin:round;">
<path d="M43307 77955
L43307 78742
" />
</g>
<g style="fill:#000000; fill-opacity:0.0; 
stroke:#000000; stroke-width:39.3701; stroke-opacity:1; 
stroke-linecap:round; stroke-linejoin:round;">
</g>
<g style="fill:#000000; fill-opacity:0.0; 
stroke:#000000; stroke-width:59.0551; stroke-opacity:1; 
stroke-linecap:round; stroke-linejoin:round;">
<path d="M62992 77955
L62992 78742
" />
</g>
<g style="fill:#000000; fill-opacity:0.0; 
stroke:#000000; stroke-width:39.3701; stroke-opacity:1; 
stroke-linecap:round; stroke-linejoin:round;">
</g>
<g style="fill:#000000; fill-opacity:0.0; 
stroke:#000000; stroke-width:59.0551; stroke-opacity:1; 
stroke-linecap:round; stroke-linejoin:round;">
<path d="M82677 77955
L82677 78742
" />
</g>
<g style="fill:#000000; fill-opacity:0.0; 
stroke:#000000; stroke-width:39.3701; stroke-opacity:1; 
stroke-linecap:round; stroke-linejoin:round;">
</g>
<g style="fill:#000000; fill-opacity:0.0; 
stroke:#000000; stroke-width:59.0551; stroke-opacity:1; 
stroke-linecap:round; stroke-linejoin:round;">
<path d="M102362 77955
L102362 78742
" />
</g>
<g style="fill:#000000; fill-opacity:0.0; 
stroke:#000000; stroke-width:39.3701; stroke-opacity:1; 
stroke-linecap:round; stroke-linejoin:round;">
</g>
<g style="fill:#000000; fill-opacity:0.0; 
stroke:#000000; stroke-width:59.0551; stroke-opacity:1; 
stroke-linecap:round; stroke-linejoin:round;">
<text x="13779.5" y="78605.2"
textLength="546.494" font-size="682.415" lengthAdjust="spacingAndGlyphs"
text-anchor="start" opacity="0">1</text>
<path d="M14199 78580
L13906 78580
" />
<path d="M14052 78580
L14052 78069
L14004 78142
L13955 78190
L13906 78215
" />
</g>
<g style="fill:#000000; fill-opacity:0.0; 
stroke:#000000; stroke-width:39.3701; stroke-opacity:1; 
stroke-linecap:round; stroke-linejoin:round;">
</g>
<g style="fill:#000000; fill-opacity:0.0; 
stroke:#000000; stroke-width:59.0551; stroke-opacity:1; 
stroke-linecap:round; stroke-linejoin:round;">
<text x="33464.6" y="78605.2"
textLength="546.494" font-size="682.415" lengthAdjust="spacingAndGlyphs"
text-anchor="start" opacity="0">2</text>
<path d="M33591 78117
L33615 78093
L33664 78069
L33786 78069
L33835 78093
L33859 78117
L33884 78166
L33884 78215
L33859 78288
L33567 78580
L33884 78580
" />
</g>
<g style="fill:#000000; fill-opacity:0.0; 
stroke:#000000; stroke-width:39.3701; stroke-opacity:1; 
stroke-linecap:round; stroke-linejoin:round;">
</g>
<g style="fill:#000000; fill-opacity:0.0; 
stroke:#000000; stroke-width:59.0551; stroke-opacity:1; 
stroke-linecap:round; stroke-linejoin:round;">
<text x="53149.6" y="78605.2"
textLength="546.494" font-size="682.415" lengthAdjust="spacingAndGlyphs"
text-anchor="start" opacity="0">3</text>
<path d="M53252 78069
L53569 78069
L53398 78263
L53471 78263
L53520 78288
L53544 78312
L53569 78361
L53569 78483
L53544 78532
L53520 78556
L53471 78580
L53325 78580
L53276 78556
L53252 78532
" />
</g>
<g style="fill:#000000; fill-opacity:0.0; 
stroke:#000000; stroke-width:39.3701; stroke-opacity:1; 
stroke-linecap:round; stroke-linejoin:round;">
</g>
<g style="fill:#000000; fill-opacity:0.0; 
stroke:#000000; stroke-width:59.0551; stroke-opacity:1; 
stroke-linecap:round; stroke-linejoin:round;">
<text x="72834.6" y="78605.2"
textLength="546.494" font-size="682.415" lengthAdjust="spacingAndGlyphs"
text-anchor="start" opacity="0">4</text>
<path d="M73205 78239
L73205 78580
" />
<path d="M73083 78044
L72961 78410
L73278 78410
" />
</g>
<g style="fill:#000000; fill-opacity:0.0; 
stroke:#000000; stroke-width:39.3701; stroke-opacity:1; 
stroke-linecap:round; stroke-linejoin:round;">
</g>
<g style="fill:#000000; fill-opacity:0.0; 
stroke:#000000; stroke-width:59.0551; stroke-opacity:1; 
stroke-linecap:round; stroke-linejoin:round;">
<text x="92519.7" y="78605.2"
textLength="546.494" font-size="682.415" lengthAdjust="spacingAndGlyphs"
text-anchor="start" opacity="0">5</text>
<path d="M92914 78069
L92671 78069
L92646 78312
L92671 78288
L92719 78263
L92841 78263
L92890 78288
L92914 78312
L92939 78361
L92939 78483
L92914 78532
L92890 78556
L92841 78580
L92719 78580
L92671 78556
L92646 78532
" />
</g>
<g style="fill:#000000; fill-opacity:0.0; 
stroke:#000000; stroke-width:39.3701; stroke-opacity:1; 
stroke-linecap:round; stroke-linejoin:round;">
</g>
<g style="fill:#000000; fill-opacity:0.0; 
stroke:#000000; stroke-width:59.0551; stroke-opacity:1; 
stroke-linecap:round; stroke-linejoin:round;">
<text x="112205" y="78605.2"
textLength="546.494" font-size="682.415" lengthAdjust="spacingAndGlyphs"
text-anchor="start" opacity="0">6</text>
<path d="M112575 78069
L112477 78069
L112429 78093
L112404 78117
L112356 78190
L112331 78288
L112331 78483
L112356 78532
L112380 78556
L112429 78580
L112526 78580
L112575 78556
L112599 78532
L112624 78483
L112624 78361
L112599 78312
L112575 78288
L112526 78263
L112429 78263
L112380 78288
L112356 78312
L112331 78361
" />
</g>
<g style="fill:#000000; fill-opacity:0.0; 
stroke:#000000; stroke-width:39.3701; stroke-opacity:1; 
stroke-linecap:round; stroke-linejoin:round;">
</g>
<g style="fill:#000000; fill-opacity:0.0; 
stroke:#000000; stroke-width:59.0551; stroke-opacity:1; 
stroke-linecap:round; stroke-linejoin:round;">
<path d="M3937 23622
L4724 23622
" />
</g>
<g style="fill:#000000; fill-opacity:0.0; 
stroke:#000000; stroke-width:39.3701; stroke-opacity:1; 
stroke-linecap:round; stroke-linejoin:round;">
</g>
<g style="fill:#000000; fill-opacity:0.0; 
stroke:#000000; stroke-width:59.0551; stroke-opacity:1; 
stroke-linecap:round; stroke-linejoin:round;">
<path d="M3937 43307
L4724 43307
" />
</g>
<g style="fill:#000000; fill-opacity:0.0; 
stroke:#000000; stroke-width:39.3701; stroke-opacity:1; 
stroke-linecap:round; stroke-linejoin:round;">
</g>
<g style="fill:#000000; fill-opacity:0.0; 
stroke:#000000; stroke-width:59.0551; stroke-opacity:1; 
stroke-linecap:round; stroke-linejoin:round;">
<path d="M3937 62992
L4724 62992
" />
</g>
<g style="fill:#000000; fill-opacity:0.0; 
stroke:#000000; stroke-width:39.3701; stroke-opacity:1; 
stroke-linecap:round; stroke-linejoin:round;">
</g>
<g style="fill:#000000; fill-opacity:0.0; 
stroke:#000000; stroke-width:59.0551; stroke-opacity:1; 
stroke-linecap:round; stroke-linejoin:round;">
<text x="4330.71" y="14035.4"
textLength="497.75" font-size="682.415" lengthAdjust="spacingAndGlyphs"
text-anchor="middle" opacity="0">A</text>
<path d="M4208 13864
L4452 13864
" />
<path d="M4160 14011
L4330 13499
L4501 14011
" />
</g>
<g style="fill:#000000; fill-opacity:0.0; 
stroke:#000000; stroke-width:39.3701; stroke-opacity:1; 
stroke-linecap:round; stroke-linejoin:round;">
</g>
<g style="fill:#000000; fill-opacity:0.0; 
stroke:#000000; stroke-width:59.0551; stroke-opacity:1; 
stroke-linecap:round; stroke-linejoin:round;">
<text x="4330.71" y="33720.5"
textLength="570.866" font-size="682.415" lengthAdjust="spacingAndGlyphs"
text-anchor="middle" opacity="0">B</text>
<path d="M4367 33428
L4440 33452
L4464 33476
L4489 33525
L4489 33598
L4464 33647
L4440 33671
L4391 33696
L4196 33696
L4196 33184
L4367 33184
L4416 33208
L4440 33233
L4464 33281
L4464 33330
L4440 33379
L4416 33403
L4367 33428
L4196 33428
" />
</g>
<g style="fill:#000000; fill-opacity:0.0; 
stroke:#000000; stroke-width:39.3701; stroke-opacity:1; 
stroke-linecap:round; stroke-linejoin:round;">
</g>
<g style="fill:#000000; fill-opacity:0.0; 
stroke:#000000; stroke-width:59.0551; stroke-opacity:1; 
stroke-linecap:round; stroke-linejoin:round;">
<text x="4330.71" y="53405.5"
textLength="570.866" font-size="682.415" lengthAdjust="spacingAndGlyphs"
text-anchor="middle" opacity="0">C</text>
<path d="M4489 53332
L4464 53356
L4391 53381
L4342 53381
L4269 53356
L4221 53308
L4196 53259
L4172 53161
L4172 53088
L4196 52991
L4221 52942
L4269 52893
L4342 52869
L4391 52869
L4464 52893
L4489 52918
" />
</g>
<g style="fill:#000000; fill-opacity:0.0; 
stroke:#000000; stroke-width:39.3701; stroke-opacity:1; 
stroke-linecap:round; stroke-linejoin:round;">
</g>
<g style="fill:#000000; fill-opacity:0.0; 
stroke:#000000; stroke-width:59.0551; stroke-opacity:1; 
stroke-linecap:round; stroke-linejoin:round;">
<text x="4330.71" y="73090.6"
textLength="570.866" font-size="682.415" lengthAdjust="spacingAndGlyphs"
text-anchor="middle" opacity="0">D</text>
<path d="M4196 73066
L4196 72554
L4318 72554
L4391 72578
L4440 72627
L4464 72676
L4489 72773
L4489 72846
L4464 72944
L4440 72993
L4391 73041
L4318 73066
L4196 73066
" />
</g>
<g style="fill:#000000; fill-opacity:0.0; 
stroke:#000000; stroke-width:39.3701; stroke-opacity:1; 
stroke-linecap:round; stroke-linejoin:round;">
</g>
<g style="fill:#000000; fill-opacity:0.0; 
stroke:#000000; stroke-width:59.0551; stroke-opacity:1; 
stroke-linecap:round; stroke-linejoin:round;">
<path d="M112992 23622
L112205 23622
" />
</g>
<g style="fill:#000000; fill-opacity:0.0; 
stroke:#000000; stroke-width:39.3701; stroke-opacity:1; 
stroke-linecap:round; stroke-linejoin:round;">
</g>
<g style="fill:#000000; fill-opacity:0.0; 
stroke:#000000; stroke-width:59.0551; stroke-opacity:1; 
stroke-linecap:round; stroke-linejoin:round;">
<path d="M112992 43307
L112205 43307
" />
</g>
<g style="fill:#000000; fill-opacity:0.0; 
stroke:#000000; stroke-width:39.3701; stroke-opacity:1; 
stroke-linecap:round; stroke-linejoin:round;">
</g>
<g style="fill:#000000; fill-opacity:0.0; 
stroke:#000000; stroke-width:59.0551; stroke-opacity:1; 
stroke-linecap:round; stroke-linejoin:round;">
<path d="M112992 62992
L112205 62992
" />
</g>
<g style="fill:#000000; fill-opacity:0.0; 
stroke:#000000; stroke-width:39.3701; stroke-opacity:1; 
stroke-linecap:round; stroke-linejoin:round;">
</g>
<g style="fill:#000000; fill-opacity:0.0; 
stroke:#000000; stroke-width:59.0551; stroke-opacity:1; 
stroke-linecap:round; stroke-linejoin:round;">
<text x="112599" y="14035.4"
textLength="497.75" font-size="682.415" lengthAdjust="spacingAndGlyphs"
text-anchor="middle" opacity="0">A</text>
<path d="M112477 13864
L112721 13864
" />
<path d="M112428 14011
L112599 13499
L112769 14011
" />
</g>
<g style="fill:#000000; fill-opacity:0.0; 
stroke:#000000; stroke-width:39.3701; stroke-opacity:1; 
stroke-linecap:round; stroke-linejoin:round;">
</g>
<g style="fill:#000000; fill-opacity:0.0; 
stroke:#000000; stroke-width:59.0551; stroke-opacity:1; 
stroke-linecap:round; stroke-linejoin:round;">
<text x="112599" y="33720.5"
textLength="570.866" font-size="682.415" lengthAdjust="spacingAndGlyphs"
text-anchor="middle" opacity="0">B</text>
<path d="M112635 33428
L112708 33452
L112733 33476
L112757 33525
L112757 33598
L112733 33647
L112708 33671
L112660 33696
L112465 33696
L112465 33184
L112635 33184
L112684 33208
L112708 33233
L112733 33281
L112733 33330
L112708 33379
L112684 33403
L112635 33428
L112465 33428
" />
</g>
<g style="fill:#000000; fill-opacity:0.0; 
stroke:#000000; stroke-width:39.3701; stroke-opacity:1; 
stroke-linecap:round; stroke-linejoin:round;">
</g>
<g style="fill:#000000; fill-opacity:0.0; 
stroke:#000000; stroke-width:59.0551; stroke-opacity:1; 
stroke-linecap:round; stroke-linejoin:round;">
<text x="112599" y="53405.5"
textLength="570.866" font-size="682.415" lengthAdjust="spacingAndGlyphs"
text-anchor="middle" opacity="0">C</text>
<path d="M112757 53332
L112733 53356
L112660 53381
L112611 53381
L112538 53356
L112489 53308
L112465 53259
L112440 53161
L112440 53088
L112465 52991
L112489 52942
L112538 52893
L112611 52869
L112660 52869
L112733 52893
L112757 52918
" />
</g>
<g style="fill:#000000; fill-opacity:0.0; 
stroke:#000000; stroke-width:39.3701; stroke-opacity:1; 
stroke-linecap:round; stroke-linejoin:round;">
</g>
<g style="fill:#000000; fill-opacity:0.0; 
stroke:#000000; stroke-width:59.0551; stroke-opacity:1; 
stroke-linecap:round; stroke-linejoin:round;">
<text x="112599" y="73090.6"
textLength="570.866" font-size="682.415" lengthAdjust="spacingAndGlyphs"
text-anchor="middle" opacity="0">D</text>
<path d="M112465 73066
L112465 72554
L112587 72554
L112660 72578
L112708 72627
L112733 72676
L112757 72773
L112757 72846
L112733 72944
L112708 72993
L112660 73041
L112587 73066
L112465 73066
" />
</g>
<g style="fill:#000000; fill-opacity:0.0; 
stroke:#000000; stroke-width:39.3701; stroke-opacity:1; 
stroke-linecap:round; stroke-linejoin:round;">
</g>
<g style="fill:#000000; fill-opacity:0.0; 
stroke:#000000; stroke-width:59.0551; stroke-opacity:1; 
stroke-linecap:round; stroke-linejoin:round;">
<text x="78741" y="76321.7"
textLength="2758.72" font-size="787.402" lengthAdjust="spacingAndGlyphs"
text-anchor="start" opacity="0">Date: </text>
<path d="M78911 76293
L78911 75703
L79051 75703
L79136 75731
L79192 75787
L79220 75843
L79248 75956
L79248 76040
L79220 76153
L79192 76209
L79136 76265
L79051 76293
L78911 76293
" />
<path d="M79754 76293
L79754 75984
L79726 75928
L79670 75899
L79557 75899
L79501 75928
" />
<path d="M79754 76265
L79698 76293
L79557 76293
L79501 76265
L79473 76209
L79473 76153
L79501 76096
L79557 76068
L79698 76068
L79754 76040
" />
<path d="M79951 75899
L80176 75899
" />
<path d="M80036 75703
L80036 76209
L80064 76265
L80120 76293
L80176 76293
" />
<path d="M80598 76265
L80542 76293
L80429 76293
L80373 76265
L80345 76209
L80345 75984
L80373 75928
L80429 75899
L80542 75899
L80598 75928
L80626 75984
L80626 76040
L80345 76096
" />
<path d="M80879 76237
L80907 76265
L80879 76293
L80851 76265
L80879 76237
L80879 76293
" />
<path d="M80879 75928
L80907 75956
L80879 75984
L80851 75956
L80879 75928
L80879 75984
" />
</g>
<g style="fill:#000000; fill-opacity:0.0; 
stroke:#000000; stroke-width:39.3701; stroke-opacity:1; 
stroke-linecap:round; stroke-linejoin:round;">
</g>
<g style="fill:#000000; fill-opacity:0.0; 
stroke:#000000; stroke-width:59.0551; stroke-opacity:1; 
stroke-linecap:round; stroke-linejoin:round;">
<path d="M69685 76577
L112205 76577
" />
</g>
<g style="fill:#000000; fill-opacity:0.0; 
stroke:#000000; stroke-width:39.3701; stroke-opacity:1; 
stroke-linecap:round; stroke-linejoin:round;">
</g>
<g style="fill:#000000; fill-opacity:0.0; 
stroke:#000000; stroke-width:59.0551; stroke-opacity:1; 
stroke-linecap:round; stroke-linejoin:round;">
<text x="70079.6" y="77424.1"
textLength="25790.2" font-size="787.402" lengthAdjust="spacingAndGlyphs"
text-anchor="start" opacity="0">KiCad E.D.A.  kicad 5.1.10-88a1d61d58~88~ubuntu18.04.1</text>
<path d="M70249 77395
L70249 76805
" />
<path d="M70587 77395
L70334 77058
" />
<path d="M70587 76805
L70249 77142
" />
<path d="M70840 77395
L70840 77002
" />
<path d="M70840 76805
L70812 76833
L70840 76861
L70868 76833
L70840 76805
L70840 76861
" />
<path d="M71458 77339
L71430 77367
L71346 77395
L71290 77395
L71205 77367
L71149 77311
L71121 77255
L71093 77142
L71093 77058
L71121 76946
L71149 76889
L71205 76833
L71290 76805
L71346 76805
L71430 76833
L71458 76861
" />
<path d="M71965 77395
L71965 77086
L71937 77030
L71880 77002
L71768 77002
L71712 77030
" />
<path d="M71965 77367
L71908 77395
L71768 77395
L71712 77367
L71683 77311
L71683 77255
L71712 77199
L71768 77171
L71908 77171
L71965 77142
" />
<path d="M72499 77395
L72499 76805
" />
<path d="M72499 77367
L72443 77395
L72330 77395
L72274 77367
L72246 77339
L72218 77283
L72218 77114
L72246 77058
L72274 77030
L72330 77002
L72443 77002
L72499 77030
" />
<path d="M73230 77086
L73427 77086
" />
<path d="M73511 77395
L73230 77395
L73230 76805
L73511 76805
" />
<path d="M73764 77339
L73793 77367
L73764 77395
L73736 77367
L73764 77339
L73764 77395
" />
<path d="M74046 77395
L74046 76805
L74186 76805
L74271 76833
L74327 76889
L74355 76946
L74383 77058
L74383 77142
L74355 77255
L74327 77311
L74271 77367
L74186 77395
L74046 77395
" />
<path d="M74636 77339
L74664 77367
L74636 77395
L74608 77367
L74636 77339
L74636 77395
" />
<path d="M74889 77227
L75171 77227
" />
<path d="M74833 77395
L75030 76805
L75227 77395
" />
<path d="M75424 77339
L75452 77367
L75424 77395
L75395 77367
L75424 77339
L75424 77395
" />
<path d="M76605 77395
L76605 76805
" />
<path d="M76661 77171
L76830 77395
" />
<path d="M76830 77002
L76605 77227
" />
<path d="M77083 77395
L77083 77002
" />
<path d="M77083 76805
L77055 76833
L77083 76861
L77111 76833
L77083 76805
L77083 76861
" />
<path d="M77617 77367
L77561 77395
L77448 77395
L77392 77367
L77364 77339
L77336 77283
L77336 77114
L77364 77058
L77392 77030
L77448 77002
L77561 77002
L77617 77030
" />
<path d="M78123 77395
L78123 77086
L78095 77030
L78039 77002
L77926 77002
L77870 77030
" />
<path d="M78123 77367
L78067 77395
L77926 77395
L77870 77367
L77842 77311
L77842 77255
L77870 77199
L77926 77171
L78067 77171
L78123 77142
" />
<path d="M78658 77395
L78658 76805
" />
<path d="M78658 77367
L78601 77395
L78489 77395
L78433 77367
L78404 77339
L78376 77283
L78376 77114
L78404 77058
L78433 77030
L78489 77002
L78601 77002
L78658 77030
" />
<path d="M79670 76805
L79389 76805
L79361 77086
L79389 77058
L79445 77030
L79586 77030
L79642 77058
L79670 77086
L79698 77142
L79698 77283
L79670 77339
L79642 77367
L79586 77395
L79445 77395
L79389 77367
L79361 77339
" />
<path d="M79951 77339
L79979 77367
L79951 77395
L79923 77367
L79951 77339
L79951 77395
" />
<path d="M80542 77395
L80204 77395
" />
<path d="M80373 77395
L80373 76805
L80317 76889
L80260 76946
L80204 76974
" />
<path d="M80795 77339
L80823 77367
L80795 77395
L80767 77367
L80795 77339
L80795 77395
" />
<path d="M81385 77395
L81048 77395
" />
<path d="M81217 77395
L81217 76805
L81160 76889
L81104 76946
L81048 76974
" />
<path d="M81751 76805
L81807 76805
L81863 76833
L81892 76861
L81920 76917
L81948 77030
L81948 77171
L81920 77283
L81892 77339
L81863 77367
L81807 77395
L81751 77395
L81695 77367
L81667 77339
L81638 77283
L81610 77171
L81610 77030
L81638 76917
L81667 76861
L81695 76833
L81751 76805
" />
<path d="M82201 77171
L82651 77171
" />
<path d="M83016 77058
L82960 77030
L82932 77002
L82904 76946
L82904 76917
L82932 76861
L82960 76833
L83016 76805
L83129 76805
L83185 76833
L83213 76861
L83241 76917
L83241 76946
L83213 77002
L83185 77030
L83129 77058
L83016 77058
L82960 77086
L82932 77114
L82904 77171
L82904 77283
L82932 77339
L82960 77367
L83016 77395
L83129 77395
L83185 77367
L83213 77339
L83241 77283
L83241 77171
L83213 77114
L83185 77086
L83129 77058
" />
<path d="M83579 77058
L83523 77030
L83494 77002
L83466 76946
L83466 76917
L83494 76861
L83523 76833
L83579 76805
L83691 76805
L83748 76833
L83776 76861
L83804 76917
L83804 76946
L83776 77002
L83748 77030
L83691 77058
L83579 77058
L83523 77086
L83494 77114
L83466 77171
L83466 77283
L83494 77339
L83523 77367
L83579 77395
L83691 77395
L83748 77367
L83776 77339
L83804 77283
L83804 77171
L83776 77114
L83748 77086
L83691 77058
" />
<path d="M84310 77395
L84310 77086
L84282 77030
L84226 77002
L84113 77002
L84057 77030
" />
<path d="M84310 77367
L84254 77395
L84113 77395
L84057 77367
L84029 77311
L84029 77255
L84057 77199
L84113 77171
L84254 77171
L84310 77142
" />
<path d="M84901 77395
L84563 77395
" />
<path d="M84732 77395
L84732 76805
L84676 76889
L84619 76946
L84563 76974
" />
<path d="M85407 77395
L85407 76805
" />
<path d="M85407 77367
L85350 77395
L85238 77395
L85182 77367
L85154 77339
L85126 77283
L85126 77114
L85154 77058
L85182 77030
L85238 77002
L85350 77002
L85407 77030
" />
<path d="M85941 76805
L85829 76805
L85772 76833
L85744 76861
L85688 76946
L85660 77058
L85660 77283
L85688 77339
L85716 77367
L85772 77395
L85885 77395
L85941 77367
L85969 77339
L85997 77283
L85997 77142
L85969 77086
L85941 77058
L85885 77030
L85772 77030
L85716 77058
L85688 77086
L85660 77142
" />
<path d="M86560 77395
L86222 77395
" />
<path d="M86391 77395
L86391 76805
L86335 76889
L86278 76946
L86222 76974
" />
<path d="M87066 77395
L87066 76805
" />
<path d="M87066 77367
L87010 77395
L86897 77395
L86841 77367
L86813 77339
L86785 77283
L86785 77114
L86813 77058
L86841 77030
L86897 77002
L87010 77002
L87066 77030
" />
<path d="M87628 76805
L87347 76805
L87319 77086
L87347 77058
L87403 77030
L87544 77030
L87600 77058
L87628 77086
L87656 77142
L87656 77283
L87628 77339
L87600 77367
L87544 77395
L87403 77395
L87347 77367
L87319 77339
" />
<path d="M87994 77058
L87938 77030
L87910 77002
L87881 76946
L87881 76917
L87910 76861
L87938 76833
L87994 76805
L88106 76805
L88163 76833
L88191 76861
L88219 76917
L88219 76946
L88191 77002
L88163 77030
L88106 77058
L87994 77058
L87938 77086
L87910 77114
L87881 77171
L87881 77283
L87910 77339
L87938 77367
L87994 77395
L88106 77395
L88163 77367
L88191 77339
L88219 77283
L88219 77171
L88191 77114
L88163 77086
L88106 77058
" />
<path d="M88331 76644
L88894 76644
" />
<path d="M88556 77058
L88500 77030
L88472 77002
L88444 76946
L88444 76917
L88472 76861
L88500 76833
L88556 76805
L88669 76805
L88725 76833
L88753 76861
L88781 76917
L88781 76946
L88753 77002
L88725 77030
L88669 77058
L88556 77058
L88500 77086
L88472 77114
L88444 77171
L88444 77283
L88472 77339
L88500 77367
L88556 77395
L88669 77395
L88725 77367
L88753 77339
L88781 77283
L88781 77171
L88753 77114
L88725 77086
L88669 77058
" />
<path d="M88894 76644
L89456 76644
" />
<path d="M89119 77058
L89063 77030
L89034 77002
L89006 76946
L89006 76917
L89034 76861
L89063 76833
L89119 76805
L89231 76805
L89287 76833
L89316 76861
L89344 76917
L89344 76946
L89316 77002
L89287 77030
L89231 77058
L89119 77058
L89063 77086
L89034 77114
L89006 77171
L89006 77283
L89034 77339
L89063 77367
L89119 77395
L89231 77395
L89287 77367
L89316 77339
L89344 77283
L89344 77171
L89316 77114
L89287 77086
L89231 77058
" />
<path d="M89850 77002
L89850 77395
" />
<path d="M89597 77002
L89597 77311
L89625 77367
L89681 77395
L89766 77395
L89822 77367
L89850 77339
" />
<path d="M90131 77395
L90131 76805
" />
<path d="M90131 77030
L90187 77002
L90300 77002
L90356 77030
L90384 77058
L90412 77114
L90412 77283
L90384 77339
L90356 77367
L90300 77395
L90187 77395
L90131 77367
" />
<path d="M90919 77002
L90919 77395
" />
<path d="M90665 77002
L90665 77311
L90694 77367
L90750 77395
L90834 77395
L90890 77367
L90919 77339
" />
<path d="M91200 77002
L91200 77395
" />
<path d="M91200 77058
L91228 77030
L91284 77002
L91368 77002
L91425 77030
L91453 77086
L91453 77395
" />
<path d="M91650 77002
L91875 77002
" />
<path d="M91734 76805
L91734 77311
L91762 77367
L91818 77395
L91875 77395
" />
<path d="M92325 77002
L92325 77395
" />
<path d="M92072 77002
L92072 77311
L92100 77367
L92156 77395
L92240 77395
L92296 77367
L92325 77339
" />
<path d="M92915 77395
L92578 77395
" />
<path d="M92746 77395
L92746 76805
L92690 76889
L92634 76946
L92578 76974
" />
<path d="M93253 77058
L93196 77030
L93168 77002
L93140 76946
L93140 76917
L93168 76861
L93196 76833
L93253 76805
L93365 76805
L93421 76833
L93449 76861
L93478 76917
L93478 76946
L93449 77002
L93421 77030
L93365 77058
L93253 77058
L93196 77086
L93168 77114
L93140 77171
L93140 77283
L93168 77339
L93196 77367
L93253 77395
L93365 77395
L93421 77367
L93449 77339
L93478 77283
L93478 77171
L93449 77114
L93421 77086
L93365 77058
" />
<path d="M93731 77339
L93759 77367
L93731 77395
L93703 77367
L93731 77339
L93731 77395
" />
<path d="M94124 76805
L94181 76805
L94237 76833
L94265 76861
L94293 76917
L94321 77030
L94321 77171
L94293 77283
L94265 77339
L94237 77367
L94181 77395
L94124 77395
L94068 77367
L94040 77339
L94012 77283
L93984 77171
L93984 77030
L94012 76917
L94040 76861
L94068 76833
L94124 76805
" />
<path d="M94827 77002
L94827 77395
" />
<path d="M94687 76777
L94546 77199
L94912 77199
" />
<path d="M95137 77339
L95165 77367
L95137 77395
L95109 77367
L95137 77339
L95137 77395
" />
<path d="M95727 77395
L95390 77395
" />
<path d="M95559 77395
L95559 76805
L95502 76889
L95446 76946
L95390 76974
" />
</g>
<g style="fill:#000000; fill-opacity:0.0; 
stroke:#000000; stroke-width:39.3701; stroke-opacity:1; 
stroke-linecap:round; stroke-linejoin:round;">
</g>
<g style="fill:#000000; fill-opacity:0.0; 
stroke:#000000; stroke-width:59.0551; stroke-opacity:1; 
stroke-linecap:round; stroke-linejoin:round;">
<path d="M69685 75396
L112205 75396
" />
</g>
<g style="fill:#000000; fill-opacity:0.0; 
stroke:#000000; stroke-width:39.3701; stroke-opacity:1; 
stroke-linecap:round; stroke-linejoin:round;">
</g>
<g style="fill:#000000; fill-opacity:0.0; 
stroke:#000000; stroke-width:118.11; stroke-opacity:1; 
stroke-linecap:round; stroke-linejoin:round;">
<text x="103544" y="76321.7"
textLength="2336.9" font-size="787.402" lengthAdjust="spacingAndGlyphs"
text-anchor="start" opacity="0">Rev: </text>
<path d="M104099 76293
L103902 76012
" />
<path d="M103761 76293
L103761 75703
L103986 75703
L104042 75731
L104070 75759
L104099 75815
L104099 75899
L104070 75956
L104042 75984
L103986 76012
L103761 76012
" />
<path d="M104577 76265
L104520 76293
L104408 76293
L104352 76265
L104323 76209
L104323 75984
L104352 75928
L104408 75899
L104520 75899
L104577 75928
L104605 75984
L104605 76040
L104323 76096
" />
<path d="M104802 75899
L104942 76293
L105083 75899
" />
<path d="M105308 76237
L105336 76265
L105308 76293
L105280 76265
L105308 76237
L105308 76293
" />
<path d="M105308 75928
L105336 75956
L105308 75984
L105280 75956
L105308 75928
L105308 75984
" />
</g>
<g style="fill:#000000; fill-opacity:0.0; 
stroke:#000000; stroke-width:39.3701; stroke-opacity:1; 
stroke-linecap:round; stroke-linejoin:round;">
</g>
<g style="fill:#000000; fill-opacity:0.0; 
stroke:#000000; stroke-width:59.0551; stroke-opacity:1; 
stroke-linecap:round; stroke-linejoin:round;">
<text x="70079.6" y="76321.7"
textLength="3781.21" font-size="787.402" lengthAdjust="spacingAndGlyphs"
text-anchor="start" opacity="0">Size: A4</text>
<path d="M70221 76265
L70305 76293
L70446 76293
L70502 76265
L70530 76237
L70559 76181
L70559 76124
L70530 76068
L70502 76040
L70446 76012
L70334 75984
L70277 75956
L70249 75928
L70221 75871
L70221 75815
L70249 75759
L70277 75731
L70334 75703
L70474 75703
L70559 75731
" />
<path d="M70812 76293
L70812 75899
" />
<path d="M70812 75703
L70784 75731
L70812 75759
L70840 75731
L70812 75703
L70812 75759
" />
<path d="M71037 75899
L71346 75899
L71037 76293
L71346 76293
" />
<path d="M71796 76265
L71740 76293
L71627 76293
L71571 76265
L71543 76209
L71543 75984
L71571 75928
L71627 75899
L71740 75899
L71796 75928
L71824 75984
L71824 76040
L71543 76096
" />
<path d="M72077 76237
L72105 76265
L72077 76293
L72049 76265
L72077 76237
L72077 76293
" />
<path d="M72077 75928
L72105 75956
L72077 75984
L72049 75956
L72077 75928
L72077 75984
" />
<path d="M72780 76124
L73061 76124
" />
<path d="M72724 76293
L72921 75703
L73118 76293
" />
<path d="M73568 75899
L73568 76293
" />
<path d="M73427 75674
L73286 76096
L73652 76096
" />
</g>
<g style="fill:#000000; fill-opacity:0.0; 
stroke:#000000; stroke-width:39.3701; stroke-opacity:1; 
stroke-linecap:round; stroke-linejoin:round;">
</g>
<g style="fill:#000000; fill-opacity:0.0; 
stroke:#000000; stroke-width:59.0551; stroke-opacity:1; 
stroke-linecap:round; stroke-linejoin:round;">
<text x="103544" y="77424.1"
textLength="3349.27" font-size="787.402" lengthAdjust="spacingAndGlyphs"
text-anchor="start" opacity="0">Id: 1/1</text>
<path d="M103714 77395
L103714 76805
" />
<path d="M104248 77395
L104248 76805
" />
<path d="M104248 77367
L104192 77395
L104079 77395
L104023 77367
L103995 77339
L103967 77283
L103967 77114
L103995 77058
L104023 77030
L104079 77002
L104192 77002
L104248 77030
" />
<path d="M104529 77339
L104557 77367
L104529 77395
L104501 77367
L104529 77339
L104529 77395
" />
<path d="M104529 77030
L104557 77058
L104529 77086
L104501 77058
L104529 77030
L104529 77086
" />
<path d="M105570 77395
L105232 77395
" />
<path d="M105401 77395
L105401 76805
L105345 76889
L105289 76946
L105232 76974
" />
<path d="M106245 76777
L105739 77536
" />
<path d="M106751 77395
L106413 77395
" />
<path d="M106582 77395
L106582 76805
L106526 76889
L106470 76946
L106413 76974
" />
</g>
<g style="fill:#000000; fill-opacity:0.0; 
stroke:#000000; stroke-width:39.3701; stroke-opacity:1; 
stroke-linecap:round; stroke-linejoin:round;">
</g>
<g style="fill:#000000; fill-opacity:0.0; 
stroke:#000000; stroke-width:59.0551; stroke-opacity:1; 
stroke-linecap:round; stroke-linejoin:round;">
<path d="M69685 73821
L112205 73821
" />
</g>
<g style="fill:#000000; fill-opacity:0.0; 
stroke:#000000; stroke-width:39.3701; stroke-opacity:1; 
stroke-linecap:round; stroke-linejoin:round;">
</g>
<g style="fill:#000000; fill-opacity:0.0; 
stroke:#000000; stroke-width:157.48; stroke-opacity:1; 
stroke-linecap:round; stroke-linejoin:round;">
<text x="70079.6" y="74924.1"
textLength="3701.14" font-size="1049.87" lengthAdjust="spacingAndGlyphs"
text-anchor="start" opacity="0">Title: </text>
<path d="M70360 74099
L70810 74099
" />
<path d="M70486 74886
L70585 74099
" />
<path d="M70974 74886
L71039 74361
" />
<path d="M71072 74099
L71030 74136
L71063 74174
L71105 74136
L71072 74099
L71063 74174
" />
<path d="M71302 74361
L71602 74361
" />
<path d="M71447 74099
L71363 74774
L71391 74849
L71461 74886
L71536 74886
" />
<path d="M71911 74886
L71841 74849
L71813 74774
L71897 74099
" />
<path d="M72516 74849
L72436 74886
L72286 74886
L72216 74849
L72187 74774
L72225 74474
L72272 74399
L72352 74361
L72501 74361
L72572 74399
L72600 74474
L72591 74549
L72206 74624
" />
<path d="M72895 74811
L72928 74849
L72886 74886
L72853 74849
L72895 74811
L72886 74886
" />
<path d="M72947 74399
L72980 74436
L72937 74474
L72905 74436
L72947 74399
L72937 74474
" />
</g>
<g style="fill:#000000; fill-opacity:0.0; 
stroke:#000000; stroke-width:39.3701; stroke-opacity:1; 
stroke-linecap:round; stroke-linejoin:round;">
</g>
<g style="fill:#000000; fill-opacity:0.0; 
stroke:#000000; stroke-width:59.0551; stroke-opacity:1; 
stroke-linecap:round; stroke-linejoin:round;">
<text x="70079.6" y="73408.3"
textLength="11256.5" font-size="787.402" lengthAdjust="spacingAndGlyphs"
text-anchor="start" opacity="0">File: plate_top.kicad_pcb</text>
<path d="M70446 73070
L70249 73070
" />
<path d="M70249 73380
L70249 72789
L70530 72789
" />
<path d="M70755 73380
L70755 72986
" />
<path d="M70755 72789
L70727 72817
L70755 72845
L70784 72817
L70755 72789
L70755 72845
" />
<path d="M71121 73380
L71065 73352
L71037 73295
L71037 72789
" />
<path d="M71571 73352
L71515 73380
L71402 73380
L71346 73352
L71318 73295
L71318 73070
L71346 73014
L71402 72986
L71515 72986
L71571 73014
L71599 73070
L71599 73127
L71318 73183
" />
<path d="M71852 73323
L71880 73352
L71852 73380
L71824 73352
L71852 73323
L71852 73380
" />
<path d="M71852 73014
L71880 73042
L71852 73070
L71824 73042
L71852 73014
L71852 73070
" />
<path d="M72583 72986
L72583 73577
" />
<path d="M72583 73014
L72640 72986
L72752 72986
L72808 73014
L72836 73042
L72865 73099
L72865 73267
L72836 73323
L72808 73352
L72752 73380
L72640 73380
L72583 73352
" />
<path d="M73202 73380
L73146 73352
L73118 73295
L73118 72789
" />
<path d="M73680 73380
L73680 73070
L73652 73014
L73596 72986
L73483 72986
L73427 73014
" />
<path d="M73680 73352
L73624 73380
L73483 73380
L73427 73352
L73399 73295
L73399 73239
L73427 73183
L73483 73155
L73624 73155
L73680 73127
" />
<path d="M73877 72986
L74102 72986
" />
<path d="M73961 72789
L73961 73295
L73989 73352
L74046 73380
L74102 73380
" />
<path d="M74524 73352
L74467 73380
L74355 73380
L74299 73352
L74271 73295
L74271 73070
L74299 73014
L74355 72986
L74467 72986
L74524 73014
L74552 73070
L74552 73127
L74271 73183
" />
<path d="M74664 73436
L75114 73436
" />
<path d="M75171 72986
L75395 72986
" />
<path d="M75255 72789
L75255 73295
L75283 73352
L75339 73380
L75395 73380
" />
<path d="M75677 73380
L75620 73352
L75592 73323
L75564 73267
L75564 73099
L75592 73042
L75620 73014
L75677 72986
L75761 72986
L75817 73014
L75845 73042
L75874 73099
L75874 73267
L75845 73323
L75817 73352
L75761 73380
L75677 73380
" />
<path d="M76127 72986
L76127 73577
" />
<path d="M76127 73014
L76183 72986
L76295 72986
L76352 73014
L76380 73042
L76408 73099
L76408 73267
L76380 73323
L76352 73352
L76295 73380
L76183 73380
L76127 73352
" />
<path d="M76661 73323
L76689 73352
L76661 73380
L76633 73352
L76661 73323
L76661 73380
" />
<path d="M76942 73380
L76942 72789
" />
<path d="M76998 73155
L77167 73380
" />
<path d="M77167 72986
L76942 73211
" />
<path d="M77420 73380
L77420 72986
" />
<path d="M77420 72789
L77392 72817
L77420 72845
L77448 72817
L77420 72789
L77420 72845
" />
<path d="M77955 73352
L77898 73380
L77786 73380
L77730 73352
L77701 73323
L77673 73267
L77673 73099
L77701 73042
L77730 73014
L77786 72986
L77898 72986
L77955 73014
" />
<path d="M78461 73380
L78461 73070
L78433 73014
L78376 72986
L78264 72986
L78208 73014
" />
<path d="M78461 73352
L78404 73380
L78264 73380
L78208 73352
L78180 73295
L78180 73239
L78208 73183
L78264 73155
L78404 73155
L78461 73127
" />
<path d="M78995 73380
L78995 72789
" />
<path d="M78995 73352
L78939 73380
L78826 73380
L78770 73352
L78742 73323
L78714 73267
L78714 73099
L78742 73042
L78770 73014
L78826 72986
L78939 72986
L78995 73014
" />
<path d="M79136 73436
L79586 73436
" />
<path d="M79726 72986
L79726 73577
" />
<path d="M79726 73014
L79782 72986
L79895 72986
L79951 73014
L79979 73042
L80007 73099
L80007 73267
L79979 73323
L79951 73352
L79895 73380
L79782 73380
L79726 73352
" />
<path d="M80514 73352
L80457 73380
L80345 73380
L80289 73352
L80260 73323
L80232 73267
L80232 73099
L80260 73042
L80289 73014
L80345 72986
L80457 72986
L80514 73014
" />
<path d="M80767 73380
L80767 72789
" />
<path d="M80767 73014
L80823 72986
L80935 72986
L80992 73014
L81020 73042
L81048 73099
L81048 73267
L81020 73323
L80992 73352
L80935 73380
L80823 73380
L80767 73352
" />
</g>
<g style="fill:#000000; fill-opacity:0.0; 
stroke:#000000; stroke-width:39.3701; stroke-opacity:1; 
stroke-linecap:round; stroke-linejoin:round;">
</g>
<g style="fill:#000000; fill-opacity:0.0; 
stroke:#000000; stroke-width:59.0551; stroke-opacity:1; 
stroke-linecap:round; stroke-linejoin:round;">
<path d="M69685 71459
L112205 71459
" />
</g>
<g style="fill:#000000; fill-opacity:0.0; 
stroke:#000000; stroke-width:39.3701; stroke-opacity:1; 
stroke-linecap:round; stroke-linejoin:round;">
</g>
<g style="fill:#000000; fill-opacity:0.0; 
stroke:#000000; stroke-width:59.0551; stroke-opacity:1; 
stroke-linecap:round; stroke-linejoin:round;">
<text x="70079.6" y="72345.4"
textLength="3236.78" font-size="787.402" lengthAdjust="spacingAndGlyphs"
text-anchor="start" opacity="0">Sheet: </text>
<path d="M70221 72289
L70305 72317
L70446 72317
L70502 72289
L70530 72260
L70559 72204
L70559 72148
L70530 72092
L70502 72064
L70446 72036
L70334 72007
L70277 71979
L70249 71951
L70221 71895
L70221 71839
L70249 71782
L70277 71754
L70334 71726
L70474 71726
L70559 71754
" />
<path d="M70812 72317
L70812 71726
" />
<path d="M71065 72317
L71065 72007
L71037 71951
L70980 71923
L70896 71923
L70840 71951
L70812 71979
" />
<path d="M71571 72289
L71515 72317
L71402 72317
L71346 72289
L71318 72232
L71318 72007
L71346 71951
L71402 71923
L71515 71923
L71571 71951
L71599 72007
L71599 72064
L71318 72120
" />
<path d="M72077 72289
L72021 72317
L71908 72317
L71852 72289
L71824 72232
L71824 72007
L71852 71951
L71908 71923
L72021 71923
L72077 71951
L72105 72007
L72105 72064
L71824 72120
" />
<path d="M72274 71923
L72499 71923
" />
<path d="M72358 71726
L72358 72232
L72386 72289
L72443 72317
L72499 72317
" />
<path d="M72696 72260
L72724 72289
L72696 72317
L72668 72289
L72696 72260
L72696 72317
" />
<path d="M72696 71951
L72724 71979
L72696 72007
L72668 71979
L72696 71951
L72696 72007
" />
</g>
<g style="fill:#000000; fill-opacity:0.0; 
stroke:#000000; stroke-width:39.3701; stroke-opacity:1; 
stroke-linecap:round; stroke-linejoin:round;">
</g>
<g style="fill:#000000; fill-opacity:0.0; 
stroke:#000000; stroke-width:59.0551; stroke-opacity:1; 
stroke-linecap:round; stroke-linejoin:round;">
<path d="M77559 75396
L77559 76577
" />
</g>
<g style="fill:#000000; fill-opacity:0.0; 
stroke:#000000; stroke-width:39.3701; stroke-opacity:1; 
stroke-linecap:round; stroke-linejoin:round;">
</g>
<g style="fill:#000000; fill-opacity:0.0; 
stroke:#000000; stroke-width:59.0551; stroke-opacity:1; 
stroke-linecap:round; stroke-linejoin:round;">
<path d="M102756 75396
L102756 77955
" />
</g>
<g style="fill:#008484; fill-opacity:0.0; 
stroke:#008484; stroke-width:59.0551; stroke-opacity:1; 
stroke-linecap:round; stroke-linejoin:round;">
</g>
<g style="fill:#008484; fill-opacity:0.0; 
stroke:#008484; stroke-width:47.2441; stroke-opacity:1; 
stroke-linecap:round; stroke-linejoin:round;">
<path d="M37667 9693
L32241 8979
" />
<path d="M37667 9693
L36953 15119
" />
<path d="M32241 8979
L31527 14404
" />
<path d="M31527 14404
L36953 15119
" />
<path d="M44124 18108
L38698 17394
" />
<path d="M44124 18108
L43409 23534
" />
<path d="M38698 17394
L37984 22819
" />
<path d="M37984 22819
L43409 23534
" />
<path d="M68067 21139
L62714 20001
" />
<path d="M68067 21139
L66929 26492
" />
<path d="M62714 20001
L61576 25354
" />
<path d="M61576 25354
L66929 26492
" />
<path d="M66508 28475
L61155 27337
" />
<path d="M66508 28475
L65370 33828
" />
<path d="M61155 27337
L60017 32690
" />
<path d="M60017 32690
L65370 33828
" />
<path d="M69626 13803
L64274 12665
" />
<path d="M69626 13803
L68489 19155
" />
<path d="M64274 12665
L63136 18018
" />
<path d="M63136 18018
L68489 19155
" />
<path d="M64948 35811
L59596 34673
" />
<path d="M64948 35811
L63811 41164
" />
<path d="M59596 34673
L58458 40026
" />
<path d="M58458 40026
L63811 41164
" />
<path d="M62618 10703
L57265 9565
" />
<path d="M62618 10703
L61480 16056
" />
<path d="M57265 9565
L56127 14918
" />
<path d="M56127 14918
L61480 16056
" />
<path d="M61058 18039
L55706 16901
" />
<path d="M61058 18039
L59921 23392
" />
<path d="M55706 16901
L54568 22254
" />
<path d="M54568 22254
L59921 23392
" />
<path d="M76774 16248
L71421 15110
" />
<path d="M76774 16248
L75636 21601
" />
<path d="M71421 15110
L70284 20463
" />
<path d="M70284 20463
L75636 21601
" />
<path d="M86633 53553
L83302 49212
" />
<path d="M86633 53553
L82291 56885
" />
<path d="M83302 49212
L78960 52543
" />
<path d="M78960 52543
L82291 56885
" />
<path d="M79602 45415
L75349 41971
" />
<path d="M79602 45415
L76158 49668
" />
<path d="M75349 41971
L71905 46224
" />
<path d="M71905 46224
L76158 49668
" />
<path d="M75215 23584
L69862 22446
" />
<path d="M75215 23584
L74077 28937
" />
<path d="M69862 22446
L68724 27799
" />
<path d="M68724 27799
L74077 28937
" />
<path d="M28155 24484
L22729 23769
" />
<path d="M28155 24484
L27441 29909
" />
<path d="M22729 23769
L22015 29195
" />
<path d="M22015 29195
L27441 29909
" />
<path d="M34730 32001
L29304 31286
" />
<path d="M34730 32001
L34016 37426
" />
<path d="M29304 31286
L28590 36712
" />
<path d="M28590 36712
L34016 37426
" />
<path d="M35709 24565
L30283 23851
" />
<path d="M35709 24565
L34995 29990
" />
<path d="M30283 23851
L29569 29276
" />
<path d="M29569 29276
L34995 29990
" />
<path d="M42166 32980
L36740 32265
" />
<path d="M42166 32980
L41451 38405
" />
<path d="M36740 32265
L36026 37691
" />
<path d="M36026 37691
L41451 38405
" />
<path d="M43145 25544
L37719 24829
" />
<path d="M43145 25544
L42430 30969
" />
<path d="M37719 24829
L37005 30255
" />
<path d="M37005 30255
L42430 30969
" />
<path d="M36688 17129
L31262 16415
" />
<path d="M36688 17129
L35974 22555
" />
<path d="M31262 16415
L30548 21840
" />
<path d="M30548 21840
L35974 22555
" />
<path d="M51836 25356
L46483 24218
" />
<path d="M51836 25356
L50698 30709
" />
<path d="M46483 24218
L45345 29571
" />
<path d="M45345 29571
L50698 30709
" />
<path d="M45173 46404
L50645 46404
" />
<path d="M45173 46404
L45173 40931
" />
<path d="M50645 46404
L50645 40931
" />
<path d="M50645 40931
L45173 40931
" />
<path d="M73010 57109
L76341 61450
" />
<path d="M73010 57109
L77351 53777
" />
<path d="M76341 61450
L80683 58119
" />
<path d="M80683 58119
L77351 53777
" />
<path d="M57940 32708
L52588 31571
" />
<path d="M57940 32708
L56803 38061
" />
<path d="M52588 31571
L51450 36923
" />
<path d="M51450 36923
L56803 38061
" />
<path d="M72096 38256
L66743 37118
" />
<path d="M72096 38256
L70958 43609
" />
<path d="M66743 37118
L65606 42471
" />
<path d="M65606 42471
L70958 43609
" />
<path d="M50276 32692
L44923 31554
" />
<path d="M50276 32692
L49138 38045
" />
<path d="M44923 31554
L43786 36907
" />
<path d="M43786 36907
L49138 38045
" />
<path d="M67186 52053
L71438 55497
" />
<path d="M67186 52053
L70629 47800
" />
<path d="M71438 55497
L74882 51244
" />
<path d="M74882 51244
L70629 47800
" />
<path d="M52856 46633
L58209 47771
" />
<path d="M52856 46633
L53994 41280
" />
<path d="M58209 47771
L59347 42418
" />
<path d="M59347 42418
L53994 41280
" />
<path d="M54954 10684
L49601 9546
" />
<path d="M54954 10684
L53816 16037
" />
<path d="M49601 9546
L48464 14899
" />
<path d="M48464 14899
L53816 16037
" />
<path d="M45103 10672
L39677 9958
" />
<path d="M45103 10672
L44388 16098
" />
<path d="M39677 9958
L38963 15383
" />
<path d="M38963 15383
L44388 16098
" />
<path d="M60340 48500
L65280 50856
" />
<path d="M60340 48500
L62696 43561
" />
<path d="M65280 50856
L67636 45917
" />
<path d="M67636 45917
L62696 43561
" />
<path d="M59499 25375
L54146 24237
" />
<path d="M59499 25375
L58361 30728
" />
<path d="M54146 24237
L53008 29590
" />
<path d="M53008 29590
L58361 30728
" />
<path d="M53395 18020
L48042 16882
" />
<path d="M53395 18020
L52257 23373
" />
<path d="M48042 16882
L46904 22235
" />
<path d="M46904 22235
L52257 23373
" />
<path d="M73656 30920
L68303 29782
" />
<path d="M73656 30920
L72518 36273
" />
<path d="M68303 29782
L67165 35135
" />
<path d="M67165 35135
L72518 36273
" />
<g >
</g>
</g>
<g style="fill:#000000; fill-opacity:0.0; 
stroke:#000000; stroke-width:47.2441; stroke-opacity:1; 
stroke-linecap:round; stroke-linejoin:round;">
</g>
<g style="fill:#C2C200; fill-opacity:0.0; 
stroke:#C2C200; stroke-width:47.2441; stroke-opacity:1; 
stroke-linecap:round; stroke-linejoin:round;">
</g>
<g style="fill:#C2C200; fill-opacity:0.0; 
stroke:#C2C200; stroke-width:19.685; stroke-opacity:1; 
stroke-linecap:round; stroke-linejoin:round;">
<path d="M89078 45240
L89103 45261
" />
<path d="M89271 45581
L89271 45610
" />
<path d="M89271.7 45581.7 A389.767 389.767 0.0 0 0 89103.5 45261.1" />
<path d="M80937 32909
L80956 32926
" />
<path d="M81125 33271
L81124 33247
" />
<path d="M81124.9 33247.1 A389.767 389.767 0.0 0 0 80956.8 32926.5" />
<path d="M77975 23366
L77976 23397
" />
<path d="M77585 22976
L77555 22975
" />
<path d="M77975.3 23366.1 A389.767 389.767 0.0 0 0 77585.6 22976.4" />
<path d="M81125 33271
L81125 38799
" />
<path d="M77976 30508
L80937 32909
" />
<path d="M69500 21121
L72022 21657
" />
<path d="M71940.7 22043 A196.851 196.851 0.0 0 0 72022.6 21657.9" />
<path d="M73563 21985.3 A196.86 196.86 0.0 1 0 73481.1 22370.4" />
<path d="M77555 22975
L76330 22976
" />
<path d="M56907.6 8503.41 A393.714 393.714 0.0 0 0 56440.6 8806.66" />
<path d="M29080.8 25598.7 A196.847 196.847 0.0 0 0 28690.5 25547.3" />
<path d="M40836 16841
L37811 16443
" />
<path d="M44210 40105
L44209 46979
" />
<path d="M82072 58263
L88031 53692
" />
<path d="M28428.9 30541.9 A196.844 196.844 0.0 1 0 28038.6 30490.5" />
<path d="M34961 16068
L37811 16443
" />
<path d="M33400 15862
L30804 15520
" />
<path d="M44888.5 16978 A196.863 196.863 0.0 0 0 45109.4 16808.6" />
<path d="M88031 53692
L88600 53253
" />
<path d="M31802 7944
L45893 9799
" />
<path d="M62121 17017
L59502 16460
" />
<path d="M68988 20690
L68922 20998
" />
<path d="M69414 20580.2 A393.693 393.693 0.0 0 0 69110.8 20113.2" />
<path d="M28030 30563
L28038 30490
" />
<path d="M28843.6 24384.1 A197.012 197.012 0.0 0 0 29236 24419.9" />
<path d="M70663.7 13564.6 A393.713 393.713 0.0 0 0 70967 14031.6" />
<path d="M61998.6 17595.2 A196.842 196.842 0.0 0 0 61847 17361.8" />
<path d="M88601 53253.8 A1566.74 1566.74 0.0 0 0 89271.3 51891.6" />
<path d="M76499 22184
L77836 15894
" />
<path d="M66429 19945
L68836 20457
" />
<path d="M30517 14688
L31360 8283
" />
<path d="M55151.1 15536 A393.708 393.708 0.0 0 0 54684.1 15839.2" />
<path d="M49244 8480
L55810 9876
" />
<path d="M70689.9 13441.4 A393.7 393.7 0.0 0 0 70386.7 12974.5" />
<path d="M69225 21465
L71940 22042
" />
<path d="M55261.8 15962 A196.846 196.846 0.0 0 0 55028.3 16113.7" />
<path d="M61794.8 18554.1 A393.69 393.69 0.0 0 0 62098 19021.1" />
<path d="M50216.9 16499.7 A196.851 196.851 0.0 0 0 50298.8 16114.6" />
<path d="M63517.5 11111.9 A393.701 393.701 0.0 0 0 63820.8 11578.8" />
<path d="M62220.8 18443.4 A196.854 196.854 0.0 0 0 62372.4 18676.9" />
<path d="M51839.2 16442 A196.847 196.847 0.0 1 0 51757.3 16827.1" />
<path d="M30517.1 14688.9 A393.689 393.689 0.0 0 0 30856 15130.6" />
<path d="M76023.3 22509.2 A407.563 407.563 0.0 0 0 76499.7 22184.7" />
<path d="M69110 20113
L66511 19560
" />
<path d="M62372 18676
L64971 19229
" />
<path d="M62424 17484
L62220 18443
" />
<path d="M62098 19021
L64889 19614
" />
<path d="M45771.1 15152.1 A390.242 390.242 0.0 0 0 45281.7 15499" />
<path d="M77836.1 15894.2 A393.703 393.703 0.0 0 0 77532.9 15427.2" />
<path d="M77532 15427
L70966 14031
" />
<path d="M62424.6 17484.5 A393.702 393.702 0.0 0 0 62121.4 17017.6" />
<path d="M63680.4 10345.5 A393.705 393.705 0.0 0 0 63377.2 9878.58" />
<path d="M55261 15962
L57880 16518
" />
<path d="M61998 17595
L61794 18554
" />
<path d="M59420 16846
L61846 17361
" />
<path d="M55810.8 9876.25 A393.7 393.7 0.0 0 0 56277.7 9573" />
<path d="M49244.9 8480.62 A393.707 393.707 0.0 0 0 48777.9 8783.87" />
<path d="M48128.9 10094.9 A393.699 393.699 0.0 0 0 48569.2 9765.86" />
<path d="M31802.1 7944.59 A393.717 393.717 0.0 0 0 31360.4 8283.56" />
<path d="M28895 23993.8 A393.712 393.712 0.0 0 0 28556 23552.1" />
<path d="M68988 20690.9 A196.858 196.858 0.0 0 0 68836.4 20457.4" />
<path d="M22291.2 22727.3 A393.7 393.7 0.0 0 0 21849.5 23066.2" />
<path d="M20984.6 29635.5 A393.708 393.708 0.0 0 0 21323.6 30077.3" />
<path d="M27559.7 37152.5 A393.708 393.708 0.0 0 0 27898.7 37594.3" />
<path d="M48569 9765
L48777 8783
" />
<path d="M30856 15130
L33451 15472
" />
<path d="M29080 25598
L28834 27472
" />
<path d="M28443 27420
L28690 25547
" />
<path d="M54246 16953.6 A196.858 196.858 0.0 0 0 54479.5 16802" />
<path d="M69414 20580
L69348 20888
" />
<path d="M63377 9878
L56907 8503
" />
<path d="M70386 12974
L63820 11578
" />
<path d="M70663 13564
L70689 13441
" />
<path d="M42448 16656
L44888 16978
" />
<path d="M42397 17047
L45032 17394
" />
<path d="M42448.9 16656.9 A196.837 196.837 0.0 0 0 42397.5 17047.2" />
<path d="M45032.3 17394.1 A393.698 393.698 0.0 0 0 45474 17055.1" />
<path d="M40836.2 16841.6 A196.848 196.848 0.0 0 0 40887.6 16451.3" />
<path d="M76023 22509
L73562 21985
" />
<path d="M27898 37594
L43866 39698
" />
<path d="M44209.5 46979.7 A396.657 396.657 0.0 0 0 44535.1 47369.7" />
<path d="M82072 58263
L76490 62547
" />
<path d="M73481 22370
L76330 22976
" />
<path d="M68922.5 20998.9 A393.706 393.706 0.0 0 0 69225.8 21465.9" />
<path d="M56440 8806
L56277 9573
" />
<path d="M28428 30541
L27559 37152
" />
<path d="M22291 22727
L28556 23552
" />
<path d="M20984 29635
L21849 23066
" />
<path d="M28895 23993
L28843 24384
" />
<path d="M30362 15859
L29236 24419
" />
<path d="M45884.6 15578.8 A193.08 193.08 0.0 0 0 45644.1 15753" />
<path d="M58999 48929
L65782 52166
" />
<path d="M58999 48929
L51660 47370
" />
<path d="M65782 52166
L71624 56892
" />
<path d="M75929.6 62496.5 A393.57 393.57 0.0 0 0 76490.1 62547.6" />
<path d="M71624 56892
L75929 62496
" />
<path d="M64890 19614.5 A196.855 196.855 0.0 0 0 64971.8 19229.4" />
<path d="M66511.4 19560.7 A196.852 196.852 0.0 0 0 66429.5 19945.8" />
<path d="M57880.5 16518.7 A196.857 196.857 0.0 0 0 57962.3 16133.5" />
<path d="M59502.7 16461 A196.85 196.85 0.0 1 0 59420.8 16846.1" />
<path d="M30804.7 15521 A393.688 393.688 0.0 0 0 30363 15859.9" />
<path d="M54356.7 17379.7 A393.708 393.708 0.0 0 0 54823.7 17076.4" />
<path d="M69348.6 20888.3 A196.848 196.848 0.0 0 0 69500.2 21121.7" />
<path d="M63517 11111
L63680 10345
" />
<path d="M89271 45610
L89271 51891
" />
<path d="M27588.4 30902 A393.704 393.704 0.0 0 0 28030.1 30563.1" />
<path d="M45893 9799
L48128 10094
" />
<path d="M37862 16053
L40887 16451
" />
<path d="M27588 30902
L21323 30077
" />
<path d="M28443.8 27420.9 A196.845 196.845 0.0 1 0 28834.1 27472.3" />
<path d="M54823 17076
L55028 16113
" />
<path d="M55151 15536
L57962 16133
" />
<path d="M51757 16827
L54356 17379
" />
<path d="M51839 16442
L54246 16953
" />
<path d="M54479 16801
L54684 15839
" />
<path d="M50216 16499
L45884 15578
" />
<path d="M45644 15752
L45474 17055
" />
<path d="M45771 15152
L50298 16114
" />
<path d="M45281 15498
L45109 16808
" />
<path d="M51660 47370
L44535 47369
" />
<path d="M77976 23397
L77976 30508
" />
<path d="M35013.1 15677.9 A196.856 196.856 0.0 1 0 34961.7 16068.3" />
<path d="M33400.4 15862.7 A196.853 196.853 0.0 0 0 33451.8 15472.4" />
<path d="M81125 38799
L89078 45240
" />
<path d="M44210.6 40105.7 A395.247 395.247 0.0 0 0 43866 39698.3" />
<path d="M35013 15677
L37862 16053
" />
<g >
</g>
<g >
</g>
<g >
</g>
<g >
</g>
<g >
</g>
<g >
</g>
<g >
</g>
<g >
</g>
<g >
</g>
<g >
</g>
<g >
</g>
<g >
</g>
<g >
</g>
<g >
</g>
<g >
</g>
<g >
</g>
<g >
</g>
<g >
</g>
<g >
</g>
<g >
</g>
<g >
</g>
<g >
</g>
<g >
</g>
<g >
</g>
<g >
</g>
<g >
</g>
<g >
</g>
<g >
</g>
<g >
</g>
<g >
</g>
<g >
</g>
<g >
</g>
<g >
</g>
<g >
</g>
<g >
</g>
<g >
</g>
<g >
</g>
<g >
</g>
<g >
</g>
<g >
</g>
<g >
</g>
<g >
</g>
<g >
</g>
<g >
</g>
<g >
</g>
<g >
</g>
<g >
</g>
</g> 
</svg>
