<?xml version="1.0" encoding="utf-8"?>
<!-- Generator: Adobe Illustrator 24.3.0, SVG Export Plug-In . SVG Version: 6.00 Build 0)  -->
<svg version="1.1" id="Layer_1" xmlns="http://www.w3.org/2000/svg" xmlns:xlink="http://www.w3.org/1999/xlink" x="0px" y="0px"
	 viewBox="0 0 841.89 595.28" style="enable-background:new 0 0 841.89 595.28;" xml:space="preserve">
<style type="text/css">
	.st0{fill:none;stroke:#000000;stroke-width:1.38;stroke-linecap:round;stroke-linejoin:round;stroke-miterlimit:10;}
	.st1{fill:none;stroke:#000000;stroke-width:1.725;stroke-linecap:round;stroke-linejoin:round;stroke-miterlimit:10;}
	
		.st2{clip-path:url(#SVGID_2_);fill:none;stroke:#000000;stroke-width:1.725;stroke-linecap:round;stroke-linejoin:round;stroke-miterlimit:10;}
	
		.st3{clip-path:url(#SVGID_4_);fill:none;stroke:#000000;stroke-width:1.725;stroke-linecap:round;stroke-linejoin:round;stroke-miterlimit:10;}
	.st4{fill:none;stroke:#000000;stroke-width:0.675;stroke-linecap:round;stroke-linejoin:round;stroke-miterlimit:10;}
</style>
<g>
	<line class="st0" x1="427.61" y1="269.3" x2="427.61" y2="293.55"/>
	<path class="st1" d="M506.72,439.07c-1.87,1.19-4.17,1.49-6.28,0.83c-2.11-0.66-3.83-2.23-4.68-4.27"/>
	<line class="st1" x1="427.61" y1="293.55" x2="495.75" y2="435.61"/>
	<line class="st0" x1="427.61" y1="216.16" x2="427.61" y2="269.3"/>
	<line class="st0" x1="427.61" y1="216.16" x2="427.61" y2="180.38"/>
	<line class="st0" x1="574.83" y1="167.67" x2="441.46" y2="166.52"/>
	<path class="st1" d="M427.61,180.38c0-3.68,1.46-7.2,4.06-9.8c2.6-2.6,6.12-4.06,9.8-4.06"/>
	<line class="st1" x1="586.98" y1="154.96" x2="663.24" y2="155.54"/>
	<path class="st1" d="M671.33,163.63c-2.23,0-4.04-1.81-4.04-4.04"/>
	<line class="st1" x1="671.32" y1="163.62" x2="749.82" y2="163.62"/>
	<path class="st1" d="M749.83,163.64c2.23,0,4.04,1.81,4.04,4.04"/>
	<path class="st1" d="M580.64,161.32c0-1.68,0.67-3.3,1.86-4.49c1.19-1.19,2.81-1.86,4.49-1.86"/>
	<path class="st1" d="M580.63,161.32c0,1.59-0.59,3.12-1.67,4.3c-1.07,1.18-2.55,1.91-4.13,2.05"/>
	<path class="st1" d="M663.25,155.55c2.23,0,4.04,1.81,4.04,4.04"/>
</g>
<g>
	<defs>
		<rect id="SVGID_1_" x="840" y="178" width="1" height="103"/>
	</defs>
	<clipPath id="SVGID_2_">
		<use xlink:href="#SVGID_1_"  style="overflow:visible;"/>
	</clipPath>
	<line class="st2" x1="840.91" y1="279.69" x2="841.05" y2="179.79"/>
</g>
<line class="st1" x1="506.71" y1="439.07" x2="837.59" y2="286.04"/>
<path class="st1" d="M757.91,171.72c-2.23,0-4.04-1.81-4.04-4.04"/>
<g>
	<defs>
		<rect id="SVGID_3_" x="836" y="278" width="5" height="9"/>
	</defs>
	<clipPath id="SVGID_4_">
		<use xlink:href="#SVGID_3_"  style="overflow:visible;"/>
	</clipPath>
	<path class="st3" d="M840.93,279.7c0,2.54-1.25,4.91-3.33,6.35"/>
</g>
<line class="st1" x1="757.91" y1="171.7" x2="832.97" y2="171.7"/>
<line class="st4" x1="580.59" y1="254.86" x2="580.59" y2="168.24"/>
<line class="st4" x1="493.96" y1="254.86" x2="580.59" y2="254.86"/>
<line class="st4" x1="493.96" y1="168.24" x2="493.96" y2="254.86"/>
<line class="st4" x1="580.59" y1="168.24" x2="493.96" y2="168.24"/>
<line class="st4" x1="499.05" y1="442.92" x2="577.55" y2="406.3"/>
<line class="st4" x1="577.55" y1="406.3" x2="540.95" y2="327.81"/>
<line class="st4" x1="462.43" y1="364.41" x2="499.05" y2="442.92"/>
<line class="st4" x1="540.95" y1="327.81" x2="462.43" y2="364.41"/>
<line class="st4" x1="667.2" y1="162.99" x2="667.2" y2="249.6"/>
<line class="st4" x1="667.2" y1="240.95" x2="667.2" y2="154.32"/>
<line class="st4" x1="580.59" y1="240.95" x2="667.2" y2="240.95"/>
<line class="st4" x1="580.59" y1="154.32" x2="580.59" y2="240.95"/>
<line class="st4" x1="667.2" y1="154.32" x2="580.59" y2="154.32"/>
<line class="st4" x1="840.43" y1="258.33" x2="840.43" y2="171.7"/>
<line class="st4" x1="753.82" y1="258.33" x2="840.43" y2="258.33"/>
<line class="st4" x1="753.82" y1="171.7" x2="753.82" y2="258.33"/>
<line class="st4" x1="840.43" y1="171.7" x2="753.82" y2="171.7"/>
<line class="st4" x1="753.82" y1="249.6" x2="753.82" y2="162.99"/>
<line class="st4" x1="667.2" y1="249.6" x2="753.82" y2="249.6"/>
<line class="st4" x1="753.82" y1="162.99" x2="667.2" y2="162.99"/>
</svg>
