0
SECTION
2
HEADER
9
$INSUNITS
70
4
9
$ACADVER
1
AC1014
9
$HANDSEED
5
FFFF
0
ENDSEC
0
SECTION
2
TABLES
0
TABLE
2
VPORT
5
8
100
AcDbSymbolTable
0
ENDTAB
0
TABLE
2
LTYPE
5
5
100
AcDbSymbolTable
0
LTYPE
5
14
100
AcDbSymbolTableRecord
100
AcDbLinetypeTableRecord
2
BYBLOCK
70
0
0
LTYPE
5
15
100
AcDbSymbolTableRecord
100
AcDbLinetypeTableRecord
2
BYLAYER
70
0
0
ENDTAB
0
TABLE
2
LAYER
5
2
100
AcDbSymbolTable
70
2
0
LAYER
5
50
100
AcDbSymbolTableRecord
100
AcDbLayerTableRecord
2
0
70
0
6
CONTINUOUS
0
ENDTAB
0
TABLE
2
STYLE
5
3
100
AcDbSymbolTable
70
1
0
STYLE
5
11
100
AcDbSymbolTableRecord
100
AcDbTextStyleTableRecord
2
STANDARD
70
0
0
ENDTAB
0
TABLE
2
VIEW
5
6
100
AcDbSymbolTable
70
0
0
ENDTAB
0
TABLE
2
UCS
5
7
100
AcDbSymbolTable
70
0
0
ENDTAB
0
TABLE
2
APPID
5
9
100
AcDbSymbolTable
70
2
0
APPID
5
12
100
AcDbSymbolTableRecord
100
AcDbRegAppTableRecord
2
ACAD
70
0
0
ENDTAB
0
TABLE
2
DIMSTYLE
5
A
100
AcDbSymbolTable
70
1
0
ENDTAB
0
TABLE
2
BLOCK_RECORD
5
1
100
AcDbSymbolTable
70
1
0
BLOCK_RECORD
5
1F
100
AcDbSymbolTableRecord
100
AcDbBlockTableRecord
2
*MODEL_SPACE
0
BLOCK_RECORD
5
1B
100
AcDbSymbolTableRecord
100
AcDbBlockTableRecord
2
*PAPER_SPACE
0
ENDTAB
0
ENDSEC
0
SECTION
2
BLOCKS
0
BLOCK
5
20
100
AcDbEntity
100
AcDbBlockBegin
2
*MODEL_SPACE
0
ENDBLK
5
21
100
AcDbEntity
100
AcDbBlockEnd
0
BLOCK
5
1C
100
AcDbEntity
100
AcDbBlockBegin
2
*PAPER_SPACE
0
ENDBLK
5
1D
100
AcDbEntity
100
AcDbBlockEnd
0
ENDSEC
0
SECTION
2
ENTITIES
0
LWPOLYLINE
5
100
100
AcDbEntity
8
0
100
AcDbPolyline
90
4
70
1
43
0.0
10
-216.83750000000003
20
97.487500000000011
10
-230.83750000000003
20
97.487500000000011
10
-230.83750000000003
20
83.487500000000011
10
-216.83750000000003
20
83.487500000000011
0
LWPOLYLINE
5
101
100
AcDbEntity
8
0
100
AcDbPolyline
90
4
70
1
43
0.0
10
-368.95000000000005
20
40.337500000000006
10
-368.95000000000005
20
26.337499999999999
10
-354.94999999999999
20
26.337499999999999
10
-354.94999999999999
20
40.337500000000006
0
LWPOLYLINE
5
102
100
AcDbEntity
8
0
100
AcDbPolyline
90
4
70
1
43
0.0
10
-207.02500000000001
20
40.337500000000006
10
-207.02500000000001
20
26.337499999999999
10
-193.02500000000003
20
26.337499999999999
10
-193.02500000000003
20
40.337500000000006
0
LWPOLYLINE
5
103
100
AcDbEntity
8
0
100
AcDbPolyline
90
4
70
1
43
0.0
10
-388.00000000000006
20
26.337499999999999
10
-374
20
26.337499999999999
10
-374
20
40.337500000000006
10
-388.00000000000006
20
40.337500000000006
0
LWPOLYLINE
5
104
100
AcDbEntity
8
0
100
AcDbPolyline
90
4
70
1
43
0.0
10
-188.26249999999999
20
64.4375
10
-188.26249999999999
20
78.4375
10
-202.26249999999999
20
78.4375
10
-202.26249999999999
20
64.4375
0
CIRCLE
5
105
100
AcDbEntity
8
0
100
AcDbCircle
10
-313.84999999999997
20
-4
30
0
40
1.0999999999999943
210
0
220
-0
230
1
0
LWPOLYLINE
5
106
100
AcDbEntity
8
0
100
AcDbPolyline
90
4
70
1
43
0.0
10
-264.17500000000007
20
40.337500000000006
10
-264.17500000000007
20
26.337499999999999
10
-250.17500000000001
20
26.337499999999999
10
-250.17500000000001
20
40.337500000000006
0
LWPOLYLINE
5
107
100
AcDbEntity
8
0
100
AcDbPolyline
90
4
70
1
43
0.0
10
-288.27499999999998
20
40.337500000000006
10
-302.27499999999998
20
40.337500000000006
10
-302.27499999999998
20
26.337499999999999
10
-288.27499999999998
20
26.337499999999999
0
LWPOLYLINE
5
108
100
AcDbEntity
8
0
100
AcDbPolyline
90
4
70
1
43
0.0
10
-354.94999999999999
20
45.387500000000003
10
-354.94999999999999
20
59.387500000000003
10
-368.95000000000005
20
59.387500000000003
10
-368.95000000000005
20
45.387500000000003
0
LWPOLYLINE
5
109
100
AcDbEntity
8
0
100
AcDbPolyline
90
4
70
1
43
0.0
10
-231.125
20
26.337499999999999
10
-231.125
20
40.337500000000006
10
-245.12500000000003
20
40.337500000000006
10
-245.12500000000003
20
26.337499999999999
0
LWPOLYLINE
5
110
100
AcDbEntity
8
0
100
AcDbPolyline
90
4
70
1
43
0.0
10
-283.22500000000002
20
26.337499999999999
10
-269.22500000000002
20
26.337499999999999
10
-269.22500000000002
20
40.337500000000006
10
-283.22500000000002
20
40.337500000000006
0
LWPOLYLINE
5
111
100
AcDbEntity
8
0
100
AcDbPolyline
90
4
70
1
43
0.0
10
-264.46249999999998
20
64.4375
10
-264.46249999999998
20
78.4375
10
-278.46249999999998
20
78.4375
10
-278.46249999999998
20
64.4375
0
CIRCLE
5
112
100
AcDbEntity
8
0
100
AcDbCircle
10
-293.51249999999999
20
123.0625
30
0
40
1.0999999999999943
210
0
220
-0
230
1
0
LWPOLYLINE
5
113
100
AcDbEntity
8
0
100
AcDbPolyline
90
4
70
1
43
0.0
10
-354.94999999999999
20
64.4375
10
-354.94999999999999
20
78.4375
10
-368.95000000000005
20
78.4375
10
-368.95000000000005
20
64.4375
0
LWPOLYLINE
5
114
100
AcDbEntity
8
0
100
AcDbPolyline
90
4
70
1
43
0.0
10
-235.60000000000002
20
45.387500000000003
10
-221.59999999999999
20
45.387500000000003
10
-221.59999999999999
20
59.387500000000003
10
-235.60000000000002
20
59.387500000000003
0
LWPOLYLINE
5
115
100
AcDbEntity
8
0
100
AcDbPolyline
90
4
70
1
43
0.0
10
-292.75
20
45.387500000000003
10
-278.75
20
45.387500000000003
10
-278.75
20
59.387500000000003
10
-292.75
20
59.387500000000003
0
LWPOLYLINE
5
116
100
AcDbEntity
8
0
100
AcDbPolyline
90
4
70
1
43
0.0
10
-368.95000000000005
20
102.53749999999999
10
-354.94999999999999
20
102.53749999999999
10
-354.94999999999999
20
116.53750000000001
10
-368.95000000000005
20
116.53750000000001
0
CIRCLE
5
117
100
AcDbEntity
8
0
100
AcDbCircle
10
-333.84999999999997
20
-4
30
0
40
1.0999999999999943
210
0
220
-0
230
1
0
LWPOLYLINE
5
118
100
AcDbEntity
8
0
100
AcDbPolyline
90
4
70
1
43
0.0
10
-211.78750000000002
20
83.487500000000011
10
-197.78750000000002
20
83.487500000000011
10
-197.78750000000002
20
97.487500000000011
10
-211.78750000000002
20
97.487500000000011
0
LWPOLYLINE
5
119
100
AcDbEntity
8
0
100
AcDbPolyline
90
28
70
1
43
0.0
10
-313.03075000000001
20
78.4375
10
-328.46875000000006
20
78.4375
10
-328.46875000000006
20
77.350499999999997
10
-329.90675000000005
20
77.350499999999997
10
-329.90675000000005
20
79.4375
10
-336.90674999999999
20
79.4375
10
-336.90674999999999
20
77.350499999999997
10
-337.99374999999998
20
77.350499999999997
10
-337.99374999999998
20
70.350499999999997
10
-336.90674999999999
20
70.350499999999997
10
-336.90674999999999
20
68.912499999999994
10
-337.99374999999998
20
68.912499999999994
10
-337.99374999999998
20
54.912500000000009
10
-335.61250000000001
20
54.912500000000009
10
-335.61250000000001
20
53.474500000000006
10
-337.99374999999998
20
53.474500000000006
10
-337.99374999999998
20
46.474499999999999
10
-335.61250000000001
20
46.474499999999999
10
-335.61250000000001
20
45.387500000000003
10
-321.61250000000001
20
45.387500000000003
10
-321.61250000000001
20
59.387500000000003
10
-323.99374999999998
20
59.387500000000003
10
-323.99374999999998
20
64.4375
10
-302.5625
20
64.4375
10
-302.5625
20
78.4375
10
-306.03075000000001
20
78.4375
10
-306.03075000000001
20
79.4375
10
-313.03075000000001
20
79.4375
0
LWPOLYLINE
5
120
100
AcDbEntity
8
0
100
AcDbPolyline
90
4
70
1
43
0.0
10
-207.31250000000003
20
64.4375
10
-207.31250000000003
20
78.4375
10
-221.3125
20
78.4375
10
-221.3125
20
64.4375
0
LWPOLYLINE
5
121
100
AcDbEntity
8
0
100
AcDbPolyline
90
4
70
1
43
0.0
10
-259.69999999999999
20
2.524999999999995
10
-259.69999999999999
20
16.524999999999999
10
-273.69999999999999
20
16.524999999999999
10
-273.69999999999999
20
2.524999999999995
0
CIRCLE
5
122
100
AcDbEntity
8
0
100
AcDbCircle
10
-243.36250000000001
20
-4.0000000000000009
30
0
40
1.0999999999999943
210
0
220
-0
230
1
0
LWPOLYLINE
5
123
100
AcDbEntity
8
0
100
AcDbPolyline
90
4
70
1
43
0.0
10
-297.51249999999999
20
64.4375
10
-283.51249999999999
20
64.4375
10
-283.51249999999999
20
78.4375
10
-297.51249999999999
20
78.4375
0
LWPOLYLINE
5
124
100
AcDbEntity
8
0
100
AcDbPolyline
90
4
70
1
43
0.0
10
-287.98750000000001
20
83.487500000000011
10
-273.98750000000001
20
83.487500000000011
10
-273.98750000000001
20
97.487500000000011
10
-287.98750000000001
20
97.487500000000011
0
LWPOLYLINE
5
125
100
AcDbEntity
8
0
100
AcDbPolyline
90
4
70
1
43
0.0
10
-235.88750000000002
20
83.487500000000011
10
-235.88750000000002
20
97.487500000000011
10
-249.88749999999999
20
97.487500000000011
10
-249.88749999999999
20
83.487500000000011
0
LWPOLYLINE
5
126
100
AcDbEntity
8
0
100
AcDbPolyline
90
4
70
1
43
0.0
10
-240.36250000000001
20
64.4375
10
-226.36250000000004
20
64.4375
10
-226.36250000000004
20
78.4375
10
-240.36250000000001
20
78.4375
0
LWPOLYLINE
5
127
100
AcDbEntity
8
0
100
AcDbPolyline
90
4
70
1
43
0.0
10
-254.93750000000003
20
83.487500000000011
10
-254.93750000000003
20
97.487500000000011
10
-268.9375
20
97.487500000000011
10
-268.9375
20
83.487500000000011
0
LWPOLYLINE
5
128
100
AcDbEntity
8
0
100
AcDbPolyline
90
4
70
1
43
0.0
10
-259.69999999999999
20
45.387500000000003
10
-259.69999999999999
20
59.387500000000003
10
-273.69999999999999
20
59.387500000000003
10
-273.69999999999999
20
45.387500000000003
0
CIRCLE
5
129
100
AcDbEntity
8
0
100
AcDbCircle
10
-223.36250000000001
20
-4.0000000000000009
30
0
40
1.0999999999999943
210
0
220
-0
230
1
0
LWPOLYLINE
5
130
100
AcDbEntity
8
0
100
AcDbPolyline
90
16
70
1
43
0.0
10
-193.02500000000003
20
116.53750000000001
10
-297.51249999999999
20
116.53750000000001
10
-297.51249999999999
20
102.53749999999999
10
-251.18175000000002
20
102.53749999999999
10
-251.18175000000002
20
101.53750000000001
10
-234.62500000000003
20
101.53750000000001
10
-234.62500000000003
20
102.53749999999999
10
-232.13175000000004
20
102.53749999999999
10
-232.13175000000004
20
101.53750000000001
10
-215.54325000000003
20
101.53750000000001
10
-215.54325000000003
20
102.53749999999999
10
-208.25575000000001
20
102.53749999999999
10
-208.25575000000001
20
101.53750000000001
10
-196.49325000000002
20
101.53750000000001
10
-196.49325000000002
20
102.53749999999999
10
-193.02500000000003
20
102.53749999999999
0
CIRCLE
5
131
100
AcDbEntity
8
0
100
AcDbCircle
10
-393.93921356237314
20
-3.4142135623730807
30
0
40
1.0999999999999943
210
0
220
-0
230
1
0
LWPOLYLINE
5
132
100
AcDbEntity
8
0
100
AcDbPolyline
90
4
70
1
43
0.0
10
-311.80000000000001
20
45.387500000000003
10
-297.80000000000001
20
45.387500000000003
10
-297.80000000000001
20
59.387500000000003
10
-311.80000000000001
20
59.387500000000003
0
LWPOLYLINE
5
133
100
AcDbEntity
8
0
100
AcDbPolyline
90
4
70
1
43
0.0
10
-216.55000000000001
20
45.387500000000003
10
-202.55000000000001
20
45.387500000000003
10
-202.55000000000001
20
59.387500000000003
10
-216.55000000000001
20
59.387500000000003
0
LWPOLYLINE
5
134
100
AcDbEntity
8
0
100
AcDbPolyline
90
4
70
1
43
0.0
10
-374
20
45.387500000000003
10
-374
20
59.387500000000003
10
-388.00000000000006
20
59.387500000000003
10
-388.00000000000006
20
45.387500000000003
0
LWPOLYLINE
5
135
100
AcDbEntity
8
0
100
AcDbPolyline
90
4
70
1
43
0.0
10
-388.00000000000006
20
64.4375
10
-374
20
64.4375
10
-374
20
78.4375
10
-388.00000000000006
20
78.4375
0
LWPOLYLINE
5
136
100
AcDbEntity
8
0
100
AcDbPolyline
90
4
70
1
43
0.0
10
-240.65000000000001
20
45.387500000000003
10
-240.65000000000001
20
59.387500000000003
10
-254.65000000000003
20
59.387500000000003
10
-254.65000000000003
20
45.387500000000003
0
CIRCLE
5
137
100
AcDbEntity
8
0
100
AcDbCircle
10
-194.5
20
-4
30
0
40
1.0999999999999943
210
0
220
-0
230
1
0
LWPOLYLINE
5
138
100
AcDbEntity
8
0
100
AcDbPolyline
90
4
70
1
43
0.0
10
-335.89999999999998
20
102.53749999999999
10
-335.89999999999998
20
116.53750000000001
10
-349.90000000000003
20
116.53750000000001
10
-349.90000000000003
20
102.53749999999999
0
LWPOLYLINE
5
139
100
AcDbEntity
8
0
100
AcDbPolyline
90
4
70
1
43
0.0
10
-292.75
20
2.524999999999995
10
-278.75
20
2.524999999999995
10
-278.75
20
16.524999999999999
10
-292.75
20
16.524999999999999
0
LWPOLYLINE
5
140
100
AcDbEntity
8
0
100
AcDbPolyline
90
4
70
1
43
0.0
10
-374
20
102.53749999999999
10
-374
20
116.53750000000001
10
-388.00000000000006
20
116.53750000000001
10
-388.00000000000006
20
102.53749999999999
0
LWPOLYLINE
5
141
100
AcDbEntity
8
0
100
AcDbPolyline
90
8
70
1
43
0.0
10
-301.26825000000002
20
98.487500000000011
10
-308.26825000000002
20
98.487500000000011
10
-308.26825000000002
20
97.487500000000011
10
-323.70625000000007
20
97.487500000000011
10
-323.70625000000007
20
83.487500000000011
10
-300.18124999999998
20
83.487500000000011
10
-300.18124999999998
20
97.487500000000011
10
-301.26825000000002
20
97.487500000000011
0
CIRCLE
5
142
100
AcDbEntity
8
0
100
AcDbCircle
10
-194.5
20
123.0625
30
0
40
1.0999999999999943
210
0
220
-0
230
1
0
LWPOLYLINE
5
143
100
AcDbEntity
8
0
100
AcDbPolyline
90
4
70
1
43
0.0
10
-302.5625
20
116.53750000000001
10
-318.94375000000002
20
116.53750000000001
10
-318.94375000000002
20
102.53749999999999
10
-302.5625
20
102.53749999999999
0
LWPOLYLINE
5
144
100
AcDbEntity
8
0
100
AcDbPolyline
90
4
70
1
43
0.0
10
-354.94999999999999
20
83.487500000000011
10
-354.94999999999999
20
97.487500000000011
10
-368.95000000000005
20
97.487500000000011
10
-368.95000000000005
20
83.487500000000011
0
CIRCLE
5
145
100
AcDbEntity
8
0
100
AcDbCircle
10
-393.93921356237314
20
122.47671356237308
30
0
40
1.0999999999999943
210
0
220
-0
230
1
0
LWPOLYLINE
5
146
100
AcDbEntity
8
0
100
AcDbPolyline
90
12
70
1
43
0.0
10
-340.375
20
40.337500000000006
10
-340.375
20
26.337499999999999
10
-307.32500000000005
20
26.337499999999999
10
-307.32500000000005
20
40.337500000000006
10
-308.41200000000003
20
40.337500000000006
10
-308.41200000000003
20
41.337499999999999
10
-315.41200000000003
20
41.337499999999999
10
-315.41200000000003
20
40.337500000000006
10
-332.28800000000001
20
40.337500000000006
10
-332.28800000000001
20
41.337499999999999
10
-339.28800000000001
20
41.337499999999999
10
-339.28800000000001
20
40.337500000000006
0
LWPOLYLINE
5
147
100
AcDbEntity
8
0
100
AcDbPolyline
90
4
70
1
43
0.0
10
-297.80000000000001
20
2.524999999999995
10
-297.80000000000001
20
16.524999999999999
10
-311.80000000000001
20
16.524999999999999
10
-311.80000000000001
20
2.524999999999995
0
LWPOLYLINE
5
148
100
AcDbEntity
8
0
100
AcDbPolyline
90
4
70
1
43
0.0
10
-193.02500000000003
20
16.524999999999999
10
-207.02500000000001
20
16.524999999999999
10
-207.02500000000001
20
2.524999999999995
10
-193.02500000000003
20
2.524999999999995
0
LWPOLYLINE
5
149
100
AcDbEntity
8
0
100
AcDbPolyline
90
4
70
1
43
0.0
10
-388.00000000000006
20
1.5249999999999986
10
-374
20
1.5249999999999986
10
-374
20
18.025000000000002
10
-388.00000000000006
20
18.025000000000002
0
LWPOLYLINE
5
150
100
AcDbEntity
8
0
100
AcDbPolyline
90
4
70
1
43
0.0
10
-197.5
20
45.387500000000003
10
-183.5
20
45.387500000000003
10
-183.5
20
59.387500000000003
10
-197.5
20
59.387500000000003
0
LWPOLYLINE
5
151
100
AcDbEntity
8
0
100
AcDbPolyline
90
4
70
1
43
0.0
10
-259.41250000000002
20
64.4375
10
-245.41250000000002
20
64.4375
10
-245.41250000000002
20
78.4375
10
-259.41250000000002
20
78.4375
0
LWPOLYLINE
5
152
100
AcDbEntity
8
0
100
AcDbPolyline
90
4
70
1
43
0.0
10
-226.07500000000002
20
26.337499999999999
10
-212.07499999999999
20
26.337499999999999
10
-212.07499999999999
20
40.337500000000006
10
-226.07500000000002
20
40.337500000000006
0
LWPOLYLINE
5
153
100
AcDbEntity
8
0
100
AcDbPolyline
90
4
70
1
43
0.0
10
-332.14425
20
83.487500000000011
10
-325.14425000000006
20
83.487500000000011
10
-325.14425000000006
20
98.487500000000011
10
-332.14425
20
98.487500000000011
0
LWPOLYLINE
5
154
100
AcDbEntity
8
0
100
AcDbPolyline
90
4
70
1
43
0.0
10
-254.65000000000003
20
2.524999999999995
10
-240.65000000000001
20
2.524999999999995
10
-240.65000000000001
20
16.524999999999999
10
-254.65000000000003
20
16.524999999999999
0
LWPOLYLINE
5
155
100
AcDbEntity
8
0
100
AcDbPolyline
90
4
70
1
43
0.0
10
-226.07500000000002
20
2.524999999999995
10
-212.07499999999999
20
2.524999999999995
10
-212.07499999999999
20
16.524999999999999
10
-226.07500000000002
20
16.524999999999999
0
LWPOLYLINE
5
156
100
AcDbEntity
8
0
100
AcDbPolyline
90
4
70
1
43
0.0
10
-354.94999999999999
20
18.025000000000002
10
-368.95000000000005
20
18.025000000000002
10
-368.95000000000005
20
1.5249999999999986
10
-354.94999999999999
20
1.5249999999999986
0
LWPOLYLINE
5
157
100
AcDbEntity
8
0
100
AcDbPolyline
90
4
70
1
43
0.0
10
-349.90000000000003
20
2.524999999999995
10
-335.89999999999998
20
2.524999999999995
10
-335.89999999999998
20
16.524999999999999
10
-349.90000000000003
20
16.524999999999999
0
LWPOLYLINE
5
158
100
AcDbEntity
8
0
100
AcDbPolyline
90
24
70
1
43
0.0
10
-182.97499999999999
20
61.912500000000001
42
-0.41421356237309637
10
-180.97499999999999
20
59.912500000000001
10
-180.97499999999999
20
44.862499999999997
42
-0.41421356237309637
10
-182.97499999999999
20
42.862499999999997
10
-188.5
20
42.862499999999997
42
0.41421356237309509
10
-190.5
20
40.862499999999997
10
-190.5
20
-6.0000000000000009
42
-0.41421356237310203
10
-192.50000000000003
20
-8.0000000000000071
10
-394.52499999999998
20
-7.9999999999999671
42
-0.4142135623730947
10
-398.52499999999998
20
-3.9999999999999858
10
-398.52499999999992
20
123.0625
42
-0.41421356237309892
10
-394.52499999999998
20
127.0625
10
-192.5
20
127.06250000000003
42
-0.4142135623730977
10
-190.5
20
125.06250000000001
10
-190.50000000000006
20
102.0125
42
-0.4142135623730977
10
-192.5
20
100.0125
10
-193.26250000000002
20
100.0125
42
0.41421356237309509
10
-195.26250000000002
20
98.012500000000017
10
-195.26250000000002
20
82.962500000000006
42
0.41421356237309509
10
-193.26250000000002
20
80.962500000000006
10
-187.73750000000001
20
80.962499999999991
42
-0.4142135623730937
10
-185.73750000000001
20
78.962500000000006
10
-185.73750000000001
20
63.912499999999994
42
0.41421356237309509
10
-183.73750000000001
20
61.912500000000001
0
ENDSEC
0
SECTION
2
OBJECTS
0
DICTIONARY
5
C
100
AcDbDictionary
3
ACAD_GROUP
350
D
3
ACAD_MLINESTYLE
350
17
0
DICTIONARY
5
D
100
AcDbDictionary
0
DICTIONARY
5
1A
330
C
100
AcDbDictionary
0
DICTIONARY
5
17
100
AcDbDictionary
0
ENDSEC
0
EOF
