0
SECTION
2
HEADER
9
$INSUNITS
70
4
9
$ACADVER
1
AC1014
9
$HANDSEED
5
FFFF
0
ENDSEC
0
SECTION
2
TABLES
0
TABLE
2
VPORT
5
8
100
AcDbSymbolTable
0
ENDTAB
0
TABLE
2
LTYPE
5
5
100
AcDbSymbolTable
0
LTYPE
5
14
100
AcDbSymbolTableRecord
100
AcDbLinetypeTableRecord
2
BYBLOCK
70
0
0
LTYPE
5
15
100
AcDbSymbolTableRecord
100
AcDbLinetypeTableRecord
2
BYLAYER
70
0
0
ENDTAB
0
TABLE
2
LAYER
5
2
100
AcDbSymbolTable
70
2
0
LAYER
5
50
100
AcDbSymbolTableRecord
100
AcDbLayerTableRecord
2
0
70
0
6
CONTINUOUS
0
ENDTAB
0
TABLE
2
STYLE
5
3
100
AcDbSymbolTable
70
1
0
STYLE
5
11
100
AcDbSymbolTableRecord
100
AcDbTextStyleTableRecord
2
STANDARD
70
0
0
ENDTAB
0
TABLE
2
VIEW
5
6
100
AcDbSymbolTable
70
0
0
ENDTAB
0
TABLE
2
UCS
5
7
100
AcDbSymbolTable
70
0
0
ENDTAB
0
TABLE
2
APPID
5
9
100
AcDbSymbolTable
70
2
0
APPID
5
12
100
AcDbSymbolTableRecord
100
AcDbRegAppTableRecord
2
ACAD
70
0
0
ENDTAB
0
TABLE
2
DIMSTYLE
5
A
100
AcDbSymbolTable
70
1
0
ENDTAB
0
TABLE
2
BLOCK_RECORD
5
1
100
AcDbSymbolTable
70
1
0
BLOCK_RECORD
5
1F
100
AcDbSymbolTableRecord
100
AcDbBlockTableRecord
2
*MODEL_SPACE
0
BLOCK_RECORD
5
1B
100
AcDbSymbolTableRecord
100
AcDbBlockTableRecord
2
*PAPER_SPACE
0
ENDTAB
0
ENDSEC
0
SECTION
2
BLOCKS
0
BLOCK
5
20
100
AcDbEntity
100
AcDbBlockBegin
2
*MODEL_SPACE
0
ENDBLK
5
21
100
AcDbEntity
100
AcDbBlockEnd
0
BLOCK
5
1C
100
AcDbEntity
100
AcDbBlockBegin
2
*PAPER_SPACE
0
ENDBLK
5
1D
100
AcDbEntity
100
AcDbBlockEnd
0
ENDSEC
0
SECTION
2
ENTITIES
0
CIRCLE
5
100
100
AcDbEntity
8
0
100
AcDbCircle
10
-289.92828328247066
20
-297.20904769897453
30
0
40
2.1600500000000018
210
0
220
0
230
1
0
CIRCLE
5
101
100
AcDbEntity
8
0
100
AcDbCircle
10
-289.1282832824707
20
-354.35904769897445
30
0
40
2.1592799999999985
210
0
220
0
230
1
0
CIRCLE
5
102
100
AcDbEntity
8
0
100
AcDbCircle
10
-184.34828328247067
20
-286.81904769897454
30
0
40
2.1488800000000015
210
0
220
0
230
1
0
LWPOLYLINE
5
103
100
AcDbEntity
8
0
100
AcDbPolyline
90
52
70
1
43
0.0
10
-168.4482832824707
20
-293.08004769897457
10
-168.4482832824707
20
-292.20304769897456
10
-167.92808328247071
20
-292.2030476989745
10
-167.92808328247074
20
-278.40304769897449
10
-168.44828328247073
20
-278.40304769897455
10
-168.44828328247073
20
-277.47904769897451
10
-172.54828328247069
20
-277.47904769897451
10
-172.54828328247069
20
-276.75404769897449
10
-169.31828328247067
20
-276.75404769897455
10
-169.31828328247065
20
-275.0300476989745
10
-168.39728328247071
20
-275.03004769897461
10
-168.39728328247071
20
-271.73004769897454
10
-169.31828328247067
20
-271.73004769897454
10
-169.31828328247065
20
-270.00404769897449
10
-172.54828328247066
20
-270.00404769897455
10
-172.54828328247069
20
-269.17904769897456
10
-175.34928328247065
20
-269.17904769897456
10
-175.34928328247065
20
-270.00404769897449
10
-181.61828328247066
20
-270.00404769897455
10
-181.61828328247066
20
-271.73004769897454
10
-182.59828328247065
20
-271.73004769897454
10
-182.59828328247067
20
-275.0300476989745
10
-181.61828328247068
20
-275.03004769897461
10
-181.61828328247068
20
-276.75404769897455
10
-177.14828328247069
20
-276.75404769897455
10
-177.14828328247069
20
-277.47904769897451
10
-181.24728328247068
20
-277.47904769897451
10
-181.2472832824707
20
-278.40304769897455
10
-181.72808328247072
20
-278.40304769897455
10
-181.72808328247069
20
-292.2030476989745
10
-181.24728328247068
20
-292.20304769897456
10
-181.24728328247068
20
-293.08004769897457
10
-177.14828328247069
20
-293.08004769897457
10
-177.14828328247069
20
-293.80404769897456
10
-181.61828328247068
20
-293.8040476989745
10
-181.61828328247068
20
-295.5300476989745
10
-182.59828328247065
20
-295.5300476989745
10
-182.59828328247065
20
-298.82904769897453
10
-181.61828328247066
20
-298.82904769897453
10
-181.61828328247068
20
-300.55404769897456
10
-175.34928328247065
20
-300.55404769897456
10
-175.34928328247062
20
-301.37904769897455
10
-172.54828328247066
20
-301.37904769897449
10
-172.54828328247069
20
-300.5540476989745
10
-169.31828328247067
20
-300.55404769897456
10
-169.31828328247065
20
-298.82904769897448
10
-168.39728328247065
20
-298.82904769897453
10
-168.39728328247071
20
-295.5300476989745
10
-169.31828328247067
20
-295.5300476989745
10
-169.31828328247065
20
-293.8040476989745
10
-172.54828328247066
20
-293.8040476989745
10
-172.54828328247066
20
-293.08004769897451
0
CIRCLE
5
104
100
AcDbEntity
8
0
100
AcDbCircle
10
-195.46608328247078
20
-363.88404769897448
30
0
40
2.1514999999999946
210
0
220
0
230
1
0
LWPOLYLINE
5
105
100
AcDbEntity
8
0
100
AcDbPolyline
90
4
70
1
43
0.0
10
-257.92828328247072
20
-342.20904769897453
10
-244.12838328247068
20
-342.20904769897453
10
-244.12838328247065
20
-328.40904769897452
10
-257.92828328247066
20
-328.40904769897452
0
LWPOLYLINE
5
106
100
AcDbEntity
8
0
100
AcDbPolyline
90
4
70
1
43
0.0
10
-244.12838328247065
20
-290.30904769897455
10
-257.92828328247066
20
-290.30904769897455
10
-257.92828328247072
20
-304.10904769897451
10
-244.12838328247065
20
-304.10904769897451
0
LWPOLYLINE
5
107
100
AcDbEntity
8
0
100
AcDbPolyline
90
4
70
1
43
0.0
10
-238.87838328247068
20
-366.02154769897453
10
-225.07838328247067
20
-366.02154769897453
10
-225.07838328247067
20
-352.22154769897452
10
-238.87838328247071
20
-352.22154769897458
0
LWPOLYLINE
5
108
100
AcDbEntity
8
0
100
AcDbPolyline
90
4
70
1
43
0.0
10
-206.02808328247067
20
-304.10904769897451
10
-206.02808328247067
20
-290.30904769897455
10
-219.82838328247067
20
-290.30904769897455
10
-219.82838328247067
20
-304.10904769897451
0
LWPOLYLINE
5
109
100
AcDbEntity
8
0
100
AcDbPolyline
90
4
70
1
43
0.0
10
-219.8283832824707
20
-366.50904769897454
10
-219.8283832824707
20
-380.3090476989745
10
-206.02808328247067
20
-380.3090476989745
10
-206.02808328247073
20
-366.50904769897454
0
LWPOLYLINE
5
110
100
AcDbEntity
8
0
100
AcDbPolyline
90
4
70
1
43
0.0
10
-225.07838328247067
20
-314.12204769897448
10
-238.87838328247068
20
-314.12204769897454
10
-238.87838328247068
20
-327.92154769897451
10
-225.07838328247067
20
-327.92154769897451
0
LWPOLYLINE
5
111
100
AcDbEntity
8
0
100
AcDbPolyline
90
4
70
1
43
0.0
10
-186.97808328247072
20
-323.15904769897452
10
-186.97808328247072
20
-309.35904769897451
10
-200.7780832824707
20
-309.35904769897451
10
-200.7780832824707
20
-323.15904769897452
0
LWPOLYLINE
5
112
100
AcDbEntity
8
0
100
AcDbPolyline
90
4
70
1
43
0.0
10
-206.02808328247067
20
-342.20904769897453
10
-206.02808328247067
20
-328.40904769897452
10
-219.8283832824707
20
-328.40904769897452
10
-219.82838328247067
20
-342.20904769897453
0
LWPOLYLINE
5
113
100
AcDbEntity
8
0
100
AcDbPolyline
90
4
70
1
43
0.0
10
-219.8283832824707
20
-309.35904769897451
10
-219.8283832824707
20
-323.15904769897452
10
-206.02808328247067
20
-323.15904769897452
10
-206.02808328247073
20
-309.35904769897451
0
LWPOLYLINE
5
114
100
AcDbEntity
8
0
100
AcDbPolyline
90
4
70
1
43
0.0
10
-238.87838328247068
20
-308.87204769897448
10
-225.07838328247067
20
-308.87204769897448
10
-225.07838328247067
20
-295.07204769897453
10
-238.87838328247068
20
-295.07204769897453
0
LWPOLYLINE
5
115
100
AcDbEntity
8
0
100
AcDbPolyline
90
4
70
1
43
0.0
10
-186.97808328247072
20
-299.34704769897451
10
-186.97808328247072
20
-285.5470476989745
10
-200.7780832824707
20
-285.54704769897455
10
-200.7780832824707
20
-299.34704769897456
0
LWPOLYLINE
5
116
100
AcDbEntity
8
0
100
AcDbPolyline
90
4
70
1
43
0.0
10
-276.97838328247065
20
-299.34704769897456
10
-263.17828328247066
20
-299.34704769897456
10
-263.17828328247066
20
-285.5470476989745
10
-276.97838328247065
20
-285.54704769897455
0
LWPOLYLINE
5
117
100
AcDbEntity
8
0
100
AcDbPolyline
90
4
70
1
43
0.0
10
-296.02838328247066
20
-294.58404769897453
10
-282.22838328247065
20
-294.58404769897453
10
-282.22838328247065
20
-280.78404769897458
10
-296.02838328247066
20
-280.78404769897452
0
LWPOLYLINE
5
118
100
AcDbEntity
8
0
100
AcDbPolyline
90
4
70
1
43
0.0
10
-225.07838328247067
20
-333.17154769897451
10
-238.87838328247068
20
-333.17154769897451
10
-238.87838328247068
20
-346.97154769897452
10
-225.07838328247067
20
-346.97154769897446
0
LWPOLYLINE
5
119
100
AcDbEntity
8
0
100
AcDbPolyline
90
4
70
1
43
0.0
10
-263.17828328247066
20
-361.7465476989745
10
-276.97838328247065
20
-361.7465476989745
10
-276.97838328247065
20
-375.54654769897456
10
-263.17828328247066
20
-375.54654769897445
0
LWPOLYLINE
5
120
100
AcDbEntity
8
0
100
AcDbPolyline
90
4
70
1
43
0.0
10
-282.22838328247065
20
-299.83404769897453
10
-296.02838328247066
20
-299.83404769897453
10
-296.02838328247066
20
-313.63404769897454
10
-282.22838328247065
20
-313.63404769897454
0
LWPOLYLINE
5
121
100
AcDbEntity
8
0
100
AcDbPolyline
90
4
70
1
43
0.0
10
-200.7780832824707
20
-328.40904769897452
10
-200.7780832824707
20
-342.20904769897453
10
-186.97808328247072
20
-342.20904769897453
10
-186.97808328247072
20
-328.40904769897452
0
LWPOLYLINE
5
122
100
AcDbEntity
8
0
100
AcDbPolyline
90
4
70
1
43
0.0
10
-263.17828328247066
20
-323.64654769897447
10
-276.97838328247065
20
-323.64654769897447
10
-276.97838328247065
20
-337.44654769897454
10
-263.17828328247066
20
-337.44654769897454
0
LWPOLYLINE
5
123
100
AcDbEntity
8
0
100
AcDbPolyline
90
4
70
1
43
0.0
10
-282.22838328247065
20
-318.88404769897454
10
-296.02838328247066
20
-318.88404769897454
10
-296.02838328247066
20
-332.68404769897444
10
-282.22838328247065
20
-332.6840476989745
0
LWPOLYLINE
5
124
100
AcDbEntity
8
0
100
AcDbPolyline
90
4
70
1
43
0.0
10
-276.97838328247065
20
-356.4965476989745
10
-263.17828328247066
20
-356.4965476989745
10
-263.17828328247066
20
-342.69654769897448
10
-276.97838328247065
20
-342.69654769897454
0
LWPOLYLINE
5
125
100
AcDbEntity
8
0
100
AcDbPolyline
90
4
70
1
43
0.0
10
-238.87838328247068
20
-385.07154769897454
10
-225.07838328247067
20
-385.07154769897454
10
-225.07838328247072
20
-371.27154769897447
10
-238.87838328247071
20
-371.27154769897453
0
LWPOLYLINE
5
126
100
AcDbEntity
8
0
100
AcDbPolyline
90
4
70
1
43
0.0
10
-244.12838328247065
20
-309.35904769897451
10
-257.92828328247066
20
-309.35904769897451
10
-257.92828328247072
20
-323.15904769897452
10
-244.12838328247068
20
-323.15904769897452
0
LWPOLYLINE
5
127
100
AcDbEntity
8
0
100
AcDbPolyline
90
4
70
1
43
0.0
10
-296.02838328247066
20
-351.73404769897445
10
-282.2283832824707
20
-351.73404769897445
10
-282.22838328247065
20
-337.9340476989745
10
-296.02838328247066
20
-337.9340476989745
0
LWPOLYLINE
5
128
100
AcDbEntity
8
0
100
AcDbPolyline
90
4
70
1
43
0.0
10
-206.02808328247067
20
-361.25904769897443
10
-206.02808328247067
20
-347.45904769897447
10
-219.8283832824707
20
-347.45904769897447
10
-219.82838328247067
20
-361.25904769897443
0
LWPOLYLINE
5
129
100
AcDbEntity
8
0
100
AcDbPolyline
90
4
70
1
43
0.0
10
-257.92828328247072
20
-361.25904769897443
10
-244.12838328247068
20
-361.25904769897443
10
-244.12838328247065
20
-347.45904769897447
10
-257.92828328247066
20
-347.45904769897447
0
LWPOLYLINE
5
130
100
AcDbEntity
8
0
100
AcDbPolyline
90
4
70
1
43
0.0
10
-263.17828328247066
20
-304.59704769897451
10
-276.97838328247065
20
-304.59704769897451
10
-276.97838328247065
20
-318.39654769897453
10
-263.17828328247066
20
-318.39654769897453
0
LWPOLYLINE
5
131
100
AcDbEntity
8
0
100
AcDbPolyline
90
4
70
1
43
0.0
10
-244.12838328247065
20
-366.50904769897454
10
-257.92828328247066
20
-366.50904769897454
10
-257.92828328247072
20
-380.3090476989745
10
-244.12838328247068
20
-380.3090476989745
0
LWPOLYLINE
5
132
100
AcDbEntity
8
0
100
AcDbPolyline
90
4
70
1
43
0.0
10
-186.97808328247072
20
-361.25904769897443
10
-186.97808328247072
20
-347.45904769897447
10
-200.7780832824707
20
-347.45904769897447
10
-200.7780832824707
20
-361.25904769897443
0
LWPOLYLINE
5
133
100
AcDbEntity
8
0
100
AcDbPolyline
90
4
70
1
43
0.0
10
-200.7780832824707
20
-366.50904769897454
10
-200.7780832824707
20
-380.3090476989745
10
-186.97808328247072
20
-380.3090476989745
10
-186.97808328247072
20
-366.50904769897454
0
LWPOLYLINE
5
134
100
AcDbEntity
8
0
100
AcDbPolyline
90
4
70
1
43
0.0
10
-282.2283832824707
20
-356.98404769897451
10
-296.02838328247066
20
-356.98404769897451
10
-296.02838328247066
20
-370.78404769897446
10
-282.2283832824707
20
-370.78404769897446
0
LWPOLYLINE
5
135
100
AcDbEntity
8
0
100
AcDbPolyline
90
53
70
1
43
0.0
10
-184.35633328307603
20
-277.37207869892694
10
-184.35576844239216
20
-265.10880199252807
42
-0.29100007806518879
10
-183.12786163052877
20
-263.87814894179706
10
-166.57220448719286
20
-263.87794790584218
42
-0.33848117986392717
10
-165.30677493995103
20
-265.38503345351222
10
-165.30678330816511
20
-305.19524468787813
42
-0.39038645239040459
10
-166.86642968919062
20
-306.73998554706981
10
-183.56208328247067
20
-306.74129669897457
42
0.41421356237309503
10
-184.35583428247068
20
-307.53504769897455
10
-184.35678367077927
20
-381.39575259638269
42
-0.39038655295648506
10
-185.9164381659302
20
-382.94048585415709
10
-221.66328328247067
20
-382.94039769897449
42
0.41421356237309503
10
-222.45703328247072
20
-383.73414769897454
10
-222.45708330816501
20
-386.15814468787795
42
-0.3903864523904727
10
-224.01672968919064
20
-387.7028855470698
10
-239.98497102584105
20
-387.70284774940734
42
-0.3414042927959316
10
-241.50695621554701
20
-386.43424861643518
10
-241.5069332824707
20
-383.73414769897454
42
0.41421356237309503
10
-242.30068328247069
20
-382.94039769897444
10
-259.03507102584103
20
-382.94044774940738
42
-0.3414042927959316
10
-260.55705621554699
20
-381.67184861643523
10
-260.55703328247068
20
-378.97154769897452
42
0.41421356237309503
10
-261.35078328247067
20
-378.17779769897447
10
-278.08505972378509
20
-378.17784816606695
42
-0.34140136965946893
10
-279.60705010140168
20
-376.90927622178214
10
-279.6070332824707
20
-374.2091476989745
42
0.41421356237309503
10
-280.40078328247068
20
-373.41539769897446
10
-297.13497102584108
20
-373.41544774940729
42
-0.34140429279594525
10
-298.65695621554698
20
-372.14684861643519
10
-298.65698066731005
20
-279.39685720396892
42
-0.29100007806514999
10
-297.42911681409009
20
-278.16616129195421
10
-280.87250448719283
20
-278.16594790584213
42
-0.33848117986392684
10
-279.60707493995102
20
-279.67303345351218
10
-279.60703328235707
20
-282.1350611292936
42
0.41421678571967779
10
-278.81326111678914
20
-282.92879769866505
10
-262.14708402752871
20
-282.92879769866511
10
-261.82244863996596
20
-282.92793805222368
42
-0.33848142302528145
10
-260.55697694282122
20
-284.4349896740855
10
-260.55703328198712
20
-286.8970199918727
42
0.41421509595922407
10
-259.76330683350727
20
-287.69079769862515
10
-242.77236309421801
20
-287.69095714472923
42
-0.3384814716575742
10
-241.50697292535489
20
-289.19807751544147
10
-241.50703328223213
20
-291.66002823957524
42
0.41422074289662486
10
-240.71328328247066
20
-292.45379769897454
10
-223.25078328247065
20
-292.45379769897448
42
0.41421356237309503
10
-222.45703328247072
20
-291.66004769897449
10
-222.45708066731009
20
-288.92185720396895
42
-0.29100007806514544
10
-221.22921681409014
20
-287.69116129195419
10
-204.20006633493034
20
-287.69079769879363
42
0.41420730875586742
10
-203.40633328247068
20
-286.89704769897457
10
-203.40680511136409
20
-279.39696762813082
42
-0.29100007806514772
10
-202.17902717991936
20
-278.16618599804724
10
-185.15011376028272
20
-278.16579769838944
42
0.41421336970368516
0
ENDSEC
0
SECTION
2
OBJECTS
0
DICTIONARY
5
C
100
AcDbDictionary
3
ACAD_GROUP
350
D
3
ACAD_MLINESTYLE
350
17
0
DICTIONARY
5
D
100
AcDbDictionary
0
DICTIONARY
5
1A
330
C
100
AcDbDictionary
0
DICTIONARY
5
17
100
AcDbDictionary
0
ENDSEC
0
EOF
