0
SECTION
2
HEADER
9
$INSUNITS
70
1
9
$ACADVER
1
AC1014
9
$HANDSEED
5
FFFF
0
ENDSEC
0
SECTION
2
TABLES
0
TABLE
2
VPORT
5
8
100
AcDbSymbolTable
0
ENDTAB
0
TABLE
2
LTYPE
5
5
100
AcDbSymbolTable
0
LTYPE
5
14
100
AcDbSymbolTableRecord
100
AcDbLinetypeTableRecord
2
BYBLOCK
70
0
0
LTYPE
5
15
100
AcDbSymbolTableRecord
100
AcDbLinetypeTableRecord
2
BYLAYER
70
0
0
ENDTAB
0
TABLE
2
LAYER
5
2
100
AcDbSymbolTable
70
2
0
LAYER
5
50
100
AcDbSymbolTableRecord
100
AcDbLayerTableRecord
2
0
70
0
6
CONTINUOUS
0
ENDTAB
0
TABLE
2
STYLE
5
3
100
AcDbSymbolTable
70
1
0
STYLE
5
11
100
AcDbSymbolTableRecord
100
AcDbTextStyleTableRecord
2
STANDARD
70
0
0
ENDTAB
0
TABLE
2
VIEW
5
6
100
AcDbSymbolTable
70
0
0
ENDTAB
0
TABLE
2
UCS
5
7
100
AcDbSymbolTable
70
0
0
ENDTAB
0
TABLE
2
APPID
5
9
100
AcDbSymbolTable
70
2
0
APPID
5
12
100
AcDbSymbolTableRecord
100
AcDbRegAppTableRecord
2
ACAD
70
0
0
ENDTAB
0
TABLE
2
DIMSTYLE
5
A
100
AcDbSymbolTable
70
1
0
ENDTAB
0
TABLE
2
BLOCK_RECORD
5
1
100
AcDbSymbolTable
70
1
0
BLOCK_RECORD
5
1F
100
AcDbSymbolTableRecord
100
AcDbBlockTableRecord
2
*MODEL_SPACE
0
BLOCK_RECORD
5
1B
100
AcDbSymbolTableRecord
100
AcDbBlockTableRecord
2
*PAPER_SPACE
0
ENDTAB
0
ENDSEC
0
SECTION
2
BLOCKS
0
BLOCK
5
20
100
AcDbEntity
100
AcDbBlockBegin
2
*MODEL_SPACE
0
ENDBLK
5
21
100
AcDbEntity
100
AcDbBlockEnd
0
BLOCK
5
1C
100
AcDbEntity
100
AcDbBlockBegin
2
*PAPER_SPACE
0
ENDBLK
5
1D
100
AcDbEntity
100
AcDbBlockEnd
0
ENDSEC
0
SECTION
2
ENTITIES
0
LWPOLYLINE
5
100
100
AcDbEntity
8
0
100
AcDbPolyline
90
12
70
1
43
0.0
10
-7.3443937469519138
20
5.0248258632426497
10
-7.3591546553007658
20
4.9992525895282647
10
-6.9227041172420689
20
4.7473330870412793
10
-6.9079432088932133
20
4.7729063607556661
10
-6.8874845899217201
20
4.7610976340765934
10
-6.6119476340765919
20
5.2384654100782768
10
-6.6324062530480843
20
5.2502741367573487
10
-6.6176453446992376
20
5.2758474104717337
10
-7.0540958827579336
20
5.5277669129587164
10
-7.068856791106783
20
5.5021936392443305
10
-7.0893154100782763
20
5.5140023659234032
10
-7.3648523659234044
20
5.0366345899217206
0
LWPOLYLINE
5
101
100
AcDbEntity
8
0
100
AcDbPolyline
90
12
70
1
43
0.0
10
-3.7014905511811018
20
3.0457685039370079
10
-3.731018110236219
20
3.0457685039370075
10
-3.7310181102362203
20
2.5418314960629917
10
-3.7014905511811027
20
2.5418314960629917
10
-3.7014905511811027
20
2.5182094488188977
10
-3.1503094488188976
20
2.5182094488188977
10
-3.1503094488188976
20
2.5418314960629917
10
-3.1207818897637791
20
2.5418314960629917
10
-3.1207818897637791
20
3.0457685039370075
10
-3.1503094488188976
20
3.0457685039370079
10
-3.1503094488188976
20
3.0693905511811024
10
-3.7014905511811018
20
3.0693905511811024
0
LWPOLYLINE
5
102
100
AcDbEntity
8
0
100
AcDbPolyline
90
12
70
1
43
0.0
10
-6.7014905511811014
20
2.9519685039370072
10
-6.7310181102362181
20
2.9519685039370072
10
-6.731018110236219
20
2.4480314960629914
10
-6.7014905511811014
20
2.4480314960629914
10
-6.7014905511811014
20
2.4244094488188974
10
-6.1503094488188967
20
2.4244094488188974
10
-6.1503094488188976
20
2.4480314960629914
10
-6.1207818897637791
20
2.4480314960629914
10
-6.1207818897637791
20
2.9519685039370072
10
-6.1503094488188976
20
2.9519685039370072
10
-6.1503094488188976
20
2.9755905511811021
10
-6.7014905511811014
20
2.9755905511811021
0
LWPOLYLINE
5
103
100
AcDbEntity
8
0
100
AcDbPolyline
90
12
70
1
43
0.0
10
-5.9514905511811014
20
2.8582685039370075
10
-5.981018110236219
20
2.858268503937007
10
-5.9810181102362199
20
2.3543314960629913
10
-5.9514905511811023
20
2.3543314960629913
10
-5.9514905511811023
20
2.3307094488188973
10
-5.4003094488188976
20
2.3307094488188973
10
-5.4003094488188976
20
2.3543314960629913
10
-5.3707818897637791
20
2.3543314960629913
10
-5.3707818897637791
20
2.858268503937007
10
-5.4003094488188976
20
2.8582685039370075
10
-5.4003094488188976
20
2.8818905511811019
10
-5.9514905511811014
20
2.8818905511811019
0
CIRCLE
5
104
100
AcDbEntity
8
0
100
AcDbCircle
10
-2.952500787401577
20
2.0353629921259855
30
0
40
0.04133858267716517
0
LWPOLYLINE
5
105
100
AcDbEntity
8
0
100
AcDbPolyline
90
12
70
1
43
0.0
10
-4.4514905511811014
20
2.8582685039370075
10
-4.481018110236219
20
2.858268503937007
10
-4.4810181102362199
20
2.3543314960629913
10
-4.4514905511811023
20
2.3543314960629913
10
-4.4514905511811023
20
2.3307094488188973
10
-3.9003094488188976
20
2.3307094488188973
10
-3.9003094488188976
20
2.3543314960629913
10
-3.8707818897637796
20
2.3543314960629913
10
-3.8707818897637796
20
2.858268503937007
10
-3.9003094488188976
20
2.8582685039370075
10
-3.9003094488188976
20
2.8818905511811019
10
-4.4514905511811014
20
2.8818905511811019
0
CIRCLE
5
106
100
AcDbEntity
8
0
100
AcDbCircle
10
-7.0532231949053443
20
6.0793896049452565
30
0
40
0.041338582677165517
0
CIRCLE
5
107
100
AcDbEntity
8
0
100
AcDbCircle
10
-7.8090295496070246
20
4.7608933057002396
30
0
40
0.041338582677165517
0
LWPOLYLINE
5
108
100
AcDbEntity
8
0
100
AcDbPolyline
90
12
70
1
43
0.0
10
-3.7014905511811018
20
4.5457685039370075
10
-3.731018110236219
20
4.5457685039370075
10
-3.7310181102362203
20
4.0418314960629909
10
-3.7014905511811027
20
4.0418314960629917
10
-3.7014905511811027
20
4.0182094488188973
10
-3.1503094488188976
20
4.0182094488188973
10
-3.1503094488188976
20
4.0418314960629926
10
-3.1207818897637791
20
4.0418314960629917
10
-3.1207818897637791
20
4.5457685039370075
10
-3.1503094488188976
20
4.5457685039370075
10
-3.1503094488188976
20
4.5693905511811028
10
-3.7014905511811018
20
4.5693905511811028
0
LWPOLYLINE
5
109
100
AcDbEntity
8
0
100
AcDbPolyline
90
12
70
1
43
0.0
10
-3.7014905511811018
20
3.7957685039370075
10
-3.731018110236219
20
3.7957685039370075
10
-3.7310181102362203
20
3.2918314960629922
10
-3.7014905511811027
20
3.2918314960629922
10
-3.7014905511811027
20
3.2682094488188982
10
-3.1503094488188976
20
3.2682094488188973
10
-3.1503094488188976
20
3.2918314960629922
10
-3.1207818897637791
20
3.2918314960629913
10
-3.1207818897637791
20
3.7957685039370066
10
-3.1503094488188976
20
3.7957685039370075
10
-3.1503094488188976
20
3.8193905511811019
10
-3.7014905511811018
20
3.8193905511811019
0
LWPOLYLINE
5
110
100
AcDbEntity
8
0
100
AcDbPolyline
90
12
70
1
43
0.0
10
-6.7014905511811014
20
3.7019685039370072
10
-6.7310181102362181
20
3.7019685039370072
10
-6.731018110236219
20
3.198031496062991
10
-6.7014905511811014
20
3.1980314960629914
10
-6.7014905511811014
20
3.174409448818897
10
-6.1503094488188967
20
3.174409448818897
10
-6.1503094488188976
20
3.198031496062991
10
-6.1207818897637791
20
3.198031496062991
10
-6.1207818897637791
20
3.7019685039370072
10
-6.1503094488188976
20
3.7019685039370072
10
-6.1503094488188976
20
3.7255905511811016
10
-6.7014905511811014
20
3.7255905511811016
0
CIRCLE
5
111
100
AcDbEntity
8
0
100
AcDbCircle
10
-4.6698112022965672
20
2.0380186844834873
30
0
40
0.041338582677165517
0
LWPOLYLINE
5
112
100
AcDbEntity
8
0
100
AcDbPolyline
90
12
70
1
43
0.0
10
-5.2014905511811014
20
2.7644685039370076
10
-5.2310181102362181
20
2.7644685039370072
10
-5.2310181102362199
20
2.2605314960629914
10
-5.2014905511811023
20
2.2605314960629919
10
-5.2014905511811023
20
2.2369094488188974
10
-4.6503094488188967
20
2.2369094488188974
10
-4.6503094488188967
20
2.2605314960629919
10
-4.6207818897637782
20
2.2605314960629914
10
-4.6207818897637782
20
2.7644685039370072
10
-4.6503094488188967
20
2.7644685039370076
10
-4.6503094488188967
20
2.7880905511811025
10
-5.2014905511811014
20
2.7880905511811025
0
LWPOLYLINE
5
113
100
AcDbEntity
8
0
100
AcDbPolyline
90
12
70
1
43
0.0
10
-4.4514905511811014
20
4.3582685039370066
10
-4.481018110236219
20
4.3582685039370066
10
-4.4810181102362199
20
3.8543314960629909
10
-4.4514905511811023
20
3.8543314960629917
10
-4.4514905511811023
20
3.8307094488188969
10
-3.9003094488188976
20
3.8307094488188969
10
-3.9003094488188976
20
3.8543314960629909
10
-3.8707818897637796
20
3.8543314960629909
10
-3.8707818897637796
20
4.3582685039370066
10
-3.9003094488188976
20
4.3582685039370066
10
-3.9003094488188976
20
4.3818905511811019
10
-4.4514905511811014
20
4.3818905511811019
0
LWPOLYLINE
5
114
100
AcDbEntity
8
0
100
AcDbPolyline
90
12
70
1
43
0.0
10
-5.2014905511811014
20
3.5144685039370076
10
-5.2310181102362181
20
3.5144685039370072
10
-5.2310181102362199
20
3.010531496062991
10
-5.2014905511811023
20
3.0105314960629919
10
-5.2014905511811023
20
2.9869094488188974
10
-4.6503094488188967
20
2.9869094488188974
10
-4.6503094488188967
20
3.0105314960629919
10
-4.6207818897637782
20
3.0105314960629914
10
-4.6207818897637782
20
3.5144685039370072
10
-4.6503094488188967
20
3.5144685039370076
10
-4.6503094488188967
20
3.5380905511811025
10
-5.2014905511811014
20
3.5380905511811025
0
CIRCLE
5
115
100
AcDbEntity
8
0
100
AcDbCircle
10
-5.1820746244750877
20
2.0380186844834882
30
0
40
0.041338582677165517
0
LWPOLYLINE
5
116
100
AcDbEntity
8
0
100
AcDbPolyline
90
12
70
1
43
0.0
10
-4.4514905511811014
20
3.6082685039370075
10
-4.481018110236219
20
3.6082685039370066
10
-4.4810181102362199
20
3.1043314960629909
10
-4.4514905511811023
20
3.1043314960629917
10
-4.4514905511811023
20
3.0807094488188973
10
-3.9003094488188976
20
3.0807094488188973
10
-3.9003094488188976
20
3.1043314960629917
10
-3.8707818897637796
20
3.1043314960629913
10
-3.8707818897637796
20
3.6082685039370066
10
-3.9003094488188976
20
3.6082685039370075
10
-3.9003094488188976
20
3.6318905511811019
10
-4.4514905511811014
20
3.6318905511811019
0
LWPOLYLINE
5
117
100
AcDbEntity
8
0
100
AcDbPolyline
90
12
70
1
43
0.0
10
-5.4827905511811013
20
5.2019685039370076
10
-5.512318110236218
20
5.2019685039370076
10
-5.5123181102362198
20
4.6980314960629919
10
-5.4827905511811021
20
4.6980314960629919
10
-5.4827905511811021
20
4.6744094488188974
10
-4.9316094488188966
20
4.6744094488188974
10
-4.9316094488188966
20
4.6980314960629919
10
-4.9020818897637781
20
4.6980314960629919
10
-4.9020818897637781
20
5.2019685039370076
10
-4.9316094488188966
20
5.2019685039370076
10
-4.9316094488188966
20
5.2255905511811029
10
-5.4827905511811013
20
5.2255905511811029
0
CIRCLE
5
118
100
AcDbEntity
8
0
100
AcDbCircle
10
-2.952500787401573
20
4.767264566929132
30
0
40
0.041338582677165517
0
CIRCLE
5
119
100
AcDbEntity
8
0
100
AcDbCircle
10
-4.7374769055118069
20
5.4122842519685062
30
0
40
0.041338582677165517
0
LWPOLYLINE
5
120
100
AcDbEntity
8
0
100
AcDbPolyline
90
12
70
1
43
0.0
10
-6.2518368203186867
20
5.358542232814048
10
-6.2803570629174006
20
5.3661889645252971
10
-6.4108612841227419
20
4.8794434908405355
10
-6.3823410415240236
20
4.8717967591292846
10
-6.3884584268930231
20
4.8489805650503133
10
-5.8560805650503118
20
4.7062415731069773
10
-5.8499631796813123
20
4.7290577671859486
10
-5.8214429370825984
20
4.7214110354746994
10
-5.6909387158772606
20
5.2081565091594637
10
-5.7194589584759781
20
5.2158032408707129
10
-5.7133415731069777
20
5.2386194349496886
10
-6.2457194349496863
20
5.381358426893021
0
LWPOLYLINE
5
121
100
AcDbEntity
8
0
100
AcDbPolyline
90
12
70
1
43
0.0
10
-6.7014905511811014
20
4.4519685039370076
10
-6.7310181102362181
20
4.4519685039370067
10
-6.731018110236219
20
3.9480314960629914
10
-6.7014905511811014
20
3.9480314960629914
10
-6.7014905511811014
20
3.9244094488188974
10
-6.1503094488188967
20
3.9244094488188974
10
-6.1503094488188976
20
3.9480314960629914
10
-6.1207818897637791
20
3.9480314960629914
10
-6.1207818897637791
20
4.4519685039370076
10
-6.1503094488188976
20
4.4519685039370076
10
-6.1503094488188976
20
4.4755905511811021
10
-6.7014905511811014
20
4.4755905511811021
0
LWPOLYLINE
5
122
100
AcDbEntity
8
0
100
AcDbPolyline
90
12
70
1
43
0.0
10
-5.9514905511811014
20
4.3582685039370066
10
-5.981018110236219
20
4.3582685039370066
10
-5.9810181102362199
20
3.8543314960629909
10
-5.9514905511811023
20
3.8543314960629917
10
-5.9514905511811023
20
3.8307094488188969
10
-5.4003094488188976
20
3.8307094488188969
10
-5.4003094488188976
20
3.8543314960629909
10
-5.3707818897637791
20
3.8543314960629909
10
-5.3707818897637791
20
4.3582685039370066
10
-5.4003094488188976
20
4.3582685039370066
10
-5.4003094488188976
20
4.3818905511811019
10
-5.9514905511811014
20
4.3818905511811019
0
LWPOLYLINE
5
123
100
AcDbEntity
8
0
100
AcDbPolyline
90
12
70
1
43
0.0
10
-5.9514905511811014
20
3.6082685039370075
10
-5.981018110236219
20
3.6082685039370066
10
-5.9810181102362199
20
3.1043314960629909
10
-5.9514905511811023
20
3.1043314960629917
10
-5.9514905511811023
20
3.0807094488188973
10
-5.4003094488188976
20
3.0807094488188973
10
-5.4003094488188976
20
3.1043314960629917
10
-5.3707818897637791
20
3.1043314960629913
10
-5.3707818897637791
20
3.6082685039370066
10
-5.4003094488188976
20
3.6082685039370075
10
-5.4003094488188976
20
3.6318905511811019
10
-5.9514905511811014
20
3.6318905511811019
0
CIRCLE
5
124
100
AcDbEntity
8
0
100
AcDbCircle
10
-6.8993813622047258
20
2.0353629921259913
30
0
40
0.041338582677165517
0
LWPOLYLINE
5
125
100
AcDbEntity
8
0
100
AcDbPolyline
90
12
70
1
43
0.0
10
-5.2014905511811014
20
4.2644685039370076
10
-5.2310181102362181
20
4.2644685039370076
10
-5.2310181102362199
20
3.760531496062991
10
-5.2014905511811023
20
3.7605314960629919
10
-5.2014905511811023
20
3.7369094488188974
10
-4.6503094488188967
20
3.7369094488188974
10
-4.6503094488188967
20
3.760531496062991
10
-4.6207818897637782
20
3.760531496062991
10
-4.6207818897637782
20
4.2644685039370076
10
-4.6503094488188967
20
4.2644685039370076
10
-4.6503094488188967
20
4.2880905511811021
10
-5.2014905511811014
20
4.2880905511811021
0
LWPOLYLINE
5
126
100
AcDbEntity
8
0
100
AcDbPolyline
90
16
70
1
43
0.0
10
-6.9977972440944898
20
2.0156976377952813
10
-6.9977972440944853
20
4.1402569906884246
42
0.26795774423142737
10
-7.0371694992164295
20
4.208449223852667
10
-7.875980129130741
20
4.6927010725359901
42
-0.41420447410600431
10
-7.9048056814655698
20
4.8002590920766446
10
-7.1280541317364552
20
6.1458278331111051
42
-0.42685872628771004
10
-7.0176012271545067
20
6.172901126312393
42
0.1440625669469727
10
-4.7178011811023577
20
5.5106897637795305
42
-0.41421356237309509
10
-4.6390610236220438
20
5.4319496062992156
10
-4.6390610236220438
20
5.3381110236220488
42
0.41421356237309681
10
-4.1666200787401548
20
4.865670078740159
10
-2.9328250629921238
20
4.8656700787401572
42
-0.41421356237309637
10
-2.8540849055118089
20
4.7869299212598415
10
-2.8540849055118134
20
2.0156976377952751
42
-0.41421356237309109
10
-2.9328250629921278
20
1.9369574803149612
10
-6.919057086614175
20
1.9369574803149667
42
-0.41421356237309509
0
ENDSEC
0
SECTION
2
OBJECTS
0
DICTIONARY
5
C
100
AcDbDictionary
3
ACAD_GROUP
350
D
3
ACAD_MLINESTYLE
350
17
0
DICTIONARY
5
D
100
AcDbDictionary
0
DICTIONARY
5
1A
330
C
100
AcDbDictionary
0
DICTIONARY
5
17
100
AcDbDictionary
0
ENDSEC
0
EOF
