<svg xmlns="http://www.w3.org/2000/svg" xmlns:xlink="http://www.w3.org/1999/xlink" width="612" height="792" viewBox="0 0 612 792">
  <defs>
    <clipPath id="clip-path">
      <rect x="43.77929" y="18.40928" width="484.66299" height="756.07599" style="fill: none"/>
    </clipPath>
  </defs>
  <title>MOONLANDER</title>
  <g id="Layer_1" data-name="Layer 1">
    <rect x="165.981" y="18.93848" width="283.46498" height="28.3465" style="fill: none;stroke: #000;stroke-linecap: square;stroke-miterlimit: 1.5"/>
    <rect x="165.981" y="18.93848" width="28.3465" height="28.3465" style="fill: none;stroke: #000;stroke-linecap: square;stroke-miterlimit: 1.5"/>
    <rect x="194.327" y="18.93848" width="28.3465" height="28.3465" style="fill: none;stroke: #000;stroke-linecap: square;stroke-miterlimit: 1.5"/>
    <rect x="222.589" y="18.93848" width="28.3465" height="28.3465" style="fill: none;stroke: #000;stroke-linecap: square;stroke-miterlimit: 1.5"/>
    <rect x="250.91" y="18.93848" width="28.3465" height="28.3465" style="fill: none;stroke: #000;stroke-linecap: square;stroke-miterlimit: 1.5"/>
    <rect x="279.25601" y="18.93848" width="28.3465" height="28.3465" style="fill: none;stroke: #000;stroke-linecap: square;stroke-miterlimit: 1.5"/>
    <rect x="307.603" y="18.93848" width="28.3465" height="28.3465" style="fill: none;stroke: #000;stroke-linecap: square;stroke-miterlimit: 1.5"/>
    <rect x="335.86401" y="18.93848" width="28.3465" height="28.3465" style="fill: none;stroke: #000;stroke-linecap: square;stroke-miterlimit: 1.5"/>
    <rect x="364.185" y="18.93848" width="28.3465" height="28.3465" style="fill: none;stroke: #000;stroke-linecap: square;stroke-miterlimit: 1.5"/>
    <rect x="392.53201" y="18.93848" width="28.3465" height="28.3465" style="fill: none;stroke: #000;stroke-linecap: square;stroke-miterlimit: 1.5"/>
    <rect x="420.853" y="18.93848" width="28.3465" height="28.3465" style="fill: none;stroke: #000;stroke-linecap: square;stroke-miterlimit: 1.5"/>
    <text transform="translate(433.97699 55.20099)" style="font-size: 12px;font-family: ArialMT, Arial">cm</text>
    <text transform="translate(177.265 37.42401)" style="font-size: 12px;font-family: ArialMT, Arial">1</text>
    <text transform="translate(205.299 37.42401)" style="font-size: 12px;font-family: ArialMT, Arial">2</text>
    <text transform="translate(233.446 37.34802)" style="font-size: 12px;font-family: ArialMT, Arial">3</text>
    <text transform="translate(261.95999 37.40601)" style="font-size: 12px;font-family: ArialMT, Arial">4</text>
    <text transform="translate(290.08401 37.27399)" style="font-size: 12px;font-family: ArialMT, Arial">5</text>
    <text transform="translate(318.48901 37.35101)" style="font-size: 12px;font-family: ArialMT, Arial">6</text>
    <text transform="translate(346.689 37.35101)" style="font-size: 12px;font-family: ArialMT, Arial">7</text>
    <text transform="translate(375.04199 37.35101)" style="font-size: 12px;font-family: ArialMT, Arial">8</text>
    <text transform="translate(403.383 37.35101)" style="font-size: 12px;font-family: ArialMT, Arial">9</text>
    <text transform="translate(427.98599 37.35101)" style="font-size: 12px;font-family: ArialMT, Arial">10</text>
  </g>
  <g id="Layer_2" data-name="Layer 2">
    <g style="clip-path: url(#clip-path)">
      <g>
        <path d="M517.35729,109.83888v.204m0-.204h-8.657m8.657,0,1.019.204.916.509.713.713.407,1.018v1.019l-.203,1.018-.611.815-.815.611-1.019.306h-.407m0-6.213v6.213m0-6.009h-8.657m8.657,0,1.12.203,1.019.611.611,1.019.204.509v.611l-.204,1.12-.611.917-1.019.611-1.12.306m0-5.907v5.907m0,.102v-.102m0,.102h-8.657m8.657-.102h-8.657m-390.79269-6.111v.204m0-.204h-8.657m8.657,0,1.019.204.917.509.713.713.407,1.018v1.019l-.306,1.018-.509.815-.916.611-.917.306h-.408m1-6.213v6.213m-1-6.009,1.121.203.916.611.713,1.019.102.509.102.611m-1.954-2.953,2.954,2.953m-3.954-2.953h-8.657m8.657,6.009v-.102m0,.102h-8.657m8.657-.102h-8.657m8.657,0,1.121-.306m389.6717.408v-.102m0,.102-1.019-.102-.916-.51-.713-.814-.408-.917v-1.12l.204-.917.611-.815.815-.611,1.019-.305.407-.102m0,6.213v-6.213m0,6.111-1.12-.306-.917-.611-.713-.917-.102-.611-.102-.509.204-1.12.713-1.019.917-.611,1.12-.203m0,5.907v-5.907m0-.204v.204m-399.4497,6.009v-.102m0,.102-1.018-.1019-.917-.51-.713-.814-.407-.9171-.102-1.12.306-.917.611-.815.814-.611,1.019-.305.407-.102m1,6.213v-6.213m-1,6.111-1.12-.306-1.018-.611-.612-.917-.203-.611v-.509m3.953,2.954-2.953-2.954m1.953-3.157v.204m0,0-1.12.203m-33.61,127.5144-4.685-.101-3.8702-.204-2.5462-.306-.9167-.305m12.0181.916-11.9162-.916h-.1019m12.0181.916h1.2222m-1.2222,0-2.9536-.101h-2.7499l-2.3425-.204-1.9351-.102-1.324-.204-.6111-.203-.1019-.102m12.0181.916-12.0181-.916m12.0181.916-.1018-1.324-.1019-1.018m.2037,2.342-.2037-2.342m-11.8144,1.426h-.1018l.4074.204.9166.203,1.6296.102,2.1388.204,2.4444.102h2.8517l2.9536.101m-13.2403-.916h26.4806m-26.4806,0-1.0185,3.055-.2037,3.158.4074,3.157,1.1204,2.953,1.7314,2.649,2.3425,2.24,2.6481,1.63,3.0554,1.018,3.1573.408m-13.2403-20.268,13.2403,20.268m-13.2403-20.268,2.1388-6.009,1.2222-5.907.713-5.602.4074-7.639.1018-6.518Zm26.4806,0h-.1018l-11.9163.916m12.0181-.916-.9166.305-2.5462.306-3.8703.204-4.685.101m12.0181-.916-.3055.204-.9167.203-1.6295.102-2.1389.204-2.4443.102h-2.8518l-2.9536.101m13.2403-.916-.1018.102-.713.203-1.2222.204-1.9351.102-2.34251.204H79.91859l-2.9536.101m12.0181-.916-12.0181.916m12.0181-.916,1.0185,3.055.20369,3.158-.40739,3.157-1.1203,2.953-1.7315,2.649-2.3425,2.24-2.648,1.63-3.0555,1.018-3.1573.408m13.2403-20.268-13.2403,20.268m13.2403-20.268-2.648-8.25-1.3241-8.25-.5092-7.842-.1019-7.333Zm-12.0181.916h-1.2222m1.2222,0,.1019-1.324v-1.018m-.1019,2.342.1019-2.342M92.446,121.55128v5.704m0-5.704-3.361,3.361-2.95359,3.667m6.31459-7.028-6.31459,7.028m6.31459-7.028h-.10189l-2.2407,1.121-2.1388,1.222-3.7684,3.259m8.24979-5.602-8.24979,5.602m8.24979-5.602-16.70319-.509m16.70319,6.213-1.62959.204-1.5277.509-1.3241.815-1.2221,1.018-1.01851,1.222-.713,1.426-.5092,1.528-.1019,1.528Zm0,0,3.05541-.102V98.83888l-19.7586-.713m-8.046.713v21.8984m0-21.8984h-.1019l-.1018.102h-.1019l-.3055.306v.305m.6111-.713-.6111.713m.6111-.713,8.046-.713m-8.046,22.6114v5.499m0-5.499h-.2037l-.1019-.102h-.1018l-.2037-.204v-.102m.6111.408-.6111-.408m.6111.408,3.5647.101,4.4813.204m-8.046-.305,8.046.305m81.98749,208.891.611.51m0,0,.713-.815m-.713.815-.102.101v.102h-.101v.102l-.102.102m.305-.407-.305.407m-19.75871-17.212.611.509m-.611-.509.713-.815m-.713.815-.102.101v.102h-.102v.102h-.101v.102m.305-.407-.305.407m.611.509-.611-.509m0,0-.204.204m20.2677,16.601-.611-.509m.611.509-.204.204m-42.9797-33.509-.306.408-.712.917-1.121,1.222-1.426,1.731-1.629,1.935-1.732,2.139-3.666,4.278-1.63,1.935-1.426,1.731-1.12,1.222-.7129.917-.3056.407m15.7865-18.842-15.7865,18.842m15.7865-18.842-1.018-.814m-14.76849,19.656-1.0185-.916m-1.12031-190.457v.204m0-.204v-.509m0,.509h.30551l.4074-.102.3056-.101m-1.01851.203,1.01851-.203m-1.01851.203.30551.102h.4074l.3056.102m-1.01851-.204,1.01851.204m-1.01851,0h1.01851m-1.01851,0h1.324m-1.324-24.3424v-.204m0,.204v.509m0-.509h.30551l.4074-.102m-.71291.102,1.01851-.102m-1.01851.102.30551.102.4074.102h.3056m-1.01851-.204,1.01851.204m-1.01851-.408h.30551l.4074.102m-.71291-.102,1.01851.102m-1.01851-.102h1.324m-1.324,23.8334.10181-.815m-.10181.815.30551-.102.4074-.204.3056-.101m-1.01851.407,1.01851-.407m-1.01851.407.30551.102.4074.102.3056.102m-1.01851-.306,1.01851.306m-.9167-22.5094-.10181-.815m0,0,.30551-.203.4074-.102.3056-.102m-1.01851.407,1.01851-.407m-1.01851.407.30551.102.4074.102.3056.204m-1.01851-.408,1.01851.408m-.9167,20.5734-.10181,1.12m0,0,.30551-.203.4074-.204.3056-.204m-1.01851.611,1.01851-.611m-1.01851.611.30551.204.4074.102.3056.204m-1.01851-.51,1.01851.51m-.9167-20.5744-.10181-1.222m0,0,.30551-.102.4074-.204.3056-.101m-1.01851.407,1.01851-.407m-1.01851.407.30551.204.4074.203.3056.204m-1.01851-.611,1.01851.611m-.9167,18.0274-.10181,1.426m0,0,.30551-.204.4074-.305.3056-.204m-1.01851.713,1.01851-.713m-1.01851.713.30551.204.4074.204.3056.203m-1.01851-.611,1.01851.611m-.9167-18.0274-.10181-1.426m0,0,.30551-.203.4074-.204.3056-.204m-1.01851.611,1.01851-.611m-1.01851.611.30551.306.4074.203.3056.306m-1.01851-.815,1.01851.815m23.4248-.407v-.102M97.131,119.31128l-.20371,1.527m0,0,.30551-.305.4074-.204.3056-.305m-1.01851.814,1.01851-.814m-1.01851.814.30551.306.4074.204.3056.305m-1.01851-.815,1.01851.815m-.8148-14.9714-.20371-1.63m0,0,.30551-.204.4074-.305.3056-.204m-1.01851.713,1.01851-.713m-1.01851.713.30551.305.4074.306.3056.306m-1.01851-.917,1.01851.917m-.713,11.508-.30551,1.6304m.30551-1.6304.4074.306.3056.407m-.713-.713-.30551-.305m0,1.9354.30551-.306.4074-.305.3056-.3064m-1.01851.9174,1.01851-.9174m-1.01851.9174.30551.306.4074.305.3056.306m-1.01851-.917,1.01851.917m-.713-11.5094-.30551-1.63m0,0,.30551-.305.4074-.306.3056-.305m-1.01851.916,1.01851-.916m-1.01851.916.30551.306.4074.305.3056.306m-1.01851-.917,1.01851.917m-.6111,2.648-.40741-1.63m0,0,.30551-.407.4074-.306.3056-.305m-1.01851,1.018,1.01851-1.018m-1.01851,1.018.30551.306.4074.305.3056.408m-1.01851-1.019,1.01851,1.019m-.6111,5.703-.40741,1.63m0,0,1.01851-1.019-1.01851-1.018m0,2.037,1.01851,1.018m-1.01851-3.055.40741-.917.6111-.611m-1.01851,1.528.30551-.407.4074-.306.3056-.407m-1.01851,1.12,1.01851-1.12m-.6111-2.343-.40741-.815m.40741.815.2037.306.4074.407Zm-.40741-.815.30551-.407.4074-.306.3056-.305m-1.01851,1.018,1.01851-1.018m-1.01851,1.018,1.01851,1.019m0,2.139-1.01851-1.019m0,0,.30551-.407.4074-.306.3056-.407m-1.01851,1.12,1.01851-1.12m0-11.102h-.3056m407.5971,21.6944v.102m0-.509v.101m-397.1067-11.9164-1.018.611-.612,1.019-.203,1.12m2.833-2.75-1.833,2.75m11.731,2.648.916-.611.713-.917.204-1.12m-.833,2.648,1.833-2.648m226.22371-18.944-.204-1.12.204-1.12.611-1.019m-.611,3.259.611.917,1.019.713m-1.63-1.63.611,1.019,1.019.611m-1.63-1.63-.306-1.12.306-1.222.611-.917m1.019,4.889,1.12.204,1.12-.204m0,0,1.019-.713.611-.917m-1.63,1.63,1.019-.611.611-1.019m0,0,.203-1.12-.203-1.12-.611-1.019m.611,3.259.305-1.12-.305-1.222-.611-.917m0,0-1.019-.611-1.12-.204m2.139.815-1.019-.713-1.12-.203-1.12.203-1.019.713m2.139-.815-1.12.204-1.019.611m2.139-.815,1.12.306m-1.12-.306-1.12.306M116.27858,293.67527l126.4957,106.228m128.125-305.85139.306-1.12-.306-1.222-.611-.917m.611,3.259-.611,1.019-1.019.611m1.63-1.63-.611.917-1.019.713m1.63-1.63.204-1.12-.204-1.12-.611-1.019m-1.019,4.889-1.12.204-1.12-.204m0,0-1.019-.611-.611-1.019m1.63,1.63-1.019-.713-.611-.917m0,0-.305-1.12.305-1.222.611-.917m-.611,3.259-.204-1.12.204-1.12.611-1.019m0,0,1.019-.713,1.12-.203,1.12.203,1.019.713m-4.278,0,1.019-.611,1.12-.204m2.139.815-1.019-.611-1.12-.204m0,0,1.12.306m-1.12-.306-1.12.306m21.184,3.768.306-1.12-.306-1.222-.611-.917m.611,3.259-.611,1.019-1.018.611m1.629-1.63-.611.917-1.018.713m1.629-1.63.204-1.12-.204-1.12-.611-1.019m-1.018,4.889-1.121.204-1.12-.204m0,0-1.019-.611-.611-1.019m1.63,1.63-1.019-.713-.611-.917m0,0-.305-1.12.305-1.222.611-.917m-.611,3.259-.203-1.12.203-1.12.611-1.019m0,0,1.019-.713,1.12-.203,1.121.203,1.018.713m-4.278,0,1.019-.611,1.12-.204m2.139.815-1.018-.611-1.121-.204m0,0,1.121.306m-1.121-.306-1.12.306m-160.513-23.527v-1.019h178.948v1.019m-178.948,0h-40.434m40.434,0h178.948m-178.948,0-.102,1.426m179.05-1.426h40.433m-40.433,0,.101,1.426m125.376,345.57241-.306,4.685-1.12,4.583-1.019,2.546Zm0,0h-1.019m1.019,0v-284.871m-1.019,284.871v-284.871m0,284.871h-1.426m1.426,0-.305,4.583-1.121,4.379-1.018,2.852Zm-204.715,11.61.102-.305.204-.815.203-.713.102-.611.204-.509.102-.306v-.204h.101v.204l-.101.306-.102.509-.102.611-.102.713-.204.815-.101.305Zm0,0h15.379m-14.768,0,1.222-4.685m0,0-.815-1.018m.815,1.018h4.685m124.765-5.805v3.259m0-3.259h-4.787m4.787,0,1.018-1.019m-131.283,5.806-1.425,5.703m1.425-5.703-1.222-1.528m1.222,1.528h11.509m-4.277,1.018h5.092m0,0-.815-1.018m.815,1.018,1.426-5.805m-2.241,4.787-1.12-1.528m1.12,1.528,1.426-5.806m.815,1.019-.815-1.019m.815,1.019h4.991m-5.806-1.019-1.12-1.527m1.12,1.527h118.348m-111.117,1.019h103.886m7.231-1.019v11.509m0-11.509,1.426-1.527m-195.651,2.24,12.833,10.796M128.19458,65.73788l-4.685.306-4.481,1.12-4.38,1.834-3.972,2.444-3.564,3.055-3.056,3.565-2.444,3.972-1.8335,4.38-1.12041,4.583-.3055,4.685m29.8414-29.944h55.09971l.102,1.019m-55.20171-1.019v1.019m-29.8414,28.925h.91661m-.91661,0v1.426m85.04311-30.351.102,1.426m-.102-1.426H128.19458m0,0-4.481.305-4.38,1.121-4.277,1.731-3.769,2.343-3.463,2.953-2.953,3.463-2.444,3.87-1.732,4.176-1.0184,4.38-.4074,4.583m28.92479-28.925v1.426m400.06072,28.925v-1.426m0,0h-1.019m1.019,0-.306-4.685-1.12-4.583-1.833-4.38-2.445-3.972-3.055-3.565-3.565-3.055-3.972-2.444-4.379-1.834-4.584-1.12-4.685-.306m28.925,29.944v1.426m0-1.426h-1.426m1.426,0-.305-4.583-1.121-4.38-1.731-4.176-2.342-3.87-2.954-3.463-3.463-2.953-3.87-2.343-4.176-1.731-4.379-1.121-4.584-.305m0-1.019v1.019m0-1.019h-54.998l-.102,1.019m0,0-.101,1.426m.101-1.426h55.1m0,0v1.426M99.26979,95.68188v1.426m0-1.426h1.5278m-2.44441,33.2024v150.329m124.7641,144.115.204-.305.611-.713,1.018-1.121,1.324-1.629,1.63-1.935,1.833-2.139,1.935-2.343m-8.555,10.185,8.555-10.185m-8.555,10.185.102,2.037m8.453-12.222,11.305-13.444m-11.305,13.444.611,1.324m-127.10669-107.45-1.935,2.343-1.833,2.139-1.6295,1.935-1.3241,1.629-1.0185,1.121-.6111.713-.2037.305m8.5549-10.185-8.5549,10.185m8.5549-10.185,11.306-13.444m-11.306,13.444-1.425-.407m-7.1299,10.592-2.0369.204m-16.1939-14.463.2037-.305.71289-.713.91671-1.222,1.4258-1.528,1.6296-1.935,1.8333-2.241m-6.722,7.944,6.722-7.944m-6.722,7.944.2037,1.936m6.5183-9.88,14.1569-16.907m-14.1569,16.907.3055.306.4074.305.3056.408m-1.0185-1.019,1.0185,1.019m160.81789,134.847-1.833,2.139-1.629,1.935-1.324,1.63-1.019,1.222-.611.713-.204.203m6.62-7.842-6.62,7.842m6.62-7.842-.814-.611-.306-.306m1.12.917-1.12-.917m1.12.917,14.259-17.009m-20.879,24.851-2.037.204m-152.1609-142.893-2.037,2.444-1.8333,2.139-1.5277,1.833-1.1203,1.324-.713.917-.3055.204m7.5368-8.861-7.5368,8.861m7.5368-8.861,14.6662-17.518m-14.6662,17.518,10.1848,6.314,6.82339,3.463.815.306m-17.8232-10.083,17.8232,10.083m-25.36-1.222,15.9902,12.527m0,0,.3055-.306.6111-.713,1.0185-1.324,1.4259-1.629,1.7314-2.037,1.9354-2.343,2.139-2.444m-9.1668,10.796,9.1668-10.796m0,0,.101-.306.102-.203m-.203.509.203-.509m12.528-12.528-.204-2.138m.204,2.138,126.49469,106.126m-139.02269-93.598,12.324-14.666m116.0047,123.032-2.037,2.445-1.935,2.342-1.731,2.037-1.426,1.732-1.019,1.222-.713.815-.203.305m9.064-10.898-9.064,10.898m9.064-10.898.204-.203.204-.102m-.408.305.408-.305m-9.472,11.203,15.073,13.546m0,0,.204-.305.713-.815,1.12-1.426,1.528-1.732,1.833-2.24,2.139-2.445m-7.537,8.963,7.537-8.963m0,0-4.074-4.379-3.565-4.074-2.342-2.75-1.426-1.935-1.018-1.426-.51-.917-.203-.305m13.138,15.786-13.138-15.786m13.138,15.786,15.176-18.129m267.352-289.555v6.62h-1.426m1.426-6.62-1.426.51m1.426-.51v-18.5364m-1.426,25.1564h-1.121v284.871m1.121-284.871v-6.11m-428.68-19.0464v-6.62h1.4259m-1.4259,6.62,1.4259-.509m-1.4259.509v18.5364m1.4259-25.1564h1.1204v-1.426m-1.1204,1.426v6.111m222.64009,314.9154-1.731,7.231m1.731-7.231h11.611m16.907-330.9064-1.935.306-1.732,1.019-1.324,1.527-.611,1.834v2.036l.611,1.834m5.991,2.851,0-11.407-1,0v-.101m0,.101h34.628m-39.619,8.556,1.324,1.527,1.732,1.019m-3.056-2.546-.713-1.834v-2.036l.713-1.936,1.222-1.527,1.834-1.019,1.935-.305m-4.991,8.657,1.222,1.527,1.834,1.019m0,0,1.935.305m0,0h34.628m-34.628-11.508,0,11.508,0-11.508h34.628m0,.101v-.101m0,.101,1.935.306,1.732,1.019,1.324,1.527.611,1.834v2.036l-.611,1.834m-2.852,1.37183,0-11.407-2.139,1.37816,1.935.305,1.834,1.019,1.222,1.527.713,1.936v2.036l-.713,1.834m-4.991,2.851,0-11.508,0,11.508,1.935-.305m0,0,1.732-1.019,1.324-1.527m-3.056,2.546,1.834-1.019,1.222-1.527m137.903,7.944v-6.62h-1.426m1.426,6.62-1.426-.509m0-6.111v6.111m0-6.111h-1.121v-1.426m0,0-.407-4.278-.917-4.277-1.731-3.972-2.241-3.667-2.75-3.259-3.259-2.75-3.666-2.241-3.972-1.629-4.176-1.019-4.38-.407m-55.201,0h55.201m-55.201,0h-40.231m-159.902,331.51641,2.037-.305m-12.323,14.768,12.323-14.768m-145.7445-121.302v-149.208m0,149.208,1.5278.408m144.2167,120.894-128.73571-107.959m217.64969,126.699,1.426-5.805m120.894,0H335.3543m120.894,0v13.036m-53.369-357.18239h-179.151m0,0h-40.23m91.46,357.18239-13.75-11.509m0,0-.203-2.037m264.805,1.936-.407,4.379-.917,4.176-1.324,3.055Zm-426.1331-284.871h1.1204v149.616m-1.1204-149.616v-6.11m0,6.11h-1.4259v-6.62m162.754,289.555,16.295,13.546m249.631-302.591h-21.694m21.694,0v-19.5554m0,0h-21.694m-321.739-35.036h-55.3037m-27.397,27.499.305-4.278,1.019-4.277,1.63-3.972,2.342-3.667,2.75-3.259,3.259-2.75,3.667-2.241,3.972-1.629,4.176-1.019,4.277-.407m-28.51739,35.036h21.6934m-21.6934,0v19.5554m-1.4259-.51,1.4259.51m0,0h21.6934m122.5237,280.286,13.24,11.102m-13.24-11.102,2.241-2.648m-2.241,2.648.407-.407.102-.204.408-.407m-.917,1.018.917-1.018m12.323,12.12,2.241-2.648m-2.241,2.648.102-.102.102-.204.306-.305.101-.204.204-.204m-.815,1.019.815-1.019m-13.138-11.101,13.138,11.101m-13.138-11.101.509-.611m12.629,11.712.509-.712m-145.4387-119.265,2.24-2.648m-2.24,2.648-13.3424-11.101m13.3424,11.101v-.102l.305-.305.102-.204.408-.407m-.815,1.018.815-1.018m1.425-1.63-.101.102-.204.102-.102.203-.407.408-.102.203m.916-1.018-.916,1.018m.916-1.018-13.342-11.102m11.917,12.732.509-.612m-.509.612-13.241-11.102m13.75,10.49-13.139-11.101m158.17069,131.079-.917.917m.917-.917-13.24-11.102m12.323,12.019-13.138-11m-143.4027-122.015v.102l-.305.306-.102.204-.204.203-.102.204m.713-1.019-.713,1.019m.713-1.019-2.2404,2.649m1.5274-1.63-.611.611m-.9164,1.019.1019-.102.2036-.102.1019-.204.407-.407.102-.204m-.9164,1.019.9164-1.019m145.5417,119.366-.204.204-.102.204-.204.203-.101.204-.204.204m.815-1.019-.815,1.019m-123.9497-278.657v-19.5554m0,19.5554h.611l2.954-.713,2.75-1.834,2.037-2.7504.917-3.361-.204-3.361-1.324-3.259-2.037-2.24-2.648-1.528-3.056-.509m383.8667,0v19.5554m0-19.5554h-.611l-2.954.713-2.75,1.833-2.037,2.75-.916,3.259.204,3.463,1.222,3.157,2.139,2.3434,2.648,1.527,3.055.51m-398.4307,184.04v-.51l-.102-.509v-.509m.102,1.528-.102-1.528m.102,1.528-.509.102h-.509l-.51.101m1.528-.203-1.528.203m1.426-1.731h1.019l.407-.102m-1.426.102,1.426-.102m-2.852,1.833.102.408v.509l.102.509m-.204-1.426.204,1.426m8.352-11.61.611.407.203.204m-.814-.611.814.611m-.814-.611.305.203.204.306.203.203m-.712-.712.712.712m.102-.101.306.203m-.408-.102-.305-.101-.611-.408m.916.509-.916-.509m0,0,.407.611.204.408m-.611-1.019.611,1.019m0,0-.407-.204-.306-.102-.407-.102m1.12.408-1.12-.408m0,0,.203.306.204.407.102.306m-.509-1.019.509,1.019m0,0-.408-.102h-.407l-.407-.102m1.222.204-1.222-.204m0,0,.203.408.204.814m-.407-1.222.407,1.222m0,0-.407-.102h-.408l-.407-.101m1.222.203-1.222-.203m0,0,.102.407.102.509.101.408m-.305-1.324.305,1.324m0,0h-1.425m0,0,.101.407.102.509.102.408m-.305-1.324.305,1.324m0,0h-1.018l-.408.102m1.426-.102-1.426.102m0,0v.407l.204,1.018m-.204-1.425.204,1.425m0,0h-1.019l-.509.102m1.528-.102-1.528.102m0,0,.102.408v1.018m-.102-1.426.102,1.426m-2.648,3.259-.509.102h-1.019m1.528-.102-1.528.102m0,0v.509l.204,1.019m-.204-1.528.204,1.528m0,0h-1.019l-.509.102m1.528-.102-1.528.102m0,0,.102.407.102.509v.408m-.204-1.324.204,1.324m0,0h-1.324m0,0v.509l.102.407.102.51m-.204-1.426.204,1.426m0,0-.408-.102h-.916m1.324.102-1.324-.102m0,0,.203.815.204.407m-.407-1.222.407,1.222m0,0-.407-.102h-.4079l-.4073-.102m1.2222.204-1.2222-.204m0,0,.2037.815.2036.306m-.4073-1.121.4073,1.121m0,0-.81471-.204-.30559-.102m1.1203.306-1.1203-.306m0,0,.2037.407.10189.306.20371.306m-.5093-1.019.5093,1.019m0,0-.3056-.102-.40741-.204-.3055-.102m1.01851.408-1.01851-.408m0,0,.20371.306.3055.203.2037.306m-.71291-.815.71291.815m0,0-.9166-.611m0,0,.20369.305.3055.204.30561.306m-.8148-.815.8148.815m0,0,.20369.101m16.70361-19.962.407-.407,2.037-.204m-2.444.611v.102h-.102v.102l-.102.204-.204.101-.102.204-.203.204-.204.305m.917-1.222-.917,1.222m.917-1.222,2.036-.102m.408-.509,1.12.917m-1.12-.917-.408.509m122.2187,104.395.407-.407-.102-2.139m-.305,2.546v.102l-.408.407-.102.204-.407.407m.917-1.12-.917,1.12m.917-1.12-.102-2.037m.407-.509-1.12-.917m1.12.917-.407.509m-.713-1.426-.815.204m.815-.204.204-.204m.509,1.63-1.528-1.222m1.528,1.222-.204.204-.102.203-.611.611-.204.306m1.121-1.324-1.121,1.324m-102.35669-88.099.102-.713-13.852-11.712m13.75,12.425-.102.102-.204.306-.305.407m.611-.815-.611.815m.611-.815-14.565-12.222m.815-.203-.815.203m.815-.203.102-.204m36.7667,31.878h-.203m.203,0,61.822,51.841.51-.203,13.953,11.712m-76.285-63.35v-.101m-.203.101,76.488,64.165m-76.488-64.165h-.204l-.204.306-.407.306m.815-.612-.815.612m77.303,62.738.204-.204m-.204.204v.815m-116.5147-98.589.204-.204m-.204.204v.814m-1.528-1.222,1.528,1.222m-1.528-1.222-.305.306-.102.204-.204.203-.203.306-.306.203m1.12-1.222-1.12,1.222m122.11569,99.405-2.546-2.139m2.546,2.139.204-.204m-.204.204-.305.305-.306.204m.611-.509-.611.509m-1.935-2.648-.203.407-.204.306m.407-.713-.407.713m.407-.713.102-.204m-116.61569-97.571,2.546,2.139m-2.546-2.139.101-.203m-.101.203-.102.102-.102.306-.204.305m.408-.713-.408.713m2.954,1.426.204-.204m-.204.204-.306.306-.305.203m.611-.509-.611.509m116.7177,97.775-1.222,1.222m-1.324-3.361-.102.204-.407.509-.51.713m1.019-1.426-1.019,1.426m-76.284-64.979-22.71169-19.046m-13.954-13.037-.203.204-.408.306-.611.712m1.222-1.222-1.222,1.222m-1.324-3.361-.102.204-.407.509-.509.713m1.018-1.426-1.018,1.426m120.7917,102.867-.306-1.833m.306,1.833-.713.815-1.63,2.037-1.018,1.222-1.12,1.222-1.121,1.426-1.12,1.324-1.222,1.426m7.944-9.472-7.944,9.472m7.638-11.305-1.629-1.324m1.629,1.324-.814.917-.815,1.018-1.019,1.222-1.12,1.222-1.12,1.426-1.222,1.528-2.649,3.056m8.759-10.389-8.759,10.389m-115.1897-112.747,1.833-.102m-1.833.102-.713.815-.815.917-.916,1.018-.917,1.222-3.361,3.973-1.222,1.425m7.944-9.37-7.944,9.37m9.777-9.472,1.63,1.426m-1.63-1.426-.713.917-1.833,2.241-1.12,1.324-2.445,2.852-1.222,1.527-1.324,1.528m8.657-10.389-8.657,10.389m-12.1199,12.222-20.166-15.787m20.166,15.787,10.9999-13.139m-10.9999,13.139.2037,2.037m-.2037-2.037-19.4531-15.074m-.7129-.713.7129.713m-.7129-.713-4.3795,5.195m167.84609,131.995-19.046-17.11m19.046,17.11-4.176,5.093m4.176-5.093-.815-.611m-18.231-16.499,11-13.139m-11,13.139-2.037.203m2.037-.203,18.231,16.499m-193.40993,28.721-.4074,2.852m0,0,1.0185.102m-1.0185-.102-.4073,3.768.1018,3.871.6111,3.87,1.1203,3.667,1.6296,3.564,2.037,3.361,2.3425,2.954,2.85174,2.648m16.4995-190.66-.5093,2.851m.5093-2.851.9166.509m162.7535,136.579-96.7557,89.423m96.7557-89.423-.815-.713m4.176-4.991-2.037.102m2.037-.102-4.176,4.991m-95.9407,90.136-3.768,2.953-4.176,2.343-4.583,1.629-4.685.917-4.787.102-4.787-.611-4.583-1.426-4.278-2.139-3.8702-2.75m39.5172-1.018-.713-.713m96.65371-89.423-96.65371,89.423m96.65371-89.423-1.018-1.019m-187.60483,27.703-.4074,3.768.1019,3.667.6111,3.768,1.1203,3.565,1.5277,3.463,1.9352,3.157,2.3425,2.852,2.648,2.648m-9.87934-26.888,1.4259.305m-1.4259-.305.5093-3.056m8.75894,30.657.6111-.713m-.6111.713,43.8967,36.869m-22.3048-232.011.3056,2.037m-.3056-2.037-4.1758,4.991m0,0-.4074,2.75m.4074-2.75,1.4259.611m-18.2309,188.827,43.89669,36.767m-43.89669-36.767,1.0185-1.12m42.2671,38.702.61109-.815m0,0,.91711-1.12m-.91711,1.12,3.76811,2.75,4.176,2.037,4.38,1.324,4.685.611,4.583-.102,4.583-.814,4.379-1.63,4.074-2.241,3.565-2.851m0,0-1.018-1.121m-29.638-227.224,1.12.917m-51.5353,190.457-2.5462-2.445-2.24074-2.852-1.8332-2.953-1.5278-3.259-1.0184-3.463-.5093-3.463-.1018-3.565.3055-3.463m9.47194,25.463,43.7953,36.767m130.87469-123.848-1.121-.916m-133.9299-88.201,11.9162-14.259m-11.9162,14.259-19.3512-15.074m41.55439-8.148-1.222,1.528-1.528,1.833-1.732,2.241-2.037,2.343-2.037,2.546m8.556-10.491-8.556,10.491m-62.73823,163.466,1.9351-11.814m188.21583-62.433-1.324,1.426-1.63,1.833-1.833,2.139-1.935,2.342-2.139,2.445m8.861-10.185-8.861,10.185m1.731,1.528-11.916,14.258m11.916-14.258-1.731-1.528m-120.2827-100.932,1.731,1.528m-36.05389,1.222,3.0555-3.565m-3.0555,3.565-1.8333,11.101m162.95689,74.961-114.17169-95.84m114.17169,95.84-1.222,1.528-1.528,1.935-1.731,2.139-1.935,2.342-2.139,2.546m8.555-10.49-8.555,10.49m-105.6167-106.33-1.324,1.426-1.629,1.834-1.834,2.138-1.935,2.343-2.139,2.444m8.861-10.185-8.861,10.185m106.3297,113.561,18.231,16.398m-99.81069,93.191-3.463,2.75-3.769,2.139-4.175,1.528-4.278.71295-4.481.203-4.278-.611-4.278-1.324-3.87-1.935-3.666-2.546m36.258-.91705,96.65369-89.321m3.157-3.87-3.157,3.87m-121.40369-133.829,114.4777,96.145m-114.4777-96.145-.203.306m114.68071,95.839-.204.204m-116.31071-97.978-.203.203m118.7547,99.201-.204.305m-116.5137-97.774-2.037-1.732m2.037,1.732.611-.917m-2.648-.815.815-.814m8.962-11.102,2.343,1.935m-2.343-1.935-2.546,3.463m4.889-1.528-2.954,3.158m119.4677,94.617-2.342-1.935m2.342,1.935-2.953,3.157m.611-5.092-2.546,3.463m-5.195,10.184-2.037-1.731m2.037,1.731.713-.916m-2.75-.815.815-.815m8.352-6.009-1.935-1.629m1.935,1.629h-.102v.102h-.102v.102l-.306.305m.51-.509-.51.509m-1.425-2.138-.102.101v.102h-.102l-.102.102v.102l-.102.102m.408-.509-.408.509m1.833,1.629-5.499,6.62m5.499-6.62-1.833-1.629m-4.074,8.759v-.102h.102v-.102l.306-.306m-.408.51.408-.51m-.408.51-1.935-1.63m6.009-7.129-5.601,6.62m-.408.509v-.102h.102l.102-.102v-.101l.204-.204m-.408.509.408-.509m1.935,1.629-1.935-1.629m-116.9217-97.265v-.102h.101l.102-.102v-.102l.204-.204m-.407.51.407-.51m-.407.51,1.833,1.629m4.583-9.268-.102.102v.102h-.102l-.203.203v.102m.407-.509-.407.509m.407-.509,1.935,1.63m0,0h-.102v.101h-.102v.102l-.305.306m.509-.509-.509.509m-6.009,7.129h.102v-.102h.102v-.101l.305-.306m-.509.509.509-.509m-1.935-1.63,5.602-6.62m-5.602,6.62,1.935,1.63m3.667-8.25,1.833,1.63m0,0-5.5,6.62m46.74769,20.472-1.018,1.222m1.018-1.222,62.026,52.044m-62.026-52.044.102.611m61.924,51.433-.305.306m.305-.306h-.713l-61.211-51.433m211.336-238.12239-.204-1.12-.611-.917-.917-.611m1.732,2.648-.204,1.12-.611.917m.815-2.037-.204,1.018-.611,1.019m-.917-4.685-1.12-.204-1.12.204m0,0-.917.611-.611.917-.204,1.12m0,0,.204,1.12.611.917m-.815-2.037.204,1.018.611,1.019m0,0,.917.611,1.12.204,1.12-.204.917-.611m-16.499-2.037-.204-1.12-.611-.917-.917-.611m1.732,2.648-.204,1.12-.611.917m.815-2.037-.204,1.018-.611,1.019m-.917-4.685-1.12-.204-1.12.204m0,0-.917.611-.611.917-.204,1.12m0,0,.204,1.12.611.917m-.815-2.037.204,1.018.611,1.019m0,0,.917.611,1.12.204,1.12-.204.917-.611m35.443-2.037-.204-1.12-.611-.917-.916-.611m1.731,2.648-.204,1.12-.611.917m.815-2.037-.204,1.018-.611,1.019m-.916-4.685-1.121-.204-1.12.204m0,0-.917.611-.611.917-.203,1.12m0,0,.203,1.12.611.917m-.814-2.037.203,1.018.611,1.019m0,0,.917.611,1.12.204,1.121-.204.916-.611m-49.6,329.88739v-9.574h4.38m-4.38,9.574v.509m0-.509h4.38m111.116,0v-9.574h-4.379m4.379,9.574v.509m0-.509h-4.379m-105.312,0v-10.287h-1.425v10.287m1.425,0h-1.425m1.425,0h103.886m0,0v-10.287h1.426v10.287m-1.426,0h1.426m4.379.509h70.581m-70.581,0h-115.496m0,0h-70.785m227.632,271.12-3.667,11.407-4.99,10.796-6.111,10.185-7.333,9.472-8.352,8.55506-9.268,7.639-9.981,6.417-10.694,5.296-11.306,3.972-11.305,2.75-11.611,1.324-11.712.101-11.407-1.12-11.203-2.444-10.898-3.565-10.389-4.685-9.777-5.907-9.065-6.824-10.999-10.694-9.269-12.222m189.337-30.453,10.185-42.572,8.453-43.285,6.518-43.693,4.583-43.082,2.75-43.286.917-43.489m-33.406,259.407,33.406-259.407m-222.743,289.86-2.342-3.666-2.139-3.871-2.546-5.092m7.027,12.629-7.027-12.629m7.027,12.629-.101-35.239-1.63-35.341-3.157-35.03595-4.583-34.934-5.398-30.86-6.519-30.657-7.638-30.249-8.861-29.943m37.887,262.259-37.887-262.259m-8.963-27.703.102-3.565.917-3.259,1.527-2.241m-2.546,9.065,2.546-9.065m-2.546,9.065v5.092m0-5.092h.815l.815.102h6.925m-8.555-.102,8.555.102m-6.009-9.167.611-.611.612-.509.814-.407.713-.306.815-.305.815-.204,1.629-.204m-6.009,2.546,6.009-2.546m0,0v11.713m0,0h261.038m-261.038,0,.102,14.36.306,13.241m-.408-27.601.408,27.601m260.63-27.601v-9.065m0,0-.306-1.324-.916-.814-1.528-.408-1.426-.102m4.176,2.648-4.176-2.648m-265.417,16.703v9.269l.306,14.462m-.306-23.731.306,23.731m0,0h.509l1.426-.102,2.139-.305,2.648-.408,1.935-.305m-8.657,1.12,8.657-1.12m-8.657,1.12,8.962,29.944,7.741,30.249,6.416,30.249,5.296,30.35,4.176,30.046,2.852,30.045,1.833,29.74.713,29.637m-37.989-240.26,37.989,240.26m1.528,8.25-1.426-5.5-.102-2.75m1.528,8.25-1.528-8.25m-221.1125-468.299v-31.878m21.0826-97.36741v.102m-.1018,8.86.1018.408-.3055.305m.3055,1.4264v.51l-.2037.101m.2037-.611-.3055-1.9354m.3055,1.9354-.8147.611-.3056.408m1.1203-1.019-1.1203,1.019m1.1203-1.019-.4073-.407-.4074-.306-.3056-.407m1.1203,1.12-1.1203-1.12m1.1203-12.1203-.2037,1.426m.2037,14.1573v-.306m0-17.3143-.2037,1.324.2037-1.7311m0,19.7584v-.407m0,0-.2037-1.528m.2037,1.528-.4073.305-.4074.204-.3056.204m1.1203-.713-1.1203.713m1.1203-.713-.4073-.306-.4074-.203-.3056-.306m1.1203.815-1.1203-.815m1.1203-19.8603-.1018,1.222.1018-1.5281m0,22.7124v-.305m0,0-.1018-1.324m.1018,1.324-.8147.407-.3056.204m1.1203-.611-1.1203.611m1.1203-.611-.8147-.408-.3056-.305m1.1203.713-1.1203-.713m1.1203-22.7124-.1018.916.1018-1.222m0,24.9534v-.204m0,0-.1018-1.018m.1018,1.018-.4073.204-.4074.102-.3056.102m1.1203-.408-1.1203.408m1.1203-.408-.4073-.102-.4074-.203-.3056-.102m1.1203.407-1.1203-.407m1.1203-25.1574v.713m0,25.6664v-.102m0,0v.204m0-.204v-.611m0,.611-.4073.102h-.4074l-.3056.102m1.1203-.204-1.1203.204m1.1203-.204-.8147-.204-.3056-.101m1.1203.305-1.1203-.305m1.1203-26.5834v.408m0,0v-.51m0,.51-.1018.916m.1018-.916-.4073.203-.4074.102-.3056.204m1.1203-.509-1.1203.509m1.1203-.509-.8147-.204-.3056-.102m1.1203.306-1.1203-.306m1.1203-.204v-.203h-1.1203m1.1203.203h-.4073l-.4074.102-.3056.102m1.1203-.204-1.1203.204m1.1203-.204-.4073-.102h-.4074l-.3056-.101m1.1203.203-1.1203-.203m1.1203,27.3974h-1.324m1.324,0h-1.1203m-21.3882,108.774-.1018-1.019-.1019-.509-.2037-1.222-.7129-2.342-1.2222-3.26-2.4443-6.212-1.4259-5.195-.8148-5.398-.2037-4.583m7.2312,29.74-7.2312-29.74m7.2312,29.74v-.509l-.1018-.408v-.611l-.1019-.203v-.408l-.1018-.713-.1019-.407-.4073-1.833-.713-3.361-1.324-6.315-1.5277-10.389-.2037-4.379m4.5831,29.536-4.5831-29.536m7.3331,29.536.1018-.102v-.305l.1018-.917.30559-1.935.3055-1.324,1.22221-5.602,1.7314-9.574.713-4.888.2037-4.889m-4.685,29.536,4.685-29.536m-4.685,29.536.3055-1.528.20369-1.222.3055-1.222.40741-1.12v-.204l.5093-1.324.7129-1.732.30559-.814,2.13881-5.398,1.4259-5.195.8147-5.398.2037-4.583m-7.333,29.74,7.333-29.74m-8.6571.204h-6.009m6.009,0v-79.34m0,79.34h6.0091m0,0h1.0185l.9166-.102h.5092l.2037-.102m-2.648.204,2.648-.204m-2.648.204v-71.192m2.648,70.988v-71.192m-17.3142,71.192v-79.442m0,79.442.2037.102h.5092l.9167.102h1.0185m-2.6481-.204,2.6481.204m0,0-.8148-35.036-.8148-22.305-.4074-22.305m2.037,79.646-2.037-79.646m29.1286-25.2584-.8147.407-.3056.204m1.1203-.611-1.1203.611m1.1203-.611-.8147-.407-.3056-.102m1.1203.509-1.1203-.509m1.1203,1.833-.4073.204-.4074.305-.3056.306m1.1203-.815-1.1203.815m1.1203-.815-.4073-.306-.4074-.203-.3056-.204m1.1203.713-1.1203-.713m-11.3052,32.8974v.102h-.4074l-.3055.102h-1.9351m2.648-.204-2.648.204m2.648-.204.5093-3.361,1.2222-2.546m-1.7315,5.907,1.7315-5.907m-19.0457-2.343v-5.907m0,5.907h.6111m0,0,3.5647.102,4.4813.204m-8.046-.306,8.046.306m6.0091,8.148.7129-4.278,1.7314-3.259m-2.4443,7.537,2.4443-7.537m0,0,.3056.204.3055.305.6111.408.30559.102.40741.407m-1.9352-1.426,1.9352,1.426m-1.9352-1.426-4.2776-.305-4.1758-.306m8.4534.611-8.4534-.611m0,0v-5.5m21.0826-17.1104-.8147.611-.3056.305m1.1203-.916-1.1203.916m1.1203-.916-.8147-.611-.3056-.204m1.1203.815-1.1203-.815m1.1203,18.4344-.2037-1.731m.2037,1.731-.8147.611-.3056.306m1.1203-.917-1.1203.917m1.1203-.917-.8147-.611-.3056-.305m1.1203.916-1.1203-.916m-28.6194-.306V99.55188m29.7397,6.315-.3055,1.833m.3055-1.833-.4073.305-.713.713m1.1203-1.018-1.1203,1.018m1.1203-1.018-.4073-.306-.713-.713m1.1203,1.019-1.1203-1.019m-19.9623,16.1944V98.12588m21.0826,9.88-.4073,1.833m.4073-1.833-.4073.407-.4074.305-.3056.408m1.1203-1.12-1.1203,1.12m1.1203-1.12-.4073-.408-.4074-.305-.3056-.408m1.1203,1.121-1.1203-1.121m1.1203,10.491-.5092-1.834m.5092,1.834-1.1203,1.1204m1.1203-1.1204-.4073-.408-.4074-.305-.3056-.408m1.1203,1.121-1.1203-1.121m1.1203-1.222-.5092-.917m.5092.917-.8147.815-.3056.407m1.1203-1.222-1.1203,1.222m1.1203-1.222-.4073-.407-.4074-.306-.3056-.407m1.1203,1.12-1.1203-1.12m.6111.203-.4074-.407-.2037-.305Zm-.3055-2.24.3055-.306.5092-1.222m-.8147,1.528.8147.815m-.8147-.815-.3056-.408m1.1203-1.12-.4073.306-.4074.407-.3056.407m1.1203-1.12-1.1203,1.12m1.1203-1.12-.8147-.815-.3056-.407m1.1203,1.222-1.1203-1.222m0,4.787.3056-.408.8147-.814m-1.1203,1.222,1.1203-1.222m0,0-1.1203-1.223M64.74319,287.76829l.4074-.407.7129-.815,1.1204-1.324,1.4258-1.732,1.6296-1.935,1.8333-2.139,1.8333-2.24,1.7314-2.139,1.7314-2.037,1.4259-1.63,1.0185-1.324.81469-.916.30561-.408m-15.9902,19.046,15.9902-19.046m-15.9902,19.046.1018,1.222m15.8884-20.268,1.2222-.101m0,0-.2037.305-.6111.713-1.01851,1.222-1.42589,1.63-1.5277,1.935-1.8333,2.139-3.8702,4.481-1.7314,2.139-1.6296,1.935-1.324,1.63-1.0185,1.222-.713.815-.2037.203m17.1106-20.369-17.1106,20.369m17.1106-20.369,14.15689,11.916m-31.26749,8.453,14.157,11.916m0,0,.20371-.305.7129-.713,1.01849-1.222,1.324-1.63,1.6296-1.935,1.7314-2.139,3.8703-4.481,1.7314-2.241,1.6296-1.935,1.4258-1.528,1.01849-1.222.61111-.815.20369-.203m-17.1105,20.369,17.1105-20.369m-17.1105,20.369,1.22221-.101m15.88829-20.268.10191,1.222m-30.249-182.1054H47.429m18.53644,0,.5092.611-.5092-.509m0-.102.8148.917v24.8514l-.8148.814M47.429,99.65388l-.5093.611.5093-.509m0-.102-.8148.917v24.8514l.8148.814m18.53644,0H47.429m18.53644,0,.5092-.509-.5092.408m-18.53644.101-.5093-.509.5093.408m18.53644-26.3794H47.429m18.53644,0v.102m-18.53644-.102v.102m0,26.2774H65.96539m-18.53644,0-.5093-.51.5093.408m18.53644.102.5092-.51-.5092.408M47.429,99.85788H65.96539m-18.53644,0-.5093.509.5093-.407m18.53644-.102.5092.509-.5092-.407M47.429,126.03328H65.96539m-18.53644,0-.5093-.611.5093.509m18.53644.102.5092-.611-.5092.509m0-25.9714H47.429m18.53644,0,.5092.611-.5092-.51m-18.53644-.101-.5093.611.5093-.51m0,25.8704H65.96539m-18.53644,0v-.102m18.53644.102v-.102m0,0H47.429m18.53644,0,.5092-.611-.5092.407m-18.53644.204-.5093-.611.5093.407m18.53644-25.5644H47.429m18.53644,0v.102m-18.53644-.102v.102m0,0H65.96539m-18.53644,0-.5093.611.5093-.407m18.53644-.204.5092.611-.5092-.407M47.429,125.62528H65.96539m-18.53644,0-.5093-.611.5093.408m18.53644.203.5092-.611-.5092.408m0-25.0554H47.429m18.53644,0,.5092.611-.5092-.407m-18.53644-.204-.5093.611.5093-.407m0,24.8514H65.96539m-18.53644,0v-.102m18.53644.102v-.102m0,0H47.429m18.53644,0,.5092-.611-.5092.407m-18.53644.204-.5093-.611.5093.407m18.53644-24.5454H47.429m18.53644,0v.101m-18.53644-.101v.101m0,0H65.96539m-18.53644,0-.5093.612.5093-.306m18.53644-.306.5092.612-.5092-.306M47.429,125.11628H65.96539m-18.53644,0v-.102m18.53644.102v-.102m0,0H47.429m18.53644,0,.5092-.611-.5092.306m-18.53644.305-.5093-.611.5093.306m18.53644-23.7314H47.429m18.53644,0v.102m-18.53644-.102v.102m0,0H65.96539m-18.53644,0-.5093.611.5093-.407m18.53644-.204.5092.611-.5092-.407M47.429,124.70928H65.96539m-18.53644,0v-.102m18.53644.102v-.102m0,0H47.429m18.53644,0,.5092-.611-.5092.305m-18.53644.306-.5093-.611.5093.305m18.53644-23.0174H47.429m18.53644,0v.203m-18.53644-.203v.203m0,0H65.96539m-18.53644,0-.5093.509.5093-.203m18.53644-.306.5092.509-.5092-.203M47.429,124.30128H65.96539m-18.53644,0v-.102m18.53644.102v-.102m0,0H47.429m18.53644,0,.5092-.611-.5092.204m-18.53644.407-.5093-.611.5093.204m18.53644-21.9994H47.429m18.53644,0v.102m-18.53644-.102v.102m0,0H65.96539m-18.53644,0-.5093.611.5093-.306m18.53644-.305.5092.611-.5092-.306M47.429,123.79228H65.96539m-18.53644,0v-.102m18.53644.102v-.102m0,0H47.429m18.53644,0,.5092-.611-.5092.306m-18.53644.305-.5093-.611.5093.306m18.53644-21.1854H47.429m18.53644,0v.102m-18.53644-.102v.102m0,0H65.96539m-18.53644,0-.5093.611.5093-.204m18.53644-.407.5092.611-.5092-.204M47.429,123.38528H65.96539m-18.53644,0v-.204m18.53644.204v-.204m0,0H47.429m18.53644,0,.5092-.611-.5092.204m-18.53644.407-.5093-.611.5093.204m18.53644-20.0654H47.429m18.53644,0v.204m-18.53644-.204v.204m0,0H65.96539m-18.53644,0-.5093.509.5093-.101m18.53644-.408.5092.509-.5092-.101M47.429,122.77428H65.96539m-18.53644,0v-.102m18.53644.102v-.102m0,0H47.429m18.53644,0,.5092-.611-.5092.203m-18.53644.408-.5093-.611.5093.203m18.53644-18.9434H47.429m18.53644,0v.101m-18.53644-.101v.101m0,0H65.96539m-18.53644,0-.5093.611.5093-.203m18.53644-.408.5092.611-.5092-.203M47.429,122.26428H65.96539m-18.53644,0v-.203m18.53644.203v-.203m0,0H47.429m18.53644,0,.5092-.611-.5092.101m-18.53644.51-.5093-.611.5093.101m18.53644-17.7214H47.429m18.53644,0v.203m-18.53644-.203v.203m0,0H65.96539m-18.53644,0-.5093.612.5093-.204m18.53644-.408.5092.612-.5092-.204M47.429,121.55128H65.96539m-18.53644,0v-.101m18.53644.101v-.101m0,0H47.429m18.53644,0,.5092-.612-.5092.102m-18.53644.51-.5093-.612.5093.102m18.53644-16.4994H47.429m18.53644,0v.204m-18.53644-.204v.204m0,0H65.96539m-18.53644,0-.5093.611.5093-.102m18.53644-.509.5092.611-.5092-.102M47.429,120.94028H65.96539m-18.53644,0v-.203m18.53644.203v-.203m0,0H47.429m18.53644,0,.5092-.51h-.5092m-18.53644.51-.5093-.51h.5093m18.53644-15.0734H47.429m18.53644,0v.203m-18.53644-.203v.203m0,0H65.96539m-18.53644,0-.5093.51h.5093m18.53644-.51.5092.51h-.5092M47.429,120.22728H65.96539m-18.53644,0v-.203m18.53644.203v-.203m0,0H47.429m18.53644,0,.5092-.51h-.5092m-18.53644.51-.5093-.51h.5093m18.53644-13.6474H47.429m18.53644,0v.203m-18.53644-.203v.203m0,0H65.96539m-18.53644,0-.5093.51h.5093m18.53644-.51.5092.51h-.5092M47.429,119.51428H65.96539m-18.53644,0v-.203m18.53644.203v-.203m0,0H47.429m18.53644,0,.5092-.51m-19.04564.51-.5093-.51m19.04574-12.2214H47.429m18.53644,0v.203m-18.53644-.203v.203m0,0H65.96539m-18.53644,0-.5093.51m19.04574-.51.5092.51m0,11.5084H46.91965m19.55494,0h-.5092m-19.04574,0h.5093m19.04564-11.5084H46.91965m19.55494,0h-.5092m-19.04574,0h.5093m0,11.5084H65.96539m-18.53644,0v-.203m18.53644.203v-.203m0,0H47.429m18.53644,0,.5092-.5094m-19.04564.5094-.5093-.5094m19.04574-10.796H47.429m18.53644,0v.203m-18.53644-.203v.203m0,0H65.96539m-18.53644,0-.5093.51m19.04574-.51.5092.51m0,10.083H46.91965m19.55494,0h-.5092m-19.04574,0h.5093m19.04564-10.083H46.91965m19.55494,0h-.5092m-19.04574,0h.5093m0,10.083H65.96539m-18.53644,0v-.306m18.53644.306v-.306m0,0H47.429m18.53644,0,.5092-.4069m-19.04564.4069-.5093-.4069m19.04574-9.3701H47.429m18.53644,0v.3051m-18.53644-.3051v.3051m0,0H65.96539m-18.53644,0-.5093.407m19.04574-.407.5092.407m0,8.658H46.91965m19.55494,0-.5092-.102m-19.04574.102.5093-.102m19.04564-8.556H46.91965m19.55494,0-.5092.102m-19.04574-.102.5093.102m0,8.454H65.96539m-18.53644,0v-.204m18.53644.204v-.204m0,0H47.429m18.53644,0,.5092-.407M47.429,117.07l-.5093-.407m19.04574-7.843H47.429m18.53644,0v.204M47.429,108.82v.204m0,0H65.96539m-18.53644,0-.5093.509m19.04574-.509.5092.509m0,7.13H46.91965m19.55494,0-.5092-.204m-19.04574.204.5093-.204m19.04564-6.926H46.91965m19.55494,0-.5092.102m-19.04574-.102.5093.102m0,6.824H65.96539m-18.53644,0v-.204m18.53644.204v-.204m0,0H47.429m18.53644,0,.5092-.407m-19.04564.407-.5093-.407m19.04574-6.213H47.429m18.53644,0v.204M47.429,109.635v.204m0,0H65.96539m-18.53644,0-.5093.407m19.04574-.407.5092.407m0,5.602H46.91965m19.55494,0-.5092-.204m-19.04574.204.5093-.204m19.04564-5.398H46.91965m19.55494,0-.5092.204m-19.04574-.204.5093.204m0,5.194H65.96539m-18.53644,0v-.204m18.53644.204v-.204m0,0H47.429m18.53644,0,.5092-.407M47.429,115.44l-.5093-.407m19.04574-4.583H47.429m18.53644,0v.204M47.429,110.45v.204m0,0H65.96539m-18.53644,0-.5093.4069m19.04574-.4069.5092.4069m0,3.9721H46.91965m19.55494,0-.5092-.2041m-19.04574.2041.5093-.2041m19.04564-3.768H46.91965m19.55494,0-.5092.204m-19.04574-.204.5093.204m0,3.564H65.96539m-18.53644,0v-.203m18.53644.203v-.203m0,0H47.429m18.53644,0,.5092-.408m-19.04564.408-.5093-.408m19.55494,0H46.91965m19.55494,0-.5092-.203m-19.04574.203.5093-.203m18.53644-2.75H47.429m18.53644,0v.203m-18.53644-.203v.203m0,0H65.96539m-18.53644,0-.5093.408m19.04574-.408.5092.408m0,0H46.91965m19.55494,0-.5092.203m-19.04574-.203.5093.203m19.04564,1.426H46.91965m19.55494,0-.5092-.305m.5092.305-.5092.306m-19.04574-.306.5093.306m-.5093-.306.5093-.305m18.53644.611H47.429m18.53644,0v.204m-18.53644-.204v.204m0,0H65.96539m.5092-1.324H46.91965m19.55494,0-.5092-.306m.5092.306-.5092.203m-19.04574-.203.5093.203m-.5093-.203.5093-.306m18.53644-.306H47.429m18.53644,0v.306m-18.53644-.306v.306m0,0H65.96539m0,.509H47.429m18.53644,0v.306m-18.53644-.306v.306m0,0H65.96539M330.56728,421.29127v-.102l.102-.203.102-.408.305-.611Zm0,0-3.055-1.324M79.002,350.60929l-5.398,6.416m5.398-6.416.71291-.713.9166-.612.9167-.407m-2.54621,1.732,2.54621-1.732m-7.9442,8.148-.6111.815-.4074.916-.2037,1.019m1.2222-2.75-1.2222,2.75m57.03479-27.703-47.86839,16.805m47.86839-16.805,1.121-.305h1.12l1.222.203,1.019.408,1.018.713m-5.5-1.019,5.5,1.019m20.9807,17.619-20.9807-17.619m20.9807,17.619.815.713.611,1.019.407,1.018.204,1.121v1.018l-.306,1.12-.407,1.019-.611.917m-.713-7.945.713,7.945m-84.2285,1.12-8.2497,50.109m0,0-.1018,1.121.2036,1.222.4074,1.018.6111,1.019.8148.815m-1.9351-5.195,1.9351,5.195m29.0268,16.906,61.5163-73.33m-61.5163,73.33-.8148.815-.9166.611-1.1203.408-1.0185.203h-1.1204l-1.1203-.203-1.0185-.51-.9166-.611m8.046-.713-8.046.713m-20.9808-17.619,20.9808,17.619m71.3953-103.579-1.222,1.425m-17.6197-17.212-1.222,1.426m-92.27474,154.911v.102l-1.4259-.204m1.4259.102,2.5462-6.722m-2.5462,6.722-1.4259-.203m0,.101-.8147-.101m.8147.101v-.101m27.29544-156.745v-.102l-1.4258-.305m1.4258.407.2037,7.231m-.2037-7.231-1.4258-.306m0-.101v.101m0-.101-.8148-.102m2.4443,7.74v.611l-.1018.611-.1019.713-.1018.815-.1019.917-.2037.916-.1018,1.019m.7129-5.602-.7129,5.602m.7129-5.602-1.4259-.305m-.2036-7.232.2036,7.232m-22.10114,143.3-1.4258-.305m1.4258.305.1019-.305.1018-.408.1019-.509.1018-.713.2037-.815.1019-.916.2037-.917.2037-1.018m-1.1204,5.601,1.1204-5.601m-5.0925,12.12,2.5463-6.824m24.23994-137.088-21.69374,131.792m21.69374-131.792-1.4259-.204m.7129-5.703v.713l-.1018.611-.1018.713-.1019.814-.1018.917-.2037.917-.1019,1.018m.7129-5.703-.7129,5.703m-22.814,137.292.1018-.204.1019-.407.2037-1.222.2036-.815.1019-.917.2037-1.018.2037-.917m-1.1203,5.5,1.1203-5.5m1.4259.204-1.4259-.204m-4.4813,12.324v-.51l.1018-.509.1019-.713.1018-.815.1019-1.018.4073-2.241m-.8147,5.806.8147-5.806m3.6666-6.518,21.69374-131.792m-.3055-13.138v.102l-.1019.305-.1018.611-.2037.611-.1019.917-.4074,2.037-.2037,1.12m1.1204-5.703-1.1204,5.703m0,0L44.679,463.66029m402.91235-48.378h-103.886M96.51989,99.24688h-1.0185m1.5277,9.37h-.3055m.1018,8.657h.2037m-29.9434-10.796h-.3055m0,13.0364h.3055m387.22759,298.62h-.917m1.222,7.231v-3.259l-.101-1.528v-1.12l-.102-.917-.102-.509v-.204l-.102.204v.102Zm-322.1457-22.712.305-.102.713-.509.51-.713.101-.815Zm-.509-4.278-.815.102-.713.51-.509.712-.102.815v.408Zm5.703,8.658.204-.204,1.527-1.833Zm-13.953-9.167-.306,1.426v2.343l.102.713Zm8.453-6.009h-.815l-2.24.509-1.121.51Zm238.2237-298.9254-.102-.917-.509-.713-.713-.509-.917-.204-.917.204-.713.509-.509.713-.102.917.102.815.509.815.713.407.917.204.917-.204.713-.407.509-.815Zm-17.314,0-.102-.917-.51-.713-.814-.509-.815-.204-.917.204-.713.509-.509.713-.102.917.102.815.509.815.713.407.917.204.815-.204.814-.407.51-.815Zm34.628,0-.102-.917-.509-.713-.713-.509-.917-.204-.814.204-.815.509-.51.713-.101.917.101.815.51.815.815.407.814.204.917-.204.713-.407.509-.815Zm-229.159,267.45439-26.1747,31.166-1.12,2.037-.204,2.24.611,2.139,1.426,1.731,52.24771,43.897,1.935,1.019,2.241.305,2.139-.713,1.833-1.324,26.073-31.267,1.121-1.935.203-2.241-.611-2.139-1.426-1.731-52.146-43.897-2.037-1.018-2.241-.306-2.139.611Zm-35.3407,42.063-26.0736,31.166-1.1203,1.935-.20371,2.241.61111,2.24,1.4258,1.732,52.14639,43.795,2.037,1.12,2.24.204,2.139-.611,1.732-1.426,26.175-31.166,1.12-1.935.204-2.241-.611-2.24-1.426-1.732-52.2487-43.795-1.935-1.12-2.24-.204-2.139.611Zm-35.24,41.962-26.175,31.166-1.0185,2.037-.3055,2.24.611,2.139,1.4259,1.731,52.24809,43.897,2.037,1.019,2.241.305,2.139-.611,1.731-1.426,26.17469-31.165,1.12-2.037.204-2.241-.611-2.139-1.426-1.731-52.24781-43.897-1.93509-1.018-2.24071-.306-2.13879.611Z" style="fill: none;stroke: #000;stroke-linecap: round;stroke-linejoin: round;stroke-width: 0.17020000517368317px"/>
        <path d="M128.30429,130.49028h40.7a5.85,5.85,0,0,1,5.85,5.85v40.6355a5.85,5.85,0,0,1-5.85,5.85h-40.7a5.85,5.85,0,0,1-5.85-5.85V136.34028A5.85,5.85,0,0,1,128.30429,130.49028Z" style="fill: none;stroke: #000;stroke-width: 0.10000000149011612px"/>
        <path d="M128.30429,185.35928h40.7a5.85,5.85,0,0,1,5.85,5.85v40.63549a5.85,5.85,0,0,1-5.85,5.85h-40.7a5.85,5.85,0,0,1-5.85-5.85v-40.6355A5.85,5.85,0,0,1,128.30429,185.35928Z" style="fill: none;stroke: #000;stroke-width: 0.10000000149011612px"/>
        <path d="M128.3043,240.15928h40.7a5.85,5.85,0,0,1,5.85,5.85v40.63551a5.85,5.85,0,0,1-5.85,5.85h-40.7a5.85,5.85,0,0,1-5.85-5.85V246.00928A5.85,5.85,0,0,1,128.3043,240.15928Z" style="fill: none;stroke: #000;stroke-width: 0.10000000149011612px"/>
        <path d="M183.07928,126.15928h40.7a5.85,5.85,0,0,1,5.85,5.85v40.63549a5.85,5.85,0,0,1-5.85,5.85h-40.7a5.85,5.85,0,0,1-5.85-5.85V132.00928A5.85,5.85,0,0,1,183.07928,126.15928Z" style="fill: none;stroke: #000;stroke-width: 0.10000000149011612px"/>
        <rect x="177.22928" y="181.02828" width="52.40001" height="52.33549" rx="5.85001" ry="5.85001" style="fill: none;stroke: #000;stroke-width: 0.10000000149011612px"/>
        <rect x="177.22928" y="235.82829" width="52.40001" height="52.33551" rx="5.85001" ry="5.85001" style="fill: none;stroke: #000;stroke-width: 0.10000000149011612px"/>
        <rect x="177.22928" y="290.72929" width="52.40001" height="52.33551" rx="5.85001" ry="5.85001" style="fill: none;stroke: #000;stroke-width: 0.10000000149011612px"/>
        <path d="M237.85429,117.45928h40.7a5.85,5.85,0,0,1,5.85,5.85v40.63548a5.85,5.85,0,0,1-5.85,5.85h-40.7a5.85,5.85,0,0,1-5.85-5.85V123.30928A5.85,5.85,0,0,1,237.85429,117.45928Z" style="fill: none;stroke: #000;stroke-width: 0.10000000149011612px"/>
        <rect x="232.00429" y="172.32829" width="52.39999" height="52.33549" rx="5.85001" ry="5.85001" style="fill: none;stroke: #000;stroke-width: 0.10000000149011612px"/>
        <rect x="232.00429" y="227.12827" width="52.39999" height="52.33551" rx="5.85001" ry="5.85001" style="fill: none;stroke: #000;stroke-width: 0.10000000149011612px"/>
        <rect x="232.00429" y="282.02927" width="52.39999" height="52.33551" rx="5.85001" ry="5.85001" style="fill: none;stroke: #000;stroke-width: 0.10000000149011612px"/>
        <rect x="232.00429" y="336.92927" width="52.39999" height="52.33551" rx="5.85001" ry="5.85001" style="fill: none;stroke: #000;stroke-width: 0.10000000149011612px"/>
        <path d="M292.85429,113.25928h40.7a5.85,5.85,0,0,1,5.85,5.85v40.63549a5.85,5.85,0,0,1-5.85,5.85h-40.7a5.85,5.85,0,0,1-5.85-5.85v-40.6355A5.85,5.85,0,0,1,292.85429,113.25928Z" style="fill: none;stroke: #000;stroke-width: 0.10000000149011612px"/>
        <rect x="287.00429" y="168.12827" width="52.39999" height="52.33549" rx="5.85001" ry="5.85001" style="fill: none;stroke: #000;stroke-width: 0.10000000149011612px"/>
        <rect x="287.00429" y="222.92828" width="52.39999" height="52.33549" rx="5.85001" ry="5.85001" style="fill: none;stroke: #000;stroke-width: 0.10000000149011612px"/>
        <rect x="287.00429" y="277.82929" width="52.39999" height="52.33551" rx="5.85001" ry="5.85001" style="fill: none;stroke: #000;stroke-width: 0.10000000149011612px"/>
        <rect x="287.00429" y="332.72929" width="52.39999" height="52.33551" rx="5.85001" ry="5.85001" style="fill: none;stroke: #000;stroke-width: 0.10000000149011612px"/>
        <path d="M347.77928,117.45928h40.7a5.85,5.85,0,0,1,5.85,5.85v40.63548a5.85,5.85,0,0,1-5.85,5.85h-40.7a5.85,5.85,0,0,1-5.85-5.85V123.30928A5.85,5.85,0,0,1,347.77928,117.45928Z" style="fill: none;stroke: #000;stroke-width: 0.10000000149011612px"/>
        <rect x="341.92928" y="172.32829" width="52.39999" height="52.33549" rx="5.85001" ry="5.85001" style="fill: none;stroke: #000;stroke-width: 0.10000000149011612px"/>
        <rect x="341.92928" y="227.12827" width="52.39999" height="52.33551" rx="5.85001" ry="5.85001" style="fill: none;stroke: #000;stroke-width: 0.10000000149011612px"/>
        <rect x="341.92928" y="282.02927" width="52.39999" height="52.33551" rx="5.85001" ry="5.85001" style="fill: none;stroke: #000;stroke-width: 0.10000000149011612px"/>
        <rect x="341.92928" y="336.92927" width="52.39999" height="52.33551" rx="5.85001" ry="5.85001" style="fill: none;stroke: #000;stroke-width: 0.10000000149011612px"/>
        <path d="M402.59929,126.15928h40.7a5.85,5.85,0,0,1,5.85,5.85v40.63549a5.85,5.85,0,0,1-5.85,5.85h-40.7a5.85,5.85,0,0,1-5.85-5.85V132.00928A5.85,5.85,0,0,1,402.59929,126.15928Z" style="fill: none;stroke: #000;stroke-width: 0.10000000149011612px"/>
        <rect x="396.74929" y="181.02828" width="52.39999" height="52.33549" rx="5.85001" ry="5.85001" style="fill: none;stroke: #000;stroke-width: 0.10000000149011612px"/>
        <rect x="396.74929" y="235.82829" width="52.39999" height="52.33551" rx="5.85001" ry="5.85001" style="fill: none;stroke: #000;stroke-width: 0.10000000149011612px"/>
        <rect x="396.74929" y="290.72929" width="52.39999" height="52.33551" rx="5.85001" ry="5.85001" style="fill: none;stroke: #000;stroke-width: 0.10000000149011612px"/>
        <rect x="396.74929" y="345.62928" width="52.39999" height="52.33551" rx="5.85001" ry="5.85001" style="fill: none;stroke: #000;stroke-width: 0.10000000149011612px"/>
        <rect x="451.56929" y="130.48428" width="52.39999" height="52.33549" rx="5.85001" ry="5.85001" style="fill: none;stroke: #000;stroke-width: 0.10000000149011612px"/>
        <rect x="451.56929" y="185.35328" width="52.39999" height="52.33549" rx="5.85001" ry="5.85001" style="fill: none;stroke: #000;stroke-width: 0.10000000149011612px"/>
        <rect x="451.56929" y="240.15328" width="52.39999" height="52.33549" rx="5.85001" ry="5.85001" style="fill: none;stroke: #000;stroke-width: 0.10000000149011612px"/>
        <rect x="451.56929" y="295.05427" width="52.39999" height="52.33551" rx="5.85001" ry="5.85001" style="fill: none;stroke: #000;stroke-width: 0.10000000149011612px"/>
        <rect x="451.56929" y="349.95429" width="52.39999" height="52.33551" rx="5.85001" ry="5.85001" style="fill: none;stroke: #000;stroke-width: 0.10000000149011612px"/>
      </g>
    </g>
  </g>
</svg>
