<?xml version="1.0" standalone="no"?>
 <!DOCTYPE svg PUBLIC "-//W3C//DTD SVG 1.1//EN" 
 "http://www.w3.org/Graphics/SVG/1.1/DTD/svg11.dtd"> 
<svg
  xmlns:svg="http://www.w3.org/2000/svg"
  xmlns="http://www.w3.org/2000/svg"
  xmlns:xlink="http://www.w3.org/1999/xlink"
  version="1.1"
  width="144.9832mm" height="111.9886mm" viewBox="0.0000 0.0000 144.9832 111.9886">
<title>SVG Image created as revolt-brd.svg date 2025/12/05 20:35:56 </title>
  <desc>Image generated by PCBNEW </desc>
<g style="fill:#000000; fill-opacity:1.0000;stroke:#000000; stroke-opacity:1.0000;
stroke-linecap:round; stroke-linejoin:round;"
 transform="translate(0 0) scale(1 1)">
</g>
<g style="fill:none; 
stroke:#000000; stroke-width:0.1500; stroke-opacity:1; 
stroke-linecap:round; stroke-linejoin:round;">
<path d="M104.7162 90.8970
L104.7162 77.0970
" />
<path d="M104.7162 90.8970
L90.9162 90.8970
" />
<path d="M100.4162 80.8970
L100.4162 77.6970
" />
<path d="M100.4162 80.8970
L95.2162 80.8970
" />
<path d="M95.2162 77.6970
L100.4162 77.6970
" />
<path d="M95.2162 80.8970
L95.2162 77.6970
" />
<path d="M90.9162 77.0970
L104.7162 77.0970
" />
<path d="M90.9162 77.0970
L90.9162 90.8970
" />
<path d="M141.8002 80.9910
L141.8002 67.1910
" />
<path d="M141.8002 80.9910
L128.0002 80.9910
" />
<path d="M137.5002 70.9910
L137.5002 67.7910
" />
<path d="M137.5002 70.9910
L132.3002 70.9910
" />
<path d="M132.3002 67.7910
L137.5002 67.7910
" />
<path d="M132.3002 70.9910
L132.3002 67.7910
" />
<path d="M128.0002 67.1910
L141.8002 67.1910
" />
<path d="M128.0002 67.1910
L128.0002 80.9910
" />
<path d="M22.3499 102.1436
L15.4499 90.1924
" />
<path d="M22.3499 102.1436
L10.3988 109.0436
" />
<path d="M13.6260 95.6333
L12.0260 92.8620
" />
<path d="M13.6260 95.6333
L9.1227 98.2333
" />
<path d="M9.1227 98.2333
L7.5227 95.4620
" />
<path d="M7.5227 95.4620
L12.0260 92.8620
" />
<path d="M3.4988 97.0924
L15.4499 90.1924
" />
<path d="M3.4988 97.0924
L10.3988 109.0436
" />
<path d="M104.7162 38.3190
L104.7162 24.5190
" />
<path d="M104.7162 38.3190
L90.9162 38.3190
" />
<path d="M100.4162 28.3190
L100.4162 25.1190
" />
<path d="M100.4162 28.3190
L95.2162 28.3190
" />
<path d="M95.2162 25.1190
L100.4162 25.1190
" />
<path d="M95.2162 28.3190
L95.2162 25.1190
" />
<path d="M90.9162 24.5190
L104.7162 24.5190
" />
<path d="M90.9162 24.5190
L90.9162 38.3190
" />
<path d="M123.2582 63.4650
L123.2582 49.6650
" />
<path d="M123.2582 63.4650
L109.4582 63.4650
" />
<path d="M118.9582 53.4650
L118.9582 50.2650
" />
<path d="M118.9582 53.4650
L113.7582 53.4650
" />
<path d="M113.7582 50.2650
L118.9582 50.2650
" />
<path d="M113.7582 53.4650
L113.7582 50.2650
" />
<path d="M109.4582 49.6650
L123.2582 49.6650
" />
<path d="M109.4582 49.6650
L109.4582 63.4650
" />
<path d="M141.8002 28.4130
L141.8002 14.6130
" />
<path d="M141.8002 28.4130
L128.0002 28.4130
" />
<path d="M137.5002 18.4130
L137.5002 15.2130
" />
<path d="M137.5002 18.4130
L132.3002 18.4130
" />
<path d="M132.3002 15.2130
L137.5002 15.2130
" />
<path d="M132.3002 18.4130
L132.3002 15.2130
" />
<path d="M128.0002 14.6130
L141.8002 14.6130
" />
<path d="M128.0002 14.6130
L128.0002 28.4130
" />
<path d="M141.8002 98.5170
L141.8002 84.7170
" />
<path d="M141.8002 98.5170
L128.0002 98.5170
" />
<path d="M137.5002 88.5170
L137.5002 85.3170
" />
<path d="M137.5002 88.5170
L132.3002 88.5170
" />
<path d="M132.3002 85.3170
L137.5002 85.3170
" />
<path d="M132.3002 88.5170
L132.3002 85.3170
" />
<path d="M128.0002 84.7170
L141.8002 84.7170
" />
<path d="M128.0002 84.7170
L128.0002 98.5170
" />
<path d="M49.0902 58.3850
L49.0902 44.5850
" />
<path d="M49.0902 58.3850
L35.2902 58.3850
" />
<path d="M44.7902 48.3850
L44.7902 45.1850
" />
<path d="M44.7902 48.3850
L39.5902 48.3850
" />
<path d="M39.5902 45.1850
L44.7902 45.1850
" />
<path d="M39.5902 48.3850
L39.5902 45.1850
" />
<path d="M35.2902 44.5850
L49.0902 44.5850
" />
<path d="M35.2902 44.5850
L35.2902 58.3850
" />
<path d="M49.0902 23.3330
L49.0902 9.5330
" />
<path d="M49.0902 23.3330
L35.2902 23.3330
" />
<path d="M44.7902 13.3330
L44.7902 10.1330
" />
<path d="M44.7902 13.3330
L39.5902 13.3330
" />
<path d="M39.5902 10.1330
L44.7902 10.1330
" />
<path d="M39.5902 13.3330
L39.5902 10.1330
" />
<path d="M35.2902 9.5330
L49.0902 9.5330
" />
<path d="M35.2902 9.5330
L35.2902 23.3330
" />
<path d="M123.2582 98.5170
L123.2582 84.7170
" />
<path d="M123.2582 98.5170
L109.4582 98.5170
" />
<path d="M118.9582 88.5170
L118.9582 85.3170
" />
<path d="M118.9582 88.5170
L113.7582 88.5170
" />
<path d="M113.7582 85.3170
L118.9582 85.3170
" />
<path d="M113.7582 88.5170
L113.7582 85.3170
" />
<path d="M109.4582 84.7170
L123.2582 84.7170
" />
<path d="M109.4582 84.7170
L109.4582 98.5170
" />
<path d="M123.2582 45.9390
L123.2582 32.1390
" />
<path d="M123.2582 45.9390
L109.4582 45.9390
" />
<path d="M118.9582 35.9390
L118.9582 32.7390
" />
<path d="M118.9582 35.9390
L113.7582 35.9390
" />
<path d="M113.7582 32.7390
L118.9582 32.7390
" />
<path d="M113.7582 35.9390
L113.7582 32.7390
" />
<path d="M109.4582 32.1390
L123.2582 32.1390
" />
<path d="M109.4582 32.1390
L109.4582 45.9390
" />
<path d="M123.2582 28.4130
L123.2582 14.6130
" />
<path d="M123.2582 28.4130
L109.4582 28.4130
" />
<path d="M118.9582 18.4130
L118.9582 15.2130
" />
<path d="M118.9582 18.4130
L113.7582 18.4130
" />
<path d="M113.7582 15.2130
L118.9582 15.2130
" />
<path d="M113.7582 18.4130
L113.7582 15.2130
" />
<path d="M109.4582 14.6130
L123.2582 14.6130
" />
<path d="M109.4582 14.6130
L109.4582 28.4130
" />
<path d="M29.6448 77.6946
L22.7448 65.7435
" />
<path d="M29.6448 77.6946
L17.6936 84.5946
" />
<path d="M20.9209 71.1844
L19.3209 68.4131
" />
<path d="M20.9209 71.1844
L16.4175 73.7844
" />
<path d="M16.4175 73.7844
L14.8175 71.0131
" />
<path d="M14.8175 71.0131
L19.3209 68.4131
" />
<path d="M10.7936 72.6435
L22.7448 65.7435
" />
<path d="M10.7936 72.6435
L17.6936 84.5946
" />
<path d="M86.1742 70.8310
L86.1742 57.0310
" />
<path d="M86.1742 70.8310
L72.3742 70.8310
" />
<path d="M81.8742 60.8310
L81.8742 57.6310
" />
<path d="M81.8742 60.8310
L76.6742 60.8310
" />
<path d="M76.6742 57.6310
L81.8742 57.6310
" />
<path d="M76.6742 60.8310
L76.6742 57.6310
" />
<path d="M72.3742 57.0310
L86.1742 57.0310
" />
<path d="M72.3742 57.0310
L72.3742 70.8310
" />
<path d="M86.1742 35.7790
L86.1742 21.9790
" />
<path d="M86.1742 35.7790
L72.3742 35.7790
" />
<path d="M81.8742 25.7790
L81.8742 22.5790
" />
<path d="M81.8742 25.7790
L76.6742 25.7790
" />
<path d="M76.6742 22.5790
L81.8742 22.5790
" />
<path d="M76.6742 25.7790
L76.6742 22.5790
" />
<path d="M72.3742 21.9790
L86.1742 21.9790
" />
<path d="M72.3742 21.9790
L72.3742 35.7790
" />
<path d="M67.6322 38.3190
L67.6322 24.5190
" />
<path d="M67.6322 38.3190
L53.8322 38.3190
" />
<path d="M63.3322 28.3190
L63.3322 25.1190
" />
<path d="M63.3322 28.3190
L58.1322 28.3190
" />
<path d="M58.1322 25.1190
L63.3322 25.1190
" />
<path d="M58.1322 28.3190
L58.1322 25.1190
" />
<path d="M53.8322 24.5190
L67.6322 24.5190
" />
<path d="M53.8322 24.5190
L53.8322 38.3190
" />
<path d="M86.1742 53.3050
L86.1742 39.5050
" />
<path d="M86.1742 53.3050
L72.3742 53.3050
" />
<path d="M81.8742 43.3050
L81.8742 40.1050
" />
<path d="M81.8742 43.3050
L76.6742 43.3050
" />
<path d="M76.6742 40.1050
L81.8742 40.1050
" />
<path d="M76.6742 43.3050
L76.6742 40.1050
" />
<path d="M72.3742 39.5050
L86.1742 39.5050
" />
<path d="M72.3742 39.5050
L72.3742 53.3050
" />
<path d="M49.0902 75.9110
L49.0902 62.1110
" />
<path d="M49.0902 75.9110
L35.2902 75.9110
" />
<path d="M44.7902 65.9110
L44.7902 62.7110
" />
<path d="M44.7902 65.9110
L39.5902 65.9110
" />
<path d="M39.5902 62.7110
L44.7902 62.7110
" />
<path d="M39.5902 65.9110
L39.5902 62.7110
" />
<path d="M35.2902 62.1110
L49.0902 62.1110
" />
<path d="M35.2902 62.1110
L35.2902 75.9110
" />
<path d="M104.7162 73.3710
L104.7162 59.5710
" />
<path d="M104.7162 73.3710
L90.9162 73.3710
" />
<path d="M100.4162 63.3710
L100.4162 60.1710
" />
<path d="M100.4162 63.3710
L95.2162 63.3710
" />
<path d="M95.2162 60.1710
L100.4162 60.1710
" />
<path d="M95.2162 63.3710
L95.2162 60.1710
" />
<path d="M90.9162 59.5710
L104.7162 59.5710
" />
<path d="M90.9162 59.5710
L90.9162 73.3710
" />
<path d="M141.8002 45.9390
L141.8002 32.1390
" />
<path d="M141.8002 45.9390
L128.0002 45.9390
" />
<path d="M137.5002 35.9390
L137.5002 32.7390
" />
<path d="M137.5002 35.9390
L132.3002 35.9390
" />
<path d="M132.3002 32.7390
L137.5002 32.7390
" />
<path d="M132.3002 35.9390
L132.3002 32.7390
" />
<path d="M128.0002 32.1390
L141.8002 32.1390
" />
<path d="M128.0002 32.1390
L128.0002 45.9390
" />
<path d="M30.5482 43.3990
L30.5482 29.5990
" />
<path d="M30.5482 43.3990
L16.7482 43.3990
" />
<path d="M26.2482 33.3990
L26.2482 30.1990
" />
<path d="M26.2482 33.3990
L21.0482 33.3990
" />
<path d="M21.0482 30.1990
L26.2482 30.1990
" />
<path d="M21.0482 33.3990
L21.0482 30.1990
" />
<path d="M16.7482 29.5990
L30.5482 29.5990
" />
<path d="M16.7482 29.5990
L16.7482 43.3990
" />
<path d="M30.5482 60.9250
L30.5482 47.1250
" />
<path d="M30.5482 60.9250
L16.7482 60.9250
" />
<path d="M26.2482 50.9250
L26.2482 47.7250
" />
<path d="M26.2482 50.9250
L21.0482 50.9250
" />
<path d="M21.0482 47.7250
L26.2482 47.7250
" />
<path d="M21.0482 50.9250
L21.0482 47.7250
" />
<path d="M16.7482 47.1250
L30.5482 47.1250
" />
<path d="M16.7482 47.1250
L16.7482 60.9250
" />
<path d="M38.4078 92.8726
L31.5078 80.9214
" />
<path d="M38.4078 92.8726
L26.4566 99.7726
" />
<path d="M29.6839 86.3623
L28.0839 83.5910
" />
<path d="M29.6839 86.3623
L25.1805 88.9623
" />
<path d="M25.1805 88.9623
L23.5805 86.1910
" />
<path d="M23.5805 86.1910
L28.0839 83.5910
" />
<path d="M19.5566 87.8214
L31.5078 80.9214
" />
<path d="M19.5566 87.8214
L26.4566 99.7726
" />
<path d="M104.7162 20.7930
L104.7162 6.9930
" />
<path d="M104.7162 20.7930
L90.9162 20.7930
" />
<path d="M100.4162 10.7930
L100.4162 7.5930
" />
<path d="M100.4162 10.7930
L95.2162 10.7930
" />
<path d="M95.2162 7.5930
L100.4162 7.5930
" />
<path d="M95.2162 10.7930
L95.2162 7.5930
" />
<path d="M90.9162 6.9930
L104.7162 6.9930
" />
<path d="M90.9162 6.9930
L90.9162 20.7930
" />
<path d="M67.6322 55.8450
L67.6322 42.0450
" />
<path d="M67.6322 55.8450
L53.8322 55.8450
" />
<path d="M63.3322 45.8450
L63.3322 42.6450
" />
<path d="M63.3322 45.8450
L58.1322 45.8450
" />
<path d="M58.1322 42.6450
L63.3322 42.6450
" />
<path d="M58.1322 45.8450
L58.1322 42.6450
" />
<path d="M53.8322 42.0450
L67.6322 42.0450
" />
<path d="M53.8322 42.0450
L53.8322 55.8450
" />
<path d="M86.1742 18.2530
L86.1742 4.4530
" />
<path d="M86.1742 18.2530
L72.3742 18.2530
" />
<path d="M81.8742 8.2530
L81.8742 5.0530
" />
<path d="M81.8742 8.2530
L76.6742 8.2530
" />
<path d="M76.6742 5.0530
L81.8742 5.0530
" />
<path d="M76.6742 8.2530
L76.6742 5.0530
" />
<path d="M72.3742 4.4530
L86.1742 4.4530
" />
<path d="M72.3742 4.4530
L72.3742 18.2530
" />
<path d="M123.2582 80.9910
L123.2582 67.1910
" />
<path d="M123.2582 80.9910
L109.4582 80.9910
" />
<path d="M118.9582 70.9910
L118.9582 67.7910
" />
<path d="M118.9582 70.9910
L113.7582 70.9910
" />
<path d="M113.7582 67.7910
L118.9582 67.7910
" />
<path d="M113.7582 70.9910
L113.7582 67.7910
" />
<path d="M109.4582 67.1910
L123.2582 67.1910
" />
<path d="M109.4582 67.1910
L109.4582 80.9910
" />
<path d="M62.7276 92.6780
L61.2852 78.9536
" />
<path d="M62.7276 92.6780
L49.0032 94.1204
" />
<path d="M57.4059 83.1822
L57.0714 79.9997
" />
<path d="M57.4059 83.1822
L52.2344 83.7258
" />
<path d="M52.2344 83.7258
L51.8999 80.5433
" />
<path d="M51.8999 80.5433
L57.0714 79.9997
" />
<path d="M47.5608 80.3960
L61.2852 78.9536
" />
<path d="M47.5608 80.3960
L49.0032 94.1204
" />
<path d="M141.8002 63.4650
L141.8002 49.6650
" />
<path d="M141.8002 63.4650
L128.0002 63.4650
" />
<path d="M137.5002 53.4650
L137.5002 50.2650
" />
<path d="M137.5002 53.4650
L132.3002 53.4650
" />
<path d="M132.3002 50.2650
L137.5002 50.2650
" />
<path d="M132.3002 53.4650
L132.3002 50.2650
" />
<path d="M128.0002 49.6650
L141.8002 49.6650
" />
<path d="M128.0002 49.6650
L128.0002 63.4650
" />
<path d="M67.6322 73.3710
L67.6322 59.5710
" />
<path d="M67.6322 73.3710
L53.8322 73.3710
" />
<path d="M63.3322 63.3710
L63.3322 60.1710
" />
<path d="M63.3322 63.3710
L58.1322 63.3710
" />
<path d="M58.1322 60.1710
L63.3322 60.1710
" />
<path d="M58.1322 63.3710
L58.1322 60.1710
" />
<path d="M53.8322 59.5710
L67.6322 59.5710
" />
<path d="M53.8322 59.5710
L53.8322 73.3710
" />
<path d="M104.7162 55.8450
L104.7162 42.0450
" />
<path d="M104.7162 55.8450
L90.9162 55.8450
" />
<path d="M100.4162 45.8450
L100.4162 42.6450
" />
<path d="M100.4162 45.8450
L95.2162 45.8450
" />
<path d="M95.2162 42.6450
L100.4162 42.6450
" />
<path d="M95.2162 45.8450
L95.2162 42.6450
" />
<path d="M90.9162 42.0450
L104.7162 42.0450
" />
<path d="M90.9162 42.0450
L90.9162 55.8450
" />
<path d="M67.6322 20.7930
L67.6322 6.9930
" />
<path d="M67.6322 20.7930
L53.8322 20.7930
" />
<path d="M63.3322 10.7930
L63.3322 7.5930
" />
<path d="M63.3322 10.7930
L58.1322 10.7930
" />
<path d="M58.1322 7.5930
L63.3322 7.5930
" />
<path d="M58.1322 10.7930
L58.1322 7.5930
" />
<path d="M53.8322 6.9930
L67.6322 6.9930
" />
<path d="M53.8322 6.9930
L53.8322 20.7930
" />
<path d="M86.1742 88.3570
L86.1742 74.5570
" />
<path d="M86.1742 88.3570
L72.3742 88.3570
" />
<path d="M81.8742 78.3570
L81.8742 75.1570
" />
<path d="M81.8742 78.3570
L76.6742 78.3570
" />
<path d="M76.6742 75.1570
L81.8742 75.1570
" />
<path d="M76.6742 78.3570
L76.6742 75.1570
" />
<path d="M72.3742 74.5570
L86.1742 74.5570
" />
<path d="M72.3742 74.5570
L72.3742 88.3570
" />
<path d="M49.0902 40.8590
L49.0902 27.0590
" />
<path d="M49.0902 40.8590
L35.2902 40.8590
" />
<path d="M44.7902 30.8590
L44.7902 27.6590
" />
<path d="M44.7902 30.8590
L39.5902 30.8590
" />
<path d="M39.5902 27.6590
L44.7902 27.6590
" />
<path d="M39.5902 30.8590
L39.5902 27.6590
" />
<path d="M35.2902 27.0590
L49.0902 27.0590
" />
<path d="M35.2902 27.0590
L35.2902 40.8590
" />
</g>
<g style="fill:none; 
stroke:#000000; stroke-width:0.1000; stroke-opacity:1; 
stroke-linecap:round; stroke-linejoin:round;">
<path d="M143.6560 12.2550
L112.5160 0.1852
" />
<path d="M13.3181 63.2703
L7.9363 72.0085
" />
<path d="M7.8797 110.9464 A2.0000 2.0000 0.0 0 0 10.0550 111.8967" />
<path d="M142.9332 100.3800 A2.0000 2.0000 0.0 0 0 144.9332 98.3800" />
<path d="M13.6152 2.0500
L13.6152 62.2215
" />
<path d="M10.0550 111.8967
L60.5134 100.4297
" />
<path d="M144.9332 14.1198 A2.0000 2.0000 0.0 0 0 143.6560 12.2550" />
<path d="M112.5160 0.1852 A2.0000 2.0000 0.0 0 0 111.7932 0.0500" />
<path d="M0.2968 97.8124
L7.8797 110.9464
" />
<path d="M13.3181 63.2703 A2.0000 2.0000 0.0 0 0 13.6152 62.2215" />
<path d="M111.7932 0.0500
L15.6152 0.0500
" />
<path d="M7.9363 72.0085 A2.0000 2.0000 0.0 0 0 7.7346 72.4471" />
<path d="M60.9566 100.3800
L142.9332 100.3800
" />
<path d="M60.9566 100.3800 A2.0001 2.0001 0.0 0 0 60.5134 100.4297" />
<path d="M0.1242 96.2022 A2.0000 2.0000 0.0 0 0 0.2968 97.8124" />
<path d="M15.6152 0.0500 A2.0000 2.0000 0.0 0 0 13.6152 2.0500" />
<path d="M144.9332 98.3800
L144.9332 14.1198
" />
<path d="M7.7346 72.4471
L0.1242 96.2022
" />
</g> 
</svg>
