0
SECTION
2
HEADER
9
$INSUNITS
70
4
9
$ACADVER
1
AC1014
9
$HANDSEED
5
FFFF
0
ENDSEC
0
SECTION
2
TABLES
0
TABLE
2
VPORT
5
8
100
AcDbSymbolTable
0
ENDTAB
0
TABLE
2
LTYPE
5
5
100
AcDbSymbolTable
0
LTYPE
5
14
100
AcDbSymbolTableRecord
100
AcDbLinetypeTableRecord
2
BYBLOCK
70
0
0
LTYPE
5
15
100
AcDbSymbolTableRecord
100
AcDbLinetypeTableRecord
2
BYLAYER
70
0
0
ENDTAB
0
TABLE
2
LAYER
5
2
100
AcDbSymbolTable
70
2
0
LAYER
5
50
100
AcDbSymbolTableRecord
100
AcDbLayerTableRecord
2
0
70
0
6
CONTINUOUS
0
ENDTAB
0
TABLE
2
STYLE
5
3
100
AcDbSymbolTable
70
1
0
STYLE
5
11
100
AcDbSymbolTableRecord
100
AcDbTextStyleTableRecord
2
STANDARD
70
0
0
ENDTAB
0
TABLE
2
VIEW
5
6
100
AcDbSymbolTable
70
0
0
ENDTAB
0
TABLE
2
UCS
5
7
100
AcDbSymbolTable
70
0
0
ENDTAB
0
TABLE
2
APPID
5
9
100
AcDbSymbolTable
70
2
0
APPID
5
12
100
AcDbSymbolTableRecord
100
AcDbRegAppTableRecord
2
ACAD
70
0
0
ENDTAB
0
TABLE
2
DIMSTYLE
5
A
100
AcDbSymbolTable
70
1
0
ENDTAB
0
TABLE
2
BLOCK_RECORD
5
1
100
AcDbSymbolTable
70
1
0
BLOCK_RECORD
5
1F
100
AcDbSymbolTableRecord
100
AcDbBlockTableRecord
2
*MODEL_SPACE
0
BLOCK_RECORD
5
1B
100
AcDbSymbolTableRecord
100
AcDbBlockTableRecord
2
*PAPER_SPACE
0
ENDTAB
0
ENDSEC
0
SECTION
2
BLOCKS
0
BLOCK
5
20
100
AcDbEntity
100
AcDbBlockBegin
2
*MODEL_SPACE
0
ENDBLK
5
21
100
AcDbEntity
100
AcDbBlockEnd
0
BLOCK
5
1C
100
AcDbEntity
100
AcDbBlockBegin
2
*PAPER_SPACE
0
ENDBLK
5
1D
100
AcDbEntity
100
AcDbBlockEnd
0
ENDSEC
0
SECTION
2
ENTITIES
0
LWPOLYLINE
5
100
100
AcDbEntity
8
0
100
AcDbPolyline
90
4
70
1
43
0.0
10
-16.472101061636774
20
21.896139826697841
10
-2.6847925194658573
20
24.327214314034869
10
-5.1158670068028904
20
38.114522856205852
10
-18.903175548973806
20
35.683448368868788
0
LWPOLYLINE
5
101
100
AcDbEntity
8
0
100
AcDbPolyline
90
4
70
1
43
0.0
10
-58.115914693077599
20
29.250035770446253
10
-44.150017989440073
20
28.27344513802846
10
-43.173427357022327
20
42.239341841666025
10
-57.139324060659852
20
43.215932474083793
0
LWPOLYLINE
5
102
100
AcDbEntity
8
0
100
AcDbPolyline
90
4
70
1
43
0.0
10
-77.06963164801428
20
30.575408771584641
10
-63.103734944376761
20
29.598818139166848
10
-62.127144311958979
20
43.564714842804413
10
-76.09304101559654
20
44.541305475222146
0
LWPOLYLINE
5
103
100
AcDbEntity
8
0
100
AcDbPolyline
90
4
70
1
43
0.0
10
-39.162197738140939
20
27.924662769307869
10
-25.196301034503378
20
26.948072136890147
10
-24.219710402085632
20
40.913968840527666
10
-38.185607105723157
20
41.890559472945426
0
LWPOLYLINE
5
104
100
AcDbEntity
8
0
100
AcDbPolyline
90
4
70
1
43
0.0
10
-64.429107945515142
20
10.645101184230199
10
-63.452517313097403
20
24.610997887867725
10
-77.418414016734928
20
25.587588520285493
10
-78.395004649152654
20
11.621691816647942
0
LWPOLYLINE
5
105
100
AcDbEntity
8
0
100
AcDbPolyline
90
4
70
1
43
0.0
10
-44.135880791815907
20
-28.866731621758003
10
-43.159290159398147
20
-14.900834918120466
10
-57.125186863035708
20
-13.92424428570272
10
-58.101777495453454
20
-27.89014098934026
0
LWPOLYLINE
5
106
100
AcDbEntity
8
0
100
AcDbPolyline
90
4
70
1
43
0.0
10
-42.810507790677519
20
-9.9130146668213417
10
-41.833917158259759
20
4.0528820368161842
10
-55.799813861897285
20
5.0294726692339502
10
-56.776404494315067
20
-8.9364240344035988
0
LWPOLYLINE
5
107
100
AcDbEntity
8
0
100
AcDbPolyline
90
4
70
1
43
0.0
10
-41.485134789539146
20
9.040702288115309
10
-40.508544157121371
20
23.00659899175286
10
-54.474440860758932
20
23.98318962417062
10
-55.451031493176679
20
10.017292920533077
0
LWPOLYLINE
5
108
100
AcDbEntity
8
0
100
AcDbPolyline
90
4
70
1
43
0.0
10
-25.321676784367465
20
-32.187232723416052
10
-24.345086151949729
20
-18.221336019778505
10
-38.310982855587277
20
-17.244745387360744
10
-39.287573488005016
20
-31.21064209099827
0
LWPOLYLINE
5
109
100
AcDbEntity
8
0
100
AcDbPolyline
90
4
70
1
43
0.0
10
-23.996303783229088
20
-13.233515768479363
10
-23.019713150811331
20
0.73238093515816216
10
-36.985609854448882
20
1.7089715675759254
10
-37.962200486866621
20
-12.256925136061618
0
LWPOLYLINE
5
110
100
AcDbEntity
8
0
100
AcDbPolyline
90
4
70
1
43
0.0
10
-22.670930782090707
20
5.7202011864572881
10
-21.694340149672943
20
19.686097890094835
10
-35.660236853310487
20
20.662688522512582
10
-36.63682748572824
20
6.6967918188750524
0
LWPOLYLINE
5
111
100
AcDbEntity
8
0
100
AcDbPolyline
90
4
70
1
43
0.0
10
-2.4999999999999831
20
2.5000000000000089
10
-2.4999999999999845
20
16.500000000000014
10
-16.499999999999986
20
16.500000000000014
10
-16.499999999999986
20
2.5000000000000093
0
LWPOLYLINE
5
112
100
AcDbEntity
8
0
100
AcDbPolyline
90
4
70
1
43
0.0
10
-2.4999999999999813
20
-16.499999999999979
10
-2.4999999999999822
20
-2.4999999999999911
10
-16.499999999999986
20
-2.4999999999999911
10
-16.499999999999986
20
-16.499999999999979
0
LWPOLYLINE
5
113
100
AcDbEntity
8
0
100
AcDbPolyline
90
4
70
1
43
0.0
10
-2.4999999999999805
20
-35.5
10
-2.4999999999999822
20
-21.499999999999993
10
-16.499999999999986
20
-21.499999999999993
10
-16.499999999999986
20
-35.5
0
LWPOLYLINE
5
114
100
AcDbEntity
8
0
100
AcDbPolyline
90
4
70
1
43
0.0
10
20.287573488005052
20
-27.210642090998284
10
19.310982855587294
20
-13.244745387360755
10
5.3450861519497472
20
-14.221336019778501
10
6.3216767843675026
20
-28.187232723416045
0
LWPOLYLINE
5
115
100
AcDbEntity
8
0
100
AcDbPolyline
90
4
70
1
43
0.0
10
18.962200486866671
20
-8.2569251360616303
10
17.98560985444891
20
5.7089715675759329
10
4.0197131508113593
20
4.7323809351581687
10
4.9963037832291146
20
-9.2335157684793767
0
LWPOLYLINE
5
116
100
AcDbEntity
8
0
100
AcDbPolyline
90
4
70
1
43
0.0
10
17.636827485728283
20
10.69679181887504
10
16.660236853310543
20
24.662688522512582
10
2.6943401496729869
20
23.686097890094835
10
3.6709307820907355
20
9.7202011864572935
0
LWPOLYLINE
5
117
100
AcDbEntity
8
0
100
AcDbPolyline
90
4
70
1
43
0.0
10
35.633954077009321
20
31.474262905969155
10
32.484639316195228
20
45.115443812962432
10
18.843458409201922
20
41.966129052148347
10
21.992773170016029
20
28.324948145155055
0
LWPOLYLINE
5
118
100
AcDbEntity
8
0
100
AcDbPolyline
90
4
70
1
43
0.0
10
39.908024109542772
20
12.961231675049667
10
36.758709348728658
20
26.602412582042973
10
23.117528441735359
20
23.453097821228866
10
26.26684320254947
20
9.8119169142355638
0
LWPOLYLINE
5
119
100
AcDbEntity
8
0
100
AcDbPolyline
90
4
70
1
43
0.0
10
44.182094142076203
20
-5.5517995558698008
10
41.032779381262088
20
8.0893813511235066
10
27.391598474268783
20
4.9400665903093799
10
30.540913235082911
20
-8.7011143166838991
0
LWPOLYLINE
5
120
100
AcDbEntity
8
0
100
AcDbPolyline
90
4
70
1
43
0.0
10
62.020272209964091
20
1.6453806710193408
10
58.870957449150005
20
15.286561578012648
10
45.229776542156721
20
12.137246817198548
10
48.379091302970785
20
-1.5039340897947788
0
LWPOLYLINE
5
121
100
AcDbEntity
8
0
100
AcDbPolyline
90
4
70
1
43
0.0
10
57.746202177430661
20
20.158411901938823
10
54.596887416616553
20
33.799592808932125
10
40.955706509623255
20
30.650278048118004
10
44.105021270437355
20
17.009097141124705
0
LWPOLYLINE
5
122
100
AcDbEntity
8
0
100
AcDbPolyline
90
4
70
1
43
0.0
10
53.472132144897245
20
38.671443132858315
10
50.322817384083145
20
52.312624039851592
10
36.681636477089832
20
49.163309279037492
10
39.830951237903939
20
35.522128372044193
0
LWPOLYLINE
5
123
100
AcDbEntity
8
0
100
AcDbPolyline
90
42
70
1
43
0.0
10
-61.900920310869651
20
-36.346535756723533
10
-58.992018837593577
20
5.2526933862545997
42
0.41421356237310142
10
-60.662072461496422
20
7.1738703135573889
10
-79.615789416433202
20
8.4992433146957946
42
-0.41421356237307283
10
-81.656966098593159
20
10.847348483408705
10
-79.215489517548676
20
45.762090242502644
42
-0.41421356237309859
10
-76.867384348835671
20
47.80326692466258
10
-74.213853090411448
20
47.617713943368535
10
-73.725422654252426
20
54.602594600498961
10
-25.802456549638659
20
51.251494361926397
10
-26.290886985797705
20
44.266613704795887
10
-21.053844369541068
20
43.900404010628755
10
-21.053844369541103
20
43.901296034812596
42
0.05936141711762969
10
5.8036441766243456
20
45.318736211272068
10
19.20262797198032
20
48.412135363026408
10
17.852921674955169
20
54.258355758441894
10
17.627970620611293
20
55.232725823227128
10
46.274450524329282
20
61.846286820713289
10
47.849107904736371
20
55.025696367216653
10
50.577344071615975
20
55.655559316027485
42
-0.4142135623731048
10
53.215850551571258
20
54.006837481889242
10
66.038060649171243
20
-1.5322562108694016
42
-0.41421356237309687
10
64.389338815032971
20
-4.1707626908247111
10
61.661102648153552
20
-4.8006256396354736
10
63.235760028560613
20
-11.621216093132123
10
34.589280124842617
20
-18.234777090618291
10
34.364329070498755
20
-17.260407025833054
10
33.014622715397415
20
-11.414186643825504
10
22.559576778662567
20
-13.827924187374077
10
24.134231495101414
20
-36.346535756723448
42
-0.43481237496093339
10
21.939590569664944
20
-38.700000014901136
10
15.700000014901185
20
-38.70000001490115
10
15.700000014901187
20
-45.700000014901157
10
-14.699999984105403
20
-45.700000014901157
10
-14.699999984105403
20
-44.700000014901164
10
-14.700000013907722
20
-38.70000001490115
10
-24.299999985098832
20
-38.70000001490115
10
-24.299999985098832
20
-45.700000014901157
10
-54.699999984105425
20
-45.700000014901157
10
-54.699999984105425
20
-44.700000014901164
10
-54.700000013907754
20
-38.700000014901136
10
-59.706279385433149
20
-38.700000014901178
42
-0.43481237496093039
0
ENDSEC
0
SECTION
2
OBJECTS
0
DICTIONARY
5
C
100
AcDbDictionary
3
ACAD_GROUP
350
D
3
ACAD_MLINESTYLE
350
17
0
DICTIONARY
5
D
100
AcDbDictionary
0
DICTIONARY
5
1A
330
C
100
AcDbDictionary
0
DICTIONARY
5
17
100
AcDbDictionary
0
ENDSEC
0
EOF
