<?xml version="1.0" encoding="UTF-8" ?>
 <svg viewBox="9 5.5  133.595 131.8" xmlns="http://www.w3.org/2000/svg" version="1.0" overflow="visible">
  <defs/>
  <g id="draft" transform="matrix(1 0 0 -1 0 0)" stroke-width="0.033174375">
   <g id="ID_0" color="rgb(0,0,0)" stroke="currentColor" fill="none" stroke-width="0.033174375">
    <line x1="126.316" y1="-123.584" x2="126.704" y2="-123.843"/>
    <line x1="126.704" y1="-123.843" x2="129" y2="-124.3"/>
    <line x1="129" y1="-124.3" x2="131.296" y2="-123.843"/>
    <line x1="131.296" y1="-123.843" x2="133.243" y2="-122.543"/>
    <line x1="133.243" y1="-122.543" x2="134.543" y2="-120.596"/>
    <line x1="134.543" y1="-120.596" x2="135" y2="-118.3"/>
    <line x1="135" y1="-118.3" x2="134.543" y2="-116.004"/>
    <line x1="134.543" y1="-116.004" x2="133.243" y2="-114.057"/>
    <line x1="133.243" y1="-114.057" x2="131.48" y2="-112.88"/>
    <line x1="131.48" y1="-112.88" x2="142.595" y2="-89.8391"/>
    <line x1="142.595" y1="-89.8391" x2="116" y2="-77"/>
    <line x1="116" y1="-77" x2="116" y2="-15.5123"/>
    <line x1="116" y1="-15.5123" x2="112.003" y2="-13.8566"/>
    <line x1="112.003" y1="-13.8566" x2="112.043" y2="-13.7961"/>
    <line x1="112.043" y1="-13.7961" x2="112.5" y2="-11.5"/>
    <line x1="112.5" y1="-11.5" x2="112.043" y2="-9.20389"/>
    <line x1="112.043" y1="-9.20389" x2="110.743" y2="-7.25735"/>
    <line x1="110.743" y1="-7.25735" x2="108.796" y2="-5.95671"/>
    <line x1="108.796" y1="-5.95671" x2="106.5" y2="-5.5"/>
    <line x1="106.5" y1="-5.5" x2="104.204" y2="-5.95671"/>
    <line x1="104.204" y1="-5.95671" x2="102.257" y2="-7.25735"/>
    <line x1="102.257" y1="-7.25735" x2="100.957" y2="-9.20389"/>
    <line x1="100.957" y1="-9.20389" x2="100.814" y2="-9.92154"/>
    <line x1="100.814" y1="-9.92154" x2="99.3995" y2="-9.47557"/>
    <line x1="99.3995" y1="-9.47557" x2="90.7121" y2="-7.54962"/>
    <line x1="90.7121" y1="-7.54962" x2="81.8899" y2="-6.38815"/>
    <line x1="81.8899" y1="-6.38815" x2="73" y2="-6"/>
    <line x1="73" y1="-6" x2="64.1101" y2="-6.38815"/>
    <line x1="64.1101" y1="-6.38815" x2="55.2879" y2="-7.54962"/>
    <line x1="55.2879" y1="-7.54962" x2="46.6005" y2="-9.47557"/>
    <line x1="46.6005" y1="-9.47557" x2="44.4974" y2="-10.1387"/>
    <line x1="44.4974" y1="-10.1387" x2="44.2426" y2="-9.75735"/>
    <line x1="44.2426" y1="-9.75735" x2="42.2961" y2="-8.45671"/>
    <line x1="42.2961" y1="-8.45671" x2="40" y2="-8"/>
    <line x1="40" y1="-8" x2="37.7039" y2="-8.45671"/>
    <line x1="37.7039" y1="-8.45671" x2="35.7574" y2="-9.75735"/>
    <line x1="35.7574" y1="-9.75735" x2="34.4567" y2="-11.7039"/>
    <line x1="34.4567" y1="-11.7039" x2="34.0313" y2="-13.8424"/>
    <line x1="34.0313" y1="-13.8424" x2="29.8929" y2="-15.5566"/>
    <line x1="29.8929" y1="-15.5566" x2="22" y2="-19.6654"/>
    <line x1="22" y1="-19.6654" x2="14.7957" y2="-24.255"/>
    <line x1="14.7957" y1="-24.255" x2="15.1645" y2="-24.7857"/>
    <line x1="15.1645" y1="-24.7857" x2="15" y2="-24.8"/>
    <line x1="15" y1="-24.8" x2="15" y2="-52"/>
    <line x1="15" y1="-52" x2="12.7039" y2="-52.4567"/>
    <line x1="12.7039" y1="-52.4567" x2="10.7574" y2="-53.7574"/>
    <line x1="10.7574" y1="-53.7574" x2="9.45671" y2="-55.7039"/>
    <line x1="9.45671" y1="-55.7039" x2="9" y2="-58"/>
    <line x1="9" y1="-58" x2="9.45671" y2="-60.2961"/>
    <line x1="9.45671" y1="-60.2961" x2="10.7574" y2="-62.2426"/>
    <line x1="10.7574" y1="-62.2426" x2="12.7039" y2="-63.5433"/>
    <line x1="12.7039" y1="-63.5433" x2="15" y2="-64"/>
    <line x1="15" y1="-64" x2="15" y2="-89"/>
    <line x1="15" y1="-89" x2="19.6006" y2="-91.1223"/>
    <line x1="19.6006" y1="-91.1223" x2="20.3143" y2="-90.8223"/>
    <line x1="20.3143" y1="-90.8223" x2="23.8986" y2="-89.6577"/>
    <line x1="23.8986" y1="-89.6577" x2="27.5679" y2="-88.7971"/>
    <line x1="27.5679" y1="-88.7971" x2="31.2962" y2="-88.2465"/>
    <line x1="31.2962" y1="-88.2465" x2="35.0576" y2="-88.0099"/>
    <line x1="35.0576" y1="-88.0099" x2="38.8256" y2="-88.0888"/>
    <line x1="38.8256" y1="-88.0888" x2="42.5737" y2="-88.4828"/>
    <line x1="42.5737" y1="-88.4828" x2="46.2758" y2="-89.1889"/>
    <line x1="46.2758" y1="-89.1889" x2="49.9058" y2="-90.2025"/>
    <line x1="49.9058" y1="-90.2025" x2="53.4382" y2="-91.5162"/>
    <line x1="53.4382" y1="-91.5162" x2="56.8483" y2="-93.1208"/>
    <line x1="56.8483" y1="-93.1208" x2="60.1122" y2="-95.0052"/>
    <line x1="60.1122" y1="-95.0052" x2="63.207" y2="-97.1562"/>
    <line x1="63.207" y1="-97.1562" x2="66.1109" y2="-99.5585"/>
    <line x1="66.1109" y1="-99.5585" x2="68.8036" y2="-102.195"/>
    <line x1="68.8036" y1="-102.195" x2="71.2662" y2="-105.048"/>
    <line x1="71.2662" y1="-105.048" x2="73.4814" y2="-108.097"/>
    <line x1="73.4814" y1="-108.097" x2="75.4338" y2="-111.321"/>
    <line x1="75.4338" y1="-111.321" x2="77.1095" y2="-114.697"/>
    <line x1="77.1095" y1="-114.697" x2="78.4969" y2="-118.201"/>
    <line x1="78.4969" y1="-118.201" x2="78.5289" y2="-118.307"/>
    <line x1="78.5289" y1="-118.307" x2="119.7" y2="-137.3"/>
    <line x1="119.7" y1="-137.3" x2="126.316" y2="-123.584"/>
    <line x1="105.314" y1="-14.364" x2="104.308" y2="-13.692"/>
    <line x1="104.308" y1="-13.692" x2="103.636" y2="-12.6863"/>
    <line x1="103.636" y1="-12.6863" x2="103.4" y2="-11.5"/>
    <line x1="103.4" y1="-11.5" x2="103.636" y2="-10.3137"/>
    <line x1="103.636" y1="-10.3137" x2="104.308" y2="-9.30797"/>
    <line x1="104.308" y1="-9.30797" x2="105.314" y2="-8.63597"/>
    <line x1="105.314" y1="-8.63597" x2="106.5" y2="-8.39999"/>
    <line x1="106.5" y1="-8.39999" x2="107.686" y2="-8.63597"/>
    <line x1="107.686" y1="-8.63597" x2="108.692" y2="-9.30797"/>
    <line x1="108.692" y1="-9.30797" x2="109.364" y2="-10.3137"/>
    <line x1="109.364" y1="-10.3137" x2="109.6" y2="-11.5"/>
    <line x1="109.6" y1="-11.5" x2="109.364" y2="-12.6863"/>
    <line x1="109.364" y1="-12.6863" x2="108.692" y2="-13.692"/>
    <line x1="108.692" y1="-13.692" x2="107.686" y2="-14.364"/>
    <line x1="107.686" y1="-14.364" x2="106.5" y2="-14.6"/>
    <line x1="106.5" y1="-14.6" x2="105.314" y2="-14.364"/>
    <line x1="38.8137" y1="-16.864" x2="37.808" y2="-16.192"/>
    <line x1="37.808" y1="-16.192" x2="37.136" y2="-15.1863"/>
    <line x1="37.136" y1="-15.1863" x2="36.9" y2="-14"/>
    <line x1="36.9" y1="-14" x2="37.136" y2="-12.8137"/>
    <line x1="37.136" y1="-12.8137" x2="37.808" y2="-11.808"/>
    <line x1="37.808" y1="-11.808" x2="38.8137" y2="-11.136"/>
    <line x1="38.8137" y1="-11.136" x2="40" y2="-10.9"/>
    <line x1="40" y1="-10.9" x2="41.1863" y2="-11.136"/>
    <line x1="41.1863" y1="-11.136" x2="42.192" y2="-11.808"/>
    <line x1="42.192" y1="-11.808" x2="42.864" y2="-12.8137"/>
    <line x1="42.864" y1="-12.8137" x2="43.1" y2="-14"/>
    <line x1="43.1" y1="-14" x2="42.864" y2="-15.1863"/>
    <line x1="42.864" y1="-15.1863" x2="42.192" y2="-16.192"/>
    <line x1="42.192" y1="-16.192" x2="41.1863" y2="-16.864"/>
    <line x1="41.1863" y1="-16.864" x2="40" y2="-17.1"/>
    <line x1="40" y1="-17.1" x2="38.8137" y2="-16.864"/>
    <line x1="61" y1="-28" x2="61" y2="-14"/>
    <line x1="61" y1="-14" x2="75" y2="-14"/>
    <line x1="75" y1="-14" x2="75" y2="-28"/>
    <line x1="75" y1="-28" x2="61" y2="-28"/>
    <line x1="42" y1="-34" x2="42" y2="-20"/>
    <line x1="42" y1="-20" x2="56" y2="-20"/>
    <line x1="56" y1="-20" x2="56" y2="-34"/>
    <line x1="56" y1="-34" x2="42" y2="-34"/>
    <line x1="80" y1="-35" x2="80" y2="-21"/>
    <line x1="80" y1="-21" x2="94" y2="-21"/>
    <line x1="94" y1="-21" x2="94" y2="-35"/>
    <line x1="94" y1="-35" x2="80" y2="-35"/>
    <line x1="99" y1="-37" x2="99" y2="-23"/>
    <line x1="99" y1="-23" x2="113" y2="-23"/>
    <line x1="113" y1="-23" x2="113" y2="-37"/>
    <line x1="113" y1="-37" x2="99" y2="-37"/>
    <line x1="23" y1="-46" x2="23" y2="-32"/>
    <line x1="23" y1="-32" x2="37" y2="-32"/>
    <line x1="37" y1="-32" x2="37" y2="-46"/>
    <line x1="37" y1="-46" x2="23" y2="-46"/>
    <line x1="61" y1="-47" x2="61" y2="-33"/>
    <line x1="61" y1="-33" x2="75" y2="-33"/>
    <line x1="75" y1="-33" x2="75" y2="-47"/>
    <line x1="75" y1="-47" x2="61" y2="-47"/>
    <line x1="42" y1="-53" x2="42" y2="-39"/>
    <line x1="42" y1="-39" x2="56" y2="-39"/>
    <line x1="56" y1="-39" x2="56" y2="-53"/>
    <line x1="56" y1="-53" x2="42" y2="-53"/>
    <line x1="80" y1="-54" x2="80" y2="-40"/>
    <line x1="80" y1="-40" x2="94" y2="-40"/>
    <line x1="94" y1="-40" x2="94" y2="-54"/>
    <line x1="94" y1="-54" x2="80" y2="-54"/>
    <line x1="99" y1="-56" x2="99" y2="-42"/>
    <line x1="99" y1="-42" x2="113" y2="-42"/>
    <line x1="113" y1="-42" x2="113" y2="-56"/>
    <line x1="113" y1="-56" x2="99" y2="-56"/>
    <line x1="23" y1="-65" x2="23" y2="-51"/>
    <line x1="23" y1="-51" x2="37" y2="-51"/>
    <line x1="37" y1="-51" x2="37" y2="-65"/>
    <line x1="37" y1="-65" x2="23" y2="-65"/>
    <line x1="61" y1="-66" x2="61" y2="-52"/>
    <line x1="61" y1="-52" x2="75" y2="-52"/>
    <line x1="75" y1="-52" x2="75" y2="-66"/>
    <line x1="75" y1="-66" x2="61" y2="-66"/>
    <line x1="13.8137" y1="-60.864" x2="12.808" y2="-60.192"/>
    <line x1="12.808" y1="-60.192" x2="12.136" y2="-59.1863"/>
    <line x1="12.136" y1="-59.1863" x2="11.9" y2="-58"/>
    <line x1="11.9" y1="-58" x2="12.136" y2="-56.8137"/>
    <line x1="12.136" y1="-56.8137" x2="12.808" y2="-55.808"/>
    <line x1="12.808" y1="-55.808" x2="13.8137" y2="-55.136"/>
    <line x1="13.8137" y1="-55.136" x2="15" y2="-54.9"/>
    <line x1="15" y1="-54.9" x2="16.1863" y2="-55.136"/>
    <line x1="16.1863" y1="-55.136" x2="17.192" y2="-55.808"/>
    <line x1="17.192" y1="-55.808" x2="17.864" y2="-56.8137"/>
    <line x1="17.864" y1="-56.8137" x2="18.1" y2="-58"/>
    <line x1="18.1" y1="-58" x2="17.864" y2="-59.1863"/>
    <line x1="17.864" y1="-59.1863" x2="17.192" y2="-60.192"/>
    <line x1="17.192" y1="-60.192" x2="16.1863" y2="-60.864"/>
    <line x1="16.1863" y1="-60.864" x2="15" y2="-61.1"/>
    <line x1="15" y1="-61.1" x2="13.8137" y2="-60.864"/>
    <line x1="42" y1="-72" x2="42" y2="-58"/>
    <line x1="42" y1="-58" x2="56" y2="-58"/>
    <line x1="56" y1="-58" x2="56" y2="-72"/>
    <line x1="56" y1="-72" x2="42" y2="-72"/>
    <line x1="80" y1="-73" x2="80" y2="-59"/>
    <line x1="80" y1="-59" x2="94" y2="-59"/>
    <line x1="94" y1="-59" x2="94" y2="-73"/>
    <line x1="94" y1="-73" x2="80" y2="-73"/>
    <line x1="99" y1="-75" x2="99" y2="-61"/>
    <line x1="99" y1="-61" x2="113" y2="-61"/>
    <line x1="113" y1="-61" x2="113" y2="-75"/>
    <line x1="113" y1="-75" x2="99" y2="-75"/>
    <line x1="23" y1="-84" x2="23" y2="-70"/>
    <line x1="23" y1="-70" x2="37" y2="-70"/>
    <line x1="37" y1="-70" x2="37" y2="-84"/>
    <line x1="37" y1="-84" x2="23" y2="-84"/>
    <line x1="80.4601" y1="-109.155" x2="80.0137" y2="-107.813"/>
    <line x1="80.0137" y1="-107.813" x2="83.2268" y2="-101.398"/>
    <line x1="83.2268" y1="-101.398" x2="84.569" y2="-100.951"/>
    <line x1="84.569" y1="-100.951" x2="86.1338" y2="-101.735"/>
    <line x1="86.1338" y1="-101.735" x2="87.4754" y2="-101.288"/>
    <line x1="87.4754" y1="-101.288" x2="93.1618" y2="-89.9325"/>
    <line x1="93.1618" y1="-89.9325" x2="92.7155" y2="-88.5903"/>
    <line x1="92.7155" y1="-88.5903" x2="91.1506" y2="-87.8067"/>
    <line x1="91.1506" y1="-87.8067" x2="90.7043" y2="-86.4645"/>
    <line x1="90.7043" y1="-86.4645" x2="93.9166" y2="-80.0499"/>
    <line x1="93.9166" y1="-80.0499" x2="95.2588" y2="-79.6036"/>
    <line x1="95.2588" y1="-79.6036" x2="109.342" y2="-86.6556"/>
    <line x1="109.342" y1="-86.6556" x2="109.788" y2="-87.9977"/>
    <line x1="109.788" y1="-87.9977" x2="109.525" y2="-88.5232"/>
    <line x1="109.525" y1="-88.5232" x2="109.863" y2="-89.8009"/>
    <line x1="109.863" y1="-89.8009" x2="110.201" y2="-91.08"/>
    <line x1="110.201" y1="-91.08" x2="109.298" y2="-92.8825"/>
    <line x1="109.298" y1="-92.8825" x2="108.072" y2="-93.3779"/>
    <line x1="108.072" y1="-93.3779" x2="106.846" y2="-93.8736"/>
    <line x1="106.846" y1="-93.8736" x2="98.8281" y2="-109.885"/>
    <line x1="98.8281" y1="-109.885" x2="99.1661" y2="-111.164"/>
    <line x1="99.1661" y1="-111.164" x2="99.5036" y2="-112.442"/>
    <line x1="99.5036" y1="-112.442" x2="98.6086" y2="-114.23"/>
    <line x1="98.6086" y1="-114.23" x2="97.3819" y2="-114.726"/>
    <line x1="97.3819" y1="-114.726" x2="96.1556" y2="-115.222"/>
    <line x1="96.1556" y1="-115.222" x2="95.885" y2="-115.76"/>
    <line x1="95.885" y1="-115.76" x2="94.5434" y2="-116.208"/>
    <line x1="94.5434" y1="-116.208" x2="80.4601" y2="-109.155"/>
    <line x1="100.958" y1="-119.344" x2="100.512" y2="-118.002"/>
    <line x1="100.512" y1="-118.002" x2="100.775" y2="-117.477"/>
    <line x1="100.775" y1="-117.477" x2="100.437" y2="-116.199"/>
    <line x1="100.437" y1="-116.199" x2="100.099" y2="-114.92"/>
    <line x1="100.099" y1="-114.92" x2="101.002" y2="-113.117"/>
    <line x1="101.002" y1="-113.117" x2="102.228" y2="-112.622"/>
    <line x1="102.228" y1="-112.622" x2="103.454" y2="-112.126"/>
    <line x1="103.454" y1="-112.126" x2="111.472" y2="-96.1151"/>
    <line x1="111.472" y1="-96.1151" x2="111.134" y2="-94.836"/>
    <line x1="111.134" y1="-94.836" x2="110.796" y2="-93.5578"/>
    <line x1="110.796" y1="-93.5578" x2="111.691" y2="-91.7698"/>
    <line x1="111.691" y1="-91.7698" x2="112.918" y2="-91.2744"/>
    <line x1="112.918" y1="-91.2744" x2="114.144" y2="-90.7782"/>
    <line x1="114.144" y1="-90.7782" x2="114.415" y2="-90.2395"/>
    <line x1="114.415" y1="-90.2395" x2="115.757" y2="-89.7923"/>
    <line x1="115.757" y1="-89.7923" x2="129.84" y2="-96.8451"/>
    <line x1="129.84" y1="-96.8451" x2="130.286" y2="-98.1873"/>
    <line x1="130.286" y1="-98.1873" x2="127.073" y2="-104.602"/>
    <line x1="127.073" y1="-104.602" x2="125.731" y2="-105.049"/>
    <line x1="125.731" y1="-105.049" x2="124.166" y2="-104.265"/>
    <line x1="124.166" y1="-104.265" x2="122.825" y2="-104.712"/>
    <line x1="122.825" y1="-104.712" x2="117.138" y2="-116.067"/>
    <line x1="117.138" y1="-116.067" x2="117.585" y2="-117.41"/>
    <line x1="117.585" y1="-117.41" x2="119.149" y2="-118.193"/>
    <line x1="119.149" y1="-118.193" x2="119.596" y2="-119.535"/>
    <line x1="119.596" y1="-119.535" x2="116.383" y2="-125.95"/>
    <line x1="116.383" y1="-125.95" x2="115.041" y2="-126.396"/>
    <line x1="115.041" y1="-126.396" x2="100.958" y2="-119.344"/>
    <line x1="127.814" y1="-121.164" x2="126.808" y2="-120.492"/>
    <line x1="126.808" y1="-120.492" x2="126.136" y2="-119.486"/>
    <line x1="126.136" y1="-119.486" x2="125.9" y2="-118.3"/>
    <line x1="125.9" y1="-118.3" x2="126.136" y2="-117.114"/>
    <line x1="126.136" y1="-117.114" x2="126.808" y2="-116.108"/>
    <line x1="126.808" y1="-116.108" x2="127.814" y2="-115.436"/>
    <line x1="127.814" y1="-115.436" x2="129" y2="-115.2"/>
    <line x1="129" y1="-115.2" x2="130.186" y2="-115.436"/>
    <line x1="130.186" y1="-115.436" x2="131.192" y2="-116.108"/>
    <line x1="131.192" y1="-116.108" x2="131.864" y2="-117.114"/>
    <line x1="131.864" y1="-117.114" x2="132.1" y2="-118.3"/>
    <line x1="132.1" y1="-118.3" x2="131.864" y2="-119.486"/>
    <line x1="131.864" y1="-119.486" x2="131.192" y2="-120.492"/>
    <line x1="131.192" y1="-120.492" x2="130.186" y2="-121.164"/>
    <line x1="130.186" y1="-121.164" x2="129" y2="-121.4"/>
    <line x1="129" y1="-121.4" x2="127.814" y2="-121.164"/>
   </g>
  </g>
 </svg>