<?xml version="1.0" standalone="no"?>
<!DOCTYPE svg PUBLIC "-//W3C//DTD SVG 1.1//EN"
  "http://www.w3.org/Graphics/SVG/1.1/DTD/svg11.dtd">
<svg width="161.63999938964844mm" height="131.13999938964844mm" viewBox="-77.63999938964844 -80.13999938964844 161.63999938964844 131.13999938964844" xmlns="http://www.w3.org/2000/svg" version="1.1">
	<title>svgOutput</title>
	<desc>made with tinkercad</desc>
<path d="M -15.800000190734863 -79.1050033569336 L -15.494000434875488 -79.11209106445312 L -15.04699993133545 -79.12245178222656 L -14.493000030517578 -79.13529205322266 L -14.289999961853027 -79.13999938964844 L -8.192000389099121 -79.13999938964844 L -0.4880000054836273 -79.13999938964844 L 0 -79.13999938964844 L 0.06499999761581421 -79.13999938964844 L 0.0689999982714653 -79.13999938964844 L 3.9600000381469727 -79.13999938964844 L 8.192000389099121 -79.13999938964844 L 16.384000778198242 -79.13999938964844 L 24.576000213623047 -79.13999938964844 L 26.60536766052246 -79.13999938964844 L 29.586360931396484 -79.13999938964844 L 32.768001556396484 -77.37642669677734 L 34.83399963378906 -76.23124694824219 L 38.72600173950195 -74.07391357421875 L 39.350059509277344 -73.72799682617188 L 40.959999084472656 -72.83561706542969 L 41.27899932861328 -72.6587905883789 L 41.27899932861328 -71.68000030517578 L 41.27899932861328 -69.63200378417969 L 41.27899932861328 -67.58399963378906 L 41.27899932861328 -65.53600311279297 L 41.27899932861328 -63.487998962402344 L 41.27899932861328 -61.439998626708984 L 41.27899932861328 -59.391998291015625 L 41.27899932861328 -57.34400177001953 L 41.27899932861328 -55.29600143432617 L 41.27899932861328 -53.24800109863281 L 41.27899932861328 -51.20000076293945 L 41.27899932861328 -49.152000427246094 L 41.27899932861328 -47.104000091552734 L 41.27899932861328 -45.055999755859375 L 41.27899932861328 -44.11723327636719 L 42.3447380065918 -43.051998138427734 L 42.856998443603516 -43.051998138427734 L 49.152000427246094 -43.051998138427734 L 57.34400177001953 -43.051998138427734 L 58.6870002746582 -43.051998138427734 L 59.26545715332031 -43.051998138427734 L 60.68199920654297 -41.63555908203125 L 61.8849983215332 -40.43264389038086 L 61.8849983215332 -30.329357147216797 L 61.8849983215332 -24.503999710083008 L 61.8849983215332 0.1071838140487672 L 61.8849983215332 0.5149754881858827 L 61.8849983215332 1.209905982017517 L 63.46200180053711 2.73225736618042 L 63.64508819580078 2.9089999198913574 L 63.909000396728516 2.9089999198913574 L 64.1510009765625 2.9089999198913574 L 65.03424072265625 2.9089999198913574 L 65.53600311279297 2.9089999198913574 L 67.33100128173828 2.9089999198913574 L 69.28500366210938 2.9089999198913574 L 69.92987823486328 2.9089999198913574 L 71.22200012207031 3.113591432571411 L 71.25843048095703 3.1193599700927734 L 71.56678009033203 3.1681835651397705 L 71.79000091552734 3.2538931369781494 L 72.05089569091797 3.3540706634521484 L 72.8540267944336 3.8365731239318848 L 73.72799682617188 4.710605144500732 L 73.94420623779297 4.926823616027832 L 74.36100006103516 5.781451225280762 L 74.41473388671875 5.891632556915283 L 74.50199890136719 6.755000114440918 L 74.9209976196289 8.093000411987305 L 74.97570037841797 8.192000389099121 L 75.5989990234375 9.319999694824219 L 76.51000213623047 10.38599967956543 L 81.11100006103516 13.109999656677246 L 81.83300018310547 13.699000358581543 L 81.91999816894531 13.810251235961914 L 82.40699768066406 14.432999610900879 L 82.802001953125 15.277000427246094 L 83 16.187000274658203 L 82.99788665771484 16.384000778198242 L 82.98999786376953 17.118999481201172 L 82.77400207519531 18.024999618530273 L 82.36100006103516 18.860000610351562 L 81.91999816894531 19.630104064941406 L 81.43331146240234 20.479999542236328 L 79.08773803710938 24.576000213623047 L 74.39659118652344 32.768001556396484 L 73.72799682617188 33.9355354309082 L 72.05101776123047 36.86399841308594 L 71.22200012207031 38.31168746948242 L 69.7054443359375 40.959999084472656 L 67.33100128173828 45.10641860961914 L 65.61100006103516 48.11000061035156 L 65.53600311279297 48.202064514160156 L 65.02200317382812 48.83300018310547 L 64.61336517333984 49.152000427246094 L 64.28800201416016 49.40599822998047 L 64.1510009765625 49.470279693603516 L 63.909000396728516 49.583824157714844 L 63.444000244140625 49.801998138427734 L 62.534000396728516 50 L 61.60200119018555 49.9900016784668 L 60.69599914550781 49.77299880981445 L 60.68199920654297 49.766075134277344 L 60.25899887084961 49.556854248046875 L 59.861000061035156 49.36000061035156 L 59.50461959838867 49.152000427246094 L 58.6870002746582 48.6748046875 L 57.34400177001953 47.89097213745117 L 49.152000427246094 43.109764099121094 L 38.72600173950195 37.02470397949219 L 34.83399963378906 34.7531623840332 L 34.47983932495117 34.54645919799805 L 32.768001556396484 33.54735565185547 L 31.432668685913086 32.768001556396484 L 30.745283126831055 32.3668098449707 L 26.527225494384766 29.904972076416016 L 19.51099967956543 25.809999465942383 L 17.766000747680664 24.88599967956543 L 15.876999855041504 24.312000274658203 L 13.913000106811523 24.11199951171875 L 3.9600000381469727 24.111249923706055 L 3.9570000171661377 24.111249923706055 L 0.0689999982714653 24.110958099365234 L 0.06499999761581421 24.1109561920166 L 0 24.110952377319336 L -12.640000343322754 24.110000610351562 L -15.04699993133545 24.251134872436523 L -15.454000473022461 24.274999618530273 L -15.494000434875488 24.282060623168945 L -18.229999542236328 24.764999389648438 L -18.691999435424805 24.903600692749023 L -18.93899917602539 24.977699279785156 L -20.93000030517578 25.575000762939453 L -32.768001556396484 30.148529052734375 L -33.04100036621094 30.253999710083008 L -35.9900016784668 30.867000579833984 L -38.5880012512207 31.188491821289062 L -38.97999954223633 31.23699951171875 L -41.9900016784668 31.360000610351562 L -43.90800094604492 31.360000610351562 L -47.30799865722656 31.360000610351562 L -49.152000427246094 31.360000610351562 L -52.59299850463867 31.360000610351562 L -53.130001068115234 31.360000610351562 L -53.268001556396484 31.360000610351562 L -57.02199935913086 31.360000610351562 L -57.15999984741211 31.360000610351562 L -57.5880012512207 31.360000610351562 L -62.95800018310547 31.360000610351562 L -65.53600311279297 31.360000610351562 L -71.59300231933594 31.360000610351562 L -72.63999938964844 31.360000610351562 L -73.52999877929688 31.260000228881836 L -74.375 30.964000701904297 L -75.13400268554688 30.488000869750977 L -75.76699829101562 29.854000091552734 L -76.24400329589844 29.09600067138672 L -76.53900146484375 28.25 L -76.63999938964844 27.360000610351562 L -76.63999938964844 25.67300033569336 L -76.63999938964844 24.576000213623047 L -76.63999938964844 16.384000778198242 L -76.63999938964844 8.192000389099121 L -76.63999938964844 1.1102230246251565e-16 L -76.63999938964844 -8.192000389099121 L -76.63999938964844 -12.427000045776367 L -76.63999938964844 -16.384000778198242 L -76.63999938964844 -24.576000213623047 L -76.63999938964844 -25.43600082397461 L -76.63999938964844 -27.777956008911133 L -76.63999938964844 -30.568357467651367 L -76.63999938964844 -32.768001556396484 L -76.63999938964844 -40.959999084472656 L -76.63999938964844 -49.152000427246094 L -76.63999938964844 -57.34400177001953 L -76.63999938964844 -64.63999938964844 L -76.5530014038086 -65.46900177001953 L -76.53128814697266 -65.53600311279297 L -76.2959976196289 -66.26200103759766 L -75.87999725341797 -66.98500061035156 L -75.3239974975586 -67.60600280761719 L -74.6500015258789 -68.0979995727539 L -73.88999938964844 -68.44000244140625 L -65.53600311279297 -70.01488494873047 L -57.15999984741211 -71.59392547607422 L -53.268001556396484 -72.32763671875 L -53.130001068115234 -72.35365295410156 L -33.49300003051758 -76.05560302734375 L -32.768001556396484 -76.19227600097656 L -24.576000213623047 -77.73662567138672 L -18.93899917602539 -78.79930114746094 L -18.808000564575195 -78.8239974975586 L -18.691999435424805 -78.83753204345703 L -17.308000564575195 -78.9990005493164 L -16.384000778198242 -79.06394958496094 L -15.800000190734863 -79.1050033569336 M 60.943206787109375 46.412635803222656 L 60.922000885009766 46.54499816894531 L 60.98400115966797 46.93199920654297 L 61.04473876953125 47.051090240478516 L 61.07172393798828 47.104000091552734 L 61.1619987487793 47.28099822998047 L 61.35599899291992 47.474998474121094 L 61.43899917602539 47.55799865722656 L 61.78799819946289 47.736000061035156 L 62.17499923706055 47.797000885009766 L 62.5620002746582 47.736000061035156 L 62.9109992980957 47.55799865722656 L 62.99399948120117 47.474998474121094 L 63.158180236816406 47.31081771850586 L 63.1879997253418 47.28099822998047 L 63.27827453613281 47.104000091552734 L 63.32600021362305 47.01042556762695 L 63.36600112915039 46.93199920654297 L 63.426998138427734 46.54499816894531 L 63.36600112915039 46.15800094604492 L 63.32600021362305 46.079349517822266 L 63.281368255615234 45.9915885925293 L 63.266998291015625 45.9010009765625 L 63.09600067138672 45.566001892089844 L 62.83000183105469 45.29999923706055 L 62.494998931884766 45.12900161743164 L 62.12300109863281 45.06999969482422 L 61.75199890136719 45.12900161743164 L 61.439998626708984 45.287784576416016 L 61.41600036621094 45.29999923706055 L 61.150001525878906 45.566001892089844 L 60.97999954223633 45.9010009765625 L 60.92100143432617 46.27299880981445 L 60.922000885009766 46.27928924560547 L 60.92207717895508 46.279762268066406 L 60.943206787109375 46.412635803222656 M 18.43199920654297 -13.592000007629395 L 16.384000778198242 -13.592000007629395 L 15.078356742858887 -13.592000007629395 L 14.771432876586914 -13.592000007629395 L 14.468125343322754 -13.592000007629395 L 14.126619338989258 -13.592000007629395 L 13.574010848999023 -13.592000007629395 L 12.288000106811523 -13.592000007629395 L 9.997115135192871 -13.592000007629395 L 9.686687469482422 -13.592000007629395 L 9.377991676330566 -13.592000007629395 L 9.03245735168457 -13.592000007629395 L 8.464838981628418 -13.592000007629395 L 8.192000389099121 -13.592000007629395 L 4.519999980926514 -13.592000007629395 L 4.519999980926514 -12.288000106811523 L 4.519999980926514 -9.183634757995605 L 4.519999980926514 -8.296647071838379 L 4.519999980926514 -8.192000389099121 L 4.519999980926514 -6.73799991607666 L 4.519999980926514 -6.2317657470703125 L 4.519999980926514 -6.144000053405762 L 4.519999980926514 -4.0960001945495605 L 4.519999980926514 1.1102230246251565e-16 L 4.519999980926514 0.412999987602234 L 8.192000389099121 0.412999987602234 L 16.384000778198242 0.412999987602234 L 18.524999618530273 0.412999987602234 L 18.524999618530273 1.1102230246251565e-16 L 18.524999618530273 -4.0960001945495605 L 18.524999618530273 -5.422597885131836 L 18.524999618530273 -5.914999961853027 L 18.524999618530273 -6.144000053405762 L 18.524999618530273 -8.192000389099121 L 18.524999618530273 -12.288000106811523 L 18.524999618530273 -13.312000274658203 L 18.524999618530273 -13.592000007629395 L 18.43199920654297 -13.592000007629395 M 4.565000057220459 -25.846689224243164 L 4.565000057220459 -24.576000213623047 L 4.565000057220459 -18.70800018310547 L 8.192000389099121 -18.70800018310547 L 16.384000778198242 -18.70800018310547 L 18.56999969482422 -18.70800018310547 L 18.56999969482422 -24.576000213623047 L 18.56999969482422 -26.624000549316406 L 18.56999969482422 -28.672000885009766 L 18.56999969482422 -30.719999313354492 L 18.56999969482422 -31.743999481201172 L 18.56999969482422 -32.7130012512207 L 18.43199920654297 -32.7130012512207 L 16.384000778198242 -32.7130012512207 L 15.84495735168457 -32.7130012512207 L 15.415606498718262 -32.7130012512207 L 15.05180835723877 -32.7130012512207 L 14.723478317260742 -32.7130012512207 L 14.389967918395996 -32.7130012512207 L 13.996317863464355 -32.7130012512207 L 13.307947158813477 -32.7130012512207 L 12.288000106811523 -32.7130012512207 L 10.331891059875488 -32.7130012512207 L 9.970516204833984 -32.7130012512207 L 9.638351440429688 -32.7130012512207 L 9.29865550994873 -32.7130012512207 L 8.899788856506348 -32.7130012512207 L 8.192000389099121 -32.7130012512207 L 4.565000057220459 -32.7130012512207 L 4.565000057220459 -30.398784637451172 L 4.565000057220459 -29.14620590209961 L 4.565000057220459 -28.672000885009766 L 4.565000057220459 -26.624000549316406 L 4.565000057220459 -25.846689224243164 M 27.24143409729004 -12.071999549865723 L 24.576000213623047 -12.071999549865723 L 23.65999984741211 -12.071999549865723 L 23.65999984741211 -8.192000389099121 L 23.65999984741211 -4.0960001945495605 L 23.65999984741211 1.1102230246251565e-16 L 23.65999984741211 1.9329999685287476 L 24.576000213623047 1.9329999685287476 L 28.892000198364258 1.9329999685287476 L 32.768001556396484 1.9329999685287476 L 34.83399963378906 1.9329999685287476 L 37.665000915527344 1.9329999685287476 L 37.665000915527344 1.1102230246251565e-16 L 37.665000915527344 -4.0960001945495605 L 37.665000915527344 -8.192000389099121 L 37.665000915527344 -12.071999549865723 L 36.86399841308594 -12.071999549865723 L 34.83399963378906 -12.071999549865723 L 34.466087341308594 -12.071999549865723 L 34.10330581665039 -12.071999549865723 L 33.776180267333984 -12.071999549865723 L 33.440895080566406 -12.071999549865723 L 33.051822662353516 -12.071999549865723 L 32.768001556396484 -12.071999549865723 L 29.38726043701172 -12.071999549865723 L 29.01889991760254 -12.071999549865723 L 28.688669204711914 -12.071999549865723 L 28.672000885009766 -12.071999549865723 L 27.95726203918457 -12.071999549865723 L 27.24143409729004 -12.071999549865723 M 33.4775505065918 27.779714584350586 L 34.582096099853516 28.392009735107422 L 34.83399963378906 28.531648635864258 L 36.45130157470703 29.428184509277344 L 38.38673782348633 30.501073837280273 L 38.72600173950195 30.68914031982422 L 40.959999084472656 31.927536010742188 L 41.308998107910156 32.12099838256836 L 43.22104263305664 28.672000885009766 L 44.356407165527344 26.624000549316406 L 45.055999755859375 25.36205291748047 L 45.49176788330078 24.576000213623047 L 46.627132415771484 22.527999877929688 L 47.104000091552734 21.667810440063477 L 47.1948127746582 21.503999710083008 L 47.35517501831055 21.21473503112793 L 47.76249313354492 20.479999542236328 L 48.0989990234375 19.87299919128418 L 45.055999755859375 18.186281204223633 L 44.65049362182617 17.961511611938477 L 43.71719741821289 17.444190979003906 L 42.371158599853516 16.698087692260742 L 41.80451202392578 16.384000778198242 L 39.92837905883789 15.34406852722168 L 39.51365280151367 15.114188194274902 L 38.72600173950195 14.677597045898438 L 38.692344665527344 14.658941268920898 L 35.85100173950195 13.083999633789062 L 35.6800422668457 13.392423629760742 L 35.17448806762695 14.30449390411377 L 34.83399963378906 14.918764114379883 L 34.021827697753906 16.384000778198242 L 32.88663101196289 18.43199920654297 L 32.768001556396484 18.646024703979492 L 29.062000274658203 25.332000732421875 L 32.768001556396484 27.386383056640625 L 33.4775505065918 27.779714584350586 M -54.64899826049805 21.128000259399414 L -55.020999908447266 21.06999969482422 L -55.393001556396484 21.128000259399414 L -55.72800064086914 21.298999786376953 L -55.99399948120117 21.565000534057617 L -56.165000915527344 21.899999618530273 L -56.2239990234375 22.27199935913086 L -56.18339920043945 22.527999877929688 L -56.165000915527344 22.643999099731445 L -55.99399948120117 22.979000091552734 L -55.72800064086914 23.2450008392334 L -55.393001556396484 23.416000366210938 L -55.020999908447266 23.475000381469727 L -54.64899826049805 23.416000366210938 L -54.31399917602539 23.2450008392334 L -54.04800033569336 22.979000091552734 L -53.87699890136719 22.643999099731445 L -53.85891342163086 22.527999877929688 L -53.819000244140625 22.27199935913086 L -53.87699890136719 21.899999618530273 L -54.04800033569336 21.565000534057617 L -54.31399917602539 21.298999786376953 L -54.64899826049805 21.128000259399414 M -0.4880000054836273 -30.719999313354492 L -0.4880000054836273 -32.768001556396484 L -0.4880000054836273 -35.85200119018555 L -2.699172019958496 -35.85200119018555 L -3.209301471710205 -35.85200119018555 L -3.630065679550171 -35.85200119018555 L -3.9847304821014404 -35.85200119018555 L -4.0960001945495605 -35.85200119018555 L -4.987613677978516 -35.85200119018555 L -5.607147216796875 -35.85200119018555 L -8.192000389099121 -35.85200119018555 L -9.387140274047852 -35.85200119018555 L -9.7111177444458 -35.85200119018555 L -10.082942962646484 -35.85200119018555 L -10.720269203186035 -35.85200119018555 L -12.288000106811523 -35.85200119018555 L -14.493000030517578 -35.85200119018555 L -14.493000030517578 -32.768001556396484 L -14.493000030517578 -30.719999313354492 L -14.493000030517578 -30.367244720458984 L -14.493000030517578 -29.87700080871582 L -14.493000030517578 -29.43821907043457 L -14.493000030517578 -28.978580474853516 L -14.493000030517578 -28.672000885009766 L -14.493000030517578 -24.576000213623047 L -14.493000030517578 -22.70199966430664 L -14.493000030517578 -21.98140525817871 L -14.493000030517578 -21.847000122070312 L -14.24633502960205 -21.847000122070312 L -0.4880000054836273 -21.847000122070312 L -0.4880000054836273 -22.70199966430664 L -0.4880000054836273 -24.576000213623047 L -0.4880000054836273 -27.003990173339844 L -0.4880000054836273 -27.640975952148438 L -0.4880000054836273 -28.139999389648438 L -0.4880000054836273 -28.587560653686523 L -0.4880000054836273 -28.672000885009766 L -0.4880000054836273 -30.719999313354492 M 28.892000198364258 -17.187999725341797 L 32.768001556396484 -17.187999725341797 L 34.83399963378906 -17.187999725341797 L 37.689998626708984 -17.187999725341797 L 37.689998626708984 -20.479999542236328 L 37.689998626708984 -24.576000213623047 L 37.689998626708984 -28.672000885009766 L 37.689998626708984 -31.19300079345703 L 34.83399963378906 -31.19300079345703 L 34.457550048828125 -31.19300079345703 L 34.07675552368164 -31.19300079345703 L 33.72822570800781 -31.19300079345703 L 33.362422943115234 -31.19300079345703 L 32.92152404785156 -31.19300079345703 L 32.768001556396484 -31.19300079345703 L 29.37877082824707 -31.19300079345703 L 28.992095947265625 -31.19300079345703 L 28.672000885009766 -31.19300079345703 L 27.824594497680664 -31.19300079345703 L 26.964380264282227 -31.19300079345703 L 24.576000213623047 -31.19300079345703 L 23.684999465942383 -31.19300079345703 L 23.684999465942383 -28.672000885009766 L 23.684999465942383 -24.576000213623047 L 23.684999465942383 -17.187999725341797 L 24.576000213623047 -17.187999725341797 L 28.892000198364258 -17.187999725341797 M -5.419778823852539 2.2980000972747803 L -8.192000389099121 2.2980000972747803 L -8.707592010498047 2.2980000972747803 L -9.04726505279541 2.2980000972747803 L -9.353100776672363 2.2980000972747803 L -9.65524673461914 2.2980000972747803 L -9.989514350891113 2.2980000972747803 L -10.527257919311523 2.2980000972747803 L -14.493000030517578 2.2980000972747803 L -14.493000030517578 2.4248759746551514 L -14.493000030517578 3.4545845985412598 L -14.493000030517578 4.0960001945495605 L -14.493000030517578 7.541494369506836 L -14.493000030517578 8.192000389099121 L -14.493000030517578 8.222999572753906 L -14.493000030517578 8.66178035736084 L -14.493000030517578 9.070150375366211 L -14.493000030517578 12.288000106811523 L -14.493000030517578 12.354000091552734 L -14.493000030517578 16.30299949645996 L -9.208000183105469 16.30299949645996 L -8.192000389099121 16.30299949645996 L -5.808000087738037 16.30299949645996 L -0.4880000054836273 16.30299949645996 L -0.4880000054836273 12.354000091552734 L -0.4880000054836273 12.288000106811523 L -0.4880000054836273 10.239999771118164 L -0.4880000054836273 8.192000389099121 L -0.4880000054836273 6.144000053405762 L -0.4880000054836273 4.0960001945495605 L -0.4880000054836273 2.2980000972747803 L -3.215216875076294 2.2980000972747803 L -3.6240546703338623 2.2980000972747803 L -3.9660348892211914 2.2980000972747803 L -4.268435955047607 2.2980000972747803 L -4.565362930297852 2.2980000972747803 L -4.895852088928223 2.2980000972747803 L -5.419778823852539 2.2980000972747803 M 18.55500030517578 5.248000144958496 L 16.384000778198242 5.248000144958496 L 14.236955642700195 5.248000144958496 L 13.74122142791748 5.248000144958496 L 12.787063598632812 5.248000144958496 L 12.288000106811523 5.248000144958496 L 10.31489372253418 5.248000144958496 L 9.918440818786621 5.248000144958496 L 9.543723106384277 5.248000144958496 L 9.143336296081543 5.248000144958496 L 8.640057563781738 5.248000144958496 L 8.192000389099121 5.248000144958496 L 4.550000190734863 5.248000144958496 L 4.550000190734863 7.70878267288208 L 4.550000190734863 8.192000389099121 L 4.550000190734863 8.400535583496094 L 4.550000190734863 9.118880271911621 L 4.550000190734863 9.84826946258545 L 4.550000190734863 10.239999771118164 L 4.550000190734863 12.288000106811523 L 4.550000190734863 16.384000778198242 L 4.550000190734863 17.078115463256836 L 4.550000190734863 19.253000259399414 L 8.276394844055176 19.253000259399414 L 13.241999626159668 19.253000259399414 L 18.55500030517578 19.253000259399414 L 18.55500030517578 16.384000778198242 L 18.55500030517578 13.63475513458252 L 18.55500030517578 13.135000228881836 L 18.55500030517578 12.689146041870117 L 18.55500030517578 12.288000106811523 L 18.55500030517578 10.239999771118164 L 18.55500030517578 8.192000389099121 L 18.55500030517578 7.168000221252441 L 18.55500030517578 6.144000053405762 L 18.55500030517578 5.248000144958496 M 21.788000106811523 -36.72800064086914 L 21.923999786376953 -36.86399841308594 L 22.065000534057617 -37.005001068115234 L 22.243000030517578 -37.354000091552734 L 22.304000854492188 -37.74100112915039 L 22.243000030517578 -38.12799835205078 L 22.065000534057617 -38.47700119018555 L 21.788000106811523 -38.75400161743164 L 21.43899917602539 -38.93199920654297 L 21.052000045776367 -38.99399948120117 L 20.665000915527344 -38.93199920654297 L 20.479999542236328 -38.837913513183594 L 20.315000534057617 -38.75400161743164 L 20.038000106811523 -38.47700119018555 L 19.860000610351562 -38.12799835205078 L 19.798999786376953 -37.74100112915039 L 19.860000610351562 -37.354000091552734 L 20.038000106811523 -37.005001068115234 L 20.179000854492188 -36.86399841308594 L 20.315000534057617 -36.72800064086914 L 20.479999542236328 -36.64408493041992 L 20.665000915527344 -36.54999923706055 L 21.052000045776367 -36.48899841308594 L 21.43899917602539 -36.54999923706055 L 21.788000106811523 -36.72800064086914 M 35.691001892089844 4.843999862670898 L 35.63199996948242 5.215000152587891 L 35.691001892089844 5.586999893188477 L 35.86199951171875 5.921999931335449 L 36.12799835205078 6.188000202178955 L 36.4630012512207 6.359000205993652 L 36.83399963378906 6.418000221252441 L 36.86399841308594 6.413241863250732 L 37.20600128173828 6.359000205993652 L 37.54100036621094 6.188000202178955 L 37.80699920654297 5.921999931335449 L 37.97800064086914 5.586999893188477 L 38.0369987487793 5.215000152587891 L 37.97800064086914 4.843999862670898 L 37.80699920654297 4.507999897003174 L 37.54100036621094 4.242000102996826 L 37.2532958984375 4.0960001945495605 L 37.20600128173828 4.072000026702881 L 36.83399963378906 4.013000011444092 L 36.4630012512207 4.072000026702881 L 36.415706634521484 4.0960001945495605 L 36.12799835205078 4.242000102996826 L 35.86199951171875 4.507999897003174 L 35.691001892089844 4.843999862670898 M 4.501999855041504 -47.27277755737305 L 4.501999855041504 -47.104000091552734 L 4.501999855041504 -45.055999755859375 L 4.501999855041504 -44.92970657348633 L 4.501999855041504 -40.959999084472656 L 4.501999855041504 -37.74700164794922 L 8.192000389099121 -37.74700164794922 L 16.384000778198242 -37.74700164794922 L 18.506999969482422 -37.74700164794922 L 18.506999969482422 -40.959999084472656 L 18.506999969482422 -43.527008056640625 L 18.506999969482422 -45.055999755859375 L 18.506999969482422 -49.152000427246094 L 18.506999969482422 -50.17599868774414 L 18.506999969482422 -51.20000076293945 L 18.506999969482422 -51.75199890136719 L 16.384000778198242 -51.75199890136719 L 14.402076721191406 -51.75199890136719 L 14.016505241394043 -51.75199890136719 L 13.34916877746582 -51.75199890136719 L 12.288000106811523 -51.75199890136719 L 10.333236694335938 -51.75199890136719 L 9.974637031555176 -51.75199890136719 L 9.645840644836426 -51.75199890136719 L 9.31094741821289 -51.75199890136719 L 8.920342445373535 -51.75199890136719 L 8.23322582244873 -51.75199890136719 L 8.192000389099121 -51.75199890136719 L 4.501999855041504 -51.75199890136719 L 4.501999855041504 -49.41699981689453 L 4.501999855041504 -49.152000427246094 L 4.501999855041504 -48.7462043762207 L 4.501999855041504 -48.01594161987305 L 4.501999855041504 -47.27277755737305 M -0.4880000054836273 -47.104000091552734 L -0.4880000054836273 -49.152000427246094 L -0.4880000054836273 -51.20000076293945 L -0.4880000054836273 -53.24800109863281 L -0.4880000054836273 -54.85200119018555 L -3.6240546703338623 -54.85200119018555 L -3.9660348892211914 -54.85200119018555 L -4.268435955047607 -54.85200119018555 L -4.565362930297852 -54.85200119018555 L -4.895852088928223 -54.85200119018555 L -5.419778823852539 -54.85200119018555 L -8.192000389099121 -54.85200119018555 L -8.707592010498047 -54.85200119018555 L -9.04726505279541 -54.85200119018555 L -9.353100776672363 -54.85200119018555 L -9.65524673461914 -54.85200119018555 L -9.989514350891113 -54.85200119018555 L -10.527257919311523 -54.85200119018555 L -14.493000030517578 -54.85200119018555 L -14.493000030517578 -54.72512435913086 L -14.493000030517578 -53.69541549682617 L -14.493000030517578 -53.24800109863281 L -14.493000030517578 -49.60850524902344 L -14.493000030517578 -49.152000427246094 L -14.493000030517578 -48.926998138427734 L -14.493000030517578 -48.48822021484375 L -14.493000030517578 -48.07984924316406 L -14.493000030517578 -45.055999755859375 L -14.493000030517578 -40.959999084472656 L -14.493000030517578 -40.84700012207031 L -8.192000389099121 -40.84700012207031 L -0.4880000054836273 -40.84700012207031 L -0.4880000054836273 -40.959999084472656 L -0.4880000054836273 -41.79600143432617 L -0.4880000054836273 -44.79600143432617 L -0.4880000054836273 -45.055999755859375 L -0.4880000054836273 -47.104000091552734 M -54.779998779296875 -56.374000549316406 L -55.152000427246094 -56.43199920654297 L -55.52299880981445 -56.374000549316406 L -55.858001708984375 -56.202999114990234 L -56.125 -55.9370002746582 L -56.29499816894531 -55.60100173950195 L -56.343505859375 -55.29600143432617 L -56.354000091552734 -55.22999954223633 L -56.29499816894531 -54.858001708984375 L -56.125 -54.52299880981445 L -55.858001708984375 -54.25699996948242 L -55.52299880981445 -54.08599853515625 L -55.152000427246094 -54.027000427246094 L -54.779998779296875 -54.08599853515625 L -54.44499969482422 -54.25699996948242 L -54.17900085449219 -54.52299880981445 L -54.007999420166016 -54.858001708984375 L -53.94900131225586 -55.22999954223633 L -53.959495544433594 -55.29600143432617 L -54.007999420166016 -55.60100173950195 L -54.17900085449219 -55.9370002746582 L -54.44499969482422 -56.202999114990234 L -54.779998779296875 -56.374000549316406 M -0.4880000054836273 -65.12899780273438 L -0.4880000054836273 -65.53600311279297 L -0.4880000054836273 -67.58399963378906 L -0.4880000054836273 -69.63200378417969 L -0.4880000054836273 -73.72799682617188 L -0.4880000054836273 -74.00199890136719 L -8.192000389099121 -74.00199890136719 L -14.493000030517578 -74.00199890136719 L -14.493000030517578 -73.7751235961914 L -14.493000030517578 -73.72799682617188 L -14.493000030517578 -69.63200378417969 L -14.493000030517578 -67.58399963378906 L -14.493000030517578 -67.12985229492188 L -14.493000030517578 -65.53600311279297 L -14.493000030517578 -60.84600067138672 L -14.493000030517578 -59.99700164794922 L -0.4880000054836273 -59.99700164794922 L -0.4880000054836273 -60.84600067138672 L -0.4880000054836273 -61.19911575317383 L -0.4880000054836273 -63.33712387084961 L -0.4880000054836273 -65.12899780273438 M -0.4880000054836273 -12.288000106811523 L -0.4880000054836273 -16.384000778198242 L -0.4880000054836273 -16.70199966430664 L -4.804090976715088 -16.70199966430664 L -5.232410430908203 -16.70199966430664 L -9.896085739135742 -16.70199966430664 L -10.334247589111328 -16.70199966430664 L -14.493000030517578 -16.70199966430664 L -14.493000030517578 -16.625123977661133 L -14.493000030517578 -16.384000778198242 L -14.493000030517578 -12.288000106811523 L -14.493000030517578 -10.82699966430664 L -14.493000030517578 -10.388219833374023 L -14.493000030517578 -10.239999771118164 L -14.493000030517578 -9.979849815368652 L -14.493000030517578 -8.192000389099121 L -14.493000030517578 -3.696000099182129 L -14.493000030517578 -2.697000026702881 L -0.4880000054836273 -2.697000026702881 L -0.4880000054836273 -3.696000099182129 L -0.4880000054836273 -8.192000389099121 L -0.4880000054836273 -10.239999771118164 L -0.4880000054836273 -12.288000106811523 M -30.46896743774414 -71.75199890136719 L -32.768001556396484 -71.75199890136719 L -33.49300003051758 -71.75199890136719 L -33.49300003051758 -65.53600311279297 L -33.49300003051758 -63.487998962402344 L -33.49300003051758 -61.439998626708984 L -33.49300003051758 -57.74700164794922 L -32.768001556396484 -57.74700164794922 L -28.257999420166016 -57.74700164794922 L -24.576000213623047 -57.74700164794922 L -19.488000869750977 -57.74700164794922 L -19.488000869750977 -61.439998626708984 L -19.488000869750977 -65.53600311279297 L -19.488000869750977 -69.63200378417969 L -19.488000869750977 -71.75199890136719 L -20.479999542236328 -71.75199890136719 L -22.237886428833008 -71.75199890136719 L -22.701824188232422 -71.75199890136719 L -23.10240936279297 -71.75199890136719 L -23.474454879760742 -71.75199890136719 L -23.873788833618164 -71.75199890136719 L -24.364553451538086 -71.75199890136719 L -24.576000213623047 -71.75199890136719 L -27.785839080810547 -71.75199890136719 L -28.183807373046875 -71.75199890136719 L -28.563098907470703 -71.75199890136719 L -28.672000885009766 -71.75199890136719 L -30.46896743774414 -71.75199890136719 M -24.18206787109375 -52.60200119018555 L -24.576000213623047 -52.60200119018555 L -28.146343231201172 -52.60200119018555 L -28.494796752929688 -52.60200119018555 L -28.672000885009766 -52.60200119018555 L -30.08294677734375 -52.60200119018555 L -32.768001556396484 -52.60200119018555 L -33.49300003051758 -52.60200119018555 L -33.49300003051758 -52.10152816772461 L -33.49300003051758 -49.152000427246094 L -33.49300003051758 -45.055999755859375 L -33.49300003051758 -40.959999084472656 L -33.49300003051758 -38.59700012207031 L -32.768001556396484 -38.59700012207031 L -24.857999801635742 -38.59700012207031 L -24.576000213623047 -38.59700012207031 L -19.488000869750977 -38.59700012207031 L -19.488000869750977 -40.959999084472656 L -19.488000869750977 -43.646644592285156 L -19.488000869750977 -44.29777908325195 L -19.488000869750977 -44.808998107910156 L -19.488000869750977 -45.055999755859375 L -19.488000869750977 -49.152000427246094 L -19.488000869750977 -52.60200119018555 L -20.479999542236328 -52.60200119018555 L -23.065017700195312 -52.60200119018555 L -23.40691566467285 -52.60200119018555 L -23.763263702392578 -52.60200119018555 L -24.18206787109375 -52.60200119018555 M -15.819999694824219 -24.96500015258789 L -15.758999824523926 -25.351999282836914 L -15.819999694824219 -25.73900032043457 L -15.998000144958496 -26.089000701904297 L -16.274999618530273 -26.365999221801758 L -16.384000778198242 -26.421592712402344 L -16.624000549316406 -26.54400062561035 L -17.01099967956543 -26.604999542236328 L -17.398000717163086 -26.54400062561035 L -17.746999740600586 -26.365999221801758 L -18.024999618530273 -26.089000701904297 L -18.20199966430664 -25.73900032043457 L -18.263999938964844 -25.351999282836914 L -18.20199966430664 -24.96500015258789 L -18.024999618530273 -24.615999221801758 L -17.98485565185547 -24.576000213623047 L -17.746999740600586 -24.339000701904297 L -17.398000717163086 -24.160999298095703 L -17.01099967956543 -24.100000381469727 L -16.624000549316406 -24.160999298095703 L -16.384000778198242 -24.28340721130371 L -16.274999618530273 -24.339000701904297 L -16.038000106811523 -24.576000213623047 L -15.998000144958496 -24.615999221801758 L -15.819999694824219 -24.96500015258789 M -53.846832275390625 -16.384000778198242 L -53.902000427246094 -16.733999252319336 L -54.08000183105469 -17.08300018310547 L -54.356998443603516 -17.360000610351562 L -54.70600128173828 -17.538000106811523 L -55.09299850463867 -17.600000381469727 L -55.47999954223633 -17.538000106811523 L -55.82899856567383 -17.360000610351562 L -56.10599899291992 -17.08300018310547 L -56.284000396728516 -16.733999252319336 L -56.34007263183594 -16.384000778198242 L -56.34600067138672 -16.347000122070312 L -56.284000396728516 -15.960000038146973 L -56.10599899291992 -15.611000061035156 L -55.82899856567383 -15.333999633789062 L -55.47999954223633 -15.156000137329102 L -55.09299850463867 -15.095000267028809 L -54.70600128173828 -15.156000137329102 L -54.356998443603516 -15.333999633789062 L -54.08000183105469 -15.611000061035156 L -53.902000427246094 -15.960000038146973 L -53.840999603271484 -16.347000122070312 L -53.846832275390625 -16.384000778198242 M -24.090824127197266 -33.50199890136719 L -24.576000213623047 -33.50199890136719 L -24.857999801635742 -33.50199890136719 L -28.793386459350586 -33.50199890136719 L -29.190868377685547 -33.50199890136719 L -29.889934539794922 -33.50199890136719 L -32.768001556396484 -33.50199890136719 L -33.49300003051758 -33.50199890136719 L -33.49300003051758 -32.768001556396484 L -33.49300003051758 -28.672000885009766 L -33.49300003051758 -24.576000213623047 L -33.49300003051758 -20.479999542236328 L -33.49300003051758 -19.496999740600586 L -32.768001556396484 -19.496999740600586 L -28.257999420166016 -19.496999740600586 L -24.857999801635742 -19.496999740600586 L -19.488000869750977 -19.496999740600586 L -19.488000869750977 -23.364999771118164 L -19.488000869750977 -24.576000213623047 L -19.488000869750977 -28.672000885009766 L -19.488000869750977 -32.768001556396484 L -19.488000869750977 -33.50199890136719 L -20.479999542236328 -33.50199890136719 L -23.70800018310547 -33.50199890136719 L -24.090824127197266 -33.50199890136719 M 3.2290000915527344 13.937999725341797 L 3.2899999618530273 13.550999641418457 L 3.2290000915527344 13.163999557495117 L 3.0510001182556152 12.8149995803833 L 2.7739999294281006 12.538000106811523 L 2.424999952316284 12.359999656677246 L 2.0480000972747803 12.300576210021973 L 2.0380001068115234 12.298999786376953 L 1.6510000228881836 12.359999656677246 L 1.3020000457763672 12.538000106811523 L 1.024999976158142 12.8149995803833 L 0.847000002861023 13.163999557495117 L 0.7850000262260437 13.550999641418457 L 0.847000002861023 13.937999725341797 L 1.024999976158142 14.288000106811523 L 1.0729999542236328 14.336000442504883 L 1.3020000457763672 14.5649995803833 L 1.6510000228881836 14.743000030517578 L 2.0380001068115234 14.803999900817871 L 2.424999952316284 14.743000030517578 L 2.7739999294281006 14.5649995803833 L 3.003000020980835 14.336000442504883 L 3.0510001182556152 14.288000106811523 L 3.2290000915527344 13.937999725341797 M 2.3889999389648438 -25.805999755859375 L 2.0179998874664307 -25.864999771118164 L 1.6460000276565552 -25.805999755859375 L 1.3109999895095825 -25.63599967956543 L 1.0449999570846558 -25.3700008392334 L 0.8740000128746033 -25.034000396728516 L 0.8149999976158142 -24.663000106811523 L 0.8287984132766724 -24.576000213623047 L 0.8740000128746033 -24.291000366210938 L 1.0449999570846558 -23.95599937438965 L 1.3109999895095825 -23.690000534057617 L 1.6460000276565552 -23.518999099731445 L 2.0179998874664307 -23.459999084472656 L 2.3889999389648438 -23.518999099731445 L 2.7239999771118164 -23.690000534057617 L 2.990000009536743 -23.95599937438965 L 3.1610000133514404 -24.291000366210938 L 3.2062015533447266 -24.576000213623047 L 3.2200000286102295 -24.663000106811523 L 3.1610000133514404 -25.034000396728516 L 2.990000009536743 -25.3700008392334 L 2.7239999771118164 -25.63599967956543 L 2.3889999389648438 -25.805999755859375 M 26.73415184020996 -69.35199737548828 L 24.576000213623047 -69.35199737548828 L 23.69700050354004 -69.35199737548828 L 23.69700050354004 -65.53600311279297 L 23.69700050354004 -61.439998626708984 L 23.69700050354004 -57.34400177001953 L 23.69700050354004 -55.34700012207031 L 24.576000213623047 -55.34700012207031 L 25.154111862182617 -55.34700012207031 L 32.29199981689453 -55.34700012207031 L 32.768001556396484 -55.34700012207031 L 34.83399963378906 -55.34700012207031 L 37.698001861572266 -55.34700012207031 L 37.702999114990234 -55.34700012207031 L 37.702999114990234 -57.34400177001953 L 37.702999114990234 -61.439998626708984 L 37.702999114990234 -65.53600311279297 L 37.702999114990234 -69.35199737548828 L 36.86399841308594 -69.35199737548828 L 34.83399963378906 -69.35199737548828 L 34.45045852661133 -69.35199737548828 L 34.05469512939453 -69.35199737548828 L 33.688377380371094 -69.35199737548828 L 33.297210693359375 -69.35199737548828 L 32.8132438659668 -69.35199737548828 L 32.768001556396484 -69.35199737548828 L 29.37171745300293 -69.35199737548828 L 28.96982192993164 -69.35199737548828 L 28.672000885009766 -69.35199737548828 L 27.71434783935547 -69.35199737548828 L 26.73415184020996 -69.35199737548828 M 12.970684051513672 -70.90299987792969 L 12.288000106811523 -70.90299987792969 L 9.936798095703125 -70.90299987792969 L 9.577081680297852 -70.90299987792969 L 9.198088645935059 -70.90299987792969 L 8.731616973876953 -70.90299987792969 L 8.192000389099121 -70.90299987792969 L 4.506999969482422 -70.90299987792969 L 4.506999969482422 -69.63200378417969 L 4.506999969482422 -66.32579040527344 L 4.506999969482422 -65.53600311279297 L 4.506999969482422 -63.889915466308594 L 4.506999969482422 -63.487998962402344 L 4.506999969482422 -61.439998626708984 L 4.506999969482422 -57.34400177001953 L 4.506999969482422 -56.89699935913086 L 8.192000389099121 -56.89699935913086 L 16.384000778198242 -56.89699935913086 L 18.511999130249023 -56.89699935913086 L 18.511999130249023 -57.34400177001953 L 18.511999130249023 -61.439998626708984 L 18.511999130249023 -62.575782775878906 L 18.511999130249023 -63.064998626708984 L 18.511999130249023 -63.487998962402344 L 18.511999130249023 -65.53600311279297 L 18.511999130249023 -67.58399963378906 L 18.511999130249023 -69.63200378417969 L 18.511999130249023 -70.65599822998047 L 18.511999130249023 -70.90299987792969 L 18.43199920654297 -70.90299987792969 L 16.384000778198242 -70.90299987792969 L 15.018156051635742 -70.90299987792969 L 14.662692070007324 -70.90299987792969 L 14.290895462036133 -70.90299987792969 L 13.831148147583008 -70.90299987792969 L 12.970684051513672 -70.90299987792969 M -17.336000442504883 -39.68199920654297 L -16.964000701904297 -39.62300109863281 L -16.591999053955078 -39.68199920654297 L -16.256999969482422 -39.85200119018555 L -15.991000175476074 -40.11899948120117 L -15.819999694824219 -40.45399856567383 L -15.76200008392334 -40.82500076293945 L -15.783048629760742 -40.959999084472656 L -15.819999694824219 -41.196998596191406 L -15.991000175476074 -41.53200149536133 L -16.256999969482422 -41.79800033569336 L -16.591999053955078 -41.96900177001953 L -16.964000701904297 -42.02799987792969 L -17.336000442504883 -41.96900177001953 L -17.67099952697754 -41.79800033569336 L -17.937000274658203 -41.53200149536133 L -18.107999801635742 -41.196998596191406 L -18.145587921142578 -40.959999084472656 L -18.16699981689453 -40.82500076293945 L -18.107999801635742 -40.45399856567383 L -17.937000274658203 -40.11899948120117 L -17.67099952697754 -39.85200119018555 L -17.336000442504883 -39.68199920654297 M 53.24800109863281 0.8581032156944276 L 51.76169967651367 1.1102230246251565e-16 L 49.5099983215332 -1.2999999523162842 L 49.152000427246094 -0.6799166202545165 L 48.759456634521484 1.1102230246251565e-16 L 46.3946647644043 4.0960001945495605 L 45.2122688293457 6.144000053405762 L 45.055999755859375 6.414669036865234 L 44.02987289428711 8.192000389099121 L 42.91865158081055 10.116717338562012 L 42.507999420166016 10.82800006866455 L 48.305450439453125 14.17510986328125 L 49.152000427246094 14.663858413696289 L 49.95366668701172 15.126694679260254 L 52.06023025512695 16.342899322509766 L 52.13141632080078 16.384000778198242 L 53.24800109863281 17.028650283813477 L 54.63600158691406 17.829999923706055 L 55.4708366394043 16.384000778198242 L 57.34400177001953 13.13953685760498 L 57.835628509521484 12.288000106811523 L 58.6870002746582 10.813358306884766 L 60.25899887084961 8.090533256530762 L 60.5992431640625 7.501204490661621 L 60.68199920654297 7.357865333557129 L 61.439998626708984 6.04495096206665 L 61.63800048828125 5.702000141143799 L 61.54594802856445 5.648853778839111 L 60.68199920654297 5.150061130523682 L 58.6870002746582 3.998264789581299 L 58.32868576049805 3.791395902633667 L 57.34400177001953 3.2228949069976807 L 53.37656021118164 0.9323270320892335 L 53.24800109863281 0.8581032156944276 M 32.996768951416016 -50.20199966430664 L 32.768001556396484 -50.20199966430664 L 32.29199981689453 -50.20199966430664 L 28.668180465698242 -50.20199966430664 L 28.322113037109375 -50.20199966430664 L 27.90120506286621 -50.20199966430664 L 27.12436866760254 -50.20199966430664 L 24.576000213623047 -50.20199966430664 L 23.691999435424805 -50.20199966430664 L 23.691999435424805 -49.152000427246094 L 23.691999435424805 -45.055999755859375 L 23.691999435424805 -42.25617599487305 L 23.691999435424805 -40.959999084472656 L 23.691999435424805 -36.86399841308594 L 23.691999435424805 -36.48899841308594 L 23.691999435424805 -36.196998596191406 L 24.576000213623047 -36.196998596191406 L 32.29199981689453 -36.196998596191406 L 32.768001556396484 -36.196998596191406 L 34.83399963378906 -36.196998596191406 L 37.698001861572266 -36.196998596191406 L 37.698001861572266 -40.959999084472656 L 37.698001861572266 -45.055999755859375 L 37.698001861572266 -49.152000427246094 L 37.698001861572266 -50.20199966430664 L 34.83399963378906 -50.20199966430664 L 33.755916595458984 -50.20199966430664 L 33.407737731933594 -50.20199966430664 L 32.996768951416016 -50.20199966430664 M 42.755001068115234 -14.336000442504883 L 42.755001068115234 -12.288000106811523 L 42.755001068115234 -11.458000183105469 L 42.755001068115234 -8.458000183105469 L 42.755001068115234 -8.192000389099121 L 42.755001068115234 -7.765999794006348 L 49.152000427246094 -7.765999794006348 L 53.24309158325195 -7.765999794006348 L 56.7599983215332 -7.765999794006348 L 56.7599983215332 -8.192000389099121 L 56.7599983215332 -12.288000106811523 L 56.7599983215332 -12.672497749328613 L 56.7599983215332 -13.315999984741211 L 56.7599983215332 -13.85200023651123 L 56.7599983215332 -14.332892417907715 L 56.7599983215332 -14.336000442504883 L 56.7599983215332 -16.384000778198242 L 56.7599983215332 -20.479999542236328 L 56.7599983215332 -21.770999908447266 L 53.08824157714844 -21.770999908447266 L 52.70866012573242 -21.770999908447266 L 52.298580169677734 -21.770999908447266 L 51.782493591308594 -21.770999908447266 L 50.767147064208984 -21.770999908447266 L 49.152000427246094 -21.770999908447266 L 48.003211975097656 -21.770999908447266 L 47.61982727050781 -21.770999908447266 L 47.21185302734375 -21.770999908447266 L 46.682132720947266 -21.770999908447266 L 45.612457275390625 -21.770999908447266 L 42.755001068115234 -21.770999908447266 L 42.755001068115234 -21.398500442504883 L 42.755001068115234 -20.479999542236328 L 42.755001068115234 -17.195327758789062 L 42.755001068115234 -16.384000778198242 L 42.755001068115234 -16.055341720581055 L 42.755001068115234 -15.58899974822998 L 42.755001068115234 -15.172088623046875 L 42.755001068115234 -14.754475593566895 L 42.755001068115234 -14.336000442504883 M -71.59300231933594 19.430631637573242 L -71.59300231933594 19.44211769104004 L -71.59300231933594 20.479999542236328 L -71.59300231933594 22.67300033569336 L -71.59300231933594 24.576000213623047 L -71.59300231933594 25.67300033569336 L -71.59300231933594 26.503000259399414 L -65.53600311279297 26.503000259399414 L -62.95800018310547 26.503000259399414 L -57.5880012512207 26.503000259399414 L -57.5880012512207 24.576000213623047 L -57.5880012512207 20.479999542236328 L -57.5880012512207 18.43199920654297 L -57.5880012512207 16.384000778198242 L -57.5880012512207 12.498000144958496 L -60.810081481933594 12.498000144958496 L -61.17274856567383 12.498000144958496 L -61.439998626708984 12.498000144958496 L -62.32370376586914 12.498000144958496 L -63.1301383972168 12.498000144958496 L -65.53600311279297 12.498000144958496 L -65.87262725830078 12.498000144958496 L -66.25371551513672 12.498000144958496 L -66.61116027832031 12.498000144958496 L -66.96656036376953 12.498000144958496 L -67.41706085205078 12.498000144958496 L -68.26710510253906 12.498000144958496 L -69.63200378417969 12.498000144958496 L -71.59300231933594 12.498000144958496 L -71.59300231933594 16.384000778198242 L -71.59300231933594 18.43199920654297 L -71.59300231933594 18.57200050354004 L -71.59300231933594 18.998340606689453 L -71.59300231933594 19.430631637573242 M 47.94200134277344 -26.766000747680664 L 49.152000427246094 -26.766000747680664 L 51.34199905395508 -26.766000747680664 L 56.7599983215332 -26.766000747680664 L 56.7599983215332 -29.980072021484375 L 56.7599983215332 -31.79199981689453 L 56.7599983215332 -32.768001556396484 L 56.7599983215332 -34.816001892089844 L 56.7599983215332 -36.86399841308594 L 56.7599983215332 -40.770999908447266 L 53.47427749633789 -40.770999908447266 L 53.24800109863281 -40.770999908447266 L 52.353843688964844 -40.770999908447266 L 51.8742561340332 -40.770999908447266 L 50.95451736450195 -40.770999908447266 L 49.152000427246094 -40.770999908447266 L 48.42243576049805 -40.770999908447266 L 48.02208709716797 -40.770999908447266 L 47.65397644042969 -40.770999908447266 L 47.26750183105469 -40.770999908447266 L 46.77555847167969 -40.770999908447266 L 45.80756378173828 -40.770999908447266 L 45.055999755859375 -40.770999908447266 L 42.755001068115234 -40.770999908447266 L 42.755001068115234 -36.86399841308594 L 42.755001068115234 -34.816001892089844 L 42.755001068115234 -32.768001556396484 L 42.755001068115234 -30.507999420166016 L 42.755001068115234 -26.766000747680664 L 47.94200134277344 -26.766000747680664 M 3.181999921798706 -63.46799850463867 L 3.1717910766601562 -63.487998962402344 L 3.010999917984009 -63.803001403808594 L 2.744999885559082 -64.06900024414062 L 2.4100000858306885 -64.23999786376953 L 2.0380001068115234 -64.2979965209961 L 1.6670000553131104 -64.23999786376953 L 1.3309999704360962 -64.06900024414062 L 1.065000057220459 -63.803001403808594 L 0.9051492810249329 -63.487998962402344 L 0.8949999809265137 -63.46799850463867 L 0.8360000252723694 -63.09600067138672 L 0.8949999809265137 -62.7239990234375 L 1.065000057220459 -62.388999938964844 L 1.3309999704360962 -62.12300109863281 L 1.6670000553131104 -61.95199966430664 L 2.0380001068115234 -61.893001556396484 L 2.4100000858306885 -61.95199966430664 L 2.744999885559082 -62.12300109863281 L 3.010999917984009 -62.388999938964844 L 3.181999921798706 -62.7239990234375 L 3.240999937057495 -63.09600067138672 L 3.181999921798706 -63.46799850463867 M -15.835000038146973 12.78600025177002 L -15.77400016784668 12.39799976348877 L -15.791338920593262 12.288000106811523 L -15.835000038146973 12.01099967956543 L -16.01300048828125 11.661999702453613 L -16.290000915527344 11.385000228881836 L -16.384000778198242 11.337194442749023 L -16.639999389648438 11.206999778747559 L -17.027000427246094 11.145999908447266 L -17.413999557495117 11.206999778747559 L -17.76300048828125 11.385000228881836 L -18.040000915527344 11.661999702453613 L -18.218000411987305 12.01099967956543 L -18.261661529541016 12.288000106811523 L -18.27899932861328 12.39799976348877 L -18.218000411987305 12.78600025177002 L -18.040000915527344 13.135000228881836 L -17.76300048828125 13.411999702453613 L -17.413999557495117 13.59000015258789 L -17.027000427246094 13.651000022888184 L -16.639999389648438 13.59000015258789 L -16.384000778198242 13.459805488586426 L -16.290000915527344 13.411999702453613 L -16.01300048828125 13.135000228881836 L -15.835000038146973 12.78600025177002 M 63.18409729003906 28.750539779663086 L 63.04804992675781 28.672000885009766 L 60.89176940917969 27.427152633666992 L 60.68199920654297 27.306049346923828 L 60.56130599975586 27.236371994018555 L 60.25899887084961 27.061847686767578 L 60.12940216064453 26.987028121948242 L 59.185611724853516 26.442169189453125 L 58.6870002746582 26.154312133789062 L 57.34400177001953 25.378982543945312 L 56.49700164794922 24.889999389648438 L 54.31360626220703 28.672000885009766 L 54.170841217041016 28.919294357299805 L 53.70197296142578 29.731449127197266 L 53.24800109863281 30.517807006835938 L 51.948936462402344 32.768001556396484 L 49.529998779296875 36.95800018310547 L 54.14962387084961 39.62496566772461 L 54.93492889404297 40.078330993652344 L 56.39302062988281 40.92010498046875 L 56.462127685546875 40.959999084472656 L 57.34400177001953 41.4691162109375 L 58.6870002746582 42.24444580078125 L 60.25899887084961 43.1519775390625 L 60.68199920654297 43.396183013916016 L 61.597999572753906 43.92499923706055 L 63.309730529785156 40.959999084472656 L 63.46200180053711 40.69624328613281 L 63.909000396728516 39.92196273803711 L 64.1510009765625 39.50278091430664 L 64.67565155029297 38.593990325927734 L 64.8769302368164 38.2453498840332 L 65.53600311279297 37.103729248046875 L 67.33100128173828 33.99449157714844 L 67.73021697998047 33.3029899597168 L 68.03907012939453 32.768001556396484 L 68.56500244140625 31.85700035095215 L 67.33100128173828 31.14459800720215 L 65.53600311279297 30.108322143554688 L 64.92900848388672 29.75790023803711 L 64.4478988647461 29.480148315429688 L 64.1510009765625 29.308744430541992 L 63.909000396728516 29.169034957885742 L 63.46200180053711 28.910978317260742 L 63.18409729003906 28.750539779663086 M -24.090824127197266 -14.45199966430664 L -24.576000213623047 -14.45199966430664 L -27.767498016357422 -14.45199966430664 L -28.12761116027832 -14.45199966430664 L -28.460647583007812 -14.45199966430664 L -28.672000885009766 -14.45199966430664 L -29.889934539794922 -14.45199966430664 L -32.768001556396484 -14.45199966430664 L -33.49300003051758 -14.45199966430664 L -33.49300003051758 -8.192000389099121 L -33.49300003051758 -6.144000053405762 L -33.49300003051758 -4.0960001945495605 L -33.49300003051758 -0.44699999690055836 L -32.768001556396484 -0.44699999690055836 L -28.257999420166016 -0.44699999690055836 L -24.857999801635742 -0.44699999690055836 L -24.576000213623047 -0.44699999690055836 L -19.488000869750977 -0.44699999690055836 L -19.488000869750977 -4.0960001945495605 L -19.488000869750977 -8.192000389099121 L -19.488000869750977 -12.288000106811523 L -19.488000869750977 -14.45199966430664 L -20.479999542236328 -14.45199966430664 L -21.735383987426758 -14.45199966430664 L -22.256229400634766 -14.45199966430664 L -22.683792114257812 -14.45199966430664 L -23.046321868896484 -14.45199966430664 L -23.373144149780273 -14.45199966430664 L -23.70800018310547 -14.45199966430664 L -24.090824127197266 -14.45199966430664 M -52.59299850463867 -36.86399841308594 L -52.59299850463867 -32.768001556396484 L -52.59299850463867 -30.746999740600586 L -49.152000427246094 -30.746999740600586 L -47.30799865722656 -30.746999740600586 L -40.959999084472656 -30.746999740600586 L -38.5880012512207 -30.746999740600586 L -38.5880012512207 -32.768001556396484 L -38.5880012512207 -36.361732482910156 L -38.5880012512207 -36.861000061035156 L -38.5880012512207 -36.86399841308594 L -38.5880012512207 -38.9119987487793 L -38.5880012512207 -40.959999084472656 L -38.5880012512207 -43.007999420166016 L -38.5880012512207 -44.223812103271484 L -38.5880012512207 -44.75199890136719 L -39.58223342895508 -44.75199890136719 L -40.959999084472656 -44.75199890136719 L -41.748783111572266 -44.75199890136719 L -42.15266036987305 -44.75199890136719 L -42.52814483642578 -44.75199890136719 L -42.91571044921875 -44.75199890136719 L -43.42097854614258 -44.75199890136719 L -44.37992477416992 -44.75199890136719 L -45.055999755859375 -44.75199890136719 L -46.83219528198242 -44.75199890136719 L -47.23368453979492 -44.75199890136719 L -47.616058349609375 -44.75199890136719 L -48.005271911621094 -44.75199890136719 L -48.51654815673828 -44.75199890136719 L -49.152000427246094 -44.75199890136719 L -52.59299850463867 -44.75199890136719 L -52.59299850463867 -41.036224365234375 L -52.59299850463867 -40.959999084472656 L -52.59299850463867 -38.9119987487793 L -52.59299850463867 -37.20417785644531 L -52.59299850463867 -36.86399841308594 M -38.5880012512207 -25.50200080871582 L -40.959999084472656 -25.50200080871582 L -42.38126754760742 -25.50200080871582 L -42.686279296875 -25.50200080871582 L -43.03338623046875 -25.50200080871582 L -43.58889389038086 -25.50200080871582 L -45.055999755859375 -25.50200080871582 L -47.46761703491211 -25.50200080871582 L -47.77327346801758 -25.50200080871582 L -48.12314987182617 -25.50200080871582 L -48.70882797241211 -25.50200080871582 L -49.152000427246094 -25.50200080871582 L -52.59299850463867 -25.50200080871582 L -52.59299850463867 -24.576000213623047 L -52.59299850463867 -20.479999542236328 L -52.59299850463867 -18.43199920654297 L -52.59299850463867 -16.384000778198242 L -52.59299850463867 -11.496999740600586 L -49.152000427246094 -11.496999740600586 L -47.30799865722656 -11.496999740600586 L -43.90800094604492 -11.496999740600586 L -40.959999084472656 -11.496999740600586 L -40.3807487487793 -11.496999740600586 L -39.014801025390625 -11.496999740600586 L -38.5880012512207 -11.496999740600586 L -38.5880012512207 -13.075769424438477 L -38.5880012512207 -16.384000778198242 L -38.5880012512207 -16.672887802124023 L -38.5880012512207 -17.321975708007812 L -38.5880012512207 -17.820999145507812 L -38.5880012512207 -18.2685604095459 L -38.5880012512207 -18.43199920654297 L -38.5880012512207 -20.479999542236328 L -38.5880012512207 -22.527999877929688 L -38.5880012512207 -24.576000213623047 L -38.5880012512207 -24.582000732421875 L -38.5880012512207 -25.50200080871582 M -48.40343475341797 -63.75199890136719 L -49.152000427246094 -63.75199890136719 L -52.59299850463867 -63.75199890136719 L -52.59299850463867 -61.439998626708984 L -52.59299850463867 -60.65694046020508 L -52.59299850463867 -59.94033432006836 L -52.59299850463867 -59.391998291015625 L -52.59299850463867 -57.34400177001953 L -52.59299850463867 -55.557498931884766 L -52.59299850463867 -55.29600143432617 L -52.59299850463867 -53.24800109863281 L -52.59299850463867 -49.74700164794922 L -49.152000427246094 -49.74700164794922 L -47.30799865722656 -49.74700164794922 L -40.959999084472656 -49.74700164794922 L -38.5880012512207 -49.74700164794922 L -38.5880012512207 -54.785987854003906 L -38.5880012512207 -55.41199493408203 L -38.5880012512207 -57.34400177001953 L -38.5880012512207 -59.391998291015625 L -38.5880012512207 -61.439998626708984 L -38.5880012512207 -63.27381134033203 L -38.5880012512207 -63.487998962402344 L -38.5880012512207 -63.75199890136719 L -40.959999084472656 -63.75199890136719 L -45.055999755859375 -63.75199890136719 L -46.8281364440918 -63.75199890136719 L -47.210205078125 -63.75199890136719 L -47.570068359375 -63.75199890136719 L -47.940208435058594 -63.75199890136719 L -48.40343475341797 -63.75199890136719 M -38.5880012512207 -6.501999855041504 L -40.959999084472656 -6.501999855041504 L -43.125431060791016 -6.501999855041504 L -43.77573776245117 -6.501999855041504 L -45.055999755859375 -6.501999855041504 L -46.8159065246582 -6.501999855041504 L -47.1727409362793 -6.501999855041504 L -47.501766204833984 -6.501999855041504 L -47.82891845703125 -6.501999855041504 L -48.216575622558594 -6.501999855041504 L -48.903934478759766 -6.501999855041504 L -49.152000427246094 -6.501999855041504 L -52.59299850463867 -6.501999855041504 L -52.59299850463867 -4.0960001945495605 L -52.59299850463867 -3.5069401264190674 L -52.59299850463867 -2.7903332710266113 L -52.59299850463867 -2.0549046993255615 L -52.59299850463867 -2.0480000972747803 L -52.59299850463867 1.1102230246251565e-16 L -52.59299850463867 2.0480000972747803 L -52.59299850463867 4.0960001945495605 L -52.59299850463867 7.502999782562256 L -49.152000427246094 7.502999782562256 L -47.30799865722656 7.502999782562256 L -43.90800094604492 7.502999782562256 L -40.959999084472656 7.502999782562256 L -38.5880012512207 7.502999782562256 L -38.5880012512207 2.377112865447998 L -38.5880012512207 1.7280243635177612 L -38.5880012512207 1.1102230246251565e-16 L -38.5880012512207 -2.0480000972747803 L -38.5880012512207 -4.0960001945495605 L -38.5880012512207 -6.123812675476074 L -38.5880012512207 -6.144000053405762 L -38.5880012512207 -6.501999855041504 M 61.44746780395508 15.5237398147583 L 61.439998626708984 15.536672592163086 L 61.07993698120117 16.1602783203125 L 60.95076370239258 16.384000778198242 L 60.95050811767578 16.384443283081055 L 60.68199920654297 16.84947967529297 L 60.25899887084961 17.582088470458984 L 58.6870002746582 20.304691314697266 L 58.62099838256836 20.41900062561035 L 58.6870002746582 20.457103729248047 L 58.72665786743164 20.479999542236328 L 59.18109893798828 20.742368698120117 L 59.17900085449219 20.746000289916992 L 60.25899887084961 21.369579315185547 L 60.68199920654297 21.613815307617188 L 63.46200180053711 23.218955993652344 L 63.909000396728516 23.477046966552734 L 64.1510009765625 23.616775512695312 L 65.53600311279297 24.416458129882812 L 65.81231689453125 24.576000213623047 L 67.33100128173828 25.452871322631836 L 71.1796646118164 27.675045013427734 L 71.22200012207031 27.69948959350586 L 71.73899841308594 27.99799919128418 L 73.7148208618164 24.576000213623047 L 73.72799682617188 24.553178787231445 L 74.08443450927734 23.935861587524414 L 74.30606842041016 23.552000045776367 L 74.58116149902344 23.075559616088867 L 74.5812759399414 23.07535743713379 L 74.59725952148438 23.047679901123047 L 74.63703918457031 22.978776931762695 L 74.71703338623047 22.840242385864258 L 74.8973159790039 22.527999877929688 L 76.07980346679688 20.479999542236328 L 76.58450317382812 19.605897903442383 L 76.67105102539062 19.45599937438965 L 76.80000305175781 19.2326717376709 L 77.08123016357422 18.74559783935547 L 77.08133697509766 18.745410919189453 L 77.09696960449219 18.71834373474121 L 77.13786315917969 18.64751434326172 L 77.21704864501953 18.510374069213867 L 77.26229858398438 18.43199920654297 L 77.8239974975586 17.459169387817383 L 78.44479370117188 16.384000778198242 L 78.99099731445312 15.437999725341797 L 78.43122863769531 15.114795684814453 L 78.43399810791016 15.109999656677246 L 73.72799682617188 12.393400192260742 L 73.54541015625 12.288000106811523 L 73.31136322021484 12.1528902053833 L 72.73873138427734 11.822332382202148 L 72.40802001953125 11.631423950195312 L 72.1654052734375 11.491373062133789 L 71.92801666259766 11.354338645935059 L 71.68924713134766 11.216504096984863 L 71.22200012207031 10.946779251098633 L 67.33100128173828 8.70064926147461 L 65.87300109863281 7.859000205993652 L 65.53600311279297 8.442662239074707 L 64.49823760986328 10.239999771118164 L 64.1510009765625 10.84139347076416 L 63.909000396728516 11.26052188873291 L 63.9069938659668 11.263999938964844 L 63.8820686340332 11.307162284851074 L 63.82211685180664 11.41100025177002 L 63.76234436035156 11.514521598815918 L 63.69380569458008 11.633222579956055 L 63.58012771606445 11.830109596252441 L 63.487998962402344 11.989666938781738 L 63.46200180053711 12.034697532653809 L 63.31574630737305 12.288000106811523 L 62.7244987487793 13.312000274658203 L 62.69750213623047 13.358757972717285 L 62.62970733642578 13.476177215576172 L 62.57149124145508 13.57699966430664 L 62.51401138305664 13.676552772521973 L 62.4640007019043 13.76317024230957 L 62.13325500488281 14.336000442504883 L 61.54200744628906 15.359999656677246 L 61.52801513671875 15.384235382080078 L 61.44746780395508 15.5237398147583 M -63.19942092895508 -63.75199890136719 L -65.53600311279297 -63.75199890136719 L -69.63200378417969 -63.75199890136719 L -71.59300231933594 -63.75199890136719 L -71.59300231933594 -61.439998626708984 L -71.59300231933594 -58.389312744140625 L -71.59300231933594 -57.34400177001953 L -71.59300231933594 -56.78550720214844 L -71.59300231933594 -53.24800109863281 L -71.59300231933594 -49.74700164794922 L -66.35800170898438 -49.74700164794922 L -65.53600311279297 -49.74700164794922 L -57.5880012512207 -49.74700164794922 L -57.5880012512207 -50.527000427246094 L -57.5880012512207 -53.24800109863281 L -57.5880012512207 -55.29600143432617 L -57.5880012512207 -57.34400177001953 L -57.5880012512207 -59.391998291015625 L -57.5880012512207 -61.439998626708984 L -57.5880012512207 -63.75199890136719 L -59.7998046875 -63.75199890136719 L -60.34596633911133 -63.75199890136719 L -60.79487228393555 -63.75199890136719 L -61.17922592163086 -63.75199890136719 L -61.439998626708984 -63.75199890136719 L -62.35952377319336 -63.75199890136719 L -63.19942092895508 -63.75199890136719 M -38.5880012512207 18.43199920654297 L -38.5880012512207 16.384000778198242 L -38.5880012512207 14.336000442504883 L -38.5880012512207 12.926187515258789 L -38.5880012512207 12.498000144958496 L -39.39400100708008 12.498000144958496 L -40.959999084472656 12.498000144958496 L -41.30186462402344 12.498000144958496 L -41.73884201049805 12.498000144958496 L -42.110530853271484 12.498000144958496 L -42.44881057739258 12.498000144958496 L -42.79636001586914 12.498000144958496 L -43.21747589111328 12.498000144958496 L -43.96257781982422 12.498000144958496 L -45.055999755859375 12.498000144958496 L -46.822021484375 12.498000144958496 L -47.191471099853516 12.498000144958496 L -47.535919189453125 12.498000144958496 L -47.88456344604492 12.498000144958496 L -48.31000518798828 12.498000144958496 L -49.09904479980469 12.498000144958496 L -49.152000427246094 12.498000144958496 L -52.59299850463867 12.498000144958496 L -52.59299850463867 16.104631423950195 L -52.59299850463867 16.384000778198242 L -52.59299850463867 18.43199920654297 L -52.59299850463867 19.93759536743164 L -52.59299850463867 20.479999542236328 L -52.59299850463867 24.576000213623047 L -52.59299850463867 26.503000259399414 L -49.152000427246094 26.503000259399414 L -47.30799865722656 26.503000259399414 L -43.90800094604492 26.503000259399414 L -38.5880012512207 26.503000259399414 L -38.5880012512207 24.576000213623047 L -38.5880012512207 20.479999542236328 L -38.5880012512207 18.43199920654297 M -57.5880012512207 -38.9119987487793 L -57.5880012512207 -40.959999084472656 L -57.5880012512207 -44.75199890136719 L -60.83449935913086 -44.75199890136719 L -61.19792175292969 -44.75199890136719 L -61.439998626708984 -44.75199890136719 L -62.451568603515625 -44.75199890136719 L -63.38626480102539 -44.75199890136719 L -65.53600311279297 -44.75199890136719 L -65.88424682617188 -44.75199890136719 L -66.27893829345703 -44.75199890136719 L -66.65422058105469 -44.75199890136719 L -67.04585266113281 -44.75199890136719 L -67.54685974121094 -44.75199890136719 L -68.53926086425781 -44.75199890136719 L -69.63200378417969 -44.75199890136719 L -71.59300231933594 -44.75199890136719 L -71.59300231933594 -40.959999084472656 L -71.59300231933594 -38.9119987487793 L -71.59300231933594 -38.608001708984375 L -71.59300231933594 -38.18141555786133 L -71.59300231933594 -37.7444953918457 L -71.59300231933594 -37.74280548095703 L -71.59300231933594 -36.86399841308594 L -71.59300231933594 -32.768001556396484 L -71.59300231933594 -30.746999740600586 L -66.35800170898438 -30.746999740600586 L -65.53600311279297 -30.746999740600586 L -64.99433898925781 -30.746999740600586 L -57.5880012512207 -30.746999740600586 L -57.5880012512207 -31.476999282836914 L -57.5880012512207 -32.768001556396484 L -57.5880012512207 -33.95578384399414 L -57.5880012512207 -35.7599983215332 L -57.5880012512207 -36.86399841308594 L -57.5880012512207 -38.9119987487793 M -17.20800018310547 -62.145999908447266 L -16.820999145507812 -62.084999084472656 L -16.43400001525879 -62.145999908447266 L -16.384000778198242 -62.17150115966797 L -16.084999084472656 -62.32400131225586 L -15.807000160217285 -62.60100173950195 L -15.630000114440918 -62.95100021362305 L -15.567999839782715 -63.3380012512207 L -15.592031478881836 -63.487998962402344 L -15.630000114440918 -63.724998474121094 L -15.807000160217285 -64.0739974975586 L -16.084999084472656 -64.35099792480469 L -16.384000778198242 -64.50350189208984 L -16.43400001525879 -64.52899932861328 L -16.820999145507812 -64.58999633789062 L -17.20800018310547 -64.52899932861328 L -17.55699920654297 -64.35099792480469 L -17.833999633789062 -64.0739974975586 L -18.011999130249023 -63.724998474121094 L -18.04935646057129 -63.487998962402344 L -18.072999954223633 -63.3380012512207 L -18.011999130249023 -62.95100021362305 L -17.833999633789062 -62.60100173950195 L -17.55699920654297 -62.32400131225586 L -17.20800018310547 -62.145999908447266 M -23.999582290649414 4.6479997634887695 L -24.576000213623047 4.6479997634887695 L -27.761383056640625 4.6479997634887695 L -28.10887908935547 4.6479997634887695 L -28.426496505737305 4.6479997634887695 L -28.672000885009766 4.6479997634887695 L -29.696924209594727 4.6479997634887695 L -32.768001556396484 4.6479997634887695 L -33.49300003051758 4.6479997634887695 L -33.49300003051758 5.088967800140381 L -33.49300003051758 8.192000389099121 L -33.49300003051758 12.288000106811523 L -33.49300003051758 16.384000778198242 L -33.49300003051758 18.652999877929688 L -32.768001556396484 18.652999877929688 L -28.257999420166016 18.652999877929688 L -24.857999801635742 18.652999877929688 L -19.488000869750977 18.652999877929688 L -19.488000869750977 16.384000778198242 L -19.488000869750977 13.503355026245117 L -19.488000869750977 12.852219581604004 L -19.488000869750977 12.340999603271484 L -19.488000869750977 12.288000106811523 L -19.488000869750977 8.192000389099121 L -19.488000869750977 4.6479997634887695 L -20.479999542236328 4.6479997634887695 L -22.67778205871582 4.6479997634887695 L -23.027626037597656 4.6479997634887695 L -23.339374542236328 4.6479997634887695 L -23.65273666381836 4.6479997634887695 L -23.999582290649414 4.6479997634887695 M -57.5880012512207 2.0480000972747803 L -57.5880012512207 1.1102230246251565e-16 L -57.5880012512207 -2.0480000972747803 L -57.5880012512207 -4.0960001945495605 L -57.5880012512207 -6.501999855041504 L -59.83600616455078 -6.501999855041504 L -60.357765197753906 -6.501999855041504 L -60.78281784057617 -6.501999855041504 L -61.1418342590332 -6.501999855041504 L -61.439998626708984 -6.501999855041504 L -62.17543029785156 -6.501999855041504 L -62.82573699951172 -6.501999855041504 L -65.53600311279297 -6.501999855041504 L -67.2665786743164 -6.501999855041504 L -67.95393371582031 -6.501999855041504 L -69.63200378417969 -6.501999855041504 L -71.59300231933594 -6.501999855041504 L -71.59300231933594 -4.0960001945495605 L -71.59300231933594 -1.2393141984939575 L -71.59300231933594 -0.035165801644325145 L -71.59300231933594 1.1102230246251565e-16 L -71.59300231933594 0.357193559408188 L -71.59300231933594 4.0960001945495605 L -71.59300231933594 7.502999782562256 L -66.35800170898438 7.502999782562256 L -65.53600311279297 7.502999782562256 L -57.5880012512207 7.502999782562256 L -57.5880012512207 6.623000144958496 L -57.5880012512207 4.0960001945495605 L -57.5880012512207 2.0480000972747803 M 70.92400360107422 7.0960001945495605 L 71.22200012207031 6.944011688232422 L 71.27300262451172 6.918000221252441 L 71.5510025024414 6.640999794006348 L 71.72799682617188 6.291999816894531 L 71.751708984375 6.144000053405762 L 71.79000091552734 5.90500020980835 L 71.72799682617188 5.51800012588501 L 71.5510025024414 5.169000148773193 L 71.27300262451172 4.892000198364258 L 71.22200012207031 4.865988731384277 L 70.92400360107422 4.714000225067139 L 70.53700256347656 4.6519999504089355 L 70.1500015258789 4.714000225067139 L 69.8010025024414 4.892000198364258 L 69.52400207519531 5.169000148773193 L 69.34600067138672 5.51800012588501 L 69.28500366210938 5.90500020980835 L 69.32266998291016 6.144000053405762 L 69.34600067138672 6.291999816894531 L 69.52400207519531 6.640999794006348 L 69.8010025024414 6.918000221252441 L 70.1500015258789 7.0960001945495605 L 70.53700256347656 7.1570000648498535 L 70.92400360107422 7.0960001945495605 M -57.5880012512207 -18.2807559967041 L -57.5880012512207 -18.43199920654297 L -57.5880012512207 -20.479999542236328 L -57.5880012512207 -24.576000213623047 L -57.5880012512207 -25.50200080871582 L -61.43461990356445 -25.50200080871582 L -61.7343864440918 -25.50200080871582 L -62.0833854675293 -25.50200080871582 L -62.638893127441406 -25.50200080871582 L -65.53600311279297 -25.50200080871582 L -66.35800170898438 -25.50200080871582 L -67.17314910888672 -25.50200080871582 L -67.75882720947266 -25.50200080871582 L -71.59300231933594 -25.50200080871582 L -71.59300231933594 -25.36798095703125 L -71.59300231933594 -24.576000213623047 L -71.59300231933594 -20.479999542236328 L -71.59300231933594 -20.036048889160156 L -71.59300231933594 -19.558000564575195 L -71.59300231933594 -19.13141441345215 L -71.59300231933594 -18.694494247436523 L -71.59300231933594 -18.43199920654297 L -71.59300231933594 -16.384000778198242 L -71.59300231933594 -12.427000045776367 L -71.59300231933594 -11.496999740600586 L -65.53600311279297 -11.496999740600586 L -61.84670639038086 -11.496999740600586 L -59.43075180053711 -11.496999740600586 L -58.06480026245117 -11.496999740600586 L -57.5880012512207 -11.496999740600586 L -57.5880012512207 -12.944999694824219 L -57.5880012512207 -16.384000778198242 L -57.5880012512207 -16.64627456665039 L -57.5880012512207 -17.30978012084961 L -57.5880012512207 -17.820999145507812 L -57.5880012512207 -18.2807559967041 z" fill="none" stroke="rgb(255,0,0)" stroke-width="0.001mm" />
</svg>